<?xml version="1.0" encoding="UTF-8" standalone="no"?>
<svg
   xmlns:dc="http://purl.org/dc/elements/1.1/"
   xmlns:cc="http://creativecommons.org/ns#"
   xmlns:rdf="http://www.w3.org/1999/02/22-rdf-syntax-ns#"
   xmlns:svg="http://www.w3.org/2000/svg"
   xmlns="http://www.w3.org/2000/svg"
   id="svg919"
   version="1.1"
   viewBox="0 0 297 420"
   height="420mm"
   width="297mm">
  <defs
     id="defs913">
    <marker
       id="DistanceX"
       orient="auto"
       refX="0.0"
       refY="0.0"
       style="overflow:visible">
      <path
         d="M 3,-3 L -3,3 M 0,-5 L  0,5"
         style="stroke:#000000; stroke-width:0.5"
         id="path1657" />
    </marker>
    <pattern
       height="8"
       id="Hatch"
       patternUnits="userSpaceOnUse"
       width="8"
       x="0"
       y="0">
      <path
         d="M8 4 l-4,4"
         linecap="square"
         stroke="#000000"
         stroke-width="0.25"
         id="path1660" />
      <path
         d="M6 2 l-4,4"
         linecap="square"
         stroke="#000000"
         stroke-width="0.25"
         id="path1662" />
      <path
         d="M4 0 l-4,4"
         linecap="square"
         stroke="#000000"
         stroke-width="0.25"
         id="path1664" />
    </pattern>
    <symbol
       id="*MODEL_SPACE" />
    <symbol
       id="*PAPER_SPACE" />
  </defs>
  <metadata
     id="metadata916">
    <rdf:RDF>
      <cc:Work
         rdf:about="">
        <dc:format>image/svg+xml</dc:format>
        <dc:type
           rdf:resource="http://purl.org/dc/dcmitype/StillImage" />
        <dc:title></dc:title>
      </cc:Work>
    </rdf:RDF>
  </metadata>
  <g
     transform="translate(0,123)"
     id="layer1">
    <g
       transform="matrix(0.26458333,0,0,0.26458333,116.39403,-308.97181)"
       id="g1747">
      <path
         d="m 564.6802,1943.1371 -33.81632,33.8164 h -808.36735 l -33.81633,-33.8164 V 876.77938 l 33.81633,-33.81633 h 808.36735 l 33.81632,33.81633 z"
         style="fill:none;stroke:#000000"
         id="path1671" />
      <path
         d="m -190.2398,948.21114 a 64.56,64.56 0 0 1 107.520003,0 v 71.49426 a 64.56,64.56 0 0 1 -107.520003,0 z"
         style="fill:none;stroke:#000000"
         id="path1673" />
      <path
         d="m -41.919797,948.21114 a 64.56,64.56 0 0 1 107.52,0 v 71.49426 a 64.56,64.56 0 0 1 -107.52,0 z"
         style="fill:none;stroke:#000000"
         id="path1675" />
      <path
         d="m -233.16938,1172.7329 a 5.376,5.376 0 1 0 -10.752,0 5.376,5.376 0 1 0 10.752,0 z"
         style="fill:none;stroke:#000000"
         id="path1677" />
      <path
         d="m 220.26133,1172.7329 a 5.376,5.376 0 1 0 -10.752,0 5.376,5.376 0 1 0 10.752,0 z"
         style="fill:none;stroke:#000000"
         id="path1679" />
      <path
         d="m -62.712084,1172.7329 a 5.376,5.376 0 1 0 -10.752,0 5.376,5.376 0 1 0 10.752,0 z"
         style="fill:none;stroke:#000000"
         id="path1681" />
      <path
         d="m 49.804037,1172.7329 a 5.376,5.376 0 1 0 -10.752,0 5.376,5.376 0 1 0 10.752,0 z"
         style="fill:none;stroke:#000000"
         id="path1683" />
      <path
         d="m 512.32139,1172.7329 a 5.376,5.376 0 1 0 -10.752,0 5.376,5.376 0 1 0 10.752,0 z"
         style="fill:none;stroke:#000000"
         id="path1685" />
      <path
         d="m 512.32139,1115.7089 a 5.376,5.376 0 1 0 -10.752,0 5.376,5.376 0 1 0 10.752,0 z"
         style="fill:none;stroke:#000000"
         id="path1687" />
      <path
         d="m 488.32139,1288.2209 a 5.376,5.376 0 1 0 -10.752,0 5.376,5.376 0 1 0 10.752,0 z"
         style="fill:none;stroke:#000000"
         id="path1689" />
      <path
         d="m 234.0562,887.95825 a 5.376,5.376 0 1 0 -10.752,0 5.376,5.376 0 1 0 10.752,0 z"
         style="fill:none;stroke:#000000"
         id="path1691" />
      <path
         d="m 378.0562,887.95825 a 5.376,5.376 0 1 0 -10.752,0 5.376,5.376 0 1 0 10.752,0 z"
         style="fill:none;stroke:#000000"
         id="path1693" />
      <path
         d="m 320.32139,1288.2209 a 5.376,5.376 0 1 0 -10.752,0 5.376,5.376 0 1 0 10.752,0 z"
         style="fill:none;stroke:#000000"
         id="path1695" />
      <path
         d="m 320.32139,1024.2209 a 5.376,5.376 0 1 0 -10.752,0 5.376,5.376 0 1 0 10.752,0 z"
         style="fill:none;stroke:#000000"
         id="path1697" />
      <path
         d="m 488.32139,1024.2209 a 5.376,5.376 0 1 0 -10.752,0 5.376,5.376 0 1 0 10.752,0 z"
         style="fill:none;stroke:#000000"
         id="path1699" />
      <path
         d="m 349.12139,1024.2209 a 5.376,5.376 0 1 0 -10.752,0 5.376,5.376 0 1 0 10.752,0 z"
         style="fill:none;stroke:#000000"
         id="path1701" />
      <path
         d="m 349.12139,1264.2209 a 5.376,5.376 0 1 0 -10.752,0 5.376,5.376 0 1 0 10.752,0 z"
         style="fill:none;stroke:#000000"
         id="path1703" />
      <path
         d="m 512.32139,1264.2209 a 5.376,5.376 0 1 0 -10.752,0 5.376,5.376 0 1 0 10.752,0 z"
         style="fill:none;stroke:#000000"
         id="path1705" />
      <path
         d="m 387.52139,1024.2209 a 5.376,5.376 0 1 0 -10.752,0 5.376,5.376 0 1 0 10.752,0 z"
         style="fill:none;stroke:#000000"
         id="path1707" />
      <path
         d="m 512.32139,1197.0209 a 5.376,5.376 0 1 0 -10.752,0 5.376,5.376 0 1 0 10.752,0 z"
         style="fill:none;stroke:#000000"
         id="path1709" />
      <path
         d="m 186.0562,911.95825 a 5.376,5.376 0 1 0 -10.752,0 5.376,5.376 0 1 0 10.752,0 z"
         style="fill:none;stroke:#000000"
         id="path1711" />
      <path
         d="m 426.0562,911.95825 a 5.376,5.376 0 1 0 -10.752,0 5.376,5.376 0 1 0 10.752,0 z"
         style="fill:none;stroke:#000000"
         id="path1713" />
      <path
         d="m 387.52139,1197.0209 a 5.376,5.376 0 1 0 -10.752,0 5.376,5.376 0 1 0 10.752,0 z"
         style="fill:none;stroke:#000000"
         id="path1715" />
      <path
         d="m 102.0562,983.95825 a 5.376,5.376 0 1 0 -10.751997,0 5.376,5.376 0 1 0 10.751997,0 z"
         style="fill:none;stroke:#000000"
         id="path1717" />
      <path
         d="m 512.32139,1024.2209 a 5.376,5.376 0 1 0 -10.752,0 5.376,5.376 0 1 0 10.752,0 z"
         style="fill:none;stroke:#000000"
         id="path1719" />
      <path
         d="m -55.119797,983.95825 a 7.2,7.2 0 1 0 -14.4,0 7.2,7.2 0 1 0 14.4,0 z"
         style="fill:none;stroke:#000000"
         id="path1721" />
      <path
         d="m 498.0562,959.95825 a 5.376,5.376 0 1 0 -10.752,0 5.376,5.376 0 1 0 10.752,0 z"
         style="fill:none;stroke:#000000"
         id="path1723" />
      <path
         d="m 279.0802,887.95825 a 14.4,14.4 0 1 0 -28.8,0 14.4,14.4 0 1 0 28.8,0 z"
         style="fill:none;stroke:#000000"
         id="path1725" />
      <path
         d="m 351.0802,887.95825 a 14.4,14.4 0 1 0 -28.8,0 14.4,14.4 0 1 0 28.8,0 z"
         style="fill:none;stroke:#000000"
         id="path1727" />
      <path
         d="m 315.0802,887.95825 a 14.4,14.4 0 1 0 -28.8,0 14.4,14.4 0 1 0 28.8,0 z"
         style="fill:none;stroke:#000000"
         id="path1729" />
      <path
         d="m -212.31972,868.45837 a 12,12 0 1 0 -24,0 12,12 0 1 0 24,0 z"
         style="fill:none;stroke:#000000"
         id="path1731" />
      <path
         d="m 489.68012,868.45837 a 12,12 0 1 0 -24,0 12,12 0 1 0 24,0 z"
         style="fill:none;stroke:#000000"
         id="path1733" />
      <path
         d="m -212.31972,1951.4581 a 12,12 0 1 0 -24,0 12,12 0 1 0 24,0 z"
         style="fill:none;stroke:#000000"
         id="path1735" />
      <path
         d="m 489.68012,1951.4581 a 12,12 0 1 0 -24,0 12,12 0 1 0 24,0 z"
         style="fill:none;stroke:#000000"
         id="path1737" />
      <path
         d="m -257.3198,917.95825 a 12,12 0 1 0 -24,0 12,12 0 1 0 24,0 z"
         style="fill:none;stroke:#000000"
         id="path1739" />
      <path
         d="m 534.6802,917.95825 a 12,12 0 1 0 -24,0 12,12 0 1 0 24,0 z"
         style="fill:none;stroke:#000000"
         id="path1741" />
      <path
         d="m -257.3198,1901.9583 a 12,12 0 1 0 -24,0 12,12 0 1 0 24,0 z"
         style="fill:none;stroke:#000000"
         id="path1743" />
      <path
         d="m 534.6802,1901.9583 a 12,12 0 1 0 -24,0 12,12 0 1 0 24,0 z"
         style="fill:none;stroke:#000000"
         id="path1745" />
    </g>
  </g>
</svg>
