<?xml version="1.0" encoding="UTF-8" standalone="no"?>
<svg
   xmlns:dc="http://purl.org/dc/elements/1.1/"
   xmlns:cc="http://creativecommons.org/ns#"
   xmlns:rdf="http://www.w3.org/1999/02/22-rdf-syntax-ns#"
   xmlns:svg="http://www.w3.org/2000/svg"
   xmlns="http://www.w3.org/2000/svg"
   id="svg96"
   version="1.1"
   height="1122.51968504"
   width="793.700787402">
  <metadata
     id="metadata100">
    <rdf:RDF>
      <cc:Work
         rdf:about="">
        <dc:format>image/svg+xml</dc:format>
        <dc:type
           rdf:resource="http://purl.org/dc/dcmitype/StillImage" />
        <dc:title></dc:title>
      </cc:Work>
    </rdf:RDF>
  </metadata>
  <desc
     id="desc2">/Users/aravinth/Google Drive/Workspace/projects/-mozaic-beat/araBeat/hardware/-resources/edgecut-silkscreen/heated-enclosure.dxf - scale = 1.000000, origin = (0.000000, 0.000000), method = manual</desc>
  <defs
     id="defs16">
    <marker
       style="overflow:visible"
       refY="0.0"
       refX="0.0"
       orient="auto"
       id="DistanceX">
      <path
         id="path4"
         style="stroke:#000000; stroke-width:0.5"
         d="M 3,-3 L -3,3 M 0,-5 L  0,5" />
    </marker>
    <pattern
       y="0"
       x="0"
       width="8"
       patternUnits="userSpaceOnUse"
       id="Hatch"
       height="8">
      <path
         id="path7"
         stroke-width="0.25"
         stroke="#000000"
         linecap="square"
         d="M8 4 l-4,4" />
      <path
         id="path9"
         stroke-width="0.25"
         stroke="#000000"
         linecap="square"
         d="M6 2 l-4,4" />
      <path
         id="path11"
         stroke-width="0.25"
         stroke="#000000"
         linecap="square"
         d="M4 0 l-4,4" />
    </pattern>
    <symbol
       id="*MODEL_SPACE" />
    <symbol
       id="*PAPER_SPACE" />
  </defs>
  <g
     id="g94">
    <path
       id="path18"
       style="stroke:#000000;fill:none"
       d="M 438.000000,1655.698560 L 404.183675,1689.514885 L -404.183675,1689.514885 L -438.000000,1655.698560 L -438.000000,589.340811 L -404.183675,555.524485 L 404.183675,555.524485 L 438.000000,589.340811 L 438.000000,1655.698560 z" />
    <path
       id="path20"
       style="stroke:#000000;fill:none"
       d="M -359.849579,885.294354 A 5.376000,5.376000 -0.000000 1 0 -370.601579,885.294354 5.376000,5.376000 -0.000000 1 0 -359.849579,885.294354 z" />
    <path
       id="path22"
       style="stroke:#000000;fill:none"
       d="M 93.581126,885.294354 A 5.376000,5.376000 -0.000000 1 0 82.829126,885.294354 5.376000,5.376000 -0.000000 1 0 93.581126,885.294354 z" />
    <path
       id="path24"
       style="stroke:#000000;fill:none"
       d="M -189.392287,885.294354 A 5.376000,5.376000 -0.000000 1 0 -200.144287,885.294354 5.376000,5.376000 -0.000000 1 0 -189.392287,885.294354 z" />
    <path
       id="path26"
       style="stroke:#000000;fill:none"
       d="M -76.876166,885.294354 A 5.376000,5.376000 -0.000000 1 0 -87.628166,885.294354 5.376000,5.376000 -0.000000 1 0 -76.876166,885.294354 z" />
    <path
       id="path28"
       style="stroke:#000000;fill:none"
       d="M 385.641184,885.294354 A 5.376000,5.376000 -0.000000 1 0 374.889184,885.294354 5.376000,5.376000 -0.000000 1 0 385.641184,885.294354 z" />
    <path
       id="path30"
       style="stroke:#000000;fill:none"
       d="M 385.641184,828.270354 A 5.376000,5.376000 -0.000000 1 0 374.889184,828.270354 5.376000,5.376000 -0.000000 1 0 385.641184,828.270354 z" />
    <path
       id="path32"
       style="stroke:#000000;fill:none"
       d="M 361.641184,1000.782354 A 5.376000,5.376000 -0.000000 1 0 350.889184,1000.782354 5.376000,5.376000 -0.000000 1 0 361.641184,1000.782354 z" />
    <path
       id="path34"
       style="stroke:#000000;fill:none"
       d="M 107.376000,600.519685 A 5.376000,5.376000 -0.000000 1 0 96.624000,600.519685 5.376000,5.376000 -0.000000 1 0 107.376000,600.519685 z" />
    <path
       id="path36"
       style="stroke:#000000;fill:none"
       d="M 251.376000,600.519685 A 5.376000,5.376000 -0.000000 1 0 240.624000,600.519685 5.376000,5.376000 -0.000000 1 0 251.376000,600.519685 z" />
    <path
       id="path38"
       style="stroke:#000000;fill:none"
       d="M 193.641184,1000.782354 A 5.376000,5.376000 -0.000000 1 0 182.889184,1000.782354 5.376000,5.376000 -0.000000 1 0 193.641184,1000.782354 z" />
    <path
       id="path40"
       style="stroke:#000000;fill:none"
       d="M 193.641184,736.782354 A 5.376000,5.376000 -0.000000 1 0 182.889184,736.782354 5.376000,5.376000 -0.000000 1 0 193.641184,736.782354 z" />
    <path
       id="path42"
       style="stroke:#000000;fill:none"
       d="M 361.641184,736.782354 A 5.376000,5.376000 -0.000000 1 0 350.889184,736.782354 5.376000,5.376000 -0.000000 1 0 361.641184,736.782354 z" />
    <path
       id="path44"
       style="stroke:#000000;fill:none"
       d="M 222.441184,736.782354 A 5.376000,5.376000 -0.000000 1 0 211.689184,736.782354 5.376000,5.376000 -0.000000 1 0 222.441184,736.782354 z" />
    <path
       id="path46"
       style="stroke:#000000;fill:none"
       d="M 222.441184,976.782354 A 5.376000,5.376000 -0.000000 1 0 211.689184,976.782354 5.376000,5.376000 -0.000000 1 0 222.441184,976.782354 z" />
    <path
       id="path48"
       style="stroke:#000000;fill:none"
       d="M 385.641184,976.782354 A 5.376000,5.376000 -0.000000 1 0 374.889184,976.782354 5.376000,5.376000 -0.000000 1 0 385.641184,976.782354 z" />
    <path
       id="path50"
       style="stroke:#000000;fill:none"
       d="M 260.841184,736.782354 A 5.376000,5.376000 -0.000000 1 0 250.089184,736.782354 5.376000,5.376000 -0.000000 1 0 260.841184,736.782354 z" />
    <path
       id="path52"
       style="stroke:#000000;fill:none"
       d="M 385.641184,909.582354 A 5.376000,5.376000 -0.000000 1 0 374.889184,909.582354 5.376000,5.376000 -0.000000 1 0 385.641184,909.582354 z" />
    <path
       id="path54"
       style="stroke:#000000;fill:none"
       d="M 59.376000,624.519685 A 5.376000,5.376000 -0.000000 1 0 48.624000,624.519685 5.376000,5.376000 -0.000000 1 0 59.376000,624.519685 z" />
    <path
       id="path56"
       style="stroke:#000000;fill:none"
       d="M 299.376000,624.519685 A 5.376000,5.376000 -0.000000 1 0 288.624000,624.519685 5.376000,5.376000 -0.000000 1 0 299.376000,624.519685 z" />
    <path
       id="path58"
       style="stroke:#000000;fill:none"
       d="M 260.841184,909.582354 A 5.376000,5.376000 -0.000000 1 0 250.089184,909.582354 5.376000,5.376000 -0.000000 1 0 260.841184,909.582354 z" />
    <path
       id="path60"
       style="stroke:#000000;fill:none"
       d="M -24.624000,696.519685 A 5.376000,5.376000 -0.000000 1 0 -35.376000,696.519685 5.376000,5.376000 -0.000000 1 0 -24.624000,696.519685 z" />
    <path
       id="path62"
       style="stroke:#000000;fill:none"
       d="M 385.641184,736.782354 A 5.376000,5.376000 -0.000000 1 0 374.889184,736.782354 5.376000,5.376000 -0.000000 1 0 385.641184,736.782354 z" />
    <path
       id="path64"
       style="stroke:#000000;fill:none"
       d="M -316.920000,660.772573 A 64.560000,64.560000 0.0 0 1 -209.400000,660.772573 L -209.400000,732.266797 A 64.560000,64.560000 0.0 0 1 -316.920000,732.266797 L -316.920000,660.772573 z" />
    <path
       id="path66"
       style="stroke:#000000;fill:none"
       d="M -168.600000,660.772573 A 64.560000,64.560000 0.0 0 1 -61.080000,660.772573 L -61.080000,732.266797 A 64.560000,64.560000 0.0 0 1 -168.600000,732.266797 L -168.600000,660.772573 z" />
    <path
       id="path68"
       style="stroke:#000000;fill:none"
       d="M -181.800000,696.519685 A 7.200000,7.200000 -0.000000 1 0 -196.200000,696.519685 7.200000,7.200000 -0.000000 1 0 -181.800000,696.519685 z" />
    <path
       id="path70"
       style="stroke:#000000;fill:none"
       d="M 371.376000,672.519685 A 5.376000,5.376000 -0.000000 1 0 360.624000,672.519685 5.376000,5.376000 -0.000000 1 0 371.376000,672.519685 z" />
    <path
       id="path72"
       style="stroke:#000000;fill:none"
       d="M 152.400000,600.519685 A 14.400000,14.400000 -0.000000 1 0 123.600000,600.519685 14.400000,14.400000 -0.000000 1 0 152.400000,600.519685 z" />
    <path
       id="path74"
       style="stroke:#000000;fill:none"
       d="M 224.400000,600.519685 A 14.400000,14.400000 -0.000000 1 0 195.600000,600.519685 14.400000,14.400000 -0.000000 1 0 224.400000,600.519685 z" />
    <path
       id="path76"
       style="stroke:#000000;fill:none"
       d="M 188.400000,600.519685 A 14.400000,14.400000 -0.000000 1 0 159.600000,600.519685 14.400000,14.400000 -0.000000 1 0 188.400000,600.519685 z" />
    <path
       id="path78"
       style="stroke:#000000;fill:none"
       d="M -338.999922,581.019805 A 12.000000,12.000000 -0.000000 1 0 -362.999922,581.019805 12.000000,12.000000 -0.000000 1 0 -338.999922,581.019805 z" />
    <path
       id="path80"
       style="stroke:#000000;fill:none"
       d="M 362.999922,581.019805 A 12.000000,12.000000 -0.000000 1 0 338.999922,581.019805 12.000000,12.000000 -0.000000 1 0 362.999922,581.019805 z" />
    <path
       id="path82"
       style="stroke:#000000;fill:none"
       d="M -338.999922,1664.019565 A 12.000000,12.000000 -0.000000 1 0 -362.999922,1664.019565 12.000000,12.000000 -0.000000 1 0 -338.999922,1664.019565 z" />
    <path
       id="path84"
       style="stroke:#000000;fill:none"
       d="M 362.999922,1664.019565 A 12.000000,12.000000 -0.000000 1 0 338.999922,1664.019565 12.000000,12.000000 -0.000000 1 0 362.999922,1664.019565 z" />
    <path
       id="path86"
       style="stroke:#000000;fill:none"
       d="M -384.000000,630.519685 A 12.000000,12.000000 -0.000000 1 0 -408.000000,630.519685 12.000000,12.000000 -0.000000 1 0 -384.000000,630.519685 z" />
    <path
       id="path88"
       style="stroke:#000000;fill:none"
       d="M 408.000000,630.519685 A 12.000000,12.000000 -0.000000 1 0 384.000000,630.519685 12.000000,12.000000 -0.000000 1 0 408.000000,630.519685 z" />
    <path
       id="path90"
       style="stroke:#000000;fill:none"
       d="M -384.000000,1614.519685 A 12.000000,12.000000 -0.000000 1 0 -408.000000,1614.519685 12.000000,12.000000 -0.000000 1 0 -384.000000,1614.519685 z" />
    <path
       id="path92"
       style="stroke:#000000;fill:none"
       d="M 408.000000,1614.519685 A 12.000000,12.000000 -0.000000 1 0 384.000000,1614.519685 12.000000,12.000000 -0.000000 1 0 408.000000,1614.519685 z" />
  </g>
</svg>
