0
SECTION
2
HEADER
9
$INSUNITS
70
4
9
$ACADVER
1
AC1014
9
$HANDSEED
5
FFFF
0
ENDSEC
0
SECTION
2
TABLES
0
TABLE
2
VPORT
5
8
100
AcDbSymbolTable
0
ENDTAB
0
TABLE
2
LTYPE
5
5
100
AcDbSymbolTable
0
LTYPE
5
14
100
AcDbSymbolTableRecord
100
AcDbLinetypeTableRecord
2
BYBLOCK
70
0
0
LTYPE
5
15
100
AcDbSymbolTableRecord
100
AcDbLinetypeTableRecord
2
BYLAYER
70
0
0
ENDTAB
0
TABLE
2
LAYER
5
2
100
AcDbSymbolTable
70
2
0
LAYER
5
50
100
AcDbSymbolTableRecord
100
AcDbLayerTableRecord
2
0
70
0
6
CONTINUOUS
0
ENDTAB
0
TABLE
2
STYLE
5
3
100
AcDbSymbolTable
70
1
0
STYLE
5
11
100
AcDbSymbolTableRecord
100
AcDbTextStyleTableRecord
2
STANDARD
70
0
0
ENDTAB
0
TABLE
2
VIEW
5
6
100
AcDbSymbolTable
70
0
0
ENDTAB
0
TABLE
2
UCS
5
7
100
AcDbSymbolTable
70
0
0
ENDTAB
0
TABLE
2
APPID
5
9
100
AcDbSymbolTable
70
2
0
APPID
5
12
100
AcDbSymbolTableRecord
100
AcDbRegAppTableRecord
2
ACAD
70
0
0
ENDTAB
0
TABLE
2
DIMSTYLE
5
A
100
AcDbSymbolTable
70
1
0
ENDTAB
0
TABLE
2
BLOCK_RECORD
5
1
100
AcDbSymbolTable
70
1
0
BLOCK_RECORD
5
1F
100
AcDbSymbolTableRecord
100
AcDbBlockTableRecord
2
*MODEL_SPACE
0
BLOCK_RECORD
5
1B
100
AcDbSymbolTableRecord
100
AcDbBlockTableRecord
2
*PAPER_SPACE
0
ENDTAB
0
ENDSEC
0
SECTION
2
BLOCKS
0
BLOCK
5
20
100
AcDbEntity
100
AcDbBlockBegin
2
*MODEL_SPACE
0
ENDBLK
5
21
100
AcDbEntity
100
AcDbBlockEnd
0
BLOCK
5
1C
100
AcDbEntity
100
AcDbBlockBegin
2
*PAPER_SPACE
0
ENDBLK
5
1D
100
AcDbEntity
100
AcDbBlockEnd
0
ENDSEC
0
SECTION
2
ENTITIES
0
LWPOLYLINE
5
100
100
AcDbEntity
8
0
100
AcDbPolyline
90
8
70
1
43
0.0
10
115.88750000000002
20
-141.0702438789306
10
106.94026387893075
20
-150.01747999999984
10
-106.94026387893146
20
-150.01747999999984
10
-115.88750000000002
20
-141.07024387893131
10
-115.88750000000002
20
141.0702438789306
10
-106.94026387893072
20
150.01747999999984
10
106.94026387893072
20
150.01747999999984
10
115.88750000000002
20
141.0702438789306
0
CIRCLE
5
101
100
AcDbEntity
8
0
100
AcDbCircle
10
-96.632601230429373
20
62.765868801746493
30
0
40
1.4223999999999903
0
CIRCLE
5
102
100
AcDbEntity
8
0
100
AcDbCircle
10
23.337606338291263
20
62.765868801746493
30
0
40
1.4223999999999903
0
CIRCLE
5
103
100
AcDbEntity
8
0
100
AcDbCircle
10
-51.532442553846913
20
62.765868801746493
30
0
40
1.4223999999999903
0
CIRCLE
5
104
100
AcDbEntity
8
0
100
AcDbCircle
10
-21.762552338291201
20
62.765868801746493
30
0
40
1.4223999999999903
0
CIRCLE
5
105
100
AcDbEntity
8
0
100
AcDbCircle
10
100.61182989442445
20
62.765868801746493
30
0
40
1.4224000000000041
0
CIRCLE
5
106
100
AcDbEntity
8
0
100
AcDbCircle
10
100.61182989442445
20
77.853468801746374
30
0
40
1.4224000000000041
0
CIRCLE
5
107
100
AcDbEntity
8
0
100
AcDbCircle
10
94.261829894424807
20
32.209668801746425
30
0
40
1.4224000000000041
0
CIRCLE
5
108
100
AcDbEntity
8
0
100
AcDbCircle
10
26.987500000000001
20
138.11249999999984
30
0
40
1.4224000000000181
0
CIRCLE
5
109
100
AcDbEntity
8
0
100
AcDbCircle
10
65.087500000000006
20
138.11249999999984
30
0
40
1.4223999999999903
0
CIRCLE
5
110
100
AcDbEntity
8
0
100
AcDbCircle
10
49.811829894424456
20
32.209668801746425
30
0
40
1.4224000000000041
0
CIRCLE
5
111
100
AcDbEntity
8
0
100
AcDbCircle
10
49.811829894424456
20
102.05966880174643
30
0
40
1.4224000000000041
0
CIRCLE
5
112
100
AcDbEntity
8
0
100
AcDbCircle
10
94.261829894424451
20
102.05966880174643
30
0
40
1.4224000000000041
0
CIRCLE
5
113
100
AcDbEntity
8
0
100
AcDbCircle
10
57.431829894424375
20
102.05966880174643
30
0
40
1.4224000000000041
0
CIRCLE
5
114
100
AcDbEntity
8
0
100
AcDbCircle
10
57.431829894424375
20
38.559668801746426
30
0
40
1.4224000000000041
0
CIRCLE
5
115
100
AcDbEntity
8
0
100
AcDbCircle
10
100.61182989442445
20
38.559668801746426
30
0
40
1.4224000000000041
0
CIRCLE
5
116
100
AcDbEntity
8
0
100
AcDbCircle
10
67.591829894424507
20
102.05966880174643
30
0
40
1.4223999999999903
0
CIRCLE
5
117
100
AcDbEntity
8
0
100
AcDbCircle
10
100.61182989442445
20
56.339668801746861
30
0
40
1.4224000000000041
0
CIRCLE
5
118
100
AcDbEntity
8
0
100
AcDbCircle
10
14.287500000000371
20
131.76249999999985
30
0
40
1.4224000000000181
0
CIRCLE
5
119
100
AcDbEntity
8
0
100
AcDbCircle
10
77.787500000000364
20
131.76249999999985
30
0
40
1.4223999999999903
0
CIRCLE
5
120
100
AcDbEntity
8
0
100
AcDbCircle
10
67.591829894424507
20
56.339668801746861
30
0
40
1.4223999999999903
0
CIRCLE
5
121
100
AcDbEntity
8
0
100
AcDbCircle
10
-7.9375
20
112.71249999999982
30
0
40
1.4223999999999903
0
CIRCLE
5
122
100
AcDbEntity
8
0
100
AcDbCircle
10
100.61182989442445
20
102.05966880174643
30
0
40
1.4224000000000041
0
LWPOLYLINE
5
123
100
AcDbEntity
8
0
100
AcDbPolyline
90
4
70
1
43
0.0
10
-83.851750000000251
20
122.17058998952723
42
-0.53595402210858267
10
-55.403750000000329
20
122.1705899895275
10
-55.403750000000322
20
103.2544100104719
42
-0.53595402210857557
10
-83.851750000000266
20
103.25441001047218
0
LWPOLYLINE
5
124
100
AcDbEntity
8
0
100
AcDbPolyline
90
4
70
1
43
0.0
10
-44.608750000000214
20
122.17058998952717
42
-0.53595402210858323
10
-16.160750000000313
20
122.1705899895275
10
-16.160750000000313
20
103.25441001047184
42
-0.53595402210857412
10
-44.608750000000221
20
103.25441001047218
0
CIRCLE
5
125
100
AcDbEntity
8
0
100
AcDbCircle
10
-50.006249999999987
20
112.71249999999982
30
0
40
1.9050000000000038
0
CIRCLE
5
126
100
AcDbEntity
8
0
100
AcDbCircle
10
96.83750000000002
20
119.06249999999984
30
0
40
1.4223999999999903
0
CIRCLE
5
127
100
AcDbEntity
8
0
100
AcDbCircle
10
36.512500000000003
20
138.11249999999984
30
0
40
3.8100000000000076
0
CIRCLE
5
128
100
AcDbEntity
8
0
100
AcDbCircle
10
55.5625
20
138.11249999999984
30
0
40
3.8099999999999801
0
CIRCLE
5
129
100
AcDbEntity
8
0
100
AcDbCircle
10
46.037499999999994
20
138.11249999999984
30
0
40
3.8100000000000076
0
CIRCLE
5
130
100
AcDbEntity
8
0
100
AcDbCircle
10
-92.86872938314545
20
143.27184319364534
30
0
40
3.1749999999999834
0
CIRCLE
5
131
100
AcDbEntity
8
0
100
AcDbCircle
10
92.868729383133925
20
143.27184319364534
30
0
40
3.1749999999999834
0
CIRCLE
5
132
100
AcDbEntity
8
0
100
AcDbCircle
10
-92.86872938314545
20
-143.27184319363954
30
0
40
3.1749999999999834
0
CIRCLE
5
133
100
AcDbEntity
8
0
100
AcDbCircle
10
92.868729383133925
20
-143.27184319363954
30
0
40
3.1749999999999834
0
CIRCLE
5
134
100
AcDbEntity
8
0
100
AcDbCircle
10
-104.77500000000036
20
130.17499999999981
30
0
40
3.1749999999999834
0
CIRCLE
5
135
100
AcDbEntity
8
0
100
AcDbCircle
10
104.77499999999964
20
130.17500000000018
30
0
40
3.1750000000000114
0
CIRCLE
5
136
100
AcDbEntity
8
0
100
AcDbCircle
10
-104.77499999999964
20
-130.17499999999981
30
0
40
3.1749999999999834
0
CIRCLE
5
137
100
AcDbEntity
8
0
100
AcDbCircle
10
104.77500000000001
20
-130.17499999999981
30
0
40
3.1749999999999834
0
ENDSEC
0
SECTION
2
OBJECTS
0
DICTIONARY
5
C
100
AcDbDictionary
3
ACAD_GROUP
350
D
3
ACAD_MLINESTYLE
350
17
0
DICTIONARY
5
D
100
AcDbDictionary
0
DICTIONARY
5
1A
330
C
100
AcDbDictionary
0
DICTIONARY
5
17
100
AcDbDictionary
0
ENDSEC
0
EOF
