  0
SECTION
  2
HEADER
  9
$ACADVER
  1
AC1009
  9
$DWGCODEPAGE
  3
ansi_1252
  9
$INSBASE
 10
0.0
 20
0.0
 30
0.0
  9
$EXTMIN
 10
0.0
 20
-123.541282
 30
0.0
  9
$EXTMAX
 10
220.000068
 20
26.45833299999998
 30
0.0
  9
$LIMMIN
 10
0.0
 20
0.0
  9
$LIMMAX
 10
12.0
 20
9.0
  9
$ORTHOMODE
 70
     0
  9
$REGENMODE
 70
     1
  9
$FILLMODE
 70
     1
  9
$QTEXTMODE
 70
     0
  9
$MIRRTEXT
 70
     1
  9
$DRAGMODE
 70
     2
  9
$LTSCALE
 40
1.0
  9
$OSMODE
 70
   511
  9
$ATTMODE
 70
     1
  9
$TEXTSIZE
 40
2.5
  9
$TRACEWID
 40
0.05
  9
$TEXTSTYLE
  7
STANDARD
  9
$CLAYER
  8
0
  9
$CELTYPE
  6
BYBLOCK
  9
$CECOLOR
 62
   256
  9
$DIMSCALE
 40
1.0
  9
$DIMASZ
 40
0.18
  9
$DIMEXO
 40
0.0625
  9
$DIMDLI
 40
0.38
  9
$DIMRND
 40
0.0
  9
$DIMDLE
 40
0.0
  9
$DIMEXE
 40
0.18
  9
$DIMTP
 40
0.0
  9
$DIMTM
 40
0.0
  9
$DIMTXT
 40
0.18
  9
$DIMCEN
 40
0.09
  9
$DIMTSZ
 40
0.0
  9
$DIMTOL
 70
     0
  9
$DIMLIM
 70
     0
  9
$DIMTIH
 70
     1
  9
$DIMTOH
 70
     1
  9
$DIMSE1
 70
     0
  9
$DIMSE2
 70
     0
  9
$DIMTAD
 70
     0
  9
$DIMZIN
 70
     0
  9
$DIMBLK
  1

  9
$DIMASO
 70
     1
  9
$DIMSHO
 70
     1
  9
$DIMPOST
  1

  9
$DIMAPOST
  1

  9
$DIMALT
 70
     0
  9
$DIMALTD
 70
     2
  9
$DIMALTF
 40
25.4
  9
$DIMLFAC
 40
1.0
  9
$DIMTOFL
 70
     0
  9
$DIMTVP
 40
0.0
  9
$DIMTIX
 70
     0
  9
$DIMSOXD
 70
     0
  9
$DIMSAH
 70
     0
  9
$DIMBLK1
  1

  9
$DIMBLK2
  1

  9
$DIMSTYLE
  2
ISO-25
  9
$DIMCLRD
 70
     0
  9
$DIMCLRE
 70
     0
  9
$DIMCLRT
 70
     0
  9
$DIMTFAC
 40
1.0
  9
$DIMGAP
 40
0.09
  9
$LUNITS
 70
     2
  9
$LUPREC
 70
     4
  9
$SKETCHINC
 40
0.1
  9
$FILLETRAD
 40
0.5
  9
$AUNITS
 70
     0
  9
$AUPREC
 70
     0
  9
$MENU
  1
.
  9
$ELEVATION
 40
0.0
  9
$PELEVATION
 40
0.0
  9
$THICKNESS
 40
0.0
  9
$LIMCHECK
 70
     0
  9
$CHAMFERA
 40
0.0
  9
$CHAMFERB
 40
0.0
  9
$SKPOLY
 70
     0
  9
$TDCREATE
 40
0.0
  9
$TDUPDATE
 40
2458542.050375046
  9
$TDINDWG
 40
0.0000001968
  9
$TDUSRTIMER
 40
0.0001200694
  9
$USRTIMER
 70
     1
  9
$ANGBASE
 50
0.0
  9
$ANGDIR
 70
     0
  9
$PDMODE
 70
     0
  9
$PDSIZE
 40
0.0
  9
$PLINEWID
 40
0.0
  9
$COORDS
 70
     1
  9
$SPLFRAME
 70
     0
  9
$SPLINETYPE
 70
     6
  9
$SPLINESEGS
 70
     8
  9
$ATTDIA
 70
     0
  9
$ATTREQ
 70
     1
  9
$HANDLING
 70
     1
  9
$HANDSEED
  5
1046F
  9
$SURFTAB1
 70
     6
  9
$SURFTAB2
 70
     6
  9
$SURFTYPE
 70
     6
  9
$SURFU
 70
     6
  9
$SURFV
 70
     6
  9
$UCSNAME
  2

  9
$UCSORG
 10
0.0
 20
0.0
 30
0.0
  9
$UCSXDIR
 10
1.0
 20
0.0
 30
0.0
  9
$UCSYDIR
 10
0.0
 20
1.0
 30
0.0
  9
$PUCSNAME
  2

  9
$PUCSORG
 10
0.0
 20
0.0
 30
0.0
  9
$PUCSXDIR
 10
1.0
 20
0.0
 30
0.0
  9
$PUCSYDIR
 10
0.0
 20
1.0
 30
0.0
  9
$USERI1
 70
     0
  9
$USERI2
 70
     0
  9
$USERI3
 70
     0
  9
$USERI4
 70
     0
  9
$USERI5
 70
     0
  9
$USERR1
 40
0.0
  9
$USERR2
 40
0.0
  9
$USERR3
 40
0.0
  9
$USERR4
 40
0.0
  9
$USERR5
 40
0.0
  9
$WORLDVIEW
 70
     1
  9
$SHADEDGE
 70
     3
  9
$SHADEDIF
 70
    70
  9
$TILEMODE
 70
     1
  9
$MAXACTVP
 70
    64
  9
$PLIMCHECK
 70
     0
  9
$PEXTMIN
 10
1.000000000000000E+20
 20
1.000000000000000E+20
 30
1.000000000000000E+20
  9
$PEXTMAX
 10
-1.000000000000000E+20
 20
-1.000000000000000E+20
 30
-1.000000000000000E+20
  9
$PLIMMIN
 10
0.0
 20
0.0
  9
$PLIMMAX
 10
0.0
 20
0.0
  9
$UNITMODE
 70
     0
  9
$VISRETAIN
 70
     1
  9
$PLINEGEN
 70
     0
  9
$PSLTSCALE
 70
     1
  0
ENDSEC
  0
SECTION
  2
TABLES
  0
TABLE
  2
VPORT
 70
     1
  0
VPORT
  2
*ACTIVE
 70
     0
 10
0.0
 20
0.0
 11
1.0
 21
1.0
 12
210.0
 22
148.5
 13
0.0
 23
0.0
 14
10.0
 24
10.0
 15
10.0
 25
10.0
 16
0.0
 26
0.0
 36
1.0
 17
0.0
 27
0.0
 37
0.0
 40
341.0
 41
1.24
 42
50.0
 43
0.0
 44
0.0
 50
0.0
 51
0.0
 71
     0
 72
   100
 73
     1
 74
     3
 75
     0
 76
     0
 77
     0
 78
     0
  0
ENDTAB
  0
TABLE
  2
LTYPE
 70
     1
  0
LTYPE
  2
CONTINUOUS
 70
     0
  3
Solid line
 72
    65
 73
     0
 40
0.0
  0
ENDTAB
  0
TABLE
  2
LAYER
 70
     1
  0
LAYER
  2
0
 70
     0
 62
     7
  6
CONTINUOUS
  0
ENDTAB
  0
TABLE
  2
STYLE
 70
     1
  0
STYLE
  2
STANDARD
 70
     0
 40
0.0
 41
1.0
 50
0.0
 71
     0
 42
2.5
  3
txt
  4

  0
ENDTAB
  0
TABLE
  2
VIEW
 70
     0
  0
ENDTAB
  0
TABLE
  2
UCS
 70
     0
  0
ENDTAB
  0
TABLE
  2
APPID
 70
     1
  0
APPID
  2
ACAD
 70
     0
  0
ENDTAB
  0
TABLE
  2
DIMSTYLE
 70
     1
  0
DIMSTYLE
  2
ISO-25
 70
     0
  3

  4

  5

  6

  7

 40
1.0
 41
2.5
 42
0.625
 43
3.75
 44
1.25
 45
0.0
 46
0.0
 47
0.0
 48
0.0
140
2.5
141
2.5
142
0.0
143
0.03937007874016
144
1.0
145
0.0
146
1.0
147
0.625
 71
     0
 72
     0
 73
     0
 74
     0
 75
     0
 76
     0
 77
     1
 78
     8
170
     0
171
     3
172
     1
173
     0
174
     0
175
     0
176
     0
177
     0
178
     0
  0
ENDTAB
  0
ENDSEC
  0
SECTION
  2
BLOCKS
  0
BLOCK
  8
0
  2
$MODEL_SPACE
 70
     0
 10
0.0
 20
0.0
 30
0.0
  3
$MODEL_SPACE
  1

  0
ENDBLK
  5
21
  8
0
  0
BLOCK
 67
     1
  8
0
  2
$PAPER_SPACE
 70
     0
 10
0.0
 20
0.0
 30
0.0
  3
$PAPER_SPACE
  1

  0
ENDBLK
  5
1D
 67
     1
  8
0
  0
ENDSEC
  0
SECTION
  2
ENTITIES
  0
POLYLINE
  5
100
  8
0
 62
     1
 66
     1
 10
0.0
 20
0.0
 30
0.0
  0
VERTEX
  5
1004A
  8
0
 62
     1
 10
56.999801
 20
26.458333
 30
0.0
  0
VERTEX
  5
1004B
  8
0
 62
     1
 10
57.11687340210374
 20
26.43985353885519
 30
0.0
  0
VERTEX
  5
1004C
  8
0
 62
     1
 10
57.23379143229351
 20
26.42097623924373
 30
0.0
  0
VERTEX
  5
1004D
  8
0
 62
     1
 10
57.35040071865526
 20
26.40130326269893
 30
0.0
  0
VERTEX
  5
1004E
  8
0
 62
     1
 10
57.46654688927502
 20
26.38043677075414
 30
0.0
  0
VERTEX
  5
1004F
  8
0
 62
     1
 10
57.58207557223878
 20
26.3579789249427
 30
0.0
  0
VERTEX
  5
10050
  8
0
 62
     1
 10
57.69683239563253
 20
26.33353188679794
 30
0.0
  0
VERTEX
  5
10051
  8
0
 62
     1
 10
57.81066298754228
 20
26.30669781785318
 30
0.0
  0
VERTEX
  5
10052
  8
0
 62
     1
 10
57.92341297605406
 20
26.27707887964179
 30
0.0
  0
VERTEX
  5
10053
  8
0
 62
     1
 10
58.03492798925382
 20
26.24427723369708
 30
0.0
  0
VERTEX
  5
10054
  8
0
 62
     1
 10
58.14505365522758
 20
26.20789504155239
 30
0.0
  0
VERTEX
  5
10055
  8
0
 62
     1
 10
58.25363560206135
 20
26.16753446474107
 30
0.0
  0
VERTEX
  5
10056
  8
0
 62
     1
 10
58.36051945784111
 20
26.12279766479643
 30
0.0
  0
VERTEX
  5
10057
  8
0
 62
     1
 10
58.46555085065288
 20
26.07328680325184
 30
0.0
  0
VERTEX
  5
10058
  8
0
 62
     1
 10
58.56857295118343
 20
26.01862054661929
 30
0.0
  0
VERTEX
  5
10059
  8
0
 62
     1
 10
58.66938061361875
 20
25.95874207637258
 30
0.0
  0
VERTEX
  5
1005A
  8
0
 62
     1
 10
58.76772453647549
 20
25.89389114296529
 30
0.0
  0
VERTEX
  5
1005B
  8
0
 62
     1
 10
58.8633537951534
 20
25.82431839842112
 30
0.0
  0
VERTEX
  5
1005C
  8
0
 62
     1
 10
58.95601746505225
 20
25.75027449476376
 30
0.0
  0
VERTEX
  5
1005D
  8
0
 62
     1
 10
59.04546462157177
 20
25.67201008401692
 30
0.0
  0
VERTEX
  5
1005E
  8
0
 62
     1
 10
59.1314443401117
 20
25.58977581820428
 30
0.0
  0
VERTEX
  5
1005F
  8
0
 62
     1
 10
59.21370569607181
 20
25.50382234934956
 30
0.0
  0
VERTEX
  5
10060
  8
0
 62
     1
 10
59.29199776485185
 20
25.41440032947644
 30
0.0
  0
VERTEX
  5
10061
  8
0
 62
     1
 10
59.36606962185156
 20
25.32176041060862
 30
0.0
  0
VERTEX
  5
10062
  8
0
 62
     1
 10
59.43567034247071
 20
25.22615324476982
 30
0.0
  0
VERTEX
  5
10063
  8
0
 62
     1
 10
59.50054900210903
 20
25.1278294839837
 30
0.0
  0
VERTEX
  5
10064
  8
0
 62
     1
 10
59.56045467616627
 20
25.02703978027398
 30
0.0
  0
VERTEX
  5
10065
  8
0
 62
     1
 10
59.6151471854369
 20
24.924033194383
 30
0.0
  0
VERTEX
  5
10066
  8
0
 62
     1
 10
59.66468215383575
 20
24.81901498168285
 30
0.0
  0
VERTEX
  5
10067
  8
0
 62
     1
 10
59.70944086793389
 20
24.7121421702883
 30
0.0
  0
VERTEX
  5
10068
  8
0
 62
     1
 10
59.74982134892303
 20
24.6035693100905
 30
0.0
  0
VERTEX
  5
10069
  8
0
 62
     1
 10
59.78622161799491
 20
24.49345095098071
 30
0.0
  0
VERTEX
  5
1006A
  8
0
 62
     1
 10
59.81903969634129
 20
24.38194164285009
 30
0.0
  0
VERTEX
  5
1006B
  8
0
 62
     1
 10
59.84867360515382
 20
24.26919593558986
 30
0.0
  0
VERTEX
  5
1006C
  8
0
 62
     1
 10
59.87552136562429
 20
24.15536837909122
 30
0.0
  0
VERTEX
  5
1006D
  8
0
 62
     1
 10
59.8999809989444
 20
24.04061352324537
 30
0.0
  0
VERTEX
  5
1006E
  8
0
 62
     1
 10
59.92245052630587
 20
23.9250859179435
 30
0.0
  0
VERTEX
  5
1006F
  8
0
 62
     1
 10
59.94332796890045
 20
23.80894011307683
 30
0.0
  0
VERTEX
  5
10070
  8
0
 62
     1
 10
59.96301134791985
 20
23.69233065853656
 30
0.0
  0
VERTEX
  5
10071
  8
0
 62
     1
 10
59.98189868455579
 20
23.57541210421388
 30
0.0
  0
VERTEX
  5
10072
  8
0
 62
     1
 10
60.000388
 20
23.458339
 30
0.0
  0
SEQEND
  5
10453
  8
0
 62
     1
  0
POLYLINE
  5
101
  8
0
 62
     1
 66
     1
 10
0.0
 20
0.0
 30
0.0
  0
VERTEX
  5
10073
  8
0
 62
     1
 10
60.000388
 20
23.458339
 30
0.0
  0
VERTEX
  5
10074
  8
0
 62
     1
 10
60.000388
 20
21.458343
 30
0.0
  0
VERTEX
  5
10075
  8
0
 62
     1
 10
160.000188
 20
21.458343
 30
0.0
  0
VERTEX
  5
10076
  8
0
 62
     1
 10
160.000188
 20
23.458339
 30
0.0
  0
SEQEND
  5
10454
  8
0
 62
     1
  0
POLYLINE
  5
102
  8
0
 62
     1
 66
     1
 10
0.0
 20
0.0
 30
0.0
  0
VERTEX
  5
10077
  8
0
 62
     1
 10
160.000188
 20
23.458339
 30
0.0
  0
VERTEX
  5
10078
  8
0
 62
     1
 10
160.0186738880844
 20
23.57539198895
 30
0.0
  0
VERTEX
  5
10079
  8
0
 62
     1
 10
160.0375575565372
 20
23.69229057101024
 30
0.0
  0
VERTEX
  5
1007A
  8
0
 62
     1
 10
160.0572367857268
 20
23.80888033929091
 30
0.0
  0
VERTEX
  5
1007B
  8
0
 62
     1
 10
160.0781093560214
 20
23.92500688690225
 30
0.0
  0
VERTEX
  5
1007C
  8
0
 62
     1
 10
160.1005730477894
 20
24.04051580695449
 30
0.0
  0
VERTEX
  5
1007D
  8
0
 62
     1
 10
160.1250256413993
 20
24.15525269255783
 30
0.0
  0
VERTEX
  5
1007E
  8
0
 62
     1
 10
160.1518649172194
 20
24.26906313682252
 30
0.0
  0
VERTEX
  5
1007F
  8
0
 62
     1
 10
160.181488655618
 20
24.38179273285876
 30
0.0
  0
VERTEX
  5
10080
  8
0
 62
     1
 10
160.2142946369635
 20
24.49328707377678
 30
0.0
  0
VERTEX
  5
10081
  8
0
 62
     1
 10
160.2506806416243
 20
24.60339175268681
 30
0.0
  0
VERTEX
  5
10082
  8
0
 62
     1
 10
160.2910444499688
 20
24.71195236269905
 30
0.0
  0
VERTEX
  5
10083
  8
0
 62
     1
 10
160.3357838423652
 20
24.81881449692376
 30
0.0
  0
VERTEX
  5
10084
  8
0
 62
     1
 10
160.385296599182
 20
24.92382374847114
 30
0.0
  0
VERTEX
  5
10085
  8
0
 62
     1
 10
160.4399639713225
 20
25.02682325520673
 30
0.0
  0
VERTEX
  5
10086
  8
0
 62
     1
 10
160.4998426076152
 20
25.12760793942997
 30
0.0
  0
VERTEX
  5
10087
  8
0
 62
     1
 10
160.5646927219397
 20
25.2259286917474
 30
0.0
  0
VERTEX
  5
10088
  8
0
 62
     1
 10
160.6342636466908
 20
25.32153478645744
 30
0.0
  0
VERTEX
  5
10089
  8
0
 62
     1
 10
160.7083047142631
 20
25.41417549785855
 30
0.0
  0
VERTEX
  5
1008A
  8
0
 62
     1
 10
160.7865652570515
 20
25.50360010024915
 30
0.0
  0
VERTEX
  5
1008B
  8
0
 62
     1
 10
160.8687946074505
 20
25.5895578679277
 30
0.0
  0
VERTEX
  5
1008C
  8
0
 62
     1
 10
160.954742097855
 20
25.67179807519263
 30
0.0
  0
VERTEX
  5
1008D
  8
0
 62
     1
 10
161.0441570606596
 20
25.7500699963424
 30
0.0
  0
VERTEX
  5
1008E
  8
0
 62
     1
 10
161.1367888282591
 20
25.82412290567543
 30
0.0
  0
VERTEX
  5
1008F
  8
0
 62
     1
 10
161.2323867330482
 20
25.89370607749018
 30
0.0
  0
VERTEX
  5
10090
  8
0
 62
     1
 10
161.3307001074215
 20
25.95856878608508
 30
0.0
  0
VERTEX
  5
10091
  8
0
 62
     1
 10
161.4314782837738
 20
26.01846030575857
 30
0.0
  0
VERTEX
  5
10092
  8
0
 62
     1
 10
161.5344721827665
 20
26.07314061860066
 30
0.0
  0
VERTEX
  5
10093
  8
0
 62
     1
 10
161.639476549978
 20
26.12266516598745
 30
0.0
  0
VERTEX
  5
10094
  8
0
 62
     1
 10
161.7463344379922
 20
26.1674150659657
 30
0.0
  0
VERTEX
  5
10095
  8
0
 62
     1
 10
161.8548913867424
 20
26.20778820581947
 30
0.0
  0
VERTEX
  5
10096
  8
0
 62
     1
 10
161.9649929361616
 20
26.24418247283279
 30
0.0
  0
VERTEX
  5
10097
  8
0
 62
     1
 10
162.0764846261828
 20
26.27699575428972
 30
0.0
  0
VERTEX
  5
10098
  8
0
 62
     1
 10
162.1892119967392
 20
26.30662593747428
 30
0.0
  0
VERTEX
  5
10099
  8
0
 62
     1
 10
162.3030205877639
 20
26.33347090967053
 30
0.0
  0
VERTEX
  5
1009A
  8
0
 62
     1
 10
162.4177559391901
 20
26.35792855816252
 30
0.0
  0
VERTEX
  5
1009B
  8
0
 62
     1
 10
162.5332635909506
 20
26.38039677023428
 30
0.0
  0
VERTEX
  5
1009C
  8
0
 62
     1
 10
162.6493890829789
 20
26.40127343316987
 30
0.0
  0
VERTEX
  5
1009D
  8
0
 62
     1
 10
162.7659779552077
 20
26.42095643425332
 30
0.0
  0
VERTEX
  5
1009E
  8
0
 62
     1
 10
162.8828757475704
 20
26.43984366076868
 30
0.0
  0
VERTEX
  5
1009F
  8
0
 62
     1
 10
162.999928
 20
26.458333
 30
0.0
  0
SEQEND
  5
10455
  8
0
 62
     1
  0
POLYLINE
  5
103
  8
0
 62
     1
 66
     1
 10
0.0
 20
0.0
 30
0.0
  0
VERTEX
  5
100A0
  8
0
 62
     1
 10
162.999928
 20
26.458333
 30
0.0
  0
VERTEX
  5
100A1
  8
0
 62
     1
 10
217.000328
 20
26.458333
 30
0.0
  0
SEQEND
  5
10456
  8
0
 62
     1
  0
POLYLINE
  5
104
  8
0
 62
     1
 66
     1
 10
0.0
 20
0.0
 30
0.0
  0
VERTEX
  5
100A2
  8
0
 62
     1
 10
217.000328
 20
26.458333
 30
0.0
  0
VERTEX
  5
100A3
  8
0
 62
     1
 10
217.1173802524295
 20
26.43984366076869
 30
0.0
  0
VERTEX
  5
100A4
  8
0
 62
     1
 10
217.2342780447923
 20
26.42095643425332
 30
0.0
  0
VERTEX
  5
100A5
  8
0
 62
     1
 10
217.3508669170211
 20
26.40127343316988
 30
0.0
  0
VERTEX
  5
100A6
  8
0
 62
     1
 10
217.4669924090494
 20
26.3803967702343
 30
0.0
  0
VERTEX
  5
100A7
  8
0
 62
     1
 10
217.5825000608099
 20
26.35792855816252
 30
0.0
  0
VERTEX
  5
100A8
  8
0
 62
     1
 10
217.697235412236
 20
26.33347090967054
 30
0.0
  0
VERTEX
  5
100A9
  8
0
 62
     1
 10
217.8110440032608
 20
26.30662593747429
 30
0.0
  0
VERTEX
  5
100AA
  8
0
 62
     1
 10
217.9237713738172
 20
26.27699575428973
 30
0.0
  0
VERTEX
  5
100AB
  8
0
 62
     1
 10
218.0352630638384
 20
26.2441824728328
 30
0.0
  0
VERTEX
  5
100AC
  8
0
 62
     1
 10
218.1453646132576
 20
26.20778820581948
 30
0.0
  0
VERTEX
  5
100AD
  8
0
 62
     1
 10
218.2539215620078
 20
26.16741506596571
 30
0.0
  0
VERTEX
  5
100AE
  8
0
 62
     1
 10
218.3607794500221
 20
26.12266516598746
 30
0.0
  0
VERTEX
  5
100AF
  8
0
 62
     1
 10
218.4657838172336
 20
26.07314061860066
 30
0.0
  0
VERTEX
  5
100B0
  8
0
 62
     1
 10
218.5687777162262
 20
26.01846030575858
 30
0.0
  0
VERTEX
  5
100B1
  8
0
 62
     1
 10
218.6695558925785
 20
25.95856878608508
 30
0.0
  0
VERTEX
  5
100B2
  8
0
 62
     1
 10
218.7678692669518
 20
25.89370607749018
 30
0.0
  0
VERTEX
  5
100B3
  8
0
 62
     1
 10
218.8634671717409
 20
25.82412290567543
 30
0.0
  0
VERTEX
  5
100B4
  8
0
 62
     1
 10
218.9560989393404
 20
25.7500699963424
 30
0.0
  0
VERTEX
  5
100B5
  8
0
 62
     1
 10
219.045513902145
 20
25.67179807519264
 30
0.0
  0
VERTEX
  5
100B6
  8
0
 62
     1
 10
219.1314613925495
 20
25.5895578679277
 30
0.0
  0
VERTEX
  5
100B7
  8
0
 62
     1
 10
219.2136907429486
 20
25.50360010024915
 30
0.0
  0
VERTEX
  5
100B8
  8
0
 62
     1
 10
219.2919512857368
 20
25.41417549785853
 30
0.0
  0
VERTEX
  5
100B9
  8
0
 62
     1
 10
219.3659923533092
 20
25.32153478645743
 30
0.0
  0
VERTEX
  5
100BA
  8
0
 62
     1
 10
219.4355632780603
 20
25.22592869174739
 30
0.0
  0
VERTEX
  5
100BB
  8
0
 62
     1
 10
219.5004133923848
 20
25.12760793942996
 30
0.0
  0
VERTEX
  5
100BC
  8
0
 62
     1
 10
219.5602920286775
 20
25.02682325520671
 30
0.0
  0
VERTEX
  5
100BD
  8
0
 62
     1
 10
219.614959400818
 20
24.92382374847112
 30
0.0
  0
VERTEX
  5
100BE
  8
0
 62
     1
 10
219.6644721576347
 20
24.81881449692374
 30
0.0
  0
VERTEX
  5
100BF
  8
0
 62
     1
 10
219.7092115500312
 20
24.71195236269904
 30
0.0
  0
VERTEX
  5
100C0
  8
0
 62
     1
 10
219.7495753583757
 20
24.60339175268679
 30
0.0
  0
VERTEX
  5
100C1
  8
0
 62
     1
 10
219.7859613630364
 20
24.49328707377677
 30
0.0
  0
VERTEX
  5
100C2
  8
0
 62
     1
 10
219.818767344382
 20
24.38179273285875
 30
0.0
  0
VERTEX
  5
100C3
  8
0
 62
     1
 10
219.8483910827806
 20
24.26906313682251
 30
0.0
  0
VERTEX
  5
100C4
  8
0
 62
     1
 10
219.8752303586006
 20
24.15525269255782
 30
0.0
  0
VERTEX
  5
100C5
  8
0
 62
     1
 10
219.8996829522106
 20
24.04051580695448
 30
0.0
  0
VERTEX
  5
100C6
  8
0
 62
     1
 10
219.9221466439786
 20
23.92500688690225
 30
0.0
  0
VERTEX
  5
100C7
  8
0
 62
     1
 10
219.9430192142732
 20
23.8088803392909
 30
0.0
  0
VERTEX
  5
100C8
  8
0
 62
     1
 10
219.9626984434628
 20
23.69229057101023
 30
0.0
  0
VERTEX
  5
100C9
  8
0
 62
     1
 10
219.9815821119156
 20
23.57539198895001
 30
0.0
  0
VERTEX
  5
100CA
  8
0
 62
     1
 10
220.000068
 20
23.458339
 30
0.0
  0
SEQEND
  5
10457
  8
0
 62
     1
  0
POLYLINE
  5
105
  8
0
 62
     1
 66
     1
 10
0.0
 20
0.0
 30
0.0
  0
VERTEX
  5
100CB
  8
0
 62
     1
 10
220.000068
 20
23.458339
 30
0.0
  0
VERTEX
  5
100CC
  8
0
 62
     1
 10
220.000068
 20
-120.541542
 30
0.0
  0
SEQEND
  5
10458
  8
0
 62
     1
  0
POLYLINE
  5
106
  8
0
 62
     1
 66
     1
 10
0.0
 20
0.0
 30
0.0
  0
VERTEX
  5
100CD
  8
0
 62
     1
 10
220.000068
 20
-120.541542
 30
0.0
  0
VERTEX
  5
100CE
  8
0
 62
     1
 10
219.981587690946
 20
-120.6585954437192
 30
0.0
  0
VERTEX
  5
100CF
  8
0
 62
     1
 10
219.9627095467864
 20
-120.7754944253349
 30
0.0
  0
VERTEX
  5
100D0
  8
0
 62
     1
 10
219.9430357324157
 20
-120.8920844827433
 30
0.0
  0
VERTEX
  5
100D1
  8
0
 62
     1
 10
219.9221684127281
 20
-121.0082111538409
 30
0.0
  0
VERTEX
  5
100D2
  8
0
 62
     1
 10
219.8997097526183
 20
-121.1237199765242
 30
0.0
  0
VERTEX
  5
100D3
  8
0
 62
     1
 10
219.8752619169803
 20
-121.2384564886895
 30
0.0
  0
VERTEX
  5
100D4
  8
0
 62
     1
 10
219.8484270707089
 20
-121.3522662282332
 30
0.0
  0
VERTEX
  5
100D5
  8
0
 62
     1
 10
219.8188073786982
 20
-121.4649947330518
 30
0.0
  0
VERTEX
  5
100D6
  8
0
 62
     1
 10
219.7860050058428
 20
-121.5764875410416
 30
0.0
  0
VERTEX
  5
100D7
  8
0
 62
     1
 10
219.749622117037
 20
-121.6865901900991
 30
0.0
  0
VERTEX
  5
100D8
  8
0
 62
     1
 10
219.7092608771753
 20
-121.7951482181206
 30
0.0
  0
VERTEX
  5
100D9
  8
0
 62
     1
 10
219.664523451152
 20
-121.9020071630026
 30
0.0
  0
VERTEX
  5
100DA
  8
0
 62
     1
 10
219.6150120038616
 20
-122.0070125626414
 30
0.0
  0
VERTEX
  5
100DB
  8
0
 62
     1
 10
219.5603451451192
 20
-122.1100075154799
 30
0.0
  0
VERTEX
  5
100DC
  8
0
 62
     1
 10
219.5004658121466
 20
-122.2107870089551
 30
0.0
  0
VERTEX
  5
100DD
  8
0
 62
     1
 10
219.4356138792458
 20
-122.3091019826028
 30
0.0
  0
VERTEX
  5
100DE
  8
0
 62
     1
 10
219.3660401742015
 20
-122.40470175111
 30
0.0
  0
VERTEX
  5
100DF
  8
0
 62
     1
 10
219.2919955247984
 20
-122.4973356291634
 30
0.0
  0
VERTEX
  5
100E0
  8
0
 62
     1
 10
219.2137307588215
 20
-122.58675293145
 30
0.0
  0
VERTEX
  5
100E1
  8
0
 62
     1
 10
219.1314967040554
 20
-122.6727029726566
 30
0.0
  0
VERTEX
  5
100E2
  8
0
 62
     1
 10
219.0455441882848
 20
-122.75493506747
 30
0.0
  0
VERTEX
  5
100E3
  8
0
 62
     1
 10
218.9561240392947
 20
-122.8331985305771
 30
0.0
  0
VERTEX
  5
100E4
  8
0
 62
     1
 10
218.8634870848697
 20
-122.9072426766647
 30
0.0
  0
VERTEX
  5
100E5
  8
0
 62
     1
 10
218.7678841527947
 20
-122.9768168204198
 30
0.0
  0
VERTEX
  5
100E6
  8
0
 62
     1
 10
218.6695660708543
 20
-123.0416702765291
 30
0.0
  0
VERTEX
  5
100E7
  8
0
 62
     1
 10
218.5687836668336
 20
-123.1015523596795
 30
0.0
  0
VERTEX
  5
100E8
  8
0
 62
     1
 10
218.465786177105
 20
-123.1562230892139
 30
0.0
  0
VERTEX
  5
100E9
  8
0
 62
     1
 10
218.3607789178241
 20
-123.2057379144499
 30
0.0
  0
VERTEX
  5
100EA
  8
0
 62
     1
 10
218.2539187882703
 20
-123.2504779615207
 30
0.0
  0
VERTEX
  5
100EB
  8
0
 62
     1
 10
218.1453601942995
 20
-123.2908411286067
 30
0.0
  0
VERTEX
  5
100EC
  8
0
 62
     1
 10
218.0352575417679
 20
-123.3272253138884
 30
0.0
  0
VERTEX
  5
100ED
  8
0
 62
     1
 10
217.9237652365316
 20
-123.3600284155462
 30
0.0
  0
VERTEX
  5
100EE
  8
0
 62
     1
 10
217.8110376844466
 20
-123.3896483317605
 30
0.0
  0
VERTEX
  5
100EF
  8
0
 62
     1
 10
217.697229291369
 20
-123.4164829607118
 30
0.0
  0
VERTEX
  5
100F0
  8
0
 62
     1
 10
217.582494463155
 20
-123.4409302005805
 30
0.0
  0
VERTEX
  5
100F1
  8
0
 62
     1
 10
217.4669876056604
 20
-123.463387949547
 30
0.0
  0
VERTEX
  5
100F2
  8
0
 62
     1
 10
217.3508631247416
 20
-123.4842541057917
 30
0.0
  0
VERTEX
  5
100F3
  8
0
 62
     1
 10
217.2342754262545
 20
-123.5039265674952
 30
0.0
  0
VERTEX
  5
100F4
  8
0
 62
     1
 10
217.1173789160553
 20
-123.5228032328378
 30
0.0
  0
VERTEX
  5
100F5
  8
0
 62
     1
 10
217.000328
 20
-123.541282
 30
0.0
  0
SEQEND
  5
10459
  8
0
 62
     1
  0
POLYLINE
  5
107
  8
0
 62
     1
 66
     1
 10
0.0
 20
0.0
 30
0.0
  0
VERTEX
  5
100F6
  8
0
 62
     1
 10
217.000328
 20
-123.541282
 30
0.0
  0
VERTEX
  5
100F7
  8
0
 62
     1
 10
162.999928
 20
-123.541282
 30
0.0
  0
SEQEND
  5
1045A
  8
0
 62
     1
  0
POLYLINE
  5
108
  8
0
 62
     1
 66
     1
 10
0.0
 20
0.0
 30
0.0
  0
VERTEX
  5
100F8
  8
0
 62
     1
 10
162.999928
 20
-123.541282
 30
0.0
  0
VERTEX
  5
100F9
  8
0
 62
     1
 10
162.8828770839447
 20
-123.5228032328378
 30
0.0
  0
VERTEX
  5
100FA
  8
0
 62
     1
 10
162.7659805737455
 20
-123.5039265674952
 30
0.0
  0
VERTEX
  5
100FB
  8
0
 62
     1
 10
162.6493928752584
 20
-123.4842541057917
 30
0.0
  0
VERTEX
  5
100FC
  8
0
 62
     1
 10
162.5332683943395
 20
-123.4633879495469
 30
0.0
  0
VERTEX
  5
100FD
  8
0
 62
     1
 10
162.4177615368451
 20
-123.4409302005805
 30
0.0
  0
VERTEX
  5
100FE
  8
0
 62
     1
 10
162.303026708631
 20
-123.4164829607118
 30
0.0
  0
VERTEX
  5
100FF
  8
0
 62
     1
 10
162.1892183155534
 20
-123.3896483317605
 30
0.0
  0
VERTEX
  5
10100
  8
0
 62
     1
 10
162.0764907634684
 20
-123.3600284155462
 30
0.0
  0
VERTEX
  5
10101
  8
0
 62
     1
 10
161.9649984582321
 20
-123.3272253138883
 30
0.0
  0
VERTEX
  5
10102
  8
0
 62
     1
 10
161.8548958057005
 20
-123.2908411286067
 30
0.0
  0
VERTEX
  5
10103
  8
0
 62
     1
 10
161.7463372117297
 20
-123.2504779615206
 30
0.0
  0
VERTEX
  5
10104
  8
0
 62
     1
 10
161.6394770821759
 20
-123.2057379144498
 30
0.0
  0
VERTEX
  5
10105
  8
0
 62
     1
 10
161.534469822895
 20
-123.1562230892138
 30
0.0
  0
VERTEX
  5
10106
  8
0
 62
     1
 10
161.4314723331665
 20
-123.1015523596795
 30
0.0
  0
VERTEX
  5
10107
  8
0
 62
     1
 10
161.3306899291456
 20
-123.0416702765291
 30
0.0
  0
VERTEX
  5
10108
  8
0
 62
     1
 10
161.2323718472053
 20
-122.9768168204198
 30
0.0
  0
VERTEX
  5
10109
  8
0
 62
     1
 10
161.1367689151303
 20
-122.9072426766648
 30
0.0
  0
VERTEX
  5
1010A
  8
0
 62
     1
 10
161.0441319607053
 20
-122.8331985305771
 30
0.0
  0
VERTEX
  5
1010B
  8
0
 62
     1
 10
160.9547118117152
 20
-122.75493506747
 30
0.0
  0
VERTEX
  5
1010C
  8
0
 62
     1
 10
160.8687592959446
 20
-122.6727029726566
 30
0.0
  0
VERTEX
  5
1010D
  8
0
 62
     1
 10
160.7865252411785
 20
-122.58675293145
 30
0.0
  0
VERTEX
  5
1010E
  8
0
 62
     1
 10
160.7082604752016
 20
-122.4973356291634
 30
0.0
  0
VERTEX
  5
1010F
  8
0
 62
     1
 10
160.6342158257985
 20
-122.40470175111
 30
0.0
  0
VERTEX
  5
10110
  8
0
 62
     1
 10
160.5646421207542
 20
-122.3091019826028
 30
0.0
  0
VERTEX
  5
10111
  8
0
 62
     1
 10
160.4997901878534
 20
-122.2107870089551
 30
0.0
  0
VERTEX
  5
10112
  8
0
 62
     1
 10
160.4399108548808
 20
-122.1100075154799
 30
0.0
  0
VERTEX
  5
10113
  8
0
 62
     1
 10
160.3852439961385
 20
-122.0070125626414
 30
0.0
  0
VERTEX
  5
10114
  8
0
 62
     1
 10
160.335732548848
 20
-121.9020071630026
 30
0.0
  0
VERTEX
  5
10115
  8
0
 62
     1
 10
160.2909951228248
 20
-121.7951482181206
 30
0.0
  0
VERTEX
  5
10116
  8
0
 62
     1
 10
160.250633882963
 20
-121.6865901900991
 30
0.0
  0
VERTEX
  5
10117
  8
0
 62
     1
 10
160.2142509941573
 20
-121.5764875410416
 30
0.0
  0
VERTEX
  5
10118
  8
0
 62
     1
 10
160.1814486213018
 20
-121.4649947330518
 30
0.0
  0
VERTEX
  5
10119
  8
0
 62
     1
 10
160.1518289292912
 20
-121.3522662282332
 30
0.0
  0
VERTEX
  5
1011A
  8
0
 62
     1
 10
160.1249940830197
 20
-121.2384564886895
 30
0.0
  0
VERTEX
  5
1011B
  8
0
 62
     1
 10
160.1005462473818
 20
-121.1237199765242
 30
0.0
  0
VERTEX
  5
1011C
  8
0
 62
     1
 10
160.0780875872718
 20
-121.0082111538409
 30
0.0
  0
VERTEX
  5
1011D
  8
0
 62
     1
 10
160.0572202675843
 20
-120.8920844827433
 30
0.0
  0
VERTEX
  5
1011E
  8
0
 62
     1
 10
160.0375464532136
 20
-120.7754944253349
 30
0.0
  0
VERTEX
  5
1011F
  8
0
 62
     1
 10
160.018668309054
 20
-120.6585954437192
 30
0.0
  0
VERTEX
  5
10120
  8
0
 62
     1
 10
160.000188
 20
-120.541542
 30
0.0
  0
SEQEND
  5
1045B
  8
0
 62
     1
  0
POLYLINE
  5
109
  8
0
 62
     1
 66
     1
 10
0.0
 20
0.0
 30
0.0
  0
VERTEX
  5
10121
  8
0
 62
     1
 10
160.000188
 20
-120.541542
 30
0.0
  0
VERTEX
  5
10122
  8
0
 62
     1
 10
160.000188
 20
-118.541715
 30
0.0
  0
VERTEX
  5
10123
  8
0
 62
     1
 10
60.000388
 20
-118.541715
 30
0.0
  0
VERTEX
  5
10124
  8
0
 62
     1
 10
60.000388
 20
-120.541542
 30
0.0
  0
SEQEND
  5
1045C
  8
0
 62
     1
  0
POLYLINE
  5
10A
  8
0
 62
     1
 66
     1
 10
0.0
 20
0.0
 30
0.0
  0
VERTEX
  5
10125
  8
0
 62
     1
 10
60.000388
 20
-120.541542
 30
0.0
  0
VERTEX
  5
10126
  8
0
 62
     1
 10
59.98190426413216
 20
-120.6586155606441
 30
0.0
  0
VERTEX
  5
10127
  8
0
 62
     1
 10
59.96302245231679
 20
-120.7755345161481
 30
0.0
  0
VERTEX
  5
10128
  8
0
 62
     1
 10
59.94334448860638
 20
-120.8921442613723
 30
0.0
  0
VERTEX
  5
10129
  8
0
 62
     1
 10
59.92247229705341
 20
-121.0082901911767
 30
0.0
  0
VERTEX
  5
1012A
  8
0
 62
     1
 10
59.90000780171033
 20
-121.1238177004211
 30
0.0
  0
VERTEX
  5
1012B
  8
0
 62
     1
 10
59.87555292662964
 20
-121.2385721839659
 30
0.0
  0
VERTEX
  5
1012C
  8
0
 62
     1
 10
59.84870959586385
 20
-121.3523990366709
 30
0.0
  0
VERTEX
  5
1012D
  8
0
 62
     1
 10
59.81907973346539
 20
-121.4651436533963
 30
0.0
  0
VERTEX
  5
1012E
  8
0
 62
     1
 10
59.78626526348677
 20
-121.576651429002
 30
0.0
  0
VERTEX
  5
1012F
  8
0
 62
     1
 10
59.74986810998043
 20
-121.6867677583482
 30
0.0
  0
VERTEX
  5
10130
  8
0
 62
     1
 10
59.70949019699889
 20
-121.7953380362948
 30
0.0
  0
VERTEX
  5
10131
  8
0
 62
     1
 10
59.6647334485946
 20
-121.9022076577019
 30
0.0
  0
VERTEX
  5
10132
  8
0
 62
     1
 10
59.61519978882005
 20
-122.0072220174296
 30
0.0
  0
VERTEX
  5
10133
  8
0
 62
     1
 10
59.56050779112866
 20
-122.1102240480062
 30
0.0
  0
VERTEX
  5
10134
  8
0
 62
     1
 10
59.50060141787586
 20
-122.2110085591808
 30
0.0
  0
VERTEX
  5
10135
  8
0
 62
     1
 10
59.43572093712699
 20
-122.3093265391276
 30
0.0
  0
VERTEX
  5
10136
  8
0
 62
     1
 10
59.3661174337205
 20
-122.4049273762948
 30
0.0
  0
VERTEX
  5
10137
  8
0
 62
     1
 10
59.29204199249487
 20
-122.4975604591301
 30
0.0
  0
VERTEX
  5
10138
  8
0
 62
     1
 10
59.21374569828861
 20
-122.5869751760815
 30
0.0
  0
VERTEX
  5
10139
  8
0
 62
     1
 10
59.13147963594015
 20
-122.6729209155968
 30
0.0
  0
VERTEX
  5
1013A
  8
0
 62
     1
 10
59.04549489028798
 20
-122.7551470661242
 30
0.0
  0
VERTEX
  5
1013B
  8
0
 62
     1
 10
58.95604254617058
 20
-122.8334030161113
 30
0.0
  0
VERTEX
  5
1013C
  8
0
 62
     1
 10
58.86337368842644
 20
-122.9074381540064
 30
0.0
  0
VERTEX
  5
1013D
  8
0
 62
     1
 10
58.76773940189403
 20
-122.9770018682571
 30
0.0
  0
VERTEX
  5
1013E
  8
0
 62
     1
 10
58.66939077141179
 20
-123.0418435473115
 30
0.0
  0
VERTEX
  5
1013F
  8
0
 62
     1
 10
58.56857888181824
 20
-123.1017125796175
 30
0.0
  0
VERTEX
  5
10140
  8
0
 62
     1
 10
58.46555319162875
 20
-123.1563692520218
 30
0.0
  0
VERTEX
  5
10141
  8
0
 62
     1
 10
58.36051890797359
 20
-123.2058703910013
 30
0.0
  0
VERTEX
  5
10142
  8
0
 62
     1
 10
58.25363281193481
 20
-123.2505973381269
 30
0.0
  0
VERTEX
  5
10143
  8
0
 62
     1
 10
58.14504922121107
 20
-123.2909479427197
 30
0.0
  0
VERTEX
  5
10144
  8
0
 62
     1
 10
58.03492245350101
 20
-123.3273200541009
 30
0.0
  0
VERTEX
  5
10145
  8
0
 62
     1
 10
57.92340682650326
 20
-123.3601115215916
 30
0.0
  0
VERTEX
  5
10146
  8
0
 62
     1
 10
57.81065665791643
 20
-123.389720194513
 30
0.0
  0
VERTEX
  5
10147
  8
0
 62
     1
 10
57.69682626543918
 20
-123.4165439221862
 30
0.0
  0
VERTEX
  5
10148
  8
0
 62
     1
 10
57.58206996677012
 20
-123.4409805539325
 30
0.0
  0
VERTEX
  5
10149
  8
0
 62
     1
 10
57.46654207960789
 20
-123.463427939073
 30
0.0
  0
VERTEX
  5
1014A
  8
0
 62
     1
 10
57.35039692165113
 20
-123.4842839269288
 30
0.0
  0
VERTEX
  5
1014B
  8
0
 62
     1
 10
57.23378881059847
 20
-123.5039463668211
 30
0.0
  0
VERTEX
  5
1014C
  8
0
 62
     1
 10
57.11687206414856
 20
-123.5228131080712
 30
0.0
  0
VERTEX
  5
1014D
  8
0
 62
     1
 10
56.999801
 20
-123.541282
 30
0.0
  0
SEQEND
  5
1045D
  8
0
 62
     1
  0
POLYLINE
  5
10B
  8
0
 62
     1
 66
     1
 10
0.0
 20
0.0
 30
0.0
  0
VERTEX
  5
1014E
  8
0
 62
     1
 10
56.999801
 20
-123.541282
 30
0.0
  0
VERTEX
  5
1014F
  8
0
 62
     1
 10
2.999994
 20
-123.541282
 30
0.0
  0
SEQEND
  5
1045E
  8
0
 62
     1
  0
POLYLINE
  5
10C
  8
0
 62
     1
 66
     1
 10
0.0
 20
0.0
 30
0.0
  0
VERTEX
  5
10150
  8
0
 62
     1
 10
2.999994
 20
-123.541282
 30
0.0
  0
VERTEX
  5
10151
  8
0
 62
     1
 10
2.882934269527846
 20
-123.5228098360784
 30
0.0
  0
VERTEX
  5
10152
  8
0
 62
     1
 10
2.766028930503118
 20
-123.5039397716924
 30
0.0
  0
VERTEX
  5
10153
  8
0
 62
     1
 10
2.649432374373243
 20
-123.4842739063774
 30
0.0
  0
VERTEX
  5
10154
  8
0
 62
     1
 10
2.533298992585649
 20
-123.463414339669
 30
0.0
  0
VERTEX
  5
10155
  8
0
 62
     1
 10
2.417783176587762
 20
-123.4409631711029
 30
0.0
  0
VERTEX
  5
10156
  8
0
 62
     1
 10
2.303039317827008
 20
-123.4165225002143
 30
0.0
  0
VERTEX
  5
10157
  8
0
 62
     1
 10
2.189221807750815
 20
-123.3896944265391
 30
0.0
  0
VERTEX
  5
10158
  8
0
 62
     1
 10
2.076485037806609
 20
-123.3600810496126
 30
0.0
  0
VERTEX
  5
10159
  8
0
 62
     1
 10
1.964983399441817
 20
-123.3272844689705
 30
0.0
  0
VERTEX
  5
1015A
  8
0
 62
     1
 10
1.854871284103866
 20
-123.2909067841482
 30
0.0
  0
VERTEX
  5
1015B
  8
0
 62
     1
 10
1.746303083240182
 20
-123.2505500946812
 30
0.0
  0
VERTEX
  5
1015C
  8
0
 62
     1
 10
1.639433188298192
 20
-123.2058165001053
 30
0.0
  0
VERTEX
  5
1015D
  8
0
 62
     1
 10
1.534415990725323
 20
-123.1563080999558
 30
0.0
  0
VERTEX
  5
1015E
  8
0
 62
     1
 10
1.431408355741382
 20
-123.1016436160241
 30
0.0
  0
VERTEX
  5
1015F
  8
0
 62
     1
 10
1.330615525343235
 20
-123.0417668328144
 30
0.0
  0
VERTEX
  5
10160
  8
0
 62
     1
 10
1.232286810873791
 20
-122.9769176542101
 30
0.0
  0
VERTEX
  5
10161
  8
0
 62
     1
 10
1.136673133612862
 20
-122.9073468018975
 30
0.0
  0
VERTEX
  5
10162
  8
0
 62
     1
 10
1.044025414840265
 20
-122.8333049975635
 30
0.0
  0
VERTEX
  5
10163
  8
0
 62
     1
 10
0.9545945758358114
 20
-122.7550429628946
 30
0.0
  0
VERTEX
  5
10164
  8
0
 62
     1
 10
0.8686315378793187
 20
-122.6728114195772
 30
0.0
  0
VERTEX
  5
10165
  8
0
 62
     1
 10
0.7863872222505996
 20
-122.5868610892981
 30
0.0
  0
VERTEX
  5
10166
  8
0
 62
     1
 10
0.7081125502294691
 20
-122.4974426937437
 30
0.0
  0
VERTEX
  5
10167
  8
0
 62
     1
 10
0.6340584430957416
 20
-122.4048069546008
 30
0.0
  0
VERTEX
  5
10168
  8
0
 62
     1
 10
0.5644758221292313
 20
-122.3092045935557
 30
0.0
  0
VERTEX
  5
10169
  8
0
 62
     1
 10
0.4996156086097529
 20
-122.2108863322952
 30
0.0
  0
VERTEX
  5
1016A
  8
0
 62
     1
 10
0.439728723817121
 20
-122.1101028925059
 30
0.0
  0
VERTEX
  5
1016B
  8
0
 62
     1
 10
0.3850551956421744
 20
-122.0071033804747
 30
0.0
  0
VERTEX
  5
1016C
  8
0
 62
     1
 10
0.3355383974797833
 20
-121.9020929110808
 30
0.0
  0
VERTEX
  5
1016D
  8
0
 62
     1
 10
0.290796919572203
 20
-121.7952284365481
 30
0.0
  0
VERTEX
  5
1016E
  8
0
 62
     1
 10
0.2504328185648657
 20
-121.6866644573047
 30
0.0
  0
VERTEX
  5
1016F
  8
0
 62
     1
 10
0.214048151103204
 20
-121.576555473779
 30
0.0
  0
VERTEX
  5
10170
  8
0
 62
     1
 10
0.1812449738326502
 20
-121.4650559863991
 30
0.0
  0
VERTEX
  5
10171
  8
0
 62
     1
 10
0.1516253433986368
 20
-121.3523204955934
 30
0.0
  0
VERTEX
  5
10172
  8
0
 62
     1
 10
0.1247913164465963
 20
-121.23850350179
 30
0.0
  0
VERTEX
  5
10173
  8
0
 62
     1
 10
0.1003449496219611
 20
-121.1237595054172
 30
0.0
  0
VERTEX
  5
10174
  8
0
 62
     1
 10
0.0778882995701637
 20
-121.0082430069031
 30
0.0
  0
VERTEX
  5
10175
  8
0
 62
     1
 10
0.0570234229366364
 20
-120.8921085066762
 30
0.0
  0
VERTEX
  5
10176
  8
0
 62
     1
 10
0.0373523763668119
 20
-120.7755105051645
 30
0.0
  0
VERTEX
  5
10177
  8
0
 62
     1
 10
0.0184772165061224
 20
-120.6586035027964
 30
0.0
  0
VERTEX
  5
10178
  8
0
 62
     1
 10
0.0
 20
-120.541542
 30
0.0
  0
SEQEND
  5
1045F
  8
0
 62
     1
  0
POLYLINE
  5
10D
  8
0
 62
     1
 66
     1
 10
0.0
 20
0.0
 30
0.0
  0
VERTEX
  5
10179
  8
0
 62
     1
 10
0.0
 20
-120.541542
 30
0.0
  0
VERTEX
  5
1017A
  8
0
 62
     1
 10
0.0
 20
23.458339
 30
0.0
  0
SEQEND
  5
10460
  8
0
 62
     1
  0
POLYLINE
  5
10E
  8
0
 62
     1
 66
     1
 10
0.0
 20
0.0
 30
0.0
  0
VERTEX
  5
1017B
  8
0
 62
     1
 10
0.0
 20
23.458339
 30
0.0
  0
VERTEX
  5
1017C
  8
0
 62
     1
 10
0.0184827956084283
 20
23.57540004765557
 30
0.0
  0
VERTEX
  5
1017D
  8
0
 62
     1
 10
0.0373634798251321
 20
23.69230665011101
 30
0.0
  0
VERTEX
  5
1017E
  8
0
 62
     1
 10
0.057039941258387
 20
23.80890436216617
 30
0.0
  0
VERTEX
  5
1017F
  8
0
 62
     1
 10
0.0779100685164687
 20
23.92503873862092
 30
0.0
  0
VERTEX
  5
10180
  8
0
 62
     1
 10
0.1003717502076526
 20
24.04055533427512
 30
0.0
  0
VERTEX
  5
10181
  8
0
 62
     1
 10
0.1248228749402144
 20
24.15529970392863
 30
0.0
  0
VERTEX
  5
10182
  8
0
 62
     1
 10
0.1516613313224296
 20
24.2691174023813
 30
0.0
  0
VERTEX
  5
10183
  8
0
 62
     1
 10
0.1812850079625739
 20
24.38185398443302
 30
0.0
  0
VERTEX
  5
10184
  8
0
 62
     1
 10
0.2140917934689226
 20
24.49335500488364
 30
0.0
  0
VERTEX
  5
10185
  8
0
 62
     1
 10
0.2504795764497515
 20
24.60346601853302
 30
0.0
  0
VERTEX
  5
10186
  8
0
 62
     1
 10
0.2908462455133362
 20
24.71203258018102
 30
0.0
  0
VERTEX
  5
10187
  8
0
 62
     1
 10
0.335589689267952
 20
24.81890024462751
 30
0.0
  0
VERTEX
  5
10188
  8
0
 62
     1
 10
0.3851077963218748
 20
24.92391456667234
 30
0.0
  0
VERTEX
  5
10189
  8
0
 62
     1
 10
0.4397818368474505
 20
25.02691863347173
 30
0.0
  0
VERTEX
  5
1018A
  8
0
 62
     1
 10
0.4996680235969989
 20
25.12770726495118
 30
0.0
  0
VERTEX
  5
1018B
  8
0
 62
     1
 10
0.5645264171657886
 20
25.22603130589947
 30
0.0
  0
VERTEX
  5
1018C
  8
0
 62
     1
 10
0.6341062564877293
 20
25.32163999421507
 30
0.0
  0
VERTEX
  5
1018D
  8
0
 62
     1
 10
0.7081567804967311
 20
25.41428256779643
 30
0.0
  0
VERTEX
  5
1018E
  8
0
 62
     1
 10
0.7864272281267036
 20
25.50370826454202
 30
0.0
  0
VERTEX
  5
1018F
  8
0
 62
     1
 10
0.8686668383115562
 20
25.5896663223503
 30
0.0
  0
VERTEX
  5
10190
  8
0
 62
     1
 10
0.9546248499851991
 20
25.67190597911971
 30
0.0
  0
VERTEX
  5
10191
  8
0
 62
     1
 10
1.044050502081542
 20
25.75017647274872
 30
0.0
  0
VERTEX
  5
10192
  8
0
 62
     1
 10
1.136693033534494
 20
25.82422704113579
 30
0.0
  0
VERTEX
  5
10193
  8
0
 62
     1
 10
1.232301683277967
 20
25.89380692217938
 30
0.0
  0
VERTEX
  5
10194
  8
0
 62
     1
 10
1.330625690245868
 20
25.95866535377795
 30
0.0
  0
VERTEX
  5
10195
  8
0
 62
     1
 10
1.431414293372109
 20
26.01855157382995
 30
0.0
  0
VERTEX
  5
10196
  8
0
 62
     1
 10
1.534418338346631
 20
26.07322564119241
 30
0.0
  0
VERTEX
  5
10197
  8
0
 62
     1
 10
1.639432644662866
 20
26.1227437634196
 30
0.0
  0
VERTEX
  5
10198
  8
0
 62
     1
 10
1.746300298909113
 20
26.16748721062872
 30
0.0
  0
VERTEX
  5
10199
  8
0
 62
     1
 10
1.854866855424538
 20
26.20785387240459
 30
0.0
  0
VERTEX
  5
1019A
  8
0
 62
     1
 10
1.964977868548306
 20
26.24424163833207
 30
0.0
  0
VERTEX
  5
1019B
  8
0
 62
     1
 10
2.076478892619583
 20
26.27704839799599
 30
0.0
  0
VERTEX
  5
1019C
  8
0
 62
     1
 10
2.189215481977534
 20
26.30667204098119
 30
0.0
  0
VERTEX
  5
1019D
  8
0
 62
     1
 10
2.303033190961326
 20
26.33351045687251
 30
0.0
  0
VERTEX
  5
1019E
  8
0
 62
     1
 10
2.417777573910122
 20
26.35796153525479
 30
0.0
  0
VERTEX
  5
1019F
  8
0
 62
     1
 10
2.533294185163092
 20
26.38042316571288
 30
0.0
  0
VERTEX
  5
101A0
  8
0
 62
     1
 10
2.649428579059397
 20
26.40129323783159
 30
0.0
  0
VERTEX
  5
101A1
  8
0
 62
     1
 10
2.766026309938206
 20
26.42096964119579
 30
0.0
  0
VERTEX
  5
101A2
  8
0
 62
     1
 10
2.882932932138683
 20
26.43985026539031
 30
0.0
  0
VERTEX
  5
101A3
  8
0
 62
     1
 10
2.999994
 20
26.458333
 30
0.0
  0
SEQEND
  5
10461
  8
0
 62
     1
  0
POLYLINE
  5
10F
  8
0
 62
     1
 66
     1
 10
0.0
 20
0.0
 30
0.0
  0
VERTEX
  5
101A4
  8
0
 62
     1
 10
2.999994
 20
26.458333
 30
0.0
  0
VERTEX
  5
101A5
  8
0
 62
     1
 10
56.999801
 20
26.458333
 30
0.0
  0
VERTEX
  5
101A6
  8
0
 62
     1
 10
56.999801
 20
26.458333
 30
0.0
  0
SEQEND
  5
10462
  8
0
 62
     1
  0
POLYLINE
  5
110
  8
0
 62
     1
 66
     1
 10
0.0
 20
0.0
 30
0.0
 70
     1
  0
VERTEX
  5
101A7
  8
0
 62
     1
 10
199.683197
 20
21.492079
 30
0.0
  0
VERTEX
  5
101A8
  8
0
 62
     1
 10
199.7117013830314
 20
21.31437694146291
 30
0.0
  0
VERTEX
  5
101A9
  8
0
 62
     1
 10
199.7414281248891
 20
21.13722414793886
 30
0.0
  0
VERTEX
  5
101AA
  8
0
 62
     1
 10
199.7735995843996
 20
20.9611698844409
 30
0.0
  0
VERTEX
  5
101AB
  8
0
 62
     1
 10
199.8094381203892
 20
20.78676341598205
 30
0.0
  0
VERTEX
  5
101AC
  8
0
 62
     1
 10
199.8501660916842
 20
20.61455400757536
 30
0.0
  0
VERTEX
  5
101AD
  8
0
 62
     1
 10
199.8970058571111
 20
20.44509092423388
 30
0.0
  0
VERTEX
  5
101AE
  8
0
 62
     1
 10
199.9511797754961
 20
20.27892343097065
 30
0.0
  0
VERTEX
  5
101AF
  8
0
 62
     1
 10
200.0139102056658
 20
20.11660079279869
 30
0.0
  0
VERTEX
  5
101B0
  8
0
 62
     1
 10
200.0864195064464
 20
19.95867227473106
 30
0.0
  0
VERTEX
  5
101B1
  8
0
 62
     1
 10
200.1698617090195
 20
19.80568141863516
 30
0.0
  0
VERTEX
  5
101B2
  8
0
 62
     1
 10
200.2643278696199
 20
19.65808273125275
 30
0.0
  0
VERTEX
  5
101B3
  8
0
 62
     1
 10
200.3690694941805
 20
19.51626039832059
 30
0.0
  0
VERTEX
  5
101B4
  8
0
 62
     1
 10
200.4833152272791
 20
19.38059669070096
 30
0.0
  0
VERTEX
  5
101B5
  8
0
 62
     1
 10
200.6062937134939
 20
19.25147387925609
 30
0.0
  0
VERTEX
  5
101B6
  8
0
 62
     1
 10
200.7372335974028
 20
19.12927423484827
 30
0.0
  0
VERTEX
  5
101B7
  8
0
 62
     1
 10
200.8753635235838
 20
19.01438002833975
 30
0.0
  0
VERTEX
  5
101B8
  8
0
 62
     1
 10
201.0199121366148
 20
18.9071735305928
 30
0.0
  0
VERTEX
  5
101B9
  8
0
 62
     1
 10
201.170108081074
 20
18.80803701246968
 30
0.0
  0
VERTEX
  5
101BA
  8
0
 62
     1
 10
201.3251837632241
 20
18.71735046602512
 30
0.0
  0
VERTEX
  5
101BB
  8
0
 62
     1
 10
201.4845079957209
 20
18.63541124909125
 30
0.0
  0
VERTEX
  5
101BC
  8
0
 62
     1
 10
201.6476213025124
 20
18.56241269776859
 30
0.0
  0
VERTEX
  5
101BD
  8
0
 62
     1
 10
201.8140751476896
 20
18.49854152068067
 30
0.0
  0
VERTEX
  5
101BE
  8
0
 62
     1
 10
201.9834209953438
 20
18.44398442645101
 30
0.0
  0
VERTEX
  5
101BF
  8
0
 62
     1
 10
202.1552103095663
 20
18.39892812370313
 30
0.0
  0
VERTEX
  5
101C0
  8
0
 62
     1
 10
202.3289945544481
 20
18.36355932106056
 30
0.0
  0
VERTEX
  5
101C1
  8
0
 62
     1
 10
202.5043251940806
 20
18.33806472714682
 30
0.0
  0
VERTEX
  5
101C2
  8
0
 62
     1
 10
202.6807536925549
 20
18.32263105058545
 30
0.0
  0
VERTEX
  5
101C3
  8
0
 62
     1
 10
202.8578315139622
 20
18.31744499999996
 30
0.0
  0
VERTEX
  5
101C4
  8
0
 62
     1
 10
203.0350887893447
 20
18.32263104829498
 30
0.0
  0
VERTEX
  5
101C5
  8
0
 62
     1
 10
203.2119703168464
 20
18.3380647234517
 30
0.0
  0
VERTEX
  5
101C6
  8
0
 62
     1
 10
203.3878995612114
 20
18.36355931670848
 30
0.0
  0
VERTEX
  5
101C7
  8
0
 62
     1
 10
203.5622999871836
 20
18.39892811930367
 30
0.0
  0
VERTEX
  5
101C8
  8
0
 62
     1
 10
203.7345950595071
 20
18.44398442247563
 30
0.0
  0
VERTEX
  5
101C9
  8
0
 62
     1
 10
203.904208242926
 20
18.49854151746273
 30
0.0
  0
VERTEX
  5
101CA
  8
0
 62
     1
 10
204.0705630021841
 20
18.56241269550332
 30
0.0
  0
VERTEX
  5
101CB
  8
0
 62
     1
 10
204.2330828020257
 20
18.63541124783574
 30
0.0
  0
VERTEX
  5
101CC
  8
0
 62
     1
 10
204.3911911071947
 20
18.71735046569837
 30
0.0
  0
VERTEX
  5
101CD
  8
0
 62
     1
 10
204.5443182381599
 20
18.80803701285852
 30
0.0
  0
VERTEX
  5
101CE
  8
0
 62
     1
 10
204.6920021195921
 20
18.9071735314453
 30
0.0
  0
VERTEX
  5
101CF
  8
0
 62
     1
 10
204.8338661562768
 20
19.01438002943944
 30
0.0
  0
VERTEX
  5
101D0
  8
0
 62
     1
 10
204.9695361102885
 20
19.12927423601617
 30
0.0
  0
VERTEX
  5
101D1
  8
0
 62
     1
 10
205.0986377437012
 20
19.25147388035072
 30
0.0
  0
VERTEX
  5
101D2
  8
0
 62
     1
 10
205.2207968185896
 20
19.38059669161834
 30
0.0
  0
VERTEX
  5
101D3
  8
0
 62
     1
 10
205.3356390970279
 20
19.51626039899424
 30
0.0
  0
VERTEX
  5
101D4
  8
0
 62
     1
 10
205.4427903410904
 20
19.65808273165369
 30
0.0
  0
VERTEX
  5
101D5
  8
0
 62
     1
 10
205.5418763128516
 20
19.80568141877189
 30
0.0
  0
VERTEX
  5
101D6
  8
0
 62
     1
 10
205.632524892653
 20
19.9586722746491
 30
0.0
  0
VERTEX
  5
101D7
  8
0
 62
     1
 10
205.7144417511429
 20
20.11660079256169
 30
0.0
  0
VERTEX
  5
101D8
  8
0
 62
     1
 10
205.7874310511599
 20
20.27892343063653
 30
0.0
  0
VERTEX
  5
101D9
  8
0
 62
     1
 10
205.8513032865844
 20
20.44509092385335
 30
0.0
  0
VERTEX
  5
101DA
  8
0
 62
     1
 10
205.905868951297
 20
20.61455400719186
 30
0.0
  0
VERTEX
  5
101DB
  8
0
 62
     1
 10
205.9509385391782
 20
20.7867634156318
 30
0.0
  0
VERTEX
  5
101DC
  8
0
 62
     1
 10
205.9863225441085
 20
20.96116988415285
 30
0.0
  0
VERTEX
  5
101DD
  8
0
 62
     1
 10
206.0118314599686
 20
21.13722414773476
 30
0.0
  0
VERTEX
  5
101DE
  8
0
 62
     1
 10
206.0272757806389
 20
21.31437694135724
 30
0.0
  0
VERTEX
  5
101DF
  8
0
 62
     1
 10
206.0324659999999
 20
21.49207899999999
 30
0.0
  0
VERTEX
  5
101E0
  8
0
 62
     1
 10
206.0272757806389
 20
21.66978105864275
 30
0.0
  0
VERTEX
  5
101E1
  8
0
 62
     1
 10
206.0118314599686
 20
21.84693385226522
 30
0.0
  0
VERTEX
  5
101E2
  8
0
 62
     1
 10
205.9863225441085
 20
22.02298811584713
 30
0.0
  0
VERTEX
  5
101E3
  8
0
 62
     1
 10
205.9509385391782
 20
22.19739458436819
 30
0.0
  0
VERTEX
  5
101E4
  8
0
 62
     1
 10
205.905868951297
 20
22.36960399280812
 30
0.0
  0
VERTEX
  5
101E5
  8
0
 62
     1
 10
205.8513032865845
 20
22.53906707614664
 30
0.0
  0
VERTEX
  5
101E6
  8
0
 62
     1
 10
205.78743105116
 20
22.70523456936346
 30
0.0
  0
VERTEX
  5
101E7
  8
0
 62
     1
 10
205.7144417511429
 20
22.8675572074383
 30
0.0
  0
VERTEX
  5
101E8
  8
0
 62
     1
 10
205.6325248926529
 20
23.02548572535088
 30
0.0
  0
VERTEX
  5
101E9
  8
0
 62
     1
 10
205.5418763128516
 20
23.17847658122809
 30
0.0
  0
VERTEX
  5
101EA
  8
0
 62
     1
 10
205.4427903410904
 20
23.3260752683463
 30
0.0
  0
VERTEX
  5
101EB
  8
0
 62
     1
 10
205.3356390970279
 20
23.46789760100574
 30
0.0
  0
VERTEX
  5
101EC
  8
0
 62
     1
 10
205.2207968185896
 20
23.60356130838165
 30
0.0
  0
VERTEX
  5
101ED
  8
0
 62
     1
 10
205.0986377437013
 20
23.73268411964927
 30
0.0
  0
VERTEX
  5
101EE
  8
0
 62
     1
 10
204.9695361102885
 20
23.85488376398382
 30
0.0
  0
VERTEX
  5
101EF
  8
0
 62
     1
 10
204.8338661562769
 20
23.96977797056055
 30
0.0
  0
VERTEX
  5
101F0
  8
0
 62
     1
 10
204.6920021195921
 20
24.07698446855469
 30
0.0
  0
VERTEX
  5
101F1
  8
0
 62
     1
 10
204.5443182381599
 20
24.17612098714147
 30
0.0
  0
VERTEX
  5
101F2
  8
0
 62
     1
 10
204.3911911071947
 20
24.26680753430162
 30
0.0
  0
VERTEX
  5
101F3
  8
0
 62
     1
 10
204.2330828020257
 20
24.34874675216425
 30
0.0
  0
VERTEX
  5
101F4
  8
0
 62
     1
 10
204.0705630021842
 20
24.42174530449669
 30
0.0
  0
VERTEX
  5
101F5
  8
0
 62
     1
 10
203.904208242926
 20
24.48561648253726
 30
0.0
  0
VERTEX
  5
101F6
  8
0
 62
     1
 10
203.7345950595071
 20
24.54017357752436
 30
0.0
  0
VERTEX
  5
101F7
  8
0
 62
     1
 10
203.5622999871836
 20
24.58522988069632
 30
0.0
  0
VERTEX
  5
101F8
  8
0
 62
     1
 10
203.3878995612114
 20
24.62059868329152
 30
0.0
  0
VERTEX
  5
101F9
  8
0
 62
     1
 10
203.2119703168464
 20
24.64609327654829
 30
0.0
  0
VERTEX
  5
101FA
  8
0
 62
     1
 10
203.0350887893448
 20
24.66152695170502
 30
0.0
  0
VERTEX
  5
101FB
  8
0
 62
     1
 10
202.8578315139623
 20
24.66671300000003
 30
0.0
  0
VERTEX
  5
101FC
  8
0
 62
     1
 10
202.680753692555
 20
24.66152694941455
 30
0.0
  0
VERTEX
  5
101FD
  8
0
 62
     1
 10
202.5043251940806
 20
24.64609327285317
 30
0.0
  0
VERTEX
  5
101FE
  8
0
 62
     1
 10
202.3289945544482
 20
24.62059867893944
 30
0.0
  0
VERTEX
  5
101FF
  8
0
 62
     1
 10
202.1552103095663
 20
24.58522987629687
 30
0.0
  0
VERTEX
  5
10200
  8
0
 62
     1
 10
201.9834209953438
 20
24.54017357354899
 30
0.0
  0
VERTEX
  5
10201
  8
0
 62
     1
 10
201.8140751476896
 20
24.48561647931933
 30
0.0
  0
VERTEX
  5
10202
  8
0
 62
     1
 10
201.6476213025124
 20
24.42174530223141
 30
0.0
  0
VERTEX
  5
10203
  8
0
 62
     1
 10
201.4845079957209
 20
24.34874675090875
 30
0.0
  0
VERTEX
  5
10204
  8
0
 62
     1
 10
201.3251837632241
 20
24.26680753397488
 30
0.0
  0
VERTEX
  5
10205
  8
0
 62
     1
 10
201.170108081074
 20
24.17612098753033
 30
0.0
  0
VERTEX
  5
10206
  8
0
 62
     1
 10
201.0199121366149
 20
24.0769844694072
 30
0.0
  0
VERTEX
  5
10207
  8
0
 62
     1
 10
200.8753635235837
 20
23.96977797166025
 30
0.0
  0
VERTEX
  5
10208
  8
0
 62
     1
 10
200.7372335974028
 20
23.85488376515173
 30
0.0
  0
VERTEX
  5
10209
  8
0
 62
     1
 10
200.6062937134939
 20
23.7326841207439
 30
0.0
  0
VERTEX
  5
1020A
  8
0
 62
     1
 10
200.4833152272791
 20
23.60356130929905
 30
0.0
  0
VERTEX
  5
1020B
  8
0
 62
     1
 10
200.3690694941805
 20
23.46789760167941
 30
0.0
  0
VERTEX
  5
1020C
  8
0
 62
     1
 10
200.2643278696199
 20
23.32607526874725
 30
0.0
  0
VERTEX
  5
1020D
  8
0
 62
     1
 10
200.1698617090195
 20
23.17847658136485
 30
0.0
  0
VERTEX
  5
1020E
  8
0
 62
     1
 10
200.0864195064463
 20
23.02548572526894
 30
0.0
  0
VERTEX
  5
1020F
  8
0
 62
     1
 10
200.0139102056657
 20
22.8675572072013
 30
0.0
  0
VERTEX
  5
10210
  8
0
 62
     1
 10
199.9511797754961
 20
22.70523456902935
 30
0.0
  0
VERTEX
  5
10211
  8
0
 62
     1
 10
199.897005857111
 20
22.53906707576611
 30
0.0
  0
VERTEX
  5
10212
  8
0
 62
     1
 10
199.8501660916842
 20
22.36960399242462
 30
0.0
  0
VERTEX
  5
10213
  8
0
 62
     1
 10
199.8094381203892
 20
22.19739458401794
 30
0.0
  0
VERTEX
  5
10214
  8
0
 62
     1
 10
199.7735995843996
 20
22.02298811555909
 30
0.0
  0
VERTEX
  5
10215
  8
0
 62
     1
 10
199.7414281248891
 20
21.84693385206113
 30
0.0
  0
VERTEX
  5
10216
  8
0
 62
     1
 10
199.7117013830314
 20
21.66978105853708
 30
0.0
  0
SEQEND
  5
10463
  8
0
 62
     1
  0
POLYLINE
  5
111
  8
0
 62
     1
 66
     1
 10
0.0
 20
0.0
 30
0.0
 70
     1
  0
VERTEX
  5
10217
  8
0
 62
     1
 10
199.683197
 20
21.492079
 30
0.0
  0
VERTEX
  5
10218
  8
0
 62
     1
 10
199.683197
 20
21.492079
 30
0.0
  0
SEQEND
  5
10464
  8
0
 62
     1
  0
POLYLINE
  5
112
  8
0
 62
     1
 66
     1
 10
0.0
 20
0.0
 30
0.0
 70
     1
  0
VERTEX
  5
10219
  8
0
 62
     1
 10
13.967094
 20
21.492079
 30
0.0
  0
VERTEX
  5
1021A
  8
0
 62
     1
 10
13.99559838265654
 20
21.31437694135725
 30
0.0
  0
VERTEX
  5
1021B
  8
0
 62
     1
 10
14.02532512416513
 20
21.13722414773477
 30
0.0
  0
VERTEX
  5
1021C
  8
0
 62
     1
 10
14.05749658337784
 20
20.96116988415287
 30
0.0
  0
VERTEX
  5
1021D
  8
0
 62
     1
 10
14.09333511914671
 20
20.78676341563181
 30
0.0
  0
VERTEX
  5
1021E
  8
0
 62
     1
 10
14.13406309032381
 20
20.61455400719187
 30
0.0
  0
VERTEX
  5
1021F
  8
0
 62
     1
 10
14.1809028557612
 20
20.44509092385336
 30
0.0
  0
VERTEX
  5
10220
  8
0
 62
     1
 10
14.23507677431093
 20
20.27892343063654
 30
0.0
  0
VERTEX
  5
10221
  8
0
 62
     1
 10
14.29780720482506
 20
20.11660079256169
 30
0.0
  0
VERTEX
  5
10222
  8
0
 62
     1
 10
14.37031650615564
 20
19.95867227464912
 30
0.0
  0
VERTEX
  5
10223
  8
0
 62
     1
 10
14.4537587095046
 20
19.8056814187719
 30
0.0
  0
VERTEX
  5
10224
  8
0
 62
     1
 10
14.54822487104217
 20
19.65808273165369
 30
0.0
  0
VERTEX
  5
10225
  8
0
 62
     1
 10
14.65296649657009
 20
19.51626039899425
 30
0.0
  0
VERTEX
  5
10226
  8
0
 62
     1
 10
14.76721223053333
 20
19.38059669161834
 30
0.0
  0
VERTEX
  5
10227
  8
0
 62
     1
 10
14.89019071737686
 20
19.25147388035073
 30
0.0
  0
VERTEX
  5
10228
  8
0
 62
     1
 10
15.02113060154566
 20
19.12927423601618
 30
0.0
  0
VERTEX
  5
10229
  8
0
 62
     1
 10
15.15926052748468
 20
19.01438002943944
 30
0.0
  0
VERTEX
  5
1022A
  8
0
 62
     1
 10
15.3038091396389
 20
18.9071735314453
 30
0.0
  0
VERTEX
  5
1022B
  8
0
 62
     1
 10
15.4540050824533
 20
18.80803701285852
 30
0.0
  0
VERTEX
  5
1022C
  8
0
 62
     1
 10
15.60908076206273
 20
18.71735046569837
 30
0.0
  0
VERTEX
  5
1022D
  8
0
 62
     1
 10
15.76840499117302
 20
18.63541124783574
 30
0.0
  0
VERTEX
  5
1022E
  8
0
 62
     1
 10
15.93151829400683
 20
18.56241269550332
 30
0.0
  0
VERTEX
  5
1022F
  8
0
 62
     1
 10
16.09797213494434
 20
18.49854151746273
 30
0.0
  0
VERTEX
  5
10230
  8
0
 62
     1
 10
16.26731797836575
 20
18.44398442247564
 30
0.0
  0
VERTEX
  5
10231
  8
0
 62
     1
 10
16.43910728865124
 20
18.39892811930367
 30
0.0
  0
VERTEX
  5
10232
  8
0
 62
     1
 10
16.612891530181
 20
18.36355931670848
 30
0.0
  0
VERTEX
  5
10233
  8
0
 62
     1
 10
16.78822216733521
 20
18.3380647234517
 30
0.0
  0
VERTEX
  5
10234
  8
0
 62
     1
 10
16.96465066449407
 20
18.32263104829498
 30
0.0
  0
VERTEX
  5
10235
  8
0
 62
     1
 10
17.14172848603775
 20
18.31744499999996
 30
0.0
  0
VERTEX
  5
10236
  8
0
 62
     1
 10
17.31898576286574
 20
18.32263105058545
 30
0.0
  0
VERTEX
  5
10237
  8
0
 62
     1
 10
17.49586729265669
 20
18.33806472714683
 30
0.0
  0
VERTEX
  5
10238
  8
0
 62
     1
 10
17.67179653995954
 20
18.36355932106056
 30
0.0
  0
VERTEX
  5
10239
  8
0
 62
     1
 10
17.8461969693232
 20
18.39892812370313
 30
0.0
  0
VERTEX
  5
1023A
  8
0
 62
     1
 10
18.0184920452966
 20
18.44398442645101
 30
0.0
  0
VERTEX
  5
1023B
  8
0
 62
     1
 10
18.18810523242869
 20
18.49854152068067
 30
0.0
  0
VERTEX
  5
1023C
  8
0
 62
     1
 10
18.35445999526839
 20
18.5624126977686
 30
0.0
  0
VERTEX
  5
1023D
  8
0
 62
     1
 10
18.51697979836461
 20
18.63541124909126
 30
0.0
  0
VERTEX
  5
1023E
  8
0
 62
     1
 10
18.67508810626631
 20
18.71735046602513
 30
0.0
  0
VERTEX
  5
1023F
  8
0
 62
     1
 10
18.82821523925766
 20
18.80803701246968
 30
0.0
  0
VERTEX
  5
10240
  8
0
 62
     1
 10
18.97589912198767
 20
18.9071735305928
 30
0.0
  0
VERTEX
  5
10241
  8
0
 62
     1
 10
19.11776315934976
 20
19.01438002833976
 30
0.0
  0
VERTEX
  5
10242
  8
0
 62
     1
 10
19.25343311352971
 20
19.12927423484827
 30
0.0
  0
VERTEX
  5
10243
  8
0
 62
     1
 10
19.3825347467133
 20
19.25147387925609
 30
0.0
  0
VERTEX
  5
10244
  8
0
 62
     1
 10
19.50469382108634
 20
19.38059669070095
 30
0.0
  0
VERTEX
  5
10245
  8
0
 62
     1
 10
19.6195360988346
 20
19.5162603983206
 30
0.0
  0
VERTEX
  5
10246
  8
0
 62
     1
 10
19.7266873421439
 20
19.65808273125275
 30
0.0
  0
VERTEX
  5
10247
  8
0
 62
     1
 10
19.8257733132
 20
19.80568141863515
 30
0.0
  0
VERTEX
  5
10248
  8
0
 62
     1
 10
19.91642189245416
 20
19.95867227473105
 30
0.0
  0
VERTEX
  5
10249
  8
0
 62
     1
 10
19.99833875060265
 20
20.11660079279869
 30
0.0
  0
VERTEX
  5
1024A
  8
0
 62
     1
 10
20.07132805045286
 20
20.27892343097064
 30
0.0
  0
VERTEX
  5
1024B
  8
0
 62
     1
 10
20.13520028584939
 20
20.44509092423388
 30
0.0
  0
VERTEX
  5
1024C
  8
0
 62
     1
 10
20.18976595063686
 20
20.61455400757536
 30
0.0
  0
VERTEX
  5
1024D
  8
0
 62
     1
 10
20.2348355386599
 20
20.78676341598204
 30
0.0
  0
VERTEX
  5
1024E
  8
0
 62
     1
 10
20.27021954376312
 20
20.96116988444089
 30
0.0
  0
VERTEX
  5
1024F
  8
0
 62
     1
 10
20.29572845979113
 20
21.13722414793886
 30
0.0
  0
VERTEX
  5
10250
  8
0
 62
     1
 10
20.31117278058855
 20
21.31437694146291
 30
0.0
  0
VERTEX
  5
10251
  8
0
 62
     1
 10
20.316363
 20
21.492079
 30
0.0
  0
VERTEX
  5
10252
  8
0
 62
     1
 10
20.31117278058855
 20
21.66978105853708
 30
0.0
  0
VERTEX
  5
10253
  8
0
 62
     1
 10
20.29572845979113
 20
21.84693385206113
 30
0.0
  0
VERTEX
  5
10254
  8
0
 62
     1
 10
20.27021954376313
 20
22.0229881155591
 30
0.0
  0
VERTEX
  5
10255
  8
0
 62
     1
 10
20.2348355386599
 20
22.19739458401795
 30
0.0
  0
VERTEX
  5
10256
  8
0
 62
     1
 10
20.18976595063688
 20
22.36960399242464
 30
0.0
  0
VERTEX
  5
10257
  8
0
 62
     1
 10
20.13520028584939
 20
22.53906707576611
 30
0.0
  0
VERTEX
  5
10258
  8
0
 62
     1
 10
20.07132805045286
 20
22.70523456902935
 30
0.0
  0
VERTEX
  5
10259
  8
0
 62
     1
 10
19.99833875060266
 20
22.8675572072013
 30
0.0
  0
VERTEX
  5
1025A
  8
0
 62
     1
 10
19.91642189245417
 20
23.02548572526894
 30
0.0
  0
VERTEX
  5
1025B
  8
0
 62
     1
 10
19.82577331320001
 20
23.17847658136484
 30
0.0
  0
VERTEX
  5
1025C
  8
0
 62
     1
 10
19.7266873421439
 20
23.32607526874724
 30
0.0
  0
VERTEX
  5
1025D
  8
0
 62
     1
 10
19.61953609883461
 20
23.46789760167939
 30
0.0
  0
VERTEX
  5
1025E
  8
0
 62
     1
 10
19.50469382108635
 20
23.60356130929904
 30
0.0
  0
VERTEX
  5
1025F
  8
0
 62
     1
 10
19.38253474671331
 20
23.7326841207439
 30
0.0
  0
VERTEX
  5
10260
  8
0
 62
     1
 10
19.25343311352972
 20
23.85488376515172
 30
0.0
  0
VERTEX
  5
10261
  8
0
 62
     1
 10
19.11776315934977
 20
23.96977797166024
 30
0.0
  0
VERTEX
  5
10262
  8
0
 62
     1
 10
18.97589912198768
 20
24.07698446940718
 30
0.0
  0
VERTEX
  5
10263
  8
0
 62
     1
 10
18.82821523925767
 20
24.17612098753031
 30
0.0
  0
VERTEX
  5
10264
  8
0
 62
     1
 10
18.67508810626632
 20
24.26680753397486
 30
0.0
  0
VERTEX
  5
10265
  8
0
 62
     1
 10
18.51697979836463
 20
24.34874675090874
 30
0.0
  0
VERTEX
  5
10266
  8
0
 62
     1
 10
18.3544599952684
 20
24.4217453022314
 30
0.0
  0
VERTEX
  5
10267
  8
0
 62
     1
 10
18.18810523242871
 20
24.48561647931932
 30
0.0
  0
VERTEX
  5
10268
  8
0
 62
     1
 10
18.01849204529662
 20
24.54017357354899
 30
0.0
  0
VERTEX
  5
10269
  8
0
 62
     1
 10
17.84619696932321
 20
24.58522987629686
 30
0.0
  0
VERTEX
  5
1026A
  8
0
 62
     1
 10
17.67179653995955
 20
24.62059867893944
 30
0.0
  0
VERTEX
  5
1026B
  8
0
 62
     1
 10
17.4958672926567
 20
24.64609327285317
 30
0.0
  0
VERTEX
  5
1026C
  8
0
 62
     1
 10
17.31898576286575
 20
24.66152694941454
 30
0.0
  0
VERTEX
  5
1026D
  8
0
 62
     1
 10
17.14172848603776
 20
24.66671300000004
 30
0.0
  0
VERTEX
  5
1026E
  8
0
 62
     1
 10
16.96465066449407
 20
24.66152695170501
 30
0.0
  0
VERTEX
  5
1026F
  8
0
 62
     1
 10
16.78822216733522
 20
24.6460932765483
 30
0.0
  0
VERTEX
  5
10270
  8
0
 62
     1
 10
16.61289153018101
 20
24.62059868329152
 30
0.0
  0
VERTEX
  5
10271
  8
0
 62
     1
 10
16.43910728865125
 20
24.58522988069634
 30
0.0
  0
VERTEX
  5
10272
  8
0
 62
     1
 10
16.26731797836576
 20
24.54017357752437
 30
0.0
  0
VERTEX
  5
10273
  8
0
 62
     1
 10
16.09797213494435
 20
24.48561648253727
 30
0.0
  0
VERTEX
  5
10274
  8
0
 62
     1
 10
15.93151829400683
 20
24.42174530449669
 30
0.0
  0
VERTEX
  5
10275
  8
0
 62
     1
 10
15.76840499117303
 20
24.34874675216427
 30
0.0
  0
VERTEX
  5
10276
  8
0
 62
     1
 10
15.60908076206273
 20
24.26680753430163
 30
0.0
  0
VERTEX
  5
10277
  8
0
 62
     1
 10
15.4540050824533
 20
24.17612098714149
 30
0.0
  0
VERTEX
  5
10278
  8
0
 62
     1
 10
15.3038091396389
 20
24.0769844685547
 30
0.0
  0
VERTEX
  5
10279
  8
0
 62
     1
 10
15.15926052748468
 20
23.96977797056056
 30
0.0
  0
VERTEX
  5
1027A
  8
0
 62
     1
 10
15.02113060154565
 20
23.85488376398383
 30
0.0
  0
VERTEX
  5
1027B
  8
0
 62
     1
 10
14.89019071737686
 20
23.73268411964927
 30
0.0
  0
VERTEX
  5
1027C
  8
0
 62
     1
 10
14.76721223053332
 20
23.60356130838166
 30
0.0
  0
VERTEX
  5
1027D
  8
0
 62
     1
 10
14.65296649657008
 20
23.46789760100574
 30
0.0
  0
VERTEX
  5
1027E
  8
0
 62
     1
 10
14.54822487104217
 20
23.3260752683463
 30
0.0
  0
VERTEX
  5
1027F
  8
0
 62
     1
 10
14.45375870950459
 20
23.17847658122809
 30
0.0
  0
VERTEX
  5
10280
  8
0
 62
     1
 10
14.37031650615563
 20
23.02548572535088
 30
0.0
  0
VERTEX
  5
10281
  8
0
 62
     1
 10
14.29780720482505
 20
22.86755720743829
 30
0.0
  0
VERTEX
  5
10282
  8
0
 62
     1
 10
14.23507677431093
 20
22.70523456936345
 30
0.0
  0
VERTEX
  5
10283
  8
0
 62
     1
 10
14.1809028557612
 20
22.53906707614663
 30
0.0
  0
VERTEX
  5
10284
  8
0
 62
     1
 10
14.13406309032381
 20
22.36960399280811
 30
0.0
  0
VERTEX
  5
10285
  8
0
 62
     1
 10
14.09333511914671
 20
22.19739458436817
 30
0.0
  0
VERTEX
  5
10286
  8
0
 62
     1
 10
14.05749658337783
 20
22.02298811584712
 30
0.0
  0
VERTEX
  5
10287
  8
0
 62
     1
 10
14.02532512416512
 20
21.84693385226521
 30
0.0
  0
VERTEX
  5
10288
  8
0
 62
     1
 10
13.99559838265653
 20
21.66978105864273
 30
0.0
  0
SEQEND
  5
10465
  8
0
 62
     1
  0
POLYLINE
  5
113
  8
0
 62
     1
 66
     1
 10
0.0
 20
0.0
 30
0.0
 70
     1
  0
VERTEX
  5
10289
  8
0
 62
     1
 10
13.967094
 20
21.492079
 30
0.0
  0
VERTEX
  5
1028A
  8
0
 62
     1
 10
13.967094
 20
21.492079
 30
0.0
  0
SEQEND
  5
10466
  8
0
 62
     1
  0
POLYLINE
  5
114
  8
0
 62
     1
 66
     1
 10
0.0
 20
0.0
 30
0.0
 70
     1
  0
VERTEX
  5
1028B
  8
0
 62
     1
 10
211.588076
 20
8.396713
 30
0.0
  0
VERTEX
  5
1028C
  8
0
 62
     1
 10
211.6165803194819
 20
8.21901092038414
 30
0.0
  0
VERTEX
  5
1028D
  8
0
 62
     1
 10
211.646306998448
 20
8.041858106828089
 30
0.0
  0
VERTEX
  5
1028E
  8
0
 62
     1
 10
211.6784783963826
 20
7.865803825391657
 30
0.0
  0
VERTEX
  5
1028F
  8
0
 62
     1
 10
211.71431687277
 20
7.691397342134656
 30
0.0
  0
VERTEX
  5
10290
  8
0
 62
     1
 10
211.7550447870944
 20
7.519187923116895
 30
0.0
  0
VERTEX
  5
10291
  8
0
 62
     1
 10
211.8018844988401
 20
7.349724834398185
 30
0.0
  0
VERTEX
  5
10292
  8
0
 62
     1
 10
211.8560583674913
 20
7.183557342038335
 30
0.0
  0
VERTEX
  5
10293
  8
0
 62
     1
 10
211.9187887525323
 20
7.021234712097155
 30
0.0
  0
VERTEX
  5
10294
  8
0
 62
     1
 10
211.9912980134473
 20
6.863306210634455
 30
0.0
  0
VERTEX
  5
10295
  8
0
 62
     1
 10
212.0747401840892
 20
6.710315380606077
 30
0.0
  0
VERTEX
  5
10296
  8
0
 62
     1
 10
212.1692063283768
 20
6.562716728286868
 30
0.0
  0
VERTEX
  5
10297
  8
0
 62
     1
 10
212.2739479503011
 20
6.420894436580258
 30
0.0
  0
VERTEX
  5
10298
  8
0
 62
     1
 10
212.388193691425
 20
6.285230773382819
 30
0.0
  0
VERTEX
  5
10299
  8
0
 62
     1
 10
212.5111721933115
 20
6.156108006591121
 30
0.0
  0
VERTEX
  5
1029A
  8
0
 62
     1
 10
212.6421120975234
 20
6.033908404101736
 30
0.0
  0
VERTEX
  5
1029B
  8
0
 62
     1
 10
212.7802420456237
 20
5.919014233811233
 30
0.0
  0
VERTEX
  5
1029C
  8
0
 62
     1
 10
212.9247906791753
 20
5.811807763616187
 30
0.0
  0
VERTEX
  5
1029D
  8
0
 62
     1
 10
213.074986639741
 20
5.712671261413164
 30
0.0
  0
VERTEX
  5
1029E
  8
0
 62
     1
 10
213.230062330541
 20
5.621984716409755
 30
0.0
  0
VERTEX
  5
1029F
  8
0
 62
     1
 10
213.3893865623659
 20
5.54004548656519
 30
0.0
  0
VERTEX
  5
102A0
  8
0
 62
     1
 10
213.5524998600432
 20
5.467046911086758
 30
0.0
  0
VERTEX
  5
102A1
  8
0
 62
     1
 10
213.718953688842
 20
5.403175701819822
 30
0.0
  0
VERTEX
  5
102A2
  8
0
 62
     1
 10
213.8882995140314
 20
5.348618570609748
 30
0.0
  0
VERTEX
  5
102A3
  8
0
 62
     1
 10
214.0600888008803
 20
5.303562229301897
 30
0.0
  0
VERTEX
  5
102A4
  8
0
 62
     1
 10
214.2338730146579
 20
5.268193389741635
 30
0.0
  0
VERTEX
  5
102A5
  8
0
 62
     1
 10
214.4092036206333
 20
5.242698763774323
 30
0.0
  0
VERTEX
  5
102A6
  8
0
 62
     1
 10
214.5856320840754
 20
5.227265063245325
 30
0.0
  0
VERTEX
  5
102A7
  8
0
 62
     1
 10
214.7627098702535
 20
5.222079000000003
 30
0.0
  0
VERTEX
  5
102A8
  8
0
 62
     1
 10
214.9399671112369
 20
5.227265048731469
 30
0.0
  0
VERTEX
  5
102A9
  8
0
 62
     1
 10
215.1168486061097
 20
5.242698734977133
 30
0.0
  0
VERTEX
  5
102AA
  8
0
 62
     1
 10
215.2927778206625
 20
5.268193346848812
 30
0.0
  0
VERTEX
  5
102AB
  8
0
 62
     1
 10
215.4671782206862
 20
5.303562172458325
 30
0.0
  0
VERTEX
  5
102AC
  8
0
 62
     1
 10
215.6394732719712
 20
5.348618499917488
 30
0.0
  0
VERTEX
  5
102AD
  8
0
 62
     1
 10
215.8090864403086
 20
5.403175617338119
 30
0.0
  0
VERTEX
  5
102AE
  8
0
 62
     1
 10
215.9754411914889
 20
5.467046812832036
 30
0.0
  0
VERTEX
  5
102AF
  8
0
 62
     1
 10
216.1379609913028
 20
5.540045374511055
 30
0.0
  0
VERTEX
  5
102B0
  8
0
 62
     1
 10
216.2960693055411
 20
5.621984590486992
 30
0.0
  0
VERTEX
  5
102B1
  8
0
 62
     1
 10
216.4491964556235
 20
5.712671121568202
 30
0.0
  0
VERTEX
  5
102B2
  8
0
 62
     1
 10
216.5968803650883
 20
5.811807610114848
 30
0.0
  0
VERTEX
  5
102B3
  8
0
 62
     1
 10
216.738744435634
 20
5.919014067162335
 30
0.0
  0
VERTEX
  5
102B4
  8
0
 62
     1
 10
216.8744144261763
 20
6.033908225035879
 30
0.0
  0
VERTEX
  5
102B5
  8
0
 62
     1
 10
217.0035160956306
 20
6.156107816060692
 30
0.0
  0
VERTEX
  5
102B6
  8
0
 62
     1
 10
217.1256752029125
 20
6.285230572561985
 30
0.0
  0
VERTEX
  5
102B7
  8
0
 62
     1
 10
217.2405175069375
 20
6.420894226864974
 30
0.0
  0
VERTEX
  5
102B8
  8
0
 62
     1
 10
217.3476687666211
 20
6.56271651129487
 30
0.0
  0
VERTEX
  5
102B9
  8
0
 62
     1
 10
217.4467547408788
 20
6.710315158176888
 30
0.0
  0
VERTEX
  5
102BA
  8
0
 62
     1
 10
217.5374033070427
 20
6.863305984837995
 30
0.0
  0
VERTEX
  5
102BB
  8
0
 62
     1
 10
217.6193201361286
 20
7.021234484957069
 30
0.0
  0
VERTEX
  5
102BC
  8
0
 62
     1
 10
217.6923093944027
 20
7.183557114839282
 30
0.0
  0
VERTEX
  5
102BD
  8
0
 62
     1
 10
217.7561815792509
 20
7.349724607607643
 30
0.0
  0
VERTEX
  5
102BE
  8
0
 62
     1
 10
217.810747188059
 20
7.519187696385158
 30
0.0
  0
VERTEX
  5
102BF
  8
0
 62
     1
 10
217.8558167182127
 20
7.691397114294839
 30
0.0
  0
VERTEX
  5
102C0
  8
0
 62
     1
 10
217.8912006670979
 20
7.865803594459692
 30
0.0
  0
VERTEX
  5
102C1
  8
0
 62
     1
 10
217.9167095321003
 20
8.041857870002726
 30
0.0
  0
VERTEX
  5
102C2
  8
0
 62
     1
 10
217.9321538106057
 20
8.21901067404695
 30
0.0
  0
VERTEX
  5
102C3
  8
0
 62
     1
 10
217.937344
 20
8.396712739715374
 30
0.0
  0
VERTEX
  5
102C4
  8
0
 62
     1
 10
217.9321537651961
 20
8.574414800584684
 30
0.0
  0
VERTEX
  5
102C5
  8
0
 62
     1
 10
217.9167094423247
 20
8.751567592046282
 30
0.0
  0
VERTEX
  5
102C6
  8
0
 62
     1
 10
217.8912005355989
 20
8.927621849945256
 30
0.0
  0
VERTEX
  5
102C7
  8
0
 62
     1
 10
217.8558165492315
 20
9.102028310126684
 30
0.0
  0
VERTEX
  5
102C8
  8
0
 62
     1
 10
217.8107469874354
 20
9.274237708435663
 30
0.0
  0
VERTEX
  5
102C9
  8
0
 62
     1
 10
217.7561813544234
 20
9.443700780717272
 30
0.0
  0
VERTEX
  5
102CA
  8
0
 62
     1
 10
217.6923091544084
 20
9.609868262816594
 30
0.0
  0
VERTEX
  5
102CB
  8
0
 62
     1
 10
217.6193198916033
 20
9.77219089057872
 30
0.0
  0
VERTEX
  5
102CC
  8
0
 62
     1
 10
217.537403070221
 20
9.930119399848731
 30
0.0
  0
VERTEX
  5
102CD
  8
0
 62
     1
 10
217.4467545255255
 20
10.08311024953465
 30
0.0
  0
VERTEX
  5
102CE
  8
0
 62
     1
 10
217.3476685859552
 20
10.23070893314898
 30
0.0
  0
VERTEX
  5
102CF
  8
0
 62
     1
 10
217.2405173714708
 20
10.37253126519285
 30
0.0
  0
VERTEX
  5
102D0
  8
0
 62
     1
 10
217.1256751203593
 20
10.50819497506505
 30
0.0
  0
VERTEX
  5
102D1
  8
0
 62
     1
 10
217.0035160709074
 20
10.63731779216434
 30
0.0
  0
VERTEX
  5
102D2
  8
0
 62
     1
 10
216.8744144614021
 20
10.7595174458895
 30
0.0
  0
VERTEX
  5
102D3
  8
0
 62
     1
 10
216.7387445301303
 20
10.87441166563931
 30
0.0
  0
VERTEX
  5
102D4
  8
0
 62
     1
 10
216.5968805153789
 20
10.98161818081255
 30
0.0
  0
VERTEX
  5
102D5
  8
0
 62
     1
 10
216.4491966554349
 20
11.08075472080798
 30
0.0
  0
VERTEX
  5
102D6
  8
0
 62
     1
 10
216.2960695458221
 20
11.17144129376621
 30
0.0
  0
VERTEX
  5
102D7
  8
0
 62
     1
 10
216.1379612616662
 20
11.25338054099216
 30
0.0
  0
VERTEX
  5
102D8
  8
0
 62
     1
 10
215.9754414824399
 20
11.32637912495461
 30
0.0
  0
VERTEX
  5
102D9
  8
0
 62
     1
 10
215.8090867434272
 20
11.39025033563791
 30
0.0
  0
VERTEX
  5
102DA
  8
0
 62
     1
 10
215.6394735799122
 20
11.44480746302643
 30
0.0
  0
VERTEX
  5
102DB
  8
0
 62
     1
 10
215.4671785271791
 20
11.48986379710453
 30
0.0
  0
VERTEX
  5
102DC
  8
0
 62
     1
 10
215.2927781205119
 20
11.52523262785657
 30
0.0
  0
VERTEX
  5
102DD
  8
0
 62
     1
 10
215.1168488951946
 20
11.55072724526692
 30
0.0
  0
VERTEX
  5
102DE
  8
0
 62
     1
 10
214.9399673865115
 20
11.56616093931994
 30
0.0
  0
VERTEX
  5
102DF
  8
0
 62
     1
 10
214.7627101297466
 20
11.571347
 30
0.0
  0
VERTEX
  5
102E0
  8
0
 62
     1
 10
214.5856323269899
 20
11.56616095383379
 30
0.0
  0
VERTEX
  5
102E1
  8
0
 62
     1
 10
214.4092038473683
 20
11.55072727406409
 30
0.0
  0
VERTEX
  5
102E2
  8
0
 62
     1
 10
214.2338732267209
 20
11.52523267074937
 30
0.0
  0
VERTEX
  5
102E3
  8
0
 62
     1
 10
214.0600890008868
 20
11.48986385394807
 30
0.0
  0
VERTEX
  5
102E4
  8
0
 62
     1
 10
213.888299705705
 20
11.44480753371866
 30
0.0
  0
VERTEX
  5
102E5
  8
0
 62
     1
 10
213.7189538770147
 20
11.39025042011959
 30
0.0
  0
VERTEX
  5
102E6
  8
0
 62
     1
 10
213.5525000506549
 20
11.32637922320931
 30
0.0
  0
VERTEX
  5
102E7
  8
0
 62
     1
 10
213.3893867624649
 20
11.25338065304629
 30
0.0
  0
VERTEX
  5
102E8
  8
0
 62
     1
 10
213.2300625482835
 20
11.17144141968897
 30
0.0
  0
VERTEX
  5
102E9
  8
0
 62
     1
 10
213.074986884166
 20
11.08075486065296
 30
0.0
  0
VERTEX
  5
102EA
  8
0
 62
     1
 10
212.9247909576791
 20
10.98161833431392
 30
0.0
  0
VERTEX
  5
102EB
  8
0
 62
     1
 10
212.780242362478
 20
10.87441183228826
 30
0.0
  0
VERTEX
  5
102EC
  8
0
 62
     1
 10
212.6421124538658
 20
10.75951762495541
 30
0.0
  0
VERTEX
  5
102ED
  8
0
 62
     1
 10
212.5111725871456
 20
10.63731798269483
 30
0.0
  0
VERTEX
  5
102EE
  8
0
 62
     1
 10
212.3881941176207
 20
10.50819517588594
 30
0.0
  0
VERTEX
  5
102EF
  8
0
 62
     1
 10
212.2739484005943
 20
10.37253147490819
 30
0.0
  0
VERTEX
  5
102F0
  8
0
 62
     1
 10
212.1692067913693
 20
10.23070915014103
 30
0.0
  0
VERTEX
  5
102F1
  8
0
 62
     1
 10
212.0747406452491
 20
10.08311047196388
 30
0.0
  0
VERTEX
  5
102F2
  8
0
 62
     1
 10
211.9912984560729
 20
9.930119625645224
 30
0.0
  0
VERTEX
  5
102F3
  8
0
 62
     1
 10
211.9187891666495
 20
9.772191117718828
 30
0.0
  0
VERTEX
  5
102F4
  8
0
 62
     1
 10
211.8560587458041
 20
9.609868490015662
 30
0.0
  0
VERTEX
  5
102F5
  8
0
 62
     1
 10
211.8018848349644
 20
9.44370100750782
 30
0.0
  0
VERTEX
  5
102F6
  8
0
 62
     1
 10
211.7550450755581
 20
9.274237935167399
 30
0.0
  0
VERTEX
  5
102F7
  8
0
 62
     1
 10
211.7143171090131
 20
9.102028537966497
 30
0.0
  0
VERTEX
  5
102F8
  8
0
 62
     1
 10
211.678478576757
 20
8.927622080877208
 30
0.0
  0
VERTEX
  5
102F9
  8
0
 62
     1
 10
211.6463071202176
 20
8.751567828871629
 30
0.0
  0
VERTEX
  5
102FA
  8
0
 62
     1
 10
211.6165803808227
 20
8.57441504692186
 30
0.0
  0
SEQEND
  5
10467
  8
0
 62
     1
  0
POLYLINE
  5
115
  8
0
 62
     1
 66
     1
 10
0.0
 20
0.0
 30
0.0
 70
     1
  0
VERTEX
  5
102FB
  8
0
 62
     1
 10
211.588076
 20
8.396713
 30
0.0
  0
VERTEX
  5
102FC
  8
0
 62
     1
 10
211.588076
 20
8.396713
 30
0.0
  0
SEQEND
  5
10468
  8
0
 62
     1
  0
POLYLINE
  5
116
  8
0
 62
     1
 66
     1
 10
0.0
 20
0.0
 30
0.0
 70
     1
  0
VERTEX
  5
102FD
  8
0
 62
     1
 10
2.062216
 20
8.396712999999998
 30
0.0
  0
VERTEX
  5
102FE
  8
0
 62
     1
 10
2.090720319481879
 20
8.21901092038414
 30
0.0
  0
VERTEX
  5
102FF
  8
0
 62
     1
 10
2.120446998448012
 20
8.041858106828089
 30
0.0
  0
VERTEX
  5
10300
  8
0
 62
     1
 10
2.152618396382652
 20
7.865803825391662
 30
0.0
  0
VERTEX
  5
10301
  8
0
 62
     1
 10
2.188456872770052
 20
7.69139734213466
 30
0.0
  0
VERTEX
  5
10302
  8
0
 62
     1
 10
2.229184787094467
 20
7.519187923116903
 30
0.0
  0
VERTEX
  5
10303
  8
0
 62
     1
 10
2.276024498840149
 20
7.349724834398192
 30
0.0
  0
VERTEX
  5
10304
  8
0
 62
     1
 10
2.330198367491352
 20
7.183557342038341
 30
0.0
  0
VERTEX
  5
10305
  8
0
 62
     1
 10
2.392928752532329
 20
7.02123471209716
 30
0.0
  0
VERTEX
  5
10306
  8
0
 62
     1
 10
2.465438013447334
 20
6.863306210634461
 30
0.0
  0
VERTEX
  5
10307
  8
0
 62
     1
 10
2.548880184089219
 20
6.710315380606081
 30
0.0
  0
VERTEX
  5
10308
  8
0
 62
     1
 10
2.643346328376822
 20
6.562716728286873
 30
0.0
  0
VERTEX
  5
10309
  8
0
 62
     1
 10
2.74808795030113
 20
6.420894436580262
 30
0.0
  0
VERTEX
  5
1030A
  8
0
 62
     1
 10
2.862333691425057
 20
6.285230773382821
 30
0.0
  0
VERTEX
  5
1030B
  8
0
 62
     1
 10
2.985312193311519
 20
6.156108006591122
 30
0.0
  0
VERTEX
  5
1030C
  8
0
 62
     1
 10
3.11625209752343
 20
6.033908404101735
 30
0.0
  0
VERTEX
  5
1030D
  8
0
 62
     1
 10
3.254382045623706
 20
5.919014233811231
 30
0.0
  0
VERTEX
  5
1030E
  8
0
 62
     1
 10
3.398930679175261
 20
5.811807763616184
 30
0.0
  0
VERTEX
  5
1030F
  8
0
 62
     1
 10
3.54912663974101
 20
5.712671261413161
 30
0.0
  0
VERTEX
  5
10310
  8
0
 62
     1
 10
3.704202330541042
 20
5.621984716409751
 30
0.0
  0
VERTEX
  5
10311
  8
0
 62
     1
 10
3.863526562365933
 20
5.540045486565186
 30
0.0
  0
VERTEX
  5
10312
  8
0
 62
     1
 10
4.026639860043237
 20
5.467046911086753
 30
0.0
  0
VERTEX
  5
10313
  8
0
 62
     1
 10
4.193093688842019
 20
5.403175701819817
 30
0.0
  0
VERTEX
  5
10314
  8
0
 62
     1
 10
4.362439514031348
 20
5.348618570609744
 30
0.0
  0
VERTEX
  5
10315
  8
0
 62
     1
 10
4.534228800880286
 20
5.303562229301894
 30
0.0
  0
VERTEX
  5
10316
  8
0
 62
     1
 10
4.708013014657901
 20
5.268193389741632
 30
0.0
  0
VERTEX
  5
10317
  8
0
 62
     1
 10
4.883343620633254
 20
5.24269876377432
 30
0.0
  0
VERTEX
  5
10318
  8
0
 62
     1
 10
5.059772084075416
 20
5.227265063245323
 30
0.0
  0
VERTEX
  5
10319
  8
0
 62
     1
 10
5.236849870253447
 20
5.222079000000002
 30
0.0
  0
VERTEX
  5
1031A
  8
0
 62
     1
 10
5.414107111236873
 20
5.227265048731469
 30
0.0
  0
VERTEX
  5
1031B
  8
0
 62
     1
 10
5.590988606109645
 20
5.242698734977134
 30
0.0
  0
VERTEX
  5
1031C
  8
0
 62
     1
 10
5.766917820662486
 20
5.268193346848815
 30
0.0
  0
VERTEX
  5
1031D
  8
0
 62
     1
 10
5.941318220686109
 20
5.303562172458328
 30
0.0
  0
VERTEX
  5
1031E
  8
0
 62
     1
 10
6.113613271971233
 20
5.348618499917492
 30
0.0
  0
VERTEX
  5
1031F
  8
0
 62
     1
 10
6.283226440308575
 20
5.403175617338123
 30
0.0
  0
VERTEX
  5
10320
  8
0
 62
     1
 10
6.449581191488853
 20
5.467046812832039
 30
0.0
  0
VERTEX
  5
10321
  8
0
 62
     1
 10
6.612100991302787
 20
5.540045374511059
 30
0.0
  0
VERTEX
  5
10322
  8
0
 62
     1
 10
6.77020930554109
 20
5.621984590486996
 30
0.0
  0
VERTEX
  5
10323
  8
0
 62
     1
 10
6.923336455623509
 20
5.712671121568207
 30
0.0
  0
VERTEX
  5
10324
  8
0
 62
     1
 10
7.071020365088281
 20
5.811807610114853
 30
0.0
  0
VERTEX
  5
10325
  8
0
 62
     1
 10
7.212884435634034
 20
5.919014067162341
 30
0.0
  0
VERTEX
  5
10326
  8
0
 62
     1
 10
7.348554426176301
 20
6.033908225035884
 30
0.0
  0
VERTEX
  5
10327
  8
0
 62
     1
 10
7.477656095630605
 20
6.156107816060697
 30
0.0
  0
VERTEX
  5
10328
  8
0
 62
     1
 10
7.599815202912483
 20
6.285230572561991
 30
0.0
  0
VERTEX
  5
10329
  8
0
 62
     1
 10
7.714657506937463
 20
6.42089422686498
 30
0.0
  0
VERTEX
  5
1032A
  8
0
 62
     1
 10
7.821808766621073
 20
6.562716511294877
 30
0.0
  0
VERTEX
  5
1032B
  8
0
 62
     1
 10
7.920894740878845
 20
6.710315158176893
 30
0.0
  0
VERTEX
  5
1032C
  8
0
 62
     1
 10
8.011543307042698
 20
6.863305984837999
 30
0.0
  0
VERTEX
  5
1032D
  8
0
 62
     1
 10
8.093460136128588
 20
7.021234484957073
 30
0.0
  0
VERTEX
  5
1032E
  8
0
 62
     1
 10
8.166449394402738
 20
7.183557114839289
 30
0.0
  0
VERTEX
  5
1032F
  8
0
 62
     1
 10
8.230321579250946
 20
7.349724607607647
 30
0.0
  0
VERTEX
  5
10330
  8
0
 62
     1
 10
8.284887188059006
 20
7.519187696385163
 30
0.0
  0
VERTEX
  5
10331
  8
0
 62
     1
 10
8.329956718212722
 20
7.691397114294843
 30
0.0
  0
VERTEX
  5
10332
  8
0
 62
     1
 10
8.365340667097888
 20
7.865803594459696
 30
0.0
  0
VERTEX
  5
10333
  8
0
 62
     1
 10
8.390849532100297
 20
8.04185787000273
 30
0.0
  0
VERTEX
  5
10334
  8
0
 62
     1
 10
8.40629381060575
 20
8.219010674046954
 30
0.0
  0
VERTEX
  5
10335
  8
0
 62
     1
 10
8.411484000000044
 20
8.396712739715378
 30
0.0
  0
VERTEX
  5
10336
  8
0
 62
     1
 10
8.406293765196061
 20
8.574414800584686
 30
0.0
  0
VERTEX
  5
10337
  8
0
 62
     1
 10
8.390849442324734
 20
8.751567592046284
 30
0.0
  0
VERTEX
  5
10338
  8
0
 62
     1
 10
8.365340535598932
 20
8.927621849945256
 30
0.0
  0
VERTEX
  5
10339
  8
0
 62
     1
 10
8.329956549231527
 20
9.102028310126686
 30
0.0
  0
VERTEX
  5
1033A
  8
0
 62
     1
 10
8.284886987435396
 20
9.274237708435663
 30
0.0
  0
VERTEX
  5
1033B
  8
0
 62
     1
 10
8.230321354423408
 20
9.443700780717274
 30
0.0
  0
VERTEX
  5
1033C
  8
0
 62
     1
 10
8.166449154408433
 20
9.609868262816592
 30
0.0
  0
VERTEX
  5
1033D
  8
0
 62
     1
 10
8.093459891603347
 20
9.772190890578717
 30
0.0
  0
VERTEX
  5
1033E
  8
0
 62
     1
 10
8.011543070221022
 20
9.930119399848726
 30
0.0
  0
VERTEX
  5
1033F
  8
0
 62
     1
 10
7.920894525525493
 20
10.08311024953465
 30
0.0
  0
VERTEX
  5
10340
  8
0
 62
     1
 10
7.821808585955244
 20
10.23070893314897
 30
0.0
  0
VERTEX
  5
10341
  8
0
 62
     1
 10
7.714657371470862
 20
10.37253126519285
 30
0.0
  0
VERTEX
  5
10342
  8
0
 62
     1
 10
7.59981512035926
 20
10.50819497506505
 30
0.0
  0
VERTEX
  5
10343
  8
0
 62
     1
 10
7.477656070907351
 20
10.63731779216434
 30
0.0
  0
VERTEX
  5
10344
  8
0
 62
     1
 10
7.348554461402052
 20
10.7595174458895
 30
0.0
  0
VERTEX
  5
10345
  8
0
 62
     1
 10
7.212884530130276
 20
10.87441166563931
 30
0.0
  0
VERTEX
  5
10346
  8
0
 62
     1
 10
7.071020515378942
 20
10.98161818081254
 30
0.0
  0
VERTEX
  5
10347
  8
0
 62
     1
 10
6.92333665543496
 20
11.08075472080798
 30
0.0
  0
VERTEX
  5
10348
  8
0
 62
     1
 10
6.770209545822142
 20
11.17144129376621
 30
0.0
  0
VERTEX
  5
10349
  8
0
 62
     1
 10
6.61210126166625
 20
11.25338054099216
 30
0.0
  0
VERTEX
  5
1034A
  8
0
 62
     1
 10
6.449581482439904
 20
11.3263791249546
 30
0.0
  0
VERTEX
  5
1034B
  8
0
 62
     1
 10
6.283226743427202
 20
11.39025033563791
 30
0.0
  0
VERTEX
  5
1034C
  8
0
 62
     1
 10
6.113613579912233
 20
11.44480746302643
 30
0.0
  0
VERTEX
  5
1034D
  8
0
 62
     1
 10
5.941318527179087
 20
11.48986379710453
 30
0.0
  0
VERTEX
  5
1034E
  8
0
 62
     1
 10
5.766918120511852
 20
11.52523262785657
 30
0.0
  0
VERTEX
  5
1034F
  8
0
 62
     1
 10
5.590988895194626
 20
11.55072724526693
 30
0.0
  0
VERTEX
  5
10350
  8
0
 62
     1
 10
5.414107386511494
 20
11.56616093931995
 30
0.0
  0
VERTEX
  5
10351
  8
0
 62
     1
 10
5.236850129746549
 20
11.571347
 30
0.0
  0
VERTEX
  5
10352
  8
0
 62
     1
 10
5.059772326989897
 20
11.56616095383379
 30
0.0
  0
VERTEX
  5
10353
  8
0
 62
     1
 10
4.883343847368314
 20
11.55072727406409
 30
0.0
  0
VERTEX
  5
10354
  8
0
 62
     1
 10
4.7080132267209
 20
11.52523267074938
 30
0.0
  0
VERTEX
  5
10355
  8
0
 62
     1
 10
4.534229000886751
 20
11.48986385394808
 30
0.0
  0
VERTEX
  5
10356
  8
0
 62
     1
 10
4.362439705704968
 20
11.44480753371866
 30
0.0
  0
VERTEX
  5
10357
  8
0
 62
     1
 10
4.193093877014649
 20
11.39025042011959
 30
0.0
  0
VERTEX
  5
10358
  8
0
 62
     1
 10
4.026640050654891
 20
11.32637922320931
 30
0.0
  0
VERTEX
  5
10359
  8
0
 62
     1
 10
3.863526762464793
 20
11.25338065304629
 30
0.0
  0
VERTEX
  5
1035A
  8
0
 62
     1
 10
3.704202548283454
 20
11.17144141968898
 30
0.0
  0
VERTEX
  5
1035B
  8
0
 62
     1
 10
3.549126884166007
 20
11.08075486065296
 30
0.0
  0
VERTEX
  5
1035C
  8
0
 62
     1
 10
3.398930957679062
 20
10.98161833431392
 30
0.0
  0
VERTEX
  5
1035D
  8
0
 62
     1
 10
3.254382362477921
 20
10.87441183228825
 30
0.0
  0
VERTEX
  5
1035E
  8
0
 62
     1
 10
3.116252453865727
 20
10.75951762495541
 30
0.0
  0
VERTEX
  5
1035F
  8
0
 62
     1
 10
2.985312587145627
 20
10.63731798269482
 30
0.0
  0
VERTEX
  5
10360
  8
0
 62
     1
 10
2.862334117620768
 20
10.50819517588593
 30
0.0
  0
VERTEX
  5
10361
  8
0
 62
     1
 10
2.748088400594293
 20
10.37253147490818
 30
0.0
  0
VERTEX
  5
10362
  8
0
 62
     1
 10
2.643346791369351
 20
10.23070915014101
 30
0.0
  0
VERTEX
  5
10363
  8
0
 62
     1
 10
2.548880645249086
 20
10.08311047196387
 30
0.0
  0
VERTEX
  5
10364
  8
0
 62
     1
 10
2.465438456072903
 20
9.930119625645206
 30
0.0
  0
VERTEX
  5
10365
  8
0
 62
     1
 10
2.392929166649573
 20
9.77219111771881
 30
0.0
  0
VERTEX
  5
10366
  8
0
 62
     1
 10
2.330198745804167
 20
9.609868490015645
 30
0.0
  0
VERTEX
  5
10367
  8
0
 62
     1
 10
2.276024834964444
 20
9.4437010075078
 30
0.0
  0
VERTEX
  5
10368
  8
0
 62
     1
 10
2.229185075558165
 20
9.27423793516738
 30
0.0
  0
VERTEX
  5
10369
  8
0
 62
     1
 10
2.188457109013088
 20
9.10202853796648
 30
0.0
  0
VERTEX
  5
1036A
  8
0
 62
     1
 10
2.152618576756973
 20
8.92762208087719
 30
0.0
  0
VERTEX
  5
1036B
  8
0
 62
     1
 10
2.12044712021758
 20
8.751567828871615
 30
0.0
  0
VERTEX
  5
1036C
  8
0
 62
     1
 10
2.090720380822668
 20
8.574415046921843
 30
0.0
  0
SEQEND
  5
10469
  8
0
 62
     1
  0
POLYLINE
  5
117
  8
0
 62
     1
 66
     1
 10
0.0
 20
0.0
 30
0.0
 70
     1
  0
VERTEX
  5
1036D
  8
0
 62
     1
 10
2.062216
 20
8.396713
 30
0.0
  0
VERTEX
  5
1036E
  8
0
 62
     1
 10
2.062216
 20
8.396713
 30
0.0
  0
SEQEND
  5
1046A
  8
0
 62
     1
  0
POLYLINE
  5
118
  8
0
 62
     1
 66
     1
 10
0.0
 20
0.0
 30
0.0
 70
     1
  0
VERTEX
  5
1036F
  8
0
 62
     1
 10
211.825142
 20
-118.540634
 30
0.0
  0
VERTEX
  5
10370
  8
0
 62
     1
 10
211.853646383815
 20
-118.7183360631658
 30
0.0
  0
VERTEX
  5
10371
  8
0
 62
     1
 10
211.8833731265503
 20
-118.8954888612763
 30
0.0
  0
VERTEX
  5
10372
  8
0
 62
     1
 10
211.9155445871262
 20
-119.0715431292763
 30
0.0
  0
VERTEX
  5
10373
  8
0
 62
     1
 10
211.9513831244632
 20
-119.2459496021104
 30
0.0
  0
VERTEX
  5
10374
  8
0
 62
     1
 10
211.9921110974815
 20
-119.4181590147233
 30
0.0
  0
VERTEX
  5
10375
  8
0
 62
     1
 10
212.0389508651014
 20
-119.5876221020597
 30
0.0
  0
VERTEX
  5
10376
  8
0
 62
     1
 10
212.0931247862432
 20
-119.7537895990643
 30
0.0
  0
VERTEX
  5
10377
  8
0
 62
     1
 10
212.1558552198274
 20
-119.9161122406819
 30
0.0
  0
VERTEX
  5
10378
  8
0
 62
     1
 10
212.2283645247742
 20
-120.0740407618572
 30
0.0
  0
VERTEX
  5
10379
  8
0
 62
     1
 10
212.3118067322689
 20
-120.2270316206879
 30
0.0
  0
VERTEX
  5
1037A
  8
0
 62
     1
 10
212.4062728981941
 20
-120.3746303104249
 30
0.0
  0
VERTEX
  5
1037B
  8
0
 62
     1
 10
212.5110145283926
 20
-120.5164526453008
 30
0.0
  0
VERTEX
  5
1037C
  8
0
 62
     1
 10
212.6252602673919
 20
-120.6521163544189
 30
0.0
  0
VERTEX
  5
1037D
  8
0
 62
     1
 10
212.7482387597192
 20
-120.7812391668828
 30
0.0
  0
VERTEX
  5
1037E
  8
0
 62
     1
 10
212.8791786499019
 20
-120.9034388117959
 30
0.0
  0
VERTEX
  5
1037F
  8
0
 62
     1
 10
213.0173085824674
 20
-121.0183330182618
 30
0.0
  0
VERTEX
  5
10380
  8
0
 62
     1
 10
213.161857201943
 20
-121.1255395153839
 30
0.0
  0
VERTEX
  5
10381
  8
0
 62
     1
 10
213.312053152856
 20
-121.2246760322657
 30
0.0
  0
VERTEX
  5
10382
  8
0
 62
     1
 10
213.4671288414319
 20
-121.3153625768268
 30
0.0
  0
VERTEX
  5
10383
  8
0
 62
     1
 10
213.626453080383
 20
-121.3973017912866
 30
0.0
  0
VERTEX
  5
10384
  8
0
 62
     1
 10
213.7895663936136
 20
-121.4703003395608
 30
0.0
  0
VERTEX
  5
10385
  8
0
 62
     1
 10
213.9560202451435
 20
-121.5341715130271
 30
0.0
  0
VERTEX
  5
10386
  8
0
 62
     1
 10
214.1253660989922
 20
-121.588728603063
 30
0.0
  0
VERTEX
  5
10387
  8
0
 62
     1
 10
214.2971554191795
 20
-121.633784901046
 30
0.0
  0
VERTEX
  5
10388
  8
0
 62
     1
 10
214.4709396697252
 20
-121.6691536983537
 30
0.0
  0
VERTEX
  5
10389
  8
0
 62
     1
 10
214.6462703146488
 20
-121.6946482863635
 30
0.0
  0
VERTEX
  5
1038A
  8
0
 62
     1
 10
214.8226988179701
 20
-121.7100819564531
 30
0.0
  0
VERTEX
  5
1038B
  8
0
 62
     1
 10
214.9997766437088
 20
-121.715268
 30
0.0
  0
VERTEX
  5
1038C
  8
0
 62
     1
 10
215.1770339228156
 20
-121.7100819442298
 30
0.0
  0
VERTEX
  5
1038D
  8
0
 62
     1
 10
215.3539154534509
 20
-121.6946482612615
 30
0.0
  0
VERTEX
  5
1038E
  8
0
 62
     1
 10
215.529844700449
 20
-121.669153659813
 30
0.0
  0
VERTEX
  5
1038F
  8
0
 62
     1
 10
215.7042451286439
 20
-121.633784848602
 30
0.0
  0
VERTEX
  5
10390
  8
0
 62
     1
 10
215.8765402028698
 20
-121.5887285363462
 30
0.0
  0
VERTEX
  5
10391
  8
0
 62
     1
 10
216.046153387961
 20
-121.5341714317635
 30
0.0
  0
VERTEX
  5
10392
  8
0
 62
     1
 10
216.2125081487515
 20
-121.4703002435715
 30
0.0
  0
VERTEX
  5
10393
  8
0
 62
     1
 10
216.3750279500755
 20
-121.397301680488
 30
0.0
  0
VERTEX
  5
10394
  8
0
 62
     1
 10
216.5331362567673
 20
-121.3153624512308
 30
0.0
  0
VERTEX
  5
10395
  8
0
 62
     1
 10
216.6862633893983
 20
-121.224675892032
 30
0.0
  0
VERTEX
  5
10396
  8
0
 62
     1
 10
216.8339472725127
 20
-121.1255393610301
 30
0.0
  0
VERTEX
  5
10397
  8
0
 62
     1
 10
216.9758113103683
 20
-121.0183328505132
 30
0.0
  0
VERTEX
  5
10398
  8
0
 62
     1
 10
217.1114812644871
 20
-120.9034386315621
 30
0.0
  0
VERTEX
  5
10399
  8
0
 62
     1
 10
217.2405828963915
 20
-120.7812389752577
 30
0.0
  0
VERTEX
  5
1039A
  8
0
 62
     1
 10
217.3627419676036
 20
-120.6521161526806
 30
0.0
  0
VERTEX
  5
1039B
  8
0
 62
     1
 10
217.4775842396456
 20
-120.5164524349118
 30
0.0
  0
VERTEX
  5
1039C
  8
0
 62
     1
 10
217.5847354740398
 20
-120.3746300930319
 30
0.0
  0
VERTEX
  5
1039D
  8
0
 62
     1
 10
217.6838214323083
 20
-120.2270313981219
 30
0.0
  0
VERTEX
  5
1039E
  8
0
 62
     1
 10
217.7744699942873
 20
-120.0740405361426
 30
0.0
  0
VERTEX
  5
1039F
  8
0
 62
     1
 10
217.8563868312908
 20
-119.9161120137788
 30
0.0
  0
VERTEX
  5
103A0
  8
0
 62
     1
 10
217.9293761079901
 20
-119.7537893721994
 30
0.0
  0
VERTEX
  5
103A1
  8
0
 62
     1
 10
217.9932483201427
 20
-119.5876218756497
 30
0.0
  0
VERTEX
  5
103A2
  8
0
 62
     1
 10
218.0478139635061
 20
-119.418158788375
 30
0.0
  0
VERTEX
  5
103A3
  8
0
 62
     1
 10
218.0928835338379
 20
-119.2459493746208
 30
0.0
  0
VERTEX
  5
103A4
  8
0
 62
     1
 10
218.1282675268956
 20
-119.0715428986324
 30
0.0
  0
VERTEX
  5
103A5
  8
0
 62
     1
 10
218.1537764384369
 20
-118.8954886246551
 30
0.0
  0
VERTEX
  5
103A6
  8
0
 62
     1
 10
218.1692207642192
 20
-118.7183358169343
 30
0.0
  0
VERTEX
  5
103A7
  8
0
 62
     1
 10
218.174411
 20
-118.5406337397154
 30
0.0
  0
VERTEX
  5
103A8
  8
0
 62
     1
 10
218.1692208096289
 20
-118.3629316576973
 30
0.0
  0
VERTEX
  5
103A9
  8
0
 62
     1
 10
218.1537765282124
 20
-118.1857788373939
 30
0.0
  0
VERTEX
  5
103AA
  8
0
 62
     1
 10
218.1282676583946
 20
-118.0097245457726
 30
0.0
  0
VERTEX
  5
103AB
  8
0
 62
     1
 10
218.0928837028191
 20
-117.8353180498007
 30
0.0
  0
VERTEX
  5
103AC
  8
0
 62
     1
 10
218.0478141641297
 20
-117.6631086164458
 30
0.0
  0
VERTEX
  5
103AD
  8
0
 62
     1
 10
217.9932485449702
 20
-117.4936455126752
 30
0.0
  0
VERTEX
  5
103AE
  8
0
 62
     1
 10
217.9293763479844
 20
-117.3274780054565
 30
0.0
  0
VERTEX
  5
103AF
  8
0
 62
     1
 10
217.8563870758161
 20
-117.165155361757
 30
0.0
  0
VERTEX
  5
103B0
  8
0
 62
     1
 10
217.774470231109
 20
-117.0072268485441
 30
0.0
  0
VERTEX
  5
103B1
  8
0
 62
     1
 10
217.6838216476617
 20
-116.8542360095897
 30
0.0
  0
VERTEX
  5
103B2
  8
0
 62
     1
 10
217.5847356547056
 20
-116.706637351412
 30
0.0
  0
VERTEX
  5
103B3
  8
0
 62
     1
 10
217.4775843751122
 20
-116.5648150571461
 30
0.0
  0
VERTEX
  5
103B4
  8
0
 62
     1
 10
217.3627420501568
 20
-116.4291513949465
 30
0.0
  0
VERTEX
  5
103B5
  8
0
 62
     1
 10
217.2405829211147
 20
-116.3000286329674
 30
0.0
  0
VERTEX
  5
103B6
  8
0
 62
     1
 10
217.1114812292612
 20
-116.1778290393633
 30
0.0
  0
VERTEX
  5
103B7
  8
0
 62
     1
 10
216.9758112158719
 20
-116.0629348822886
 30
0.0
  0
VERTEX
  5
103B8
  8
0
 62
     1
 10
216.833947122222
 20
-115.9557284298975
 30
0.0
  0
VERTEX
  5
103B9
  8
0
 62
     1
 10
216.6862631895868
 20
-115.8565919503443
 30
0.0
  0
VERTEX
  5
103BA
  8
0
 62
     1
 10
216.5331360164863
 20
-115.7659054330225
 30
0.0
  0
VERTEX
  5
103BB
  8
0
 62
     1
 10
216.375027679712
 20
-115.6839662350153
 30
0.0
  0
VERTEX
  5
103BC
  8
0
 62
     1
 10
216.2125078578004
 20
-115.6109676942152
 30
0.0
  0
VERTEX
  5
103BD
  8
0
 62
     1
 10
216.0461530848424
 20
-115.5470965212126
 30
0.0
  0
VERTEX
  5
103BE
  8
0
 62
     1
 10
215.8765398949288
 20
-115.4925394265977
 30
0.0
  0
VERTEX
  5
103BF
  8
0
 62
     1
 10
215.704244822151
 20
-115.4474831209609
 30
0.0
  0
VERTEX
  5
103C0
  8
0
 62
     1
 10
215.5298444005996
 20
-115.4121143148924
 30
0.0
  0
VERTEX
  5
103C1
  8
0
 62
     1
 10
215.353915164366
 20
-115.3866197189825
 30
0.0
  0
VERTEX
  5
103C2
  8
0
 62
     1
 10
215.1770336475411
 20
-115.3711860438216
 30
0.0
  0
VERTEX
  5
103C3
  8
0
 62
     1
 10
214.9997763842157
 20
-115.366
 30
0.0
  0
VERTEX
  5
103C4
  8
0
 62
     1
 10
214.8226985750557
 20
-115.371186060626
 30
0.0
  0
VERTEX
  5
103C5
  8
0
 62
     1
 10
214.6462700879138
 20
-115.3866197514748
 30
0.0
  0
VERTEX
  5
103C6
  8
0
 62
     1
 10
214.4709394576623
 20
-115.4121143621373
 30
0.0
  0
VERTEX
  5
103C7
  8
0
 62
     1
 10
214.2971552191731
 20
-115.4474831822039
 30
0.0
  0
VERTEX
  5
103C8
  8
0
 62
     1
 10
214.1253659073186
 20
-115.4925395012653
 30
0.0
  0
VERTEX
  5
103C9
  8
0
 62
     1
 10
213.9560200569709
 20
-115.5470966089122
 30
0.0
  0
VERTEX
  5
103CA
  8
0
 62
     1
 10
213.789566203002
 20
-115.6109677947352
 30
0.0
  0
VERTEX
  5
103CB
  8
0
 62
     1
 10
213.6264528802842
 20
-115.6839663483249
 30
0.0
  0
VERTEX
  5
103CC
  8
0
 62
     1
 10
213.4671286236895
 20
-115.7659055592719
 30
0.0
  0
VERTEX
  5
103CD
  8
0
 62
     1
 10
213.3120529084311
 20
-115.8565920898004
 30
0.0
  0
VERTEX
  5
103CE
  8
0
 62
     1
 10
213.1618569234392
 20
-115.9557285825462
 30
0.0
  0
VERTEX
  5
103CF
  8
0
 62
     1
 10
213.0173082656132
 20
-116.0629350478377
 30
0.0
  0
VERTEX
  5
103D0
  8
0
 62
     1
 10
212.8791782935597
 20
-116.1778292172612
 30
0.0
  0
VERTEX
  5
103D1
  8
0
 62
     1
 10
212.7482383658852
 20
-116.3000288224032
 30
0.0
  0
VERTEX
  5
103D2
  8
0
 62
     1
 10
212.6252598411963
 20
-116.4291515948499
 30
0.0
  0
VERTEX
  5
103D3
  8
0
 62
     1
 10
212.5110140780995
 20
-116.5648152661877
 30
0.0
  0
VERTEX
  5
103D4
  8
0
 62
     1
 10
212.4062724352015
 20
-116.706637568003
 30
0.0
  0
VERTEX
  5
103D5
  8
0
 62
     1
 10
212.311806271109
 20
-116.8542362318821
 30
0.0
  0
VERTEX
  5
103D6
  8
0
 62
     1
 10
212.2283640821486
 20
-117.0072270744225
 30
0.0
  0
VERTEX
  5
103D7
  8
0
 62
     1
 10
212.1558548057101
 20
-117.165155589134
 30
0.0
  0
VERTEX
  5
103D8
  8
0
 62
     1
 10
212.0931244079304
 20
-117.3274782329896
 30
0.0
  0
VERTEX
  5
103D9
  8
0
 62
     1
 10
212.038950528977
 20
-117.4936457398463
 30
0.0
  0
VERTEX
  5
103DA
  8
0
 62
     1
 10
211.9921108090178
 20
-117.663108843561
 30
0.0
  0
VERTEX
  5
103DB
  8
0
 62
     1
 10
211.9513828882202
 20
-117.8353182779907
 30
0.0
  0
VERTEX
  5
103DC
  8
0
 62
     1
 10
211.915544406752
 20
-118.0097247769925
 30
0.0
  0
VERTEX
  5
103DD
  8
0
 62
     1
 10
211.8833730047807
 20
-118.1857790744233
 30
0.0
  0
VERTEX
  5
103DE
  8
0
 62
     1
 10
211.8536463224742
 20
-118.3629319041401
 30
0.0
  0
SEQEND
  5
1046B
  8
0
 62
     1
  0
POLYLINE
  5
119
  8
0
 62
     1
 66
     1
 10
0.0
 20
0.0
 30
0.0
 70
     1
  0
VERTEX
  5
103DF
  8
0
 62
     1
 10
211.825142
 20
-118.540634
 30
0.0
  0
VERTEX
  5
103E0
  8
0
 62
     1
 10
211.825142
 20
-118.540634
 30
0.0
  0
SEQEND
  5
1046C
  8
0
 62
     1
  0
POLYLINE
  5
11A
  8
0
 62
     1
 66
     1
 10
0.0
 20
0.0
 30
0.0
 70
     1
  0
VERTEX
  5
103E1
  8
0
 62
     1
 10
1.825149
 20
-118.540634
 30
0.0
  0
VERTEX
  5
103E2
  8
0
 62
     1
 10
1.853653383440152
 20
-118.7183360632715
 30
0.0
  0
VERTEX
  5
103E3
  8
0
 62
     1
 10
1.883380125826322
 20
-118.8954888614804
 30
0.0
  0
VERTEX
  5
103E4
  8
0
 62
     1
 10
1.915551586104527
 20
-119.0715431295643
 30
0.0
  0
VERTEX
  5
103E5
  8
0
 62
     1
 10
1.951390123220787
 20
-119.2459496024606
 30
0.0
  0
VERTEX
  5
103E6
  8
0
 62
     1
 10
1.992118096121118
 20
-119.4181590151068
 30
0.0
  0
VERTEX
  5
103E7
  8
0
 62
     1
 10
2.038957863751538
 20
-119.5876221024402
 30
0.0
  0
VERTEX
  5
103E8
  8
0
 62
     1
 10
2.093131785058065
 20
-119.7537895993984
 30
0.0
  0
VERTEX
  5
103E9
  8
0
 62
     1
 10
2.155862218986718
 20
-119.9161122409189
 30
0.0
  0
VERTEX
  5
103EA
  8
0
 62
     1
 10
2.228371524483513
 20
-120.0740407619391
 30
0.0
  0
VERTEX
  5
103EB
  8
0
 62
     1
 10
2.311813732753952
 20
-120.2270316205511
 30
0.0
  0
VERTEX
  5
103EC
  8
0
 62
     1
 10
2.40627989961634
 20
-120.374630310024
 30
0.0
  0
VERTEX
  5
103ED
  8
0
 62
     1
 10
2.511021530782273
 20
-120.5164526446272
 30
0.0
  0
VERTEX
  5
103EE
  8
0
 62
     1
 10
2.625267270646089
 20
-120.6521163535015
 30
0.0
  0
VERTEX
  5
103EF
  8
0
 62
     1
 10
2.748245763602125
 20
-120.7812391657882
 30
0.0
  0
VERTEX
  5
103F0
  8
0
 62
     1
 10
2.879185654044722
 20
-120.903438810628
 30
0.0
  0
VERTEX
  5
103F1
  8
0
 62
     1
 10
3.017315586368215
 20
-121.0183330171621
 30
0.0
  0
VERTEX
  5
103F2
  8
0
 62
     1
 10
3.161864204966943
 20
-121.1255395145314
 30
0.0
  0
VERTEX
  5
103F3
  8
0
 62
     1
 10
3.312060154235247
 20
-121.2246760318769
 30
0.0
  0
VERTEX
  5
103F4
  8
0
 62
     1
 10
3.467135840270419
 20
-121.3153625771536
 30
0.0
  0
VERTEX
  5
103F5
  8
0
 62
     1
 10
3.62646007583503
 20
-121.3973017925421
 30
0.0
  0
VERTEX
  5
103F6
  8
0
 62
     1
 10
3.789573385108062
 20
-121.4703003418261
 30
0.0
  0
VERTEX
  5
103F7
  8
0
 62
     1
 10
3.956027232398199
 20
-121.5341715162451
 30
0.0
  0
VERTEX
  5
103F8
  8
0
 62
     1
 10
4.12537308201412
 20
-121.5887286070384
 30
0.0
  0
VERTEX
  5
103F9
  8
0
 62
     1
 10
4.297162398264505
 20
-121.6337849054455
 30
0.0
  0
VERTEX
  5
103FA
  8
0
 62
     1
 10
4.470946645458037
 20
-121.6691537027058
 30
0.0
  0
VERTEX
  5
103FB
  8
0
 62
     1
 10
4.646277287903395
 20
-121.6946482900587
 30
0.0
  0
VERTEX
  5
103FC
  8
0
 62
     1
 10
4.822705789909262
 20
-121.7100819587436
 30
0.0
  0
VERTEX
  5
103FD
  8
0
 62
     1
 10
4.999783615784315
 20
-121.715268
 30
0.0
  0
VERTEX
  5
103FE
  8
0
 62
     1
 10
5.177040896336631
 20
-121.7100819419393
 30
0.0
  0
VERTEX
  5
103FF
  8
0
 62
     1
 10
5.353922429261214
 20
-121.6946482575664
 30
0.0
  0
VERTEX
  5
10400
  8
0
 62
     1
 10
5.529851679197135
 20
-121.6691536554609
 30
0.0
  0
VERTEX
  5
10401
  8
0
 62
     1
 10
5.704252110783471
 20
-121.6337848442026
 30
0.0
  0
VERTEX
  5
10402
  8
0
 62
     1
 10
5.876547188659294
 20
-121.5887285323709
 30
0.0
  0
VERTEX
  5
10403
  8
0
 62
     1
 10
6.046160377463677
 20
-121.5341714285455
 30
0.0
  0
VERTEX
  5
10404
  8
0
 62
     1
 10
6.212515141835692
 20
-121.4703002413062
 30
0.0
  0
VERTEX
  5
10405
  8
0
 62
     1
 10
6.375034946414416
 20
-121.3973016792325
 30
0.0
  0
VERTEX
  5
10406
  8
0
 62
     1
 10
6.533143255838921
 20
-121.3153624509041
 30
0.0
  0
VERTEX
  5
10407
  8
0
 62
     1
 10
6.686270390495984
 20
-121.2246758924208
 30
0.0
  0
VERTEX
  5
10408
  8
0
 62
     1
 10
6.833954274908207
 20
-121.1255393618825
 30
0.0
  0
VERTEX
  5
10409
  8
0
 62
     1
 10
6.975818313441113
 20
-121.0183328516129
 30
0.0
  0
VERTEX
  5
1040A
  8
0
 62
     1
 10
7.111488267728343
 20
-120.90343863273
 30
0.0
  0
VERTEX
  5
1040B
  8
0
 62
     1
 10
7.240589899403536
 20
-120.7812389763523
 30
0.0
  0
VERTEX
  5
1040C
  8
0
 62
     1
 10
7.362748970100332
 20
-120.652116153598
 30
0.0
  0
VERTEX
  5
1040D
  8
0
 62
     1
 10
7.477591241452372
 20
-120.5164524355854
 30
0.0
  0
VERTEX
  5
1040E
  8
0
 62
     1
 10
7.584742475093294
 20
-120.3746300934329
 30
0.0
  0
VERTEX
  5
1040F
  8
0
 62
     1
 10
7.683828432656736
 20
-120.2270313982586
 30
0.0
  0
VERTEX
  5
10410
  8
0
 62
     1
 10
7.77447699408854
 20
-120.0740405360607
 30
0.0
  0
VERTEX
  5
10411
  8
0
 62
     1
 10
7.856393830750518
 20
-119.9161120135418
 30
0.0
  0
VERTEX
  5
10412
  8
0
 62
     1
 10
7.929383107282988
 20
-119.7537893718652
 30
0.0
  0
VERTEX
  5
10413
  8
0
 62
     1
 10
7.99325531940757
 20
-119.5876218752691
 30
0.0
  0
VERTEX
  5
10414
  8
0
 62
     1
 10
8.047820962845883
 20
-119.4181587879915
 30
0.0
  0
VERTEX
  5
10415
  8
0
 62
     1
 10
8.092890533319546
 20
-119.2459493742705
 30
0.0
  0
VERTEX
  5
10416
  8
0
 62
     1
 10
8.128274526550173
 20
-119.0715428983443
 30
0.0
  0
VERTEX
  5
10417
  8
0
 62
     1
 10
8.153783438259389
 20
-118.895488624451
 30
0.0
  0
VERTEX
  5
10418
  8
0
 62
     1
 10
8.169227764168806
 20
-118.7183358168286
 30
0.0
  0
VERTEX
  5
10419
  8
0
 62
     1
 10
8.174418000000044
 20
-118.5406337397154
 30
0.0
  0
VERTEX
  5
1041A
  8
0
 62
     1
 10
8.169227809578498
 20
-118.362931657803
 30
0.0
  0
VERTEX
  5
1041B
  8
0
 62
     1
 10
8.153783528034959
 20
-118.185778837598
 30
0.0
  0
VERTEX
  5
1041C
  8
0
 62
     1
 10
8.12827465804914
 20
-118.0097245460606
 30
0.0
  0
VERTEX
  5
1041D
  8
0
 62
     1
 10
8.092890702300751
 20
-117.8353180501509
 30
0.0
  0
VERTEX
  5
1041E
  8
0
 62
     1
 10
8.047821163469507
 20
-117.6631086168293
 30
0.0
  0
VERTEX
  5
1041F
  8
0
 62
     1
 10
7.993255544235117
 20
-117.4936455130558
 30
0.0
  0
VERTEX
  5
10420
  8
0
 62
     1
 10
7.929383347277296
 20
-117.3274780057906
 30
0.0
  0
VERTEX
  5
10421
  8
0
 62
     1
 10
7.856394075275755
 20
-117.165155361994
 30
0.0
  0
VERTEX
  5
10422
  8
0
 62
     1
 10
7.774477230910207
 20
-117.0072268486261
 30
0.0
  0
VERTEX
  5
10423
  8
0
 62
     1
 10
7.683828648010063
 20
-116.854236009453
 30
0.0
  0
VERTEX
  5
10424
  8
0
 62
     1
 10
7.58474265575908
 20
-116.706637351011
 30
0.0
  0
VERTEX
  5
10425
  8
0
 62
     1
 10
7.47759137691892
 20
-116.5648150564724
 30
0.0
  0
VERTEX
  5
10426
  8
0
 62
     1
 10
7.362749052653496
 20
-116.4291513940291
 30
0.0
  0
VERTEX
  5
10427
  8
0
 62
     1
 10
7.240589924126723
 20
-116.3000286318728
 30
0.0
  0
VERTEX
  5
10428
  8
0
 62
     1
 10
7.111488232502516
 20
-116.1778290381954
 30
0.0
  0
VERTEX
  5
10429
  8
0
 62
     1
 10
6.975818218944795
 20
-116.0629348811889
 30
0.0
  0
VERTEX
  5
1042A
  8
0
 62
     1
 10
6.833954124617471
 20
-115.9557284290449
 30
0.0
  0
VERTEX
  5
1042B
  8
0
 62
     1
 10
6.686270190684463
 20
-115.8565919499555
 30
0.0
  0
VERTEX
  5
1042C
  8
0
 62
     1
 10
6.533143015557804
 20
-115.7659054333492
 30
0.0
  0
VERTEX
  5
1042D
  8
0
 62
     1
 10
6.375034676050896
 20
-115.6839662362708
 30
0.0
  0
VERTEX
  5
1042E
  8
0
 62
     1
 10
6.212514850884589
 20
-115.6109676964805
 30
0.0
  0
VERTEX
  5
1042F
  8
0
 62
     1
 10
6.046160074344998
 20
-115.5470965244306
 30
0.0
  0
VERTEX
  5
10430
  8
0
 62
     1
 10
5.876546880718245
 20
-115.4925394305731
 30
0.0
  0
VERTEX
  5
10431
  8
0
 62
     1
 10
5.704251804290447
 20
-115.4474831253604
 30
0.0
  0
VERTEX
  5
10432
  8
0
 62
     1
 10
5.529851379347723
 20
-115.4121143192445
 30
0.0
  0
VERTEX
  5
10433
  8
0
 62
     1
 10
5.353922140176191
 20
-115.3866197226777
 30
0.0
  0
VERTEX
  5
10434
  8
0
 62
     1
 10
5.177040621061969
 20
-115.3711860461121
 30
0.0
  0
VERTEX
  5
10435
  8
0
 62
     1
 10
4.999783356291177
 20
-115.366
 30
0.0
  0
VERTEX
  5
10436
  8
0
 62
     1
 10
4.822705546994749
 20
-115.3711860583355
 30
0.0
  0
VERTEX
  5
10437
  8
0
 62
     1
 10
4.646277061168314
 20
-115.3866197477797
 30
0.0
  0
VERTEX
  5
10438
  8
0
 62
     1
 10
4.470946433395024
 20
-115.4121143577852
 30
0.0
  0
VERTEX
  5
10439
  8
0
 62
     1
 10
4.297162198258039
 20
-115.4474831778044
 30
0.0
  0
VERTEX
  5
1043A
  8
0
 62
     1
 10
4.125372890340509
 20
-115.4925394972899
 30
0.0
  0
VERTEX
  5
1043B
  8
0
 62
     1
 10
3.956027044225592
 20
-115.5470966056942
 30
0.0
  0
VERTEX
  5
1043C
  8
0
 62
     1
 10
3.789573194496442
 20
-115.6109677924699
 30
0.0
  0
VERTEX
  5
1043D
  8
0
 62
     1
 10
3.626459875736216
 20
-115.6839663470694
 30
0.0
  0
VERTEX
  5
1043E
  8
0
 62
     1
 10
3.467135622528069
 20
-115.7659055589452
 30
0.0
  0
VERTEX
  5
1043F
  8
0
 62
     1
 10
3.312059909810321
 20
-115.8565920901892
 30
0.0
  0
VERTEX
  5
10440
  8
0
 62
     1
 10
3.161863926463219
 20
-115.9557285833987
 30
0.0
  0
VERTEX
  5
10441
  8
0
 62
     1
 10
3.017315269514075
 20
-116.0629350489374
 30
0.0
  0
VERTEX
  5
10442
  8
0
 62
     1
 10
2.879185297702494
 20
-116.1778292184291
 30
0.0
  0
VERTEX
  5
10443
  8
0
 62
     1
 10
2.748245369768077
 20
-116.3000288234978
 30
0.0
  0
VERTEX
  5
10444
  8
0
 62
     1
 10
2.625266844450425
 20
-116.4291515957673
 30
0.0
  0
VERTEX
  5
10445
  8
0
 62
     1
 10
2.51102108048914
 20
-116.5648152668613
 30
0.0
  0
VERTEX
  5
10446
  8
0
 62
     1
 10
2.406279436623826
 20
-116.7066375684039
 30
0.0
  0
VERTEX
  5
10447
  8
0
 62
     1
 10
2.311813271594083
 20
-116.8542362320188
 30
0.0
  0
VERTEX
  5
10448
  8
0
 62
     1
 10
2.22837108185793
 20
-117.0072270743405
 30
0.0
  0
VERTEX
  5
10449
  8
0
 62
     1
 10
2.155861804869456
 20
-117.165155588897
 30
0.0
  0
VERTEX
  5
1044A
  8
0
 62
     1
 10
2.09313140674523
 20
-117.3274782326555
 30
0.0
  0
VERTEX
  5
1044B
  8
0
 62
     1
 10
2.038957527627222
 20
-117.4936457394657
 30
0.0
  0
VERTEX
  5
1044C
  8
0
 62
     1
 10
1.992117807657401
 20
-117.6631088431775
 30
0.0
  0
VERTEX
  5
1044D
  8
0
 62
     1
 10
1.951389886977736
 20
-117.8353182776405
 30
0.0
  0
VERTEX
  5
1044E
  8
0
 62
     1
 10
1.915551405730194
 20
-118.0097247767045
 30
0.0
  0
VERTEX
  5
1044F
  8
0
 62
     1
 10
1.883380004056747
 20
-118.1857790742192
 30
0.0
  0
VERTEX
  5
10450
  8
0
 62
     1
 10
1.853653322099361
 20
-118.3629319040345
 30
0.0
  0
SEQEND
  5
1046D
  8
0
 62
     1
  0
POLYLINE
  5
11B
  8
0
 62
     1
 66
     1
 10
0.0
 20
0.0
 30
0.0
 70
     1
  0
VERTEX
  5
10451
  8
0
 62
     1
 10
1.825149
 20
-118.540634
 30
0.0
  0
VERTEX
  5
10452
  8
0
 62
     1
 10
1.825149
 20
-118.540634
 30
0.0
  0
SEQEND
  5
1046E
  8
0
 62
     1
  0
ENDSEC
  0
EOF
