<?xml version="1.0" encoding="UTF-8" standalone="no"?>
<!DOCTYPE svg PUBLIC "-//W3C//DTD SVG 1.1//EN" "http://www.w3.org/Graphics/SVG/1.1/DTD/svg11.dtd">
<svg width="100%" height="100%" viewBox="0 0 832 567" version="1.1" xmlns="http://www.w3.org/2000/svg" xmlns:xlink="http://www.w3.org/1999/xlink" xml:space="preserve" xmlns:serif="http://www.serif.com/" style="fill-rule:evenodd;clip-rule:evenodd;stroke-linecap:round;stroke-linejoin:round;stroke-miterlimit:1.5;">
    <g transform="matrix(0.32,0,0,0.32,0,0)">
        <g id="board-outline" transform="matrix(1,0,0,1,-454.724,-354.331)">
            <path d="M1127.95,354.331C1147.51,354.331 1163.39,370.208 1163.39,389.764L1163.39,413.386L2344.49,413.386L2344.49,389.764C2344.49,370.208 2360.37,354.331 2379.92,354.331L3017.72,354.331C3037.27,354.331 3053.15,370.208 3053.15,389.764L3053.15,2090.55C3053.15,2110.11 3037.27,2125.98 3017.72,2125.98L2379.92,2125.98C2360.37,2125.98 2344.49,2110.11 2344.49,2090.55L2344.49,2066.93L1163.39,2066.93L1163.39,2090.55C1163.39,2110.11 1147.51,2125.98 1127.95,2125.98L490.157,2125.98C470.601,2125.98 454.724,2110.11 454.724,2090.55L454.724,389.764C454.724,370.208 470.601,354.331 490.157,354.331L1127.95,354.331Z" style="fill:none;stroke:rgb(204,0,0);stroke-width:4.17px;"/>
        </g>
    </g>
</svg>
