<?xml version="1.0" encoding="UTF-8" standalone="no"?>
<!DOCTYPE svg PUBLIC "-//W3C//DTD SVG 1.1//EN" "http://www.w3.org/Graphics/SVG/1.1/DTD/svg11.dtd">
<svg width="100%" height="100%" viewBox="0 0 832 567" version="1.1" xmlns="http://www.w3.org/2000/svg" xmlns:xlink="http://www.w3.org/1999/xlink" xml:space="preserve" xmlns:serif="http://www.serif.com/" style="fill-rule:evenodd;clip-rule:evenodd;stroke-linecap:round;stroke-linejoin:round;stroke-miterlimit:1.5;">
    <g transform="matrix(0.32,0,0,0.32,0,0)">
        <g id="silk-screen" transform="matrix(1,0,0,1,-454.724,-354.331)">
            <g id="center-circle" transform="matrix(2.04992,0,0,2.04992,-1861.38,-1394.07)">
                <circle cx="1763.64" cy="1285.04" r="374.511" style="fill:none;stroke:rgb(204,0,0);stroke-width:2.03px;"/>
            </g>
            <g id="R-B" transform="matrix(1,0,0,1,0,1318.55)">
                <path d="M2344.48,411.778L2344.48,748.374" style="fill:none;stroke:rgb(204,0,0);stroke-width:4.17px;"/>
            </g>
            <g id="R-T" transform="matrix(1,0,0,1,0,1.60734)">
                <path d="M2344.48,411.778L2344.48,748.374" style="fill:none;stroke:rgb(204,0,0);stroke-width:4.17px;"/>
            </g>
            <g id="L-B" transform="matrix(1,0,0,1,-1181.1,1318.55)">
                <path d="M2344.48,411.778L2344.48,748.374" style="fill:none;stroke:rgb(204,0,0);stroke-width:4.17px;"/>
            </g>
            <g id="L-T" transform="matrix(1,0,0,1,-1181.1,1.60734)">
                <path d="M2344.48,411.778L2344.48,748.374" style="fill:none;stroke:rgb(204,0,0);stroke-width:4.17px;"/>
            </g>
        </g>
    </g>
</svg>
