<?xml version="1.0" encoding="UTF-8" standalone="no"?>
<!DOCTYPE svg PUBLIC "-//W3C//DTD SVG 1.1//EN" "http://www.w3.org/Graphics/SVG/1.1/DTD/svg11.dtd">
<svg width="100%" height="100%" viewBox="0 0 832 567" version="1.1" xmlns="http://www.w3.org/2000/svg" xmlns:xlink="http://www.w3.org/1999/xlink" xml:space="preserve" xmlns:serif="http://www.serif.com/" style="fill-rule:evenodd;clip-rule:evenodd;stroke-linecap:round;stroke-linejoin:round;stroke-miterlimit:1.5;">
    <g transform="matrix(0.32,0,0,0.32,0,0)">
        <g id="mark">
            <g transform="matrix(1,0,0,1,0,57.6998)">
                <path d="M0,828.127L2598.43,828.127" style="fill:none;stroke:rgb(204,0,0);stroke-width:4.17px;"/>
            </g>
            <g transform="matrix(1,0,0,1,0,-432.458)">
                <path d="M0,828.127L2598.43,828.127" style="fill:none;stroke:rgb(204,0,0);stroke-width:4.17px;"/>
            </g>
            <g transform="matrix(1,0,0,1,0,547.857)">
                <path d="M0,828.127L2598.43,828.127" style="fill:none;stroke:rgb(204,0,0);stroke-width:4.17px;"/>
            </g>
            <g transform="matrix(1,0,0,1,63.8937,0)">
                <path d="M1235.32,0L1235.32,1771.65" style="fill:none;stroke:rgb(204,0,0);stroke-width:4.17px;"/>
            </g>
            <g transform="matrix(1.83785,0,0,2.86539,-1752.09,-1632.86)">
                <path d="M2174.38,569.856L2174.38,1188.15" style="fill:none;stroke:rgb(204,0,0);stroke-width:1.73px;"/>
            </g>
            <g transform="matrix(1.83785,0,0,2.86539,-3641.86,-1632.86)">
                <path d="M2174.38,569.856L2174.38,1188.15" style="fill:none;stroke:rgb(204,0,0);stroke-width:1.73px;"/>
            </g>
            <g transform="matrix(1.83785,0,0,2.86539,-2933.19,-1632.86)">
                <path d="M2174.38,569.856L2174.38,1188.15" style="fill:none;stroke:rgb(204,0,0);stroke-width:1.73px;"/>
            </g>
            <g transform="matrix(1.83785,0,0,2.86539,-2460.75,-1632.86)">
                <path d="M2174.38,569.856L2174.38,1188.15" style="fill:none;stroke:rgb(204,0,0);stroke-width:1.73px;"/>
            </g>
        </g>
    </g>
</svg>
