  0
SECTION
  2
HEADER
  9
$ACADVER
  1
AC1009
  9
$DWGCODEPAGE
  3
ansi_1252
  9
$INSBASE
 10
0.0
 20
0.0
 30
0.0
  9
$EXTMIN
 10
45.00027600000004
 20
-118.541207
 30
0.0
  9
$EXTMAX
 10
175.000454
 20
21.45839899999999
 30
0.0
  9
$LIMMIN
 10
0.0
 20
0.0
  9
$LIMMAX
 10
12.0
 20
9.0
  9
$ORTHOMODE
 70
     0
  9
$REGENMODE
 70
     1
  9
$FILLMODE
 70
     1
  9
$QTEXTMODE
 70
     0
  9
$MIRRTEXT
 70
     1
  9
$DRAGMODE
 70
     2
  9
$LTSCALE
 40
1.0
  9
$OSMODE
 70
   511
  9
$ATTMODE
 70
     1
  9
$TEXTSIZE
 40
2.5
  9
$TRACEWID
 40
0.05
  9
$TEXTSTYLE
  7
STANDARD
  9
$CLAYER
  8
0
  9
$CELTYPE
  6
BYBLOCK
  9
$CECOLOR
 62
   256
  9
$DIMSCALE
 40
1.0
  9
$DIMASZ
 40
0.18
  9
$DIMEXO
 40
0.0625
  9
$DIMDLI
 40
0.38
  9
$DIMRND
 40
0.0
  9
$DIMDLE
 40
0.0
  9
$DIMEXE
 40
0.18
  9
$DIMTP
 40
0.0
  9
$DIMTM
 40
0.0
  9
$DIMTXT
 40
0.18
  9
$DIMCEN
 40
0.09
  9
$DIMTSZ
 40
0.0
  9
$DIMTOL
 70
     0
  9
$DIMLIM
 70
     0
  9
$DIMTIH
 70
     1
  9
$DIMTOH
 70
     1
  9
$DIMSE1
 70
     0
  9
$DIMSE2
 70
     0
  9
$DIMTAD
 70
     0
  9
$DIMZIN
 70
     0
  9
$DIMBLK
  1

  9
$DIMASO
 70
     1
  9
$DIMSHO
 70
     1
  9
$DIMPOST
  1

  9
$DIMAPOST
  1

  9
$DIMALT
 70
     0
  9
$DIMALTD
 70
     2
  9
$DIMALTF
 40
25.4
  9
$DIMLFAC
 40
1.0
  9
$DIMTOFL
 70
     0
  9
$DIMTVP
 40
0.0
  9
$DIMTIX
 70
     0
  9
$DIMSOXD
 70
     0
  9
$DIMSAH
 70
     0
  9
$DIMBLK1
  1

  9
$DIMBLK2
  1

  9
$DIMSTYLE
  2
ISO-25
  9
$DIMCLRD
 70
     0
  9
$DIMCLRE
 70
     0
  9
$DIMCLRT
 70
     0
  9
$DIMTFAC
 40
1.0
  9
$DIMGAP
 40
0.09
  9
$LUNITS
 70
     2
  9
$LUPREC
 70
     4
  9
$SKETCHINC
 40
0.1
  9
$FILLETRAD
 40
0.5
  9
$AUNITS
 70
     0
  9
$AUPREC
 70
     0
  9
$MENU
  1
.
  9
$ELEVATION
 40
0.0
  9
$PELEVATION
 40
0.0
  9
$THICKNESS
 40
0.0
  9
$LIMCHECK
 70
     0
  9
$CHAMFERA
 40
0.0
  9
$CHAMFERB
 40
0.0
  9
$SKPOLY
 70
     0
  9
$TDCREATE
 40
0.0
  9
$TDUPDATE
 40
2458541.06634066
  9
$TDINDWG
 40
0.0000000463
  9
$TDUSRTIMER
 40
0.0001227199
  9
$USRTIMER
 70
     1
  9
$ANGBASE
 50
0.0
  9
$ANGDIR
 70
     0
  9
$PDMODE
 70
     0
  9
$PDSIZE
 40
0.0
  9
$PLINEWID
 40
0.0
  9
$COORDS
 70
     1
  9
$SPLFRAME
 70
     0
  9
$SPLINETYPE
 70
     6
  9
$SPLINESEGS
 70
     8
  9
$ATTDIA
 70
     0
  9
$ATTREQ
 70
     1
  9
$HANDLING
 70
     1
  9
$HANDSEED
  5
100FA
  9
$SURFTAB1
 70
     6
  9
$SURFTAB2
 70
     6
  9
$SURFTYPE
 70
     6
  9
$SURFU
 70
     6
  9
$SURFV
 70
     6
  9
$UCSNAME
  2

  9
$UCSORG
 10
0.0
 20
0.0
 30
0.0
  9
$UCSXDIR
 10
1.0
 20
0.0
 30
0.0
  9
$UCSYDIR
 10
0.0
 20
1.0
 30
0.0
  9
$PUCSNAME
  2

  9
$PUCSORG
 10
0.0
 20
0.0
 30
0.0
  9
$PUCSXDIR
 10
1.0
 20
0.0
 30
0.0
  9
$PUCSYDIR
 10
0.0
 20
1.0
 30
0.0
  9
$USERI1
 70
     0
  9
$USERI2
 70
     0
  9
$USERI3
 70
     0
  9
$USERI4
 70
     0
  9
$USERI5
 70
     0
  9
$USERR1
 40
0.0
  9
$USERR2
 40
0.0
  9
$USERR3
 40
0.0
  9
$USERR4
 40
0.0
  9
$USERR5
 40
0.0
  9
$WORLDVIEW
 70
     1
  9
$SHADEDGE
 70
     3
  9
$SHADEDIF
 70
    70
  9
$TILEMODE
 70
     1
  9
$MAXACTVP
 70
    64
  9
$PLIMCHECK
 70
     0
  9
$PEXTMIN
 10
1.000000000000000E+20
 20
1.000000000000000E+20
 30
1.000000000000000E+20
  9
$PEXTMAX
 10
-1.000000000000000E+20
 20
-1.000000000000000E+20
 30
-1.000000000000000E+20
  9
$PLIMMIN
 10
0.0
 20
0.0
  9
$PLIMMAX
 10
0.0
 20
0.0
  9
$UNITMODE
 70
     0
  9
$VISRETAIN
 70
     1
  9
$PLINEGEN
 70
     0
  9
$PSLTSCALE
 70
     1
  0
ENDSEC
  0
SECTION
  2
TABLES
  0
TABLE
  2
VPORT
 70
     1
  0
VPORT
  2
*ACTIVE
 70
     0
 10
0.0
 20
0.0
 11
1.0
 21
1.0
 12
210.0
 22
148.5
 13
0.0
 23
0.0
 14
10.0
 24
10.0
 15
10.0
 25
10.0
 16
0.0
 26
0.0
 36
1.0
 17
0.0
 27
0.0
 37
0.0
 40
341.0
 41
1.24
 42
50.0
 43
0.0
 44
0.0
 50
0.0
 51
0.0
 71
     0
 72
   100
 73
     1
 74
     3
 75
     0
 76
     0
 77
     0
 78
     0
  0
ENDTAB
  0
TABLE
  2
LTYPE
 70
     1
  0
LTYPE
  2
CONTINUOUS
 70
     0
  3
Solid line
 72
    65
 73
     0
 40
0.0
  0
ENDTAB
  0
TABLE
  2
LAYER
 70
     1
  0
LAYER
  2
0
 70
     0
 62
     7
  6
CONTINUOUS
  0
ENDTAB
  0
TABLE
  2
STYLE
 70
     1
  0
STYLE
  2
STANDARD
 70
     0
 40
0.0
 41
1.0
 50
0.0
 71
     0
 42
2.5
  3
txt
  4

  0
ENDTAB
  0
TABLE
  2
VIEW
 70
     0
  0
ENDTAB
  0
TABLE
  2
UCS
 70
     0
  0
ENDTAB
  0
TABLE
  2
APPID
 70
     1
  0
APPID
  2
ACAD
 70
     0
  0
ENDTAB
  0
TABLE
  2
DIMSTYLE
 70
     1
  0
DIMSTYLE
  2
ISO-25
 70
     0
  3

  4

  5

  6

  7

 40
1.0
 41
2.5
 42
0.625
 43
3.75
 44
1.25
 45
0.0
 46
0.0
 47
0.0
 48
0.0
140
2.5
141
2.5
142
0.0
143
0.03937007874016
144
1.0
145
0.0
146
1.0
147
0.625
 71
     0
 72
     0
 73
     0
 74
     0
 75
     0
 76
     0
 77
     1
 78
     8
170
     0
171
     3
172
     1
173
     0
174
     0
175
     0
176
     0
177
     0
178
     0
  0
ENDTAB
  0
ENDSEC
  0
SECTION
  2
BLOCKS
  0
BLOCK
  8
0
  2
$MODEL_SPACE
 70
     0
 10
0.0
 20
0.0
 30
0.0
  3
$MODEL_SPACE
  1

  0
ENDBLK
  5
21
  8
0
  0
BLOCK
 67
     1
  8
0
  2
$PAPER_SPACE
 70
     0
 10
0.0
 20
0.0
 30
0.0
  3
$PAPER_SPACE
  1

  0
ENDBLK
  5
1D
 67
     1
  8
0
  0
ENDSEC
  0
SECTION
  2
ENTITIES
  0
POLYLINE
  5
100
  8
0
 62
     1
 66
     1
 10
0.0
 20
0.0
 30
0.0
 70
     1
  0
VERTEX
  5
1004A
  8
0
 62
     1
 10
175.000454
 20
-48.541787
 30
0.0
  0
VERTEX
  5
1004B
  8
0
 62
     1
 10
175.000454
 20
-48.541787
 30
0.0
  0
SEQEND
  5
100F4
  8
0
 62
     1
  0
POLYLINE
  5
101
  8
0
 62
     1
 66
     1
 10
0.0
 20
0.0
 30
0.0
  0
VERTEX
  5
1004C
  8
0
 62
     1
 10
159.999341
 20
-90.042746
 30
0.0
  0
VERTEX
  5
1004D
  8
0
 62
     1
 10
159.999341
 20
-118.541207
 30
0.0
  0
SEQEND
  5
100F5
  8
0
 62
     1
  0
POLYLINE
  5
102
  8
0
 62
     1
 66
     1
 10
0.0
 20
0.0
 30
0.0
  0
VERTEX
  5
1004E
  8
0
 62
     1
 10
159.999341
 20
21.458399
 30
0.0
  0
VERTEX
  5
1004F
  8
0
 62
     1
 10
159.999341
 20
-7.040062
 30
0.0
  0
SEQEND
  5
100F6
  8
0
 62
     1
  0
POLYLINE
  5
103
  8
0
 62
     1
 66
     1
 10
0.0
 20
0.0
 30
0.0
  0
VERTEX
  5
10050
  8
0
 62
     1
 10
59.999541
 20
-90.042746
 30
0.0
  0
VERTEX
  5
10051
  8
0
 62
     1
 10
59.999541
 20
-118.541207
 30
0.0
  0
SEQEND
  5
100F7
  8
0
 62
     1
  0
POLYLINE
  5
104
  8
0
 62
     1
 66
     1
 10
0.0
 20
0.0
 30
0.0
 70
     1
  0
VERTEX
  5
10052
  8
0
 62
     1
 10
175.000454
 20
-48.541787
 30
0.0
  0
VERTEX
  5
10053
  8
0
 62
     1
 10
174.7373121391054
 20
-51.09371932969198
 30
0.0
  0
VERTEX
  5
10054
  8
0
 62
     1
 10
174.4604692694194
 20
-53.64174865786504
 30
0.0
  0
VERTEX
  5
10055
  8
0
 62
     1
 10
174.1562243821506
 20
-56.18197198300024
 30
0.0
  0
VERTEX
  5
10056
  8
0
 62
     1
 10
173.8108764685076
 20
-58.71048630357866
 30
0.0
  0
VERTEX
  5
10057
  8
0
 62
     1
 10
173.4107245196989
 20
-61.22338861808138
 30
0.0
  0
VERTEX
  5
10058
  8
0
 62
     1
 10
172.9420675269332
 20
-63.71677592498946
 30
0.0
  0
VERTEX
  5
10059
  8
0
 62
     1
 10
172.3912044814189
 20
-66.18674522278397
 30
0.0
  0
VERTEX
  5
1005A
  8
0
 62
     1
 10
171.7444343743648
 20
-68.62939350994603
 30
0.0
  0
VERTEX
  5
1005B
  8
0
 62
     1
 10
170.9880572469875
 20
-71.0408178112492
 30
0.0
  0
VERTEX
  5
1005C
  8
0
 62
     1
 10
170.1123535739468
 20
-73.41721482288582
 30
0.0
  0
VERTEX
  5
1005D
  8
0
 62
     1
 10
169.1205803595469
 20
-75.75510617780131
 30
0.0
  0
VERTEX
  5
1005E
  8
0
 62
     1
 10
168.0186346153461
 20
-78.05107961562818
 30
0.0
  0
VERTEX
  5
1005F
  8
0
 62
     1
 10
166.8124133529024
 20
-80.30172287599896
 30
0.0
  0
VERTEX
  5
10060
  8
0
 62
     1
 10
165.5078135837737
 20
-82.50362369854618
 30
0.0
  0
VERTEX
  5
10061
  8
0
 62
     1
 10
164.1107323195182
 20
-84.65336982290239
 30
0.0
  0
VERTEX
  5
10062
  8
0
 62
     1
 10
162.6270665716939
 20
-86.74754898870009
 30
0.0
  0
VERTEX
  5
10063
  8
0
 62
     1
 10
161.0627133518589
 20
-88.78274893557185
 30
0.0
  0
VERTEX
  5
10064
  8
0
 62
     1
 10
159.4235576106226
 20
-90.75556006251081
 30
0.0
  0
VERTEX
  5
10065
  8
0
 62
     1
 10
157.7142186016966
 20
-92.66285184643795
 30
0.0
  0
VERTEX
  5
10066
  8
0
 62
     1
 10
155.9369552475052
 20
-94.50201420195975
 30
0.0
  0
VERTEX
  5
10067
  8
0
 62
     1
 10
154.0937684571328
 20
-96.27049393394492
 30
0.0
  0
VERTEX
  5
10068
  8
0
 62
     1
 10
152.1866591396638
 20
-97.96573784726206
 30
0.0
  0
VERTEX
  5
10069
  8
0
 62
     1
 10
150.2176282041828
 20
-99.58519274677981
 30
0.0
  0
VERTEX
  5
1006A
  8
0
 62
     1
 10
148.1886765597742
 20
-101.1263054373667
 30
0.0
  0
VERTEX
  5
1006B
  8
0
 62
     1
 10
146.1018051155224
 20
-102.5865227238916
 30
0.0
  0
VERTEX
  5
1006C
  8
0
 62
     1
 10
143.959014780512
 20
-103.9632914112229
 30
0.0
  0
VERTEX
  5
1006D
  8
0
 62
     1
 10
141.7623188311766
 20
-105.254065732557
 30
0.0
  0
VERTEX
  5
1006E
  8
0
 62
     1
 10
139.514472584768
 20
-106.4567456206711
 30
0.0
  0
VERTEX
  5
1006F
  8
0
 62
     1
 10
137.2193815217266
 20
-107.569921842645
 30
0.0
  0
VERTEX
  5
10070
  8
0
 62
     1
 10
134.8810500612526
 20
-108.5922445921597
 30
0.0
  0
VERTEX
  5
10071
  8
0
 62
     1
 10
132.5034826225462
 20
-109.5223640628963
 30
0.0
  0
VERTEX
  5
10072
  8
0
 62
     1
 10
130.0906836248077
 20
-110.3589304485358
 30
0.0
  0
VERTEX
  5
10073
  8
0
 62
     1
 10
127.6466574872373
 20
-111.1005939427592
 30
0.0
  0
VERTEX
  5
10074
  8
0
 62
     1
 10
125.1754086290351
 20
-111.7460047392474
 30
0.0
  0
VERTEX
  5
10075
  8
0
 62
     1
 10
122.6809414694015
 20
-112.2938130316817
 30
0.0
  0
VERTEX
  5
10076
  8
0
 62
     1
 10
120.1672589154172
 20
-112.7426836109037
 30
0.0
  0
VERTEX
  5
10077
  8
0
 62
     1
 10
117.6383057233765
 20
-113.0918426231266
 30
0.0
  0
VERTEX
  5
10078
  8
0
 62
     1
 10
115.0979514737381
 20
-113.3412419202995
 30
0.0
  0
VERTEX
  5
10079
  8
0
 62
     1
 10
112.5500607592907
 20
-113.4908815025636
 30
0.0
  0
VERTEX
  5
1007A
  8
0
 62
     1
 10
109.9984981728233
 20
-113.54076137006
 30
0.0
  0
VERTEX
  5
1007B
  8
0
 62
     1
 10
107.4471283071246
 20
-113.4908815229297
 30
0.0
  0
VERTEX
  5
1007C
  8
0
 62
     1
 10
104.8998157549834
 20
-113.3412419613137
 30
0.0
  0
VERTEX
  5
1007D
  8
0
 62
     1
 10
102.3604251091886
 20
-113.0918426853533
 30
0.0
  0
VERTEX
  5
1007E
  8
0
 62
     1
 10
99.83282096252897
 20
-112.7426836951894
 30
0.0
  0
VERTEX
  5
1007F
  8
0
 62
     1
 10
97.32086372532615
 20
-112.2938131390738
 30
0.0
  0
VERTEX
  5
10080
  8
0
 62
     1
 10
94.82835076829667
 20
-111.7460048703833
 30
0.0
  0
VERTEX
  5
10081
  8
0
 62
     1
 10
92.35903069908548
 20
-111.1005940977077
 30
0.0
  0
VERTEX
  5
10082
  8
0
 62
     1
 10
89.91665085732922
 20
-110.3589306268118
 30
0.0
  0
VERTEX
  5
10083
  8
0
 62
     1
 10
87.50495858266453
 20
-109.5223642634602
 30
0.0
  0
VERTEX
  5
10084
  8
0
 62
     1
 10
85.12770121472806
 20
-108.5922448134178
 30
0.0
  0
VERTEX
  5
10085
  8
0
 62
     1
 10
82.78862609315645
 20
-107.5699220824492
 30
0.0
  0
VERTEX
  5
10086
  8
0
 62
     1
 10
80.49148055758634
 20
-106.4567458763192
 30
0.0
  0
VERTEX
  5
10087
  8
0
 62
     1
 10
78.24001194765438
 20
-105.2540660007925
 30
0.0
  0
VERTEX
  5
10088
  8
0
 62
     1
 10
76.03793204920068
 20
-103.9632916883011
 30
0.0
  0
VERTEX
  5
10089
  8
0
 62
     1
 10
73.88853933482294
 20
-102.5865230068818
 30
0.0
  0
VERTEX
  5
1008A
  8
0
 62
     1
 10
71.79486562324426
 20
-101.1263057252456
 30
0.0
  0
VERTEX
  5
1008B
  8
0
 62
     1
 10
69.75993828894887
 20
-99.58519304046058
 30
0.0
  0
VERTEX
  5
1008C
  8
0
 62
     1
 10
67.786784706421
 20
-97.96573814959508
 30
0.0
  0
VERTEX
  5
1008D
  8
0
 62
     1
 10
65.87843225014484
 20
-96.27049424971733
 30
0.0
  0
VERTEX
  5
1008E
  8
0
 62
     1
 10
64.03790829460463
 20
-94.50201453789558
 30
0.0
  0
VERTEX
  5
1008F
  8
0
 62
     1
 10
62.2682402142846
 20
-92.66285221119807
 30
0.0
  0
VERTEX
  5
10090
  8
0
 62
     1
 10
60.57245538366892
 20
-90.75556046669307
 30
0.0
  0
VERTEX
  5
10091
  8
0
 62
     1
 10
58.95351125721103
 20
-88.7827493913221
 30
0.0
  0
VERTEX
  5
10092
  8
0
 62
     1
 10
57.4137256536181
 20
-86.74754950653087
 30
0.0
  0
VERTEX
  5
10093
  8
0
 62
     1
 10
55.95507339506357
 20
-84.65337041014888
 30
0.0
  0
VERTEX
  5
10094
  8
0
 62
     1
 10
54.57952603526708
 20
-82.50362435935683
 30
0.0
  0
VERTEX
  5
10095
  8
0
 62
     1
 10
53.2890551279483
 20
-80.30172361133543
 30
0.0
  0
VERTEX
  5
10096
  8
0
 62
     1
 10
52.0856322268269
 20
-78.05108042326536
 30
0.0
  0
VERTEX
  5
10097
  8
0
 62
     1
 10
50.97122888562255
 20
-75.7551070523274
 30
0.0
  0
VERTEX
  5
10098
  8
0
 62
     1
 10
49.9478166580549
 20
-73.41721575570217
 30
0.0
  0
VERTEX
  5
10099
  8
0
 62
     1
 10
49.01736709784362
 20
-71.04081879057041
 30
0.0
  0
VERTEX
  5
1009A
  8
0
 62
     1
 10
48.18167970075758
 20
-68.62939452132163
 30
0.0
  0
VERTEX
  5
1009B
  8
0
 62
     1
 10
47.44170823842521
 20
-66.18674625206526
 30
0.0
  0
VERTEX
  5
1009C
  8
0
 62
     1
 10
46.79814706390713
 20
-63.71677695936038
 30
0.0
  0
VERTEX
  5
1009D
  8
0
 62
     1
 10
46.25169046183014
 20
-61.22338964605931
 30
0.0
  0
VERTEX
  5
1009E
  8
0
 62
     1
 10
45.80303271682105
 20
-58.71048731501437
 30
0.0
  0
VERTEX
  5
1009F
  8
0
 62
     1
 10
45.45286811350669
 20
-56.18197296907791
 30
0.0
  0
VERTEX
  5
100A0
  8
0
 62
     1
 10
45.20189093651385
 20
-53.64174961110226
 30
0.0
  0
VERTEX
  5
100A1
  8
0
 62
     1
 10
45.05079547046936
 20
-51.09372024393974
 30
0.0
  0
VERTEX
  5
100A2
  8
0
 62
     1
 10
45.00027600000001
 20
-48.54178787044268
 30
0.0
  0
VERTEX
  5
100A3
  8
0
 62
     1
 10
45.05079538200962
 20
-45.98985549370428
 30
0.0
  0
VERTEX
  5
100A4
  8
0
 62
     1
 10
45.20189076156306
 20
-43.44182611778118
 30
0.0
  0
VERTEX
  5
100A5
  8
0
 62
     1
 10
45.45286785552864
 20
-40.90160274697089
 30
0.0
  0
VERTEX
  5
100A6
  8
0
 62
     1
 10
45.80303238077469
 20
-38.3730883855709
 30
0.0
  0
VERTEX
  5
100A7
  8
0
 62
     1
 10
46.25169005416955
 20
-35.86018603787875
 30
0.0
  0
VERTEX
  5
100A8
  8
0
 62
     1
 10
46.79814659258157
 20
-33.3667987081919
 30
0.0
  0
VERTEX
  5
100A9
  8
0
 62
     1
 10
47.44170771287907
 20
-30.8968294008079
 30
0.0
  0
VERTEX
  5
100AA
  8
0
 62
     1
 10
48.18167913193041
 20
-28.45418112002423
 30
0.0
  0
VERTEX
  5
100AB
  8
0
 62
     1
 10
49.0173664981719
 20
-26.04275684384573
 30
0.0
  0
VERTEX
  5
100AC
  8
0
 62
     1
 10
49.94781604110542
 20
-23.66635987741806
 30
0.0
  0
VERTEX
  5
100AD
  8
0
 62
     1
 10
50.97122826318905
 20
-21.32846858417529
 30
0.0
  0
VERTEX
  5
100AE
  8
0
 62
     1
 10
52.08563160798464
 20
-19.03249521980121
 30
0.0
  0
VERTEX
  5
100AF
  8
0
 62
     1
 10
53.28905451905398
 20
-16.78185203997961
 30
0.0
  0
VERTEX
  5
100B0
  8
0
 62
     1
 10
54.57952543995889
 20
-14.57995130039427
 30
0.0
  0
VERTEX
  5
100B1
  8
0
 62
     1
 10
55.95507281426115
 20
-12.43020525672895
 30
0.0
  0
VERTEX
  5
100B2
  8
0
 62
     1
 10
57.41372508552259
 20
-10.33602616466745
 30
0.0
  0
VERTEX
  5
100B3
  8
0
 62
     1
 10
58.953510697305
 20
-8.300826279893544
 30
0.0
  0
VERTEX
  5
100B4
  8
0
 62
     1
 10
60.57245482474188
 20
-6.328015198757214
 30
0.0
  0
VERTEX
  5
100B5
  8
0
 62
     1
 10
62.26823964801219
 20
-4.420723442167835
 30
0.0
  0
VERTEX
  5
100B6
  8
0
 62
     1
 10
64.03790771389814
 20
-2.581561097804872
 30
0.0
  0
VERTEX
  5
100B7
  8
0
 62
     1
 10
65.87843164932734
 20
-0.8130813635481755
 30
0.0
  0
VERTEX
  5
100B8
  8
0
 62
     1
 10
67.78678408122742
 20
0.8821625627223945
 30
0.0
  0
VERTEX
  5
100B9
  8
0
 62
     1
 10
69.75993763652599
 20
2.501617483126986
 30
0.0
  0
VERTEX
  5
100BA
  8
0
 62
     1
 10
71.79486494215067
 20
4.042730199785741
 30
0.0
  0
VERTEX
  5
100BB
  8
0
 62
     1
 10
73.88853862502906
 20
5.502947514818805
 30
0.0
  0
VERTEX
  5
100BC
  8
0
 62
     1
 10
76.03793131208883
 20
6.879716230346324
 30
0.0
  0
VERTEX
  5
100BD
  8
0
 62
     1
 10
78.24001118602109
 20
8.170490576829238
 30
0.0
  0
VERTEX
  5
100BE
  8
0
 62
     1
 10
80.49147977513356
 20
9.373170485505208
 30
0.0
  0
VERTEX
  5
100BF
  8
0
 62
     1
 10
82.7886252933264
 20
10.48634672400496
 30
0.0
  0
VERTEX
  5
100C0
  8
0
 62
     1
 10
85.12770040055898
 20
11.5086694867678
 30
0.0
  0
VERTEX
  5
100C1
  8
0
 62
     1
 10
87.50495775679066
 20
12.43878896823307
 30
0.0
  0
VERTEX
  5
100C2
  8
0
 62
     1
 10
89.91665002198084
 20
13.27535536284007
 30
0.0
  0
VERTEX
  5
100C3
  8
0
 62
     1
 10
92.35902985608892
 20
14.01701886502814
 30
0.0
  0
VERTEX
  5
100C4
  8
0
 62
     1
 10
94.8283499190743
 20
14.66242966923658
 30
0.0
  0
VERTEX
  5
100C5
  8
0
 62
     1
 10
97.3208628708963
 20
15.21023796990474
 30
0.0
  0
VERTEX
  5
100C6
  8
0
 62
     1
 10
99.83282010351589
 20
15.65910855860749
 30
0.0
  0
VERTEX
  5
100C7
  8
0
 62
     1
 10
102.3604242461021
 20
16.0082675817428
 30
0.0
  0
VERTEX
  5
100C8
  8
0
 62
     1
 10
104.8998148885245
 20
16.25766689098078
 30
0.0
  0
VERTEX
  5
100C9
  8
0
 62
     1
 10
107.4471274381997
 20
16.40730648617713
 30
0.0
  0
VERTEX
  5
100CA
  8
0
 62
     1
 10
109.9984973025443
 20
16.45718636718758
 30
0.0
  0
VERTEX
  5
100CB
  8
0
 62
     1
 10
112.5500598889753
 20
16.40730653386784
 30
0.0
  0
VERTEX
  5
100CC
  8
0
 62
     1
 10
115.0979506049092
 20
16.25766698607361
 30
0.0
  0
VERTEX
  5
100CD
  8
0
 62
     1
 10
117.6383048577629
 20
16.00826772366061
 30
0.0
  0
VERTEX
  5
100CE
  8
0
 62
     1
 10
120.167258054953
 20
15.65910874648456
 30
0.0
  0
VERTEX
  5
100CF
  8
0
 62
     1
 10
122.6809406162134
 20
15.21023820250398
 30
0.0
  0
VERTEX
  5
100D0
  8
0
 62
     1
 10
125.1754077851412
 20
14.66242994505387
 30
0.0
  0
VERTEX
  5
100D1
  8
0
 62
     1
 10
127.6466566542626
 20
14.0170191830658
 30
0.0
  0
VERTEX
  5
100D2
  8
0
 62
     1
 10
130.0906828039738
 20
13.27535572266732
 30
0.0
  0
VERTEX
  5
100D3
  8
0
 62
     1
 10
132.5034818146709
 20
12.43878936998595
 30
0.0
  0
VERTEX
  5
100D4
  8
0
 62
     1
 10
134.8810492667504
 20
11.50866993114922
 30
0.0
  0
VERTEX
  5
100D5
  8
0
 62
     1
 10
137.2193807406081
 20
10.48634721228467
 30
0.0
  0
VERTEX
  5
100D6
  8
0
 62
     1
 10
139.5144718166406
 20
9.373171019519832
 30
0.0
  0
VERTEX
  5
100D7
  8
0
 62
     1
 10
141.7623180752439
 20
8.170491158982234
 30
0.0
  0
VERTEX
  5
100D8
  8
0
 62
     1
 10
143.9590140355118
 20
6.879716863356725
 30
0.0
  0
VERTEX
  5
100D9
  8
0
 62
     1
 10
146.1018043804263
 20
5.502948199976276
 30
0.0
  0
VERTEX
  5
100DA
  8
0
 62
     1
 10
148.1886758349149
 20
4.042730936383363
 30
0.0
  0
VERTEX
  5
100DB
  8
0
 62
     1
 10
150.2176274913033
 20
2.501618268476911
 30
0.0
  0
VERTEX
  5
100DC
  8
0
 62
     1
 10
152.1866584419172
 20
0.8821633921558367
 30
0.0
  0
VERTEX
  5
100DD
  8
0
 62
     1
 10
154.0937677790825
 20
-0.8130804966809384
 30
0.0
  0
VERTEX
  5
100DE
  8
0
 62
     1
 10
155.9369545951247
 20
-2.581560202134494
 30
0.0
  0
VERTEX
  5
100DF
  8
0
 62
     1
 10
157.7142179823699
 20
-4.420722528305911
 30
0.0
  0
VERTEX
  5
100E0
  8
0
 62
     1
 10
159.4235570331435
 20
-6.32801427929627
 30
0.0
  0
VERTEX
  5
100E1
  8
0
 62
     1
 10
161.0627128265041
 20
-8.300825369162693
 30
0.0
  0
VERTEX
  5
100E2
  8
0
 62
     1
 10
162.6270661081624
 20
-10.33602527567168
 30
0.0
  0
VERTEX
  5
100E3
  8
0
 62
     1
 10
164.1107319246485
 20
-12.43020439915023
 30
0.0
  0
VERTEX
  5
100E4
  8
0
 62
     1
 10
165.5078132614836
 20
-14.57995048056091
 30
0.0
  0
VERTEX
  5
100E5
  8
0
 62
     1
 10
166.8124131041889
 20
-16.78185126086628
 30
0.0
  0
VERTEX
  5
100E6
  8
0
 62
     1
 10
168.018634438286
 20
-19.0324944810289
 30
0.0
  0
VERTEX
  5
100E7
  8
0
 62
     1
 10
169.1205802492958
 20
-21.32846788201132
 30
0.0
  0
VERTEX
  5
100E8
  8
0
 62
     1
 10
170.1123535227399
 20
-23.66635920477612
 30
0.0
  0
VERTEX
  5
100E9
  8
0
 62
     1
 10
170.9880572441393
 20
-26.04275619028586
 30
0.0
  0
VERTEX
  5
100EA
  8
0
 62
     1
 10
171.7444344068708
 20
-28.4541804725245
 30
0.0
  0
VERTEX
  5
100EB
  8
0
 62
     1
 10
172.3912045369131
 20
-30.89682874729035
 30
0.0
  0
VERTEX
  5
100EC
  8
0
 62
     1
 10
172.9420675945949
 20
-33.36679803852359
 30
0.0
  0
VERTEX
  5
100ED
  8
0
 62
     1
 10
173.4107245902534
 20
-35.86018534387175
 30
0.0
  0
VERTEX
  5
100EE
  8
0
 62
     1
 10
173.810876534226
 20
-38.37308766098233
 30
0.0
  0
VERTEX
  5
100EF
  8
0
 62
     1
 10
174.1562244368496
 20
-40.90160198750284
 30
0.0
  0
VERTEX
  5
100F0
  8
0
 62
     1
 10
174.4604693084618
 20
-43.44182532108083
 30
0.0
  0
VERTEX
  5
100F1
  8
0
 62
     1
 10
174.7373121593994
 20
-45.98985465936377
 30
0.0
  0
SEQEND
  5
100F8
  8
0
 62
     1
  0
POLYLINE
  5
105
  8
0
 62
     1
 66
     1
 10
0.0
 20
0.0
 30
0.0
  0
VERTEX
  5
100F2
  8
0
 62
     1
 10
59.999541
 20
21.458399
 30
0.0
  0
VERTEX
  5
100F3
  8
0
 62
     1
 10
59.999541
 20
-7.040062
 30
0.0
  0
SEQEND
  5
100F9
  8
0
 62
     1
  0
ENDSEC
  0
EOF
