  0
SECTION
  2
HEADER
  9
$ACADVER
  1
AC1009
  9
$DWGCODEPAGE
  3
ansi_1252
  9
$INSBASE
 10
0.0
 20
0.0
 30
0.0
  9
$EXTMIN
 10
0.0
 20
-123.541282
 30
0.0
  9
$EXTMAX
 10
220.000068
 20
26.45833299999998
 30
0.0
  9
$LIMMIN
 10
0.0
 20
0.0
  9
$LIMMAX
 10
12.0
 20
9.0
  9
$ORTHOMODE
 70
     0
  9
$REGENMODE
 70
     1
  9
$FILLMODE
 70
     1
  9
$QTEXTMODE
 70
     0
  9
$MIRRTEXT
 70
     1
  9
$DRAGMODE
 70
     2
  9
$LTSCALE
 40
1.0
  9
$OSMODE
 70
   511
  9
$ATTMODE
 70
     1
  9
$TEXTSIZE
 40
2.5
  9
$TRACEWID
 40
0.05
  9
$TEXTSTYLE
  7
STANDARD
  9
$CLAYER
  8
0
  9
$CELTYPE
  6
BYBLOCK
  9
$CECOLOR
 62
   256
  9
$DIMSCALE
 40
1.0
  9
$DIMASZ
 40
0.18
  9
$DIMEXO
 40
0.0625
  9
$DIMDLI
 40
0.38
  9
$DIMRND
 40
0.0
  9
$DIMDLE
 40
0.0
  9
$DIMEXE
 40
0.18
  9
$DIMTP
 40
0.0
  9
$DIMTM
 40
0.0
  9
$DIMTXT
 40
0.18
  9
$DIMCEN
 40
0.09
  9
$DIMTSZ
 40
0.0
  9
$DIMTOL
 70
     0
  9
$DIMLIM
 70
     0
  9
$DIMTIH
 70
     1
  9
$DIMTOH
 70
     1
  9
$DIMSE1
 70
     0
  9
$DIMSE2
 70
     0
  9
$DIMTAD
 70
     0
  9
$DIMZIN
 70
     0
  9
$DIMBLK
  1

  9
$DIMASO
 70
     1
  9
$DIMSHO
 70
     1
  9
$DIMPOST
  1

  9
$DIMAPOST
  1

  9
$DIMALT
 70
     0
  9
$DIMALTD
 70
     2
  9
$DIMALTF
 40
25.4
  9
$DIMLFAC
 40
1.0
  9
$DIMTOFL
 70
     0
  9
$DIMTVP
 40
0.0
  9
$DIMTIX
 70
     0
  9
$DIMSOXD
 70
     0
  9
$DIMSAH
 70
     0
  9
$DIMBLK1
  1

  9
$DIMBLK2
  1

  9
$DIMSTYLE
  2
ISO-25
  9
$DIMCLRD
 70
     0
  9
$DIMCLRE
 70
     0
  9
$DIMCLRT
 70
     0
  9
$DIMTFAC
 40
1.0
  9
$DIMGAP
 40
0.09
  9
$LUNITS
 70
     2
  9
$LUPREC
 70
     4
  9
$SKETCHINC
 40
0.1
  9
$FILLETRAD
 40
0.5
  9
$AUNITS
 70
     0
  9
$AUPREC
 70
     0
  9
$MENU
  1
.
  9
$ELEVATION
 40
0.0
  9
$PELEVATION
 40
0.0
  9
$THICKNESS
 40
0.0
  9
$LIMCHECK
 70
     0
  9
$CHAMFERA
 40
0.0
  9
$CHAMFERB
 40
0.0
  9
$SKPOLY
 70
     0
  9
$TDCREATE
 40
0.0
  9
$TDUPDATE
 40
2458541.057659201
  9
$TDINDWG
 40
0.0000001042
  9
$TDUSRTIMER
 40
0.0001128472
  9
$USRTIMER
 70
     1
  9
$ANGBASE
 50
0.0
  9
$ANGDIR
 70
     0
  9
$PDMODE
 70
     0
  9
$PDSIZE
 40
0.0
  9
$PLINEWID
 40
0.0
  9
$COORDS
 70
     1
  9
$SPLFRAME
 70
     0
  9
$SPLINETYPE
 70
     6
  9
$SPLINESEGS
 70
     8
  9
$ATTDIA
 70
     0
  9
$ATTREQ
 70
     1
  9
$HANDLING
 70
     1
  9
$HANDSEED
  5
101B7
  9
$SURFTAB1
 70
     6
  9
$SURFTAB2
 70
     6
  9
$SURFTYPE
 70
     6
  9
$SURFU
 70
     6
  9
$SURFV
 70
     6
  9
$UCSNAME
  2

  9
$UCSORG
 10
0.0
 20
0.0
 30
0.0
  9
$UCSXDIR
 10
1.0
 20
0.0
 30
0.0
  9
$UCSYDIR
 10
0.0
 20
1.0
 30
0.0
  9
$PUCSNAME
  2

  9
$PUCSORG
 10
0.0
 20
0.0
 30
0.0
  9
$PUCSXDIR
 10
1.0
 20
0.0
 30
0.0
  9
$PUCSYDIR
 10
0.0
 20
1.0
 30
0.0
  9
$USERI1
 70
     0
  9
$USERI2
 70
     0
  9
$USERI3
 70
     0
  9
$USERI4
 70
     0
  9
$USERI5
 70
     0
  9
$USERR1
 40
0.0
  9
$USERR2
 40
0.0
  9
$USERR3
 40
0.0
  9
$USERR4
 40
0.0
  9
$USERR5
 40
0.0
  9
$WORLDVIEW
 70
     1
  9
$SHADEDGE
 70
     3
  9
$SHADEDIF
 70
    70
  9
$TILEMODE
 70
     1
  9
$MAXACTVP
 70
    64
  9
$PLIMCHECK
 70
     0
  9
$PEXTMIN
 10
1.000000000000000E+20
 20
1.000000000000000E+20
 30
1.000000000000000E+20
  9
$PEXTMAX
 10
-1.000000000000000E+20
 20
-1.000000000000000E+20
 30
-1.000000000000000E+20
  9
$PLIMMIN
 10
0.0
 20
0.0
  9
$PLIMMAX
 10
0.0
 20
0.0
  9
$UNITMODE
 70
     0
  9
$VISRETAIN
 70
     1
  9
$PLINEGEN
 70
     0
  9
$PSLTSCALE
 70
     1
  0
ENDSEC
  0
SECTION
  2
TABLES
  0
TABLE
  2
VPORT
 70
     1
  0
VPORT
  2
*ACTIVE
 70
     0
 10
0.0
 20
0.0
 11
1.0
 21
1.0
 12
210.0
 22
148.5
 13
0.0
 23
0.0
 14
10.0
 24
10.0
 15
10.0
 25
10.0
 16
0.0
 26
0.0
 36
1.0
 17
0.0
 27
0.0
 37
0.0
 40
341.0
 41
1.24
 42
50.0
 43
0.0
 44
0.0
 50
0.0
 51
0.0
 71
     0
 72
   100
 73
     1
 74
     3
 75
     0
 76
     0
 77
     0
 78
     0
  0
ENDTAB
  0
TABLE
  2
LTYPE
 70
     1
  0
LTYPE
  2
CONTINUOUS
 70
     0
  3
Solid line
 72
    65
 73
     0
 40
0.0
  0
ENDTAB
  0
TABLE
  2
LAYER
 70
     1
  0
LAYER
  2
0
 70
     0
 62
     7
  6
CONTINUOUS
  0
ENDTAB
  0
TABLE
  2
STYLE
 70
     1
  0
STYLE
  2
STANDARD
 70
     0
 40
0.0
 41
1.0
 50
0.0
 71
     0
 42
2.5
  3
txt
  4

  0
ENDTAB
  0
TABLE
  2
VIEW
 70
     0
  0
ENDTAB
  0
TABLE
  2
UCS
 70
     0
  0
ENDTAB
  0
TABLE
  2
APPID
 70
     1
  0
APPID
  2
ACAD
 70
     0
  0
ENDTAB
  0
TABLE
  2
DIMSTYLE
 70
     1
  0
DIMSTYLE
  2
ISO-25
 70
     0
  3

  4

  5

  6

  7

 40
1.0
 41
2.5
 42
0.625
 43
3.75
 44
1.25
 45
0.0
 46
0.0
 47
0.0
 48
0.0
140
2.5
141
2.5
142
0.0
143
0.03937007874016
144
1.0
145
0.0
146
1.0
147
0.625
 71
     0
 72
     0
 73
     0
 74
     0
 75
     0
 76
     0
 77
     1
 78
     8
170
     0
171
     3
172
     1
173
     0
174
     0
175
     0
176
     0
177
     0
178
     0
  0
ENDTAB
  0
ENDSEC
  0
SECTION
  2
BLOCKS
  0
BLOCK
  8
0
  2
$MODEL_SPACE
 70
     0
 10
0.0
 20
0.0
 30
0.0
  3
$MODEL_SPACE
  1

  0
ENDBLK
  5
21
  8
0
  0
BLOCK
 67
     1
  8
0
  2
$PAPER_SPACE
 70
     0
 10
0.0
 20
0.0
 30
0.0
  3
$PAPER_SPACE
  1

  0
ENDBLK
  5
1D
 67
     1
  8
0
  0
ENDSEC
  0
SECTION
  2
ENTITIES
  0
POLYLINE
  5
100
  8
0
 62
     1
 66
     1
 10
0.0
 20
0.0
 30
0.0
  0
VERTEX
  5
1004A
  8
0
 62
     1
 10
56.999801
 20
26.458333
 30
0.0
  0
VERTEX
  5
1004B
  8
0
 62
     1
 10
57.11687340210374
 20
26.43985353885519
 30
0.0
  0
VERTEX
  5
1004C
  8
0
 62
     1
 10
57.23379143229351
 20
26.42097623924373
 30
0.0
  0
VERTEX
  5
1004D
  8
0
 62
     1
 10
57.35040071865526
 20
26.40130326269893
 30
0.0
  0
VERTEX
  5
1004E
  8
0
 62
     1
 10
57.46654688927502
 20
26.38043677075414
 30
0.0
  0
VERTEX
  5
1004F
  8
0
 62
     1
 10
57.58207557223878
 20
26.3579789249427
 30
0.0
  0
VERTEX
  5
10050
  8
0
 62
     1
 10
57.69683239563253
 20
26.33353188679794
 30
0.0
  0
VERTEX
  5
10051
  8
0
 62
     1
 10
57.81066298754228
 20
26.30669781785318
 30
0.0
  0
VERTEX
  5
10052
  8
0
 62
     1
 10
57.92341297605406
 20
26.27707887964179
 30
0.0
  0
VERTEX
  5
10053
  8
0
 62
     1
 10
58.03492798925382
 20
26.24427723369708
 30
0.0
  0
VERTEX
  5
10054
  8
0
 62
     1
 10
58.14505365522758
 20
26.20789504155239
 30
0.0
  0
VERTEX
  5
10055
  8
0
 62
     1
 10
58.25363560206135
 20
26.16753446474107
 30
0.0
  0
VERTEX
  5
10056
  8
0
 62
     1
 10
58.36051945784111
 20
26.12279766479643
 30
0.0
  0
VERTEX
  5
10057
  8
0
 62
     1
 10
58.46555085065288
 20
26.07328680325184
 30
0.0
  0
VERTEX
  5
10058
  8
0
 62
     1
 10
58.56857295118343
 20
26.01862054661929
 30
0.0
  0
VERTEX
  5
10059
  8
0
 62
     1
 10
58.66938061361875
 20
25.95874207637258
 30
0.0
  0
VERTEX
  5
1005A
  8
0
 62
     1
 10
58.76772453647549
 20
25.89389114296529
 30
0.0
  0
VERTEX
  5
1005B
  8
0
 62
     1
 10
58.8633537951534
 20
25.82431839842112
 30
0.0
  0
VERTEX
  5
1005C
  8
0
 62
     1
 10
58.95601746505225
 20
25.75027449476376
 30
0.0
  0
VERTEX
  5
1005D
  8
0
 62
     1
 10
59.04546462157177
 20
25.67201008401692
 30
0.0
  0
VERTEX
  5
1005E
  8
0
 62
     1
 10
59.1314443401117
 20
25.58977581820428
 30
0.0
  0
VERTEX
  5
1005F
  8
0
 62
     1
 10
59.21370569607181
 20
25.50382234934956
 30
0.0
  0
VERTEX
  5
10060
  8
0
 62
     1
 10
59.29199776485185
 20
25.41440032947644
 30
0.0
  0
VERTEX
  5
10061
  8
0
 62
     1
 10
59.36606962185156
 20
25.32176041060862
 30
0.0
  0
VERTEX
  5
10062
  8
0
 62
     1
 10
59.43567034247071
 20
25.22615324476982
 30
0.0
  0
VERTEX
  5
10063
  8
0
 62
     1
 10
59.50054900210903
 20
25.1278294839837
 30
0.0
  0
VERTEX
  5
10064
  8
0
 62
     1
 10
59.56045467616627
 20
25.02703978027398
 30
0.0
  0
VERTEX
  5
10065
  8
0
 62
     1
 10
59.6151471854369
 20
24.924033194383
 30
0.0
  0
VERTEX
  5
10066
  8
0
 62
     1
 10
59.66468215383575
 20
24.81901498168285
 30
0.0
  0
VERTEX
  5
10067
  8
0
 62
     1
 10
59.70944086793389
 20
24.7121421702883
 30
0.0
  0
VERTEX
  5
10068
  8
0
 62
     1
 10
59.74982134892303
 20
24.6035693100905
 30
0.0
  0
VERTEX
  5
10069
  8
0
 62
     1
 10
59.78622161799491
 20
24.49345095098071
 30
0.0
  0
VERTEX
  5
1006A
  8
0
 62
     1
 10
59.81903969634129
 20
24.38194164285009
 30
0.0
  0
VERTEX
  5
1006B
  8
0
 62
     1
 10
59.84867360515382
 20
24.26919593558986
 30
0.0
  0
VERTEX
  5
1006C
  8
0
 62
     1
 10
59.87552136562429
 20
24.15536837909122
 30
0.0
  0
VERTEX
  5
1006D
  8
0
 62
     1
 10
59.8999809989444
 20
24.04061352324537
 30
0.0
  0
VERTEX
  5
1006E
  8
0
 62
     1
 10
59.92245052630587
 20
23.9250859179435
 30
0.0
  0
VERTEX
  5
1006F
  8
0
 62
     1
 10
59.94332796890045
 20
23.80894011307683
 30
0.0
  0
VERTEX
  5
10070
  8
0
 62
     1
 10
59.96301134791985
 20
23.69233065853656
 30
0.0
  0
VERTEX
  5
10071
  8
0
 62
     1
 10
59.98189868455579
 20
23.57541210421388
 30
0.0
  0
VERTEX
  5
10072
  8
0
 62
     1
 10
60.000388
 20
23.458339
 30
0.0
  0
SEQEND
  5
101A7
  8
0
 62
     1
  0
POLYLINE
  5
101
  8
0
 62
     1
 66
     1
 10
0.0
 20
0.0
 30
0.0
  0
VERTEX
  5
10073
  8
0
 62
     1
 10
60.000388
 20
23.458339
 30
0.0
  0
VERTEX
  5
10074
  8
0
 62
     1
 10
60.000388
 20
21.458343
 30
0.0
  0
VERTEX
  5
10075
  8
0
 62
     1
 10
160.000188
 20
21.458343
 30
0.0
  0
VERTEX
  5
10076
  8
0
 62
     1
 10
160.000188
 20
23.458339
 30
0.0
  0
SEQEND
  5
101A8
  8
0
 62
     1
  0
POLYLINE
  5
102
  8
0
 62
     1
 66
     1
 10
0.0
 20
0.0
 30
0.0
  0
VERTEX
  5
10077
  8
0
 62
     1
 10
160.000188
 20
23.458339
 30
0.0
  0
VERTEX
  5
10078
  8
0
 62
     1
 10
160.0186738880844
 20
23.57539198895
 30
0.0
  0
VERTEX
  5
10079
  8
0
 62
     1
 10
160.0375575565372
 20
23.69229057101024
 30
0.0
  0
VERTEX
  5
1007A
  8
0
 62
     1
 10
160.0572367857268
 20
23.80888033929091
 30
0.0
  0
VERTEX
  5
1007B
  8
0
 62
     1
 10
160.0781093560214
 20
23.92500688690225
 30
0.0
  0
VERTEX
  5
1007C
  8
0
 62
     1
 10
160.1005730477894
 20
24.04051580695449
 30
0.0
  0
VERTEX
  5
1007D
  8
0
 62
     1
 10
160.1250256413993
 20
24.15525269255783
 30
0.0
  0
VERTEX
  5
1007E
  8
0
 62
     1
 10
160.1518649172194
 20
24.26906313682252
 30
0.0
  0
VERTEX
  5
1007F
  8
0
 62
     1
 10
160.181488655618
 20
24.38179273285876
 30
0.0
  0
VERTEX
  5
10080
  8
0
 62
     1
 10
160.2142946369635
 20
24.49328707377678
 30
0.0
  0
VERTEX
  5
10081
  8
0
 62
     1
 10
160.2506806416243
 20
24.60339175268681
 30
0.0
  0
VERTEX
  5
10082
  8
0
 62
     1
 10
160.2910444499688
 20
24.71195236269905
 30
0.0
  0
VERTEX
  5
10083
  8
0
 62
     1
 10
160.3357838423652
 20
24.81881449692376
 30
0.0
  0
VERTEX
  5
10084
  8
0
 62
     1
 10
160.385296599182
 20
24.92382374847114
 30
0.0
  0
VERTEX
  5
10085
  8
0
 62
     1
 10
160.4399639713225
 20
25.02682325520673
 30
0.0
  0
VERTEX
  5
10086
  8
0
 62
     1
 10
160.4998426076152
 20
25.12760793942997
 30
0.0
  0
VERTEX
  5
10087
  8
0
 62
     1
 10
160.5646927219397
 20
25.2259286917474
 30
0.0
  0
VERTEX
  5
10088
  8
0
 62
     1
 10
160.6342636466908
 20
25.32153478645744
 30
0.0
  0
VERTEX
  5
10089
  8
0
 62
     1
 10
160.7083047142631
 20
25.41417549785855
 30
0.0
  0
VERTEX
  5
1008A
  8
0
 62
     1
 10
160.7865652570515
 20
25.50360010024915
 30
0.0
  0
VERTEX
  5
1008B
  8
0
 62
     1
 10
160.8687946074505
 20
25.5895578679277
 30
0.0
  0
VERTEX
  5
1008C
  8
0
 62
     1
 10
160.954742097855
 20
25.67179807519263
 30
0.0
  0
VERTEX
  5
1008D
  8
0
 62
     1
 10
161.0441570606596
 20
25.7500699963424
 30
0.0
  0
VERTEX
  5
1008E
  8
0
 62
     1
 10
161.1367888282591
 20
25.82412290567543
 30
0.0
  0
VERTEX
  5
1008F
  8
0
 62
     1
 10
161.2323867330482
 20
25.89370607749018
 30
0.0
  0
VERTEX
  5
10090
  8
0
 62
     1
 10
161.3307001074215
 20
25.95856878608508
 30
0.0
  0
VERTEX
  5
10091
  8
0
 62
     1
 10
161.4314782837738
 20
26.01846030575857
 30
0.0
  0
VERTEX
  5
10092
  8
0
 62
     1
 10
161.5344721827665
 20
26.07314061860066
 30
0.0
  0
VERTEX
  5
10093
  8
0
 62
     1
 10
161.639476549978
 20
26.12266516598745
 30
0.0
  0
VERTEX
  5
10094
  8
0
 62
     1
 10
161.7463344379922
 20
26.1674150659657
 30
0.0
  0
VERTEX
  5
10095
  8
0
 62
     1
 10
161.8548913867424
 20
26.20778820581947
 30
0.0
  0
VERTEX
  5
10096
  8
0
 62
     1
 10
161.9649929361616
 20
26.24418247283279
 30
0.0
  0
VERTEX
  5
10097
  8
0
 62
     1
 10
162.0764846261828
 20
26.27699575428972
 30
0.0
  0
VERTEX
  5
10098
  8
0
 62
     1
 10
162.1892119967392
 20
26.30662593747428
 30
0.0
  0
VERTEX
  5
10099
  8
0
 62
     1
 10
162.3030205877639
 20
26.33347090967053
 30
0.0
  0
VERTEX
  5
1009A
  8
0
 62
     1
 10
162.4177559391901
 20
26.35792855816252
 30
0.0
  0
VERTEX
  5
1009B
  8
0
 62
     1
 10
162.5332635909506
 20
26.38039677023428
 30
0.0
  0
VERTEX
  5
1009C
  8
0
 62
     1
 10
162.6493890829789
 20
26.40127343316987
 30
0.0
  0
VERTEX
  5
1009D
  8
0
 62
     1
 10
162.7659779552077
 20
26.42095643425332
 30
0.0
  0
VERTEX
  5
1009E
  8
0
 62
     1
 10
162.8828757475704
 20
26.43984366076868
 30
0.0
  0
VERTEX
  5
1009F
  8
0
 62
     1
 10
162.999928
 20
26.458333
 30
0.0
  0
SEQEND
  5
101A9
  8
0
 62
     1
  0
POLYLINE
  5
103
  8
0
 62
     1
 66
     1
 10
0.0
 20
0.0
 30
0.0
  0
VERTEX
  5
100A0
  8
0
 62
     1
 10
162.999928
 20
26.458333
 30
0.0
  0
VERTEX
  5
100A1
  8
0
 62
     1
 10
217.000328
 20
26.458333
 30
0.0
  0
SEQEND
  5
101AA
  8
0
 62
     1
  0
POLYLINE
  5
104
  8
0
 62
     1
 66
     1
 10
0.0
 20
0.0
 30
0.0
  0
VERTEX
  5
100A2
  8
0
 62
     1
 10
217.000328
 20
26.458333
 30
0.0
  0
VERTEX
  5
100A3
  8
0
 62
     1
 10
217.1173802524295
 20
26.43984366076869
 30
0.0
  0
VERTEX
  5
100A4
  8
0
 62
     1
 10
217.2342780447923
 20
26.42095643425332
 30
0.0
  0
VERTEX
  5
100A5
  8
0
 62
     1
 10
217.3508669170211
 20
26.40127343316988
 30
0.0
  0
VERTEX
  5
100A6
  8
0
 62
     1
 10
217.4669924090494
 20
26.3803967702343
 30
0.0
  0
VERTEX
  5
100A7
  8
0
 62
     1
 10
217.5825000608099
 20
26.35792855816252
 30
0.0
  0
VERTEX
  5
100A8
  8
0
 62
     1
 10
217.697235412236
 20
26.33347090967054
 30
0.0
  0
VERTEX
  5
100A9
  8
0
 62
     1
 10
217.8110440032608
 20
26.30662593747429
 30
0.0
  0
VERTEX
  5
100AA
  8
0
 62
     1
 10
217.9237713738172
 20
26.27699575428973
 30
0.0
  0
VERTEX
  5
100AB
  8
0
 62
     1
 10
218.0352630638384
 20
26.2441824728328
 30
0.0
  0
VERTEX
  5
100AC
  8
0
 62
     1
 10
218.1453646132576
 20
26.20778820581948
 30
0.0
  0
VERTEX
  5
100AD
  8
0
 62
     1
 10
218.2539215620078
 20
26.16741506596571
 30
0.0
  0
VERTEX
  5
100AE
  8
0
 62
     1
 10
218.3607794500221
 20
26.12266516598746
 30
0.0
  0
VERTEX
  5
100AF
  8
0
 62
     1
 10
218.4657838172336
 20
26.07314061860066
 30
0.0
  0
VERTEX
  5
100B0
  8
0
 62
     1
 10
218.5687777162262
 20
26.01846030575858
 30
0.0
  0
VERTEX
  5
100B1
  8
0
 62
     1
 10
218.6695558925785
 20
25.95856878608508
 30
0.0
  0
VERTEX
  5
100B2
  8
0
 62
     1
 10
218.7678692669518
 20
25.89370607749018
 30
0.0
  0
VERTEX
  5
100B3
  8
0
 62
     1
 10
218.8634671717409
 20
25.82412290567543
 30
0.0
  0
VERTEX
  5
100B4
  8
0
 62
     1
 10
218.9560989393404
 20
25.7500699963424
 30
0.0
  0
VERTEX
  5
100B5
  8
0
 62
     1
 10
219.045513902145
 20
25.67179807519264
 30
0.0
  0
VERTEX
  5
100B6
  8
0
 62
     1
 10
219.1314613925495
 20
25.5895578679277
 30
0.0
  0
VERTEX
  5
100B7
  8
0
 62
     1
 10
219.2136907429486
 20
25.50360010024915
 30
0.0
  0
VERTEX
  5
100B8
  8
0
 62
     1
 10
219.2919512857368
 20
25.41417549785853
 30
0.0
  0
VERTEX
  5
100B9
  8
0
 62
     1
 10
219.3659923533092
 20
25.32153478645743
 30
0.0
  0
VERTEX
  5
100BA
  8
0
 62
     1
 10
219.4355632780603
 20
25.22592869174739
 30
0.0
  0
VERTEX
  5
100BB
  8
0
 62
     1
 10
219.5004133923848
 20
25.12760793942996
 30
0.0
  0
VERTEX
  5
100BC
  8
0
 62
     1
 10
219.5602920286775
 20
25.02682325520671
 30
0.0
  0
VERTEX
  5
100BD
  8
0
 62
     1
 10
219.614959400818
 20
24.92382374847112
 30
0.0
  0
VERTEX
  5
100BE
  8
0
 62
     1
 10
219.6644721576347
 20
24.81881449692374
 30
0.0
  0
VERTEX
  5
100BF
  8
0
 62
     1
 10
219.7092115500312
 20
24.71195236269904
 30
0.0
  0
VERTEX
  5
100C0
  8
0
 62
     1
 10
219.7495753583757
 20
24.60339175268679
 30
0.0
  0
VERTEX
  5
100C1
  8
0
 62
     1
 10
219.7859613630364
 20
24.49328707377677
 30
0.0
  0
VERTEX
  5
100C2
  8
0
 62
     1
 10
219.818767344382
 20
24.38179273285875
 30
0.0
  0
VERTEX
  5
100C3
  8
0
 62
     1
 10
219.8483910827806
 20
24.26906313682251
 30
0.0
  0
VERTEX
  5
100C4
  8
0
 62
     1
 10
219.8752303586006
 20
24.15525269255782
 30
0.0
  0
VERTEX
  5
100C5
  8
0
 62
     1
 10
219.8996829522106
 20
24.04051580695448
 30
0.0
  0
VERTEX
  5
100C6
  8
0
 62
     1
 10
219.9221466439786
 20
23.92500688690225
 30
0.0
  0
VERTEX
  5
100C7
  8
0
 62
     1
 10
219.9430192142732
 20
23.8088803392909
 30
0.0
  0
VERTEX
  5
100C8
  8
0
 62
     1
 10
219.9626984434628
 20
23.69229057101023
 30
0.0
  0
VERTEX
  5
100C9
  8
0
 62
     1
 10
219.9815821119156
 20
23.57539198895001
 30
0.0
  0
VERTEX
  5
100CA
  8
0
 62
     1
 10
220.000068
 20
23.458339
 30
0.0
  0
SEQEND
  5
101AB
  8
0
 62
     1
  0
POLYLINE
  5
105
  8
0
 62
     1
 66
     1
 10
0.0
 20
0.0
 30
0.0
  0
VERTEX
  5
100CB
  8
0
 62
     1
 10
220.000068
 20
23.458339
 30
0.0
  0
VERTEX
  5
100CC
  8
0
 62
     1
 10
220.000068
 20
-120.541542
 30
0.0
  0
SEQEND
  5
101AC
  8
0
 62
     1
  0
POLYLINE
  5
106
  8
0
 62
     1
 66
     1
 10
0.0
 20
0.0
 30
0.0
  0
VERTEX
  5
100CD
  8
0
 62
     1
 10
220.000068
 20
-120.541542
 30
0.0
  0
VERTEX
  5
100CE
  8
0
 62
     1
 10
219.981587690946
 20
-120.6585954437192
 30
0.0
  0
VERTEX
  5
100CF
  8
0
 62
     1
 10
219.9627095467864
 20
-120.7754944253349
 30
0.0
  0
VERTEX
  5
100D0
  8
0
 62
     1
 10
219.9430357324157
 20
-120.8920844827433
 30
0.0
  0
VERTEX
  5
100D1
  8
0
 62
     1
 10
219.9221684127281
 20
-121.0082111538409
 30
0.0
  0
VERTEX
  5
100D2
  8
0
 62
     1
 10
219.8997097526183
 20
-121.1237199765242
 30
0.0
  0
VERTEX
  5
100D3
  8
0
 62
     1
 10
219.8752619169803
 20
-121.2384564886895
 30
0.0
  0
VERTEX
  5
100D4
  8
0
 62
     1
 10
219.8484270707089
 20
-121.3522662282332
 30
0.0
  0
VERTEX
  5
100D5
  8
0
 62
     1
 10
219.8188073786982
 20
-121.4649947330518
 30
0.0
  0
VERTEX
  5
100D6
  8
0
 62
     1
 10
219.7860050058428
 20
-121.5764875410416
 30
0.0
  0
VERTEX
  5
100D7
  8
0
 62
     1
 10
219.749622117037
 20
-121.6865901900991
 30
0.0
  0
VERTEX
  5
100D8
  8
0
 62
     1
 10
219.7092608771753
 20
-121.7951482181206
 30
0.0
  0
VERTEX
  5
100D9
  8
0
 62
     1
 10
219.664523451152
 20
-121.9020071630026
 30
0.0
  0
VERTEX
  5
100DA
  8
0
 62
     1
 10
219.6150120038616
 20
-122.0070125626414
 30
0.0
  0
VERTEX
  5
100DB
  8
0
 62
     1
 10
219.5603451451192
 20
-122.1100075154799
 30
0.0
  0
VERTEX
  5
100DC
  8
0
 62
     1
 10
219.5004658121466
 20
-122.2107870089551
 30
0.0
  0
VERTEX
  5
100DD
  8
0
 62
     1
 10
219.4356138792458
 20
-122.3091019826028
 30
0.0
  0
VERTEX
  5
100DE
  8
0
 62
     1
 10
219.3660401742015
 20
-122.40470175111
 30
0.0
  0
VERTEX
  5
100DF
  8
0
 62
     1
 10
219.2919955247984
 20
-122.4973356291634
 30
0.0
  0
VERTEX
  5
100E0
  8
0
 62
     1
 10
219.2137307588215
 20
-122.58675293145
 30
0.0
  0
VERTEX
  5
100E1
  8
0
 62
     1
 10
219.1314967040554
 20
-122.6727029726566
 30
0.0
  0
VERTEX
  5
100E2
  8
0
 62
     1
 10
219.0455441882848
 20
-122.75493506747
 30
0.0
  0
VERTEX
  5
100E3
  8
0
 62
     1
 10
218.9561240392947
 20
-122.8331985305771
 30
0.0
  0
VERTEX
  5
100E4
  8
0
 62
     1
 10
218.8634870848697
 20
-122.9072426766647
 30
0.0
  0
VERTEX
  5
100E5
  8
0
 62
     1
 10
218.7678841527947
 20
-122.9768168204198
 30
0.0
  0
VERTEX
  5
100E6
  8
0
 62
     1
 10
218.6695660708543
 20
-123.0416702765291
 30
0.0
  0
VERTEX
  5
100E7
  8
0
 62
     1
 10
218.5687836668336
 20
-123.1015523596795
 30
0.0
  0
VERTEX
  5
100E8
  8
0
 62
     1
 10
218.465786177105
 20
-123.1562230892139
 30
0.0
  0
VERTEX
  5
100E9
  8
0
 62
     1
 10
218.3607789178241
 20
-123.2057379144499
 30
0.0
  0
VERTEX
  5
100EA
  8
0
 62
     1
 10
218.2539187882703
 20
-123.2504779615207
 30
0.0
  0
VERTEX
  5
100EB
  8
0
 62
     1
 10
218.1453601942995
 20
-123.2908411286067
 30
0.0
  0
VERTEX
  5
100EC
  8
0
 62
     1
 10
218.0352575417679
 20
-123.3272253138884
 30
0.0
  0
VERTEX
  5
100ED
  8
0
 62
     1
 10
217.9237652365316
 20
-123.3600284155462
 30
0.0
  0
VERTEX
  5
100EE
  8
0
 62
     1
 10
217.8110376844466
 20
-123.3896483317605
 30
0.0
  0
VERTEX
  5
100EF
  8
0
 62
     1
 10
217.697229291369
 20
-123.4164829607118
 30
0.0
  0
VERTEX
  5
100F0
  8
0
 62
     1
 10
217.582494463155
 20
-123.4409302005805
 30
0.0
  0
VERTEX
  5
100F1
  8
0
 62
     1
 10
217.4669876056604
 20
-123.463387949547
 30
0.0
  0
VERTEX
  5
100F2
  8
0
 62
     1
 10
217.3508631247416
 20
-123.4842541057917
 30
0.0
  0
VERTEX
  5
100F3
  8
0
 62
     1
 10
217.2342754262545
 20
-123.5039265674952
 30
0.0
  0
VERTEX
  5
100F4
  8
0
 62
     1
 10
217.1173789160553
 20
-123.5228032328378
 30
0.0
  0
VERTEX
  5
100F5
  8
0
 62
     1
 10
217.000328
 20
-123.541282
 30
0.0
  0
SEQEND
  5
101AD
  8
0
 62
     1
  0
POLYLINE
  5
107
  8
0
 62
     1
 66
     1
 10
0.0
 20
0.0
 30
0.0
  0
VERTEX
  5
100F6
  8
0
 62
     1
 10
217.000328
 20
-123.541282
 30
0.0
  0
VERTEX
  5
100F7
  8
0
 62
     1
 10
162.999928
 20
-123.541282
 30
0.0
  0
SEQEND
  5
101AE
  8
0
 62
     1
  0
POLYLINE
  5
108
  8
0
 62
     1
 66
     1
 10
0.0
 20
0.0
 30
0.0
  0
VERTEX
  5
100F8
  8
0
 62
     1
 10
162.999928
 20
-123.541282
 30
0.0
  0
VERTEX
  5
100F9
  8
0
 62
     1
 10
162.8828770839447
 20
-123.5228032328378
 30
0.0
  0
VERTEX
  5
100FA
  8
0
 62
     1
 10
162.7659805737455
 20
-123.5039265674952
 30
0.0
  0
VERTEX
  5
100FB
  8
0
 62
     1
 10
162.6493928752584
 20
-123.4842541057917
 30
0.0
  0
VERTEX
  5
100FC
  8
0
 62
     1
 10
162.5332683943395
 20
-123.4633879495469
 30
0.0
  0
VERTEX
  5
100FD
  8
0
 62
     1
 10
162.4177615368451
 20
-123.4409302005805
 30
0.0
  0
VERTEX
  5
100FE
  8
0
 62
     1
 10
162.303026708631
 20
-123.4164829607118
 30
0.0
  0
VERTEX
  5
100FF
  8
0
 62
     1
 10
162.1892183155534
 20
-123.3896483317605
 30
0.0
  0
VERTEX
  5
10100
  8
0
 62
     1
 10
162.0764907634684
 20
-123.3600284155462
 30
0.0
  0
VERTEX
  5
10101
  8
0
 62
     1
 10
161.9649984582321
 20
-123.3272253138883
 30
0.0
  0
VERTEX
  5
10102
  8
0
 62
     1
 10
161.8548958057005
 20
-123.2908411286067
 30
0.0
  0
VERTEX
  5
10103
  8
0
 62
     1
 10
161.7463372117297
 20
-123.2504779615206
 30
0.0
  0
VERTEX
  5
10104
  8
0
 62
     1
 10
161.6394770821759
 20
-123.2057379144498
 30
0.0
  0
VERTEX
  5
10105
  8
0
 62
     1
 10
161.534469822895
 20
-123.1562230892138
 30
0.0
  0
VERTEX
  5
10106
  8
0
 62
     1
 10
161.4314723331665
 20
-123.1015523596795
 30
0.0
  0
VERTEX
  5
10107
  8
0
 62
     1
 10
161.3306899291456
 20
-123.0416702765291
 30
0.0
  0
VERTEX
  5
10108
  8
0
 62
     1
 10
161.2323718472053
 20
-122.9768168204198
 30
0.0
  0
VERTEX
  5
10109
  8
0
 62
     1
 10
161.1367689151303
 20
-122.9072426766648
 30
0.0
  0
VERTEX
  5
1010A
  8
0
 62
     1
 10
161.0441319607053
 20
-122.8331985305771
 30
0.0
  0
VERTEX
  5
1010B
  8
0
 62
     1
 10
160.9547118117152
 20
-122.75493506747
 30
0.0
  0
VERTEX
  5
1010C
  8
0
 62
     1
 10
160.8687592959446
 20
-122.6727029726566
 30
0.0
  0
VERTEX
  5
1010D
  8
0
 62
     1
 10
160.7865252411785
 20
-122.58675293145
 30
0.0
  0
VERTEX
  5
1010E
  8
0
 62
     1
 10
160.7082604752016
 20
-122.4973356291634
 30
0.0
  0
VERTEX
  5
1010F
  8
0
 62
     1
 10
160.6342158257985
 20
-122.40470175111
 30
0.0
  0
VERTEX
  5
10110
  8
0
 62
     1
 10
160.5646421207542
 20
-122.3091019826028
 30
0.0
  0
VERTEX
  5
10111
  8
0
 62
     1
 10
160.4997901878534
 20
-122.2107870089551
 30
0.0
  0
VERTEX
  5
10112
  8
0
 62
     1
 10
160.4399108548808
 20
-122.1100075154799
 30
0.0
  0
VERTEX
  5
10113
  8
0
 62
     1
 10
160.3852439961385
 20
-122.0070125626414
 30
0.0
  0
VERTEX
  5
10114
  8
0
 62
     1
 10
160.335732548848
 20
-121.9020071630026
 30
0.0
  0
VERTEX
  5
10115
  8
0
 62
     1
 10
160.2909951228248
 20
-121.7951482181206
 30
0.0
  0
VERTEX
  5
10116
  8
0
 62
     1
 10
160.250633882963
 20
-121.6865901900991
 30
0.0
  0
VERTEX
  5
10117
  8
0
 62
     1
 10
160.2142509941573
 20
-121.5764875410416
 30
0.0
  0
VERTEX
  5
10118
  8
0
 62
     1
 10
160.1814486213018
 20
-121.4649947330518
 30
0.0
  0
VERTEX
  5
10119
  8
0
 62
     1
 10
160.1518289292912
 20
-121.3522662282332
 30
0.0
  0
VERTEX
  5
1011A
  8
0
 62
     1
 10
160.1249940830197
 20
-121.2384564886895
 30
0.0
  0
VERTEX
  5
1011B
  8
0
 62
     1
 10
160.1005462473818
 20
-121.1237199765242
 30
0.0
  0
VERTEX
  5
1011C
  8
0
 62
     1
 10
160.0780875872718
 20
-121.0082111538409
 30
0.0
  0
VERTEX
  5
1011D
  8
0
 62
     1
 10
160.0572202675843
 20
-120.8920844827433
 30
0.0
  0
VERTEX
  5
1011E
  8
0
 62
     1
 10
160.0375464532136
 20
-120.7754944253349
 30
0.0
  0
VERTEX
  5
1011F
  8
0
 62
     1
 10
160.018668309054
 20
-120.6585954437192
 30
0.0
  0
VERTEX
  5
10120
  8
0
 62
     1
 10
160.000188
 20
-120.541542
 30
0.0
  0
SEQEND
  5
101AF
  8
0
 62
     1
  0
POLYLINE
  5
109
  8
0
 62
     1
 66
     1
 10
0.0
 20
0.0
 30
0.0
  0
VERTEX
  5
10121
  8
0
 62
     1
 10
160.000188
 20
-120.541542
 30
0.0
  0
VERTEX
  5
10122
  8
0
 62
     1
 10
160.000188
 20
-118.541715
 30
0.0
  0
VERTEX
  5
10123
  8
0
 62
     1
 10
60.000388
 20
-118.541715
 30
0.0
  0
VERTEX
  5
10124
  8
0
 62
     1
 10
60.000388
 20
-120.541542
 30
0.0
  0
SEQEND
  5
101B0
  8
0
 62
     1
  0
POLYLINE
  5
10A
  8
0
 62
     1
 66
     1
 10
0.0
 20
0.0
 30
0.0
  0
VERTEX
  5
10125
  8
0
 62
     1
 10
60.000388
 20
-120.541542
 30
0.0
  0
VERTEX
  5
10126
  8
0
 62
     1
 10
59.98190426413216
 20
-120.6586155606441
 30
0.0
  0
VERTEX
  5
10127
  8
0
 62
     1
 10
59.96302245231679
 20
-120.7755345161481
 30
0.0
  0
VERTEX
  5
10128
  8
0
 62
     1
 10
59.94334448860638
 20
-120.8921442613723
 30
0.0
  0
VERTEX
  5
10129
  8
0
 62
     1
 10
59.92247229705341
 20
-121.0082901911767
 30
0.0
  0
VERTEX
  5
1012A
  8
0
 62
     1
 10
59.90000780171033
 20
-121.1238177004211
 30
0.0
  0
VERTEX
  5
1012B
  8
0
 62
     1
 10
59.87555292662964
 20
-121.2385721839659
 30
0.0
  0
VERTEX
  5
1012C
  8
0
 62
     1
 10
59.84870959586385
 20
-121.3523990366709
 30
0.0
  0
VERTEX
  5
1012D
  8
0
 62
     1
 10
59.81907973346539
 20
-121.4651436533963
 30
0.0
  0
VERTEX
  5
1012E
  8
0
 62
     1
 10
59.78626526348677
 20
-121.576651429002
 30
0.0
  0
VERTEX
  5
1012F
  8
0
 62
     1
 10
59.74986810998043
 20
-121.6867677583482
 30
0.0
  0
VERTEX
  5
10130
  8
0
 62
     1
 10
59.70949019699889
 20
-121.7953380362948
 30
0.0
  0
VERTEX
  5
10131
  8
0
 62
     1
 10
59.6647334485946
 20
-121.9022076577019
 30
0.0
  0
VERTEX
  5
10132
  8
0
 62
     1
 10
59.61519978882005
 20
-122.0072220174296
 30
0.0
  0
VERTEX
  5
10133
  8
0
 62
     1
 10
59.56050779112866
 20
-122.1102240480062
 30
0.0
  0
VERTEX
  5
10134
  8
0
 62
     1
 10
59.50060141787586
 20
-122.2110085591808
 30
0.0
  0
VERTEX
  5
10135
  8
0
 62
     1
 10
59.43572093712699
 20
-122.3093265391276
 30
0.0
  0
VERTEX
  5
10136
  8
0
 62
     1
 10
59.3661174337205
 20
-122.4049273762948
 30
0.0
  0
VERTEX
  5
10137
  8
0
 62
     1
 10
59.29204199249487
 20
-122.4975604591301
 30
0.0
  0
VERTEX
  5
10138
  8
0
 62
     1
 10
59.21374569828861
 20
-122.5869751760815
 30
0.0
  0
VERTEX
  5
10139
  8
0
 62
     1
 10
59.13147963594015
 20
-122.6729209155968
 30
0.0
  0
VERTEX
  5
1013A
  8
0
 62
     1
 10
59.04549489028798
 20
-122.7551470661242
 30
0.0
  0
VERTEX
  5
1013B
  8
0
 62
     1
 10
58.95604254617058
 20
-122.8334030161113
 30
0.0
  0
VERTEX
  5
1013C
  8
0
 62
     1
 10
58.86337368842644
 20
-122.9074381540064
 30
0.0
  0
VERTEX
  5
1013D
  8
0
 62
     1
 10
58.76773940189403
 20
-122.9770018682571
 30
0.0
  0
VERTEX
  5
1013E
  8
0
 62
     1
 10
58.66939077141179
 20
-123.0418435473115
 30
0.0
  0
VERTEX
  5
1013F
  8
0
 62
     1
 10
58.56857888181824
 20
-123.1017125796175
 30
0.0
  0
VERTEX
  5
10140
  8
0
 62
     1
 10
58.46555319162875
 20
-123.1563692520218
 30
0.0
  0
VERTEX
  5
10141
  8
0
 62
     1
 10
58.36051890797359
 20
-123.2058703910013
 30
0.0
  0
VERTEX
  5
10142
  8
0
 62
     1
 10
58.25363281193481
 20
-123.2505973381269
 30
0.0
  0
VERTEX
  5
10143
  8
0
 62
     1
 10
58.14504922121107
 20
-123.2909479427197
 30
0.0
  0
VERTEX
  5
10144
  8
0
 62
     1
 10
58.03492245350101
 20
-123.3273200541009
 30
0.0
  0
VERTEX
  5
10145
  8
0
 62
     1
 10
57.92340682650326
 20
-123.3601115215916
 30
0.0
  0
VERTEX
  5
10146
  8
0
 62
     1
 10
57.81065665791643
 20
-123.389720194513
 30
0.0
  0
VERTEX
  5
10147
  8
0
 62
     1
 10
57.69682626543918
 20
-123.4165439221862
 30
0.0
  0
VERTEX
  5
10148
  8
0
 62
     1
 10
57.58206996677012
 20
-123.4409805539325
 30
0.0
  0
VERTEX
  5
10149
  8
0
 62
     1
 10
57.46654207960789
 20
-123.463427939073
 30
0.0
  0
VERTEX
  5
1014A
  8
0
 62
     1
 10
57.35039692165113
 20
-123.4842839269288
 30
0.0
  0
VERTEX
  5
1014B
  8
0
 62
     1
 10
57.23378881059847
 20
-123.5039463668211
 30
0.0
  0
VERTEX
  5
1014C
  8
0
 62
     1
 10
57.11687206414856
 20
-123.5228131080712
 30
0.0
  0
VERTEX
  5
1014D
  8
0
 62
     1
 10
56.999801
 20
-123.541282
 30
0.0
  0
SEQEND
  5
101B1
  8
0
 62
     1
  0
POLYLINE
  5
10B
  8
0
 62
     1
 66
     1
 10
0.0
 20
0.0
 30
0.0
  0
VERTEX
  5
1014E
  8
0
 62
     1
 10
56.999801
 20
-123.541282
 30
0.0
  0
VERTEX
  5
1014F
  8
0
 62
     1
 10
2.999994
 20
-123.541282
 30
0.0
  0
SEQEND
  5
101B2
  8
0
 62
     1
  0
POLYLINE
  5
10C
  8
0
 62
     1
 66
     1
 10
0.0
 20
0.0
 30
0.0
  0
VERTEX
  5
10150
  8
0
 62
     1
 10
2.999994
 20
-123.541282
 30
0.0
  0
VERTEX
  5
10151
  8
0
 62
     1
 10
2.882934269527846
 20
-123.5228098360784
 30
0.0
  0
VERTEX
  5
10152
  8
0
 62
     1
 10
2.766028930503118
 20
-123.5039397716924
 30
0.0
  0
VERTEX
  5
10153
  8
0
 62
     1
 10
2.649432374373243
 20
-123.4842739063774
 30
0.0
  0
VERTEX
  5
10154
  8
0
 62
     1
 10
2.533298992585649
 20
-123.463414339669
 30
0.0
  0
VERTEX
  5
10155
  8
0
 62
     1
 10
2.417783176587762
 20
-123.4409631711029
 30
0.0
  0
VERTEX
  5
10156
  8
0
 62
     1
 10
2.303039317827008
 20
-123.4165225002143
 30
0.0
  0
VERTEX
  5
10157
  8
0
 62
     1
 10
2.189221807750815
 20
-123.3896944265391
 30
0.0
  0
VERTEX
  5
10158
  8
0
 62
     1
 10
2.076485037806609
 20
-123.3600810496126
 30
0.0
  0
VERTEX
  5
10159
  8
0
 62
     1
 10
1.964983399441817
 20
-123.3272844689705
 30
0.0
  0
VERTEX
  5
1015A
  8
0
 62
     1
 10
1.854871284103866
 20
-123.2909067841482
 30
0.0
  0
VERTEX
  5
1015B
  8
0
 62
     1
 10
1.746303083240182
 20
-123.2505500946812
 30
0.0
  0
VERTEX
  5
1015C
  8
0
 62
     1
 10
1.639433188298192
 20
-123.2058165001053
 30
0.0
  0
VERTEX
  5
1015D
  8
0
 62
     1
 10
1.534415990725323
 20
-123.1563080999558
 30
0.0
  0
VERTEX
  5
1015E
  8
0
 62
     1
 10
1.431408355741382
 20
-123.1016436160241
 30
0.0
  0
VERTEX
  5
1015F
  8
0
 62
     1
 10
1.330615525343235
 20
-123.0417668328144
 30
0.0
  0
VERTEX
  5
10160
  8
0
 62
     1
 10
1.232286810873791
 20
-122.9769176542101
 30
0.0
  0
VERTEX
  5
10161
  8
0
 62
     1
 10
1.136673133612862
 20
-122.9073468018975
 30
0.0
  0
VERTEX
  5
10162
  8
0
 62
     1
 10
1.044025414840265
 20
-122.8333049975635
 30
0.0
  0
VERTEX
  5
10163
  8
0
 62
     1
 10
0.9545945758358114
 20
-122.7550429628946
 30
0.0
  0
VERTEX
  5
10164
  8
0
 62
     1
 10
0.8686315378793187
 20
-122.6728114195772
 30
0.0
  0
VERTEX
  5
10165
  8
0
 62
     1
 10
0.7863872222505996
 20
-122.5868610892981
 30
0.0
  0
VERTEX
  5
10166
  8
0
 62
     1
 10
0.7081125502294691
 20
-122.4974426937437
 30
0.0
  0
VERTEX
  5
10167
  8
0
 62
     1
 10
0.6340584430957416
 20
-122.4048069546008
 30
0.0
  0
VERTEX
  5
10168
  8
0
 62
     1
 10
0.5644758221292313
 20
-122.3092045935557
 30
0.0
  0
VERTEX
  5
10169
  8
0
 62
     1
 10
0.4996156086097529
 20
-122.2108863322952
 30
0.0
  0
VERTEX
  5
1016A
  8
0
 62
     1
 10
0.439728723817121
 20
-122.1101028925059
 30
0.0
  0
VERTEX
  5
1016B
  8
0
 62
     1
 10
0.3850551956421744
 20
-122.0071033804747
 30
0.0
  0
VERTEX
  5
1016C
  8
0
 62
     1
 10
0.3355383974797833
 20
-121.9020929110808
 30
0.0
  0
VERTEX
  5
1016D
  8
0
 62
     1
 10
0.290796919572203
 20
-121.7952284365481
 30
0.0
  0
VERTEX
  5
1016E
  8
0
 62
     1
 10
0.2504328185648657
 20
-121.6866644573047
 30
0.0
  0
VERTEX
  5
1016F
  8
0
 62
     1
 10
0.214048151103204
 20
-121.576555473779
 30
0.0
  0
VERTEX
  5
10170
  8
0
 62
     1
 10
0.1812449738326502
 20
-121.4650559863991
 30
0.0
  0
VERTEX
  5
10171
  8
0
 62
     1
 10
0.1516253433986368
 20
-121.3523204955934
 30
0.0
  0
VERTEX
  5
10172
  8
0
 62
     1
 10
0.1247913164465963
 20
-121.23850350179
 30
0.0
  0
VERTEX
  5
10173
  8
0
 62
     1
 10
0.1003449496219611
 20
-121.1237595054172
 30
0.0
  0
VERTEX
  5
10174
  8
0
 62
     1
 10
0.0778882995701637
 20
-121.0082430069031
 30
0.0
  0
VERTEX
  5
10175
  8
0
 62
     1
 10
0.0570234229366364
 20
-120.8921085066762
 30
0.0
  0
VERTEX
  5
10176
  8
0
 62
     1
 10
0.0373523763668119
 20
-120.7755105051645
 30
0.0
  0
VERTEX
  5
10177
  8
0
 62
     1
 10
0.0184772165061224
 20
-120.6586035027964
 30
0.0
  0
VERTEX
  5
10178
  8
0
 62
     1
 10
0.0
 20
-120.541542
 30
0.0
  0
SEQEND
  5
101B3
  8
0
 62
     1
  0
POLYLINE
  5
10D
  8
0
 62
     1
 66
     1
 10
0.0
 20
0.0
 30
0.0
  0
VERTEX
  5
10179
  8
0
 62
     1
 10
0.0
 20
-120.541542
 30
0.0
  0
VERTEX
  5
1017A
  8
0
 62
     1
 10
0.0
 20
23.458339
 30
0.0
  0
SEQEND
  5
101B4
  8
0
 62
     1
  0
POLYLINE
  5
10E
  8
0
 62
     1
 66
     1
 10
0.0
 20
0.0
 30
0.0
  0
VERTEX
  5
1017B
  8
0
 62
     1
 10
0.0
 20
23.458339
 30
0.0
  0
VERTEX
  5
1017C
  8
0
 62
     1
 10
0.0184827956084283
 20
23.57540004765557
 30
0.0
  0
VERTEX
  5
1017D
  8
0
 62
     1
 10
0.0373634798251321
 20
23.69230665011101
 30
0.0
  0
VERTEX
  5
1017E
  8
0
 62
     1
 10
0.057039941258387
 20
23.80890436216617
 30
0.0
  0
VERTEX
  5
1017F
  8
0
 62
     1
 10
0.0779100685164687
 20
23.92503873862092
 30
0.0
  0
VERTEX
  5
10180
  8
0
 62
     1
 10
0.1003717502076526
 20
24.04055533427512
 30
0.0
  0
VERTEX
  5
10181
  8
0
 62
     1
 10
0.1248228749402144
 20
24.15529970392863
 30
0.0
  0
VERTEX
  5
10182
  8
0
 62
     1
 10
0.1516613313224296
 20
24.2691174023813
 30
0.0
  0
VERTEX
  5
10183
  8
0
 62
     1
 10
0.1812850079625739
 20
24.38185398443302
 30
0.0
  0
VERTEX
  5
10184
  8
0
 62
     1
 10
0.2140917934689226
 20
24.49335500488364
 30
0.0
  0
VERTEX
  5
10185
  8
0
 62
     1
 10
0.2504795764497515
 20
24.60346601853302
 30
0.0
  0
VERTEX
  5
10186
  8
0
 62
     1
 10
0.2908462455133362
 20
24.71203258018102
 30
0.0
  0
VERTEX
  5
10187
  8
0
 62
     1
 10
0.335589689267952
 20
24.81890024462751
 30
0.0
  0
VERTEX
  5
10188
  8
0
 62
     1
 10
0.3851077963218748
 20
24.92391456667234
 30
0.0
  0
VERTEX
  5
10189
  8
0
 62
     1
 10
0.4397818368474505
 20
25.02691863347173
 30
0.0
  0
VERTEX
  5
1018A
  8
0
 62
     1
 10
0.4996680235969989
 20
25.12770726495118
 30
0.0
  0
VERTEX
  5
1018B
  8
0
 62
     1
 10
0.5645264171657886
 20
25.22603130589947
 30
0.0
  0
VERTEX
  5
1018C
  8
0
 62
     1
 10
0.6341062564877293
 20
25.32163999421507
 30
0.0
  0
VERTEX
  5
1018D
  8
0
 62
     1
 10
0.7081567804967311
 20
25.41428256779643
 30
0.0
  0
VERTEX
  5
1018E
  8
0
 62
     1
 10
0.7864272281267036
 20
25.50370826454202
 30
0.0
  0
VERTEX
  5
1018F
  8
0
 62
     1
 10
0.8686668383115562
 20
25.5896663223503
 30
0.0
  0
VERTEX
  5
10190
  8
0
 62
     1
 10
0.9546248499851991
 20
25.67190597911971
 30
0.0
  0
VERTEX
  5
10191
  8
0
 62
     1
 10
1.044050502081542
 20
25.75017647274872
 30
0.0
  0
VERTEX
  5
10192
  8
0
 62
     1
 10
1.136693033534494
 20
25.82422704113579
 30
0.0
  0
VERTEX
  5
10193
  8
0
 62
     1
 10
1.232301683277967
 20
25.89380692217938
 30
0.0
  0
VERTEX
  5
10194
  8
0
 62
     1
 10
1.330625690245868
 20
25.95866535377795
 30
0.0
  0
VERTEX
  5
10195
  8
0
 62
     1
 10
1.431414293372109
 20
26.01855157382995
 30
0.0
  0
VERTEX
  5
10196
  8
0
 62
     1
 10
1.534418338346631
 20
26.07322564119241
 30
0.0
  0
VERTEX
  5
10197
  8
0
 62
     1
 10
1.639432644662866
 20
26.1227437634196
 30
0.0
  0
VERTEX
  5
10198
  8
0
 62
     1
 10
1.746300298909113
 20
26.16748721062872
 30
0.0
  0
VERTEX
  5
10199
  8
0
 62
     1
 10
1.854866855424538
 20
26.20785387240459
 30
0.0
  0
VERTEX
  5
1019A
  8
0
 62
     1
 10
1.964977868548306
 20
26.24424163833207
 30
0.0
  0
VERTEX
  5
1019B
  8
0
 62
     1
 10
2.076478892619583
 20
26.27704839799599
 30
0.0
  0
VERTEX
  5
1019C
  8
0
 62
     1
 10
2.189215481977534
 20
26.30667204098119
 30
0.0
  0
VERTEX
  5
1019D
  8
0
 62
     1
 10
2.303033190961326
 20
26.33351045687251
 30
0.0
  0
VERTEX
  5
1019E
  8
0
 62
     1
 10
2.417777573910122
 20
26.35796153525479
 30
0.0
  0
VERTEX
  5
1019F
  8
0
 62
     1
 10
2.533294185163092
 20
26.38042316571288
 30
0.0
  0
VERTEX
  5
101A0
  8
0
 62
     1
 10
2.649428579059397
 20
26.40129323783159
 30
0.0
  0
VERTEX
  5
101A1
  8
0
 62
     1
 10
2.766026309938206
 20
26.42096964119579
 30
0.0
  0
VERTEX
  5
101A2
  8
0
 62
     1
 10
2.882932932138683
 20
26.43985026539031
 30
0.0
  0
VERTEX
  5
101A3
  8
0
 62
     1
 10
2.999994
 20
26.458333
 30
0.0
  0
SEQEND
  5
101B5
  8
0
 62
     1
  0
POLYLINE
  5
10F
  8
0
 62
     1
 66
     1
 10
0.0
 20
0.0
 30
0.0
  0
VERTEX
  5
101A4
  8
0
 62
     1
 10
2.999994
 20
26.458333
 30
0.0
  0
VERTEX
  5
101A5
  8
0
 62
     1
 10
56.999801
 20
26.458333
 30
0.0
  0
VERTEX
  5
101A6
  8
0
 62
     1
 10
56.999801
 20
26.458333
 30
0.0
  0
SEQEND
  5
101B6
  8
0
 62
     1
  0
ENDSEC
  0
EOF
