<?xml version="1.0" encoding="UTF-8" standalone="no"?>
<!DOCTYPE svg PUBLIC "-//W3C//DTD SVG 1.1//EN" "http://www.w3.org/Graphics/SVG/1.1/DTD/svg11.dtd">
<svg width="100%" height="100%" viewBox="0 0 736 409" version="1.1" xmlns="http://www.w3.org/2000/svg" xmlns:xlink="http://www.w3.org/1999/xlink" xml:space="preserve" xmlns:serif="http://www.serif.com/" style="fill-rule:evenodd;clip-rule:evenodd;">
    <g transform="matrix(1,0,0,1,-6.68207,-75.7631)">
        <g id="path4482" transform="matrix(1,0,0,1,109.97,22.0644)">
            <path d="M532.421,58.184C527.267,58.923 523.068,62.775 520.757,67.286C517.06,73.826 514.423,80.88 511.259,87.679C504.456,103.047 497.813,118.49 491.542,134.082C486.615,146.616 481.66,159.142 476.957,171.762C474.61,178.238 472.817,184.896 470.558,191.403C469.492,194.633 468.805,198.43 465.557,200.232C463.355,201.801 460.1,201.851 458.103,199.897C455.401,197.729 454.496,194.07 454.878,190.745C455.352,183.091 457.053,175.581 458.358,168.04C463.149,141.422 468.105,114.835 473.066,88.249C473.744,82.671 473.999,77.056 474.282,71.448C474.014,68.247 473.104,64.939 470.932,62.48C468.173,59.744 464.291,58.064 460.373,58.338C457.263,58.541 454.13,59.871 451.925,62.083C449.479,64.187 448.419,67.332 446.981,70.122C440.903,85.592 435.562,101.339 430.607,117.201C428.176,124.419 426.202,131.775 424.412,139.176C419.392,160.054 414.602,180.989 409.437,201.831C407.626,207.852 405.953,213.921 403.653,219.78C401.677,225.369 399.56,230.938 396.689,236.139C394.576,239.414 392.899,242.955 390.721,246.197C388.402,249.347 386.913,253.221 384.014,255.869C381.306,258.369 376.528,258.101 374.915,254.487C372.754,250.651 373.29,246.102 372.815,241.886C372.143,232.431 371.857,222.947 370.801,213.52C370.523,209.689 370.001,205.9 368.765,202.248C367.508,197.706 366.021,193.232 364.187,188.889C362.564,184.44 360.763,180.034 358.449,175.896C355.76,171.227 352.128,167.188 348.468,163.269C346.126,160.858 343.339,158.415 339.895,157.944C336.957,157.516 333.91,158.261 331.366,159.762C328.488,161.295 326.409,164.156 325.834,167.362C324.958,171.263 325.773,175.274 325.855,179.219C327.226,202.759 329.295,226.256 330.406,249.811C330.884,259.616 330.233,269.423 330.164,279.229C330.201,284.293 330.335,289.446 332.028,294.278C334.495,302.048 337.573,309.615 340.827,317.084C346.51,329.661 351.959,342.345 358.013,354.75C361.357,361.64 364.534,368.609 367.84,375.518C369.462,379.454 369.42,383.797 369.063,387.97C368.02,402.124 366.626,416.247 365.304,430.376C365.391,433.574 364.098,436.685 364.745,439.847C366.633,444.883 368.52,446.145 371.344,448.371C376.145,450.78 377.912,451.578 381.169,452.453C387.394,454.28 392.554,455.182 399.183,456.097C462.853,461.165 465.416,454.659 469.021,449.824C471.949,445.966 472.514,441.2 473.057,438.46C473.932,434.972 474.332,431.403 474.471,427.814C474.993,424.298 476.466,420.944 478.833,418.267C484.262,411.807 490.074,405.671 495.566,399.261C503.557,390.254 511.484,381.136 518.195,371.116C521.938,365.587 524.74,359.496 528.109,353.743C532.883,344.238 537.777,334.794 542.901,325.472C550.534,311.242 558.167,297.012 565.8,282.783C572.108,274.003 578.46,265.248 585.332,256.897C595.992,243.655 606.737,230.483 617.529,217.348C620.408,213.477 622.667,209.202 625.155,205.08C626.662,200.872 628.915,196.525 627.918,191.926C625.768,187.569 621.386,184.151 616.423,183.968C612.277,183.286 609.007,186.534 606.145,189.031C601.284,193.185 597.233,198.158 592.905,202.841C578.261,219.193 563.478,235.421 548.779,251.723C546.184,253.814 543.395,256.17 539.936,256.476C536.727,257.025 533.808,254.605 532.973,251.613C531.253,247.524 533.27,243.203 534.503,239.283C537.253,231.152 540.353,223.144 543.589,215.195C547.031,206.036 550.503,196.886 553.604,187.603C558.023,174.813 562.084,161.901 566.306,149.044C569.723,138.393 573.199,127.756 576.362,117.027C577.374,112.889 579.187,108.748 578.563,104.405C578.416,101.158 576.559,98.27 574.118,96.232C571.999,94.507 569.246,93.784 566.574,93.554C563.462,93.385 560.302,94.347 557.953,96.428C555.287,99.011 553.908,102.466 552.556,105.842C540.756,133.572 529.637,161.585 518.272,189.495C515.978,195.565 513.563,201.593 511.341,207.688C510.478,210.551 509.825,213.973 507.093,215.669C503.852,217.868 500.516,212.957 502.024,210.053C503.408,205.703 505.338,201.562 506.788,197.237C513.48,179.441 520.121,161.628 526.57,143.743C534.251,122.71 541.902,101.666 549.552,80.622C550.379,76.782 551.816,72.755 550.582,68.839C549.462,65.483 547.246,62.311 544.247,60.395C541.28,58.615 537.788,58.266 534.41,58.074C533.746,58.111 533.083,58.148 532.42,58.184L532.421,58.184Z" style="fill-rule:nonzero;stroke:black;stroke-width:2.12px;"/>
        </g>
        <g id="path4864" transform="matrix(1,0,0,1,0,20.7968)">
            <path d="M106.801,59.452C111.954,60.191 116.153,64.042 118.464,68.553C122.161,75.093 124.798,82.148 127.963,88.947C134.765,104.314 141.408,119.757 147.68,135.349C152.607,147.884 157.562,160.41 162.265,173.029C164.612,179.505 166.405,186.163 168.664,192.67C169.73,195.901 170.417,199.698 173.664,201.499C175.867,203.068 179.121,203.119 181.118,201.165C183.821,198.996 184.726,195.338 184.343,192.012C183.87,184.359 182.169,176.849 180.864,169.307C176.072,142.69 171.117,116.103 166.156,89.516C165.478,83.938 165.223,78.324 164.94,72.716C165.207,69.514 166.118,66.207 168.29,63.748C171.048,61.012 174.93,59.332 178.849,59.606C181.958,59.809 185.092,61.138 187.297,63.351C189.743,65.455 190.803,68.6 192.241,71.389C198.318,86.86 203.66,102.606 208.615,118.469C211.045,125.687 213.019,133.043 214.81,140.444C219.829,161.321 224.619,182.257 229.785,203.098C231.596,209.119 233.269,215.188 235.569,221.048C237.545,226.637 239.662,232.206 242.532,237.406C244.646,240.681 246.323,244.222 248.501,247.465C250.819,250.615 252.309,254.489 255.208,257.137C257.916,259.636 262.693,259.369 264.307,255.754C266.467,251.919 265.932,247.369 266.407,243.154C267.079,233.698 267.364,224.214 268.42,214.788C268.699,210.957 269.22,207.167 270.457,203.516C271.713,198.973 273.2,194.5 275.034,190.157C276.657,185.708 278.459,181.301 280.773,177.163C283.461,172.495 287.094,168.455 290.754,164.536C293.096,162.126 295.882,159.682 299.326,159.212C302.264,158.783 305.312,159.529 307.856,161.03C310.734,162.563 312.812,165.424 313.387,168.629C314.263,172.53 313.449,176.541 313.366,180.487C311.996,204.027 309.927,227.524 308.815,251.078C308.337,260.884 308.989,270.691 309.058,280.496C309.02,285.561 308.887,290.713 307.194,295.545C304.727,303.316 301.649,310.883 298.395,318.352C292.712,330.928 287.262,343.612 281.208,356.018C277.864,362.908 274.687,369.877 271.382,376.785C269.76,380.721 269.801,385.065 270.158,389.238C271.201,403.392 272.596,417.515 273.918,431.644C273.83,434.842 275.123,437.953 274.477,441.114C272.589,446.151 270.702,447.413 267.877,449.638C263.076,452.048 261.31,452.846 258.052,453.72C251.828,455.548 246.667,456.45 240.038,457.365C176.369,462.432 173.806,455.927 170.2,451.092C167.273,447.234 166.707,442.467 166.165,439.728C165.29,436.24 164.889,432.671 164.75,429.082C164.228,425.565 162.755,422.212 160.389,419.535C154.959,413.074 149.148,406.938 143.655,400.528C135.665,391.522 127.738,382.404 121.027,372.383C117.284,366.855 114.481,360.764 111.112,355.011C106.338,345.506 101.444,336.062 96.32,326.74C88.687,312.51 81.054,298.28 73.421,284.05C67.113,275.271 60.762,266.516 53.889,258.164C43.23,244.923 32.484,231.751 21.693,218.616C18.813,214.745 16.555,210.47 14.067,206.347C12.559,202.14 10.307,197.792 11.303,193.194C13.454,188.837 17.835,185.419 22.799,185.236C26.945,184.554 30.215,187.802 33.076,190.299C37.938,194.453 41.989,199.425 46.316,204.108C60.961,220.461 75.744,236.688 90.443,252.991C93.037,255.081 95.827,257.438 99.286,257.744C102.495,258.293 105.413,255.873 106.249,252.881C107.968,248.791 105.951,244.471 104.718,240.551C101.968,232.419 98.869,224.412 95.632,216.463C92.19,207.303 88.719,198.154 85.618,188.871C81.198,176.08 77.137,163.168 72.915,150.312C69.499,139.66 66.022,129.024 62.86,118.294C61.848,114.156 60.034,110.015 60.658,105.673C60.806,102.425 62.663,99.538 65.103,97.5C67.222,95.775 69.976,95.052 72.648,94.822C75.76,94.653 78.919,95.614 81.269,97.696C83.934,100.278 85.313,103.733 86.666,107.109C98.466,134.84 109.585,162.852 120.95,190.762C123.244,196.832 125.659,202.861 127.88,208.955C128.743,211.819 129.396,215.24 132.128,216.936C135.37,219.136 138.706,214.225 137.198,211.321C135.814,206.97 133.883,202.829 132.433,198.504C125.742,180.709 119.1,162.895 112.652,145.01C104.971,123.978 97.319,102.934 89.669,81.89C88.842,78.049 87.405,74.023 88.639,70.107C89.76,66.751 91.976,63.579 94.975,61.663C97.941,59.882 101.433,59.534 104.812,59.342C105.475,59.378 106.138,59.415 106.802,59.452L106.801,59.452L106.801,59.452Z" style="fill-rule:nonzero;stroke:black;stroke-width:2.12px;"/>
        </g>
    </g>
</svg>
