  0
SECTION
  2
HEADER
  9
$ACADVER
  1
AC1009
  9
$DWGCODEPAGE
  3
ansi_1252
  9
$INSBASE
 10
0.0
 20
0.0
 30
0.0
  9
$EXTMIN
 10
0.176531639111829
 20
-50.17709332272217
 30
0.0
  9
$EXTMAX
 10
80.57695768084336
 20
-0.1764275761000462
 30
0.0
  9
$LIMMIN
 10
0.0
 20
0.0
  9
$LIMMAX
 10
12.0
 20
9.0
  9
$ORTHOMODE
 70
     0
  9
$REGENMODE
 70
     1
  9
$FILLMODE
 70
     1
  9
$QTEXTMODE
 70
     0
  9
$MIRRTEXT
 70
     1
  9
$DRAGMODE
 70
     2
  9
$LTSCALE
 40
1.0
  9
$OSMODE
 70
   511
  9
$ATTMODE
 70
     1
  9
$TEXTSIZE
 40
0.2
  9
$TRACEWID
 40
0.05
  9
$TEXTSTYLE
  7
STANDARD
  9
$CLAYER
  8
0
  9
$CELTYPE
  6
BYBLOCK
  9
$CECOLOR
 62
   256
  9
$DIMSCALE
 40
1.0
  9
$DIMASZ
 40
0.18
  9
$DIMEXO
 40
0.0625
  9
$DIMDLI
 40
0.38
  9
$DIMRND
 40
0.0
  9
$DIMDLE
 40
0.0
  9
$DIMEXE
 40
0.18
  9
$DIMTP
 40
0.0
  9
$DIMTM
 40
0.0
  9
$DIMTXT
 40
0.18
  9
$DIMCEN
 40
0.09
  9
$DIMTSZ
 40
0.0
  9
$DIMTOL
 70
     0
  9
$DIMLIM
 70
     0
  9
$DIMTIH
 70
     1
  9
$DIMTOH
 70
     1
  9
$DIMSE1
 70
     0
  9
$DIMSE2
 70
     0
  9
$DIMTAD
 70
     0
  9
$DIMZIN
 70
     0
  9
$DIMBLK
  1

  9
$DIMASO
 70
     1
  9
$DIMSHO
 70
     1
  9
$DIMPOST
  1

  9
$DIMAPOST
  1

  9
$DIMALT
 70
     0
  9
$DIMALTD
 70
     2
  9
$DIMALTF
 40
25.4
  9
$DIMLFAC
 40
1.0
  9
$DIMTOFL
 70
     0
  9
$DIMTVP
 40
0.0
  9
$DIMTIX
 70
     0
  9
$DIMSOXD
 70
     0
  9
$DIMSAH
 70
     0
  9
$DIMBLK1
  1

  9
$DIMBLK2
  1

  9
$DIMSTYLE
  2
STANDARD
  9
$DIMCLRD
 70
     0
  9
$DIMCLRE
 70
     0
  9
$DIMCLRT
 70
     0
  9
$DIMTFAC
 40
1.0
  9
$DIMGAP
 40
0.09
  9
$LUNITS
 70
     2
  9
$LUPREC
 70
     4
  9
$SKETCHINC
 40
0.1
  9
$FILLETRAD
 40
0.5
  9
$AUNITS
 70
     0
  9
$AUPREC
 70
     0
  9
$MENU
  1
.
  9
$ELEVATION
 40
0.0
  9
$PELEVATION
 40
0.0
  9
$THICKNESS
 40
0.0
  9
$LIMCHECK
 70
     0
  9
$CHAMFERA
 40
0.0
  9
$CHAMFERB
 40
0.0
  9
$SKPOLY
 70
     0
  9
$TDCREATE
 40
0.0
  9
$TDUPDATE
 40
2458517.782959085
  9
$TDINDWG
 40
0.0000003009
  9
$TDUSRTIMER
 40
0.0000905556
  9
$USRTIMER
 70
     1
  9
$ANGBASE
 50
0.0
  9
$ANGDIR
 70
     0
  9
$PDMODE
 70
     0
  9
$PDSIZE
 40
0.0
  9
$PLINEWID
 40
0.0
  9
$COORDS
 70
     1
  9
$SPLFRAME
 70
     0
  9
$SPLINETYPE
 70
     6
  9
$SPLINESEGS
 70
     8
  9
$ATTDIA
 70
     0
  9
$ATTREQ
 70
     1
  9
$HANDLING
 70
     1
  9
$HANDSEED
  5
1059C
  9
$SURFTAB1
 70
     6
  9
$SURFTAB2
 70
     6
  9
$SURFTYPE
 70
     6
  9
$SURFU
 70
     6
  9
$SURFV
 70
     6
  9
$UCSNAME
  2

  9
$UCSORG
 10
0.0
 20
0.0
 30
0.0
  9
$UCSXDIR
 10
1.0
 20
0.0
 30
0.0
  9
$UCSYDIR
 10
0.0
 20
1.0
 30
0.0
  9
$PUCSNAME
  2

  9
$PUCSORG
 10
0.0
 20
0.0
 30
0.0
  9
$PUCSXDIR
 10
1.0
 20
0.0
 30
0.0
  9
$PUCSYDIR
 10
0.0
 20
1.0
 30
0.0
  9
$USERI1
 70
     0
  9
$USERI2
 70
     0
  9
$USERI3
 70
     0
  9
$USERI4
 70
     0
  9
$USERI5
 70
     0
  9
$USERR1
 40
0.0
  9
$USERR2
 40
0.0
  9
$USERR3
 40
0.0
  9
$USERR4
 40
0.0
  9
$USERR5
 40
0.0
  9
$WORLDVIEW
 70
     1
  9
$SHADEDGE
 70
     3
  9
$SHADEDIF
 70
    70
  9
$TILEMODE
 70
     1
  9
$MAXACTVP
 70
    64
  9
$PLIMCHECK
 70
     0
  9
$PEXTMIN
 10
1.000000000000000E+20
 20
1.000000000000000E+20
 30
1.000000000000000E+20
  9
$PEXTMAX
 10
-1.000000000000000E+20
 20
-1.000000000000000E+20
 30
-1.000000000000000E+20
  9
$PLIMMIN
 10
0.0
 20
0.0
  9
$PLIMMAX
 10
0.0
 20
0.0
  9
$UNITMODE
 70
     0
  9
$VISRETAIN
 70
     1
  9
$PLINEGEN
 70
     0
  9
$PSLTSCALE
 70
     1
  0
ENDSEC
  0
SECTION
  2
TABLES
  0
TABLE
  2
VPORT
 70
     1
  0
VPORT
  2
*ACTIVE
 70
     0
 10
0.0
 20
0.0
 11
1.0
 21
1.0
 12
10.42990654205607
 22
4.5
 13
0.0
 23
0.0
 14
0.5
 24
0.5
 15
0.5
 25
0.5
 16
0.0
 26
0.0
 36
1.0
 17
0.0
 27
0.0
 37
0.0
 40
9.0
 41
1.972972972850329
 42
50.0
 43
0.0
 44
0.0
 50
0.0
 51
0.0
 71
     0
 72
   100
 73
     1
 74
     3
 75
     0
 76
     0
 77
     0
 78
     0
  0
ENDTAB
  0
TABLE
  2
LTYPE
 70
     1
  0
LTYPE
  2
CONTINUOUS
 70
     0
  3
Solid line
 72
    65
 73
     0
 40
0.0
  0
ENDTAB
  0
TABLE
  2
LAYER
 70
     1
  0
LAYER
  2
0
 70
     0
 62
     7
  6
CONTINUOUS
  0
ENDTAB
  0
TABLE
  2
STYLE
 70
     1
  0
STYLE
  2
STANDARD
 70
     0
 40
0.2
 41
1.0
 50
0.0
 71
     0
 42
0.2
  3

  4

  0
ENDTAB
  0
TABLE
  2
VIEW
 70
     0
  0
ENDTAB
  0
TABLE
  2
UCS
 70
     0
  0
ENDTAB
  0
TABLE
  2
APPID
 70
     1
  0
APPID
  2
ACAD
 70
     0
  0
ENDTAB
  0
TABLE
  2
DIMSTYLE
 70
     1
  0
DIMSTYLE
  2
STANDARD
 70
     0
  3

  4

  5

  6

  7

 40
1.0
 41
0.18
 42
0.0625
 43
0.38
 44
0.18
 45
0.0
 46
0.0
 47
0.0
 48
0.0
140
0.18
141
0.09
142
0.0
143
25.4
144
1.0
145
0.0
146
1.0
147
0.09
 71
     0
 72
     0
 73
     1
 74
     1
 75
     0
 76
     0
 77
     0
 78
     0
170
     0
171
     2
172
     0
173
     0
174
     0
175
     0
176
     0
177
     0
178
     0
  0
ENDTAB
  0
ENDSEC
  0
SECTION
  2
BLOCKS
  0
BLOCK
  8
0
  2
$MODEL_SPACE
 70
     0
 10
0.0
 20
0.0
 30
0.0
  3
$MODEL_SPACE
  1

  0
ENDBLK
  5
21
  8
0
  0
BLOCK
 67
     1
  8
0
  2
$PAPER_SPACE
 70
     0
 10
0.0
 20
0.0
 30
0.0
  3
$PAPER_SPACE
  1

  0
ENDBLK
  5
1D
 67
     1
  8
0
  0
ENDSEC
  0
SECTION
  2
ENTITIES
  0
LINE
  5
100
  8
0
 10
79.50429291848519
 20
-32.86587083487448
 30
0.0
 11
79.36100203075681
 21
-32.86587083487448
 31
0.0
  0
LINE
  5
101
  8
0
 10
79.36100203075681
 20
-32.86587083487448
 30
0.0
 11
79.36100203075682
 21
-1.24915287955857
 31
0.0
  0
POLYLINE
  5
102
  8
0
 66
     1
 10
0.0
 20
0.0
 30
0.0
  0
VERTEX
  5
1004D
  8
0
 10
79.36100203075681
 20
-1.249152879558573
 30
0.0
  0
VERTEX
  5
1004E
  8
0
 10
79.35852588869933
 20
-1.175709099418368
 30
0.0
  0
VERTEX
  5
1004F
  8
0
 10
79.35120412992006
 20
-1.103593868069384
 30
0.0
  0
VERTEX
  5
10050
  8
0
 10
79.33919675550885
 20
-1.032966918992882
 30
0.0
  0
VERTEX
  5
10051
  8
0
 10
79.3226637665555
 20
-0.9639879856701231
 30
0.0
  0
VERTEX
  5
10052
  8
0
 10
79.30176516414974
 20
-0.8968168015823673
 30
0.0
  0
VERTEX
  5
10053
  8
0
 10
79.27666094938145
 20
-0.8316131002108746
 30
0.0
  0
VERTEX
  5
10054
  8
0
 10
79.24751112334042
 20
-0.7685366150369061
 30
0.0
  0
VERTEX
  5
10055
  8
0
 10
79.21447568711646
 20
-0.7077470795417216
 30
0.0
  0
VERTEX
  5
10056
  8
0
 10
79.17771464179934
 20
-0.6494042272065814
 30
0.0
  0
VERTEX
  5
10057
  8
0
 10
79.13738798847888
 20
-0.593667791512746
 30
0.0
  0
VERTEX
  5
10058
  8
0
 10
79.09365572824491
 20
-0.5406975059414761
 30
0.0
  0
VERTEX
  5
10059
  8
0
 10
79.04667786218721
 20
-0.4906531039740319
 30
0.0
  0
VERTEX
  5
1005A
  8
0
 10
78.99661439139558
 20
-0.4436943190916735
 30
0.0
  0
VERTEX
  5
1005B
  8
0
 10
78.94362531695982
 20
-0.3999808847756615
 30
0.0
  0
VERTEX
  5
1005C
  8
0
 10
78.88787063996978
 20
-0.3596725345072562
 30
0.0
  0
VERTEX
  5
1005D
  8
0
 10
78.8295103615152
 20
-0.3229290017677179
 30
0.0
  0
VERTEX
  5
1005E
  8
0
 10
78.76870448268593
 20
-0.2899100200383071
 30
0.0
  0
VERTEX
  5
1005F
  8
0
 10
78.70561300457175
 20
-0.2607753228002841
 30
0.0
  0
VERTEX
  5
10060
  8
0
 10
78.64039592826246
 20
-0.2356846435349093
 30
0.0
  0
VERTEX
  5
10061
  8
0
 10
78.5732132548479
 20
-0.214797715723443
 30
0.0
  0
VERTEX
  5
10062
  8
0
 10
78.50422498541785
 20
-0.1982742728471456
 30
0.0
  0
VERTEX
  5
10063
  8
0
 10
78.43359112106211
 20
-0.1862740483872775
 30
0.0
  0
VERTEX
  5
10064
  8
0
 10
78.36147166287049
 20
-0.1789567758250989
 30
0.0
  0
VERTEX
  5
10065
  8
0
 10
78.28802661193278
 20
-0.1764821886418704
 30
0.0
  0
SEQEND
  5
10567
  8
0
  0
LINE
  5
103
  8
0
 10
78.28802661193278
 20
-0.1764821886418703
 30
0.0
 11
2.465144937286388
 21
-0.1764821886418554
 31
0.0
  0
POLYLINE
  5
104
  8
0
 66
     1
 10
0.0
 20
0.0
 30
0.0
  0
VERTEX
  5
10066
  8
0
 10
2.465144937286391
 20
-0.1764821886418554
 30
0.0
  0
VERTEX
  5
10067
  8
0
 10
2.391700709073418
 20
-0.1789567758250838
 30
0.0
  0
VERTEX
  5
10068
  8
0
 10
2.319581945977832
 20
-0.1862740483872623
 30
0.0
  0
VERTEX
  5
10069
  8
0
 10
2.248948657323546
 20
-0.1982742728471304
 30
0.0
  0
VERTEX
  5
1006A
  8
0
 10
2.179960852434473
 20
-0.2147977157234278
 30
0.0
  0
VERTEX
  5
1006B
  8
0
 10
2.112778540634526
 20
-0.235684643534894
 30
0.0
  0
VERTEX
  5
1006C
  8
0
 10
2.047561731247617
 20
-0.2607753228002689
 30
0.0
  0
VERTEX
  5
1006D
  8
0
 10
1.984470433597662
 20
-0.2899100200382919
 30
0.0
  0
VERTEX
  5
1006E
  8
0
 10
1.923664657008572
 20
-0.3229290017677027
 30
0.0
  0
VERTEX
  5
1006F
  8
0
 10
1.865304410804262
 20
-0.359672534507241
 30
0.0
  0
VERTEX
  5
10070
  8
0
 10
1.809549704308643
 20
-0.3999808847756464
 30
0.0
  0
VERTEX
  5
10071
  8
0
 10
1.75656054684563
 20
-0.4436943190916585
 30
0.0
  0
VERTEX
  5
10072
  8
0
 10
1.706496947739136
 20
-0.4906531039740168
 30
0.0
  0
VERTEX
  5
10073
  8
0
 10
1.659518916313073
 20
-0.540697505941461
 30
0.0
  0
VERTEX
  5
10074
  8
0
 10
1.615786461891355
 20
-0.593667791512731
 30
0.0
  0
VERTEX
  5
10075
  8
0
 10
1.575459593797895
 20
-0.6494042272065662
 30
0.0
  0
VERTEX
  5
10076
  8
0
 10
1.538698321356607
 20
-0.7077470795417062
 30
0.0
  0
VERTEX
  5
10077
  8
0
 10
1.505662653891403
 20
-0.7685366150368906
 30
0.0
  0
VERTEX
  5
10078
  8
0
 10
1.476512600726196
 20
-0.8316131002108593
 30
0.0
  0
VERTEX
  5
10079
  8
0
 10
1.451408171184901
 20
-0.8968168015823518
 30
0.0
  0
VERTEX
  5
1007A
  8
0
 10
1.43050937459143
 20
-0.9639879856701076
 30
0.0
  0
VERTEX
  5
1007B
  8
0
 10
1.413976220269696
 20
-1.032966918992867
 30
0.0
  0
VERTEX
  5
1007C
  8
0
 10
1.401968717543613
 20
-1.103593868069368
 30
0.0
  0
VERTEX
  5
1007D
  8
0
 10
1.394646875737093
 20
-1.175709099418352
 30
0.0
  0
VERTEX
  5
1007E
  8
0
 10
1.39217070417405
 20
-1.249152879558558
 30
0.0
  0
SEQEND
  5
10568
  8
0
  0
LINE
  5
105
  8
0
 10
1.39217070417405
 20
-1.249152879558558
 30
0.0
 11
1.392170704174035
 21
-32.86587083487446
 31
0.0
  0
LINE
  5
106
  8
0
 10
1.392170704174035
 20
-32.86587083487446
 30
0.0
 11
1.249505872224171
 21
-32.86587083487446
 31
0.0
  0
POLYLINE
  5
107
  8
0
 66
     1
 10
0.0
 20
0.0
 30
0.0
  0
VERTEX
  5
1007F
  8
0
 10
1.249505872224171
 20
-32.86587083487446
 30
0.0
  0
VERTEX
  5
10080
  8
0
 10
1.176024619339901
 20
-32.86849596936106
 30
0.0
  0
VERTEX
  5
10081
  8
0
 10
1.103875130666433
 20
-32.87625840770656
 30
0.0
  0
VERTEX
  5
10082
  8
0
 10
1.03321699558812
 20
-32.88898870223959
 30
0.0
  0
VERTEX
  5
10083
  8
0
 10
0.9642098034893127
 20
-32.90651740528873
 30
0.0
  0
VERTEX
  5
10084
  8
0
 10
0.8970131437543638
 20
-32.92867506918259
 30
0.0
  0
VERTEX
  5
10085
  8
0
 10
0.8317866057676253
 20
-32.95529224624976
 30
0.0
  0
VERTEX
  5
10086
  8
0
 10
0.76868977891345
 20
-32.98619948881885
 30
0.0
  0
VERTEX
  5
10087
  8
0
 10
0.7078822525761894
 20
-33.02122734921846
 30
0.0
  0
VERTEX
  5
10088
  8
0
 10
0.649523616140196
 20
-33.06020637977718
 30
0.0
  0
VERTEX
  5
10089
  8
0
 10
0.5937734589898218
 20
-33.10296713282362
 30
0.0
  0
VERTEX
  5
1008A
  8
0
 10
0.5407913705094193
 20
-33.14934016068638
 30
0.0
  0
VERTEX
  5
1008B
  8
0
 10
0.4907369400833405
 20
-33.19915601569405
 30
0.0
  0
VERTEX
  5
1008C
  8
0
 10
0.4437697570959374
 20
-33.25224525017525
 30
0.0
  0
VERTEX
  5
1008D
  8
0
 10
0.4000494109315623
 20
-33.30843841645856
 30
0.0
  0
VERTEX
  5
1008E
  8
0
 10
0.3597354909745674
 20
-33.36756606687258
 30
0.0
  0
VERTEX
  5
1008F
  8
0
 10
0.3229875866093049
 20
-33.42945875374593
 30
0.0
  0
VERTEX
  5
10090
  8
0
 10
0.2899652872201269
 20
-33.4939470294072
 30
0.0
  0
VERTEX
  5
10091
  8
0
 10
0.2608281821913855
 20
-33.56086144618497
 30
0.0
  0
VERTEX
  5
10092
  8
0
 10
0.235735860907433
 20
-33.63003255640787
 30
0.0
  0
VERTEX
  5
10093
  8
0
 10
0.2148479127526216
 20
-33.70129091240449
 30
0.0
  0
VERTEX
  5
10094
  8
0
 10
0.1983239271113033
 20
-33.77446706650343
 30
0.0
  0
VERTEX
  5
10095
  8
0
 10
0.1863234933678304
 20
-33.84939157103328
 30
0.0
  0
VERTEX
  5
10096
  8
0
 10
0.179006200906555
 20
-33.92589497832265
 30
0.0
  0
VERTEX
  5
10097
  8
0
 10
0.1765316391118294
 20
-34.00380784070014
 30
0.0
  0
SEQEND
  5
10569
  8
0
  0
LINE
  5
108
  8
0
 10
0.1765316391118294
 20
-34.00380784070014
 30
0.0
 11
0.1765316391118294
 21
-45.53363522821044
 31
0.0
  0
POLYLINE
  5
109
  8
0
 66
     1
 10
0.0
 20
0.0
 30
0.0
  0
VERTEX
  5
10098
  8
0
 10
0.1765316391118294
 20
-45.53363522821044
 30
0.0
  0
VERTEX
  5
10099
  8
0
 10
0.1790062009065549
 20
-45.61151112630011
 30
0.0
  0
VERTEX
  5
1009A
  8
0
 10
0.1863234933678303
 20
-45.68798062415609
 30
0.0
  0
VERTEX
  5
1009B
  8
0
 10
0.1983239271113031
 20
-45.76287414236128
 30
0.0
  0
VERTEX
  5
1009C
  8
0
 10
0.2148479127526214
 20
-45.83602210149853
 30
0.0
  0
VERTEX
  5
1009D
  8
0
 10
0.2357358609074328
 20
-45.90725492215066
 30
0.0
  0
VERTEX
  5
1009E
  8
0
 10
0.2608281821913854
 20
-45.97640302490055
 30
0.0
  0
VERTEX
  5
1009F
  8
0
 10
0.2899652872201267
 20
-46.04329683033104
 30
0.0
  0
VERTEX
  5
100A0
  8
0
 10
0.3229875866093047
 20
-46.10776675902503
 30
0.0
  0
VERTEX
  5
100A1
  8
0
 10
0.3597354909745674
 20
-46.16964323156531
 30
0.0
  0
VERTEX
  5
100A2
  8
0
 10
0.4000494109315623
 20
-46.22875666853479
 30
0.0
  0
VERTEX
  5
100A3
  8
0
 10
0.4437697570959374
 20
-46.28493749051629
 30
0.0
  0
VERTEX
  5
100A4
  8
0
 10
0.4907369400833405
 20
-46.3380161180927
 30
0.0
  0
VERTEX
  5
100A5
  8
0
 10
0.5407913705094194
 20
-46.38782297184684
 30
0.0
  0
VERTEX
  5
100A6
  8
0
 10
0.5937734589898218
 20
-46.43418847236158
 30
0.0
  0
VERTEX
  5
100A7
  8
0
 10
0.6495236161401959
 20
-46.47694304021979
 30
0.0
  0
VERTEX
  5
100A8
  8
0
 10
0.7078822525761892
 20
-46.51591709600429
 30
0.0
  0
VERTEX
  5
100A9
  8
0
 10
0.7686897789134497
 20
-46.55094106029797
 30
0.0
  0
VERTEX
  5
100AA
  8
0
 10
0.8317866057676251
 20
-46.58184535368368
 30
0.0
  0
VERTEX
  5
100AB
  8
0
 10
0.8970131437543631
 20
-46.60846039674426
 30
0.0
  0
VERTEX
  5
100AC
  8
0
 10
0.964209803489312
 20
-46.63061661006257
 30
0.0
  0
VERTEX
  5
100AD
  8
0
 10
1.033216995588119
 20
-46.64814441422148
 30
0.0
  0
VERTEX
  5
100AE
  8
0
 10
1.103875130666433
 20
-46.66087422980383
 30
0.0
  0
VERTEX
  5
100AF
  8
0
 10
1.1760246193399
 20
-46.66863647739248
 30
0.0
  0
VERTEX
  5
100B0
  8
0
 10
1.249505872224171
 20
-46.67126157757028
 30
0.0
  0
SEQEND
  5
1056A
  8
0
  0
LINE
  5
110
  8
0
 10
1.249505872224171
 20
-46.67126157757028
 30
0.0
 11
1.427922283404032
 21
-46.67126157757028
 31
0.0
  0
LINE
  5
111
  8
0
 10
1.427922283404032
 20
-46.67126157757028
 30
0.0
 11
1.427922283404032
 21
-49.10348353420925
 31
0.0
  0
POLYLINE
  5
112
  8
0
 66
     1
 10
0.0
 20
0.0
 30
0.0
  0
VERTEX
  5
100B1
  8
0
 10
1.427922283404032
 20
-49.10348353420925
 30
0.0
  0
VERTEX
  5
100B2
  8
0
 10
1.430398407620948
 20
-49.17692886339123
 30
0.0
  0
VERTEX
  5
100B3
  8
0
 10
1.437720115623195
 20
-49.24904856483214
 30
0.0
  0
VERTEX
  5
100B4
  8
0
 10
1.449727410438026
 20
-49.31968263950075
 30
0.0
  0
VERTEX
  5
100B5
  8
0
 10
1.466260295092688
 20
-49.38867108836578
 30
0.0
  0
VERTEX
  5
100B6
  8
0
 10
1.487158772614435
 20
-49.45585391239593
 30
0.0
  0
VERTEX
  5
100B7
  8
0
 10
1.512262846030514
 20
-49.52107111255992
 30
0.0
  0
VERTEX
  5
100B8
  8
0
 10
1.541412518368177
 20
-49.58416268982649
 30
0.0
  0
VERTEX
  5
100B9
  8
0
 10
1.574447792654674
 20
-49.64496864516437
 30
0.0
  0
VERTEX
  5
100BA
  8
0
 10
1.611208671917256
 20
-49.70332897954226
 30
0.0
  0
VERTEX
  5
100BB
  8
0
 10
1.651535159183173
 20
-49.75908369392891
 30
0.0
  0
VERTEX
  5
100BC
  8
0
 10
1.695267257479675
 20
-49.812072789293
 30
0.0
  0
VERTEX
  5
100BD
  8
0
 10
1.742244969834013
 20
-49.86213626660331
 30
0.0
  0
VERTEX
  5
100BE
  8
0
 10
1.792308299273436
 20
-49.90911412682851
 30
0.0
  0
VERTEX
  5
100BF
  8
0
 10
1.845297248825196
 20
-49.95284637093737
 30
0.0
  0
VERTEX
  5
100C0
  8
0
 10
1.901051821516542
 20
-49.99317299989858
 30
0.0
  0
VERTEX
  5
100C1
  8
0
 10
1.959412020374726
 20
-50.02993401468088
 30
0.0
  0
VERTEX
  5
100C2
  8
0
 10
2.020217848426997
 20
-50.06296941625297
 30
0.0
  0
VERTEX
  5
100C3
  8
0
 10
2.083309308700605
 20
-50.0921192055836
 30
0.0
  0
VERTEX
  5
100C4
  8
0
 10
2.148526404222803
 20
-50.11722338364147
 30
0.0
  0
VERTEX
  5
100C5
  8
0
 10
2.215709138020838
 20
-50.13812195139533
 30
0.0
  0
VERTEX
  5
100C6
  8
0
 10
2.284697513121962
 20
-50.15465490981389
 30
0.0
  0
VERTEX
  5
100C7
  8
0
 10
2.355331532553426
 20
-50.16666225986587
 30
0.0
  0
VERTEX
  5
100C8
  8
0
 10
2.427451199342479
 20
-50.17398400251999
 30
0.0
  0
VERTEX
  5
100C9
  8
0
 10
2.500896516516373
 20
-50.17646013874499
 30
0.0
  0
SEQEND
  5
1056B
  8
0
  0
LINE
  5
113
  8
0
 10
2.500896516516373
 20
-50.176460138745
 30
0.0
 11
78.25228096126128
 21
-50.17646013874501
 31
0.0
  0
POLYLINE
  5
114
  8
0
 66
     1
 10
0.0
 20
0.0
 30
0.0
  0
VERTEX
  5
100CA
  8
0
 10
78.25228096126128
 20
-50.176460138745
 30
0.0
  0
VERTEX
  5
100CB
  8
0
 10
78.3257261483191
 20
-50.17398400252002
 30
0.0
  0
VERTEX
  5
100CC
  8
0
 10
78.3978457194724
 20
-50.16666225986589
 30
0.0
  0
VERTEX
  5
100CD
  8
0
 10
78.46847967517529
 20
-50.15465490981391
 30
0.0
  0
VERTEX
  5
100CE
  8
0
 10
78.53746801588187
 20
-50.13812195139536
 30
0.0
  0
VERTEX
  5
100CF
  8
0
 10
78.60465074204619
 20
-50.1172233836415
 30
0.0
  0
VERTEX
  5
100D0
  8
0
 10
78.66986785412237
 20
-50.09211920558361
 30
0.0
  0
VERTEX
  5
100D1
  8
0
 10
78.73295935256452
 20
-50.06296941625298
 30
0.0
  0
VERTEX
  5
100D2
  8
0
 10
78.79376523782669
 20
-50.02993401468089
 30
0.0
  0
VERTEX
  5
100D3
  8
0
 10
78.85212551036298
 20
-49.99317299989859
 30
0.0
  0
VERTEX
  5
100D4
  8
0
 10
78.90788017062754
 20
-49.95284637093739
 30
0.0
  0
VERTEX
  5
100D5
  8
0
 10
78.96086921907435
 20
-49.90911412682853
 30
0.0
  0
VERTEX
  5
100D6
  8
0
 10
79.0109326561576
 20
-49.86213626660332
 30
0.0
  0
VERTEX
  5
100D7
  8
0
 10
79.05791048233135
 20
-49.81207278929303
 30
0.0
  0
VERTEX
  5
100D8
  8
0
 10
79.10164269804967
 20
-49.75908369392892
 30
0.0
  0
VERTEX
  5
100D9
  8
0
 10
79.14196930376667
 20
-49.70332897954228
 30
0.0
  0
VERTEX
  5
100DA
  8
0
 10
79.17873029993646
 20
-49.64496864516438
 30
0.0
  0
VERTEX
  5
100DB
  8
0
 10
79.2117656870131
 20
-49.58416268982651
 30
0.0
  0
VERTEX
  5
100DC
  8
0
 10
79.24091546545068
 20
-49.52107111255994
 30
0.0
  0
VERTEX
  5
100DD
  8
0
 10
79.26601963570332
 20
-49.45585391239593
 30
0.0
  0
VERTEX
  5
100DE
  8
0
 10
79.28691819822508
 20
-49.38867108836579
 30
0.0
  0
VERTEX
  5
100DF
  8
0
 10
79.30345115347006
 20
-49.31968263950078
 30
0.0
  0
VERTEX
  5
100E0
  8
0
 10
79.31545850189238
 20
-49.24904856483217
 30
0.0
  0
VERTEX
  5
100E1
  8
0
 10
79.3227802439461
 20
-49.17692886339123
 30
0.0
  0
VERTEX
  5
100E2
  8
0
 10
79.32525638008532
 20
-49.10348353420926
 30
0.0
  0
SEQEND
  5
1056C
  8
0
  0
LINE
  5
115
  8
0
 10
79.32525638008532
 20
-49.10348353420927
 30
0.0
 11
79.32525638008532
 21
-46.67126157757028
 31
0.0
  0
LINE
  5
116
  8
0
 10
79.32525638008532
 20
-46.67126157757028
 30
0.0
 11
79.50429291848519
 21
-46.67126157757029
 31
0.0
  0
POLYLINE
  5
117
  8
0
 66
     1
 10
0.0
 20
0.0
 30
0.0
  0
VERTEX
  5
100E3
  8
0
 10
79.50429291848519
 20
-46.67126157757029
 30
0.0
  0
VERTEX
  5
100E4
  8
0
 10
79.57773653248509
 20
-46.66863647739249
 30
0.0
  0
VERTEX
  5
100E5
  8
0
 10
79.6498515642427
 20
-46.66087422980384
 30
0.0
  0
VERTEX
  5
100E6
  8
0
 10
79.72047828387919
 20
-46.64814441422149
 30
0.0
  0
VERTEX
  5
100E7
  8
0
 10
79.78945696151571
 20
-46.6306166100626
 30
0.0
  0
VERTEX
  5
100E8
  8
0
 10
79.85662786727343
 20
-46.60846039674428
 30
0.0
  0
VERTEX
  5
100E9
  8
0
 10
79.9218312712735
 20
-46.5818453536837
 30
0.0
  0
VERTEX
  5
100EA
  8
0
 10
79.98490744363708
 20
-46.55094106029799
 30
0.0
  0
VERTEX
  5
100EB
  8
0
 10
80.04569665448538
 20
-46.51591709600432
 30
0.0
  0
VERTEX
  5
100EC
  8
0
 10
80.1040391739395
 20
-46.47694304021979
 30
0.0
  0
VERTEX
  5
100ED
  8
0
 10
80.15977527212063
 20
-46.43418847236159
 30
0.0
  0
VERTEX
  5
100EE
  8
0
 10
80.21274521914995
 20
-46.38782297184685
 30
0.0
  0
VERTEX
  5
100EF
  8
0
 10
80.26278928514859
 20
-46.33801611809271
 30
0.0
  0
VERTEX
  5
100F0
  8
0
 10
80.30974774023771
 20
-46.28493749051631
 30
0.0
  0
VERTEX
  5
100F1
  8
0
 10
80.35346085453853
 20
-46.2287566685348
 30
0.0
  0
VERTEX
  5
100F2
  8
0
 10
80.39376889817213
 20
-46.16964323156533
 30
0.0
  0
VERTEX
  5
100F3
  8
0
 10
80.43051214125973
 20
-46.10776675902503
 30
0.0
  0
VERTEX
  5
100F4
  8
0
 10
80.46353085392246
 20
-46.04329683033106
 30
0.0
  0
VERTEX
  5
100F5
  8
0
 10
80.49266530628151
 20
-45.97640302490056
 30
0.0
  0
VERTEX
  5
100F6
  8
0
 10
80.51775576845803
 20
-45.90725492215066
 30
0.0
  0
VERTEX
  5
100F7
  8
0
 10
80.53864251057318
 20
-45.83602210149853
 30
0.0
  0
VERTEX
  5
100F8
  8
0
 10
80.55516580274814
 20
-45.7628741423613
 30
0.0
  0
VERTEX
  5
100F9
  8
0
 10
80.56716591510404
 20
-45.68798062415612
 30
0.0
  0
VERTEX
  5
100FA
  8
0
 10
80.57448311776206
 20
-45.61151112630012
 30
0.0
  0
VERTEX
  5
100FB
  8
0
 10
80.57695768084336
 20
-45.53363522821046
 30
0.0
  0
SEQEND
  5
1056D
  8
0
  0
LINE
  5
118
  8
0
 10
80.57695768084335
 20
-45.53363522821046
 30
0.0
 11
80.57695768084336
 21
-34.00380784070016
 31
0.0
  0
POLYLINE
  5
119
  8
0
 66
     1
 10
0.0
 20
0.0
 30
0.0
  0
VERTEX
  5
100FC
  8
0
 10
80.57695768084336
 20
-34.00380784070015
 30
0.0
  0
VERTEX
  5
100FD
  8
0
 10
80.57448311776207
 20
-33.92589497832267
 30
0.0
  0
VERTEX
  5
100FE
  8
0
 10
80.56716591510401
 20
-33.84939157103329
 30
0.0
  0
VERTEX
  5
100FF
  8
0
 10
80.55516580274812
 20
-33.77446706650344
 30
0.0
  0
VERTEX
  5
10100
  8
0
 10
80.53864251057318
 20
-33.70129091240451
 30
0.0
  0
VERTEX
  5
10101
  8
0
 10
80.51775576845803
 20
-33.63003255640789
 30
0.0
  0
VERTEX
  5
10102
  8
0
 10
80.49266530628151
 20
-33.56086144618499
 30
0.0
  0
VERTEX
  5
10103
  8
0
 10
80.46353085392246
 20
-33.49394702940721
 30
0.0
  0
VERTEX
  5
10104
  8
0
 10
80.43051214125971
 20
-33.42945875374595
 30
0.0
  0
VERTEX
  5
10105
  8
0
 10
80.39376889817211
 20
-33.3675660668726
 30
0.0
  0
VERTEX
  5
10106
  8
0
 10
80.35346085453853
 20
-33.30843841645857
 30
0.0
  0
VERTEX
  5
10107
  8
0
 10
80.30974774023771
 20
-33.25224525017526
 30
0.0
  0
VERTEX
  5
10108
  8
0
 10
80.26278928514859
 20
-33.19915601569407
 30
0.0
  0
VERTEX
  5
10109
  8
0
 10
80.21274521914994
 20
-33.14934016068639
 30
0.0
  0
VERTEX
  5
1010A
  8
0
 10
80.15977527212064
 20
-33.10296713282364
 30
0.0
  0
VERTEX
  5
1010B
  8
0
 10
80.1040391739395
 20
-33.06020637977719
 30
0.0
  0
VERTEX
  5
1010C
  8
0
 10
80.04569665448537
 20
-33.02122734921847
 30
0.0
  0
VERTEX
  5
1010D
  8
0
 10
79.9849074436371
 20
-32.98619948881886
 30
0.0
  0
VERTEX
  5
1010E
  8
0
 10
79.92183127127349
 20
-32.95529224624978
 30
0.0
  0
VERTEX
  5
1010F
  8
0
 10
79.85662786727342
 20
-32.9286750691826
 30
0.0
  0
VERTEX
  5
10110
  8
0
 10
79.7894569615157
 20
-32.90651740528874
 30
0.0
  0
VERTEX
  5
10111
  8
0
 10
79.72047828387919
 20
-32.8889887022396
 30
0.0
  0
VERTEX
  5
10112
  8
0
 10
79.64985156424271
 20
-32.87625840770658
 30
0.0
  0
VERTEX
  5
10113
  8
0
 10
79.57773653248509
 20
-32.86849596936107
 30
0.0
  0
VERTEX
  5
10114
  8
0
 10
79.50429291848519
 20
-32.86587083487448
 30
0.0
  0
SEQEND
  5
1056E
  8
0
  0
POLYLINE
  5
120
  8
0
 66
     1
 10
0.0
 20
0.0
 30
0.0
 70
     1
  0
VERTEX
  5
10115
  8
0
 10
4.861513012235008
 20
-37.24057045396729
 30
0.0
  0
VERTEX
  5
10116
  8
0
 10
75.89171376731771
 20
-37.24057045396729
 30
0.0
  0
VERTEX
  5
10117
  8
0
 10
75.89171376731771
 20
-7.197610312103782
 30
0.0
  0
VERTEX
  5
10118
  8
0
 10
72.45794115423993
 20
-3.764260251786804
 30
0.0
  0
VERTEX
  5
10119
  8
0
 10
8.294863072551983
 20
-3.764260251786804
 30
0.0
  0
VERTEX
  5
1011A
  8
0
 10
4.861513012235006
 20
-7.197610312103779
 30
0.0
  0
SEQEND
  5
1056F
  8
0
  0
LINE
  5
121
  8
0
 10
9.117224035828164
 20
-8.914455033410821
 30
0.0
 11
71.63541137580854
 21
-8.914455033410837
 31
0.0
  0
POLYLINE
  5
122
  8
0
 66
     1
 10
0.0
 20
0.0
 30
0.0
  0
VERTEX
  5
1011B
  8
0
 10
71.63541137580854
 20
-8.914455033410837
 30
0.0
  0
VERTEX
  5
1011C
  8
0
 10
71.65009408209649
 20
-8.914949973368584
 30
0.0
  0
VERTEX
  5
1011D
  8
0
 10
71.66451468863357
 20
-8.916413567095168
 30
0.0
  0
VERTEX
  5
1011E
  8
0
 10
71.6786409506702
 20
-8.918813975370588
 30
0.0
  0
VERTEX
  5
1011F
  8
0
 10
71.6924406234568
 20
-8.922119358974857
 30
0.0
  0
VERTEX
  5
10120
  8
0
 10
71.70588146224375
 20
-8.926297878687977
 30
0.0
  0
VERTEX
  5
10121
  8
0
 10
71.71893122228147
 20
-8.931317695289957
 30
0.0
  0
VERTEX
  5
10122
  8
0
 10
71.73155765882035
 20
-8.937146969560802
 30
0.0
  0
VERTEX
  5
10123
  8
0
 10
71.74372852711083
 20
-8.94375386228052
 30
0.0
  0
VERTEX
  5
10124
  8
0
 10
71.75541158240328
 20
-8.951106534229115
 30
0.0
  0
VERTEX
  5
10125
  8
0
 10
71.76657457994813
 20
-8.959173146186597
 30
0.0
  0
VERTEX
  5
10126
  8
0
 10
71.77718527499574
 20
-8.967921858932966
 30
0.0
  0
VERTEX
  5
10127
  8
0
 10
71.78721142279659
 20
-8.977320833248235
 30
0.0
  0
VERTEX
  5
10128
  8
0
 10
71.79662077860102
 20
-8.987338229912405
 30
0.0
  0
VERTEX
  5
10129
  8
0
 10
71.80538109765948
 20
-8.997942209705489
 30
0.0
  0
VERTEX
  5
1012A
  8
0
 10
71.81346013522233
 20
-9.009100933407487
 30
0.0
  0
VERTEX
  5
1012B
  8
0
 10
71.82082564654002
 20
-9.020782561798406
 30
0.0
  0
VERTEX
  5
1012C
  8
0
 10
71.82744538686292
 20
-9.032955255658257
 30
0.0
  0
VERTEX
  5
1012D
  8
0
 10
71.83328711144145
 20
-9.04558717576704
 30
0.0
  0
VERTEX
  5
1012E
  8
0
 10
71.83831857552602
 20
-9.058646482904766
 30
0.0
  0
VERTEX
  5
1012F
  8
0
 10
71.84250753436703
 20
-9.072101337851441
 30
0.0
  0
VERTEX
  5
10130
  8
0
 10
71.8458217432149
 20
-9.085919901387072
 30
0.0
  0
VERTEX
  5
10131
  8
0
 10
71.84822895732002
 20
-9.100070334291662
 30
0.0
  0
VERTEX
  5
10132
  8
0
 10
71.84969693193278
 20
-9.114520797345218
 30
0.0
  0
VERTEX
  5
10133
  8
0
 10
71.85019342230362
 20
-9.129239451327749
 30
0.0
  0
SEQEND
  5
10570
  8
0
  0
POLYLINE
  5
123
  8
0
 66
     1
 10
0.0
 20
0.0
 30
0.0
  0
VERTEX
  5
10134
  8
0
 10
71.85019342230362
 20
-9.129239451327749
 30
0.0
  0
VERTEX
  5
10135
  8
0
 10
71.84969693193278
 20
-9.143920560542684
 30
0.0
  0
VERTEX
  5
10136
  8
0
 10
71.84822895732002
 20
-9.15833655838338
 30
0.0
  0
VERTEX
  5
10137
  8
0
 10
71.8458217432149
 20
-9.172455473884193
 30
0.0
  0
VERTEX
  5
10138
  8
0
 10
71.84250753436704
 20
-9.186245336079466
 30
0.0
  0
VERTEX
  5
10139
  8
0
 10
71.83831857552603
 20
-9.199674174003547
 30
0.0
  0
VERTEX
  5
1013A
  8
0
 10
71.83328711144146
 20
-9.212710016690789
 30
0.0
  0
VERTEX
  5
1013B
  8
0
 10
71.82744538686292
 20
-9.225320893175539
 30
0.0
  0
VERTEX
  5
1013C
  8
0
 10
71.82082564654
 20
-9.23747483249215
 30
0.0
  0
VERTEX
  5
1013D
  8
0
 10
71.81346013522233
 20
-9.249139863674966
 30
0.0
  0
VERTEX
  5
1013E
  8
0
 10
71.80538109765948
 20
-9.260284015758339
 30
0.0
  0
VERTEX
  5
1013F
  8
0
 10
71.79662077860102
 20
-9.27087531777662
 30
0.0
  0
VERTEX
  5
10140
  8
0
 10
71.78721142279659
 20
-9.280881798764153
 30
0.0
  0
VERTEX
  5
10141
  8
0
 10
71.77718527499576
 20
-9.29027148775529
 30
0.0
  0
VERTEX
  5
10142
  8
0
 10
71.76657457994811
 20
-9.29901241378438
 30
0.0
  0
VERTEX
  5
10143
  8
0
 10
71.75541158240328
 20
-9.307072605885773
 30
0.0
  0
VERTEX
  5
10144
  8
0
 10
71.74372852711083
 20
-9.314420093093819
 30
0.0
  0
VERTEX
  5
10145
  8
0
 10
71.73155765882036
 20
-9.321022904442865
 30
0.0
  0
VERTEX
  5
10146
  8
0
 10
71.71893122228147
 20
-9.32684906896726
 30
0.0
  0
VERTEX
  5
10147
  8
0
 10
71.70588146224375
 20
-9.331866615701355
 30
0.0
  0
VERTEX
  5
10148
  8
0
 10
71.6924406234568
 20
-9.336043573679497
 30
0.0
  0
VERTEX
  5
10149
  8
0
 10
71.6786409506702
 20
-9.339347971936037
 30
0.0
  0
VERTEX
  5
1014A
  8
0
 10
71.66451468863357
 20
-9.341747839505324
 30
0.0
  0
VERTEX
  5
1014B
  8
0
 10
71.65009408209649
 20
-9.343211205421706
 30
0.0
  0
VERTEX
  5
1014C
  8
0
 10
71.63541137580854
 20
-9.343706098719535
 30
0.0
  0
SEQEND
  5
10571
  8
0
  0
LINE
  5
124
  8
0
 10
71.63541137580854
 20
-9.343706098719535
 30
0.0
 11
9.117224035828162
 21
-9.343706098719519
 31
0.0
  0
POLYLINE
  5
125
  8
0
 66
     1
 10
0.0
 20
0.0
 30
0.0
  0
VERTEX
  5
1014D
  8
0
 10
9.117224035828164
 20
-9.343706098719519
 30
0.0
  0
VERTEX
  5
1014E
  8
0
 10
9.102540773052059
 20
-9.34321120542169
 30
0.0
  0
VERTEX
  5
1014F
  8
0
 10
9.088119680016687
 20
-9.341747839505308
 30
0.0
  0
VERTEX
  5
10150
  8
0
 10
9.073992997354594
 20
-9.339347971936022
 30
0.0
  0
VERTEX
  5
10151
  8
0
 10
9.060192965698322
 20
-9.336043573679483
 30
0.0
  0
VERTEX
  5
10152
  8
0
 10
9.046751825680412
 20
-9.33186661570134
 30
0.0
  0
VERTEX
  5
10153
  8
0
 10
9.03370181793341
 20
-9.326849068967244
 30
0.0
  0
VERTEX
  5
10154
  8
0
 10
9.021075183089858
 20
-9.321022904442847
 30
0.0
  0
VERTEX
  5
10155
  8
0
 10
9.008904161782297
 20
-9.314420093093803
 30
0.0
  0
VERTEX
  5
10156
  8
0
 10
8.997220994643273
 20
-9.307072605885757
 30
0.0
  0
VERTEX
  5
10157
  8
0
 10
8.986057922305326
 20
-9.299012413784366
 30
0.0
  0
VERTEX
  5
10158
  8
0
 10
8.975447185400999
 20
-9.290271487755273
 30
0.0
  0
VERTEX
  5
10159
  8
0
 10
8.965421024562838
 20
-9.280881798764137
 30
0.0
  0
VERTEX
  5
1015A
  8
0
 10
8.956011680423382
 20
-9.270875317776603
 30
0.0
  0
VERTEX
  5
1015B
  8
0
 10
8.947251393615176
 20
-9.260284015758323
 30
0.0
  0
VERTEX
  5
1015C
  8
0
 10
8.939172404770762
 20
-9.249139863674952
 30
0.0
  0
VERTEX
  5
1015D
  8
0
 10
8.931806954522681
 20
-9.237474832492133
 30
0.0
  0
VERTEX
  5
1015E
  8
0
 10
8.925187283503483
 20
-9.225320893175526
 30
0.0
  0
VERTEX
  5
1015F
  8
0
 10
8.919345632345701
 20
-9.212710016690773
 30
0.0
  0
VERTEX
  5
10160
  8
0
 10
8.914314241681886
 20
-9.19967417400353
 30
0.0
  0
VERTEX
  5
10161
  8
0
 10
8.910125352144577
 20
-9.186245336079448
 30
0.0
  0
VERTEX
  5
10162
  8
0
 10
8.906811204366317
 20
-9.172455473884177
 30
0.0
  0
VERTEX
  5
10163
  8
0
 10
8.904404038979651
 20
-9.158336558383366
 30
0.0
  0
VERTEX
  5
10164
  8
0
 10
8.902936096617118
 20
-9.143920560542668
 30
0.0
  0
VERTEX
  5
10165
  8
0
 10
8.902439617911266
 20
-9.129239451327733
 30
0.0
  0
SEQEND
  5
10572
  8
0
  0
POLYLINE
  5
126
  8
0
 66
     1
 10
0.0
 20
0.0
 30
0.0
  0
VERTEX
  5
10166
  8
0
 10
8.902439617911266
 20
-9.129239451327733
 30
0.0
  0
VERTEX
  5
10167
  8
0
 10
8.902936096617122
 20
-9.114520797345204
 30
0.0
  0
VERTEX
  5
10168
  8
0
 10
8.904404038979651
 20
-9.100070334291647
 30
0.0
  0
VERTEX
  5
10169
  8
0
 10
8.906811204366317
 20
-9.085919901387054
 30
0.0
  0
VERTEX
  5
1016A
  8
0
 10
8.91012535214458
 20
-9.072101337851429
 30
0.0
  0
VERTEX
  5
1016B
  8
0
 10
8.914314241681886
 20
-9.058646482904752
 30
0.0
  0
VERTEX
  5
1016C
  8
0
 10
8.919345632345701
 20
-9.045587175767025
 30
0.0
  0
VERTEX
  5
1016D
  8
0
 10
8.925187283503483
 20
-9.032955255658239
 30
0.0
  0
VERTEX
  5
1016E
  8
0
 10
8.931806954522683
 20
-9.020782561798391
 30
0.0
  0
VERTEX
  5
1016F
  8
0
 10
8.93917240477076
 20
-9.00910093340747
 30
0.0
  0
VERTEX
  5
10170
  8
0
 10
8.947251393615176
 20
-8.997942209705473
 30
0.0
  0
VERTEX
  5
10171
  8
0
 10
8.956011680423382
 20
-8.98733822991239
 30
0.0
  0
VERTEX
  5
10172
  8
0
 10
8.965421024562836
 20
-8.97732083324822
 30
0.0
  0
VERTEX
  5
10173
  8
0
 10
8.975447185400999
 20
-8.96792185893295
 30
0.0
  0
VERTEX
  5
10174
  8
0
 10
8.986057922305326
 20
-8.959173146186581
 30
0.0
  0
VERTEX
  5
10175
  8
0
 10
8.997220994643273
 20
-8.951106534229101
 30
0.0
  0
VERTEX
  5
10176
  8
0
 10
9.008904161782297
 20
-8.943753862280506
 30
0.0
  0
VERTEX
  5
10177
  8
0
 10
9.02107518308986
 20
-8.937146969560787
 30
0.0
  0
VERTEX
  5
10178
  8
0
 10
9.03370181793341
 20
-8.931317695289941
 30
0.0
  0
VERTEX
  5
10179
  8
0
 10
9.046751825680413
 20
-8.926297878687961
 30
0.0
  0
VERTEX
  5
1017A
  8
0
 10
9.06019296569832
 20
-8.92211935897484
 30
0.0
  0
VERTEX
  5
1017B
  8
0
 10
9.073992997354594
 20
-8.918813975370572
 30
0.0
  0
VERTEX
  5
1017C
  8
0
 10
9.088119680016687
 20
-8.916413567095152
 30
0.0
  0
VERTEX
  5
1017D
  8
0
 10
9.102540773052057
 20
-8.914949973368568
 30
0.0
  0
VERTEX
  5
1017E
  8
0
 10
9.117224035828164
 20
-8.914455033410821
 30
0.0
  0
SEQEND
  5
10573
  8
0
  0
LINE
  5
127
  8
0
 10
9.117224035828164
 20
-14.35983240877728
 30
0.0
 11
71.63541137580854
 21
-14.3598324087773
 31
0.0
  0
POLYLINE
  5
128
  8
0
 66
     1
 10
0.0
 20
0.0
 30
0.0
  0
VERTEX
  5
1017F
  8
0
 10
71.63541137580854
 20
-14.3598324087773
 30
0.0
  0
VERTEX
  5
10180
  8
0
 10
71.65009408209649
 20
-14.36032732609126
 30
0.0
  0
VERTEX
  5
10181
  8
0
 10
71.66451468863357
 20
-14.36179076131135
 30
0.0
  0
VERTEX
  5
10182
  8
0
 10
71.6786409506702
 20
-14.36419073935486
 30
0.0
  0
VERTEX
  5
10183
  8
0
 10
71.6924406234568
 20
-14.36749528513909
 30
0.0
  0
VERTEX
  5
10184
  8
0
 10
71.70588146224375
 20
-14.37167242358133
 30
0.0
  0
VERTEX
  5
10185
  8
0
 10
71.71893122228147
 20
-14.37669017959889
 30
0.0
  0
VERTEX
  5
10186
  8
0
 10
71.73155765882035
 20
-14.38251657810907
 30
0.0
  0
VERTEX
  5
10187
  8
0
 10
71.74372852711083
 20
-14.38911964402914
 30
0.0
  0
VERTEX
  5
10188
  8
0
 10
71.75541158240328
 20
-14.39646740227643
 30
0.0
  0
VERTEX
  5
10189
  8
0
 10
71.76657457994813
 20
-14.40452787776822
 30
0.0
  0
VERTEX
  5
1018A
  8
0
 10
71.77718527499574
 20
-14.41326909542182
 30
0.0
  0
VERTEX
  5
1018B
  8
0
 10
71.78721142279659
 20
-14.42265908015451
 30
0.0
  0
VERTEX
  5
1018C
  8
0
 10
71.79662077860102
 20
-14.43266585688359
 30
0.0
  0
VERTEX
  5
1018D
  8
0
 10
71.80538109765948
 20
-14.44325745052637
 30
0.0
  0
VERTEX
  5
1018E
  8
0
 10
71.81346013522233
 20
-14.45440188600014
 30
0.0
  0
VERTEX
  5
1018F
  8
0
 10
71.82082564654002
 20
-14.4660671882222
 30
0.0
  0
VERTEX
  5
10190
  8
0
 10
71.82744538686292
 20
-14.47822138210985
 30
0.0
  0
VERTEX
  5
10191
  8
0
 10
71.83328711144145
 20
-14.49083249258037
 30
0.0
  0
VERTEX
  5
10192
  8
0
 10
71.83831857552602
 20
-14.50386854455108
 30
0.0
  0
VERTEX
  5
10193
  8
0
 10
71.84250753436703
 20
-14.51729756293926
 30
0.0
  0
VERTEX
  5
10194
  8
0
 10
71.8458217432149
 20
-14.53108757266223
 30
0.0
  0
VERTEX
  5
10195
  8
0
 10
71.84822895732002
 20
-14.54520659863726
 30
0.0
  0
VERTEX
  5
10196
  8
0
 10
71.84969693193278
 20
-14.55962266578166
 30
0.0
  0
VERTEX
  5
10197
  8
0
 10
71.85019342230362
 20
-14.57430379901273
 30
0.0
  0
SEQEND
  5
10574
  8
0
  0
POLYLINE
  5
129
  8
0
 66
     1
 10
0.0
 20
0.0
 30
0.0
  0
VERTEX
  5
10198
  8
0
 10
71.85019342230362
 20
-14.57430379901273
 30
0.0
  0
VERTEX
  5
10199
  8
0
 10
71.84969693193278
 20
-14.58902245299526
 30
0.0
  0
VERTEX
  5
1019A
  8
0
 10
71.84822895732002
 20
-14.60347291604882
 30
0.0
  0
VERTEX
  5
1019B
  8
0
 10
71.8458217432149
 20
-14.61762334895341
 30
0.0
  0
VERTEX
  5
1019C
  8
0
 10
71.84250753436704
 20
-14.63144191248904
 30
0.0
  0
VERTEX
  5
1019D
  8
0
 10
71.83831857552603
 20
-14.64489676743572
 30
0.0
  0
VERTEX
  5
1019E
  8
0
 10
71.83328711144146
 20
-14.65795607457344
 30
0.0
  0
VERTEX
  5
1019F
  8
0
 10
71.82744538686292
 20
-14.67058799468223
 30
0.0
  0
VERTEX
  5
101A0
  8
0
 10
71.82082564654
 20
-14.68276068854208
 30
0.0
  0
VERTEX
  5
101A1
  8
0
 10
71.81346013522233
 20
-14.694442316933
 30
0.0
  0
VERTEX
  5
101A2
  8
0
 10
71.80538109765948
 20
-14.705601040635
 30
0.0
  0
VERTEX
  5
101A3
  8
0
 10
71.79662077860102
 20
-14.71620502042808
 30
0.0
  0
VERTEX
  5
101A4
  8
0
 10
71.78721142279659
 20
-14.72622241709225
 30
0.0
  0
VERTEX
  5
101A5
  8
0
 10
71.77718527499576
 20
-14.73562139140752
 30
0.0
  0
VERTEX
  5
101A6
  8
0
 10
71.76657457994811
 20
-14.74437010415389
 30
0.0
  0
VERTEX
  5
101A7
  8
0
 10
71.75541158240328
 20
-14.75243671611137
 30
0.0
  0
VERTEX
  5
101A8
  8
0
 10
71.74372852711083
 20
-14.75978938805996
 30
0.0
  0
VERTEX
  5
101A9
  8
0
 10
71.73155765882036
 20
-14.76639628077968
 30
0.0
  0
VERTEX
  5
101AA
  8
0
 10
71.71893122228147
 20
-14.77222555505053
 30
0.0
  0
VERTEX
  5
101AB
  8
0
 10
71.70588146224375
 20
-14.7772453716525
 30
0.0
  0
VERTEX
  5
101AC
  8
0
 10
71.6924406234568
 20
-14.78142389136563
 30
0.0
  0
VERTEX
  5
101AD
  8
0
 10
71.6786409506702
 20
-14.78472927496989
 30
0.0
  0
VERTEX
  5
101AE
  8
0
 10
71.66451468863357
 20
-14.78712968324532
 30
0.0
  0
VERTEX
  5
101AF
  8
0
 10
71.65009408209649
 20
-14.7885932769719
 30
0.0
  0
VERTEX
  5
101B0
  8
0
 10
71.63541137580854
 20
-14.78908821692965
 30
0.0
  0
SEQEND
  5
10575
  8
0
  0
LINE
  5
130
  8
0
 10
71.63541137580854
 20
-14.78908821692965
 30
0.0
 11
9.117224035828162
 21
-14.78908821692963
 31
0.0
  0
POLYLINE
  5
131
  8
0
 66
     1
 10
0.0
 20
0.0
 30
0.0
  0
VERTEX
  5
101B1
  8
0
 10
9.117224035828164
 20
-14.78908821692963
 30
0.0
  0
VERTEX
  5
101B2
  8
0
 10
9.102540773052059
 20
-14.78859327697188
 30
0.0
  0
VERTEX
  5
101B3
  8
0
 10
9.088119680016687
 20
-14.7871296832453
 30
0.0
  0
VERTEX
  5
101B4
  8
0
 10
9.073992997354594
 20
-14.78472927496988
 30
0.0
  0
VERTEX
  5
101B5
  8
0
 10
9.060192965698322
 20
-14.78142389136561
 30
0.0
  0
VERTEX
  5
101B6
  8
0
 10
9.046751825680412
 20
-14.77724537165249
 30
0.0
  0
VERTEX
  5
101B7
  8
0
 10
9.03370181793341
 20
-14.77222555505051
 30
0.0
  0
VERTEX
  5
101B8
  8
0
 10
9.021075183089858
 20
-14.76639628077966
 30
0.0
  0
VERTEX
  5
101B9
  8
0
 10
9.008904161782297
 20
-14.75978938805995
 30
0.0
  0
VERTEX
  5
101BA
  8
0
 10
8.997220994643273
 20
-14.75243671611135
 30
0.0
  0
VERTEX
  5
101BB
  8
0
 10
8.986057922305326
 20
-14.74437010415387
 30
0.0
  0
VERTEX
  5
101BC
  8
0
 10
8.975447185400999
 20
-14.7356213914075
 30
0.0
  0
VERTEX
  5
101BD
  8
0
 10
8.965421024562838
 20
-14.72622241709223
 30
0.0
  0
VERTEX
  5
101BE
  8
0
 10
8.956011680423382
 20
-14.71620502042806
 30
0.0
  0
VERTEX
  5
101BF
  8
0
 10
8.947251393615176
 20
-14.70560104063498
 30
0.0
  0
VERTEX
  5
101C0
  8
0
 10
8.939172404770762
 20
-14.69444231693298
 30
0.0
  0
VERTEX
  5
101C1
  8
0
 10
8.931806954522681
 20
-14.68276068854206
 30
0.0
  0
VERTEX
  5
101C2
  8
0
 10
8.925187283503483
 20
-14.67058799468221
 30
0.0
  0
VERTEX
  5
101C3
  8
0
 10
8.919345632345701
 20
-14.65795607457343
 30
0.0
  0
VERTEX
  5
101C4
  8
0
 10
8.914314241681886
 20
-14.6448967674357
 30
0.0
  0
VERTEX
  5
101C5
  8
0
 10
8.910125352144577
 20
-14.63144191248902
 30
0.0
  0
VERTEX
  5
101C6
  8
0
 10
8.906811204366317
 20
-14.6176233489534
 30
0.0
  0
VERTEX
  5
101C7
  8
0
 10
8.904404038979651
 20
-14.60347291604881
 30
0.0
  0
VERTEX
  5
101C8
  8
0
 10
8.902936096617118
 20
-14.58902245299525
 30
0.0
  0
VERTEX
  5
101C9
  8
0
 10
8.902439617911266
 20
-14.57430379901272
 30
0.0
  0
SEQEND
  5
10576
  8
0
  0
POLYLINE
  5
132
  8
0
 66
     1
 10
0.0
 20
0.0
 30
0.0
  0
VERTEX
  5
101CA
  8
0
 10
8.902439617911266
 20
-14.57430379901272
 30
0.0
  0
VERTEX
  5
101CB
  8
0
 10
8.902936096617122
 20
-14.55962266578165
 30
0.0
  0
VERTEX
  5
101CC
  8
0
 10
8.904404038979651
 20
-14.54520659863724
 30
0.0
  0
VERTEX
  5
101CD
  8
0
 10
8.906811204366317
 20
-14.53108757266221
 30
0.0
  0
VERTEX
  5
101CE
  8
0
 10
8.91012535214458
 20
-14.51729756293925
 30
0.0
  0
VERTEX
  5
101CF
  8
0
 10
8.914314241681886
 20
-14.50386854455107
 30
0.0
  0
VERTEX
  5
101D0
  8
0
 10
8.919345632345701
 20
-14.49083249258036
 30
0.0
  0
VERTEX
  5
101D1
  8
0
 10
8.925187283503483
 20
-14.47822138210983
 30
0.0
  0
VERTEX
  5
101D2
  8
0
 10
8.931806954522683
 20
-14.46606718822219
 30
0.0
  0
VERTEX
  5
101D3
  8
0
 10
8.93917240477076
 20
-14.45440188600013
 30
0.0
  0
VERTEX
  5
101D4
  8
0
 10
8.947251393615176
 20
-14.44325745052636
 30
0.0
  0
VERTEX
  5
101D5
  8
0
 10
8.956011680423382
 20
-14.43266585688358
 30
0.0
  0
VERTEX
  5
101D6
  8
0
 10
8.965421024562836
 20
-14.42265908015449
 30
0.0
  0
VERTEX
  5
101D7
  8
0
 10
8.975447185400999
 20
-14.4132690954218
 30
0.0
  0
VERTEX
  5
101D8
  8
0
 10
8.986057922305326
 20
-14.40452787776821
 30
0.0
  0
VERTEX
  5
101D9
  8
0
 10
8.997220994643273
 20
-14.39646740227642
 30
0.0
  0
VERTEX
  5
101DA
  8
0
 10
9.008904161782297
 20
-14.38911964402913
 30
0.0
  0
VERTEX
  5
101DB
  8
0
 10
9.02107518308986
 20
-14.38251657810905
 30
0.0
  0
VERTEX
  5
101DC
  8
0
 10
9.03370181793341
 20
-14.37669017959888
 30
0.0
  0
VERTEX
  5
101DD
  8
0
 10
9.046751825680413
 20
-14.37167242358132
 30
0.0
  0
VERTEX
  5
101DE
  8
0
 10
9.06019296569832
 20
-14.36749528513907
 30
0.0
  0
VERTEX
  5
101DF
  8
0
 10
9.073992997354594
 20
-14.36419073935485
 30
0.0
  0
VERTEX
  5
101E0
  8
0
 10
9.088119680016687
 20
-14.36179076131134
 30
0.0
  0
VERTEX
  5
101E1
  8
0
 10
9.102540773052057
 20
-14.36032732609125
 30
0.0
  0
VERTEX
  5
101E2
  8
0
 10
9.117224035828164
 20
-14.35983240877728
 30
0.0
  0
SEQEND
  5
10577
  8
0
  0
LINE
  5
133
  8
0
 10
65.83869904856287
 20
-49.34245972044569
 30
0.0
 11
63.15559457504396
 21
-41.06199761881234
 31
0.0
  0
POLYLINE
  5
134
  8
0
 66
     1
 10
0.0
 20
0.0
 30
0.0
  0
VERTEX
  5
101E3
  8
0
 10
63.15559457504398
 20
-41.06199761881233
 30
0.0
  0
VERTEX
  5
101E4
  8
0
 10
63.09121994092916
 20
-40.88249190273604
 30
0.0
  0
VERTEX
  5
101E5
  8
0
 10
63.01739541748421
 20
-40.7187840122062
 30
0.0
  0
VERTEX
  5
101E6
  8
0
 10
62.93517485180166
 20
-40.5701500607462
 30
0.0
  0
VERTEX
  5
101E7
  8
0
 10
62.84561209097401
 20
-40.43586616187942
 30
0.0
  0
VERTEX
  5
101E8
  8
0
 10
62.74976098209377
 20
-40.31520842912924
 30
0.0
  0
VERTEX
  5
101E9
  8
0
 10
62.64867537225343
 20
-40.207452976019
 30
0.0
  0
VERTEX
  5
101EA
  8
0
 10
62.54340910854553
 20
-40.11187591607212
 30
0.0
  0
VERTEX
  5
101EB
  8
0
 10
62.43501603806257
 20
-40.02775336281196
 30
0.0
  0
VERTEX
  5
101EC
  8
0
 10
62.32455000789706
 20
-39.95436142976187
 30
0.0
  0
VERTEX
  5
101ED
  8
0
 10
62.2130648651415
 20
-39.89097623044528
 30
0.0
  0
VERTEX
  5
101EE
  8
0
 10
62.10161445688842
 20
-39.8368738783855
 30
0.0
  0
VERTEX
  5
101EF
  8
0
 10
61.99125263023031
 20
-39.79133048710595
 30
0.0
  0
VERTEX
  5
101F0
  8
0
 10
61.88303323225968
 20
-39.75362217012999
 30
0.0
  0
VERTEX
  5
101F1
  8
0
 10
61.77801011006905
 20
-39.72302504098099
 30
0.0
  0
VERTEX
  5
101F2
  8
0
 10
61.67723711075092
 20
-39.69881521318235
 30
0.0
  0
VERTEX
  5
101F3
  8
0
 10
61.58176808139781
 20
-39.68026880025741
 30
0.0
  0
VERTEX
  5
101F4
  8
0
 10
61.49265686910222
 20
-39.66666191572958
 30
0.0
  0
VERTEX
  5
101F5
  8
0
 10
61.41095732095667
 20
-39.6572706731222
 30
0.0
  0
VERTEX
  5
101F6
  8
0
 10
61.33772328405366
 20
-39.65137118595867
 30
0.0
  0
VERTEX
  5
101F7
  8
0
 10
61.2740086054857
 20
-39.64823956776236
 30
0.0
  0
VERTEX
  5
101F8
  8
0
 10
61.2208671323453
 20
-39.64715193205664
 30
0.0
  0
VERTEX
  5
101F9
  8
0
 10
61.17935271172499
 20
-39.6473843923649
 30
0.0
  0
VERTEX
  5
101FA
  8
0
 10
61.15051919071725
 20
-39.64821306221049
 30
0.0
  0
VERTEX
  5
101FB
  8
0
 10
61.1354204164146
 20
-39.6489140551168
 30
0.0
  0
SEQEND
  5
10578
  8
0
  0
LINE
  5
135
  8
0
 10
61.1354204164146
 20
-39.6489140551168
 30
0.0
 11
61.10145451108799
 21
-39.65035034776414
 31
0.0
  0
LINE
  5
136
  8
0
 10
61.10145451108799
 20
-39.65035034776414
 30
0.0
 11
19.61739171882812
 21
-39.6489140551168
 31
0.0
  0
POLYLINE
  5
137
  8
0
 66
     1
 10
0.0
 20
0.0
 30
0.0
  0
VERTEX
  5
101FC
  8
0
 10
19.61739171882812
 20
-39.6489140551168
 30
0.0
  0
VERTEX
  5
101FD
  8
0
 10
19.60259769784395
 20
-39.64823151324684
 30
0.0
  0
VERTEX
  5
101FE
  8
0
 10
19.57396605921683
 20
-39.64758580672574
 30
0.0
  0
VERTEX
  5
101FF
  8
0
 10
19.53256177384948
 20
-39.64767646403136
 30
0.0
  0
VERTEX
  5
10200
  8
0
 10
19.47944981264462
 20
-39.64920301364154
 30
0.0
  0
VERTEX
  5
10201
  8
0
 10
19.41569514650495
 20
-39.65286498403409
 30
0.0
  0
VERTEX
  5
10202
  8
0
 10
19.3423627463332
 20
-39.65936190368684
 30
0.0
  0
VERTEX
  5
10203
  8
0
 10
19.26051758303207
 20
-39.66939330107764
 30
0.0
  0
VERTEX
  5
10204
  8
0
 10
19.17122462750427
 20
-39.68365870468431
 30
0.0
  0
VERTEX
  5
10205
  8
0
 10
19.07554885065251
 20
-39.70285764298469
 30
0.0
  0
VERTEX
  5
10206
  8
0
 10
18.97455522337952
 20
-39.7276896444566
 30
0.0
  0
VERTEX
  5
10207
  8
0
 10
18.86930871658799
 20
-39.75885423757786
 30
0.0
  0
VERTEX
  5
10208
  8
0
 10
18.76087430118066
 20
-39.79705095082634
 30
0.0
  0
VERTEX
  5
10209
  8
0
 10
18.65031694806021
 20
-39.84297931267983
 30
0.0
  0
VERTEX
  5
1020A
  8
0
 10
18.53870162812937
 20
-39.8973388516162
 30
0.0
  0
VERTEX
  5
1020B
  8
0
 10
18.42709331229085
 20
-39.96082909611325
 30
0.0
  0
VERTEX
  5
1020C
  8
0
 10
18.31655697144736
 20
-40.03414957464882
 30
0.0
  0
VERTEX
  5
1020D
  8
0
 10
18.20815757650162
 20
-40.11799981570076
 30
0.0
  0
VERTEX
  5
1020E
  8
0
 10
18.10296009835633
 20
-40.21307934774687
 30
0.0
  0
VERTEX
  5
1020F
  8
0
 10
18.00202950791422
 20
-40.320087699265
 30
0.0
  0
VERTEX
  5
10210
  8
0
 10
17.90643077607798
 20
-40.43972439873298
 30
0.0
  0
VERTEX
  5
10211
  8
0
 10
17.81722887375033
 20
-40.57268897462865
 30
0.0
  0
VERTEX
  5
10212
  8
0
 10
17.735488771834
 20
-40.71968095542982
 30
0.0
  0
VERTEX
  5
10213
  8
0
 10
17.66227544123167
 20
-40.88139986961433
 30
0.0
  0
VERTEX
  5
10214
  8
0
 10
17.59865385284608
 20
-41.05854524566003
 30
0.0
  0
SEQEND
  5
10579
  8
0
  0
LINE
  5
138
  8
0
 10
17.59865385284608
 20
-41.05854524566003
 30
0.0
 11
14.91469287453749
 21
-49.34245972044568
 31
0.0
  0
LINE
  5
139
  8
0
 10
14.91469287453749
 20
-49.34245972044568
 30
0.0
 11
13.96936634198804
 21
-49.03647009007894
 31
0.0
  0
LINE
  5
140
  8
0
 10
13.96936634198804
 20
-49.03647009007894
 30
0.0
 11
16.65218531391039
 21
-40.75572029068289
 31
0.0
  0
POLYLINE
  5
141
  8
0
 66
     1
 10
0.0
 20
0.0
 30
0.0
  0
VERTEX
  5
10215
  8
0
 10
16.65218531391039
 20
-40.75572029068289
 30
0.0
  0
VERTEX
  5
10216
  8
0
 10
16.72762588327705
 20
-40.54151686967874
 30
0.0
  0
VERTEX
  5
10217
  8
0
 10
16.81356452707555
 20
-40.34142038834644
 30
0.0
  0
VERTEX
  5
10218
  8
0
 10
16.90916490635412
 20
-40.15501005591807
 30
0.0
  0
VERTEX
  5
10219
  8
0
 10
17.01359068216099
 20
-39.98186508162576
 30
0.0
  0
VERTEX
  5
1021A
  8
0
 10
17.12600551554441
 20
-39.82156467470153
 30
0.0
  0
VERTEX
  5
1021B
  8
0
 10
17.24557306755261
 20
-39.67368804437751
 30
0.0
  0
VERTEX
  5
1021C
  8
0
 10
17.37145699923384
 20
-39.53781439988578
 30
0.0
  0
VERTEX
  5
1021D
  8
0
 10
17.50282097163633
 20
-39.41352295045839
 30
0.0
  0
VERTEX
  5
1021E
  8
0
 10
17.63882864580832
 20
-39.30039290532745
 30
0.0
  0
VERTEX
  5
1021F
  8
0
 10
17.77864368279804
 20
-39.19800347372504
 30
0.0
  0
VERTEX
  5
10220
  8
0
 10
17.92142974365374
 20
-39.10593386488326
 30
0.0
  0
VERTEX
  5
10221
  8
0
 10
18.06635048942366
 20
-39.02376328803416
 30
0.0
  0
VERTEX
  5
10222
  8
0
 10
18.21256958115602
 20
-38.95107095240984
 30
0.0
  0
VERTEX
  5
10223
  8
0
 10
18.35925067989908
 20
-38.88743606724238
 30
0.0
  0
VERTEX
  5
10224
  8
0
 10
18.50555744670106
 20
-38.83243784176386
 30
0.0
  0
VERTEX
  5
10225
  8
0
 10
18.65065354261021
 20
-38.78565548520638
 30
0.0
  0
VERTEX
  5
10226
  8
0
 10
18.79370262867477
 20
-38.746668206802
 30
0.0
  0
VERTEX
  5
10227
  8
0
 10
18.93386836594296
 20
-38.71505521578282
 30
0.0
  0
VERTEX
  5
10228
  8
0
 10
19.07031441546304
 20
-38.69039572138092
 30
0.0
  0
VERTEX
  5
10229
  8
0
 10
19.20220443828323
 20
-38.67226893282837
 30
0.0
  0
VERTEX
  5
1022A
  8
0
 10
19.32870209545178
 20
-38.66025405935729
 30
0.0
  0
VERTEX
  5
1022B
  8
0
 10
19.44897104801693
 20
-38.65393031019973
 30
0.0
  0
VERTEX
  5
1022C
  8
0
 10
19.56217495702692
 20
-38.65287689458776
 30
0.0
  0
VERTEX
  5
1022D
  8
0
 10
19.66747748352997
 20
-38.65667302175351
 30
0.0
  0
SEQEND
  5
1057A
  8
0
  0
LINE
  5
142
  8
0
 10
19.66747748352997
 20
-38.65667302175351
 30
0.0
 11
61.08562234947545
 21
-38.65667302175351
 31
0.0
  0
POLYLINE
  5
143
  8
0
 66
     1
 10
0.0
 20
0.0
 30
0.0
  0
VERTEX
  5
1022E
  8
0
 10
61.08562234947544
 20
-38.65667302175351
 30
0.0
  0
VERTEX
  5
1022F
  8
0
 10
61.19092518926261
 20
-38.65287714432541
 30
0.0
  0
VERTEX
  5
10230
  8
0
 10
61.30412982715065
 20
-38.65393230810085
 30
0.0
  0
VERTEX
  5
10231
  8
0
 10
61.42440043128864
 20
-38.6602608022736
 30
0.0
  0
VERTEX
  5
10232
  8
0
 10
61.55090116982571
 20
-38.67228491603742
 30
0.0
  0
VERTEX
  5
10233
  8
0
 10
61.68279621091092
 20
-38.69042693858608
 30
0.0
  0
VERTEX
  5
10234
  8
0
 10
61.81924972269339
 20
-38.71510915911333
 30
0.0
  0
VERTEX
  5
10235
  8
0
 10
61.95942587332221
 20
-38.74675386681294
 30
0.0
  0
VERTEX
  5
10236
  8
0
 10
62.10248883094648
 20
-38.78578335087869
 30
0.0
  0
VERTEX
  5
10237
  8
0
 10
62.24760276371531
 20
-38.83261990050431
 30
0.0
  0
VERTEX
  5
10238
  8
0
 10
62.39393183977778
 20
-38.8876858048836
 30
0.0
  0
VERTEX
  5
10239
  8
0
 10
62.54064022728299
 20
-38.9514033532103
 30
0.0
  0
VERTEX
  5
1023A
  8
0
 10
62.68689209438004
 20
-39.0241948346782
 30
0.0
  0
VERTEX
  5
1023B
  8
0
 10
62.83185160921803
 20
-39.10648253848102
 30
0.0
  0
VERTEX
  5
1023C
  8
0
 10
62.97468293994606
 20
-39.19868875381258
 30
0.0
  0
VERTEX
  5
1023D
  8
0
 10
63.11455025471321
 20
-39.30123576986659
 30
0.0
  0
VERTEX
  5
1023E
  8
0
 10
63.2506177216686
 20
-39.41454587583685
 30
0.0
  0
VERTEX
  5
1023F
  8
0
 10
63.38204950896132
 20
-39.53904136091711
 30
0.0
  0
VERTEX
  5
10240
  8
0
 10
63.50800978474045
 20
-39.67514451430114
 30
0.0
  0
VERTEX
  5
10241
  8
0
 10
63.62766271715511
 20
-39.8232776251827
 30
0.0
  0
VERTEX
  5
10242
  8
0
 10
63.7401724743544
 20
-39.98386298275555
 30
0.0
  0
VERTEX
  5
10243
  8
0
 10
63.84470322448739
 20
-40.15732287621346
 30
0.0
  0
VERTEX
  5
10244
  8
0
 10
63.94041913570321
 20
-40.34407959475021
 30
0.0
  0
VERTEX
  5
10245
  8
0
 10
64.02648437615093
 20
-40.54455542755952
 30
0.0
  0
VERTEX
  5
10246
  8
0
 10
64.10206311397967
 20
-40.7591726638352
 30
0.0
  0
SEQEND
  5
1057B
  8
0
  0
LINE
  5
144
  8
0
 10
64.10206311397967
 20
-40.7591726638352
 30
0.0
 11
66.7840167964478
 21
-49.03647009007894
 31
0.0
  0
LINE
  5
145
  8
0
 10
66.7840167964478
 20
-49.03647009007894
 30
0.0
 11
65.83869904856287
 21
-49.34245972044569
 31
0.0
  0
POLYLINE
  5
146
  8
0
 66
     1
 10
0.0
 20
0.0
 30
0.0
  0
VERTEX
  5
10247
  8
0
 10
53.17104198622423
 20
-45.55598617199792
 30
0.0
  0
VERTEX
  5
10248
  8
0
 10
53.16732934111251
 20
-45.66619105089865
 30
0.0
  0
VERTEX
  5
10249
  8
0
 10
53.15635113503551
 20
-45.77440442333345
 30
0.0
  0
VERTEX
  5
1024A
  8
0
 10
53.13834696188049
 20
-45.88038642368966
 30
0.0
  0
VERTEX
  5
1024B
  8
0
 10
53.11355641553474
 20
-45.98389718635462
 30
0.0
  0
VERTEX
  5
1024C
  8
0
 10
53.08221908988548
 20
-46.08469684571559
 30
0.0
  0
VERTEX
  5
1024D
  8
0
 10
53.04457457881999
 20
-46.18254553615994
 30
0.0
  0
VERTEX
  5
1024E
  8
0
 10
53.00086247622554
 20
-46.27720339207497
 30
0.0
  0
VERTEX
  5
1024F
  8
0
 10
52.95132237598938
 20
-46.36843054784801
 30
0.0
  0
VERTEX
  5
10250
  8
0
 10
52.8961938719988
 20
-46.45598713786639
 30
0.0
  0
VERTEX
  5
10251
  8
0
 10
52.83571655814102
 20
-46.53963329651739
 30
0.0
  0
VERTEX
  5
10252
  8
0
 10
52.77013002830333
 20
-46.61912915818837
 30
0.0
  0
VERTEX
  5
10253
  8
0
 10
52.69967387637298
 20
-46.69423485726664
 30
0.0
  0
VERTEX
  5
10254
  8
0
 10
52.62458769623723
 20
-46.7647105281395
 30
0.0
  0
VERTEX
  5
10255
  8
0
 10
52.54511108178336
 20
-46.8303163051943
 30
0.0
  0
VERTEX
  5
10256
  8
0
 10
52.46148362689861
 20
-46.89081232281834
 30
0.0
  0
VERTEX
  5
10257
  8
0
 10
52.37394492547027
 20
-46.94595871539895
 30
0.0
  0
VERTEX
  5
10258
  8
0
 10
52.28273457138557
 20
-46.99551561732345
 30
0.0
  0
VERTEX
  5
10259
  8
0
 10
52.18809215853179
 20
-47.03924316297914
 30
0.0
  0
VERTEX
  5
1025A
  8
0
 10
52.09025728079618
 20
-47.07690148675337
 30
0.0
  0
VERTEX
  5
1025B
  8
0
 10
51.98946953206602
 20
-47.10825072303344
 30
0.0
  0
VERTEX
  5
1025C
  8
0
 10
51.88596850622855
 20
-47.13305100620668
 30
0.0
  0
VERTEX
  5
1025D
  8
0
 10
51.77999379717106
 20
-47.15106247066042
 30
0.0
  0
VERTEX
  5
1025E
  8
0
 10
51.67178499878078
 20
-47.16204525078194
 30
0.0
  0
VERTEX
  5
1025F
  8
0
 10
51.56158170494499
 20
-47.16575948095861
 30
0.0
  0
SEQEND
  5
1057C
  8
0
  0
POLYLINE
  5
147
  8
0
 66
     1
 10
0.0
 20
0.0
 30
0.0
  0
VERTEX
  5
10260
  8
0
 10
51.56158170494499
 20
-47.16575948095861
 30
0.0
  0
VERTEX
  5
10261
  8
0
 10
51.45141590784453
 20
-47.16204525078195
 30
0.0
  0
VERTEX
  5
10262
  8
0
 10
51.3432414360597
 20
-47.15106247066042
 30
0.0
  0
VERTEX
  5
10263
  8
0
 10
51.23729802345754
 20
-47.13305100620669
 30
0.0
  0
VERTEX
  5
10264
  8
0
 10
51.13382540390506
 20
-47.10825072303345
 30
0.0
  0
VERTEX
  5
10265
  8
0
 10
51.03306331126927
 20
-47.07690148675338
 30
0.0
  0
VERTEX
  5
10266
  8
0
 10
50.93525147941721
 20
-47.03924316297915
 30
0.0
  0
VERTEX
  5
10267
  8
0
 10
50.84062964221592
 20
-46.99551561732344
 30
0.0
  0
VERTEX
  5
10268
  8
0
 10
50.74943753353239
 20
-46.94595871539894
 30
0.0
  0
VERTEX
  5
10269
  8
0
 10
50.66191488723365
 20
-46.89081232281834
 30
0.0
  0
VERTEX
  5
1026A
  8
0
 10
50.57830143718673
 20
-46.8303163051943
 30
0.0
  0
VERTEX
  5
1026B
  8
0
 10
50.49883691725866
 20
-46.7647105281395
 30
0.0
  0
VERTEX
  5
1026C
  8
0
 10
50.42376106131645
 20
-46.69423485726664
 30
0.0
  0
VERTEX
  5
1026D
  8
0
 10
50.35331360322713
 20
-46.61912915818836
 30
0.0
  0
VERTEX
  5
1026E
  8
0
 10
50.28773427685771
 20
-46.53963329651739
 30
0.0
  0
VERTEX
  5
1026F
  8
0
 10
50.22726281607523
 20
-46.45598713786639
 30
0.0
  0
VERTEX
  5
10270
  8
0
 10
50.1721389547467
 20
-46.36843054784801
 30
0.0
  0
VERTEX
  5
10271
  8
0
 10
50.12260242673915
 20
-46.27720339207498
 30
0.0
  0
VERTEX
  5
10272
  8
0
 10
50.07889296591959
 20
-46.18254553615994
 30
0.0
  0
VERTEX
  5
10273
  8
0
 10
50.04125030615506
 20
-46.08469684571558
 30
0.0
  0
VERTEX
  5
10274
  8
0
 10
50.00991418131258
 20
-45.98389718635461
 30
0.0
  0
VERTEX
  5
10275
  8
0
 10
49.98512432525916
 20
-45.88038642368966
 30
0.0
  0
VERTEX
  5
10276
  8
0
 10
49.96712047186185
 20
-45.77440442333346
 30
0.0
  0
VERTEX
  5
10277
  8
0
 10
49.95614235498763
 20
-45.66619105089864
 30
0.0
  0
VERTEX
  5
10278
  8
0
 10
49.95242970850355
 20
-45.55598617199792
 30
0.0
  0
SEQEND
  5
1057D
  8
0
  0
POLYLINE
  5
148
  8
0
 66
     1
 10
0.0
 20
0.0
 30
0.0
  0
VERTEX
  5
10279
  8
0
 10
49.95242970850355
 20
-45.55598617199792
 30
0.0
  0
VERTEX
  5
1027A
  8
0
 10
49.95614235498763
 20
-45.44582037489746
 30
0.0
  0
VERTEX
  5
1027B
  8
0
 10
49.96712047186185
 20
-45.33764590311263
 30
0.0
  0
VERTEX
  5
1027C
  8
0
 10
49.98512432525916
 20
-45.23170249051046
 30
0.0
  0
VERTEX
  5
1027D
  8
0
 10
50.00991418131258
 20
-45.12822987095798
 30
0.0
  0
VERTEX
  5
1027E
  8
0
 10
50.04125030615507
 20
-45.0274677783222
 30
0.0
  0
VERTEX
  5
1027F
  8
0
 10
50.0788929659196
 20
-44.92965594647014
 30
0.0
  0
VERTEX
  5
10280
  8
0
 10
50.12260242673914
 20
-44.83503410926883
 30
0.0
  0
VERTEX
  5
10281
  8
0
 10
50.1721389547467
 20
-44.74384200058531
 30
0.0
  0
VERTEX
  5
10282
  8
0
 10
50.22726281607522
 20
-44.65631935428657
 30
0.0
  0
VERTEX
  5
10283
  8
0
 10
50.28773427685771
 20
-44.57270590423966
 30
0.0
  0
VERTEX
  5
10284
  8
0
 10
50.35331360322712
 20
-44.49324138431158
 30
0.0
  0
VERTEX
  5
10285
  8
0
 10
50.42376106131645
 20
-44.41816552836937
 30
0.0
  0
VERTEX
  5
10286
  8
0
 10
50.49883691725866
 20
-44.34771807028005
 30
0.0
  0
VERTEX
  5
10287
  8
0
 10
50.57830143718673
 20
-44.28213874391064
 30
0.0
  0
VERTEX
  5
10288
  8
0
 10
50.66191488723365
 20
-44.22166728312815
 30
0.0
  0
VERTEX
  5
10289
  8
0
 10
50.74943753353239
 20
-44.16654342179962
 30
0.0
  0
VERTEX
  5
1028A
  8
0
 10
50.84062964221592
 20
-44.11700689379207
 30
0.0
  0
VERTEX
  5
1028B
  8
0
 10
50.93525147941722
 20
-44.07329743297251
 30
0.0
  0
VERTEX
  5
1028C
  8
0
 10
51.03306331126927
 20
-44.03565477320799
 30
0.0
  0
VERTEX
  5
1028D
  8
0
 10
51.13382540390505
 20
-44.0043186483655
 30
0.0
  0
VERTEX
  5
1028E
  8
0
 10
51.23729802345753
 20
-43.97952879231209
 30
0.0
  0
VERTEX
  5
1028F
  8
0
 10
51.34324143605971
 20
-43.96152493891476
 30
0.0
  0
VERTEX
  5
10290
  8
0
 10
51.45141590784453
 20
-43.95054682204055
 30
0.0
  0
VERTEX
  5
10291
  8
0
 10
51.56158170494499
 20
-43.94683417555648
 30
0.0
  0
SEQEND
  5
1057E
  8
0
  0
POLYLINE
  5
149
  8
0
 66
     1
 10
0.0
 20
0.0
 30
0.0
  0
VERTEX
  5
10292
  8
0
 10
51.56158170494499
 20
-43.94683417555648
 30
0.0
  0
VERTEX
  5
10293
  8
0
 10
51.67178499878078
 20
-43.95054682204056
 30
0.0
  0
VERTEX
  5
10294
  8
0
 10
51.77999379717105
 20
-43.96152493891476
 30
0.0
  0
VERTEX
  5
10295
  8
0
 10
51.88596850622856
 20
-43.9795287923121
 30
0.0
  0
VERTEX
  5
10296
  8
0
 10
51.98946953206602
 20
-44.00431864836551
 30
0.0
  0
VERTEX
  5
10297
  8
0
 10
52.09025728079619
 20
-44.03565477320799
 30
0.0
  0
VERTEX
  5
10298
  8
0
 10
52.18809215853178
 20
-44.07329743297252
 30
0.0
  0
VERTEX
  5
10299
  8
0
 10
52.28273457138557
 20
-44.11700689379207
 30
0.0
  0
VERTEX
  5
1029A
  8
0
 10
52.37394492547026
 20
-44.16654342179962
 30
0.0
  0
VERTEX
  5
1029B
  8
0
 10
52.46148362689861
 20
-44.22166728312815
 30
0.0
  0
VERTEX
  5
1029C
  8
0
 10
52.54511108178336
 20
-44.28213874391064
 30
0.0
  0
VERTEX
  5
1029D
  8
0
 10
52.62458769623723
 20
-44.34771807028005
 30
0.0
  0
VERTEX
  5
1029E
  8
0
 10
52.69967387637298
 20
-44.41816552836937
 30
0.0
  0
VERTEX
  5
1029F
  8
0
 10
52.77013002830333
 20
-44.49324138431158
 30
0.0
  0
VERTEX
  5
102A0
  8
0
 10
52.83571655814102
 20
-44.57270590423966
 30
0.0
  0
VERTEX
  5
102A1
  8
0
 10
52.8961938719988
 20
-44.65631935428658
 30
0.0
  0
VERTEX
  5
102A2
  8
0
 10
52.95132237598938
 20
-44.7438420005853
 30
0.0
  0
VERTEX
  5
102A3
  8
0
 10
53.00086247622554
 20
-44.83503410926884
 30
0.0
  0
VERTEX
  5
102A4
  8
0
 10
53.04457457881999
 20
-44.92965594647014
 30
0.0
  0
VERTEX
  5
102A5
  8
0
 10
53.08221908988547
 20
-45.02746777832219
 30
0.0
  0
VERTEX
  5
102A6
  8
0
 10
53.11355641553472
 20
-45.12822987095797
 30
0.0
  0
VERTEX
  5
102A7
  8
0
 10
53.13834696188049
 20
-45.23170249051046
 30
0.0
  0
VERTEX
  5
102A8
  8
0
 10
53.15635113503551
 20
-45.33764590311263
 30
0.0
  0
VERTEX
  5
102A9
  8
0
 10
53.16732934111251
 20
-45.44582037489745
 30
0.0
  0
VERTEX
  5
102AA
  8
0
 10
53.17104198622423
 20
-45.55598617199792
 30
0.0
  0
SEQEND
  5
1057F
  8
0
  0
POLYLINE
  5
150
  8
0
 66
     1
 10
0.0
 20
0.0
 30
0.0
  0
VERTEX
  5
102AB
  8
0
 10
61.1605423569548
 20
-46.87948855199961
 30
0.0
  0
VERTEX
  5
102AC
  8
0
 10
61.15683125041964
 20
-46.98969157359537
 30
0.0
  0
VERTEX
  5
102AD
  8
0
 10
61.14585739177779
 20
-47.09790014606241
 30
0.0
  0
VERTEX
  5
102AE
  8
0
 10
61.12785997247468
 20
-47.20387467242573
 30
0.0
  0
VERTEX
  5
102AF
  8
0
 10
61.10307818395578
 20
-47.30737555571029
 30
0.0
  0
VERTEX
  5
102B0
  8
0
 10
61.07175121766655
 20
-47.408163198941
 30
0.0
  0
VERTEX
  5
102B1
  8
0
 10
61.03411826505241
 20
-47.50599800514283
 30
0.0
  0
VERTEX
  5
102B2
  8
0
 10
60.99041851755883
 20
-47.60064037734072
 30
0.0
  0
VERTEX
  5
102B3
  8
0
 10
60.94089116663125
 20
-47.69185071855964
 30
0.0
  0
VERTEX
  5
102B4
  8
0
 10
60.88577540371513
 20
-47.77938943182451
 30
0.0
  0
VERTEX
  5
102B5
  8
0
 10
60.82531042025591
 20
-47.86301692016031
 30
0.0
  0
VERTEX
  5
102B6
  8
0
 10
60.75973540769905
 20
-47.94249358659196
 30
0.0
  0
VERTEX
  5
102B7
  8
0
 10
60.68928955749
 20
-48.01757983414441
 30
0.0
  0
VERTEX
  5
102B8
  8
0
 10
60.61421206107419
 20
-48.08803606584264
 30
0.0
  0
VERTEX
  5
102B9
  8
0
 10
60.5347421098971
 20
-48.15362268471158
 30
0.0
  0
VERTEX
  5
102BA
  8
0
 10
60.45111889540415
 20
-48.21410009377618
 30
0.0
  0
VERTEX
  5
102BB
  8
0
 10
60.36358160904081
 20
-48.26922869606138
 30
0.0
  0
VERTEX
  5
102BC
  8
0
 10
60.27236944225252
 20
-48.31876889459215
 30
0.0
  0
VERTEX
  5
102BD
  8
0
 10
60.17772158648472
 20
-48.36248109239342
 30
0.0
  0
VERTEX
  5
102BE
  8
0
 10
60.07987723318288
 20
-48.40012569249014
 30
0.0
  0
VERTEX
  5
102BF
  8
0
 10
59.97907557379246
 20
-48.43146309790728
 30
0.0
  0
VERTEX
  5
102C0
  8
0
 10
59.87555579975887
 20
-48.45625371166977
 30
0.0
  0
VERTEX
  5
102C1
  8
0
 10
59.7695571025276
 20
-48.47425793680257
 30
0.0
  0
VERTEX
  5
102C2
  8
0
 10
59.66131867354407
 20
-48.48523617633061
 30
0.0
  0
VERTEX
  5
102C3
  8
0
 10
59.55107970425374
 20
-48.48894883327885
 30
0.0
  0
SEQEND
  5
10580
  8
0
  0
POLYLINE
  5
151
  8
0
 66
     1
 10
0.0
 20
0.0
 30
0.0
  0
VERTEX
  5
102C4
  8
0
 10
59.55107970425374
 20
-48.48894883327885
 30
0.0
  0
VERTEX
  5
102C5
  8
0
 10
59.44091363491323
 20
-48.48523617633061
 30
0.0
  0
VERTEX
  5
102C6
  8
0
 10
59.33273893720519
 20
-48.47425793680257
 30
0.0
  0
VERTEX
  5
102C7
  8
0
 10
59.22679534190884
 20
-48.45625371166977
 30
0.0
  0
VERTEX
  5
102C8
  8
0
 10
59.12332257980344
 20
-48.43146309790729
 30
0.0
  0
VERTEX
  5
102C9
  8
0
 10
59.02256038166821
 20
-48.40012569249015
 30
0.0
  0
VERTEX
  5
102CA
  8
0
 10
58.92474847828237
 20
-48.36248109239342
 30
0.0
  0
VERTEX
  5
102CB
  8
0
 10
58.83012660042519
 20
-48.31876889459215
 30
0.0
  0
VERTEX
  5
102CC
  8
0
 10
58.73893447887588
 20
-48.26922869606139
 30
0.0
  0
VERTEX
  5
102CD
  8
0
 10
58.65141184441366
 20
-48.21410009377617
 30
0.0
  0
VERTEX
  5
102CE
  8
0
 10
58.56779842781779
 20
-48.15362268471159
 30
0.0
  0
VERTEX
  5
102CF
  8
0
 10
58.4883339598675
 20
-48.08803606584264
 30
0.0
  0
VERTEX
  5
102D0
  8
0
 10
58.41325817134201
 20
-48.01757983414441
 30
0.0
  0
VERTEX
  5
102D1
  8
0
 10
58.34281079302056
 20
-47.94249358659196
 30
0.0
  0
VERTEX
  5
102D2
  8
0
 10
58.2772315556824
 20
-47.86301692016029
 30
0.0
  0
VERTEX
  5
102D3
  8
0
 10
58.21676019010674
 20
-47.77938943182451
 30
0.0
  0
VERTEX
  5
102D4
  8
0
 10
58.16163642707282
 20
-47.69185071855964
 30
0.0
  0
VERTEX
  5
102D5
  8
0
 10
58.11209999735988
 20
-47.60064037734072
 30
0.0
  0
VERTEX
  5
102D6
  8
0
 10
58.06839063174714
 20
-47.50599800514283
 30
0.0
  0
VERTEX
  5
102D7
  8
0
 10
58.03074806101386
 20
-47.408163198941
 30
0.0
  0
VERTEX
  5
102D8
  8
0
 10
57.99941201593926
 20
-47.30737555571028
 30
0.0
  0
VERTEX
  5
102D9
  8
0
 10
57.97462222730256
 20
-47.20387467242574
 30
0.0
  0
VERTEX
  5
102DA
  8
0
 10
57.95661842588302
 20
-47.09790014606241
 30
0.0
  0
VERTEX
  5
102DB
  8
0
 10
57.94564034245985
 20
-46.98969157359535
 30
0.0
  0
VERTEX
  5
102DC
  8
0
 10
57.9419277078123
 20
-46.87948855199961
 30
0.0
  0
SEQEND
  5
10581
  8
0
  0
POLYLINE
  5
152
  8
0
 66
     1
 10
0.0
 20
0.0
 30
0.0
  0
VERTEX
  5
102DD
  8
0
 10
57.9419277078123
 20
-46.87948855199961
 30
0.0
  0
VERTEX
  5
102DE
  8
0
 10
57.94564034245985
 20
-46.76928524615577
 30
0.0
  0
VERTEX
  5
102DF
  8
0
 10
57.95661842588301
 20
-46.66107641311364
 30
0.0
  0
VERTEX
  5
102E0
  8
0
 10
57.97462222730257
 20
-46.55510164881902
 30
0.0
  0
VERTEX
  5
102E1
  8
0
 10
57.99941201593926
 20
-46.45160054921772
 30
0.0
  0
VERTEX
  5
102E2
  8
0
 10
58.03074806101387
 20
-46.3508127102555
 30
0.0
  0
VERTEX
  5
102E3
  8
0
 10
58.06839063174715
 20
-46.25297772787815
 30
0.0
  0
VERTEX
  5
102E4
  8
0
 10
58.11209999735988
 20
-46.15833519803149
 30
0.0
  0
VERTEX
  5
102E5
  8
0
 10
58.16163642707281
 20
-46.06712471666127
 30
0.0
  0
VERTEX
  5
102E6
  8
0
 10
58.21676019010674
 20
-45.9795858797133
 30
0.0
  0
VERTEX
  5
102E7
  8
0
 10
58.2772315556824
 20
-45.89595828313335
 30
0.0
  0
VERTEX
  5
102E8
  8
0
 10
58.34281079302056
 20
-45.81648152286722
 30
0.0
  0
VERTEX
  5
102E9
  8
0
 10
58.41325817134201
 20
-45.74139519486071
 30
0.0
  0
VERTEX
  5
102EA
  8
0
 10
58.4883339598675
 20
-45.67093889505959
 30
0.0
  0
VERTEX
  5
102EB
  8
0
 10
58.56779842781779
 20
-45.60535221940964
 30
0.0
  0
VERTEX
  5
102EC
  8
0
 10
58.65141184441367
 20
-45.54487476385667
 30
0.0
  0
VERTEX
  5
102ED
  8
0
 10
58.73893447887588
 20
-45.48974612434645
 30
0.0
  0
VERTEX
  5
102EE
  8
0
 10
58.8301266004252
 20
-45.44020589682479
 30
0.0
  0
VERTEX
  5
102EF
  8
0
 10
58.92474847828238
 20
-45.39649367723744
 30
0.0
  0
VERTEX
  5
102F0
  8
0
 10
59.02256038166821
 20
-45.35884906153022
 30
0.0
  0
VERTEX
  5
102F1
  8
0
 10
59.12332257980344
 20
-45.32751164564892
 30
0.0
  0
VERTEX
  5
102F2
  8
0
 10
59.22679534190884
 20
-45.30272102553931
 30
0.0
  0
VERTEX
  5
102F3
  8
0
 10
59.33273893720519
 20
-45.28471679714718
 30
0.0
  0
VERTEX
  5
102F4
  8
0
 10
59.44091363491322
 20
-45.27373855641833
 30
0.0
  0
VERTEX
  5
102F5
  8
0
 10
59.55107970425374
 20
-45.27002589929854
 30
0.0
  0
SEQEND
  5
10582
  8
0
  0
POLYLINE
  5
153
  8
0
 66
     1
 10
0.0
 20
0.0
 30
0.0
  0
VERTEX
  5
102F6
  8
0
 10
59.55107970425374
 20
-45.27002589929854
 30
0.0
  0
VERTEX
  5
102F7
  8
0
 10
59.66131867354407
 20
-45.27373855641834
 30
0.0
  0
VERTEX
  5
102F8
  8
0
 10
59.76955710252759
 20
-45.28471679714718
 30
0.0
  0
VERTEX
  5
102F9
  8
0
 10
59.87555579975888
 20
-45.30272102553931
 30
0.0
  0
VERTEX
  5
102FA
  8
0
 10
59.97907557379246
 20
-45.32751164564893
 30
0.0
  0
VERTEX
  5
102FB
  8
0
 10
60.07987723318289
 20
-45.35884906153022
 30
0.0
  0
VERTEX
  5
102FC
  8
0
 10
60.17772158648473
 20
-45.39649367723744
 30
0.0
  0
VERTEX
  5
102FD
  8
0
 10
60.27236944225251
 20
-45.44020589682479
 30
0.0
  0
VERTEX
  5
102FE
  8
0
 10
60.3635816090408
 20
-45.48974612434645
 30
0.0
  0
VERTEX
  5
102FF
  8
0
 10
60.45111889540415
 20
-45.54487476385667
 30
0.0
  0
VERTEX
  5
10300
  8
0
 10
60.5347421098971
 20
-45.60535221940964
 30
0.0
  0
VERTEX
  5
10301
  8
0
 10
60.6142120610742
 20
-45.67093889505959
 30
0.0
  0
VERTEX
  5
10302
  8
0
 10
60.68928955749
 20
-45.74139519486071
 30
0.0
  0
VERTEX
  5
10303
  8
0
 10
60.75973540769905
 20
-45.81648152286723
 30
0.0
  0
VERTEX
  5
10304
  8
0
 10
60.82531042025592
 20
-45.89595828313335
 30
0.0
  0
VERTEX
  5
10305
  8
0
 10
60.88577540371514
 20
-45.9795858797133
 30
0.0
  0
VERTEX
  5
10306
  8
0
 10
60.94089116663125
 20
-46.06712471666127
 30
0.0
  0
VERTEX
  5
10307
  8
0
 10
60.99041851755884
 20
-46.15833519803149
 30
0.0
  0
VERTEX
  5
10308
  8
0
 10
61.03411826505241
 20
-46.25297772787816
 30
0.0
  0
VERTEX
  5
10309
  8
0
 10
61.07175121766654
 20
-46.3508127102555
 30
0.0
  0
VERTEX
  5
1030A
  8
0
 10
61.10307818395579
 20
-46.45160054921772
 30
0.0
  0
VERTEX
  5
1030B
  8
0
 10
61.12785997247468
 20
-46.55510164881902
 30
0.0
  0
VERTEX
  5
1030C
  8
0
 10
61.14585739177778
 20
-46.66107641311363
 30
0.0
  0
VERTEX
  5
1030D
  8
0
 10
61.15683125041964
 20
-46.76928524615576
 30
0.0
  0
VERTEX
  5
1030E
  8
0
 10
61.1605423569548
 20
-46.87948855199961
 30
0.0
  0
SEQEND
  5
10583
  8
0
  0
POLYLINE
  5
154
  8
0
 66
     1
 10
0.0
 20
0.0
 30
0.0
  0
VERTEX
  5
1030F
  8
0
 10
22.81008401988331
 20
-46.87948855199961
 30
0.0
  0
VERTEX
  5
10310
  8
0
 10
22.80637139707229
 20
-46.98969157359537
 30
0.0
  0
VERTEX
  5
10311
  8
0
 10
22.79539334710016
 20
-47.09790014606241
 30
0.0
  0
VERTEX
  5
10312
  8
0
 10
22.77738959765839
 20
-47.20387467242573
 30
0.0
  0
VERTEX
  5
10313
  8
0
 10
22.75259987643842
 20
-47.30737555571029
 30
0.0
  0
VERTEX
  5
10314
  8
0
 10
22.7212639111317
 20
-47.408163198941
 30
0.0
  0
VERTEX
  5
10315
  8
0
 10
22.68362142942966
 20
-47.50599800514283
 30
0.0
  0
VERTEX
  5
10316
  8
0
 10
22.63991215902375
 20
-47.60064037734072
 30
0.0
  0
VERTEX
  5
10317
  8
0
 10
22.59037582760542
 20
-47.69185071855964
 30
0.0
  0
VERTEX
  5
10318
  8
0
 10
22.53525216286612
 20
-47.77938943182451
 30
0.0
  0
VERTEX
  5
10319
  8
0
 10
22.47478089249728
 20
-47.86301692016031
 30
0.0
  0
VERTEX
  5
1031A
  8
0
 10
22.40920174419035
 20
-47.94249358659196
 30
0.0
  0
VERTEX
  5
1031B
  8
0
 10
22.33875444563678
 20
-48.01757983414441
 30
0.0
  0
VERTEX
  5
1031C
  8
0
 10
22.26367872452802
 20
-48.08803606584264
 30
0.0
  0
VERTEX
  5
1031D
  8
0
 10
22.1842143085555
 20
-48.15362268471158
 30
0.0
  0
VERTEX
  5
1031E
  8
0
 10
22.10060092541068
 20
-48.21410009377618
 30
0.0
  0
VERTEX
  5
1031F
  8
0
 10
22.01307830278499
 20
-48.26922869606138
 30
0.0
  0
VERTEX
  5
10320
  8
0
 10
21.92188616836989
 20
-48.31876889459215
 30
0.0
  0
VERTEX
  5
10321
  8
0
 10
21.82726424985681
 20
-48.36248109239342
 30
0.0
  0
VERTEX
  5
10322
  8
0
 10
21.72945227493721
 20
-48.40012569249014
 30
0.0
  0
VERTEX
  5
10323
  8
0
 10
21.62868997130253
 20
-48.43146309790728
 30
0.0
  0
VERTEX
  5
10324
  8
0
 10
21.52521706664421
 20
-48.45625371166977
 30
0.0
  0
VERTEX
  5
10325
  8
0
 10
21.41927328865369
 20
-48.47425793680257
 30
0.0
  0
VERTEX
  5
10326
  8
0
 10
21.31109836502243
 20
-48.48523617633061
 30
0.0
  0
VERTEX
  5
10327
  8
0
 10
21.20093202344187
 20
-48.48894883327885
 30
0.0
  0
SEQEND
  5
10584
  8
0
  0
POLYLINE
  5
155
  8
0
 66
     1
 10
0.0
 20
0.0
 30
0.0
  0
VERTEX
  5
10328
  8
0
 10
21.20093202344187
 20
-48.48894883327885
 30
0.0
  0
VERTEX
  5
10329
  8
0
 10
21.09072872960608
 20
-48.48523617633061
 30
0.0
  0
VERTEX
  5
1032A
  8
0
 10
20.98251993121581
 20
-48.47425793680257
 30
0.0
  0
VERTEX
  5
1032B
  8
0
 10
20.87654522215831
 20
-48.45625371166977
 30
0.0
  0
VERTEX
  5
1032C
  8
0
 10
20.77304419632085
 20
-48.43146309790729
 30
0.0
  0
VERTEX
  5
1032D
  8
0
 10
20.67225644759068
 20
-48.40012569249015
 30
0.0
  0
VERTEX
  5
1032E
  8
0
 10
20.57442156985507
 20
-48.36248109239342
 30
0.0
  0
VERTEX
  5
1032F
  8
0
 10
20.47977915700129
 20
-48.31876889459215
 30
0.0
  0
VERTEX
  5
10330
  8
0
 10
20.38856880291659
 20
-48.26922869606139
 30
0.0
  0
VERTEX
  5
10331
  8
0
 10
20.30103010148824
 20
-48.21410009377617
 30
0.0
  0
VERTEX
  5
10332
  8
0
 10
20.2174026466035
 20
-48.15362268471159
 30
0.0
  0
VERTEX
  5
10333
  8
0
 10
20.13792603214962
 20
-48.08803606584264
 30
0.0
  0
VERTEX
  5
10334
  8
0
 10
20.06283985201388
 20
-48.01757983414441
 30
0.0
  0
VERTEX
  5
10335
  8
0
 10
19.99238370008353
 20
-47.94249358659196
 30
0.0
  0
VERTEX
  5
10336
  8
0
 10
19.92679717024584
 20
-47.86301692016029
 30
0.0
  0
VERTEX
  5
10337
  8
0
 10
19.86631985638807
 20
-47.77938943182451
 30
0.0
  0
VERTEX
  5
10338
  8
0
 10
19.81119135239747
 20
-47.69185071855964
 30
0.0
  0
VERTEX
  5
10339
  8
0
 10
19.76165125216132
 20
-47.60064037734072
 30
0.0
  0
VERTEX
  5
1033A
  8
0
 10
19.71793914956687
 20
-47.50599800514283
 30
0.0
  0
VERTEX
  5
1033B
  8
0
 10
19.68029463850139
 20
-47.408163198941
 30
0.0
  0
VERTEX
  5
1033C
  8
0
 10
19.64895731285213
 20
-47.30737555571028
 30
0.0
  0
VERTEX
  5
1033D
  8
0
 10
19.62416676650637
 20
-47.20387467242574
 30
0.0
  0
VERTEX
  5
1033E
  8
0
 10
19.60616259335136
 20
-47.09790014606241
 30
0.0
  0
VERTEX
  5
1033F
  8
0
 10
19.59518438727435
 20
-46.98969157359535
 30
0.0
  0
VERTEX
  5
10340
  8
0
 10
19.59147174216263
 20
-46.87948855199961
 30
0.0
  0
SEQEND
  5
10585
  8
0
  0
POLYLINE
  5
156
  8
0
 66
     1
 10
0.0
 20
0.0
 30
0.0
  0
VERTEX
  5
10341
  8
0
 10
19.59147174216263
 20
-46.87948855199961
 30
0.0
  0
VERTEX
  5
10342
  8
0
 10
19.59518438727435
 20
-46.76928524615577
 30
0.0
  0
VERTEX
  5
10343
  8
0
 10
19.60616259335135
 20
-46.66107641311364
 30
0.0
  0
VERTEX
  5
10344
  8
0
 10
19.62416676650637
 20
-46.55510164881902
 30
0.0
  0
VERTEX
  5
10345
  8
0
 10
19.64895731285214
 20
-46.45160054921772
 30
0.0
  0
VERTEX
  5
10346
  8
0
 10
19.68029463850139
 20
-46.3508127102555
 30
0.0
  0
VERTEX
  5
10347
  8
0
 10
19.71793914956687
 20
-46.25297772787815
 30
0.0
  0
VERTEX
  5
10348
  8
0
 10
19.76165125216132
 20
-46.15833519803149
 30
0.0
  0
VERTEX
  5
10349
  8
0
 10
19.81119135239747
 20
-46.06712471666127
 30
0.0
  0
VERTEX
  5
1034A
  8
0
 10
19.86631985638806
 20
-45.9795858797133
 30
0.0
  0
VERTEX
  5
1034B
  8
0
 10
19.92679717024584
 20
-45.89595828313335
 30
0.0
  0
VERTEX
  5
1034C
  8
0
 10
19.99238370008353
 20
-45.81648152286722
 30
0.0
  0
VERTEX
  5
1034D
  8
0
 10
20.06283985201388
 20
-45.74139519486071
 30
0.0
  0
VERTEX
  5
1034E
  8
0
 10
20.13792603214962
 20
-45.67093889505959
 30
0.0
  0
VERTEX
  5
1034F
  8
0
 10
20.2174026466035
 20
-45.60535221940964
 30
0.0
  0
VERTEX
  5
10350
  8
0
 10
20.30103010148824
 20
-45.54487476385667
 30
0.0
  0
VERTEX
  5
10351
  8
0
 10
20.38856880291659
 20
-45.48974612434645
 30
0.0
  0
VERTEX
  5
10352
  8
0
 10
20.47977915700129
 20
-45.44020589682479
 30
0.0
  0
VERTEX
  5
10353
  8
0
 10
20.57442156985507
 20
-45.39649367723744
 30
0.0
  0
VERTEX
  5
10354
  8
0
 10
20.67225644759068
 20
-45.35884906153022
 30
0.0
  0
VERTEX
  5
10355
  8
0
 10
20.77304419632084
 20
-45.32751164564892
 30
0.0
  0
VERTEX
  5
10356
  8
0
 10
20.87654522215831
 20
-45.30272102553931
 30
0.0
  0
VERTEX
  5
10357
  8
0
 10
20.9825199312158
 20
-45.28471679714718
 30
0.0
  0
VERTEX
  5
10358
  8
0
 10
21.09072872960608
 20
-45.27373855641833
 30
0.0
  0
VERTEX
  5
10359
  8
0
 10
21.20093202344187
 20
-45.27002589929854
 30
0.0
  0
SEQEND
  5
10586
  8
0
  0
POLYLINE
  5
157
  8
0
 66
     1
 10
0.0
 20
0.0
 30
0.0
  0
VERTEX
  5
1035A
  8
0
 10
21.20093202344187
 20
-45.27002589929854
 30
0.0
  0
VERTEX
  5
1035B
  8
0
 10
21.31109836502243
 20
-45.27373855641834
 30
0.0
  0
VERTEX
  5
1035C
  8
0
 10
21.41927328865369
 20
-45.28471679714718
 30
0.0
  0
VERTEX
  5
1035D
  8
0
 10
21.52521706664421
 20
-45.30272102553931
 30
0.0
  0
VERTEX
  5
1035E
  8
0
 10
21.62868997130253
 20
-45.32751164564893
 30
0.0
  0
VERTEX
  5
1035F
  8
0
 10
21.72945227493721
 20
-45.35884906153022
 30
0.0
  0
VERTEX
  5
10360
  8
0
 10
21.82726424985681
 20
-45.39649367723744
 30
0.0
  0
VERTEX
  5
10361
  8
0
 10
21.92188616836989
 20
-45.44020589682479
 30
0.0
  0
VERTEX
  5
10362
  8
0
 10
22.01307830278499
 20
-45.48974612434645
 30
0.0
  0
VERTEX
  5
10363
  8
0
 10
22.10060092541067
 20
-45.54487476385667
 30
0.0
  0
VERTEX
  5
10364
  8
0
 10
22.1842143085555
 20
-45.60535221940964
 30
0.0
  0
VERTEX
  5
10365
  8
0
 10
22.26367872452802
 20
-45.67093889505959
 30
0.0
  0
VERTEX
  5
10366
  8
0
 10
22.33875444563678
 20
-45.74139519486071
 30
0.0
  0
VERTEX
  5
10367
  8
0
 10
22.40920174419035
 20
-45.81648152286723
 30
0.0
  0
VERTEX
  5
10368
  8
0
 10
22.47478089249728
 20
-45.89595828313335
 30
0.0
  0
VERTEX
  5
10369
  8
0
 10
22.53525216286612
 20
-45.9795858797133
 30
0.0
  0
VERTEX
  5
1036A
  8
0
 10
22.59037582760542
 20
-46.06712471666127
 30
0.0
  0
VERTEX
  5
1036B
  8
0
 10
22.63991215902375
 20
-46.15833519803149
 30
0.0
  0
VERTEX
  5
1036C
  8
0
 10
22.68362142942966
 20
-46.25297772787816
 30
0.0
  0
VERTEX
  5
1036D
  8
0
 10
22.72126391113169
 20
-46.3508127102555
 30
0.0
  0
VERTEX
  5
1036E
  8
0
 10
22.75259987643842
 20
-46.45160054921772
 30
0.0
  0
VERTEX
  5
1036F
  8
0
 10
22.77738959765839
 20
-46.55510164881902
 30
0.0
  0
VERTEX
  5
10370
  8
0
 10
22.79539334710016
 20
-46.66107641311363
 30
0.0
  0
VERTEX
  5
10371
  8
0
 10
22.80637139707228
 20
-46.76928524615576
 30
0.0
  0
VERTEX
  5
10372
  8
0
 10
22.81008401988331
 20
-46.87948855199961
 30
0.0
  0
SEQEND
  5
10587
  8
0
  0
POLYLINE
  5
158
  8
0
 66
     1
 10
0.0
 20
0.0
 30
0.0
  0
VERTEX
  5
10373
  8
0
 10
30.79989267545169
 20
-45.55598617199792
 30
0.0
  0
VERTEX
  5
10374
  8
0
 10
30.79618000666692
 20
-45.66619105089865
 30
0.0
  0
VERTEX
  5
10375
  8
0
 10
30.78520173368783
 20
-45.77440442333345
 30
0.0
  0
VERTEX
  5
10376
  8
0
 10
30.76719745657726
 20
-45.88038642368966
 30
0.0
  0
VERTEX
  5
10377
  8
0
 10
30.74240677539805
 20
-45.98389718635462
 30
0.0
  0
VERTEX
  5
10378
  8
0
 10
30.71106929021304
 20
-46.08469684571559
 30
0.0
  0
VERTEX
  5
10379
  8
0
 10
30.67342460108506
 20
-46.18254553615994
 30
0.0
  0
VERTEX
  5
1037A
  8
0
 10
30.62971230807697
 20
-46.27720339207497
 30
0.0
  0
VERTEX
  5
1037B
  8
0
 10
30.58017201125159
 20
-46.36843054784801
 30
0.0
  0
VERTEX
  5
1037C
  8
0
 10
30.52504331067178
 20
-46.45598713786639
 30
0.0
  0
VERTEX
  5
1037D
  8
0
 10
30.46456580640036
 20
-46.53963329651739
 30
0.0
  0
VERTEX
  5
1037E
  8
0
 10
30.39897909850017
 20
-46.61912915818837
 30
0.0
  0
VERTEX
  5
1037F
  8
0
 10
30.32852278703407
 20
-46.69423485726664
 30
0.0
  0
VERTEX
  5
10380
  8
0
 10
30.25343647206488
 20
-46.7647105281395
 30
0.0
  0
VERTEX
  5
10381
  8
0
 10
30.17395975365545
 20
-46.8303163051943
 30
0.0
  0
VERTEX
  5
10382
  8
0
 10
30.09033223186862
 20
-46.89081232281834
 30
0.0
  0
VERTEX
  5
10383
  8
0
 10
30.00279350676722
 20
-46.94595871539895
 30
0.0
  0
VERTEX
  5
10384
  8
0
 10
29.91158317841409
 20
-46.99551561732345
 30
0.0
  0
VERTEX
  5
10385
  8
0
 10
29.81694084687208
 20
-47.03924316297914
 30
0.0
  0
VERTEX
  5
10386
  8
0
 10
29.71910611220402
 20
-47.07690148675337
 30
0.0
  0
VERTEX
  5
10387
  8
0
 10
29.61831857447276
 20
-47.10825072303344
 30
0.0
  0
VERTEX
  5
10388
  8
0
 10
29.51481783374113
 20
-47.13305100620668
 30
0.0
  0
VERTEX
  5
10389
  8
0
 10
29.40884349007198
 20
-47.15106247066042
 30
0.0
  0
VERTEX
  5
1038A
  8
0
 10
29.30063514352814
 20
-47.16204525078194
 30
0.0
  0
VERTEX
  5
1038B
  8
0
 10
29.19043239417245
 20
-47.16575948095861
 30
0.0
  0
SEQEND
  5
10588
  8
0
  0
POLYLINE
  5
159
  8
0
 66
     1
 10
0.0
 20
0.0
 30
0.0
  0
VERTEX
  5
1038C
  8
0
 10
29.19043239417245
 20
-47.16575948095861
 30
0.0
  0
VERTEX
  5
1038D
  8
0
 10
29.08022907632053
 20
-47.16204525078195
 30
0.0
  0
VERTEX
  5
1038E
  8
0
 10
28.97202020862655
 20
-47.15106247066042
 30
0.0
  0
VERTEX
  5
1038F
  8
0
 10
28.86604538909483
 20
-47.13305100620669
 30
0.0
  0
VERTEX
  5
10390
  8
0
 10
28.76254421572967
 20
-47.10825072303345
 30
0.0
  0
VERTEX
  5
10391
  8
0
 10
28.6617562865354
 20
-47.07690148675338
 30
0.0
  0
VERTEX
  5
10392
  8
0
 10
28.56392119951633
 20
-47.03924316297915
 30
0.0
  0
VERTEX
  5
10393
  8
0
 10
28.46927855267677
 20
-46.99551561732344
 30
0.0
  0
VERTEX
  5
10394
  8
0
 10
28.37806794402103
 20
-46.94595871539894
 30
0.0
  0
VERTEX
  5
10395
  8
0
 10
28.29052897155344
 20
-46.89081232281834
 30
0.0
  0
VERTEX
  5
10396
  8
0
 10
28.2069012332783
 20
-46.8303163051943
 30
0.0
  0
VERTEX
  5
10397
  8
0
 10
28.12742432719993
 20
-46.7647105281395
 30
0.0
  0
VERTEX
  5
10398
  8
0
 10
28.05233785132263
 20
-46.69423485726664
 30
0.0
  0
VERTEX
  5
10399
  8
0
 10
27.98188140365072
 20
-46.61912915818836
 30
0.0
  0
VERTEX
  5
1039A
  8
0
 10
27.91629458218853
 20
-46.53963329651739
 30
0.0
  0
VERTEX
  5
1039B
  8
0
 10
27.85581698494036
 20
-46.45598713786639
 30
0.0
  0
VERTEX
  5
1039C
  8
0
 10
27.80068820991052
 20
-46.36843054784801
 30
0.0
  0
VERTEX
  5
1039D
  8
0
 10
27.75114785510333
 20
-46.27720339207498
 30
0.0
  0
VERTEX
  5
1039E
  8
0
 10
27.70743551852311
 20
-46.18254553615994
 30
0.0
  0
VERTEX
  5
1039F
  8
0
 10
27.66979079817416
 20
-46.08469684571558
 30
0.0
  0
VERTEX
  5
103A0
  8
0
 10
27.6384532920608
 20
-45.98389718635461
 30
0.0
  0
VERTEX
  5
103A1
  8
0
 10
27.61366259818735
 20
-45.88038642368966
 30
0.0
  0
VERTEX
  5
103A2
  8
0
 10
27.59565831455811
 20
-45.77440442333346
 30
0.0
  0
VERTEX
  5
103A3
  8
0
 10
27.5846800391774
 20
-45.66619105089864
 30
0.0
  0
VERTEX
  5
103A4
  8
0
 10
27.58096737004954
 20
-45.55598617199792
 30
0.0
  0
SEQEND
  5
10589
  8
0
  0
POLYLINE
  5
160
  8
0
 66
     1
 10
0.0
 20
0.0
 30
0.0
  0
VERTEX
  5
103A5
  8
0
 10
27.58096737004954
 20
-45.55598617199792
 30
0.0
  0
VERTEX
  5
103A6
  8
0
 10
27.5846800391774
 20
-45.44582037489746
 30
0.0
  0
VERTEX
  5
103A7
  8
0
 10
27.59565831455811
 20
-45.33764590311263
 30
0.0
  0
VERTEX
  5
103A8
  8
0
 10
27.61366259818735
 20
-45.23170249051046
 30
0.0
  0
VERTEX
  5
103A9
  8
0
 10
27.6384532920608
 20
-45.12822987095798
 30
0.0
  0
VERTEX
  5
103AA
  8
0
 10
27.66979079817416
 20
-45.0274677783222
 30
0.0
  0
VERTEX
  5
103AB
  8
0
 10
27.70743551852311
 20
-44.92965594647014
 30
0.0
  0
VERTEX
  5
103AC
  8
0
 10
27.75114785510334
 20
-44.83503410926883
 30
0.0
  0
VERTEX
  5
103AD
  8
0
 10
27.80068820991052
 20
-44.74384200058531
 30
0.0
  0
VERTEX
  5
103AE
  8
0
 10
27.85581698494036
 20
-44.65631935428657
 30
0.0
  0
VERTEX
  5
103AF
  8
0
 10
27.91629458218853
 20
-44.57270590423966
 30
0.0
  0
VERTEX
  5
103B0
  8
0
 10
27.98188140365072
 20
-44.49324138431158
 30
0.0
  0
VERTEX
  5
103B1
  8
0
 10
28.05233785132263
 20
-44.41816552836937
 30
0.0
  0
VERTEX
  5
103B2
  8
0
 10
28.12742432719992
 20
-44.34771807028005
 30
0.0
  0
VERTEX
  5
103B3
  8
0
 10
28.2069012332783
 20
-44.28213874391064
 30
0.0
  0
VERTEX
  5
103B4
  8
0
 10
28.29052897155344
 20
-44.22166728312815
 30
0.0
  0
VERTEX
  5
103B5
  8
0
 10
28.37806794402103
 20
-44.16654342179962
 30
0.0
  0
VERTEX
  5
103B6
  8
0
 10
28.46927855267677
 20
-44.11700689379207
 30
0.0
  0
VERTEX
  5
103B7
  8
0
 10
28.56392119951633
 20
-44.07329743297251
 30
0.0
  0
VERTEX
  5
103B8
  8
0
 10
28.6617562865354
 20
-44.03565477320799
 30
0.0
  0
VERTEX
  5
103B9
  8
0
 10
28.76254421572967
 20
-44.0043186483655
 30
0.0
  0
VERTEX
  5
103BA
  8
0
 10
28.86604538909482
 20
-43.97952879231209
 30
0.0
  0
VERTEX
  5
103BB
  8
0
 10
28.97202020862654
 20
-43.96152493891476
 30
0.0
  0
VERTEX
  5
103BC
  8
0
 10
29.08022907632052
 20
-43.95054682204055
 30
0.0
  0
VERTEX
  5
103BD
  8
0
 10
29.19043239417245
 20
-43.94683417555648
 30
0.0
  0
SEQEND
  5
1058A
  8
0
  0
POLYLINE
  5
161
  8
0
 66
     1
 10
0.0
 20
0.0
 30
0.0
  0
VERTEX
  5
103BE
  8
0
 10
29.19043239417245
 20
-43.94683417555648
 30
0.0
  0
VERTEX
  5
103BF
  8
0
 10
29.30063514352814
 20
-43.95054682204056
 30
0.0
  0
VERTEX
  5
103C0
  8
0
 10
29.40884349007198
 20
-43.96152493891476
 30
0.0
  0
VERTEX
  5
103C1
  8
0
 10
29.51481783374113
 20
-43.9795287923121
 30
0.0
  0
VERTEX
  5
103C2
  8
0
 10
29.61831857447277
 20
-44.00431864836551
 30
0.0
  0
VERTEX
  5
103C3
  8
0
 10
29.71910611220402
 20
-44.03565477320799
 30
0.0
  0
VERTEX
  5
103C4
  8
0
 10
29.81694084687208
 20
-44.07329743297252
 30
0.0
  0
VERTEX
  5
103C5
  8
0
 10
29.91158317841409
 20
-44.11700689379207
 30
0.0
  0
VERTEX
  5
103C6
  8
0
 10
30.00279350676722
 20
-44.16654342179962
 30
0.0
  0
VERTEX
  5
103C7
  8
0
 10
30.09033223186862
 20
-44.22166728312815
 30
0.0
  0
VERTEX
  5
103C8
  8
0
 10
30.17395975365546
 20
-44.28213874391064
 30
0.0
  0
VERTEX
  5
103C9
  8
0
 10
30.25343647206488
 20
-44.34771807028005
 30
0.0
  0
VERTEX
  5
103CA
  8
0
 10
30.32852278703407
 20
-44.41816552836937
 30
0.0
  0
VERTEX
  5
103CB
  8
0
 10
30.39897909850017
 20
-44.49324138431158
 30
0.0
  0
VERTEX
  5
103CC
  8
0
 10
30.46456580640036
 20
-44.57270590423966
 30
0.0
  0
VERTEX
  5
103CD
  8
0
 10
30.52504331067178
 20
-44.65631935428658
 30
0.0
  0
VERTEX
  5
103CE
  8
0
 10
30.58017201125159
 20
-44.7438420005853
 30
0.0
  0
VERTEX
  5
103CF
  8
0
 10
30.62971230807697
 20
-44.83503410926884
 30
0.0
  0
VERTEX
  5
103D0
  8
0
 10
30.67342460108506
 20
-44.92965594647014
 30
0.0
  0
VERTEX
  5
103D1
  8
0
 10
30.71106929021303
 20
-45.02746777832219
 30
0.0
  0
VERTEX
  5
103D2
  8
0
 10
30.74240677539805
 20
-45.12822987095797
 30
0.0
  0
VERTEX
  5
103D3
  8
0
 10
30.76719745657726
 20
-45.23170249051046
 30
0.0
  0
VERTEX
  5
103D4
  8
0
 10
30.78520173368783
 20
-45.33764590311263
 30
0.0
  0
VERTEX
  5
103D5
  8
0
 10
30.79618000666692
 20
-45.44582037489745
 30
0.0
  0
VERTEX
  5
103D6
  8
0
 10
30.79989267545169
 20
-45.55598617199792
 30
0.0
  0
SEQEND
  5
1058B
  8
0
  0
POLYLINE
  5
162
  8
0
 66
     1
 10
0.0
 20
0.0
 30
0.0
  0
VERTEX
  5
103D7
  8
0
 10
4.144608573493088
 20
-48.22070545306563
 30
0.0
  0
VERTEX
  5
103D8
  8
0
 10
4.241962889388134
 20
-48.21780602208945
 30
0.0
  0
VERTEX
  5
103D9
  8
0
 10
4.337782932413137
 20
-48.20921781363624
 30
0.0
  0
VERTEX
  5
103DA
  8
0
 10
4.431904123422914
 20
-48.19510595441911
 30
0.0
  0
VERTEX
  5
103DB
  8
0
 10
4.524161883272288
 20
-48.1756355711511
 30
0.0
  0
VERTEX
  5
103DC
  8
0
 10
4.614391632816078
 20
-48.1509717905453
 30
0.0
  0
VERTEX
  5
103DD
  8
0
 10
4.702428792909105
 20
-48.12127973931475
 30
0.0
  0
VERTEX
  5
103DE
  8
0
 10
4.788108784406189
 20
-48.08672454417254
 30
0.0
  0
VERTEX
  5
103DF
  8
0
 10
4.871267028162151
 20
-48.04747133183172
 30
0.0
  0
VERTEX
  5
103E0
  8
0
 10
4.951738945031813
 20
-48.00368522900536
 30
0.0
  0
VERTEX
  5
103E1
  8
0
 10
5.029359955869992
 20
-47.95553136240655
 30
0.0
  0
VERTEX
  5
103E2
  8
0
 10
5.103965481531511
 20
-47.90317485874832
 30
0.0
  0
VERTEX
  5
103E3
  8
0
 10
5.175390942871189
 20
-47.84678084474378
 30
0.0
  0
VERTEX
  5
103E4
  8
0
 10
5.243471760743848
 20
-47.78651444710595
 30
0.0
  0
VERTEX
  5
103E5
  8
0
 10
5.308043356004307
 20
-47.72254079254794
 30
0.0
  0
VERTEX
  5
103E6
  8
0
 10
5.368941149507387
 20
-47.65502500778278
 30
0.0
  0
VERTEX
  5
103E7
  8
0
 10
5.426000562107909
 20
-47.58413221952356
 30
0.0
  0
VERTEX
  5
103E8
  8
0
 10
5.479057014660693
 20
-47.51002755448336
 30
0.0
  0
VERTEX
  5
103E9
  8
0
 10
5.527945928020558
 20
-47.43287613937521
 30
0.0
  0
VERTEX
  5
103EA
  8
0
 10
5.572502723042327
 20
-47.3528431009122
 30
0.0
  0
VERTEX
  5
103EB
  8
0
 10
5.61256282058082
 20
-47.2700935658074
 30
0.0
  0
VERTEX
  5
103EC
  8
0
 10
5.647961641490856
 20
-47.18479266077387
 30
0.0
  0
VERTEX
  5
103ED
  8
0
 10
5.678534606627256
 20
-47.09710551252468
 30
0.0
  0
VERTEX
  5
103EE
  8
0
 10
5.70411713684484
 20
-47.00719724777289
 30
0.0
  0
VERTEX
  5
103EF
  8
0
 10
5.72454465299843
 20
-46.91523299323158
 30
0.0
  0
SEQEND
  5
1058C
  8
0
  0
LINE
  5
163
  8
0
 10
5.72454465299843
 20
-46.91523299323158
 30
0.0
 11
2.564681979675055
 21
-46.91523299323157
 31
0.0
  0
POLYLINE
  5
164
  8
0
 66
     1
 10
0.0
 20
0.0
 30
0.0
  0
VERTEX
  5
103F0
  8
0
 10
2.564681979675055
 20
-46.91523299323157
 30
0.0
  0
VERTEX
  5
103F1
  8
0
 10
2.585105281339967
 20
-47.00719724777289
 30
0.0
  0
VERTEX
  5
103F2
  8
0
 10
2.610678071985375
 20
-47.09710551252466
 30
0.0
  0
VERTEX
  5
103F3
  8
0
 10
2.641236571174146
 20
-47.18479266077387
 30
0.0
  0
VERTEX
  5
103F4
  8
0
 10
2.676616998469149
 20
-47.2700935658074
 30
0.0
  0
VERTEX
  5
103F5
  8
0
 10
2.71665557343325
 20
-47.3528431009122
 30
0.0
  0
VERTEX
  5
103F6
  8
0
 10
2.761188515629317
 20
-47.4328761393752
 30
0.0
  0
VERTEX
  5
103F7
  8
0
 10
2.810052044620216
 20
-47.51002755448334
 30
0.0
  0
VERTEX
  5
103F8
  8
0
 10
2.863082379968814
 20
-47.58413221952356
 30
0.0
  0
VERTEX
  5
103F9
  8
0
 10
2.920115741237979
 20
-47.65502500778278
 30
0.0
  0
VERTEX
  5
103FA
  8
0
 10
2.980988347990578
 20
-47.72254079254792
 30
0.0
  0
VERTEX
  5
103FB
  8
0
 10
3.045536419789476
 20
-47.78651444710594
 30
0.0
  0
VERTEX
  5
103FC
  8
0
 10
3.113596176197544
 20
-47.84678084474376
 30
0.0
  0
VERTEX
  5
103FD
  8
0
 10
3.185003836777646
 20
-47.90317485874832
 30
0.0
  0
VERTEX
  5
103FE
  8
0
 10
3.259595621092652
 20
-47.95553136240655
 30
0.0
  0
VERTEX
  5
103FF
  8
0
 10
3.337207748705425
 20
-48.00368522900536
 30
0.0
  0
VERTEX
  5
10400
  8
0
 10
3.417676439178836
 20
-48.04747133183171
 30
0.0
  0
VERTEX
  5
10401
  8
0
 10
3.50083791207575
 20
-48.08672454417254
 30
0.0
  0
VERTEX
  5
10402
  8
0
 10
3.586528386959034
 20
-48.12127973931474
 30
0.0
  0
VERTEX
  5
10403
  8
0
 10
3.674584083391557
 20
-48.15097179054529
 30
0.0
  0
VERTEX
  5
10404
  8
0
 10
3.764841220936185
 20
-48.1756355711511
 30
0.0
  0
VERTEX
  5
10405
  8
0
 10
3.857136019155784
 20
-48.19510595441911
 30
0.0
  0
VERTEX
  5
10406
  8
0
 10
3.951304697613223
 20
-48.20921781363625
 30
0.0
  0
VERTEX
  5
10407
  8
0
 10
4.047183475871368
 20
-48.21780602208944
 30
0.0
  0
VERTEX
  5
10408
  8
0
 10
4.144608573493088
 20
-48.22070545306563
 30
0.0
  0
SEQEND
  5
1058D
  8
0
  0
POLYLINE
  5
165
  8
0
 66
     1
 10
0.0
 20
0.0
 30
0.0
  0
VERTEX
  5
10409
  8
0
 10
4.144608573493088
 20
-45.00178014766349
 30
0.0
  0
VERTEX
  5
1040A
  8
0
 10
4.047183475871369
 20
-45.00467957881123
 30
0.0
  0
VERTEX
  5
1040B
  8
0
 10
3.951304697613224
 20
-45.01326778846523
 30
0.0
  0
VERTEX
  5
1040C
  8
0
 10
3.857136019155785
 20
-45.0273796509417
 30
0.0
  0
VERTEX
  5
1040D
  8
0
 10
3.764841220936185
 20
-45.04685004055683
 30
0.0
  0
VERTEX
  5
1040E
  8
0
 10
3.674584083391558
 20
-45.07151383162681
 30
0.0
  0
VERTEX
  5
1040F
  8
0
 10
3.586528386959035
 20
-45.10120589846785
 30
0.0
  0
VERTEX
  5
10410
  8
0
 10
3.50083791207575
 20
-45.13576111539613
 30
0.0
  0
VERTEX
  5
10411
  8
0
 10
3.417676439178837
 20
-45.17501435672785
 30
0.0
  0
VERTEX
  5
10412
  8
0
 10
3.337207748705426
 20
-45.21880049677921
 30
0.0
  0
VERTEX
  5
10413
  8
0
 10
3.259595621092652
 20
-45.26695440986641
 30
0.0
  0
VERTEX
  5
10414
  8
0
 10
3.185003836777647
 20
-45.31931097030564
 30
0.0
  0
VERTEX
  5
10415
  8
0
 10
3.113596176197544
 20
-45.37570505241309
 30
0.0
  0
VERTEX
  5
10416
  8
0
 10
3.045536419789477
 20
-45.43597153050496
 30
0.0
  0
VERTEX
  5
10417
  8
0
 10
2.980988347990578
 20
-45.49994527889746
 30
0.0
  0
VERTEX
  5
10418
  8
0
 10
2.920115741237979
 20
-45.56746117190676
 30
0.0
  0
VERTEX
  5
10419
  8
0
 10
2.863082379968814
 20
-45.63835408384908
 30
0.0
  0
VERTEX
  5
1041A
  8
0
 10
2.810052044620216
 20
-45.7124588890406
 30
0.0
  0
VERTEX
  5
1041B
  8
0
 10
2.761188515629317
 20
-45.78961046179752
 30
0.0
  0
VERTEX
  5
1041C
  8
0
 10
2.71665557343325
 20
-45.86964367643603
 30
0.0
  0
VERTEX
  5
1041D
  8
0
 10
2.676616998469149
 20
-45.95239340727234
 30
0.0
  0
VERTEX
  5
1041E
  8
0
 10
2.641236571174147
 20
-46.03769452862264
 30
0.0
  0
VERTEX
  5
1041F
  8
0
 10
2.610678071985375
 20
-46.12538191480311
 30
0.0
  0
VERTEX
  5
10420
  8
0
 10
2.585105281339966
 20
-46.21529044012997
 30
0.0
  0
VERTEX
  5
10421
  8
0
 10
2.564681979675055
 20
-46.3072549789194
 30
0.0
  0
SEQEND
  5
1058E
  8
0
  0
LINE
  5
166
  8
0
 10
2.564681979675055
 20
-46.3072549789194
 30
0.0
 11
5.724544652998431
 21
-46.30725497891941
 31
0.0
  0
POLYLINE
  5
167
  8
0
 66
     1
 10
0.0
 20
0.0
 30
0.0
  0
VERTEX
  5
10422
  8
0
 10
5.72454465299843
 20
-46.30725497891941
 30
0.0
  0
VERTEX
  5
10423
  8
0
 10
5.704117136844841
 20
-46.21529044012998
 30
0.0
  0
VERTEX
  5
10424
  8
0
 10
5.678534606627256
 20
-46.12538191480312
 30
0.0
  0
VERTEX
  5
10425
  8
0
 10
5.647961641490856
 20
-46.03769452862265
 30
0.0
  0
VERTEX
  5
10426
  8
0
 10
5.61256282058082
 20
-45.95239340727235
 30
0.0
  0
VERTEX
  5
10427
  8
0
 10
5.572502723042328
 20
-45.86964367643606
 30
0.0
  0
VERTEX
  5
10428
  8
0
 10
5.527945928020559
 20
-45.78961046179753
 30
0.0
  0
VERTEX
  5
10429
  8
0
 10
5.479057014660693
 20
-45.7124588890406
 30
0.0
  0
VERTEX
  5
1042A
  8
0
 10
5.426000562107909
 20
-45.63835408384909
 30
0.0
  0
VERTEX
  5
1042B
  8
0
 10
5.368941149507387
 20
-45.56746117190677
 30
0.0
  0
VERTEX
  5
1042C
  8
0
 10
5.308043356004307
 20
-45.49994527889747
 30
0.0
  0
VERTEX
  5
1042D
  8
0
 10
5.243471760743848
 20
-45.43597153050497
 30
0.0
  0
VERTEX
  5
1042E
  8
0
 10
5.175390942871189
 20
-45.3757050524131
 30
0.0
  0
VERTEX
  5
1042F
  8
0
 10
5.103965481531511
 20
-45.31931097030564
 30
0.0
  0
VERTEX
  5
10430
  8
0
 10
5.029359955869992
 20
-45.26695440986642
 30
0.0
  0
VERTEX
  5
10431
  8
0
 10
4.951738945031813
 20
-45.21880049677922
 30
0.0
  0
VERTEX
  5
10432
  8
0
 10
4.871267028162151
 20
-45.17501435672786
 30
0.0
  0
VERTEX
  5
10433
  8
0
 10
4.78810878440619
 20
-45.13576111539613
 30
0.0
  0
VERTEX
  5
10434
  8
0
 10
4.702428792909105
 20
-45.10120589846784
 30
0.0
  0
VERTEX
  5
10435
  8
0
 10
4.614391632816078
 20
-45.07151383162681
 30
0.0
  0
VERTEX
  5
10436
  8
0
 10
4.524161883272289
 20
-45.04685004055682
 30
0.0
  0
VERTEX
  5
10437
  8
0
 10
4.431904123422915
 20
-45.0273796509417
 30
0.0
  0
VERTEX
  5
10438
  8
0
 10
4.337782932413138
 20
-45.01326778846523
 30
0.0
  0
VERTEX
  5
10439
  8
0
 10
4.241962889388136
 20
-45.00467957881122
 30
0.0
  0
VERTEX
  5
1043A
  8
0
 10
4.144608573493088
 20
-45.00178014766349
 30
0.0
  0
SEQEND
  5
1058F
  8
0
  0
POLYLINE
  5
168
  8
0
 66
     1
 10
0.0
 20
0.0
 30
0.0
  0
VERTEX
  5
1043B
  8
0
 10
4.144608573493102
 20
-4.22936023933877
 30
0.0
  0
VERTEX
  5
1043C
  8
0
 10
4.24196288938815
 20
-4.226460784346443
 30
0.0
  0
VERTEX
  5
1043D
  8
0
 10
4.33778293241315
 20
-4.21787250658954
 30
0.0
  0
VERTEX
  5
1043E
  8
0
 10
4.431904123422927
 20
-4.203760536898182
 30
0.0
  0
VERTEX
  5
1043F
  8
0
 10
4.524161883272303
 20
-4.184290006102487
 30
0.0
  0
VERTEX
  5
10440
  8
0
 10
4.614391632816093
 20
-4.159626045032573
 30
0.0
  0
VERTEX
  5
10441
  8
0
 10
4.70242879290912
 20
-4.129933784518562
 30
0.0
  0
VERTEX
  5
10442
  8
0
 10
4.788108784406203
 20
-4.09537835539057
 30
0.0
  0
VERTEX
  5
10443
  8
0
 10
4.871267028162166
 20
-4.056124888478715
 30
0.0
  0
VERTEX
  5
10444
  8
0
 10
4.951738945031828
 20
-4.01233851461312
 30
0.0
  0
VERTEX
  5
10445
  8
0
 10
5.029359955870007
 20
-3.964184364623901
 30
0.0
  0
VERTEX
  5
10446
  8
0
 10
5.103965481531526
 20
-3.911827569341177
 30
0.0
  0
VERTEX
  5
10447
  8
0
 10
5.175390942871204
 20
-3.85543325959507
 30
0.0
  0
VERTEX
  5
10448
  8
0
 10
5.243471760743862
 20
-3.795166566215695
 30
0.0
  0
VERTEX
  5
10449
  8
0
 10
5.308043356004323
 20
-3.731192620033174
 30
0.0
  0
VERTEX
  5
1044A
  8
0
 10
5.368941149507402
 20
-3.663676551877624
 30
0.0
  0
VERTEX
  5
1044B
  8
0
 10
5.426000562107924
 20
-3.592783492579166
 30
0.0
  0
VERTEX
  5
1044C
  8
0
 10
5.479057014660707
 20
-3.518678572967917
 30
0.0
  0
VERTEX
  5
1044D
  8
0
 10
5.527945928020573
 20
-3.441526923873997
 30
0.0
  0
VERTEX
  5
1044E
  8
0
 10
5.572502723042343
 20
-3.361493676127524
 30
0.0
  0
VERTEX
  5
1044F
  8
0
 10
5.612562820580834
 20
-3.278743960558618
 30
0.0
  0
VERTEX
  5
10450
  8
0
 10
5.647961641490871
 20
-3.193442907997398
 30
0.0
  0
VERTEX
  5
10451
  8
0
 10
5.67853460662727
 20
-3.105755649273983
 30
0.0
  0
VERTEX
  5
10452
  8
0
 10
5.704117136844856
 20
-3.015847315218491
 30
0.0
  0
VERTEX
  5
10453
  8
0
 10
5.724544652998445
 20
-2.923883036661042
 30
0.0
  0
SEQEND
  5
10590
  8
0
  0
LINE
  5
169
  8
0
 10
5.724544652998445
 20
-2.923883036661042
 30
0.0
 11
2.56468197967507
 21
-2.923883036661042
 31
0.0
  0
POLYLINE
  5
170
  8
0
 66
     1
 10
0.0
 20
0.0
 30
0.0
  0
VERTEX
  5
10454
  8
0
 10
2.56468197967507
 20
-2.923883036661042
 30
0.0
  0
VERTEX
  5
10455
  8
0
 10
2.585105281339982
 20
-3.015847315218491
 30
0.0
  0
VERTEX
  5
10456
  8
0
 10
2.610678071985389
 20
-3.105755649273982
 30
0.0
  0
VERTEX
  5
10457
  8
0
 10
2.641236571174161
 20
-3.193442907997398
 30
0.0
  0
VERTEX
  5
10458
  8
0
 10
2.676616998469165
 20
-3.278743960558618
 30
0.0
  0
VERTEX
  5
10459
  8
0
 10
2.716655573433266
 20
-3.361493676127523
 30
0.0
  0
VERTEX
  5
1045A
  8
0
 10
2.761188515629332
 20
-3.441526923873996
 30
0.0
  0
VERTEX
  5
1045B
  8
0
 10
2.810052044620231
 20
-3.518678572967916
 30
0.0
  0
VERTEX
  5
1045C
  8
0
 10
2.863082379968829
 20
-3.592783492579165
 30
0.0
  0
VERTEX
  5
1045D
  8
0
 10
2.920115741237994
 20
-3.663676551877624
 30
0.0
  0
VERTEX
  5
1045E
  8
0
 10
2.980988347990592
 20
-3.731192620033174
 30
0.0
  0
VERTEX
  5
1045F
  8
0
 10
3.045536419789491
 20
-3.795166566215695
 30
0.0
  0
VERTEX
  5
10460
  8
0
 10
3.113596176197559
 20
-3.85543325959507
 30
0.0
  0
VERTEX
  5
10461
  8
0
 10
3.185003836777661
 20
-3.911827569341178
 30
0.0
  0
VERTEX
  5
10462
  8
0
 10
3.259595621092666
 20
-3.9641843646239
 30
0.0
  0
VERTEX
  5
10463
  8
0
 10
3.33720774870544
 20
-4.01233851461312
 30
0.0
  0
VERTEX
  5
10464
  8
0
 10
3.417676439178851
 20
-4.056124888478715
 30
0.0
  0
VERTEX
  5
10465
  8
0
 10
3.500837912075765
 20
-4.095378355390569
 30
0.0
  0
VERTEX
  5
10466
  8
0
 10
3.586528386959049
 20
-4.129933784518562
 30
0.0
  0
VERTEX
  5
10467
  8
0
 10
3.674584083391571
 20
-4.159626045032573
 30
0.0
  0
VERTEX
  5
10468
  8
0
 10
3.764841220936199
 20
-4.184290006102486
 30
0.0
  0
VERTEX
  5
10469
  8
0
 10
3.857136019155798
 20
-4.203760536898182
 30
0.0
  0
VERTEX
  5
1046A
  8
0
 10
3.951304697613238
 20
-4.217872506589541
 30
0.0
  0
VERTEX
  5
1046B
  8
0
 10
4.047183475871382
 20
-4.226460784346442
 30
0.0
  0
VERTEX
  5
1046C
  8
0
 10
4.144608573493102
 20
-4.22936023933877
 30
0.0
  0
SEQEND
  5
10591
  8
0
  0
POLYLINE
  5
171
  8
0
 66
     1
 10
0.0
 20
0.0
 30
0.0
  0
VERTEX
  5
1046D
  8
0
 10
4.144608573493102
 20
-1.010439676780288
 30
0.0
  0
VERTEX
  5
1046E
  8
0
 10
4.047183475871384
 20
-1.013339083740344
 30
0.0
  0
VERTEX
  5
1046F
  8
0
 10
3.951304697613238
 20
-1.021927222889836
 30
0.0
  0
VERTEX
  5
10470
  8
0
 10
3.857136019155799
 20
-1.036038971632748
 30
0.0
  0
VERTEX
  5
10471
  8
0
 10
3.7648412209362
 20
-1.055509207373065
 30
0.0
  0
VERTEX
  5
10472
  8
0
 10
3.674584083391573
 20
-1.080172807514772
 30
0.0
  0
VERTEX
  5
10473
  8
0
 10
3.58652838695905
 20
-1.109864649461852
 30
0.0
  0
VERTEX
  5
10474
  8
0
 10
3.500837912075764
 20
-1.144419610618291
 30
0.0
  0
VERTEX
  5
10475
  8
0
 10
3.417676439178851
 20
-1.183672568388073
 30
0.0
  0
VERTEX
  5
10476
  8
0
 10
3.337207748705441
 20
-1.227458400175183
 30
0.0
  0
VERTEX
  5
10477
  8
0
 10
3.259595621092666
 20
-1.275611983383606
 30
0.0
  0
VERTEX
  5
10478
  8
0
 10
3.185003836777661
 20
-1.327968195417326
 30
0.0
  0
VERTEX
  5
10479
  8
0
 10
3.113596176197559
 20
-1.384361913680327
 30
0.0
  0
VERTEX
  5
1047A
  8
0
 10
3.045536419789492
 20
-1.444628015576594
 30
0.0
  0
VERTEX
  5
1047B
  8
0
 10
2.980988347990593
 20
-1.508601378510112
 30
0.0
  0
VERTEX
  5
1047C
  8
0
 10
2.920115741237994
 20
-1.576116879884866
 30
0.0
  0
VERTEX
  5
1047D
  8
0
 10
2.863082379968829
 20
-1.64700939710484
 30
0.0
  0
VERTEX
  5
1047E
  8
0
 10
2.810052044620231
 20
-1.721113807574018
 30
0.0
  0
VERTEX
  5
1047F
  8
0
 10
2.761188515629332
 20
-1.798264988696386
 30
0.0
  0
VERTEX
  5
10480
  8
0
 10
2.716655573433266
 20
-1.878297817875927
 30
0.0
  0
VERTEX
  5
10481
  8
0
 10
2.676616998469165
 20
-1.961047172516627
 30
0.0
  0
VERTEX
  5
10482
  8
0
 10
2.641236571174162
 20
-2.04634793002247
 30
0.0
  0
VERTEX
  5
10483
  8
0
 10
2.61067807198539
 20
-2.134034967797441
 30
0.0
  0
VERTEX
  5
10484
  8
0
 10
2.585105281339982
 20
-2.223943163245524
 30
0.0
  0
VERTEX
  5
10485
  8
0
 10
2.56468197967507
 20
-2.315907393770704
 30
0.0
  0
SEQEND
  5
10592
  8
0
  0
LINE
  5
172
  8
0
 10
2.56468197967507
 20
-2.315907393770705
 30
0.0
 11
5.724544652998445
 21
-2.315907393770704
 31
0.0
  0
POLYLINE
  5
173
  8
0
 66
     1
 10
0.0
 20
0.0
 30
0.0
  0
VERTEX
  5
10486
  8
0
 10
5.724544652998445
 20
-2.315907393770704
 30
0.0
  0
VERTEX
  5
10487
  8
0
 10
5.704117136844856
 20
-2.223943163245524
 30
0.0
  0
VERTEX
  5
10488
  8
0
 10
5.678534606627271
 20
-2.134034967797442
 30
0.0
  0
VERTEX
  5
10489
  8
0
 10
5.647961641490871
 20
-2.046347930022471
 30
0.0
  0
VERTEX
  5
1048A
  8
0
 10
5.612562820580835
 20
-1.961047172516628
 30
0.0
  0
VERTEX
  5
1048B
  8
0
 10
5.572502723042343
 20
-1.878297817875928
 30
0.0
  0
VERTEX
  5
1048C
  8
0
 10
5.527945928020574
 20
-1.798264988696386
 30
0.0
  0
VERTEX
  5
1048D
  8
0
 10
5.479057014660707
 20
-1.721113807574018
 30
0.0
  0
VERTEX
  5
1048E
  8
0
 10
5.426000562107924
 20
-1.64700939710484
 30
0.0
  0
VERTEX
  5
1048F
  8
0
 10
5.368941149507402
 20
-1.576116879884866
 30
0.0
  0
VERTEX
  5
10490
  8
0
 10
5.308043356004322
 20
-1.508601378510112
 30
0.0
  0
VERTEX
  5
10491
  8
0
 10
5.243471760743863
 20
-1.444628015576594
 30
0.0
  0
VERTEX
  5
10492
  8
0
 10
5.175390942871204
 20
-1.384361913680327
 30
0.0
  0
VERTEX
  5
10493
  8
0
 10
5.103965481531526
 20
-1.327968195417326
 30
0.0
  0
VERTEX
  5
10494
  8
0
 10
5.029359955870008
 20
-1.275611983383606
 30
0.0
  0
VERTEX
  5
10495
  8
0
 10
4.951738945031828
 20
-1.227458400175184
 30
0.0
  0
VERTEX
  5
10496
  8
0
 10
4.871267028162167
 20
-1.183672568388074
 30
0.0
  0
VERTEX
  5
10497
  8
0
 10
4.788108784406205
 20
-1.144419610618291
 30
0.0
  0
VERTEX
  5
10498
  8
0
 10
4.70242879290912
 20
-1.109864649461852
 30
0.0
  0
VERTEX
  5
10499
  8
0
 10
4.614391632816092
 20
-1.080172807514772
 30
0.0
  0
VERTEX
  5
1049A
  8
0
 10
4.524161883272303
 20
-1.055509207373065
 30
0.0
  0
VERTEX
  5
1049B
  8
0
 10
4.431904123422929
 20
-1.036038971632748
 30
0.0
  0
VERTEX
  5
1049C
  8
0
 10
4.337782932413152
 20
-1.021927222889836
 30
0.0
  0
VERTEX
  5
1049D
  8
0
 10
4.24196288938815
 20
-1.013339083740344
 30
0.0
  0
VERTEX
  5
1049E
  8
0
 10
4.144608573493102
 20
-1.010439676780288
 30
0.0
  0
SEQEND
  5
10593
  8
0
  0
POLYLINE
  5
174
  8
0
 66
     1
 10
0.0
 20
0.0
 30
0.0
  0
VERTEX
  5
1049F
  8
0
 10
76.60771143904032
 20
-48.22070545306565
 30
0.0
  0
VERTEX
  5
104A0
  8
0
 10
76.70513640105665
 20
-48.21780602208947
 30
0.0
  0
VERTEX
  5
104A1
  8
0
 10
76.8010150699556
 20
-48.20921781363626
 30
0.0
  0
VERTEX
  5
104A2
  8
0
 10
76.89518366684395
 20
-48.19510595441913
 30
0.0
  0
VERTEX
  5
104A3
  8
0
 10
76.98747841282845
 20
-48.17563557115113
 30
0.0
  0
VERTEX
  5
104A4
  8
0
 10
77.07773552901585
 20
-48.15097179054531
 30
0.0
  0
VERTEX
  5
104A5
  8
0
 10
77.16579123651296
 20
-48.12127973931477
 30
0.0
  0
VERTEX
  5
104A6
  8
0
 10
77.2514817564265
 20
-48.08672454417255
 30
0.0
  0
VERTEX
  5
104A7
  8
0
 10
77.33464330986324
 20
-48.04747133183173
 30
0.0
  0
VERTEX
  5
104A8
  8
0
 10
77.41511211792995
 20
-48.00368522900538
 30
0.0
  0
VERTEX
  5
104A9
  8
0
 10
77.49272440173337
 20
-47.95553136240656
 30
0.0
  0
VERTEX
  5
104AA
  8
0
 10
77.56731638238028
 20
-47.90317485874834
 30
0.0
  0
VERTEX
  5
104AB
  8
0
 10
77.63872428097744
 20
-47.84678084474378
 30
0.0
  0
VERTEX
  5
104AC
  8
0
 10
77.7067843186316
 20
-47.78651444710596
 30
0.0
  0
VERTEX
  5
104AD
  8
0
 10
77.77133271644956
 20
-47.72254079254794
 30
0.0
  0
VERTEX
  5
104AE
  8
0
 10
77.83220569553802
 20
-47.65502500778279
 30
0.0
  0
VERTEX
  5
104AF
  8
0
 10
77.88923947700378
 20
-47.58413221952358
 30
0.0
  0
VERTEX
  5
104B0
  8
0
 10
77.94227028195361
 20
-47.51002755448337
 30
0.0
  0
VERTEX
  5
104B1
  8
0
 10
77.99113433149424
 20
-47.43287613937522
 30
0.0
  0
VERTEX
  5
104B2
  8
0
 10
78.03566784673245
 20
-47.35284310091221
 30
0.0
  0
VERTEX
  5
104B3
  8
0
 10
78.075707048775
 20
-47.27009356580741
 30
0.0
  0
VERTEX
  5
104B4
  8
0
 10
78.11108815872865
 20
-47.18479266077388
 30
0.0
  0
VERTEX
  5
104B5
  8
0
 10
78.14164739770017
 20
-47.09710551252468
 30
0.0
  0
VERTEX
  5
104B6
  8
0
 10
78.1672209867963
 20
-47.0071972477729
 30
0.0
  0
VERTEX
  5
104B7
  8
0
 10
78.18764514712383
 20
-46.91523299323158
 30
0.0
  0
SEQEND
  5
10594
  8
0
  0
LINE
  5
175
  8
0
 10
78.18764514712383
 20
-46.91523299323158
 30
0.0
 11
75.0277777309568
 21
-46.91523299323158
 31
0.0
  0
POLYLINE
  5
176
  8
0
 66
     1
 10
0.0
 20
0.0
 30
0.0
  0
VERTEX
  5
104B8
  8
0
 10
75.02777773095681
 20
-46.91523299323158
 30
0.0
  0
VERTEX
  5
104B9
  8
0
 10
75.04820343595073
 20
-47.00719724777291
 30
0.0
  0
VERTEX
  5
104BA
  8
0
 10
75.07378139040833
 20
-47.09710551252468
 30
0.0
  0
VERTEX
  5
104BB
  8
0
 10
75.10434741247997
 20
-47.18479266077388
 30
0.0
  0
VERTEX
  5
104BC
  8
0
 10
75.13973732031597
 20
-47.27009356580741
 30
0.0
  0
VERTEX
  5
104BD
  8
0
 10
75.17978693206665
 20
-47.35284310091222
 30
0.0
  0
VERTEX
  5
104BE
  8
0
 10
75.22433206588231
 20
-47.43287613937521
 30
0.0
  0
VERTEX
  5
104BF
  8
0
 10
75.2732085399133
 20
-47.51002755448337
 30
0.0
  0
VERTEX
  5
104C0
  8
0
 10
75.3262521723099
 20
-47.58413221952357
 30
0.0
  0
VERTEX
  5
104C1
  8
0
 10
75.38329878122245
 20
-47.65502500778279
 30
0.0
  0
VERTEX
  5
104C2
  8
0
 10
75.44418418480126
 20
-47.72254079254795
 30
0.0
  0
VERTEX
  5
104C3
  8
0
 10
75.50874420119665
 20
-47.78651444710596
 30
0.0
  0
VERTEX
  5
104C4
  8
0
 10
75.57681464855895
 20
-47.84678084474378
 30
0.0
  0
VERTEX
  5
104C5
  8
0
 10
75.64823134503847
 20
-47.90317485874834
 30
0.0
  0
VERTEX
  5
104C6
  8
0
 10
75.7228301087855
 20
-47.95553136240656
 30
0.0
  0
VERTEX
  5
104C7
  8
0
 10
75.80044675795043
 20
-48.00368522900538
 30
0.0
  0
VERTEX
  5
104C8
  8
0
 10
75.88091711068348
 20
-48.04747133183172
 30
0.0
  0
VERTEX
  5
104C9
  8
0
 10
75.96407698513504
 20
-48.08672454417255
 30
0.0
  0
VERTEX
  5
104CA
  8
0
 10
76.04976219945542
 20
-48.12127973931477
 30
0.0
  0
VERTEX
  5
104CB
  8
0
 10
76.13780857179489
 20
-48.1509717905453
 30
0.0
  0
VERTEX
  5
104CC
  8
0
 10
76.22805192030381
 20
-48.17563557115112
 30
0.0
  0
VERTEX
  5
104CD
  8
0
 10
76.32032806313251
 20
-48.19510595441912
 30
0.0
  0
VERTEX
  5
104CE
  8
0
 10
76.41447281843128
 20
-48.20921781363626
 30
0.0
  0
VERTEX
  5
104CF
  8
0
 10
76.51032200435044
 20
-48.21780602208946
 30
0.0
  0
VERTEX
  5
104D0
  8
0
 10
76.60771143904032
 20
-48.22070545306565
 30
0.0
  0
SEQEND
  5
10595
  8
0
  0
POLYLINE
  5
177
  8
0
 66
     1
 10
0.0
 20
0.0
 30
0.0
  0
VERTEX
  5
104D1
  8
0
 10
76.60771143904032
 20
-45.00178014766351
 30
0.0
  0
VERTEX
  5
104D2
  8
0
 10
76.51032200435046
 20
-45.00467957881125
 30
0.0
  0
VERTEX
  5
104D3
  8
0
 10
76.41447281843128
 20
-45.01326778846526
 30
0.0
  0
VERTEX
  5
104D4
  8
0
 10
76.32032806313252
 20
-45.02737965094172
 30
0.0
  0
VERTEX
  5
104D5
  8
0
 10
76.22805192030383
 20
-45.04685004055685
 30
0.0
  0
VERTEX
  5
104D6
  8
0
 10
76.13780857179489
 20
-45.07151383162683
 30
0.0
  0
VERTEX
  5
104D7
  8
0
 10
76.0497621994554
 20
-45.10120589846786
 30
0.0
  0
VERTEX
  5
104D8
  8
0
 10
75.96407698513504
 20
-45.13576111539615
 30
0.0
  0
VERTEX
  5
104D9
  8
0
 10
75.88091711068347
 20
-45.17501435672787
 30
0.0
  0
VERTEX
  5
104DA
  8
0
 10
75.80044675795041
 20
-45.21880049677923
 30
0.0
  0
VERTEX
  5
104DB
  8
0
 10
75.72283010878552
 20
-45.26695440986643
 30
0.0
  0
VERTEX
  5
104DC
  8
0
 10
75.64823134503847
 20
-45.31931097030566
 30
0.0
  0
VERTEX
  5
104DD
  8
0
 10
75.57681464855895
 20
-45.37570505241311
 30
0.0
  0
VERTEX
  5
104DE
  8
0
 10
75.50874420119666
 20
-45.43597153050499
 30
0.0
  0
VERTEX
  5
104DF
  8
0
 10
75.44418418480127
 20
-45.49994527889748
 30
0.0
  0
VERTEX
  5
104E0
  8
0
 10
75.38329878122245
 20
-45.56746117190679
 30
0.0
  0
VERTEX
  5
104E1
  8
0
 10
75.3262521723099
 20
-45.63835408384909
 30
0.0
  0
VERTEX
  5
104E2
  8
0
 10
75.2732085399133
 20
-45.71245888904062
 30
0.0
  0
VERTEX
  5
104E3
  8
0
 10
75.22433206588231
 20
-45.78961046179754
 30
0.0
  0
VERTEX
  5
104E4
  8
0
 10
75.17978693206665
 20
-45.86964367643605
 30
0.0
  0
VERTEX
  5
104E5
  8
0
 10
75.13973732031596
 20
-45.95239340727235
 30
0.0
  0
VERTEX
  5
104E6
  8
0
 10
75.10434741247997
 20
-46.03769452862264
 30
0.0
  0
VERTEX
  5
104E7
  8
0
 10
75.07378139040831
 20
-46.12538191480313
 30
0.0
  0
VERTEX
  5
104E8
  8
0
 10
75.04820343595071
 20
-46.21529044012998
 30
0.0
  0
VERTEX
  5
104E9
  8
0
 10
75.02777773095681
 20
-46.30725497891941
 30
0.0
  0
SEQEND
  5
10596
  8
0
  0
LINE
  5
178
  8
0
 10
75.02777773095681
 20
-46.30725497891941
 30
0.0
 11
78.18764514712383
 21
-46.30725497891941
 31
0.0
  0
POLYLINE
  5
179
  8
0
 66
     1
 10
0.0
 20
0.0
 30
0.0
  0
VERTEX
  5
104EA
  8
0
 10
78.18764514712383
 20
-46.30725497891941
 30
0.0
  0
VERTEX
  5
104EB
  8
0
 10
78.16722098679632
 20
-46.21529044012998
 30
0.0
  0
VERTEX
  5
104EC
  8
0
 10
78.14164739770018
 20
-46.12538191480313
 30
0.0
  0
VERTEX
  5
104ED
  8
0
 10
78.11108815872866
 20
-46.03769452862265
 30
0.0
  0
VERTEX
  5
104EE
  8
0
 10
78.075707048775
 20
-45.95239340727236
 30
0.0
  0
VERTEX
  5
104EF
  8
0
 10
78.03566784673244
 20
-45.86964367643606
 30
0.0
  0
VERTEX
  5
104F0
  8
0
 10
77.99113433149424
 20
-45.78961046179753
 30
0.0
  0
VERTEX
  5
104F1
  8
0
 10
77.94227028195361
 20
-45.71245888904062
 30
0.0
  0
VERTEX
  5
104F2
  8
0
 10
77.88923947700378
 20
-45.63835408384909
 30
0.0
  0
VERTEX
  5
104F3
  8
0
 10
77.83220569553802
 20
-45.56746117190679
 30
0.0
  0
VERTEX
  5
104F4
  8
0
 10
77.77133271644955
 20
-45.49994527889748
 30
0.0
  0
VERTEX
  5
104F5
  8
0
 10
77.7067843186316
 20
-45.43597153050499
 30
0.0
  0
VERTEX
  5
104F6
  8
0
 10
77.63872428097744
 20
-45.37570505241312
 30
0.0
  0
VERTEX
  5
104F7
  8
0
 10
77.56731638238027
 20
-45.31931097030565
 30
0.0
  0
VERTEX
  5
104F8
  8
0
 10
77.49272440173337
 20
-45.26695440986643
 30
0.0
  0
VERTEX
  5
104F9
  8
0
 10
77.41511211792997
 20
-45.21880049677924
 30
0.0
  0
VERTEX
  5
104FA
  8
0
 10
77.33464330986324
 20
-45.17501435672787
 30
0.0
  0
VERTEX
  5
104FB
  8
0
 10
77.25148175642651
 20
-45.13576111539615
 30
0.0
  0
VERTEX
  5
104FC
  8
0
 10
77.16579123651297
 20
-45.10120589846787
 30
0.0
  0
VERTEX
  5
104FD
  8
0
 10
77.07773552901585
 20
-45.07151383162683
 30
0.0
  0
VERTEX
  5
104FE
  8
0
 10
76.98747841282844
 20
-45.04685004055685
 30
0.0
  0
VERTEX
  5
104FF
  8
0
 10
76.89518366684393
 20
-45.02737965094172
 30
0.0
  0
VERTEX
  5
10500
  8
0
 10
76.80101506995561
 20
-45.01326778846526
 30
0.0
  0
VERTEX
  5
10501
  8
0
 10
76.70513640105665
 20
-45.00467957881124
 30
0.0
  0
VERTEX
  5
10502
  8
0
 10
76.60771143904032
 20
-45.00178014766351
 30
0.0
  0
SEQEND
  5
10597
  8
0
  0
POLYLINE
  5
180
  8
0
 66
     1
 10
0.0
 20
0.0
 30
0.0
  0
VERTEX
  5
10503
  8
0
 10
76.60771143904032
 20
-4.229360239338785
 30
0.0
  0
VERTEX
  5
10504
  8
0
 10
76.70513640105665
 20
-4.226460784346458
 30
0.0
  0
VERTEX
  5
10505
  8
0
 10
76.8010150699556
 20
-4.217872506589555
 30
0.0
  0
VERTEX
  5
10506
  8
0
 10
76.89518366684396
 20
-4.203760536898198
 30
0.0
  0
VERTEX
  5
10507
  8
0
 10
76.98747841282845
 20
-4.184290006102501
 30
0.0
  0
VERTEX
  5
10508
  8
0
 10
77.07773552901587
 20
-4.159626045032589
 30
0.0
  0
VERTEX
  5
10509
  8
0
 10
77.16579123651297
 20
-4.129933784518576
 30
0.0
  0
VERTEX
  5
1050A
  8
0
 10
77.25148175642651
 20
-4.095378355390584
 30
0.0
  0
VERTEX
  5
1050B
  8
0
 10
77.33464330986325
 20
-4.05612488847873
 30
0.0
  0
VERTEX
  5
1050C
  8
0
 10
77.41511211792997
 20
-4.012338514613134
 30
0.0
  0
VERTEX
  5
1050D
  8
0
 10
77.49272440173338
 20
-3.964184364623915
 30
0.0
  0
VERTEX
  5
1050E
  8
0
 10
77.5673163823803
 20
-3.911827569341193
 30
0.0
  0
VERTEX
  5
1050F
  8
0
 10
77.63872428097746
 20
-3.855433259595084
 30
0.0
  0
VERTEX
  5
10510
  8
0
 10
77.70678431863162
 20
-3.79516656621571
 30
0.0
  0
VERTEX
  5
10511
  8
0
 10
77.77133271644956
 20
-3.731192620033189
 30
0.0
  0
VERTEX
  5
10512
  8
0
 10
77.83220569553804
 20
-3.663676551877639
 30
0.0
  0
VERTEX
  5
10513
  8
0
 10
77.8892394770038
 20
-3.59278349257918
 30
0.0
  0
VERTEX
  5
10514
  8
0
 10
77.94227028195363
 20
-3.518678572967931
 30
0.0
  0
VERTEX
  5
10515
  8
0
 10
77.99113433149425
 20
-3.441526923874011
 30
0.0
  0
VERTEX
  5
10516
  8
0
 10
78.03566784673245
 20
-3.361493676127539
 30
0.0
  0
VERTEX
  5
10517
  8
0
 10
78.075707048775
 20
-3.278743960558633
 30
0.0
  0
VERTEX
  5
10518
  8
0
 10
78.11108815872866
 20
-3.193442907997413
 30
0.0
  0
VERTEX
  5
10519
  8
0
 10
78.14164739770018
 20
-3.105755649273998
 30
0.0
  0
VERTEX
  5
1051A
  8
0
 10
78.16722098679631
 20
-3.015847315218506
 30
0.0
  0
VERTEX
  5
1051B
  8
0
 10
78.18764514712385
 20
-2.923883036661057
 30
0.0
  0
SEQEND
  5
10598
  8
0
  0
LINE
  5
181
  8
0
 10
78.18764514712385
 20
-2.923883036661057
 30
0.0
 11
75.02777773095681
 21
-2.923883036661057
 31
0.0
  0
POLYLINE
  5
182
  8
0
 66
     1
 10
0.0
 20
0.0
 30
0.0
  0
VERTEX
  5
1051C
  8
0
 10
75.02777773095681
 20
-2.923883036661057
 30
0.0
  0
VERTEX
  5
1051D
  8
0
 10
75.04820343595073
 20
-3.015847315218505
 30
0.0
  0
VERTEX
  5
1051E
  8
0
 10
75.07378139040833
 20
-3.105755649273997
 30
0.0
  0
VERTEX
  5
1051F
  8
0
 10
75.10434741247997
 20
-3.193442907997412
 30
0.0
  0
VERTEX
  5
10520
  8
0
 10
75.13973732031597
 20
-3.278743960558633
 30
0.0
  0
VERTEX
  5
10521
  8
0
 10
75.17978693206665
 20
-3.361493676127539
 30
0.0
  0
VERTEX
  5
10522
  8
0
 10
75.22433206588231
 20
-3.44152692387401
 30
0.0
  0
VERTEX
  5
10523
  8
0
 10
75.2732085399133
 20
-3.518678572967931
 30
0.0
  0
VERTEX
  5
10524
  8
0
 10
75.3262521723099
 20
-3.59278349257918
 30
0.0
  0
VERTEX
  5
10525
  8
0
 10
75.38329878122245
 20
-3.663676551877639
 30
0.0
  0
VERTEX
  5
10526
  8
0
 10
75.44418418480126
 20
-3.731192620033189
 30
0.0
  0
VERTEX
  5
10527
  8
0
 10
75.50874420119665
 20
-3.79516656621571
 30
0.0
  0
VERTEX
  5
10528
  8
0
 10
75.57681464855895
 20
-3.855433259595084
 30
0.0
  0
VERTEX
  5
10529
  8
0
 10
75.64823134503847
 20
-3.911827569341193
 30
0.0
  0
VERTEX
  5
1052A
  8
0
 10
75.7228301087855
 20
-3.964184364623915
 30
0.0
  0
VERTEX
  5
1052B
  8
0
 10
75.80044675795043
 20
-4.012338514613134
 30
0.0
  0
VERTEX
  5
1052C
  8
0
 10
75.88091711068348
 20
-4.05612488847873
 30
0.0
  0
VERTEX
  5
1052D
  8
0
 10
75.96407698513504
 20
-4.095378355390584
 30
0.0
  0
VERTEX
  5
1052E
  8
0
 10
76.04976219945542
 20
-4.129933784518576
 30
0.0
  0
VERTEX
  5
1052F
  8
0
 10
76.13780857179489
 20
-4.159626045032589
 30
0.0
  0
VERTEX
  5
10530
  8
0
 10
76.22805192030381
 20
-4.184290006102502
 30
0.0
  0
VERTEX
  5
10531
  8
0
 10
76.32032806313251
 20
-4.203760536898198
 30
0.0
  0
VERTEX
  5
10532
  8
0
 10
76.41447281843128
 20
-4.217872506589556
 30
0.0
  0
VERTEX
  5
10533
  8
0
 10
76.51032200435044
 20
-4.226460784346457
 30
0.0
  0
VERTEX
  5
10534
  8
0
 10
76.60771143904032
 20
-4.229360239338785
 30
0.0
  0
SEQEND
  5
10599
  8
0
  0
POLYLINE
  5
183
  8
0
 66
     1
 10
0.0
 20
0.0
 30
0.0
  0
VERTEX
  5
10535
  8
0
 10
76.60771143904032
 20
-1.010439676780303
 30
0.0
  0
VERTEX
  5
10536
  8
0
 10
76.51032200435046
 20
-1.01333908374036
 30
0.0
  0
VERTEX
  5
10537
  8
0
 10
76.41447281843128
 20
-1.021927222889851
 30
0.0
  0
VERTEX
  5
10538
  8
0
 10
76.32032806313252
 20
-1.036038971632764
 30
0.0
  0
VERTEX
  5
10539
  8
0
 10
76.22805192030383
 20
-1.055509207373081
 30
0.0
  0
VERTEX
  5
1053A
  8
0
 10
76.13780857179489
 20
-1.080172807514787
 30
0.0
  0
VERTEX
  5
1053B
  8
0
 10
76.0497621994554
 20
-1.109864649461867
 30
0.0
  0
VERTEX
  5
1053C
  8
0
 10
75.96407698513504
 20
-1.144419610618306
 30
0.0
  0
VERTEX
  5
1053D
  8
0
 10
75.88091711068347
 20
-1.183672568388088
 30
0.0
  0
VERTEX
  5
1053E
  8
0
 10
75.80044675795041
 20
-1.227458400175199
 30
0.0
  0
VERTEX
  5
1053F
  8
0
 10
75.72283010878552
 20
-1.275611983383621
 30
0.0
  0
VERTEX
  5
10540
  8
0
 10
75.64823134503847
 20
-1.327968195417341
 30
0.0
  0
VERTEX
  5
10541
  8
0
 10
75.57681464855895
 20
-1.384361913680342
 30
0.0
  0
VERTEX
  5
10542
  8
0
 10
75.50874420119666
 20
-1.444628015576609
 30
0.0
  0
VERTEX
  5
10543
  8
0
 10
75.44418418480127
 20
-1.508601378510128
 30
0.0
  0
VERTEX
  5
10544
  8
0
 10
75.38329878122245
 20
-1.576116879884881
 30
0.0
  0
VERTEX
  5
10545
  8
0
 10
75.3262521723099
 20
-1.647009397104855
 30
0.0
  0
VERTEX
  5
10546
  8
0
 10
75.2732085399133
 20
-1.721113807574033
 30
0.0
  0
VERTEX
  5
10547
  8
0
 10
75.22433206588231
 20
-1.798264988696401
 30
0.0
  0
VERTEX
  5
10548
  8
0
 10
75.17978693206665
 20
-1.878297817875942
 30
0.0
  0
VERTEX
  5
10549
  8
0
 10
75.13973732031596
 20
-1.961047172516642
 30
0.0
  0
VERTEX
  5
1054A
  8
0
 10
75.10434741247997
 20
-2.046347930022485
 30
0.0
  0
VERTEX
  5
1054B
  8
0
 10
75.07378139040831
 20
-2.134034967797456
 30
0.0
  0
VERTEX
  5
1054C
  8
0
 10
75.04820343595071
 20
-2.223943163245539
 30
0.0
  0
VERTEX
  5
1054D
  8
0
 10
75.02777773095681
 20
-2.315907393770719
 30
0.0
  0
SEQEND
  5
1059A
  8
0
  0
LINE
  5
184
  8
0
 10
75.02777773095681
 20
-2.315907393770719
 30
0.0
 11
78.18764514712385
 21
-2.315907393770719
 31
0.0
  0
POLYLINE
  5
185
  8
0
 66
     1
 10
0.0
 20
0.0
 30
0.0
  0
VERTEX
  5
1054E
  8
0
 10
78.18764514712385
 20
-2.315907393770719
 30
0.0
  0
VERTEX
  5
1054F
  8
0
 10
78.16722098679635
 20
-2.22394316324554
 30
0.0
  0
VERTEX
  5
10550
  8
0
 10
78.1416473977002
 20
-2.134034967797457
 30
0.0
  0
VERTEX
  5
10551
  8
0
 10
78.11108815872866
 20
-2.046347930022486
 30
0.0
  0
VERTEX
  5
10552
  8
0
 10
78.07570704877502
 20
-1.961047172516643
 30
0.0
  0
VERTEX
  5
10553
  8
0
 10
78.03566784673247
 20
-1.878297817875943
 30
0.0
  0
VERTEX
  5
10554
  8
0
 10
77.99113433149425
 20
-1.798264988696402
 30
0.0
  0
VERTEX
  5
10555
  8
0
 10
77.94227028195361
 20
-1.721113807574034
 30
0.0
  0
VERTEX
  5
10556
  8
0
 10
77.8892394770038
 20
-1.647009397104855
 30
0.0
  0
VERTEX
  5
10557
  8
0
 10
77.83220569553802
 20
-1.576116879884881
 30
0.0
  0
VERTEX
  5
10558
  8
0
 10
77.77133271644956
 20
-1.508601378510128
 30
0.0
  0
VERTEX
  5
10559
  8
0
 10
77.70678431863162
 20
-1.44462801557661
 30
0.0
  0
VERTEX
  5
1055A
  8
0
 10
77.63872428097744
 20
-1.384361913680342
 30
0.0
  0
VERTEX
  5
1055B
  8
0
 10
77.5673163823803
 20
-1.327968195417341
 30
0.0
  0
VERTEX
  5
1055C
  8
0
 10
77.4927244017334
 20
-1.275611983383621
 30
0.0
  0
VERTEX
  5
1055D
  8
0
 10
77.41511211792997
 20
-1.227458400175199
 30
0.0
  0
VERTEX
  5
1055E
  8
0
 10
77.33464330986325
 20
-1.183672568388089
 30
0.0
  0
VERTEX
  5
1055F
  8
0
 10
77.25148175642651
 20
-1.144419610618307
 30
0.0
  0
VERTEX
  5
10560
  8
0
 10
77.16579123651297
 20
-1.109864649461867
 30
0.0
  0
VERTEX
  5
10561
  8
0
 10
77.07773552901588
 20
-1.080172807514787
 30
0.0
  0
VERTEX
  5
10562
  8
0
 10
76.98747841282845
 20
-1.055509207373081
 30
0.0
  0
VERTEX
  5
10563
  8
0
 10
76.89518366684395
 20
-1.036038971632764
 30
0.0
  0
VERTEX
  5
10564
  8
0
 10
76.80101506995561
 20
-1.021927222889851
 30
0.0
  0
VERTEX
  5
10565
  8
0
 10
76.70513640105665
 20
-1.01333908374036
 30
0.0
  0
VERTEX
  5
10566
  8
0
 10
76.60771143904032
 20
-1.010439676780303
 30
0.0
  0
SEQEND
  5
1059B
  8
0
  0
LINE
  5
186
  8
0
 10
40.37600934366863
 20
-0.1764275761000439
 30
0.0
 11
40.37600934366863
 21
-50.17709332272217
 31
0.0
  0
LINE
  5
187
  8
0
 10
0.3769584275715848
 20
-25.17672659024558
 30
0.0
 11
80.37619420863851
 21
-25.17672659024558
 31
0.0
  0
ENDSEC
  0
EOF
