  0
SECTION
  2
HEADER
  9
$ACADVER
  1
AC1009
  9
$DWGCODEPAGE
  3
ansi_1252
  9
$INSBASE
 10
0.0
 20
0.0
 30
0.0
  9
$EXTMIN
 10
0.176531639111829
 20
-50.17646013874501
 30
0.0
  9
$EXTMAX
 10
80.57695768084336
 20
-0.1764821886418559
 30
0.0
  9
$LIMMIN
 10
0.0
 20
0.0
  9
$LIMMAX
 10
12.0
 20
9.0
  9
$ORTHOMODE
 70
     0
  9
$REGENMODE
 70
     1
  9
$FILLMODE
 70
     1
  9
$QTEXTMODE
 70
     0
  9
$MIRRTEXT
 70
     1
  9
$DRAGMODE
 70
     2
  9
$LTSCALE
 40
1.0
  9
$OSMODE
 70
   511
  9
$ATTMODE
 70
     1
  9
$TEXTSIZE
 40
0.2
  9
$TRACEWID
 40
0.05
  9
$TEXTSTYLE
  7
STANDARD
  9
$CLAYER
  8
0
  9
$CELTYPE
  6
BYBLOCK
  9
$CECOLOR
 62
   256
  9
$DIMSCALE
 40
1.0
  9
$DIMASZ
 40
0.18
  9
$DIMEXO
 40
0.0625
  9
$DIMDLI
 40
0.38
  9
$DIMRND
 40
0.0
  9
$DIMDLE
 40
0.0
  9
$DIMEXE
 40
0.18
  9
$DIMTP
 40
0.0
  9
$DIMTM
 40
0.0
  9
$DIMTXT
 40
0.18
  9
$DIMCEN
 40
0.09
  9
$DIMTSZ
 40
0.0
  9
$DIMTOL
 70
     0
  9
$DIMLIM
 70
     0
  9
$DIMTIH
 70
     1
  9
$DIMTOH
 70
     1
  9
$DIMSE1
 70
     0
  9
$DIMSE2
 70
     0
  9
$DIMTAD
 70
     0
  9
$DIMZIN
 70
     0
  9
$DIMBLK
  1

  9
$DIMASO
 70
     1
  9
$DIMSHO
 70
     1
  9
$DIMPOST
  1

  9
$DIMAPOST
  1

  9
$DIMALT
 70
     0
  9
$DIMALTD
 70
     2
  9
$DIMALTF
 40
25.4
  9
$DIMLFAC
 40
1.0
  9
$DIMTOFL
 70
     0
  9
$DIMTVP
 40
0.0
  9
$DIMTIX
 70
     0
  9
$DIMSOXD
 70
     0
  9
$DIMSAH
 70
     0
  9
$DIMBLK1
  1

  9
$DIMBLK2
  1

  9
$DIMSTYLE
  2
STANDARD
  9
$DIMCLRD
 70
     0
  9
$DIMCLRE
 70
     0
  9
$DIMCLRT
 70
     0
  9
$DIMTFAC
 40
1.0
  9
$DIMGAP
 40
0.09
  9
$LUNITS
 70
     2
  9
$LUPREC
 70
     4
  9
$SKETCHINC
 40
0.1
  9
$FILLETRAD
 40
0.5
  9
$AUNITS
 70
     0
  9
$AUPREC
 70
     0
  9
$MENU
  1
.
  9
$ELEVATION
 40
0.0
  9
$PELEVATION
 40
0.0
  9
$THICKNESS
 40
0.0
  9
$LIMCHECK
 70
     0
  9
$CHAMFERA
 40
0.0
  9
$CHAMFERB
 40
0.0
  9
$SKPOLY
 70
     0
  9
$TDCREATE
 40
0.0
  9
$TDUPDATE
 40
2458517.782719166
  9
$TDINDWG
 40
0.0000000579
  9
$TDUSRTIMER
 40
0.0001539468
  9
$USRTIMER
 70
     1
  9
$ANGBASE
 50
0.0
  9
$ANGDIR
 70
     0
  9
$PDMODE
 70
     0
  9
$PDSIZE
 40
0.0
  9
$PLINEWID
 40
0.0
  9
$COORDS
 70
     1
  9
$SPLFRAME
 70
     0
  9
$SPLINETYPE
 70
     6
  9
$SPLINESEGS
 70
     8
  9
$ATTDIA
 70
     0
  9
$ATTREQ
 70
     1
  9
$HANDLING
 70
     1
  9
$HANDSEED
  5
1011D
  9
$SURFTAB1
 70
     6
  9
$SURFTAB2
 70
     6
  9
$SURFTYPE
 70
     6
  9
$SURFU
 70
     6
  9
$SURFV
 70
     6
  9
$UCSNAME
  2

  9
$UCSORG
 10
0.0
 20
0.0
 30
0.0
  9
$UCSXDIR
 10
1.0
 20
0.0
 30
0.0
  9
$UCSYDIR
 10
0.0
 20
1.0
 30
0.0
  9
$PUCSNAME
  2

  9
$PUCSORG
 10
0.0
 20
0.0
 30
0.0
  9
$PUCSXDIR
 10
1.0
 20
0.0
 30
0.0
  9
$PUCSYDIR
 10
0.0
 20
1.0
 30
0.0
  9
$USERI1
 70
     0
  9
$USERI2
 70
     0
  9
$USERI3
 70
     0
  9
$USERI4
 70
     0
  9
$USERI5
 70
     0
  9
$USERR1
 40
0.0
  9
$USERR2
 40
0.0
  9
$USERR3
 40
0.0
  9
$USERR4
 40
0.0
  9
$USERR5
 40
0.0
  9
$WORLDVIEW
 70
     1
  9
$SHADEDGE
 70
     3
  9
$SHADEDIF
 70
    70
  9
$TILEMODE
 70
     1
  9
$MAXACTVP
 70
    64
  9
$PLIMCHECK
 70
     0
  9
$PEXTMIN
 10
1.000000000000000E+20
 20
1.000000000000000E+20
 30
1.000000000000000E+20
  9
$PEXTMAX
 10
-1.000000000000000E+20
 20
-1.000000000000000E+20
 30
-1.000000000000000E+20
  9
$PLIMMIN
 10
0.0
 20
0.0
  9
$PLIMMAX
 10
0.0
 20
0.0
  9
$UNITMODE
 70
     0
  9
$VISRETAIN
 70
     1
  9
$PLINEGEN
 70
     0
  9
$PSLTSCALE
 70
     1
  0
ENDSEC
  0
SECTION
  2
TABLES
  0
TABLE
  2
VPORT
 70
     1
  0
VPORT
  2
*ACTIVE
 70
     0
 10
0.0
 20
0.0
 11
1.0
 21
1.0
 12
10.42990654205607
 22
4.5
 13
0.0
 23
0.0
 14
0.5
 24
0.5
 15
0.5
 25
0.5
 16
0.0
 26
0.0
 36
1.0
 17
0.0
 27
0.0
 37
0.0
 40
9.0
 41
1.972972972850329
 42
50.0
 43
0.0
 44
0.0
 50
0.0
 51
0.0
 71
     0
 72
   100
 73
     1
 74
     3
 75
     0
 76
     0
 77
     0
 78
     0
  0
ENDTAB
  0
TABLE
  2
LTYPE
 70
     1
  0
LTYPE
  2
CONTINUOUS
 70
     0
  3
Solid line
 72
    65
 73
     0
 40
0.0
  0
ENDTAB
  0
TABLE
  2
LAYER
 70
     1
  0
LAYER
  2
0
 70
     0
 62
     7
  6
CONTINUOUS
  0
ENDTAB
  0
TABLE
  2
STYLE
 70
     1
  0
STYLE
  2
STANDARD
 70
     0
 40
0.2
 41
1.0
 50
0.0
 71
     0
 42
0.2
  3

  4

  0
ENDTAB
  0
TABLE
  2
VIEW
 70
     0
  0
ENDTAB
  0
TABLE
  2
UCS
 70
     0
  0
ENDTAB
  0
TABLE
  2
APPID
 70
     1
  0
APPID
  2
ACAD
 70
     0
  0
ENDTAB
  0
TABLE
  2
DIMSTYLE
 70
     1
  0
DIMSTYLE
  2
STANDARD
 70
     0
  3

  4

  5

  6

  7

 40
1.0
 41
0.18
 42
0.0625
 43
0.38
 44
0.18
 45
0.0
 46
0.0
 47
0.0
 48
0.0
140
0.18
141
0.09
142
0.0
143
25.4
144
1.0
145
0.0
146
1.0
147
0.09
 71
     0
 72
     0
 73
     1
 74
     1
 75
     0
 76
     0
 77
     0
 78
     0
170
     0
171
     2
172
     0
173
     0
174
     0
175
     0
176
     0
177
     0
178
     0
  0
ENDTAB
  0
ENDSEC
  0
SECTION
  2
BLOCKS
  0
BLOCK
  8
0
  2
$MODEL_SPACE
 70
     0
 10
0.0
 20
0.0
 30
0.0
  3
$MODEL_SPACE
  1

  0
ENDBLK
  5
21
  8
0
  0
BLOCK
 67
     1
  8
0
  2
$PAPER_SPACE
 70
     0
 10
0.0
 20
0.0
 30
0.0
  3
$PAPER_SPACE
  1

  0
ENDBLK
  5
1D
 67
     1
  8
0
  0
ENDSEC
  0
SECTION
  2
ENTITIES
  0
LINE
  5
100
  8
0
 10
79.50429291848519
 20
-32.86587083487448
 30
0.0
 11
79.36100203075681
 21
-32.86587083487448
 31
0.0
  0
LINE
  5
101
  8
0
 10
79.36100203075681
 20
-32.86587083487448
 30
0.0
 11
79.36100203075682
 21
-1.24915287955857
 31
0.0
  0
POLYLINE
  5
102
  8
0
 66
     1
 10
0.0
 20
0.0
 30
0.0
  0
VERTEX
  5
1004D
  8
0
 10
79.36100203075681
 20
-1.249152879558573
 30
0.0
  0
VERTEX
  5
1004E
  8
0
 10
79.35852588869933
 20
-1.175709099418368
 30
0.0
  0
VERTEX
  5
1004F
  8
0
 10
79.35120412992006
 20
-1.103593868069384
 30
0.0
  0
VERTEX
  5
10050
  8
0
 10
79.33919675550885
 20
-1.032966918992882
 30
0.0
  0
VERTEX
  5
10051
  8
0
 10
79.3226637665555
 20
-0.9639879856701231
 30
0.0
  0
VERTEX
  5
10052
  8
0
 10
79.30176516414974
 20
-0.8968168015823673
 30
0.0
  0
VERTEX
  5
10053
  8
0
 10
79.27666094938145
 20
-0.8316131002108746
 30
0.0
  0
VERTEX
  5
10054
  8
0
 10
79.24751112334042
 20
-0.7685366150369061
 30
0.0
  0
VERTEX
  5
10055
  8
0
 10
79.21447568711646
 20
-0.7077470795417216
 30
0.0
  0
VERTEX
  5
10056
  8
0
 10
79.17771464179934
 20
-0.6494042272065814
 30
0.0
  0
VERTEX
  5
10057
  8
0
 10
79.13738798847888
 20
-0.593667791512746
 30
0.0
  0
VERTEX
  5
10058
  8
0
 10
79.09365572824491
 20
-0.5406975059414761
 30
0.0
  0
VERTEX
  5
10059
  8
0
 10
79.04667786218721
 20
-0.4906531039740319
 30
0.0
  0
VERTEX
  5
1005A
  8
0
 10
78.99661439139558
 20
-0.4436943190916735
 30
0.0
  0
VERTEX
  5
1005B
  8
0
 10
78.94362531695982
 20
-0.3999808847756615
 30
0.0
  0
VERTEX
  5
1005C
  8
0
 10
78.88787063996978
 20
-0.3596725345072562
 30
0.0
  0
VERTEX
  5
1005D
  8
0
 10
78.8295103615152
 20
-0.3229290017677179
 30
0.0
  0
VERTEX
  5
1005E
  8
0
 10
78.76870448268593
 20
-0.2899100200383071
 30
0.0
  0
VERTEX
  5
1005F
  8
0
 10
78.70561300457175
 20
-0.2607753228002841
 30
0.0
  0
VERTEX
  5
10060
  8
0
 10
78.64039592826246
 20
-0.2356846435349093
 30
0.0
  0
VERTEX
  5
10061
  8
0
 10
78.5732132548479
 20
-0.214797715723443
 30
0.0
  0
VERTEX
  5
10062
  8
0
 10
78.50422498541785
 20
-0.1982742728471456
 30
0.0
  0
VERTEX
  5
10063
  8
0
 10
78.43359112106211
 20
-0.1862740483872775
 30
0.0
  0
VERTEX
  5
10064
  8
0
 10
78.36147166287049
 20
-0.1789567758250989
 30
0.0
  0
VERTEX
  5
10065
  8
0
 10
78.28802661193278
 20
-0.1764821886418704
 30
0.0
  0
SEQEND
  5
10115
  8
0
  0
LINE
  5
103
  8
0
 10
78.28802661193278
 20
-0.1764821886418703
 30
0.0
 11
2.465144937286388
 21
-0.1764821886418554
 31
0.0
  0
POLYLINE
  5
104
  8
0
 66
     1
 10
0.0
 20
0.0
 30
0.0
  0
VERTEX
  5
10066
  8
0
 10
2.465144937286391
 20
-0.1764821886418554
 30
0.0
  0
VERTEX
  5
10067
  8
0
 10
2.391700709073418
 20
-0.1789567758250838
 30
0.0
  0
VERTEX
  5
10068
  8
0
 10
2.319581945977832
 20
-0.1862740483872623
 30
0.0
  0
VERTEX
  5
10069
  8
0
 10
2.248948657323546
 20
-0.1982742728471304
 30
0.0
  0
VERTEX
  5
1006A
  8
0
 10
2.179960852434473
 20
-0.2147977157234278
 30
0.0
  0
VERTEX
  5
1006B
  8
0
 10
2.112778540634526
 20
-0.235684643534894
 30
0.0
  0
VERTEX
  5
1006C
  8
0
 10
2.047561731247617
 20
-0.2607753228002689
 30
0.0
  0
VERTEX
  5
1006D
  8
0
 10
1.984470433597662
 20
-0.2899100200382919
 30
0.0
  0
VERTEX
  5
1006E
  8
0
 10
1.923664657008572
 20
-0.3229290017677027
 30
0.0
  0
VERTEX
  5
1006F
  8
0
 10
1.865304410804262
 20
-0.359672534507241
 30
0.0
  0
VERTEX
  5
10070
  8
0
 10
1.809549704308643
 20
-0.3999808847756464
 30
0.0
  0
VERTEX
  5
10071
  8
0
 10
1.75656054684563
 20
-0.4436943190916585
 30
0.0
  0
VERTEX
  5
10072
  8
0
 10
1.706496947739136
 20
-0.4906531039740168
 30
0.0
  0
VERTEX
  5
10073
  8
0
 10
1.659518916313073
 20
-0.540697505941461
 30
0.0
  0
VERTEX
  5
10074
  8
0
 10
1.615786461891355
 20
-0.593667791512731
 30
0.0
  0
VERTEX
  5
10075
  8
0
 10
1.575459593797895
 20
-0.6494042272065662
 30
0.0
  0
VERTEX
  5
10076
  8
0
 10
1.538698321356607
 20
-0.7077470795417062
 30
0.0
  0
VERTEX
  5
10077
  8
0
 10
1.505662653891403
 20
-0.7685366150368906
 30
0.0
  0
VERTEX
  5
10078
  8
0
 10
1.476512600726196
 20
-0.8316131002108593
 30
0.0
  0
VERTEX
  5
10079
  8
0
 10
1.451408171184901
 20
-0.8968168015823518
 30
0.0
  0
VERTEX
  5
1007A
  8
0
 10
1.43050937459143
 20
-0.9639879856701076
 30
0.0
  0
VERTEX
  5
1007B
  8
0
 10
1.413976220269696
 20
-1.032966918992867
 30
0.0
  0
VERTEX
  5
1007C
  8
0
 10
1.401968717543613
 20
-1.103593868069368
 30
0.0
  0
VERTEX
  5
1007D
  8
0
 10
1.394646875737093
 20
-1.175709099418352
 30
0.0
  0
VERTEX
  5
1007E
  8
0
 10
1.39217070417405
 20
-1.249152879558558
 30
0.0
  0
SEQEND
  5
10116
  8
0
  0
LINE
  5
105
  8
0
 10
1.39217070417405
 20
-1.249152879558558
 30
0.0
 11
1.392170704174035
 21
-32.86587083487446
 31
0.0
  0
LINE
  5
106
  8
0
 10
1.392170704174035
 20
-32.86587083487446
 30
0.0
 11
1.249505872224171
 21
-32.86587083487446
 31
0.0
  0
POLYLINE
  5
107
  8
0
 66
     1
 10
0.0
 20
0.0
 30
0.0
  0
VERTEX
  5
1007F
  8
0
 10
1.249505872224171
 20
-32.86587083487446
 30
0.0
  0
VERTEX
  5
10080
  8
0
 10
1.176024619339901
 20
-32.86849596936106
 30
0.0
  0
VERTEX
  5
10081
  8
0
 10
1.103875130666433
 20
-32.87625840770656
 30
0.0
  0
VERTEX
  5
10082
  8
0
 10
1.03321699558812
 20
-32.88898870223959
 30
0.0
  0
VERTEX
  5
10083
  8
0
 10
0.9642098034893127
 20
-32.90651740528873
 30
0.0
  0
VERTEX
  5
10084
  8
0
 10
0.8970131437543638
 20
-32.92867506918259
 30
0.0
  0
VERTEX
  5
10085
  8
0
 10
0.8317866057676253
 20
-32.95529224624976
 30
0.0
  0
VERTEX
  5
10086
  8
0
 10
0.76868977891345
 20
-32.98619948881885
 30
0.0
  0
VERTEX
  5
10087
  8
0
 10
0.7078822525761894
 20
-33.02122734921846
 30
0.0
  0
VERTEX
  5
10088
  8
0
 10
0.649523616140196
 20
-33.06020637977718
 30
0.0
  0
VERTEX
  5
10089
  8
0
 10
0.5937734589898218
 20
-33.10296713282362
 30
0.0
  0
VERTEX
  5
1008A
  8
0
 10
0.5407913705094193
 20
-33.14934016068638
 30
0.0
  0
VERTEX
  5
1008B
  8
0
 10
0.4907369400833405
 20
-33.19915601569405
 30
0.0
  0
VERTEX
  5
1008C
  8
0
 10
0.4437697570959374
 20
-33.25224525017525
 30
0.0
  0
VERTEX
  5
1008D
  8
0
 10
0.4000494109315623
 20
-33.30843841645856
 30
0.0
  0
VERTEX
  5
1008E
  8
0
 10
0.3597354909745674
 20
-33.36756606687258
 30
0.0
  0
VERTEX
  5
1008F
  8
0
 10
0.3229875866093049
 20
-33.42945875374593
 30
0.0
  0
VERTEX
  5
10090
  8
0
 10
0.2899652872201269
 20
-33.4939470294072
 30
0.0
  0
VERTEX
  5
10091
  8
0
 10
0.2608281821913855
 20
-33.56086144618497
 30
0.0
  0
VERTEX
  5
10092
  8
0
 10
0.235735860907433
 20
-33.63003255640787
 30
0.0
  0
VERTEX
  5
10093
  8
0
 10
0.2148479127526216
 20
-33.70129091240449
 30
0.0
  0
VERTEX
  5
10094
  8
0
 10
0.1983239271113033
 20
-33.77446706650343
 30
0.0
  0
VERTEX
  5
10095
  8
0
 10
0.1863234933678304
 20
-33.84939157103328
 30
0.0
  0
VERTEX
  5
10096
  8
0
 10
0.179006200906555
 20
-33.92589497832265
 30
0.0
  0
VERTEX
  5
10097
  8
0
 10
0.1765316391118294
 20
-34.00380784070014
 30
0.0
  0
SEQEND
  5
10117
  8
0
  0
LINE
  5
108
  8
0
 10
0.1765316391118294
 20
-34.00380784070014
 30
0.0
 11
0.1765316391118294
 21
-45.53363522821044
 31
0.0
  0
POLYLINE
  5
109
  8
0
 66
     1
 10
0.0
 20
0.0
 30
0.0
  0
VERTEX
  5
10098
  8
0
 10
0.1765316391118294
 20
-45.53363522821044
 30
0.0
  0
VERTEX
  5
10099
  8
0
 10
0.1790062009065549
 20
-45.61151112630011
 30
0.0
  0
VERTEX
  5
1009A
  8
0
 10
0.1863234933678303
 20
-45.68798062415609
 30
0.0
  0
VERTEX
  5
1009B
  8
0
 10
0.1983239271113031
 20
-45.76287414236128
 30
0.0
  0
VERTEX
  5
1009C
  8
0
 10
0.2148479127526214
 20
-45.83602210149853
 30
0.0
  0
VERTEX
  5
1009D
  8
0
 10
0.2357358609074328
 20
-45.90725492215066
 30
0.0
  0
VERTEX
  5
1009E
  8
0
 10
0.2608281821913854
 20
-45.97640302490055
 30
0.0
  0
VERTEX
  5
1009F
  8
0
 10
0.2899652872201267
 20
-46.04329683033104
 30
0.0
  0
VERTEX
  5
100A0
  8
0
 10
0.3229875866093047
 20
-46.10776675902503
 30
0.0
  0
VERTEX
  5
100A1
  8
0
 10
0.3597354909745674
 20
-46.16964323156531
 30
0.0
  0
VERTEX
  5
100A2
  8
0
 10
0.4000494109315623
 20
-46.22875666853479
 30
0.0
  0
VERTEX
  5
100A3
  8
0
 10
0.4437697570959374
 20
-46.28493749051629
 30
0.0
  0
VERTEX
  5
100A4
  8
0
 10
0.4907369400833405
 20
-46.3380161180927
 30
0.0
  0
VERTEX
  5
100A5
  8
0
 10
0.5407913705094194
 20
-46.38782297184684
 30
0.0
  0
VERTEX
  5
100A6
  8
0
 10
0.5937734589898218
 20
-46.43418847236158
 30
0.0
  0
VERTEX
  5
100A7
  8
0
 10
0.6495236161401959
 20
-46.47694304021979
 30
0.0
  0
VERTEX
  5
100A8
  8
0
 10
0.7078822525761892
 20
-46.51591709600429
 30
0.0
  0
VERTEX
  5
100A9
  8
0
 10
0.7686897789134497
 20
-46.55094106029797
 30
0.0
  0
VERTEX
  5
100AA
  8
0
 10
0.8317866057676251
 20
-46.58184535368368
 30
0.0
  0
VERTEX
  5
100AB
  8
0
 10
0.8970131437543631
 20
-46.60846039674426
 30
0.0
  0
VERTEX
  5
100AC
  8
0
 10
0.964209803489312
 20
-46.63061661006257
 30
0.0
  0
VERTEX
  5
100AD
  8
0
 10
1.033216995588119
 20
-46.64814441422148
 30
0.0
  0
VERTEX
  5
100AE
  8
0
 10
1.103875130666433
 20
-46.66087422980383
 30
0.0
  0
VERTEX
  5
100AF
  8
0
 10
1.1760246193399
 20
-46.66863647739248
 30
0.0
  0
VERTEX
  5
100B0
  8
0
 10
1.249505872224171
 20
-46.67126157757028
 30
0.0
  0
SEQEND
  5
10118
  8
0
  0
LINE
  5
110
  8
0
 10
1.249505872224171
 20
-46.67126157757028
 30
0.0
 11
1.427922283404032
 21
-46.67126157757028
 31
0.0
  0
LINE
  5
111
  8
0
 10
1.427922283404032
 20
-46.67126157757028
 30
0.0
 11
1.427922283404032
 21
-49.10348353420925
 31
0.0
  0
POLYLINE
  5
112
  8
0
 66
     1
 10
0.0
 20
0.0
 30
0.0
  0
VERTEX
  5
100B1
  8
0
 10
1.427922283404032
 20
-49.10348353420925
 30
0.0
  0
VERTEX
  5
100B2
  8
0
 10
1.430398407620948
 20
-49.17692886339123
 30
0.0
  0
VERTEX
  5
100B3
  8
0
 10
1.437720115623195
 20
-49.24904856483214
 30
0.0
  0
VERTEX
  5
100B4
  8
0
 10
1.449727410438026
 20
-49.31968263950075
 30
0.0
  0
VERTEX
  5
100B5
  8
0
 10
1.466260295092688
 20
-49.38867108836578
 30
0.0
  0
VERTEX
  5
100B6
  8
0
 10
1.487158772614435
 20
-49.45585391239593
 30
0.0
  0
VERTEX
  5
100B7
  8
0
 10
1.512262846030514
 20
-49.52107111255992
 30
0.0
  0
VERTEX
  5
100B8
  8
0
 10
1.541412518368177
 20
-49.58416268982649
 30
0.0
  0
VERTEX
  5
100B9
  8
0
 10
1.574447792654674
 20
-49.64496864516437
 30
0.0
  0
VERTEX
  5
100BA
  8
0
 10
1.611208671917256
 20
-49.70332897954226
 30
0.0
  0
VERTEX
  5
100BB
  8
0
 10
1.651535159183173
 20
-49.75908369392891
 30
0.0
  0
VERTEX
  5
100BC
  8
0
 10
1.695267257479675
 20
-49.812072789293
 30
0.0
  0
VERTEX
  5
100BD
  8
0
 10
1.742244969834013
 20
-49.86213626660331
 30
0.0
  0
VERTEX
  5
100BE
  8
0
 10
1.792308299273436
 20
-49.90911412682851
 30
0.0
  0
VERTEX
  5
100BF
  8
0
 10
1.845297248825196
 20
-49.95284637093737
 30
0.0
  0
VERTEX
  5
100C0
  8
0
 10
1.901051821516542
 20
-49.99317299989858
 30
0.0
  0
VERTEX
  5
100C1
  8
0
 10
1.959412020374726
 20
-50.02993401468088
 30
0.0
  0
VERTEX
  5
100C2
  8
0
 10
2.020217848426997
 20
-50.06296941625297
 30
0.0
  0
VERTEX
  5
100C3
  8
0
 10
2.083309308700605
 20
-50.0921192055836
 30
0.0
  0
VERTEX
  5
100C4
  8
0
 10
2.148526404222803
 20
-50.11722338364147
 30
0.0
  0
VERTEX
  5
100C5
  8
0
 10
2.215709138020838
 20
-50.13812195139533
 30
0.0
  0
VERTEX
  5
100C6
  8
0
 10
2.284697513121962
 20
-50.15465490981389
 30
0.0
  0
VERTEX
  5
100C7
  8
0
 10
2.355331532553426
 20
-50.16666225986587
 30
0.0
  0
VERTEX
  5
100C8
  8
0
 10
2.427451199342479
 20
-50.17398400251999
 30
0.0
  0
VERTEX
  5
100C9
  8
0
 10
2.500896516516373
 20
-50.17646013874499
 30
0.0
  0
SEQEND
  5
10119
  8
0
  0
LINE
  5
113
  8
0
 10
2.500896516516373
 20
-50.176460138745
 30
0.0
 11
78.25228096126128
 21
-50.17646013874501
 31
0.0
  0
POLYLINE
  5
114
  8
0
 66
     1
 10
0.0
 20
0.0
 30
0.0
  0
VERTEX
  5
100CA
  8
0
 10
78.25228096126128
 20
-50.176460138745
 30
0.0
  0
VERTEX
  5
100CB
  8
0
 10
78.3257261483191
 20
-50.17398400252002
 30
0.0
  0
VERTEX
  5
100CC
  8
0
 10
78.3978457194724
 20
-50.16666225986589
 30
0.0
  0
VERTEX
  5
100CD
  8
0
 10
78.46847967517529
 20
-50.15465490981391
 30
0.0
  0
VERTEX
  5
100CE
  8
0
 10
78.53746801588187
 20
-50.13812195139536
 30
0.0
  0
VERTEX
  5
100CF
  8
0
 10
78.60465074204619
 20
-50.1172233836415
 30
0.0
  0
VERTEX
  5
100D0
  8
0
 10
78.66986785412237
 20
-50.09211920558361
 30
0.0
  0
VERTEX
  5
100D1
  8
0
 10
78.73295935256452
 20
-50.06296941625298
 30
0.0
  0
VERTEX
  5
100D2
  8
0
 10
78.79376523782669
 20
-50.02993401468089
 30
0.0
  0
VERTEX
  5
100D3
  8
0
 10
78.85212551036298
 20
-49.99317299989859
 30
0.0
  0
VERTEX
  5
100D4
  8
0
 10
78.90788017062754
 20
-49.95284637093739
 30
0.0
  0
VERTEX
  5
100D5
  8
0
 10
78.96086921907435
 20
-49.90911412682853
 30
0.0
  0
VERTEX
  5
100D6
  8
0
 10
79.0109326561576
 20
-49.86213626660332
 30
0.0
  0
VERTEX
  5
100D7
  8
0
 10
79.05791048233135
 20
-49.81207278929303
 30
0.0
  0
VERTEX
  5
100D8
  8
0
 10
79.10164269804967
 20
-49.75908369392892
 30
0.0
  0
VERTEX
  5
100D9
  8
0
 10
79.14196930376667
 20
-49.70332897954228
 30
0.0
  0
VERTEX
  5
100DA
  8
0
 10
79.17873029993646
 20
-49.64496864516438
 30
0.0
  0
VERTEX
  5
100DB
  8
0
 10
79.2117656870131
 20
-49.58416268982651
 30
0.0
  0
VERTEX
  5
100DC
  8
0
 10
79.24091546545068
 20
-49.52107111255994
 30
0.0
  0
VERTEX
  5
100DD
  8
0
 10
79.26601963570332
 20
-49.45585391239593
 30
0.0
  0
VERTEX
  5
100DE
  8
0
 10
79.28691819822508
 20
-49.38867108836579
 30
0.0
  0
VERTEX
  5
100DF
  8
0
 10
79.30345115347006
 20
-49.31968263950078
 30
0.0
  0
VERTEX
  5
100E0
  8
0
 10
79.31545850189238
 20
-49.24904856483217
 30
0.0
  0
VERTEX
  5
100E1
  8
0
 10
79.3227802439461
 20
-49.17692886339123
 30
0.0
  0
VERTEX
  5
100E2
  8
0
 10
79.32525638008532
 20
-49.10348353420926
 30
0.0
  0
SEQEND
  5
1011A
  8
0
  0
LINE
  5
115
  8
0
 10
79.32525638008532
 20
-49.10348353420927
 30
0.0
 11
79.32525638008532
 21
-46.67126157757028
 31
0.0
  0
LINE
  5
116
  8
0
 10
79.32525638008532
 20
-46.67126157757028
 30
0.0
 11
79.50429291848519
 21
-46.67126157757029
 31
0.0
  0
POLYLINE
  5
117
  8
0
 66
     1
 10
0.0
 20
0.0
 30
0.0
  0
VERTEX
  5
100E3
  8
0
 10
79.50429291848519
 20
-46.67126157757029
 30
0.0
  0
VERTEX
  5
100E4
  8
0
 10
79.57773653248509
 20
-46.66863647739249
 30
0.0
  0
VERTEX
  5
100E5
  8
0
 10
79.6498515642427
 20
-46.66087422980384
 30
0.0
  0
VERTEX
  5
100E6
  8
0
 10
79.72047828387919
 20
-46.64814441422149
 30
0.0
  0
VERTEX
  5
100E7
  8
0
 10
79.78945696151571
 20
-46.6306166100626
 30
0.0
  0
VERTEX
  5
100E8
  8
0
 10
79.85662786727343
 20
-46.60846039674428
 30
0.0
  0
VERTEX
  5
100E9
  8
0
 10
79.9218312712735
 20
-46.5818453536837
 30
0.0
  0
VERTEX
  5
100EA
  8
0
 10
79.98490744363708
 20
-46.55094106029799
 30
0.0
  0
VERTEX
  5
100EB
  8
0
 10
80.04569665448538
 20
-46.51591709600432
 30
0.0
  0
VERTEX
  5
100EC
  8
0
 10
80.1040391739395
 20
-46.47694304021979
 30
0.0
  0
VERTEX
  5
100ED
  8
0
 10
80.15977527212063
 20
-46.43418847236159
 30
0.0
  0
VERTEX
  5
100EE
  8
0
 10
80.21274521914995
 20
-46.38782297184685
 30
0.0
  0
VERTEX
  5
100EF
  8
0
 10
80.26278928514859
 20
-46.33801611809271
 30
0.0
  0
VERTEX
  5
100F0
  8
0
 10
80.30974774023771
 20
-46.28493749051631
 30
0.0
  0
VERTEX
  5
100F1
  8
0
 10
80.35346085453853
 20
-46.2287566685348
 30
0.0
  0
VERTEX
  5
100F2
  8
0
 10
80.39376889817213
 20
-46.16964323156533
 30
0.0
  0
VERTEX
  5
100F3
  8
0
 10
80.43051214125973
 20
-46.10776675902503
 30
0.0
  0
VERTEX
  5
100F4
  8
0
 10
80.46353085392246
 20
-46.04329683033106
 30
0.0
  0
VERTEX
  5
100F5
  8
0
 10
80.49266530628151
 20
-45.97640302490056
 30
0.0
  0
VERTEX
  5
100F6
  8
0
 10
80.51775576845803
 20
-45.90725492215066
 30
0.0
  0
VERTEX
  5
100F7
  8
0
 10
80.53864251057318
 20
-45.83602210149853
 30
0.0
  0
VERTEX
  5
100F8
  8
0
 10
80.55516580274814
 20
-45.7628741423613
 30
0.0
  0
VERTEX
  5
100F9
  8
0
 10
80.56716591510404
 20
-45.68798062415612
 30
0.0
  0
VERTEX
  5
100FA
  8
0
 10
80.57448311776206
 20
-45.61151112630012
 30
0.0
  0
VERTEX
  5
100FB
  8
0
 10
80.57695768084336
 20
-45.53363522821046
 30
0.0
  0
SEQEND
  5
1011B
  8
0
  0
LINE
  5
118
  8
0
 10
80.57695768084335
 20
-45.53363522821046
 30
0.0
 11
80.57695768084336
 21
-34.00380784070016
 31
0.0
  0
POLYLINE
  5
119
  8
0
 66
     1
 10
0.0
 20
0.0
 30
0.0
  0
VERTEX
  5
100FC
  8
0
 10
80.57695768084336
 20
-34.00380784070015
 30
0.0
  0
VERTEX
  5
100FD
  8
0
 10
80.57448311776207
 20
-33.92589497832267
 30
0.0
  0
VERTEX
  5
100FE
  8
0
 10
80.56716591510401
 20
-33.84939157103329
 30
0.0
  0
VERTEX
  5
100FF
  8
0
 10
80.55516580274812
 20
-33.77446706650344
 30
0.0
  0
VERTEX
  5
10100
  8
0
 10
80.53864251057318
 20
-33.70129091240451
 30
0.0
  0
VERTEX
  5
10101
  8
0
 10
80.51775576845803
 20
-33.63003255640789
 30
0.0
  0
VERTEX
  5
10102
  8
0
 10
80.49266530628151
 20
-33.56086144618499
 30
0.0
  0
VERTEX
  5
10103
  8
0
 10
80.46353085392246
 20
-33.49394702940721
 30
0.0
  0
VERTEX
  5
10104
  8
0
 10
80.43051214125971
 20
-33.42945875374595
 30
0.0
  0
VERTEX
  5
10105
  8
0
 10
80.39376889817211
 20
-33.3675660668726
 30
0.0
  0
VERTEX
  5
10106
  8
0
 10
80.35346085453853
 20
-33.30843841645857
 30
0.0
  0
VERTEX
  5
10107
  8
0
 10
80.30974774023771
 20
-33.25224525017526
 30
0.0
  0
VERTEX
  5
10108
  8
0
 10
80.26278928514859
 20
-33.19915601569407
 30
0.0
  0
VERTEX
  5
10109
  8
0
 10
80.21274521914994
 20
-33.14934016068639
 30
0.0
  0
VERTEX
  5
1010A
  8
0
 10
80.15977527212064
 20
-33.10296713282364
 30
0.0
  0
VERTEX
  5
1010B
  8
0
 10
80.1040391739395
 20
-33.06020637977719
 30
0.0
  0
VERTEX
  5
1010C
  8
0
 10
80.04569665448537
 20
-33.02122734921847
 30
0.0
  0
VERTEX
  5
1010D
  8
0
 10
79.9849074436371
 20
-32.98619948881886
 30
0.0
  0
VERTEX
  5
1010E
  8
0
 10
79.92183127127349
 20
-32.95529224624978
 30
0.0
  0
VERTEX
  5
1010F
  8
0
 10
79.85662786727342
 20
-32.9286750691826
 30
0.0
  0
VERTEX
  5
10110
  8
0
 10
79.7894569615157
 20
-32.90651740528874
 30
0.0
  0
VERTEX
  5
10111
  8
0
 10
79.72047828387919
 20
-32.8889887022396
 30
0.0
  0
VERTEX
  5
10112
  8
0
 10
79.64985156424271
 20
-32.87625840770658
 30
0.0
  0
VERTEX
  5
10113
  8
0
 10
79.57773653248509
 20
-32.86849596936107
 30
0.0
  0
VERTEX
  5
10114
  8
0
 10
79.50429291848519
 20
-32.86587083487448
 30
0.0
  0
SEQEND
  5
1011C
  8
0
  0
ENDSEC
  0
EOF
