  0
SECTION
  2
HEADER
  9
$ACADVER
  1
AC1009
  9
$DWGCODEPAGE
  3
ansi_1252
  9
$INSBASE
 10
0.0
 20
0.0
 30
0.0
  9
$EXTMIN
 10
0.175970729675063
 20
-48.50854597044567
 30
0.0
  9
$EXTMAX
 10
75.79893389712383
 20
-0.176525926780279
 30
0.0
  9
$LIMMIN
 10
0.0
 20
0.0
  9
$LIMMAX
 10
12.0
 20
9.0
  9
$ORTHOMODE
 70
     0
  9
$REGENMODE
 70
     1
  9
$FILLMODE
 70
     1
  9
$QTEXTMODE
 70
     0
  9
$MIRRTEXT
 70
     1
  9
$DRAGMODE
 70
     2
  9
$LTSCALE
 40
1.0
  9
$OSMODE
 70
   511
  9
$ATTMODE
 70
     1
  9
$TEXTSIZE
 40
0.2
  9
$TRACEWID
 40
0.05
  9
$TEXTSTYLE
  7
STANDARD
  9
$CLAYER
  8
0
  9
$CELTYPE
  6
BYBLOCK
  9
$CECOLOR
 62
   256
  9
$DIMSCALE
 40
1.0
  9
$DIMASZ
 40
0.18
  9
$DIMEXO
 40
0.0625
  9
$DIMDLI
 40
0.38
  9
$DIMRND
 40
0.0
  9
$DIMDLE
 40
0.0
  9
$DIMEXE
 40
0.18
  9
$DIMTP
 40
0.0
  9
$DIMTM
 40
0.0
  9
$DIMTXT
 40
0.18
  9
$DIMCEN
 40
0.09
  9
$DIMTSZ
 40
0.0
  9
$DIMTOL
 70
     0
  9
$DIMLIM
 70
     0
  9
$DIMTIH
 70
     1
  9
$DIMTOH
 70
     1
  9
$DIMSE1
 70
     0
  9
$DIMSE2
 70
     0
  9
$DIMTAD
 70
     0
  9
$DIMZIN
 70
     0
  9
$DIMBLK
  1

  9
$DIMASO
 70
     1
  9
$DIMSHO
 70
     1
  9
$DIMPOST
  1

  9
$DIMAPOST
  1

  9
$DIMALT
 70
     0
  9
$DIMALTD
 70
     2
  9
$DIMALTF
 40
25.4
  9
$DIMLFAC
 40
1.0
  9
$DIMTOFL
 70
     0
  9
$DIMTVP
 40
0.0
  9
$DIMTIX
 70
     0
  9
$DIMSOXD
 70
     0
  9
$DIMSAH
 70
     0
  9
$DIMBLK1
  1

  9
$DIMBLK2
  1

  9
$DIMSTYLE
  2
STANDARD
  9
$DIMCLRD
 70
     0
  9
$DIMCLRE
 70
     0
  9
$DIMCLRT
 70
     0
  9
$DIMTFAC
 40
1.0
  9
$DIMGAP
 40
0.09
  9
$LUNITS
 70
     2
  9
$LUPREC
 70
     4
  9
$SKETCHINC
 40
0.1
  9
$FILLETRAD
 40
0.5
  9
$AUNITS
 70
     0
  9
$AUPREC
 70
     0
  9
$MENU
  1
.
  9
$ELEVATION
 40
0.0
  9
$PELEVATION
 40
0.0
  9
$THICKNESS
 40
0.0
  9
$LIMCHECK
 70
     0
  9
$CHAMFERA
 40
0.0
  9
$CHAMFERB
 40
0.0
  9
$SKPOLY
 70
     0
  9
$TDCREATE
 40
0.0
  9
$TDUPDATE
 40
2458517.914388611
  9
$TDINDWG
 40
0.0000002894
  9
$TDUSRTIMER
 40
0.0001701157
  9
$USRTIMER
 70
     1
  9
$ANGBASE
 50
0.0
  9
$ANGDIR
 70
     0
  9
$PDMODE
 70
     0
  9
$PDSIZE
 40
0.0
  9
$PLINEWID
 40
0.0
  9
$COORDS
 70
     1
  9
$SPLFRAME
 70
     0
  9
$SPLINETYPE
 70
     6
  9
$SPLINESEGS
 70
     8
  9
$ATTDIA
 70
     0
  9
$ATTREQ
 70
     1
  9
$HANDLING
 70
     1
  9
$HANDSEED
  5
104CC
  9
$SURFTAB1
 70
     6
  9
$SURFTAB2
 70
     6
  9
$SURFTYPE
 70
     6
  9
$SURFU
 70
     6
  9
$SURFV
 70
     6
  9
$UCSNAME
  2

  9
$UCSORG
 10
0.0
 20
0.0
 30
0.0
  9
$UCSXDIR
 10
1.0
 20
0.0
 30
0.0
  9
$UCSYDIR
 10
0.0
 20
1.0
 30
0.0
  9
$PUCSNAME
  2

  9
$PUCSORG
 10
0.0
 20
0.0
 30
0.0
  9
$PUCSXDIR
 10
1.0
 20
0.0
 30
0.0
  9
$PUCSYDIR
 10
0.0
 20
1.0
 30
0.0
  9
$USERI1
 70
     0
  9
$USERI2
 70
     0
  9
$USERI3
 70
     0
  9
$USERI4
 70
     0
  9
$USERI5
 70
     0
  9
$USERR1
 40
0.0
  9
$USERR2
 40
0.0
  9
$USERR3
 40
0.0
  9
$USERR4
 40
0.0
  9
$USERR5
 40
0.0
  9
$WORLDVIEW
 70
     1
  9
$SHADEDGE
 70
     3
  9
$SHADEDIF
 70
    70
  9
$TILEMODE
 70
     1
  9
$MAXACTVP
 70
    64
  9
$PLIMCHECK
 70
     0
  9
$PEXTMIN
 10
1.000000000000000E+20
 20
1.000000000000000E+20
 30
1.000000000000000E+20
  9
$PEXTMAX
 10
-1.000000000000000E+20
 20
-1.000000000000000E+20
 30
-1.000000000000000E+20
  9
$PLIMMIN
 10
0.0
 20
0.0
  9
$PLIMMAX
 10
0.0
 20
0.0
  9
$UNITMODE
 70
     0
  9
$VISRETAIN
 70
     1
  9
$PLINEGEN
 70
     0
  9
$PSLTSCALE
 70
     1
  0
ENDSEC
  0
SECTION
  2
TABLES
  0
TABLE
  2
VPORT
 70
     1
  0
VPORT
  2
*ACTIVE
 70
     0
 10
0.0
 20
0.0
 11
1.0
 21
1.0
 12
10.42990654205607
 22
4.5
 13
0.0
 23
0.0
 14
0.5
 24
0.5
 15
0.5
 25
0.5
 16
0.0
 26
0.0
 36
1.0
 17
0.0
 27
0.0
 37
0.0
 40
9.0
 41
1.972972972850329
 42
50.0
 43
0.0
 44
0.0
 50
0.0
 51
0.0
 71
     0
 72
   100
 73
     1
 74
     3
 75
     0
 76
     0
 77
     0
 78
     0
  0
ENDTAB
  0
TABLE
  2
LTYPE
 70
     1
  0
LTYPE
  2
CONTINUOUS
 70
     0
  3
Solid line
 72
    65
 73
     0
 40
0.0
  0
ENDTAB
  0
TABLE
  2
LAYER
 70
     1
  0
LAYER
  2
0
 70
     0
 62
     7
  6
CONTINUOUS
  0
ENDTAB
  0
TABLE
  2
STYLE
 70
     1
  0
STYLE
  2
STANDARD
 70
     0
 40
0.2
 41
1.0
 50
0.0
 71
     0
 42
0.2
  3

  4

  0
ENDTAB
  0
TABLE
  2
VIEW
 70
     0
  0
ENDTAB
  0
TABLE
  2
UCS
 70
     0
  0
ENDTAB
  0
TABLE
  2
APPID
 70
     1
  0
APPID
  2
ACAD
 70
     0
  0
ENDTAB
  0
TABLE
  2
DIMSTYLE
 70
     1
  0
DIMSTYLE
  2
STANDARD
 70
     0
  3

  4

  5

  6

  7

 40
1.0
 41
0.18
 42
0.0625
 43
0.38
 44
0.18
 45
0.0
 46
0.0
 47
0.0
 48
0.0
140
0.18
141
0.09
142
0.0
143
25.4
144
1.0
145
0.0
146
1.0
147
0.09
 71
     0
 72
     0
 73
     1
 74
     1
 75
     0
 76
     0
 77
     0
 78
     0
170
     0
171
     2
172
     0
173
     0
174
     0
175
     0
176
     0
177
     0
178
     0
  0
ENDTAB
  0
ENDSEC
  0
SECTION
  2
BLOCKS
  0
BLOCK
  8
0
  2
$MODEL_SPACE
 70
     0
 10
0.0
 20
0.0
 30
0.0
  3
$MODEL_SPACE
  1

  0
ENDBLK
  5
21
  8
0
  0
BLOCK
 67
     1
  8
0
  2
$PAPER_SPACE
 70
     0
 10
0.0
 20
0.0
 30
0.0
  3
$PAPER_SPACE
  1

  0
ENDBLK
  5
1D
 67
     1
  8
0
  0
ENDSEC
  0
SECTION
  2
ENTITIES
  0
POLYLINE
  5
100
  8
0
 66
     1
 10
0.0
 20
0.0
 30
0.0
 70
     1
  0
VERTEX
  5
1004D
  8
0
 10
2.472801762235006
 20
-36.40665670396729
 30
0.0
  0
VERTEX
  5
1004E
  8
0
 10
73.50300251731773
 20
-36.40665670396729
 30
0.0
  0
VERTEX
  5
1004F
  8
0
 10
73.50300251731773
 20
-6.363696562103781
 30
0.0
  0
VERTEX
  5
10050
  8
0
 10
70.06922990423993
 20
-2.930346501786804
 30
0.0
  0
VERTEX
  5
10051
  8
0
 10
5.906151822551982
 20
-2.930346501786804
 30
0.0
  0
VERTEX
  5
10052
  8
0
 10
2.472801762235006
 20
-6.363696562103782
 30
0.0
  0
SEQEND
  5
1049F
  8
0
  0
LINE
  5
101
  8
0
 10
6.728512785828171
 20
-8.080541283410811
 30
0.0
 11
69.24670012580856
 21
-8.080541283410827
 31
0.0
  0
POLYLINE
  5
102
  8
0
 66
     1
 10
0.0
 20
0.0
 30
0.0
  0
VERTEX
  5
10053
  8
0
 10
69.24670012580856
 20
-8.080541283410827
 30
0.0
  0
VERTEX
  5
10054
  8
0
 10
69.2613828320965
 20
-8.081036223368578
 30
0.0
  0
VERTEX
  5
10055
  8
0
 10
69.27580343863357
 20
-8.082499817095156
 30
0.0
  0
VERTEX
  5
10056
  8
0
 10
69.28992970067021
 20
-8.084900225370578
 30
0.0
  0
VERTEX
  5
10057
  8
0
 10
69.30372937345682
 20
-8.088205608974848
 30
0.0
  0
VERTEX
  5
10058
  8
0
 10
69.31717021224377
 20
-8.092384128687968
 30
0.0
  0
VERTEX
  5
10059
  8
0
 10
69.33021997228147
 20
-8.09740394528995
 30
0.0
  0
VERTEX
  5
1005A
  8
0
 10
69.34284640882038
 20
-8.103233219560794
 30
0.0
  0
VERTEX
  5
1005B
  8
0
 10
69.35501727711085
 20
-8.10984011228051
 30
0.0
  0
VERTEX
  5
1005C
  8
0
 10
69.3667003324033
 20
-8.117192784229106
 30
0.0
  0
VERTEX
  5
1005D
  8
0
 10
69.37786332994813
 20
-8.125259396186586
 30
0.0
  0
VERTEX
  5
1005E
  8
0
 10
69.38847402499576
 20
-8.134008108932957
 30
0.0
  0
VERTEX
  5
1005F
  8
0
 10
69.39850017279659
 20
-8.143407083248224
 30
0.0
  0
VERTEX
  5
10060
  8
0
 10
69.40790952860104
 20
-8.153424479912395
 30
0.0
  0
VERTEX
  5
10061
  8
0
 10
69.41666984765948
 20
-8.164028459705477
 30
0.0
  0
VERTEX
  5
10062
  8
0
 10
69.42474888522234
 20
-8.175187183407475
 30
0.0
  0
VERTEX
  5
10063
  8
0
 10
69.43211439654002
 20
-8.186868811798396
 30
0.0
  0
VERTEX
  5
10064
  8
0
 10
69.43873413686292
 20
-8.199041505658245
 30
0.0
  0
VERTEX
  5
10065
  8
0
 10
69.44457586144145
 20
-8.21167342576703
 30
0.0
  0
VERTEX
  5
10066
  8
0
 10
69.44960732552602
 20
-8.224732732904755
 30
0.0
  0
VERTEX
  5
10067
  8
0
 10
69.45379628436704
 20
-8.238187587851431
 30
0.0
  0
VERTEX
  5
10068
  8
0
 10
69.4571104932149
 20
-8.25200615138706
 30
0.0
  0
VERTEX
  5
10069
  8
0
 10
69.45951770732002
 20
-8.26615658429165
 30
0.0
  0
VERTEX
  5
1006A
  8
0
 10
69.46098568193278
 20
-8.280607047345207
 30
0.0
  0
VERTEX
  5
1006B
  8
0
 10
69.46148217230362
 20
-8.295325701327737
 30
0.0
  0
SEQEND
  5
104A0
  8
0
  0
POLYLINE
  5
103
  8
0
 66
     1
 10
0.0
 20
0.0
 30
0.0
  0
VERTEX
  5
1006C
  8
0
 10
69.46148217230362
 20
-8.295325701327737
 30
0.0
  0
VERTEX
  5
1006D
  8
0
 10
69.4609856819328
 20
-8.310006810542674
 30
0.0
  0
VERTEX
  5
1006E
  8
0
 10
69.45951770732002
 20
-8.324422808383373
 30
0.0
  0
VERTEX
  5
1006F
  8
0
 10
69.45711049321491
 20
-8.33854172388418
 30
0.0
  0
VERTEX
  5
10070
  8
0
 10
69.45379628436704
 20
-8.352331586079455
 30
0.0
  0
VERTEX
  5
10071
  8
0
 10
69.44960732552603
 20
-8.365760424003536
 30
0.0
  0
VERTEX
  5
10072
  8
0
 10
69.44457586144145
 20
-8.37879626669078
 30
0.0
  0
VERTEX
  5
10073
  8
0
 10
69.43873413686292
 20
-8.391407143175531
 30
0.0
  0
VERTEX
  5
10074
  8
0
 10
69.43211439654002
 20
-8.40356108249214
 30
0.0
  0
VERTEX
  5
10075
  8
0
 10
69.42474888522234
 20
-8.415226113674956
 30
0.0
  0
VERTEX
  5
10076
  8
0
 10
69.41666984765948
 20
-8.42637026575833
 30
0.0
  0
VERTEX
  5
10077
  8
0
 10
69.40790952860102
 20
-8.436961567776608
 30
0.0
  0
VERTEX
  5
10078
  8
0
 10
69.39850017279659
 20
-8.446968048764141
 30
0.0
  0
VERTEX
  5
10079
  8
0
 10
69.38847402499576
 20
-8.45635773775528
 30
0.0
  0
VERTEX
  5
1007A
  8
0
 10
69.37786332994813
 20
-8.46509866378437
 30
0.0
  0
VERTEX
  5
1007B
  8
0
 10
69.3667003324033
 20
-8.473158855885764
 30
0.0
  0
VERTEX
  5
1007C
  8
0
 10
69.35501727711083
 20
-8.480506343093808
 30
0.0
  0
VERTEX
  5
1007D
  8
0
 10
69.34284640882038
 20
-8.487109154442855
 30
0.0
  0
VERTEX
  5
1007E
  8
0
 10
69.33021997228147
 20
-8.49293531896725
 30
0.0
  0
VERTEX
  5
1007F
  8
0
 10
69.31717021224375
 20
-8.497952865701343
 30
0.0
  0
VERTEX
  5
10080
  8
0
 10
69.3037293734568
 20
-8.502129823679486
 30
0.0
  0
VERTEX
  5
10081
  8
0
 10
69.28992970067021
 20
-8.505434221936028
 30
0.0
  0
VERTEX
  5
10082
  8
0
 10
69.27580343863359
 20
-8.507834089505314
 30
0.0
  0
VERTEX
  5
10083
  8
0
 10
69.2613828320965
 20
-8.509297455421697
 30
0.0
  0
VERTEX
  5
10084
  8
0
 10
69.24670012580856
 20
-8.509792348719525
 30
0.0
  0
SEQEND
  5
104A1
  8
0
  0
LINE
  5
104
  8
0
 10
69.24670012580856
 20
-8.509792348719525
 30
0.0
 11
6.728512785828169
 21
-8.50979234871951
 31
0.0
  0
POLYLINE
  5
105
  8
0
 66
     1
 10
0.0
 20
0.0
 30
0.0
  0
VERTEX
  5
10085
  8
0
 10
6.728512785828171
 20
-8.509792348719511
 30
0.0
  0
VERTEX
  5
10086
  8
0
 10
6.713829523052065
 20
-8.509297455421686
 30
0.0
  0
VERTEX
  5
10087
  8
0
 10
6.699408430016694
 20
-8.5078340895053
 30
0.0
  0
VERTEX
  5
10088
  8
0
 10
6.685281747354601
 20
-8.505434221936012
 30
0.0
  0
VERTEX
  5
10089
  8
0
 10
6.671481715698329
 20
-8.502129823679475
 30
0.0
  0
VERTEX
  5
1008A
  8
0
 10
6.658040575680421
 20
-8.49795286570133
 30
0.0
  0
VERTEX
  5
1008B
  8
0
 10
6.644990567933418
 20
-8.492935318967236
 30
0.0
  0
VERTEX
  5
1008C
  8
0
 10
6.632363933089866
 20
-8.487109154442841
 30
0.0
  0
VERTEX
  5
1008D
  8
0
 10
6.620192911782306
 20
-8.480506343093795
 30
0.0
  0
VERTEX
  5
1008E
  8
0
 10
6.60850974464328
 20
-8.47315885588575
 30
0.0
  0
VERTEX
  5
1008F
  8
0
 10
6.597346672305333
 20
-8.465098663784357
 30
0.0
  0
VERTEX
  5
10090
  8
0
 10
6.586735935401007
 20
-8.456357737755265
 30
0.0
  0
VERTEX
  5
10091
  8
0
 10
6.576709774562845
 20
-8.446968048764127
 30
0.0
  0
VERTEX
  5
10092
  8
0
 10
6.567300430423388
 20
-8.436961567776594
 30
0.0
  0
VERTEX
  5
10093
  8
0
 10
6.558540143615183
 20
-8.426370265758315
 30
0.0
  0
VERTEX
  5
10094
  8
0
 10
6.550461154770769
 20
-8.415226113674942
 30
0.0
  0
VERTEX
  5
10095
  8
0
 10
6.543095704522689
 20
-8.403561082492125
 30
0.0
  0
VERTEX
  5
10096
  8
0
 10
6.53647603350349
 20
-8.391407143175517
 30
0.0
  0
VERTEX
  5
10097
  8
0
 10
6.53063438234571
 20
-8.378796266690763
 30
0.0
  0
VERTEX
  5
10098
  8
0
 10
6.525602991681894
 20
-8.365760424003522
 30
0.0
  0
VERTEX
  5
10099
  8
0
 10
6.521414102144585
 20
-8.35233158607944
 30
0.0
  0
VERTEX
  5
1009A
  8
0
 10
6.518099954366326
 20
-8.338541723884166
 30
0.0
  0
VERTEX
  5
1009B
  8
0
 10
6.515692788979659
 20
-8.324422808383357
 30
0.0
  0
VERTEX
  5
1009C
  8
0
 10
6.514224846617128
 20
-8.310006810542658
 30
0.0
  0
VERTEX
  5
1009D
  8
0
 10
6.513728367911274
 20
-8.295325701327723
 30
0.0
  0
SEQEND
  5
104A2
  8
0
  0
POLYLINE
  5
106
  8
0
 66
     1
 10
0.0
 20
0.0
 30
0.0
  0
VERTEX
  5
1009E
  8
0
 10
6.513728367911274
 20
-8.295325701327723
 30
0.0
  0
VERTEX
  5
1009F
  8
0
 10
6.514224846617128
 20
-8.280607047345194
 30
0.0
  0
VERTEX
  5
100A0
  8
0
 10
6.515692788979659
 20
-8.266156584291634
 30
0.0
  0
VERTEX
  5
100A1
  8
0
 10
6.518099954366326
 20
-8.252006151387045
 30
0.0
  0
VERTEX
  5
100A2
  8
0
 10
6.521414102144585
 20
-8.238187587851417
 30
0.0
  0
VERTEX
  5
100A3
  8
0
 10
6.525602991681894
 20
-8.224732732904743
 30
0.0
  0
VERTEX
  5
100A4
  8
0
 10
6.530634382345711
 20
-8.211673425767016
 30
0.0
  0
VERTEX
  5
100A5
  8
0
 10
6.53647603350349
 20
-8.19904150565823
 30
0.0
  0
VERTEX
  5
100A6
  8
0
 10
6.54309570452269
 20
-8.18686881179838
 30
0.0
  0
VERTEX
  5
100A7
  8
0
 10
6.550461154770768
 20
-8.175187183407461
 30
0.0
  0
VERTEX
  5
100A8
  8
0
 10
6.558540143615183
 20
-8.164028459705463
 30
0.0
  0
VERTEX
  5
100A9
  8
0
 10
6.567300430423389
 20
-8.153424479912381
 30
0.0
  0
VERTEX
  5
100AA
  8
0
 10
6.576709774562845
 20
-8.14340708324821
 30
0.0
  0
VERTEX
  5
100AB
  8
0
 10
6.586735935401007
 20
-8.13400810893294
 30
0.0
  0
VERTEX
  5
100AC
  8
0
 10
6.597346672305333
 20
-8.125259396186571
 30
0.0
  0
VERTEX
  5
100AD
  8
0
 10
6.60850974464328
 20
-8.11719278422909
 30
0.0
  0
VERTEX
  5
100AE
  8
0
 10
6.620192911782306
 20
-8.109840112280494
 30
0.0
  0
VERTEX
  5
100AF
  8
0
 10
6.632363933089866
 20
-8.103233219560778
 30
0.0
  0
VERTEX
  5
100B0
  8
0
 10
6.644990567933418
 20
-8.097403945289932
 30
0.0
  0
VERTEX
  5
100B1
  8
0
 10
6.65804057568042
 20
-8.092384128687952
 30
0.0
  0
VERTEX
  5
100B2
  8
0
 10
6.671481715698328
 20
-8.08820560897483
 30
0.0
  0
VERTEX
  5
100B3
  8
0
 10
6.685281747354601
 20
-8.084900225370562
 30
0.0
  0
VERTEX
  5
100B4
  8
0
 10
6.699408430016693
 20
-8.082499817095142
 30
0.0
  0
VERTEX
  5
100B5
  8
0
 10
6.713829523052064
 20
-8.08103622336856
 30
0.0
  0
VERTEX
  5
100B6
  8
0
 10
6.728512785828171
 20
-8.080541283410811
 30
0.0
  0
SEQEND
  5
104A3
  8
0
  0
LINE
  5
107
  8
0
 10
6.728512785828171
 20
-13.52591865877727
 30
0.0
 11
69.24670012580856
 21
-13.52591865877729
 31
0.0
  0
POLYLINE
  5
108
  8
0
 66
     1
 10
0.0
 20
0.0
 30
0.0
  0
VERTEX
  5
100B7
  8
0
 10
69.24670012580856
 20
-13.52591865877729
 30
0.0
  0
VERTEX
  5
100B8
  8
0
 10
69.2613828320965
 20
-13.52641357609125
 30
0.0
  0
VERTEX
  5
100B9
  8
0
 10
69.27580343863357
 20
-13.52787701131134
 30
0.0
  0
VERTEX
  5
100BA
  8
0
 10
69.28992970067021
 20
-13.53027698935485
 30
0.0
  0
VERTEX
  5
100BB
  8
0
 10
69.30372937345682
 20
-13.53358153513908
 30
0.0
  0
VERTEX
  5
100BC
  8
0
 10
69.31717021224377
 20
-13.53775867358133
 30
0.0
  0
VERTEX
  5
100BD
  8
0
 10
69.33021997228147
 20
-13.54277642959888
 30
0.0
  0
VERTEX
  5
100BE
  8
0
 10
69.34284640882038
 20
-13.54860282810906
 30
0.0
  0
VERTEX
  5
100BF
  8
0
 10
69.35501727711085
 20
-13.55520589402914
 30
0.0
  0
VERTEX
  5
100C0
  8
0
 10
69.3667003324033
 20
-13.56255365227642
 30
0.0
  0
VERTEX
  5
100C1
  8
0
 10
69.37786332994813
 20
-13.57061412776821
 30
0.0
  0
VERTEX
  5
100C2
  8
0
 10
69.38847402499576
 20
-13.57935534542181
 30
0.0
  0
VERTEX
  5
100C3
  8
0
 10
69.39850017279659
 20
-13.5887453301545
 30
0.0
  0
VERTEX
  5
100C4
  8
0
 10
69.40790952860104
 20
-13.59875210688358
 30
0.0
  0
VERTEX
  5
100C5
  8
0
 10
69.41666984765948
 20
-13.60934370052636
 30
0.0
  0
VERTEX
  5
100C6
  8
0
 10
69.42474888522234
 20
-13.62048813600013
 30
0.0
  0
VERTEX
  5
100C7
  8
0
 10
69.43211439654002
 20
-13.63215343822219
 30
0.0
  0
VERTEX
  5
100C8
  8
0
 10
69.43873413686292
 20
-13.64430763210984
 30
0.0
  0
VERTEX
  5
100C9
  8
0
 10
69.44457586144145
 20
-13.65691874258036
 30
0.0
  0
VERTEX
  5
100CA
  8
0
 10
69.44960732552602
 20
-13.66995479455107
 30
0.0
  0
VERTEX
  5
100CB
  8
0
 10
69.45379628436704
 20
-13.68338381293925
 30
0.0
  0
VERTEX
  5
100CC
  8
0
 10
69.4571104932149
 20
-13.69717382266222
 30
0.0
  0
VERTEX
  5
100CD
  8
0
 10
69.45951770732002
 20
-13.71129284863725
 30
0.0
  0
VERTEX
  5
100CE
  8
0
 10
69.46098568193278
 20
-13.72570891578165
 30
0.0
  0
VERTEX
  5
100CF
  8
0
 10
69.46148217230362
 20
-13.74039004901272
 30
0.0
  0
SEQEND
  5
104A4
  8
0
  0
POLYLINE
  5
109
  8
0
 66
     1
 10
0.0
 20
0.0
 30
0.0
  0
VERTEX
  5
100D0
  8
0
 10
69.46148217230362
 20
-13.74039004901272
 30
0.0
  0
VERTEX
  5
100D1
  8
0
 10
69.4609856819328
 20
-13.75510870299525
 30
0.0
  0
VERTEX
  5
100D2
  8
0
 10
69.45951770732002
 20
-13.76955916604881
 30
0.0
  0
VERTEX
  5
100D3
  8
0
 10
69.45711049321491
 20
-13.7837095989534
 30
0.0
  0
VERTEX
  5
100D4
  8
0
 10
69.45379628436704
 20
-13.79752816248903
 30
0.0
  0
VERTEX
  5
100D5
  8
0
 10
69.44960732552603
 20
-13.8109830174357
 30
0.0
  0
VERTEX
  5
100D6
  8
0
 10
69.44457586144145
 20
-13.82404232457343
 30
0.0
  0
VERTEX
  5
100D7
  8
0
 10
69.43873413686292
 20
-13.83667424468222
 30
0.0
  0
VERTEX
  5
100D8
  8
0
 10
69.43211439654002
 20
-13.84884693854207
 30
0.0
  0
VERTEX
  5
100D9
  8
0
 10
69.42474888522234
 20
-13.86052856693299
 30
0.0
  0
VERTEX
  5
100DA
  8
0
 10
69.41666984765948
 20
-13.87168729063499
 30
0.0
  0
VERTEX
  5
100DB
  8
0
 10
69.40790952860102
 20
-13.88229127042806
 30
0.0
  0
VERTEX
  5
100DC
  8
0
 10
69.39850017279659
 20
-13.89230866709224
 30
0.0
  0
VERTEX
  5
100DD
  8
0
 10
69.38847402499576
 20
-13.9017076414075
 30
0.0
  0
VERTEX
  5
100DE
  8
0
 10
69.37786332994813
 20
-13.91045635415388
 30
0.0
  0
VERTEX
  5
100DF
  8
0
 10
69.3667003324033
 20
-13.91852296611136
 30
0.0
  0
VERTEX
  5
100E0
  8
0
 10
69.35501727711083
 20
-13.92587563805995
 30
0.0
  0
VERTEX
  5
100E1
  8
0
 10
69.34284640882038
 20
-13.93248253077967
 30
0.0
  0
VERTEX
  5
100E2
  8
0
 10
69.33021997228147
 20
-13.93831180505051
 30
0.0
  0
VERTEX
  5
100E3
  8
0
 10
69.31717021224375
 20
-13.94333162165249
 30
0.0
  0
VERTEX
  5
100E4
  8
0
 10
69.3037293734568
 20
-13.94751014136562
 30
0.0
  0
VERTEX
  5
100E5
  8
0
 10
69.28992970067021
 20
-13.95081552496988
 30
0.0
  0
VERTEX
  5
100E6
  8
0
 10
69.27580343863359
 20
-13.95321593324531
 30
0.0
  0
VERTEX
  5
100E7
  8
0
 10
69.2613828320965
 20
-13.95467952697189
 30
0.0
  0
VERTEX
  5
100E8
  8
0
 10
69.24670012580856
 20
-13.95517446692964
 30
0.0
  0
SEQEND
  5
104A5
  8
0
  0
LINE
  5
110
  8
0
 10
69.24670012580856
 20
-13.95517446692964
 30
0.0
 11
6.728512785828169
 21
-13.95517446692962
 31
0.0
  0
POLYLINE
  5
111
  8
0
 66
     1
 10
0.0
 20
0.0
 30
0.0
  0
VERTEX
  5
100E9
  8
0
 10
6.728512785828171
 20
-13.95517446692962
 30
0.0
  0
VERTEX
  5
100EA
  8
0
 10
6.713829523052065
 20
-13.95467952697187
 30
0.0
  0
VERTEX
  5
100EB
  8
0
 10
6.699408430016694
 20
-13.95321593324529
 30
0.0
  0
VERTEX
  5
100EC
  8
0
 10
6.685281747354601
 20
-13.95081552496987
 30
0.0
  0
VERTEX
  5
100ED
  8
0
 10
6.671481715698329
 20
-13.9475101413656
 30
0.0
  0
VERTEX
  5
100EE
  8
0
 10
6.658040575680421
 20
-13.94333162165248
 30
0.0
  0
VERTEX
  5
100EF
  8
0
 10
6.644990567933418
 20
-13.9383118050505
 30
0.0
  0
VERTEX
  5
100F0
  8
0
 10
6.632363933089866
 20
-13.93248253077965
 30
0.0
  0
VERTEX
  5
100F1
  8
0
 10
6.620192911782306
 20
-13.92587563805994
 30
0.0
  0
VERTEX
  5
100F2
  8
0
 10
6.60850974464328
 20
-13.91852296611134
 30
0.0
  0
VERTEX
  5
100F3
  8
0
 10
6.597346672305333
 20
-13.91045635415386
 30
0.0
  0
VERTEX
  5
100F4
  8
0
 10
6.586735935401007
 20
-13.90170764140749
 30
0.0
  0
VERTEX
  5
100F5
  8
0
 10
6.576709774562845
 20
-13.89230866709222
 30
0.0
  0
VERTEX
  5
100F6
  8
0
 10
6.567300430423388
 20
-13.88229127042805
 30
0.0
  0
VERTEX
  5
100F7
  8
0
 10
6.558540143615183
 20
-13.87168729063497
 30
0.0
  0
VERTEX
  5
100F8
  8
0
 10
6.550461154770769
 20
-13.86052856693297
 30
0.0
  0
VERTEX
  5
100F9
  8
0
 10
6.543095704522689
 20
-13.84884693854205
 30
0.0
  0
VERTEX
  5
100FA
  8
0
 10
6.53647603350349
 20
-13.8366742446822
 30
0.0
  0
VERTEX
  5
100FB
  8
0
 10
6.53063438234571
 20
-13.82404232457342
 30
0.0
  0
VERTEX
  5
100FC
  8
0
 10
6.525602991681894
 20
-13.81098301743569
 30
0.0
  0
VERTEX
  5
100FD
  8
0
 10
6.521414102144585
 20
-13.79752816248902
 30
0.0
  0
VERTEX
  5
100FE
  8
0
 10
6.518099954366326
 20
-13.78370959895339
 30
0.0
  0
VERTEX
  5
100FF
  8
0
 10
6.515692788979659
 20
-13.7695591660488
 30
0.0
  0
VERTEX
  5
10100
  8
0
 10
6.514224846617128
 20
-13.75510870299524
 30
0.0
  0
VERTEX
  5
10101
  8
0
 10
6.513728367911274
 20
-13.74039004901271
 30
0.0
  0
SEQEND
  5
104A6
  8
0
  0
POLYLINE
  5
112
  8
0
 66
     1
 10
0.0
 20
0.0
 30
0.0
  0
VERTEX
  5
10102
  8
0
 10
6.513728367911274
 20
-13.74039004901271
 30
0.0
  0
VERTEX
  5
10103
  8
0
 10
6.514224846617128
 20
-13.72570891578164
 30
0.0
  0
VERTEX
  5
10104
  8
0
 10
6.515692788979659
 20
-13.71129284863724
 30
0.0
  0
VERTEX
  5
10105
  8
0
 10
6.518099954366326
 20
-13.6971738226622
 30
0.0
  0
VERTEX
  5
10106
  8
0
 10
6.521414102144585
 20
-13.68338381293924
 30
0.0
  0
VERTEX
  5
10107
  8
0
 10
6.525602991681894
 20
-13.66995479455106
 30
0.0
  0
VERTEX
  5
10108
  8
0
 10
6.530634382345711
 20
-13.65691874258035
 30
0.0
  0
VERTEX
  5
10109
  8
0
 10
6.53647603350349
 20
-13.64430763210982
 30
0.0
  0
VERTEX
  5
1010A
  8
0
 10
6.54309570452269
 20
-13.63215343822218
 30
0.0
  0
VERTEX
  5
1010B
  8
0
 10
6.550461154770768
 20
-13.62048813600012
 30
0.0
  0
VERTEX
  5
1010C
  8
0
 10
6.558540143615183
 20
-13.60934370052635
 30
0.0
  0
VERTEX
  5
1010D
  8
0
 10
6.567300430423389
 20
-13.59875210688357
 30
0.0
  0
VERTEX
  5
1010E
  8
0
 10
6.576709774562845
 20
-13.58874533015448
 30
0.0
  0
VERTEX
  5
1010F
  8
0
 10
6.586735935401007
 20
-13.57935534542179
 30
0.0
  0
VERTEX
  5
10110
  8
0
 10
6.597346672305333
 20
-13.5706141277682
 30
0.0
  0
VERTEX
  5
10111
  8
0
 10
6.60850974464328
 20
-13.56255365227641
 30
0.0
  0
VERTEX
  5
10112
  8
0
 10
6.620192911782306
 20
-13.55520589402912
 30
0.0
  0
VERTEX
  5
10113
  8
0
 10
6.632363933089866
 20
-13.54860282810904
 30
0.0
  0
VERTEX
  5
10114
  8
0
 10
6.644990567933418
 20
-13.54277642959887
 30
0.0
  0
VERTEX
  5
10115
  8
0
 10
6.65804057568042
 20
-13.53775867358131
 30
0.0
  0
VERTEX
  5
10116
  8
0
 10
6.671481715698328
 20
-13.53358153513906
 30
0.0
  0
VERTEX
  5
10117
  8
0
 10
6.685281747354601
 20
-13.53027698935484
 30
0.0
  0
VERTEX
  5
10118
  8
0
 10
6.699408430016693
 20
-13.52787701131133
 30
0.0
  0
VERTEX
  5
10119
  8
0
 10
6.713829523052064
 20
-13.52641357609124
 30
0.0
  0
VERTEX
  5
1011A
  8
0
 10
6.728512785828171
 20
-13.52591865877727
 30
0.0
  0
SEQEND
  5
104A7
  8
0
  0
LINE
  5
113
  8
0
 10
63.44998779856287
 20
-48.50854597044567
 30
0.0
 11
60.76688332504397
 21
-40.22808386881232
 31
0.0
  0
POLYLINE
  5
114
  8
0
 66
     1
 10
0.0
 20
0.0
 30
0.0
  0
VERTEX
  5
1011B
  8
0
 10
60.76688332504398
 20
-40.22808386881232
 30
0.0
  0
VERTEX
  5
1011C
  8
0
 10
60.70250869092916
 20
-40.04857815273602
 30
0.0
  0
VERTEX
  5
1011D
  8
0
 10
60.62868416748422
 20
-39.88487026220619
 30
0.0
  0
VERTEX
  5
1011E
  8
0
 10
60.54646360180165
 20
-39.73623631074619
 30
0.0
  0
VERTEX
  5
1011F
  8
0
 10
60.456900840974
 20
-39.60195241187942
 30
0.0
  0
VERTEX
  5
10120
  8
0
 10
60.36104973209376
 20
-39.48129467912923
 30
0.0
  0
VERTEX
  5
10121
  8
0
 10
60.25996412225344
 20
-39.373539226019
 30
0.0
  0
VERTEX
  5
10122
  8
0
 10
60.15469785854554
 20
-39.27796216607211
 30
0.0
  0
VERTEX
  5
10123
  8
0
 10
60.04630478806259
 20
-39.19383961281196
 30
0.0
  0
VERTEX
  5
10124
  8
0
 10
59.93583875789706
 20
-39.12044767976187
 30
0.0
  0
VERTEX
  5
10125
  8
0
 10
59.82435361514152
 20
-39.05706248044526
 30
0.0
  0
VERTEX
  5
10126
  8
0
 10
59.71290320688843
 20
-39.00296012838549
 30
0.0
  0
VERTEX
  5
10127
  8
0
 10
59.60254138023031
 20
-38.95741673710594
 30
0.0
  0
VERTEX
  5
10128
  8
0
 10
59.49432198225969
 20
-38.91970842012999
 30
0.0
  0
VERTEX
  5
10129
  8
0
 10
59.38929886006905
 20
-38.88911129098099
 30
0.0
  0
VERTEX
  5
1012A
  8
0
 10
59.28852586075093
 20
-38.86490146318234
 30
0.0
  0
VERTEX
  5
1012B
  8
0
 10
59.19305683139782
 20
-38.8463550502574
 30
0.0
  0
VERTEX
  5
1012C
  8
0
 10
59.10394561910223
 20
-38.83274816572956
 30
0.0
  0
VERTEX
  5
1012D
  8
0
 10
59.02224607095668
 20
-38.82335692312219
 30
0.0
  0
VERTEX
  5
1012E
  8
0
 10
58.94901203405367
 20
-38.81745743595866
 30
0.0
  0
VERTEX
  5
1012F
  8
0
 10
58.8852973554857
 20
-38.81432581776235
 30
0.0
  0
VERTEX
  5
10130
  8
0
 10
58.83215588234532
 20
-38.81323818205664
 30
0.0
  0
VERTEX
  5
10131
  8
0
 10
58.790641461725
 20
-38.81347064236489
 30
0.0
  0
VERTEX
  5
10132
  8
0
 10
58.76180794071725
 20
-38.81429931221049
 30
0.0
  0
VERTEX
  5
10133
  8
0
 10
58.7467091664146
 20
-38.8150003051168
 30
0.0
  0
SEQEND
  5
104A8
  8
0
  0
LINE
  5
115
  8
0
 10
58.74670916641462
 20
-38.8150003051168
 30
0.0
 11
58.71274326108799
 21
-38.81643659776412
 31
0.0
  0
LINE
  5
116
  8
0
 10
58.71274326108799
 20
-38.81643659776412
 30
0.0
 11
17.22868046882813
 21
-38.8150003051168
 31
0.0
  0
POLYLINE
  5
117
  8
0
 66
     1
 10
0.0
 20
0.0
 30
0.0
  0
VERTEX
  5
10134
  8
0
 10
17.22868046882813
 20
-38.8150003051168
 30
0.0
  0
VERTEX
  5
10135
  8
0
 10
17.21388644784395
 20
-38.81431776324683
 30
0.0
  0
VERTEX
  5
10136
  8
0
 10
17.18525480921683
 20
-38.81367205672573
 30
0.0
  0
VERTEX
  5
10137
  8
0
 10
17.14385052384948
 20
-38.81376271403136
 30
0.0
  0
VERTEX
  5
10138
  8
0
 10
17.09073856264463
 20
-38.81528926364153
 30
0.0
  0
VERTEX
  5
10139
  8
0
 10
17.02698389650496
 20
-38.81895123403408
 30
0.0
  0
VERTEX
  5
1013A
  8
0
 10
16.9536514963332
 20
-38.82544815368684
 30
0.0
  0
VERTEX
  5
1013B
  8
0
 10
16.87180633303207
 20
-38.83547955107763
 30
0.0
  0
VERTEX
  5
1013C
  8
0
 10
16.78251337750428
 20
-38.8497449546843
 30
0.0
  0
VERTEX
  5
1013D
  8
0
 10
16.68683760065252
 20
-38.86894389298467
 30
0.0
  0
VERTEX
  5
1013E
  8
0
 10
16.58584397337953
 20
-38.89377589445659
 30
0.0
  0
VERTEX
  5
1013F
  8
0
 10
16.480597466588
 20
-38.92494048757786
 30
0.0
  0
VERTEX
  5
10140
  8
0
 10
16.37216305118066
 20
-38.96313720082632
 30
0.0
  0
VERTEX
  5
10141
  8
0
 10
16.26160569806022
 20
-39.00906556267982
 30
0.0
  0
VERTEX
  5
10142
  8
0
 10
16.14999037812938
 20
-39.06342510161619
 30
0.0
  0
VERTEX
  5
10143
  8
0
 10
16.03838206229086
 20
-39.12691534611324
 30
0.0
  0
VERTEX
  5
10144
  8
0
 10
15.92784572144737
 20
-39.20023582464881
 30
0.0
  0
VERTEX
  5
10145
  8
0
 10
15.81944632650163
 20
-39.28408606570075
 30
0.0
  0
VERTEX
  5
10146
  8
0
 10
15.71424884835634
 20
-39.37916559774686
 30
0.0
  0
VERTEX
  5
10147
  8
0
 10
15.61331825791422
 20
-39.48617394926499
 30
0.0
  0
VERTEX
  5
10148
  8
0
 10
15.51771952607799
 20
-39.60581064873297
 30
0.0
  0
VERTEX
  5
10149
  8
0
 10
15.42851762375034
 20
-39.73877522462863
 30
0.0
  0
VERTEX
  5
1014A
  8
0
 10
15.346777521834
 20
-39.88576720542981
 30
0.0
  0
VERTEX
  5
1014B
  8
0
 10
15.27356419123168
 20
-40.04748611961432
 30
0.0
  0
VERTEX
  5
1014C
  8
0
 10
15.20994260284609
 20
-40.22463149566001
 30
0.0
  0
SEQEND
  5
104A9
  8
0
  0
LINE
  5
118
  8
0
 10
15.20994260284609
 20
-40.22463149566001
 30
0.0
 11
12.5259816245375
 21
-48.50854597044567
 31
0.0
  0
LINE
  5
119
  8
0
 10
12.5259816245375
 20
-48.50854597044567
 30
0.0
 11
11.58065509198805
 21
-48.20255634007893
 31
0.0
  0
LINE
  5
120
  8
0
 10
11.58065509198805
 20
-48.20255634007893
 30
0.0
 11
14.2634740639104
 21
-39.92180654068288
 31
0.0
  0
POLYLINE
  5
121
  8
0
 66
     1
 10
0.0
 20
0.0
 30
0.0
  0
VERTEX
  5
1014D
  8
0
 10
14.2634740639104
 20
-39.92180654068288
 30
0.0
  0
VERTEX
  5
1014E
  8
0
 10
14.33891463327706
 20
-39.70760311967872
 30
0.0
  0
VERTEX
  5
1014F
  8
0
 10
14.42485327707556
 20
-39.50750663834642
 30
0.0
  0
VERTEX
  5
10150
  8
0
 10
14.52045365635412
 20
-39.32109630591805
 30
0.0
  0
VERTEX
  5
10151
  8
0
 10
14.62487943216099
 20
-39.14795133162573
 30
0.0
  0
VERTEX
  5
10152
  8
0
 10
14.73729426554442
 20
-38.98765092470152
 30
0.0
  0
VERTEX
  5
10153
  8
0
 10
14.85686181755262
 20
-38.8397742943775
 30
0.0
  0
VERTEX
  5
10154
  8
0
 10
14.98274574923385
 20
-38.70390064988575
 30
0.0
  0
VERTEX
  5
10155
  8
0
 10
15.11410972163634
 20
-38.57960920045838
 30
0.0
  0
VERTEX
  5
10156
  8
0
 10
15.25011739580832
 20
-38.46647915532744
 30
0.0
  0
VERTEX
  5
10157
  8
0
 10
15.38993243279805
 20
-38.36408972372503
 30
0.0
  0
VERTEX
  5
10158
  8
0
 10
15.53271849365375
 20
-38.27202011488324
 30
0.0
  0
VERTEX
  5
10159
  8
0
 10
15.67763923942366
 20
-38.18984953803415
 30
0.0
  0
VERTEX
  5
1015A
  8
0
 10
15.82385833115603
 20
-38.11715720240983
 30
0.0
  0
VERTEX
  5
1015B
  8
0
 10
15.97053942989908
 20
-38.05352231724236
 30
0.0
  0
VERTEX
  5
1015C
  8
0
 10
16.11684619670107
 20
-37.99852409176385
 30
0.0
  0
VERTEX
  5
1015D
  8
0
 10
16.26194229261021
 20
-37.95174173520636
 30
0.0
  0
VERTEX
  5
1015E
  8
0
 10
16.40499137867477
 20
-37.91275445680199
 30
0.0
  0
VERTEX
  5
1015F
  8
0
 10
16.54515711594297
 20
-37.88114146578281
 30
0.0
  0
VERTEX
  5
10160
  8
0
 10
16.68160316546305
 20
-37.85648197138091
 30
0.0
  0
VERTEX
  5
10161
  8
0
 10
16.81349318828324
 20
-37.83835518282837
 30
0.0
  0
VERTEX
  5
10162
  8
0
 10
16.93999084545179
 20
-37.82634030935728
 30
0.0
  0
VERTEX
  5
10163
  8
0
 10
17.06025979801694
 20
-37.82001656019971
 30
0.0
  0
VERTEX
  5
10164
  8
0
 10
17.17346370702692
 20
-37.81896314458776
 30
0.0
  0
VERTEX
  5
10165
  8
0
 10
17.27876623352997
 20
-37.8227592717535
 30
0.0
  0
SEQEND
  5
104AA
  8
0
  0
LINE
  5
122
  8
0
 10
17.27876623352997
 20
-37.8227592717535
 30
0.0
 11
58.69691109947546
 21
-37.8227592717535
 31
0.0
  0
POLYLINE
  5
123
  8
0
 66
     1
 10
0.0
 20
0.0
 30
0.0
  0
VERTEX
  5
10166
  8
0
 10
58.69691109947545
 20
-37.8227592717535
 30
0.0
  0
VERTEX
  5
10167
  8
0
 10
58.80221393926262
 20
-37.8189633943254
 30
0.0
  0
VERTEX
  5
10168
  8
0
 10
58.91541857715065
 20
-37.82001855810085
 30
0.0
  0
VERTEX
  5
10169
  8
0
 10
59.03568918128865
 20
-37.82634705227359
 30
0.0
  0
VERTEX
  5
1016A
  8
0
 10
59.16218991982571
 20
-37.8383711660374
 30
0.0
  0
VERTEX
  5
1016B
  8
0
 10
59.29408496091093
 20
-37.85651318858606
 30
0.0
  0
VERTEX
  5
1016C
  8
0
 10
59.43053847269339
 20
-37.88119540911331
 30
0.0
  0
VERTEX
  5
1016D
  8
0
 10
59.57071462332222
 20
-37.91284011681293
 30
0.0
  0
VERTEX
  5
1016E
  8
0
 10
59.71377758094649
 20
-37.95186960087867
 30
0.0
  0
VERTEX
  5
1016F
  8
0
 10
59.85889151371532
 20
-37.9987061505043
 30
0.0
  0
VERTEX
  5
10170
  8
0
 10
60.00522058977779
 20
-38.05377205488359
 30
0.0
  0
VERTEX
  5
10171
  8
0
 10
60.151928977283
 20
-38.11748960321029
 30
0.0
  0
VERTEX
  5
10172
  8
0
 10
60.29818084438005
 20
-38.19028108467818
 30
0.0
  0
VERTEX
  5
10173
  8
0
 10
60.44314035921803
 20
-38.27256878848102
 30
0.0
  0
VERTEX
  5
10174
  8
0
 10
60.58597168994606
 20
-38.36477500381257
 30
0.0
  0
VERTEX
  5
10175
  8
0
 10
60.72583900471322
 20
-38.46732201986659
 30
0.0
  0
VERTEX
  5
10176
  8
0
 10
60.8619064716686
 20
-38.58063212583684
 30
0.0
  0
VERTEX
  5
10177
  8
0
 10
60.99333825896132
 20
-38.7051276109171
 30
0.0
  0
VERTEX
  5
10178
  8
0
 10
61.11929853474046
 20
-38.84123076430113
 30
0.0
  0
VERTEX
  5
10179
  8
0
 10
61.23895146715512
 20
-38.98936387518269
 30
0.0
  0
VERTEX
  5
1017A
  8
0
 10
61.35146122435441
 20
-39.14994923275555
 30
0.0
  0
VERTEX
  5
1017B
  8
0
 10
61.4559919744874
 20
-39.32340912621346
 30
0.0
  0
VERTEX
  5
1017C
  8
0
 10
61.55170788570322
 20
-39.5101658447502
 30
0.0
  0
VERTEX
  5
1017D
  8
0
 10
61.63777312615094
 20
-39.71064167755952
 30
0.0
  0
VERTEX
  5
1017E
  8
0
 10
61.71335186397967
 20
-39.92525891383519
 30
0.0
  0
SEQEND
  5
104AB
  8
0
  0
LINE
  5
124
  8
0
 10
61.71335186397967
 20
-39.92525891383519
 30
0.0
 11
64.39530554644782
 21
-48.20255634007894
 31
0.0
  0
LINE
  5
125
  8
0
 10
64.39530554644782
 20
-48.20255634007894
 30
0.0
 11
63.44998779856287
 21
-48.50854597044567
 31
0.0
  0
POLYLINE
  5
126
  8
0
 66
     1
 10
0.0
 20
0.0
 30
0.0
  0
VERTEX
  5
1017F
  8
0
 10
50.78233073622424
 20
-44.72207242199791
 30
0.0
  0
VERTEX
  5
10180
  8
0
 10
50.77861809111253
 20
-44.83227730089865
 30
0.0
  0
VERTEX
  5
10181
  8
0
 10
50.76763988503551
 20
-44.94049067333344
 30
0.0
  0
VERTEX
  5
10182
  8
0
 10
50.7496357118805
 20
-45.04647267368966
 30
0.0
  0
VERTEX
  5
10183
  8
0
 10
50.72484516553474
 20
-45.1499834363546
 30
0.0
  0
VERTEX
  5
10184
  8
0
 10
50.69350783988548
 20
-45.25078309571558
 30
0.0
  0
VERTEX
  5
10185
  8
0
 10
50.65586332882
 20
-45.34863178615993
 30
0.0
  0
VERTEX
  5
10186
  8
0
 10
50.61215122622554
 20
-45.44328964207497
 30
0.0
  0
VERTEX
  5
10187
  8
0
 10
50.5626111259894
 20
-45.53451679784801
 30
0.0
  0
VERTEX
  5
10188
  8
0
 10
50.5074826219988
 20
-45.62207338786638
 30
0.0
  0
VERTEX
  5
10189
  8
0
 10
50.44700530814103
 20
-45.70571954651738
 30
0.0
  0
VERTEX
  5
1018A
  8
0
 10
50.38141877830333
 20
-45.78521540818836
 30
0.0
  0
VERTEX
  5
1018B
  8
0
 10
50.31096262637298
 20
-45.86032110726662
 30
0.0
  0
VERTEX
  5
1018C
  8
0
 10
50.23587644623724
 20
-45.9307967781395
 30
0.0
  0
VERTEX
  5
1018D
  8
0
 10
50.15639983178337
 20
-45.99640255519429
 30
0.0
  0
VERTEX
  5
1018E
  8
0
 10
50.07277237689863
 20
-46.05689857281833
 30
0.0
  0
VERTEX
  5
1018F
  8
0
 10
49.98523367547028
 20
-46.11204496539894
 30
0.0
  0
VERTEX
  5
10190
  8
0
 10
49.89402332138557
 20
-46.16160186732344
 30
0.0
  0
VERTEX
  5
10191
  8
0
 10
49.79938090853179
 20
-46.20532941297913
 30
0.0
  0
VERTEX
  5
10192
  8
0
 10
49.70154603079619
 20
-46.24298773675336
 30
0.0
  0
VERTEX
  5
10193
  8
0
 10
49.60075828206602
 20
-46.27433697303344
 30
0.0
  0
VERTEX
  5
10194
  8
0
 10
49.49725725622856
 20
-46.29913725620668
 30
0.0
  0
VERTEX
  5
10195
  8
0
 10
49.39128254717107
 20
-46.31714872066041
 30
0.0
  0
VERTEX
  5
10196
  8
0
 10
49.28307374878078
 20
-46.32813150078194
 30
0.0
  0
VERTEX
  5
10197
  8
0
 10
49.172870454945
 20
-46.33184573095861
 30
0.0
  0
SEQEND
  5
104AC
  8
0
  0
POLYLINE
  5
127
  8
0
 66
     1
 10
0.0
 20
0.0
 30
0.0
  0
VERTEX
  5
10198
  8
0
 10
49.172870454945
 20
-46.33184573095861
 30
0.0
  0
VERTEX
  5
10199
  8
0
 10
49.06270465784454
 20
-46.32813150078194
 30
0.0
  0
VERTEX
  5
1019A
  8
0
 10
48.95453018605971
 20
-46.3171487206604
 30
0.0
  0
VERTEX
  5
1019B
  8
0
 10
48.84858677345753
 20
-46.29913725620668
 30
0.0
  0
VERTEX
  5
1019C
  8
0
 10
48.74511415390506
 20
-46.27433697303344
 30
0.0
  0
VERTEX
  5
1019D
  8
0
 10
48.64435206126928
 20
-46.24298773675336
 30
0.0
  0
VERTEX
  5
1019E
  8
0
 10
48.54654022941722
 20
-46.20532941297913
 30
0.0
  0
VERTEX
  5
1019F
  8
0
 10
48.45191839221592
 20
-46.16160186732343
 30
0.0
  0
VERTEX
  5
101A0
  8
0
 10
48.3607262835324
 20
-46.11204496539894
 30
0.0
  0
VERTEX
  5
101A1
  8
0
 10
48.27320363723366
 20
-46.05689857281833
 30
0.0
  0
VERTEX
  5
101A2
  8
0
 10
48.18959018718675
 20
-45.99640255519429
 30
0.0
  0
VERTEX
  5
101A3
  8
0
 10
48.11012566725867
 20
-45.9307967781395
 30
0.0
  0
VERTEX
  5
101A4
  8
0
 10
48.03504981131645
 20
-45.86032110726662
 30
0.0
  0
VERTEX
  5
101A5
  8
0
 10
47.96460235322713
 20
-45.78521540818836
 30
0.0
  0
VERTEX
  5
101A6
  8
0
 10
47.89902302685772
 20
-45.70571954651739
 30
0.0
  0
VERTEX
  5
101A7
  8
0
 10
47.83855156607524
 20
-45.62207338786638
 30
0.0
  0
VERTEX
  5
101A8
  8
0
 10
47.78342770474671
 20
-45.53451679784801
 30
0.0
  0
VERTEX
  5
101A9
  8
0
 10
47.73389117673915
 20
-45.44328964207497
 30
0.0
  0
VERTEX
  5
101AA
  8
0
 10
47.6901817159196
 20
-45.34863178615993
 30
0.0
  0
VERTEX
  5
101AB
  8
0
 10
47.65253905615507
 20
-45.25078309571558
 30
0.0
  0
VERTEX
  5
101AC
  8
0
 10
47.62120293131258
 20
-45.1499834363546
 30
0.0
  0
VERTEX
  5
101AD
  8
0
 10
47.59641307525917
 20
-45.04647267368966
 30
0.0
  0
VERTEX
  5
101AE
  8
0
 10
47.57840922186185
 20
-44.94049067333344
 30
0.0
  0
VERTEX
  5
101AF
  8
0
 10
47.56743110498763
 20
-44.83227730089864
 30
0.0
  0
VERTEX
  5
101B0
  8
0
 10
47.56371845850356
 20
-44.72207242199791
 30
0.0
  0
SEQEND
  5
104AD
  8
0
  0
POLYLINE
  5
128
  8
0
 66
     1
 10
0.0
 20
0.0
 30
0.0
  0
VERTEX
  5
101B1
  8
0
 10
47.56371845850356
 20
-44.72207242199791
 30
0.0
  0
VERTEX
  5
101B2
  8
0
 10
47.56743110498764
 20
-44.61190662489745
 30
0.0
  0
VERTEX
  5
101B3
  8
0
 10
47.57840922186185
 20
-44.50373215311262
 30
0.0
  0
VERTEX
  5
101B4
  8
0
 10
47.59641307525917
 20
-44.39778874051045
 30
0.0
  0
VERTEX
  5
101B5
  8
0
 10
47.62120293131259
 20
-44.29431612095797
 30
0.0
  0
VERTEX
  5
101B6
  8
0
 10
47.65253905615508
 20
-44.19355402832218
 30
0.0
  0
VERTEX
  5
101B7
  8
0
 10
47.69018171591961
 20
-44.09574219647012
 30
0.0
  0
VERTEX
  5
101B8
  8
0
 10
47.73389117673916
 20
-44.00112035926883
 30
0.0
  0
VERTEX
  5
101B9
  8
0
 10
47.78342770474671
 20
-43.9099282505853
 30
0.0
  0
VERTEX
  5
101BA
  8
0
 10
47.83855156607523
 20
-43.82240560428656
 30
0.0
  0
VERTEX
  5
101BB
  8
0
 10
47.89902302685772
 20
-43.73879215423965
 30
0.0
  0
VERTEX
  5
101BC
  8
0
 10
47.96460235322713
 20
-43.65932763431157
 30
0.0
  0
VERTEX
  5
101BD
  8
0
 10
48.03504981131645
 20
-43.58425177836936
 30
0.0
  0
VERTEX
  5
101BE
  8
0
 10
48.11012566725867
 20
-43.51380432028004
 30
0.0
  0
VERTEX
  5
101BF
  8
0
 10
48.18959018718675
 20
-43.44822499391062
 30
0.0
  0
VERTEX
  5
101C0
  8
0
 10
48.27320363723366
 20
-43.38775353312813
 30
0.0
  0
VERTEX
  5
101C1
  8
0
 10
48.36072628353239
 20
-43.33262967179961
 30
0.0
  0
VERTEX
  5
101C2
  8
0
 10
48.45191839221592
 20
-43.28309314379206
 30
0.0
  0
VERTEX
  5
101C3
  8
0
 10
48.54654022941723
 20
-43.2393836829725
 30
0.0
  0
VERTEX
  5
101C4
  8
0
 10
48.64435206126927
 20
-43.20174102320797
 30
0.0
  0
VERTEX
  5
101C5
  8
0
 10
48.74511415390505
 20
-43.17040489836549
 30
0.0
  0
VERTEX
  5
101C6
  8
0
 10
48.84858677345754
 20
-43.14561504231207
 30
0.0
  0
VERTEX
  5
101C7
  8
0
 10
48.95453018605971
 20
-43.12761118891475
 30
0.0
  0
VERTEX
  5
101C8
  8
0
 10
49.06270465784453
 20
-43.11663307204053
 30
0.0
  0
VERTEX
  5
101C9
  8
0
 10
49.172870454945
 20
-43.11292042555646
 30
0.0
  0
SEQEND
  5
104AE
  8
0
  0
POLYLINE
  5
129
  8
0
 66
     1
 10
0.0
 20
0.0
 30
0.0
  0
VERTEX
  5
101CA
  8
0
 10
49.172870454945
 20
-43.11292042555646
 30
0.0
  0
VERTEX
  5
101CB
  8
0
 10
49.28307374878079
 20
-43.11663307204054
 30
0.0
  0
VERTEX
  5
101CC
  8
0
 10
49.39128254717106
 20
-43.12761118891475
 30
0.0
  0
VERTEX
  5
101CD
  8
0
 10
49.49725725622856
 20
-43.14561504231207
 30
0.0
  0
VERTEX
  5
101CE
  8
0
 10
49.60075828206603
 20
-43.1704048983655
 30
0.0
  0
VERTEX
  5
101CF
  8
0
 10
49.70154603079619
 20
-43.20174102320798
 30
0.0
  0
VERTEX
  5
101D0
  8
0
 10
49.79938090853179
 20
-43.2393836829725
 30
0.0
  0
VERTEX
  5
101D1
  8
0
 10
49.89402332138558
 20
-43.28309314379205
 30
0.0
  0
VERTEX
  5
101D2
  8
0
 10
49.98523367547028
 20
-43.33262967179961
 30
0.0
  0
VERTEX
  5
101D3
  8
0
 10
50.07277237689863
 20
-43.38775353312814
 30
0.0
  0
VERTEX
  5
101D4
  8
0
 10
50.15639983178337
 20
-43.44822499391062
 30
0.0
  0
VERTEX
  5
101D5
  8
0
 10
50.23587644623725
 20
-43.51380432028003
 30
0.0
  0
VERTEX
  5
101D6
  8
0
 10
50.31096262637298
 20
-43.58425177836936
 30
0.0
  0
VERTEX
  5
101D7
  8
0
 10
50.38141877830333
 20
-43.65932763431157
 30
0.0
  0
VERTEX
  5
101D8
  8
0
 10
50.44700530814103
 20
-43.73879215423965
 30
0.0
  0
VERTEX
  5
101D9
  8
0
 10
50.5074826219988
 20
-43.82240560428656
 30
0.0
  0
VERTEX
  5
101DA
  8
0
 10
50.56261112598939
 20
-43.9099282505853
 30
0.0
  0
VERTEX
  5
101DB
  8
0
 10
50.61215122622555
 20
-44.00112035926882
 30
0.0
  0
VERTEX
  5
101DC
  8
0
 10
50.65586332881999
 20
-44.09574219647013
 30
0.0
  0
VERTEX
  5
101DD
  8
0
 10
50.69350783988547
 20
-44.19355402832218
 30
0.0
  0
VERTEX
  5
101DE
  8
0
 10
50.72484516553473
 20
-44.29431612095796
 30
0.0
  0
VERTEX
  5
101DF
  8
0
 10
50.7496357118805
 20
-44.39778874051045
 30
0.0
  0
VERTEX
  5
101E0
  8
0
 10
50.76763988503552
 20
-44.50373215311262
 30
0.0
  0
VERTEX
  5
101E1
  8
0
 10
50.77861809111251
 20
-44.61190662489744
 30
0.0
  0
VERTEX
  5
101E2
  8
0
 10
50.78233073622424
 20
-44.72207242199791
 30
0.0
  0
SEQEND
  5
104AF
  8
0
  0
POLYLINE
  5
130
  8
0
 66
     1
 10
0.0
 20
0.0
 30
0.0
  0
VERTEX
  5
101E3
  8
0
 10
58.77183110695481
 20
-46.04557480199961
 30
0.0
  0
VERTEX
  5
101E4
  8
0
 10
58.76812000041966
 20
-46.15577782359534
 30
0.0
  0
VERTEX
  5
101E5
  8
0
 10
58.75714614177779
 20
-46.26398639606241
 30
0.0
  0
VERTEX
  5
101E6
  8
0
 10
58.73914872247469
 20
-46.36996092242573
 30
0.0
  0
VERTEX
  5
101E7
  8
0
 10
58.7143669339558
 20
-46.47346180571028
 30
0.0
  0
VERTEX
  5
101E8
  8
0
 10
58.68303996766655
 20
-46.57424944894099
 30
0.0
  0
VERTEX
  5
101E9
  8
0
 10
58.64540701505241
 20
-46.67208425514283
 30
0.0
  0
VERTEX
  5
101EA
  8
0
 10
58.60170726755884
 20
-46.76672662734071
 30
0.0
  0
VERTEX
  5
101EB
  8
0
 10
58.55217991663127
 20
-46.85793696855963
 30
0.0
  0
VERTEX
  5
101EC
  8
0
 10
58.49706415371514
 20
-46.9454756818245
 30
0.0
  0
VERTEX
  5
101ED
  8
0
 10
58.43659917025592
 20
-47.0291031701603
 30
0.0
  0
VERTEX
  5
101EE
  8
0
 10
58.37102415769907
 20
-47.10857983659194
 30
0.0
  0
VERTEX
  5
101EF
  8
0
 10
58.30057830749
 20
-47.18366608414441
 30
0.0
  0
VERTEX
  5
101F0
  8
0
 10
58.22550081107421
 20
-47.25412231584264
 30
0.0
  0
VERTEX
  5
101F1
  8
0
 10
58.14603085989711
 20
-47.31970893471157
 30
0.0
  0
VERTEX
  5
101F2
  8
0
 10
58.06240764540415
 20
-47.38018634377617
 30
0.0
  0
VERTEX
  5
101F3
  8
0
 10
57.97487035904081
 20
-47.43531494606137
 30
0.0
  0
VERTEX
  5
101F4
  8
0
 10
57.88365819225253
 20
-47.48485514459214
 30
0.0
  0
VERTEX
  5
101F5
  8
0
 10
57.78901033648474
 20
-47.52856734239341
 30
0.0
  0
VERTEX
  5
101F6
  8
0
 10
57.6911659831829
 20
-47.56621194249013
 30
0.0
  0
VERTEX
  5
101F7
  8
0
 10
57.59036432379246
 20
-47.59754934790727
 30
0.0
  0
VERTEX
  5
101F8
  8
0
 10
57.48684454975888
 20
-47.62233996166976
 30
0.0
  0
VERTEX
  5
101F9
  8
0
 10
57.38084585252761
 20
-47.64034418680255
 30
0.0
  0
VERTEX
  5
101FA
  8
0
 10
57.27260742354407
 20
-47.65132242633059
 30
0.0
  0
VERTEX
  5
101FB
  8
0
 10
57.16236845425374
 20
-47.65503508327885
 30
0.0
  0
SEQEND
  5
104B0
  8
0
  0
POLYLINE
  5
131
  8
0
 66
     1
 10
0.0
 20
0.0
 30
0.0
  0
VERTEX
  5
101FC
  8
0
 10
57.16236845425374
 20
-47.65503508327885
 30
0.0
  0
VERTEX
  5
101FD
  8
0
 10
57.05220238491324
 20
-47.6513224263306
 30
0.0
  0
VERTEX
  5
101FE
  8
0
 10
56.94402768720519
 20
-47.64034418680255
 30
0.0
  0
VERTEX
  5
101FF
  8
0
 10
56.83808409190885
 20
-47.62233996166977
 30
0.0
  0
VERTEX
  5
10200
  8
0
 10
56.73461132980345
 20
-47.59754934790728
 30
0.0
  0
VERTEX
  5
10201
  8
0
 10
56.63384913166821
 20
-47.56621194249013
 30
0.0
  0
VERTEX
  5
10202
  8
0
 10
56.53603722828237
 20
-47.52856734239341
 30
0.0
  0
VERTEX
  5
10203
  8
0
 10
56.4414153504252
 20
-47.48485514459215
 30
0.0
  0
VERTEX
  5
10204
  8
0
 10
56.35022322887588
 20
-47.43531494606137
 30
0.0
  0
VERTEX
  5
10205
  8
0
 10
56.26270059441367
 20
-47.38018634377617
 30
0.0
  0
VERTEX
  5
10206
  8
0
 10
56.1790871778178
 20
-47.31970893471157
 30
0.0
  0
VERTEX
  5
10207
  8
0
 10
56.0996227098675
 20
-47.25412231584263
 30
0.0
  0
VERTEX
  5
10208
  8
0
 10
56.02454692134202
 20
-47.18366608414441
 30
0.0
  0
VERTEX
  5
10209
  8
0
 10
55.95409954302058
 20
-47.10857983659194
 30
0.0
  0
VERTEX
  5
1020A
  8
0
 10
55.88852030568239
 20
-47.0291031701603
 30
0.0
  0
VERTEX
  5
1020B
  8
0
 10
55.82804894010674
 20
-46.9454756818245
 30
0.0
  0
VERTEX
  5
1020C
  8
0
 10
55.77292517707282
 20
-46.85793696855963
 30
0.0
  0
VERTEX
  5
1020D
  8
0
 10
55.72338874735989
 20
-46.76672662734072
 30
0.0
  0
VERTEX
  5
1020E
  8
0
 10
55.67967938174715
 20
-46.67208425514282
 30
0.0
  0
VERTEX
  5
1020F
  8
0
 10
55.64203681101387
 20
-46.57424944894099
 30
0.0
  0
VERTEX
  5
10210
  8
0
 10
55.61070076593926
 20
-46.47346180571027
 30
0.0
  0
VERTEX
  5
10211
  8
0
 10
55.58591097730257
 20
-46.36996092242573
 30
0.0
  0
VERTEX
  5
10212
  8
0
 10
55.56790717588302
 20
-46.26398639606241
 30
0.0
  0
VERTEX
  5
10213
  8
0
 10
55.55692909245985
 20
-46.15577782359534
 30
0.0
  0
VERTEX
  5
10214
  8
0
 10
55.5532164578123
 20
-46.04557480199961
 30
0.0
  0
SEQEND
  5
104B1
  8
0
  0
POLYLINE
  5
132
  8
0
 66
     1
 10
0.0
 20
0.0
 30
0.0
  0
VERTEX
  5
10215
  8
0
 10
55.5532164578123
 20
-46.04557480199961
 30
0.0
  0
VERTEX
  5
10216
  8
0
 10
55.55692909245986
 20
-45.93537149615575
 30
0.0
  0
VERTEX
  5
10217
  8
0
 10
55.56790717588302
 20
-45.82716266311363
 30
0.0
  0
VERTEX
  5
10218
  8
0
 10
55.58591097730257
 20
-45.72118789881902
 30
0.0
  0
VERTEX
  5
10219
  8
0
 10
55.61070076593927
 20
-45.6176867992177
 30
0.0
  0
VERTEX
  5
1021A
  8
0
 10
55.64203681101387
 20
-45.51689896025549
 30
0.0
  0
VERTEX
  5
1021B
  8
0
 10
55.67967938174715
 20
-45.41906397787814
 30
0.0
  0
VERTEX
  5
1021C
  8
0
 10
55.72338874735988
 20
-45.32442144803147
 30
0.0
  0
VERTEX
  5
1021D
  8
0
 10
55.77292517707281
 20
-45.23321096666126
 30
0.0
  0
VERTEX
  5
1021E
  8
0
 10
55.82804894010673
 20
-45.14567212971328
 30
0.0
  0
VERTEX
  5
1021F
  8
0
 10
55.8885203056824
 20
-45.06204453313335
 30
0.0
  0
VERTEX
  5
10220
  8
0
 10
55.95409954302058
 20
-44.98256777286721
 30
0.0
  0
VERTEX
  5
10221
  8
0
 10
56.02454692134201
 20
-44.90748144486069
 30
0.0
  0
VERTEX
  5
10222
  8
0
 10
56.0996227098675
 20
-44.83702514505957
 30
0.0
  0
VERTEX
  5
10223
  8
0
 10
56.1790871778178
 20
-44.77143846940963
 30
0.0
  0
VERTEX
  5
10224
  8
0
 10
56.26270059441367
 20
-44.71096101385665
 30
0.0
  0
VERTEX
  5
10225
  8
0
 10
56.35022322887588
 20
-44.65583237434644
 30
0.0
  0
VERTEX
  5
10226
  8
0
 10
56.4414153504252
 20
-44.60629214682478
 30
0.0
  0
VERTEX
  5
10227
  8
0
 10
56.53603722828238
 20
-44.56257992723744
 30
0.0
  0
VERTEX
  5
10228
  8
0
 10
56.63384913166821
 20
-44.52493531153021
 30
0.0
  0
VERTEX
  5
10229
  8
0
 10
56.73461132980344
 20
-44.49359789564891
 30
0.0
  0
VERTEX
  5
1022A
  8
0
 10
56.83808409190884
 20
-44.4688072755393
 30
0.0
  0
VERTEX
  5
1022B
  8
0
 10
56.94402768720519
 20
-44.45080304714718
 30
0.0
  0
VERTEX
  5
1022C
  8
0
 10
57.05220238491323
 20
-44.43982480641832
 30
0.0
  0
VERTEX
  5
1022D
  8
0
 10
57.16236845425374
 20
-44.43611214929853
 30
0.0
  0
SEQEND
  5
104B2
  8
0
  0
POLYLINE
  5
133
  8
0
 66
     1
 10
0.0
 20
0.0
 30
0.0
  0
VERTEX
  5
1022E
  8
0
 10
57.16236845425374
 20
-44.43611214929853
 30
0.0
  0
VERTEX
  5
1022F
  8
0
 10
57.27260742354408
 20
-44.43982480641833
 30
0.0
  0
VERTEX
  5
10230
  8
0
 10
57.38084585252761
 20
-44.45080304714718
 30
0.0
  0
VERTEX
  5
10231
  8
0
 10
57.48684454975889
 20
-44.4688072755393
 30
0.0
  0
VERTEX
  5
10232
  8
0
 10
57.59036432379246
 20
-44.49359789564892
 30
0.0
  0
VERTEX
  5
10233
  8
0
 10
57.69116598318291
 20
-44.52493531153022
 30
0.0
  0
VERTEX
  5
10234
  8
0
 10
57.78901033648472
 20
-44.56257992723744
 30
0.0
  0
VERTEX
  5
10235
  8
0
 10
57.88365819225252
 20
-44.60629214682477
 30
0.0
  0
VERTEX
  5
10236
  8
0
 10
57.97487035904081
 20
-44.65583237434644
 30
0.0
  0
VERTEX
  5
10237
  8
0
 10
58.06240764540415
 20
-44.71096101385665
 30
0.0
  0
VERTEX
  5
10238
  8
0
 10
58.1460308598971
 20
-44.77143846940963
 30
0.0
  0
VERTEX
  5
10239
  8
0
 10
58.22550081107421
 20
-44.83702514505957
 30
0.0
  0
VERTEX
  5
1023A
  8
0
 10
58.30057830749
 20
-44.90748144486069
 30
0.0
  0
VERTEX
  5
1023B
  8
0
 10
58.37102415769907
 20
-44.98256777286722
 30
0.0
  0
VERTEX
  5
1023C
  8
0
 10
58.43659917025592
 20
-45.06204453313335
 30
0.0
  0
VERTEX
  5
1023D
  8
0
 10
58.49706415371514
 20
-45.14567212971328
 30
0.0
  0
VERTEX
  5
1023E
  8
0
 10
58.55217991663126
 20
-45.23321096666125
 30
0.0
  0
VERTEX
  5
1023F
  8
0
 10
58.60170726755884
 20
-45.32442144803148
 30
0.0
  0
VERTEX
  5
10240
  8
0
 10
58.64540701505241
 20
-45.41906397787815
 30
0.0
  0
VERTEX
  5
10241
  8
0
 10
58.68303996766655
 20
-45.51689896025548
 30
0.0
  0
VERTEX
  5
10242
  8
0
 10
58.71436693395579
 20
-45.61768679921769
 30
0.0
  0
VERTEX
  5
10243
  8
0
 10
58.73914872247468
 20
-45.72118789881901
 30
0.0
  0
VERTEX
  5
10244
  8
0
 10
58.75714614177779
 20
-45.82716266311363
 30
0.0
  0
VERTEX
  5
10245
  8
0
 10
58.76812000041964
 20
-45.93537149615575
 30
0.0
  0
VERTEX
  5
10246
  8
0
 10
58.77183110695481
 20
-46.04557480199961
 30
0.0
  0
SEQEND
  5
104B3
  8
0
  0
POLYLINE
  5
134
  8
0
 66
     1
 10
0.0
 20
0.0
 30
0.0
  0
VERTEX
  5
10247
  8
0
 10
20.42137276988332
 20
-46.04557480199961
 30
0.0
  0
VERTEX
  5
10248
  8
0
 10
20.41766014707229
 20
-46.15577782359534
 30
0.0
  0
VERTEX
  5
10249
  8
0
 10
20.40668209710017
 20
-46.26398639606241
 30
0.0
  0
VERTEX
  5
1024A
  8
0
 10
20.3886783476584
 20
-46.36996092242573
 30
0.0
  0
VERTEX
  5
1024B
  8
0
 10
20.36388862643843
 20
-46.47346180571028
 30
0.0
  0
VERTEX
  5
1024C
  8
0
 10
20.3325526611317
 20
-46.57424944894099
 30
0.0
  0
VERTEX
  5
1024D
  8
0
 10
20.29491017942966
 20
-46.67208425514283
 30
0.0
  0
VERTEX
  5
1024E
  8
0
 10
20.25120090902376
 20
-46.76672662734071
 30
0.0
  0
VERTEX
  5
1024F
  8
0
 10
20.20166457760543
 20
-46.85793696855963
 30
0.0
  0
VERTEX
  5
10250
  8
0
 10
20.14654091286612
 20
-46.9454756818245
 30
0.0
  0
VERTEX
  5
10251
  8
0
 10
20.08606964249728
 20
-47.0291031701603
 30
0.0
  0
VERTEX
  5
10252
  8
0
 10
20.02049049419036
 20
-47.10857983659194
 30
0.0
  0
VERTEX
  5
10253
  8
0
 10
19.95004319563679
 20
-47.18366608414441
 30
0.0
  0
VERTEX
  5
10254
  8
0
 10
19.87496747452802
 20
-47.25412231584264
 30
0.0
  0
VERTEX
  5
10255
  8
0
 10
19.79550305855551
 20
-47.31970893471157
 30
0.0
  0
VERTEX
  5
10256
  8
0
 10
19.71188967541068
 20
-47.38018634377617
 30
0.0
  0
VERTEX
  5
10257
  8
0
 10
19.624367052785
 20
-47.43531494606137
 30
0.0
  0
VERTEX
  5
10258
  8
0
 10
19.53317491836989
 20
-47.48485514459214
 30
0.0
  0
VERTEX
  5
10259
  8
0
 10
19.43855299985682
 20
-47.52856734239341
 30
0.0
  0
VERTEX
  5
1025A
  8
0
 10
19.34074102493722
 20
-47.56621194249013
 30
0.0
  0
VERTEX
  5
1025B
  8
0
 10
19.23997872130253
 20
-47.59754934790727
 30
0.0
  0
VERTEX
  5
1025C
  8
0
 10
19.13650581664421
 20
-47.62233996166976
 30
0.0
  0
VERTEX
  5
1025D
  8
0
 10
19.0305620386537
 20
-47.64034418680255
 30
0.0
  0
VERTEX
  5
1025E
  8
0
 10
18.92238711502244
 20
-47.65132242633059
 30
0.0
  0
VERTEX
  5
1025F
  8
0
 10
18.81222077344188
 20
-47.65503508327885
 30
0.0
  0
SEQEND
  5
104B4
  8
0
  0
POLYLINE
  5
135
  8
0
 66
     1
 10
0.0
 20
0.0
 30
0.0
  0
VERTEX
  5
10260
  8
0
 10
18.81222077344188
 20
-47.65503508327885
 30
0.0
  0
VERTEX
  5
10261
  8
0
 10
18.70201747960609
 20
-47.6513224263306
 30
0.0
  0
VERTEX
  5
10262
  8
0
 10
18.59380868121581
 20
-47.64034418680255
 30
0.0
  0
VERTEX
  5
10263
  8
0
 10
18.48783397215831
 20
-47.62233996166977
 30
0.0
  0
VERTEX
  5
10264
  8
0
 10
18.38433294632085
 20
-47.59754934790728
 30
0.0
  0
VERTEX
  5
10265
  8
0
 10
18.28354519759068
 20
-47.56621194249013
 30
0.0
  0
VERTEX
  5
10266
  8
0
 10
18.18571031985508
 20
-47.52856734239341
 30
0.0
  0
VERTEX
  5
10267
  8
0
 10
18.0910679070013
 20
-47.48485514459215
 30
0.0
  0
VERTEX
  5
10268
  8
0
 10
17.9998575529166
 20
-47.43531494606137
 30
0.0
  0
VERTEX
  5
10269
  8
0
 10
17.91231885148824
 20
-47.38018634377617
 30
0.0
  0
VERTEX
  5
1026A
  8
0
 10
17.8286913966035
 20
-47.31970893471157
 30
0.0
  0
VERTEX
  5
1026B
  8
0
 10
17.74921478214963
 20
-47.25412231584263
 30
0.0
  0
VERTEX
  5
1026C
  8
0
 10
17.67412860201388
 20
-47.18366608414441
 30
0.0
  0
VERTEX
  5
1026D
  8
0
 10
17.60367245008354
 20
-47.10857983659194
 30
0.0
  0
VERTEX
  5
1026E
  8
0
 10
17.53808592024585
 20
-47.0291031701603
 30
0.0
  0
VERTEX
  5
1026F
  8
0
 10
17.47760860638807
 20
-46.9454756818245
 30
0.0
  0
VERTEX
  5
10270
  8
0
 10
17.42248010239748
 20
-46.85793696855963
 30
0.0
  0
VERTEX
  5
10271
  8
0
 10
17.37294000216133
 20
-46.76672662734072
 30
0.0
  0
VERTEX
  5
10272
  8
0
 10
17.32922789956688
 20
-46.67208425514282
 30
0.0
  0
VERTEX
  5
10273
  8
0
 10
17.29158338850139
 20
-46.57424944894099
 30
0.0
  0
VERTEX
  5
10274
  8
0
 10
17.26024606285214
 20
-46.47346180571027
 30
0.0
  0
VERTEX
  5
10275
  8
0
 10
17.23545551650637
 20
-46.36996092242573
 30
0.0
  0
VERTEX
  5
10276
  8
0
 10
17.21745134335136
 20
-46.26398639606241
 30
0.0
  0
VERTEX
  5
10277
  8
0
 10
17.20647313727436
 20
-46.15577782359534
 30
0.0
  0
VERTEX
  5
10278
  8
0
 10
17.20276049216264
 20
-46.04557480199961
 30
0.0
  0
SEQEND
  5
104B5
  8
0
  0
POLYLINE
  5
136
  8
0
 66
     1
 10
0.0
 20
0.0
 30
0.0
  0
VERTEX
  5
10279
  8
0
 10
17.20276049216264
 20
-46.04557480199961
 30
0.0
  0
VERTEX
  5
1027A
  8
0
 10
17.20647313727436
 20
-45.93537149615575
 30
0.0
  0
VERTEX
  5
1027B
  8
0
 10
17.21745134335136
 20
-45.82716266311363
 30
0.0
  0
VERTEX
  5
1027C
  8
0
 10
17.23545551650637
 20
-45.72118789881902
 30
0.0
  0
VERTEX
  5
1027D
  8
0
 10
17.26024606285214
 20
-45.6176867992177
 30
0.0
  0
VERTEX
  5
1027E
  8
0
 10
17.2915833885014
 20
-45.51689896025549
 30
0.0
  0
VERTEX
  5
1027F
  8
0
 10
17.32922789956688
 20
-45.41906397787814
 30
0.0
  0
VERTEX
  5
10280
  8
0
 10
17.37294000216133
 20
-45.32442144803147
 30
0.0
  0
VERTEX
  5
10281
  8
0
 10
17.42248010239748
 20
-45.23321096666126
 30
0.0
  0
VERTEX
  5
10282
  8
0
 10
17.47760860638807
 20
-45.14567212971328
 30
0.0
  0
VERTEX
  5
10283
  8
0
 10
17.53808592024584
 20
-45.06204453313335
 30
0.0
  0
VERTEX
  5
10284
  8
0
 10
17.60367245008354
 20
-44.98256777286721
 30
0.0
  0
VERTEX
  5
10285
  8
0
 10
17.67412860201389
 20
-44.90748144486069
 30
0.0
  0
VERTEX
  5
10286
  8
0
 10
17.74921478214963
 20
-44.83702514505957
 30
0.0
  0
VERTEX
  5
10287
  8
0
 10
17.8286913966035
 20
-44.77143846940963
 30
0.0
  0
VERTEX
  5
10288
  8
0
 10
17.91231885148824
 20
-44.71096101385665
 30
0.0
  0
VERTEX
  5
10289
  8
0
 10
17.9998575529166
 20
-44.65583237434644
 30
0.0
  0
VERTEX
  5
1028A
  8
0
 10
18.0910679070013
 20
-44.60629214682478
 30
0.0
  0
VERTEX
  5
1028B
  8
0
 10
18.18571031985508
 20
-44.56257992723744
 30
0.0
  0
VERTEX
  5
1028C
  8
0
 10
18.28354519759068
 20
-44.52493531153021
 30
0.0
  0
VERTEX
  5
1028D
  8
0
 10
18.38433294632085
 20
-44.49359789564891
 30
0.0
  0
VERTEX
  5
1028E
  8
0
 10
18.48783397215831
 20
-44.4688072755393
 30
0.0
  0
VERTEX
  5
1028F
  8
0
 10
18.59380868121581
 20
-44.45080304714718
 30
0.0
  0
VERTEX
  5
10290
  8
0
 10
18.70201747960608
 20
-44.43982480641832
 30
0.0
  0
VERTEX
  5
10291
  8
0
 10
18.81222077344188
 20
-44.43611214929853
 30
0.0
  0
SEQEND
  5
104B6
  8
0
  0
POLYLINE
  5
137
  8
0
 66
     1
 10
0.0
 20
0.0
 30
0.0
  0
VERTEX
  5
10292
  8
0
 10
18.81222077344188
 20
-44.43611214929853
 30
0.0
  0
VERTEX
  5
10293
  8
0
 10
18.92238711502244
 20
-44.43982480641833
 30
0.0
  0
VERTEX
  5
10294
  8
0
 10
19.0305620386537
 20
-44.45080304714718
 30
0.0
  0
VERTEX
  5
10295
  8
0
 10
19.13650581664421
 20
-44.4688072755393
 30
0.0
  0
VERTEX
  5
10296
  8
0
 10
19.23997872130253
 20
-44.49359789564892
 30
0.0
  0
VERTEX
  5
10297
  8
0
 10
19.34074102493722
 20
-44.52493531153022
 30
0.0
  0
VERTEX
  5
10298
  8
0
 10
19.43855299985682
 20
-44.56257992723744
 30
0.0
  0
VERTEX
  5
10299
  8
0
 10
19.53317491836989
 20
-44.60629214682477
 30
0.0
  0
VERTEX
  5
1029A
  8
0
 10
19.624367052785
 20
-44.65583237434644
 30
0.0
  0
VERTEX
  5
1029B
  8
0
 10
19.71188967541068
 20
-44.71096101385665
 30
0.0
  0
VERTEX
  5
1029C
  8
0
 10
19.79550305855551
 20
-44.77143846940963
 30
0.0
  0
VERTEX
  5
1029D
  8
0
 10
19.87496747452802
 20
-44.83702514505957
 30
0.0
  0
VERTEX
  5
1029E
  8
0
 10
19.95004319563679
 20
-44.90748144486069
 30
0.0
  0
VERTEX
  5
1029F
  8
0
 10
20.02049049419035
 20
-44.98256777286722
 30
0.0
  0
VERTEX
  5
102A0
  8
0
 10
20.08606964249728
 20
-45.06204453313335
 30
0.0
  0
VERTEX
  5
102A1
  8
0
 10
20.14654091286612
 20
-45.14567212971328
 30
0.0
  0
VERTEX
  5
102A2
  8
0
 10
20.20166457760543
 20
-45.23321096666125
 30
0.0
  0
VERTEX
  5
102A3
  8
0
 10
20.25120090902376
 20
-45.32442144803148
 30
0.0
  0
VERTEX
  5
102A4
  8
0
 10
20.29491017942966
 20
-45.41906397787815
 30
0.0
  0
VERTEX
  5
102A5
  8
0
 10
20.3325526611317
 20
-45.51689896025548
 30
0.0
  0
VERTEX
  5
102A6
  8
0
 10
20.36388862643843
 20
-45.61768679921769
 30
0.0
  0
VERTEX
  5
102A7
  8
0
 10
20.3886783476584
 20
-45.72118789881901
 30
0.0
  0
VERTEX
  5
102A8
  8
0
 10
20.40668209710017
 20
-45.82716266311363
 30
0.0
  0
VERTEX
  5
102A9
  8
0
 10
20.41766014707229
 20
-45.93537149615575
 30
0.0
  0
VERTEX
  5
102AA
  8
0
 10
20.42137276988332
 20
-46.04557480199961
 30
0.0
  0
SEQEND
  5
104B7
  8
0
  0
POLYLINE
  5
138
  8
0
 66
     1
 10
0.0
 20
0.0
 30
0.0
  0
VERTEX
  5
102AB
  8
0
 10
28.4111814254517
 20
-44.72207242199791
 30
0.0
  0
VERTEX
  5
102AC
  8
0
 10
28.40746875666693
 20
-44.83227730089865
 30
0.0
  0
VERTEX
  5
102AD
  8
0
 10
28.39649048368784
 20
-44.94049067333344
 30
0.0
  0
VERTEX
  5
102AE
  8
0
 10
28.37848620657727
 20
-45.04647267368966
 30
0.0
  0
VERTEX
  5
102AF
  8
0
 10
28.35369552539806
 20
-45.1499834363546
 30
0.0
  0
VERTEX
  5
102B0
  8
0
 10
28.32235804021305
 20
-45.25078309571558
 30
0.0
  0
VERTEX
  5
102B1
  8
0
 10
28.28471335108507
 20
-45.34863178615993
 30
0.0
  0
VERTEX
  5
102B2
  8
0
 10
28.24100105807697
 20
-45.44328964207497
 30
0.0
  0
VERTEX
  5
102B3
  8
0
 10
28.19146076125161
 20
-45.53451679784801
 30
0.0
  0
VERTEX
  5
102B4
  8
0
 10
28.13633206067178
 20
-45.62207338786638
 30
0.0
  0
VERTEX
  5
102B5
  8
0
 10
28.07585455640037
 20
-45.70571954651738
 30
0.0
  0
VERTEX
  5
102B6
  8
0
 10
28.01026784850018
 20
-45.78521540818836
 30
0.0
  0
VERTEX
  5
102B7
  8
0
 10
27.93981153703408
 20
-45.86032110726662
 30
0.0
  0
VERTEX
  5
102B8
  8
0
 10
27.86472522206489
 20
-45.9307967781395
 30
0.0
  0
VERTEX
  5
102B9
  8
0
 10
27.78524850365546
 20
-45.99640255519429
 30
0.0
  0
VERTEX
  5
102BA
  8
0
 10
27.70162098186863
 20
-46.05689857281833
 30
0.0
  0
VERTEX
  5
102BB
  8
0
 10
27.61408225676723
 20
-46.11204496539894
 30
0.0
  0
VERTEX
  5
102BC
  8
0
 10
27.5228719284141
 20
-46.16160186732344
 30
0.0
  0
VERTEX
  5
102BD
  8
0
 10
27.42822959687209
 20
-46.20532941297913
 30
0.0
  0
VERTEX
  5
102BE
  8
0
 10
27.33039486220403
 20
-46.24298773675336
 30
0.0
  0
VERTEX
  5
102BF
  8
0
 10
27.22960732447277
 20
-46.27433697303344
 30
0.0
  0
VERTEX
  5
102C0
  8
0
 10
27.12610658374114
 20
-46.29913725620668
 30
0.0
  0
VERTEX
  5
102C1
  8
0
 10
27.02013224007199
 20
-46.31714872066041
 30
0.0
  0
VERTEX
  5
102C2
  8
0
 10
26.91192389352815
 20
-46.32813150078194
 30
0.0
  0
VERTEX
  5
102C3
  8
0
 10
26.80172114417246
 20
-46.33184573095861
 30
0.0
  0
SEQEND
  5
104B8
  8
0
  0
POLYLINE
  5
139
  8
0
 66
     1
 10
0.0
 20
0.0
 30
0.0
  0
VERTEX
  5
102C4
  8
0
 10
26.80172114417246
 20
-46.33184573095861
 30
0.0
  0
VERTEX
  5
102C5
  8
0
 10
26.69151782632054
 20
-46.32813150078194
 30
0.0
  0
VERTEX
  5
102C6
  8
0
 10
26.58330895862656
 20
-46.3171487206604
 30
0.0
  0
VERTEX
  5
102C7
  8
0
 10
26.47733413909484
 20
-46.29913725620668
 30
0.0
  0
VERTEX
  5
102C8
  8
0
 10
26.37383296572968
 20
-46.27433697303344
 30
0.0
  0
VERTEX
  5
102C9
  8
0
 10
26.27304503653541
 20
-46.24298773675336
 30
0.0
  0
VERTEX
  5
102CA
  8
0
 10
26.17520994951634
 20
-46.20532941297913
 30
0.0
  0
VERTEX
  5
102CB
  8
0
 10
26.08056730267678
 20
-46.16160186732343
 30
0.0
  0
VERTEX
  5
102CC
  8
0
 10
25.98935669402104
 20
-46.11204496539894
 30
0.0
  0
VERTEX
  5
102CD
  8
0
 10
25.90181772155345
 20
-46.05689857281833
 30
0.0
  0
VERTEX
  5
102CE
  8
0
 10
25.81818998327831
 20
-45.99640255519429
 30
0.0
  0
VERTEX
  5
102CF
  8
0
 10
25.73871307719993
 20
-45.9307967781395
 30
0.0
  0
VERTEX
  5
102D0
  8
0
 10
25.66362660132264
 20
-45.86032110726662
 30
0.0
  0
VERTEX
  5
102D1
  8
0
 10
25.59317015365074
 20
-45.78521540818836
 30
0.0
  0
VERTEX
  5
102D2
  8
0
 10
25.52758333218854
 20
-45.70571954651739
 30
0.0
  0
VERTEX
  5
102D3
  8
0
 10
25.46710573494037
 20
-45.62207338786638
 30
0.0
  0
VERTEX
  5
102D4
  8
0
 10
25.41197695991053
 20
-45.53451679784801
 30
0.0
  0
VERTEX
  5
102D5
  8
0
 10
25.36243660510334
 20
-45.44328964207497
 30
0.0
  0
VERTEX
  5
102D6
  8
0
 10
25.31872426852312
 20
-45.34863178615993
 30
0.0
  0
VERTEX
  5
102D7
  8
0
 10
25.28107954817417
 20
-45.25078309571558
 30
0.0
  0
VERTEX
  5
102D8
  8
0
 10
25.24974204206081
 20
-45.1499834363546
 30
0.0
  0
VERTEX
  5
102D9
  8
0
 10
25.22495134818736
 20
-45.04647267368966
 30
0.0
  0
VERTEX
  5
102DA
  8
0
 10
25.20694706455812
 20
-44.94049067333344
 30
0.0
  0
VERTEX
  5
102DB
  8
0
 10
25.19596878917741
 20
-44.83227730089864
 30
0.0
  0
VERTEX
  5
102DC
  8
0
 10
25.19225612004955
 20
-44.72207242199791
 30
0.0
  0
SEQEND
  5
104B9
  8
0
  0
POLYLINE
  5
140
  8
0
 66
     1
 10
0.0
 20
0.0
 30
0.0
  0
VERTEX
  5
102DD
  8
0
 10
25.19225612004955
 20
-44.72207242199791
 30
0.0
  0
VERTEX
  5
102DE
  8
0
 10
25.19596878917741
 20
-44.61190662489745
 30
0.0
  0
VERTEX
  5
102DF
  8
0
 10
25.20694706455812
 20
-44.50373215311262
 30
0.0
  0
VERTEX
  5
102E0
  8
0
 10
25.22495134818735
 20
-44.39778874051045
 30
0.0
  0
VERTEX
  5
102E1
  8
0
 10
25.24974204206081
 20
-44.29431612095797
 30
0.0
  0
VERTEX
  5
102E2
  8
0
 10
25.28107954817417
 20
-44.19355402832218
 30
0.0
  0
VERTEX
  5
102E3
  8
0
 10
25.31872426852312
 20
-44.09574219647012
 30
0.0
  0
VERTEX
  5
102E4
  8
0
 10
25.36243660510334
 20
-44.00112035926883
 30
0.0
  0
VERTEX
  5
102E5
  8
0
 10
25.41197695991053
 20
-43.9099282505853
 30
0.0
  0
VERTEX
  5
102E6
  8
0
 10
25.46710573494037
 20
-43.82240560428656
 30
0.0
  0
VERTEX
  5
102E7
  8
0
 10
25.52758333218854
 20
-43.73879215423965
 30
0.0
  0
VERTEX
  5
102E8
  8
0
 10
25.59317015365074
 20
-43.65932763431157
 30
0.0
  0
VERTEX
  5
102E9
  8
0
 10
25.66362660132263
 20
-43.58425177836936
 30
0.0
  0
VERTEX
  5
102EA
  8
0
 10
25.73871307719993
 20
-43.51380432028004
 30
0.0
  0
VERTEX
  5
102EB
  8
0
 10
25.81818998327831
 20
-43.44822499391062
 30
0.0
  0
VERTEX
  5
102EC
  8
0
 10
25.90181772155345
 20
-43.38775353312813
 30
0.0
  0
VERTEX
  5
102ED
  8
0
 10
25.98935669402104
 20
-43.33262967179961
 30
0.0
  0
VERTEX
  5
102EE
  8
0
 10
26.08056730267678
 20
-43.28309314379206
 30
0.0
  0
VERTEX
  5
102EF
  8
0
 10
26.17520994951634
 20
-43.2393836829725
 30
0.0
  0
VERTEX
  5
102F0
  8
0
 10
26.27304503653541
 20
-43.20174102320797
 30
0.0
  0
VERTEX
  5
102F1
  8
0
 10
26.37383296572968
 20
-43.17040489836549
 30
0.0
  0
VERTEX
  5
102F2
  8
0
 10
26.47733413909483
 20
-43.14561504231207
 30
0.0
  0
VERTEX
  5
102F3
  8
0
 10
26.58330895862655
 20
-43.12761118891475
 30
0.0
  0
VERTEX
  5
102F4
  8
0
 10
26.69151782632053
 20
-43.11663307204053
 30
0.0
  0
VERTEX
  5
102F5
  8
0
 10
26.80172114417246
 20
-43.11292042555646
 30
0.0
  0
SEQEND
  5
104BA
  8
0
  0
POLYLINE
  5
141
  8
0
 66
     1
 10
0.0
 20
0.0
 30
0.0
  0
VERTEX
  5
102F6
  8
0
 10
26.80172114417246
 20
-43.11292042555646
 30
0.0
  0
VERTEX
  5
102F7
  8
0
 10
26.91192389352815
 20
-43.11663307204054
 30
0.0
  0
VERTEX
  5
102F8
  8
0
 10
27.02013224007199
 20
-43.12761118891475
 30
0.0
  0
VERTEX
  5
102F9
  8
0
 10
27.12610658374114
 20
-43.14561504231207
 30
0.0
  0
VERTEX
  5
102FA
  8
0
 10
27.22960732447277
 20
-43.1704048983655
 30
0.0
  0
VERTEX
  5
102FB
  8
0
 10
27.33039486220404
 20
-43.20174102320798
 30
0.0
  0
VERTEX
  5
102FC
  8
0
 10
27.42822959687209
 20
-43.2393836829725
 30
0.0
  0
VERTEX
  5
102FD
  8
0
 10
27.5228719284141
 20
-43.28309314379205
 30
0.0
  0
VERTEX
  5
102FE
  8
0
 10
27.61408225676722
 20
-43.33262967179961
 30
0.0
  0
VERTEX
  5
102FF
  8
0
 10
27.70162098186862
 20
-43.38775353312814
 30
0.0
  0
VERTEX
  5
10300
  8
0
 10
27.78524850365546
 20
-43.44822499391062
 30
0.0
  0
VERTEX
  5
10301
  8
0
 10
27.86472522206489
 20
-43.51380432028003
 30
0.0
  0
VERTEX
  5
10302
  8
0
 10
27.93981153703408
 20
-43.58425177836936
 30
0.0
  0
VERTEX
  5
10303
  8
0
 10
28.01026784850018
 20
-43.65932763431157
 30
0.0
  0
VERTEX
  5
10304
  8
0
 10
28.07585455640037
 20
-43.73879215423965
 30
0.0
  0
VERTEX
  5
10305
  8
0
 10
28.13633206067179
 20
-43.82240560428656
 30
0.0
  0
VERTEX
  5
10306
  8
0
 10
28.1914607612516
 20
-43.9099282505853
 30
0.0
  0
VERTEX
  5
10307
  8
0
 10
28.24100105807698
 20
-44.00112035926882
 30
0.0
  0
VERTEX
  5
10308
  8
0
 10
28.28471335108507
 20
-44.09574219647013
 30
0.0
  0
VERTEX
  5
10309
  8
0
 10
28.32235804021304
 20
-44.19355402832218
 30
0.0
  0
VERTEX
  5
1030A
  8
0
 10
28.35369552539805
 20
-44.29431612095796
 30
0.0
  0
VERTEX
  5
1030B
  8
0
 10
28.37848620657726
 20
-44.39778874051045
 30
0.0
  0
VERTEX
  5
1030C
  8
0
 10
28.39649048368783
 20
-44.50373215311262
 30
0.0
  0
VERTEX
  5
1030D
  8
0
 10
28.40746875666693
 20
-44.61190662489744
 30
0.0
  0
VERTEX
  5
1030E
  8
0
 10
28.4111814254517
 20
-44.72207242199791
 30
0.0
  0
SEQEND
  5
104BB
  8
0
  0
POLYLINE
  5
142
  8
0
 66
     1
 10
0.0
 20
0.0
 30
0.0
  0
VERTEX
  5
1030F
  8
0
 10
1.755897323493094
 20
-47.38679170306562
 30
0.0
  0
VERTEX
  5
10310
  8
0
 10
1.853251639388142
 20
-47.38389227208943
 30
0.0
  0
VERTEX
  5
10311
  8
0
 10
1.949071682413144
 20
-47.37530406363624
 30
0.0
  0
VERTEX
  5
10312
  8
0
 10
2.043192873422921
 20
-47.3611922044191
 30
0.0
  0
VERTEX
  5
10313
  8
0
 10
2.135450633272295
 20
-47.34172182115109
 30
0.0
  0
VERTEX
  5
10314
  8
0
 10
2.225680382816085
 20
-47.31705804054528
 30
0.0
  0
VERTEX
  5
10315
  8
0
 10
2.313717542909112
 20
-47.28736598931473
 30
0.0
  0
VERTEX
  5
10316
  8
0
 10
2.399397534406197
 20
-47.25281079417252
 30
0.0
  0
VERTEX
  5
10317
  8
0
 10
2.482555778162159
 20
-47.21355758183171
 30
0.0
  0
VERTEX
  5
10318
  8
0
 10
2.56302769503182
 20
-47.16977147900535
 30
0.0
  0
VERTEX
  5
10319
  8
0
 10
2.64064870587
 20
-47.12161761240653
 30
0.0
  0
VERTEX
  5
1031A
  8
0
 10
2.715254231531519
 20
-47.06926110874831
 30
0.0
  0
VERTEX
  5
1031B
  8
0
 10
2.786679692871197
 20
-47.01286709474375
 30
0.0
  0
VERTEX
  5
1031C
  8
0
 10
2.854760510743855
 20
-46.95260069710593
 30
0.0
  0
VERTEX
  5
1031D
  8
0
 10
2.919332106004314
 20
-46.88862704254792
 30
0.0
  0
VERTEX
  5
1031E
  8
0
 10
2.980229899507395
 20
-46.82111125778277
 30
0.0
  0
VERTEX
  5
1031F
  8
0
 10
3.037289312107916
 20
-46.75021846952355
 30
0.0
  0
VERTEX
  5
10320
  8
0
 10
3.0903457646607
 20
-46.67611380448334
 30
0.0
  0
VERTEX
  5
10321
  8
0
 10
3.139234678020566
 20
-46.5989623893752
 30
0.0
  0
VERTEX
  5
10322
  8
0
 10
3.183791473042335
 20
-46.51892935091219
 30
0.0
  0
VERTEX
  5
10323
  8
0
 10
3.223851570580827
 20
-46.43617981580739
 30
0.0
  0
VERTEX
  5
10324
  8
0
 10
3.259250391490863
 20
-46.35087891077386
 30
0.0
  0
VERTEX
  5
10325
  8
0
 10
3.289823356627263
 20
-46.26319176252467
 30
0.0
  0
VERTEX
  5
10326
  8
0
 10
3.315405886844848
 20
-46.17328349777288
 30
0.0
  0
VERTEX
  5
10327
  8
0
 10
3.335833402998438
 20
-46.08131924323157
 30
0.0
  0
SEQEND
  5
104BC
  8
0
  0
LINE
  5
143
  8
0
 10
3.335833402998438
 20
-46.08131924323157
 30
0.0
 11
0.1759707296750629
 21
-46.08131924323156
 31
0.0
  0
POLYLINE
  5
144
  8
0
 66
     1
 10
0.0
 20
0.0
 30
0.0
  0
VERTEX
  5
10328
  8
0
 10
0.1759707296750629
 20
-46.08131924323156
 30
0.0
  0
VERTEX
  5
10329
  8
0
 10
0.1963940313399742
 20
-46.17328349777288
 30
0.0
  0
VERTEX
  5
1032A
  8
0
 10
0.2219668219853823
 20
-46.26319176252466
 30
0.0
  0
VERTEX
  5
1032B
  8
0
 10
0.2525253211741543
 20
-46.35087891077386
 30
0.0
  0
VERTEX
  5
1032C
  8
0
 10
0.2879057484691572
 20
-46.43617981580739
 30
0.0
  0
VERTEX
  5
1032D
  8
0
 10
0.3279443234332582
 20
-46.51892935091219
 30
0.0
  0
VERTEX
  5
1032E
  8
0
 10
0.3724772656293246
 20
-46.5989623893752
 30
0.0
  0
VERTEX
  5
1032F
  8
0
 10
0.4213407946202233
 20
-46.67611380448334
 30
0.0
  0
VERTEX
  5
10330
  8
0
 10
0.4743711299688214
 20
-46.75021846952354
 30
0.0
  0
VERTEX
  5
10331
  8
0
 10
0.5314044912379863
 20
-46.82111125778276
 30
0.0
  0
VERTEX
  5
10332
  8
0
 10
0.5922770979905849
 20
-46.88862704254792
 30
0.0
  0
VERTEX
  5
10333
  8
0
 10
0.6568251697894844
 20
-46.95260069710594
 30
0.0
  0
VERTEX
  5
10334
  8
0
 10
0.7248849261975516
 20
-47.01286709474375
 30
0.0
  0
VERTEX
  5
10335
  8
0
 10
0.796292586777654
 20
-47.06926110874831
 30
0.0
  0
VERTEX
  5
10336
  8
0
 10
0.8708843710926587
 20
-47.12161761240654
 30
0.0
  0
VERTEX
  5
10337
  8
0
 10
0.9484964987054327
 20
-47.16977147900535
 30
0.0
  0
VERTEX
  5
10338
  8
0
 10
1.028965189178843
 20
-47.21355758183169
 30
0.0
  0
VERTEX
  5
10339
  8
0
 10
1.112126662075757
 20
-47.25281079417252
 30
0.0
  0
VERTEX
  5
1033A
  8
0
 10
1.197817136959042
 20
-47.28736598931474
 30
0.0
  0
VERTEX
  5
1033B
  8
0
 10
1.285872833391564
 20
-47.31705804054528
 30
0.0
  0
VERTEX
  5
1033C
  8
0
 10
1.376129970936192
 20
-47.34172182115108
 30
0.0
  0
VERTEX
  5
1033D
  8
0
 10
1.468424769155791
 20
-47.3611922044191
 30
0.0
  0
VERTEX
  5
1033E
  8
0
 10
1.56259344761323
 20
-47.37530406363624
 30
0.0
  0
VERTEX
  5
1033F
  8
0
 10
1.658472225871375
 20
-47.38389227208943
 30
0.0
  0
VERTEX
  5
10340
  8
0
 10
1.755897323493094
 20
-47.38679170306562
 30
0.0
  0
SEQEND
  5
104BD
  8
0
  0
POLYLINE
  5
145
  8
0
 66
     1
 10
0.0
 20
0.0
 30
0.0
  0
VERTEX
  5
10341
  8
0
 10
1.755897323493094
 20
-44.16786639766349
 30
0.0
  0
VERTEX
  5
10342
  8
0
 10
1.658472225871376
 20
-44.17076582881123
 30
0.0
  0
VERTEX
  5
10343
  8
0
 10
1.562593447613231
 20
-44.17935403846523
 30
0.0
  0
VERTEX
  5
10344
  8
0
 10
1.468424769155792
 20
-44.1934659009417
 30
0.0
  0
VERTEX
  5
10345
  8
0
 10
1.376129970936192
 20
-44.21293629055683
 30
0.0
  0
VERTEX
  5
10346
  8
0
 10
1.285872833391565
 20
-44.2376000816268
 30
0.0
  0
VERTEX
  5
10347
  8
0
 10
1.197817136959042
 20
-44.26729214846784
 30
0.0
  0
VERTEX
  5
10348
  8
0
 10
1.112126662075757
 20
-44.30184736539613
 30
0.0
  0
VERTEX
  5
10349
  8
0
 10
1.028965189178843
 20
-44.34110060672784
 30
0.0
  0
VERTEX
  5
1034A
  8
0
 10
0.9484964987054328
 20
-44.38488674677921
 30
0.0
  0
VERTEX
  5
1034B
  8
0
 10
0.8708843710926587
 20
-44.43304065986641
 30
0.0
  0
VERTEX
  5
1034C
  8
0
 10
0.796292586777654
 20
-44.48539722030564
 30
0.0
  0
VERTEX
  5
1034D
  8
0
 10
0.7248849261975516
 20
-44.54179130241309
 30
0.0
  0
VERTEX
  5
1034E
  8
0
 10
0.6568251697894844
 20
-44.60205778050496
 30
0.0
  0
VERTEX
  5
1034F
  8
0
 10
0.5922770979905849
 20
-44.66603152889746
 30
0.0
  0
VERTEX
  5
10350
  8
0
 10
0.5314044912379865
 20
-44.73354742190676
 30
0.0
  0
VERTEX
  5
10351
  8
0
 10
0.4743711299688218
 20
-44.80444033384907
 30
0.0
  0
VERTEX
  5
10352
  8
0
 10
0.4213407946202236
 20
-44.8785451390406
 30
0.0
  0
VERTEX
  5
10353
  8
0
 10
0.3724772656293249
 20
-44.95569671179751
 30
0.0
  0
VERTEX
  5
10354
  8
0
 10
0.3279443234332585
 20
-45.03572992643602
 30
0.0
  0
VERTEX
  5
10355
  8
0
 10
0.2879057484691575
 20
-45.11847965727233
 30
0.0
  0
VERTEX
  5
10356
  8
0
 10
0.2525253211741545
 20
-45.20378077862262
 30
0.0
  0
VERTEX
  5
10357
  8
0
 10
0.2219668219853825
 20
-45.2914681648031
 30
0.0
  0
VERTEX
  5
10358
  8
0
 10
0.1963940313399744
 20
-45.38137669012995
 30
0.0
  0
VERTEX
  5
10359
  8
0
 10
0.1759707296750629
 20
-45.47334122891939
 30
0.0
  0
SEQEND
  5
104BE
  8
0
  0
LINE
  5
146
  8
0
 10
0.1759707296750629
 20
-45.47334122891939
 30
0.0
 11
3.335833402998438
 21
-45.4733412289194
 31
0.0
  0
POLYLINE
  5
147
  8
0
 66
     1
 10
0.0
 20
0.0
 30
0.0
  0
VERTEX
  5
1035A
  8
0
 10
3.335833402998438
 20
-45.4733412289194
 30
0.0
  0
VERTEX
  5
1035B
  8
0
 10
3.315405886844849
 20
-45.38137669012998
 30
0.0
  0
VERTEX
  5
1035C
  8
0
 10
3.289823356627263
 20
-45.29146816480311
 30
0.0
  0
VERTEX
  5
1035D
  8
0
 10
3.259250391490863
 20
-45.20378077862263
 30
0.0
  0
VERTEX
  5
1035E
  8
0
 10
3.223851570580828
 20
-45.11847965727234
 30
0.0
  0
VERTEX
  5
1035F
  8
0
 10
3.183791473042335
 20
-45.03572992643603
 30
0.0
  0
VERTEX
  5
10360
  8
0
 10
3.139234678020566
 20
-44.95569671179751
 30
0.0
  0
VERTEX
  5
10361
  8
0
 10
3.0903457646607
 20
-44.8785451390406
 30
0.0
  0
VERTEX
  5
10362
  8
0
 10
3.037289312107917
 20
-44.80444033384908
 30
0.0
  0
VERTEX
  5
10363
  8
0
 10
2.980229899507395
 20
-44.73354742190676
 30
0.0
  0
VERTEX
  5
10364
  8
0
 10
2.919332106004315
 20
-44.66603152889746
 30
0.0
  0
VERTEX
  5
10365
  8
0
 10
2.854760510743855
 20
-44.60205778050496
 30
0.0
  0
VERTEX
  5
10366
  8
0
 10
2.786679692871197
 20
-44.54179130241309
 30
0.0
  0
VERTEX
  5
10367
  8
0
 10
2.715254231531519
 20
-44.48539722030564
 30
0.0
  0
VERTEX
  5
10368
  8
0
 10
2.64064870587
 20
-44.43304065986641
 30
0.0
  0
VERTEX
  5
10369
  8
0
 10
2.56302769503182
 20
-44.38488674677922
 30
0.0
  0
VERTEX
  5
1036A
  8
0
 10
2.482555778162159
 20
-44.34110060672785
 30
0.0
  0
VERTEX
  5
1036B
  8
0
 10
2.399397534406198
 20
-44.30184736539613
 30
0.0
  0
VERTEX
  5
1036C
  8
0
 10
2.313717542909113
 20
-44.26729214846785
 30
0.0
  0
VERTEX
  5
1036D
  8
0
 10
2.225680382816086
 20
-44.23760008162681
 30
0.0
  0
VERTEX
  5
1036E
  8
0
 10
2.135450633272296
 20
-44.21293629055683
 30
0.0
  0
VERTEX
  5
1036F
  8
0
 10
2.043192873422922
 20
-44.1934659009417
 30
0.0
  0
VERTEX
  5
10370
  8
0
 10
1.949071682413144
 20
-44.17935403846523
 30
0.0
  0
VERTEX
  5
10371
  8
0
 10
1.853251639388142
 20
-44.17076582881123
 30
0.0
  0
VERTEX
  5
10372
  8
0
 10
1.755897323493094
 20
-44.16786639766349
 30
0.0
  0
SEQEND
  5
104BF
  8
0
  0
POLYLINE
  5
148
  8
0
 66
     1
 10
0.0
 20
0.0
 30
0.0
  0
VERTEX
  5
10373
  8
0
 10
1.755897323493109
 20
-3.39544648933876
 30
0.0
  0
VERTEX
  5
10374
  8
0
 10
1.853251639388156
 20
-3.392547034346433
 30
0.0
  0
VERTEX
  5
10375
  8
0
 10
1.949071682413159
 20
-3.38395875658953
 30
0.0
  0
VERTEX
  5
10376
  8
0
 10
2.043192873422936
 20
-3.369846786898172
 30
0.0
  0
VERTEX
  5
10377
  8
0
 10
2.13545063327231
 20
-3.350376256102478
 30
0.0
  0
VERTEX
  5
10378
  8
0
 10
2.2256803828161
 20
-3.325712295032564
 30
0.0
  0
VERTEX
  5
10379
  8
0
 10
2.313717542909127
 20
-3.296020034518552
 30
0.0
  0
VERTEX
  5
1037A
  8
0
 10
2.399397534406212
 20
-3.261464605390559
 30
0.0
  0
VERTEX
  5
1037B
  8
0
 10
2.482555778162174
 20
-3.222211138478706
 30
0.0
  0
VERTEX
  5
1037C
  8
0
 10
2.563027695031835
 20
-3.178424764613109
 30
0.0
  0
VERTEX
  5
1037D
  8
0
 10
2.640648705870015
 20
-3.130270614623891
 30
0.0
  0
VERTEX
  5
1037E
  8
0
 10
2.715254231531533
 20
-3.077913819341167
 30
0.0
  0
VERTEX
  5
1037F
  8
0
 10
2.786679692871212
 20
-3.021519509595059
 30
0.0
  0
VERTEX
  5
10380
  8
0
 10
2.85476051074387
 20
-2.961252816215686
 30
0.0
  0
VERTEX
  5
10381
  8
0
 10
2.91933210600433
 20
-2.897278870033164
 30
0.0
  0
VERTEX
  5
10382
  8
0
 10
2.980229899507409
 20
-2.829762801877615
 30
0.0
  0
VERTEX
  5
10383
  8
0
 10
3.037289312107931
 20
-2.758869742579155
 30
0.0
  0
VERTEX
  5
10384
  8
0
 10
3.090345764660715
 20
-2.684764822967907
 30
0.0
  0
VERTEX
  5
10385
  8
0
 10
3.139234678020581
 20
-2.607613173873986
 30
0.0
  0
VERTEX
  5
10386
  8
0
 10
3.18379147304235
 20
-2.527579926127514
 30
0.0
  0
VERTEX
  5
10387
  8
0
 10
3.223851570580842
 20
-2.444830210558608
 30
0.0
  0
VERTEX
  5
10388
  8
0
 10
3.259250391490878
 20
-2.359529157997388
 30
0.0
  0
VERTEX
  5
10389
  8
0
 10
3.289823356627278
 20
-2.271841899273973
 30
0.0
  0
VERTEX
  5
1038A
  8
0
 10
3.315405886844863
 20
-2.181933565218482
 30
0.0
  0
VERTEX
  5
1038B
  8
0
 10
3.335833402998453
 20
-2.089969286661032
 30
0.0
  0
SEQEND
  5
104C0
  8
0
  0
LINE
  5
149
  8
0
 10
3.335833402998454
 20
-2.089969286661032
 30
0.0
 11
0.1759707296750779
 21
-2.089969286661032
 31
0.0
  0
POLYLINE
  5
150
  8
0
 66
     1
 10
0.0
 20
0.0
 30
0.0
  0
VERTEX
  5
1038C
  8
0
 10
0.1759707296750779
 20
-2.089969286661032
 30
0.0
  0
VERTEX
  5
1038D
  8
0
 10
0.1963940313399893
 20
-2.181933565218481
 30
0.0
  0
VERTEX
  5
1038E
  8
0
 10
0.2219668219853974
 20
-2.271841899273972
 30
0.0
  0
VERTEX
  5
1038F
  8
0
 10
0.2525253211741693
 20
-2.359529157997388
 30
0.0
  0
VERTEX
  5
10390
  8
0
 10
0.2879057484691722
 20
-2.444830210558608
 30
0.0
  0
VERTEX
  5
10391
  8
0
 10
0.3279443234332733
 20
-2.527579926127513
 30
0.0
  0
VERTEX
  5
10392
  8
0
 10
0.3724772656293397
 20
-2.607613173873986
 30
0.0
  0
VERTEX
  5
10393
  8
0
 10
0.4213407946202383
 20
-2.684764822967906
 30
0.0
  0
VERTEX
  5
10394
  8
0
 10
0.4743711299688365
 20
-2.758869742579155
 30
0.0
  0
VERTEX
  5
10395
  8
0
 10
0.5314044912380014
 20
-2.829762801877614
 30
0.0
  0
VERTEX
  5
10396
  8
0
 10
0.5922770979906
 20
-2.897278870033164
 30
0.0
  0
VERTEX
  5
10397
  8
0
 10
0.6568251697894993
 20
-2.961252816215685
 30
0.0
  0
VERTEX
  5
10398
  8
0
 10
0.7248849261975667
 20
-3.021519509595059
 30
0.0
  0
VERTEX
  5
10399
  8
0
 10
0.7962925867776691
 20
-3.077913819341168
 30
0.0
  0
VERTEX
  5
1039A
  8
0
 10
0.8708843710926738
 20
-3.130270614623891
 30
0.0
  0
VERTEX
  5
1039B
  8
0
 10
0.9484964987054477
 20
-3.178424764613109
 30
0.0
  0
VERTEX
  5
1039C
  8
0
 10
1.028965189178858
 20
-3.222211138478705
 30
0.0
  0
VERTEX
  5
1039D
  8
0
 10
1.112126662075772
 20
-3.261464605390559
 30
0.0
  0
VERTEX
  5
1039E
  8
0
 10
1.197817136959057
 20
-3.296020034518551
 30
0.0
  0
VERTEX
  5
1039F
  8
0
 10
1.285872833391579
 20
-3.325712295032563
 30
0.0
  0
VERTEX
  5
103A0
  8
0
 10
1.376129970936207
 20
-3.350376256102477
 30
0.0
  0
VERTEX
  5
103A1
  8
0
 10
1.468424769155806
 20
-3.369846786898172
 30
0.0
  0
VERTEX
  5
103A2
  8
0
 10
1.562593447613245
 20
-3.38395875658953
 30
0.0
  0
VERTEX
  5
103A3
  8
0
 10
1.65847222587139
 20
-3.392547034346432
 30
0.0
  0
VERTEX
  5
103A4
  8
0
 10
1.755897323493109
 20
-3.39544648933876
 30
0.0
  0
SEQEND
  5
104C1
  8
0
  0
POLYLINE
  5
151
  8
0
 66
     1
 10
0.0
 20
0.0
 30
0.0
  0
VERTEX
  5
103A5
  8
0
 10
1.755897323493109
 20
-0.1765259267802781
 30
0.0
  0
VERTEX
  5
103A6
  8
0
 10
1.658472225871391
 20
-0.1794253337403344
 30
0.0
  0
VERTEX
  5
103A7
  8
0
 10
1.562593447613246
 20
-0.1880134728898263
 30
0.0
  0
VERTEX
  5
103A8
  8
0
 10
1.468424769155807
 20
-0.2021252216327384
 30
0.0
  0
VERTEX
  5
103A9
  8
0
 10
1.376129970936208
 20
-0.2215954573730553
 30
0.0
  0
VERTEX
  5
103AA
  8
0
 10
1.28587283339158
 20
-0.2462590575147617
 30
0.0
  0
VERTEX
  5
103AB
  8
0
 10
1.197817136959057
 20
-0.2759508994618421
 30
0.0
  0
VERTEX
  5
103AC
  8
0
 10
1.112126662075773
 20
-0.3105058606182812
 30
0.0
  0
VERTEX
  5
103AD
  8
0
 10
1.028965189178859
 20
-0.3497588183880634
 30
0.0
  0
VERTEX
  5
103AE
  8
0
 10
0.9484964987054479
 20
-0.3935446501751735
 30
0.0
  0
VERTEX
  5
103AF
  8
0
 10
0.8708843710926738
 20
-0.4416982333835962
 30
0.0
  0
VERTEX
  5
103B0
  8
0
 10
0.7962925867776691
 20
-0.4940544454173157
 30
0.0
  0
VERTEX
  5
103B1
  8
0
 10
0.7248849261975667
 20
-0.5504481636803169
 30
0.0
  0
VERTEX
  5
103B2
  8
0
 10
0.6568251697894993
 20
-0.6107142655765843
 30
0.0
  0
VERTEX
  5
103B3
  8
0
 10
0.5922770979906
 20
-0.6746876285101024
 30
0.0
  0
VERTEX
  5
103B4
  8
0
 10
0.5314044912380016
 20
-0.7422031298848563
 30
0.0
  0
VERTEX
  5
103B5
  8
0
 10
0.4743711299688368
 20
-0.8130956471048298
 30
0.0
  0
VERTEX
  5
103B6
  8
0
 10
0.4213407946202386
 20
-0.8872000575740082
 30
0.0
  0
VERTEX
  5
103B7
  8
0
 10
0.37247726562934
 20
-0.9643512386963757
 30
0.0
  0
VERTEX
  5
103B8
  8
0
 10
0.3279443234332736
 20
-1.044384067875917
 30
0.0
  0
VERTEX
  5
103B9
  8
0
 10
0.2879057484691725
 20
-1.127133422516617
 30
0.0
  0
VERTEX
  5
103BA
  8
0
 10
0.2525253211741695
 20
-1.21243418002246
 30
0.0
  0
VERTEX
  5
103BB
  8
0
 10
0.2219668219853976
 20
-1.300121217797431
 30
0.0
  0
VERTEX
  5
103BC
  8
0
 10
0.1963940313399894
 20
-1.390029413245514
 30
0.0
  0
VERTEX
  5
103BD
  8
0
 10
0.1759707296750779
 20
-1.481993643770694
 30
0.0
  0
SEQEND
  5
104C2
  8
0
  0
LINE
  5
152
  8
0
 10
0.175970729675078
 20
-1.481993643770695
 30
0.0
 11
3.335833402998453
 21
-1.481993643770694
 31
0.0
  0
POLYLINE
  5
153
  8
0
 66
     1
 10
0.0
 20
0.0
 30
0.0
  0
VERTEX
  5
103BE
  8
0
 10
3.335833402998453
 20
-1.481993643770694
 30
0.0
  0
VERTEX
  5
103BF
  8
0
 10
3.315405886844863
 20
-1.390029413245515
 30
0.0
  0
VERTEX
  5
103C0
  8
0
 10
3.289823356627279
 20
-1.300121217797432
 30
0.0
  0
VERTEX
  5
103C1
  8
0
 10
3.259250391490879
 20
-1.212434180022461
 30
0.0
  0
VERTEX
  5
103C2
  8
0
 10
3.223851570580842
 20
-1.127133422516618
 30
0.0
  0
VERTEX
  5
103C3
  8
0
 10
3.18379147304235
 20
-1.044384067875918
 30
0.0
  0
VERTEX
  5
103C4
  8
0
 10
3.139234678020582
 20
-0.9643512386963763
 30
0.0
  0
VERTEX
  5
103C5
  8
0
 10
3.090345764660715
 20
-0.8872000575740088
 30
0.0
  0
VERTEX
  5
103C6
  8
0
 10
3.037289312107931
 20
-0.8130956471048302
 30
0.0
  0
VERTEX
  5
103C7
  8
0
 10
2.980229899507409
 20
-0.7422031298848564
 30
0.0
  0
VERTEX
  5
103C8
  8
0
 10
2.91933210600433
 20
-0.6746876285101026
 30
0.0
  0
VERTEX
  5
103C9
  8
0
 10
2.85476051074387
 20
-0.6107142655765844
 30
0.0
  0
VERTEX
  5
103CA
  8
0
 10
2.786679692871212
 20
-0.5504481636803169
 30
0.0
  0
VERTEX
  5
103CB
  8
0
 10
2.715254231531533
 20
-0.4940544454173157
 30
0.0
  0
VERTEX
  5
103CC
  8
0
 10
2.640648705870015
 20
-0.4416982333835962
 30
0.0
  0
VERTEX
  5
103CD
  8
0
 10
2.563027695031835
 20
-0.3935446501751737
 30
0.0
  0
VERTEX
  5
103CE
  8
0
 10
2.482555778162175
 20
-0.3497588183880637
 30
0.0
  0
VERTEX
  5
103CF
  8
0
 10
2.399397534406213
 20
-0.3105058606182813
 30
0.0
  0
VERTEX
  5
103D0
  8
0
 10
2.313717542909128
 20
-0.2759508994618423
 30
0.0
  0
VERTEX
  5
103D1
  8
0
 10
2.225680382816101
 20
-0.2462590575147619
 30
0.0
  0
VERTEX
  5
103D2
  8
0
 10
2.135450633272311
 20
-0.2215954573730555
 30
0.0
  0
VERTEX
  5
103D3
  8
0
 10
2.043192873422937
 20
-0.2021252216327385
 30
0.0
  0
VERTEX
  5
103D4
  8
0
 10
1.94907168241316
 20
-0.1880134728898264
 30
0.0
  0
VERTEX
  5
103D5
  8
0
 10
1.853251639388157
 20
-0.1794253337403344
 30
0.0
  0
VERTEX
  5
103D6
  8
0
 10
1.755897323493109
 20
-0.1765259267802781
 30
0.0
  0
SEQEND
  5
104C3
  8
0
  0
POLYLINE
  5
154
  8
0
 66
     1
 10
0.0
 20
0.0
 30
0.0
  0
VERTEX
  5
103D7
  8
0
 10
74.21900018904033
 20
-47.38679170306564
 30
0.0
  0
VERTEX
  5
103D8
  8
0
 10
74.31642515105665
 20
-47.38389227208945
 30
0.0
  0
VERTEX
  5
103D9
  8
0
 10
74.41230381995561
 20
-47.37530406363626
 30
0.0
  0
VERTEX
  5
103DA
  8
0
 10
74.50647241684395
 20
-47.36119220441912
 30
0.0
  0
VERTEX
  5
103DB
  8
0
 10
74.59876716282845
 20
-47.34172182115111
 30
0.0
  0
VERTEX
  5
103DC
  8
0
 10
74.6890242790159
 20
-47.31705804054531
 30
0.0
  0
VERTEX
  5
103DD
  8
0
 10
74.77707998651297
 20
-47.28736598931475
 30
0.0
  0
VERTEX
  5
103DE
  8
0
 10
74.86277050642651
 20
-47.25281079417254
 30
0.0
  0
VERTEX
  5
103DF
  8
0
 10
74.94593205986327
 20
-47.21355758183172
 30
0.0
  0
VERTEX
  5
103E0
  8
0
 10
75.02640086792996
 20
-47.16977147900537
 30
0.0
  0
VERTEX
  5
103E1
  8
0
 10
75.10401315173338
 20
-47.12161761240655
 30
0.0
  0
VERTEX
  5
103E2
  8
0
 10
75.17860513238028
 20
-47.06926110874832
 30
0.0
  0
VERTEX
  5
103E3
  8
0
 10
75.25001303097744
 20
-47.01286709474377
 30
0.0
  0
VERTEX
  5
103E4
  8
0
 10
75.31807306863162
 20
-46.95260069710594
 30
0.0
  0
VERTEX
  5
103E5
  8
0
 10
75.38262146644956
 20
-46.88862704254793
 30
0.0
  0
VERTEX
  5
103E6
  8
0
 10
75.44349444553804
 20
-46.82111125778278
 30
0.0
  0
VERTEX
  5
103E7
  8
0
 10
75.50052822700378
 20
-46.75021846952356
 30
0.0
  0
VERTEX
  5
103E8
  8
0
 10
75.55355903195361
 20
-46.67611380448335
 30
0.0
  0
VERTEX
  5
103E9
  8
0
 10
75.60242308149424
 20
-46.5989623893752
 30
0.0
  0
VERTEX
  5
103EA
  8
0
 10
75.64695659673245
 20
-46.51892935091219
 30
0.0
  0
VERTEX
  5
103EB
  8
0
 10
75.686995798775
 20
-46.43617981580739
 30
0.0
  0
VERTEX
  5
103EC
  8
0
 10
75.72237690872866
 20
-46.35087891077387
 30
0.0
  0
VERTEX
  5
103ED
  8
0
 10
75.75293614770017
 20
-46.26319176252467
 30
0.0
  0
VERTEX
  5
103EE
  8
0
 10
75.77850973679631
 20
-46.17328349777288
 30
0.0
  0
VERTEX
  5
103EF
  8
0
 10
75.79893389712383
 20
-46.08131924323157
 30
0.0
  0
SEQEND
  5
104C4
  8
0
  0
LINE
  5
155
  8
0
 10
75.79893389712383
 20
-46.08131924323157
 30
0.0
 11
72.63906648095681
 21
-46.08131924323157
 31
0.0
  0
POLYLINE
  5
156
  8
0
 66
     1
 10
0.0
 20
0.0
 30
0.0
  0
VERTEX
  5
103F0
  8
0
 10
72.63906648095681
 20
-46.08131924323157
 30
0.0
  0
VERTEX
  5
103F1
  8
0
 10
72.65949218595071
 20
-46.17328349777289
 30
0.0
  0
VERTEX
  5
103F2
  8
0
 10
72.68507014040831
 20
-46.26319176252468
 30
0.0
  0
VERTEX
  5
103F3
  8
0
 10
72.71563616247997
 20
-46.35087891077387
 30
0.0
  0
VERTEX
  5
103F4
  8
0
 10
72.75102607031596
 20
-46.4361798158074
 30
0.0
  0
VERTEX
  5
103F5
  8
0
 10
72.79107568206666
 20
-46.5189293509122
 30
0.0
  0
VERTEX
  5
103F6
  8
0
 10
72.83562081588232
 20
-46.5989623893752
 30
0.0
  0
VERTEX
  5
103F7
  8
0
 10
72.88449728991328
 20
-46.67611380448335
 30
0.0
  0
VERTEX
  5
103F8
  8
0
 10
72.9375409223099
 20
-46.75021846952356
 30
0.0
  0
VERTEX
  5
103F9
  8
0
 10
72.99458753122245
 20
-46.82111125778277
 30
0.0
  0
VERTEX
  5
103FA
  8
0
 10
73.05547293480127
 20
-46.88862704254793
 30
0.0
  0
VERTEX
  5
103FB
  8
0
 10
73.12003295119666
 20
-46.95260069710594
 30
0.0
  0
VERTEX
  5
103FC
  8
0
 10
73.18810339855895
 20
-47.01286709474377
 30
0.0
  0
VERTEX
  5
103FD
  8
0
 10
73.25952009503847
 20
-47.06926110874832
 30
0.0
  0
VERTEX
  5
103FE
  8
0
 10
73.33411885878552
 20
-47.12161761240655
 30
0.0
  0
VERTEX
  5
103FF
  8
0
 10
73.41173550795043
 20
-47.16977147900537
 30
0.0
  0
VERTEX
  5
10400
  8
0
 10
73.49220586068348
 20
-47.21355758183172
 30
0.0
  0
VERTEX
  5
10401
  8
0
 10
73.57536573513505
 20
-47.25281079417254
 30
0.0
  0
VERTEX
  5
10402
  8
0
 10
73.66105094945542
 20
-47.28736598931475
 30
0.0
  0
VERTEX
  5
10403
  8
0
 10
73.74909732179489
 20
-47.3170580405453
 30
0.0
  0
VERTEX
  5
10404
  8
0
 10
73.83934067030383
 20
-47.34172182115111
 30
0.0
  0
VERTEX
  5
10405
  8
0
 10
73.93161681313252
 20
-47.36119220441912
 30
0.0
  0
VERTEX
  5
10406
  8
0
 10
74.02576156843129
 20
-47.37530406363625
 30
0.0
  0
VERTEX
  5
10407
  8
0
 10
74.12161075435044
 20
-47.38389227208945
 30
0.0
  0
VERTEX
  5
10408
  8
0
 10
74.21900018904033
 20
-47.38679170306564
 30
0.0
  0
SEQEND
  5
104C5
  8
0
  0
POLYLINE
  5
157
  8
0
 66
     1
 10
0.0
 20
0.0
 30
0.0
  0
VERTEX
  5
10409
  8
0
 10
74.21900018904033
 20
-44.1678663976635
 30
0.0
  0
VERTEX
  5
1040A
  8
0
 10
74.12161075435046
 20
-44.17076582881125
 30
0.0
  0
VERTEX
  5
1040B
  8
0
 10
74.02576156843128
 20
-44.17935403846524
 30
0.0
  0
VERTEX
  5
1040C
  8
0
 10
73.93161681313252
 20
-44.19346590094171
 30
0.0
  0
VERTEX
  5
1040D
  8
0
 10
73.83934067030383
 20
-44.21293629055684
 30
0.0
  0
VERTEX
  5
1040E
  8
0
 10
73.7490973217949
 20
-44.23760008162682
 30
0.0
  0
VERTEX
  5
1040F
  8
0
 10
73.66105094945542
 20
-44.26729214846785
 30
0.0
  0
VERTEX
  5
10410
  8
0
 10
73.57536573513505
 20
-44.30184736539614
 30
0.0
  0
VERTEX
  5
10411
  8
0
 10
73.4922058606835
 20
-44.34110060672786
 30
0.0
  0
VERTEX
  5
10412
  8
0
 10
73.41173550795043
 20
-44.38488674677922
 30
0.0
  0
VERTEX
  5
10413
  8
0
 10
73.33411885878552
 20
-44.43304065986642
 30
0.0
  0
VERTEX
  5
10414
  8
0
 10
73.25952009503848
 20
-44.48539722030565
 30
0.0
  0
VERTEX
  5
10415
  8
0
 10
73.18810339855895
 20
-44.5417913024131
 30
0.0
  0
VERTEX
  5
10416
  8
0
 10
73.12003295119666
 20
-44.60205778050498
 30
0.0
  0
VERTEX
  5
10417
  8
0
 10
73.05547293480126
 20
-44.66603152889748
 30
0.0
  0
VERTEX
  5
10418
  8
0
 10
72.99458753122245
 20
-44.73354742190678
 30
0.0
  0
VERTEX
  5
10419
  8
0
 10
72.93754092230989
 20
-44.80444033384909
 30
0.0
  0
VERTEX
  5
1041A
  8
0
 10
72.8844972899133
 20
-44.87854513904061
 30
0.0
  0
VERTEX
  5
1041B
  8
0
 10
72.83562081588232
 20
-44.95569671179752
 30
0.0
  0
VERTEX
  5
1041C
  8
0
 10
72.79107568206663
 20
-45.03572992643603
 30
0.0
  0
VERTEX
  5
1041D
  8
0
 10
72.75102607031596
 20
-45.11847965727235
 30
0.0
  0
VERTEX
  5
1041E
  8
0
 10
72.71563616247997
 20
-45.20378077862264
 30
0.0
  0
VERTEX
  5
1041F
  8
0
 10
72.68507014040833
 20
-45.29146816480312
 30
0.0
  0
VERTEX
  5
10420
  8
0
 10
72.65949218595071
 20
-45.38137669012997
 30
0.0
  0
VERTEX
  5
10421
  8
0
 10
72.63906648095681
 20
-45.4733412289194
 30
0.0
  0
SEQEND
  5
104C6
  8
0
  0
LINE
  5
158
  8
0
 10
72.63906648095683
 20
-45.4733412289194
 30
0.0
 11
75.79893389712383
 21
-45.4733412289194
 31
0.0
  0
POLYLINE
  5
159
  8
0
 66
     1
 10
0.0
 20
0.0
 30
0.0
  0
VERTEX
  5
10422
  8
0
 10
75.79893389712383
 20
-45.4733412289194
 30
0.0
  0
VERTEX
  5
10423
  8
0
 10
75.77850973679631
 20
-45.38137669012998
 30
0.0
  0
VERTEX
  5
10424
  8
0
 10
75.75293614770017
 20
-45.29146816480311
 30
0.0
  0
VERTEX
  5
10425
  8
0
 10
75.72237690872866
 20
-45.20378077862264
 30
0.0
  0
VERTEX
  5
10426
  8
0
 10
75.686995798775
 20
-45.11847965727235
 30
0.0
  0
VERTEX
  5
10427
  8
0
 10
75.64695659673248
 20
-45.03572992643604
 30
0.0
  0
VERTEX
  5
10428
  8
0
 10
75.60242308149425
 20
-44.95569671179753
 30
0.0
  0
VERTEX
  5
10429
  8
0
 10
75.55355903195361
 20
-44.8785451390406
 30
0.0
  0
VERTEX
  5
1042A
  8
0
 10
75.50052822700378
 20
-44.80444033384909
 30
0.0
  0
VERTEX
  5
1042B
  8
0
 10
75.44349444553804
 20
-44.73354742190677
 30
0.0
  0
VERTEX
  5
1042C
  8
0
 10
75.38262146644956
 20
-44.66603152889747
 30
0.0
  0
VERTEX
  5
1042D
  8
0
 10
75.31807306863162
 20
-44.60205778050498
 30
0.0
  0
VERTEX
  5
1042E
  8
0
 10
75.25001303097746
 20
-44.5417913024131
 30
0.0
  0
VERTEX
  5
1042F
  8
0
 10
75.1786051323803
 20
-44.48539722030565
 30
0.0
  0
VERTEX
  5
10430
  8
0
 10
75.10401315173338
 20
-44.43304065986643
 30
0.0
  0
VERTEX
  5
10431
  8
0
 10
75.02640086792996
 20
-44.38488674677923
 30
0.0
  0
VERTEX
  5
10432
  8
0
 10
74.94593205986325
 20
-44.34110060672786
 30
0.0
  0
VERTEX
  5
10433
  8
0
 10
74.86277050642651
 20
-44.30184736539614
 30
0.0
  0
VERTEX
  5
10434
  8
0
 10
74.77707998651297
 20
-44.26729214846786
 30
0.0
  0
VERTEX
  5
10435
  8
0
 10
74.68902427901588
 20
-44.23760008162682
 30
0.0
  0
VERTEX
  5
10436
  8
0
 10
74.59876716282847
 20
-44.21293629055683
 30
0.0
  0
VERTEX
  5
10437
  8
0
 10
74.50647241684396
 20
-44.19346590094171
 30
0.0
  0
VERTEX
  5
10438
  8
0
 10
74.41230381995561
 20
-44.17935403846525
 30
0.0
  0
VERTEX
  5
10439
  8
0
 10
74.31642515105665
 20
-44.17076582881124
 30
0.0
  0
VERTEX
  5
1043A
  8
0
 10
74.21900018904033
 20
-44.1678663976635
 30
0.0
  0
SEQEND
  5
104C7
  8
0
  0
POLYLINE
  5
160
  8
0
 66
     1
 10
0.0
 20
0.0
 30
0.0
  0
VERTEX
  5
1043B
  8
0
 10
74.21900018904033
 20
-3.395446489338775
 30
0.0
  0
VERTEX
  5
1043C
  8
0
 10
74.31642515105665
 20
-3.392547034346448
 30
0.0
  0
VERTEX
  5
1043D
  8
0
 10
74.41230381995561
 20
-3.383958756589545
 30
0.0
  0
VERTEX
  5
1043E
  8
0
 10
74.50647241684396
 20
-3.369846786898187
 30
0.0
  0
VERTEX
  5
1043F
  8
0
 10
74.59876716282848
 20
-3.350376256102492
 30
0.0
  0
VERTEX
  5
10440
  8
0
 10
74.6890242790159
 20
-3.325712295032579
 30
0.0
  0
VERTEX
  5
10441
  8
0
 10
74.77707998651299
 20
-3.296020034518566
 30
0.0
  0
VERTEX
  5
10442
  8
0
 10
74.86277050642653
 20
-3.261464605390573
 30
0.0
  0
VERTEX
  5
10443
  8
0
 10
74.94593205986328
 20
-3.22221113847872
 30
0.0
  0
VERTEX
  5
10444
  8
0
 10
75.02640086792998
 20
-3.178424764613125
 30
0.0
  0
VERTEX
  5
10445
  8
0
 10
75.1040131517334
 20
-3.130270614623905
 30
0.0
  0
VERTEX
  5
10446
  8
0
 10
75.17860513238031
 20
-3.077913819341182
 30
0.0
  0
VERTEX
  5
10447
  8
0
 10
75.25001303097747
 20
-3.021519509595074
 30
0.0
  0
VERTEX
  5
10448
  8
0
 10
75.31807306863163
 20
-2.961252816215699
 30
0.0
  0
VERTEX
  5
10449
  8
0
 10
75.38262146644958
 20
-2.897278870033178
 30
0.0
  0
VERTEX
  5
1044A
  8
0
 10
75.44349444553805
 20
-2.829762801877629
 30
0.0
  0
VERTEX
  5
1044B
  8
0
 10
75.50052822700381
 20
-2.75886974257917
 30
0.0
  0
VERTEX
  5
1044C
  8
0
 10
75.55355903195363
 20
-2.684764822967922
 30
0.0
  0
VERTEX
  5
1044D
  8
0
 10
75.60242308149427
 20
-2.607613173874001
 30
0.0
  0
VERTEX
  5
1044E
  8
0
 10
75.64695659673248
 20
-2.527579926127529
 30
0.0
  0
VERTEX
  5
1044F
  8
0
 10
75.68699579877502
 20
-2.444830210558623
 30
0.0
  0
VERTEX
  5
10450
  8
0
 10
75.72237690872868
 20
-2.359529157997403
 30
0.0
  0
VERTEX
  5
10451
  8
0
 10
75.75293614770018
 20
-2.271841899273988
 30
0.0
  0
VERTEX
  5
10452
  8
0
 10
75.77850973679632
 20
-2.181933565218496
 30
0.0
  0
VERTEX
  5
10453
  8
0
 10
75.79893389712385
 20
-2.089969286661047
 30
0.0
  0
SEQEND
  5
104C8
  8
0
  0
LINE
  5
161
  8
0
 10
75.79893389712385
 20
-2.089969286661047
 30
0.0
 11
72.63906648095681
 21
-2.089969286661047
 31
0.0
  0
POLYLINE
  5
162
  8
0
 66
     1
 10
0.0
 20
0.0
 30
0.0
  0
VERTEX
  5
10454
  8
0
 10
72.63906648095681
 20
-2.089969286661047
 30
0.0
  0
VERTEX
  5
10455
  8
0
 10
72.65949218595071
 20
-2.181933565218496
 30
0.0
  0
VERTEX
  5
10456
  8
0
 10
72.68507014040831
 20
-2.271841899273987
 30
0.0
  0
VERTEX
  5
10457
  8
0
 10
72.71563616247997
 20
-2.359529157997402
 30
0.0
  0
VERTEX
  5
10458
  8
0
 10
72.75102607031596
 20
-2.444830210558623
 30
0.0
  0
VERTEX
  5
10459
  8
0
 10
72.79107568206666
 20
-2.527579926127529
 30
0.0
  0
VERTEX
  5
1045A
  8
0
 10
72.83562081588232
 20
-2.607613173874001
 30
0.0
  0
VERTEX
  5
1045B
  8
0
 10
72.88449728991328
 20
-2.684764822967921
 30
0.0
  0
VERTEX
  5
1045C
  8
0
 10
72.9375409223099
 20
-2.75886974257917
 30
0.0
  0
VERTEX
  5
1045D
  8
0
 10
72.99458753122245
 20
-2.829762801877629
 30
0.0
  0
VERTEX
  5
1045E
  8
0
 10
73.05547293480127
 20
-2.897278870033179
 30
0.0
  0
VERTEX
  5
1045F
  8
0
 10
73.12003295119666
 20
-2.9612528162157
 30
0.0
  0
VERTEX
  5
10460
  8
0
 10
73.18810339855895
 20
-3.021519509595074
 30
0.0
  0
VERTEX
  5
10461
  8
0
 10
73.25952009503847
 20
-3.077913819341183
 30
0.0
  0
VERTEX
  5
10462
  8
0
 10
73.33411885878552
 20
-3.130270614623905
 30
0.0
  0
VERTEX
  5
10463
  8
0
 10
73.41173550795043
 20
-3.178424764613125
 30
0.0
  0
VERTEX
  5
10464
  8
0
 10
73.49220586068348
 20
-3.22221113847872
 30
0.0
  0
VERTEX
  5
10465
  8
0
 10
73.57536573513505
 20
-3.261464605390573
 30
0.0
  0
VERTEX
  5
10466
  8
0
 10
73.66105094945542
 20
-3.296020034518566
 30
0.0
  0
VERTEX
  5
10467
  8
0
 10
73.74909732179489
 20
-3.325712295032578
 30
0.0
  0
VERTEX
  5
10468
  8
0
 10
73.83934067030383
 20
-3.350376256102491
 30
0.0
  0
VERTEX
  5
10469
  8
0
 10
73.93161681313252
 20
-3.369846786898187
 30
0.0
  0
VERTEX
  5
1046A
  8
0
 10
74.02576156843129
 20
-3.383958756589545
 30
0.0
  0
VERTEX
  5
1046B
  8
0
 10
74.12161075435044
 20
-3.392547034346447
 30
0.0
  0
VERTEX
  5
1046C
  8
0
 10
74.21900018904033
 20
-3.395446489338775
 30
0.0
  0
SEQEND
  5
104C9
  8
0
  0
POLYLINE
  5
163
  8
0
 66
     1
 10
0.0
 20
0.0
 30
0.0
  0
VERTEX
  5
1046D
  8
0
 10
74.21900018904033
 20
-0.1765259267802931
 30
0.0
  0
VERTEX
  5
1046E
  8
0
 10
74.12161075435046
 20
-0.1794253337403494
 30
0.0
  0
VERTEX
  5
1046F
  8
0
 10
74.02576156843128
 20
-0.1880134728898413
 30
0.0
  0
VERTEX
  5
10470
  8
0
 10
73.93161681313252
 20
-0.2021252216327534
 30
0.0
  0
VERTEX
  5
10471
  8
0
 10
73.83934067030383
 20
-0.2215954573730703
 30
0.0
  0
VERTEX
  5
10472
  8
0
 10
73.7490973217949
 20
-0.2462590575147767
 30
0.0
  0
VERTEX
  5
10473
  8
0
 10
73.66105094945542
 20
-0.2759508994618572
 30
0.0
  0
VERTEX
  5
10474
  8
0
 10
73.57536573513505
 20
-0.3105058606182961
 30
0.0
  0
VERTEX
  5
10475
  8
0
 10
73.4922058606835
 20
-0.3497588183880784
 30
0.0
  0
VERTEX
  5
10476
  8
0
 10
73.41173550795043
 20
-0.3935446501751886
 30
0.0
  0
VERTEX
  5
10477
  8
0
 10
73.33411885878552
 20
-0.4416982333836112
 30
0.0
  0
VERTEX
  5
10478
  8
0
 10
73.25952009503848
 20
-0.4940544454173307
 30
0.0
  0
VERTEX
  5
10479
  8
0
 10
73.18810339855895
 20
-0.5504481636803319
 30
0.0
  0
VERTEX
  5
1047A
  8
0
 10
73.12003295119666
 20
-0.6107142655765994
 30
0.0
  0
VERTEX
  5
1047B
  8
0
 10
73.05547293480126
 20
-0.6746876285101175
 30
0.0
  0
VERTEX
  5
1047C
  8
0
 10
72.99458753122245
 20
-0.7422031298848712
 30
0.0
  0
VERTEX
  5
1047D
  8
0
 10
72.93754092230989
 20
-0.8130956471048449
 30
0.0
  0
VERTEX
  5
1047E
  8
0
 10
72.8844972899133
 20
-0.8872000575740233
 30
0.0
  0
VERTEX
  5
1047F
  8
0
 10
72.83562081588232
 20
-0.9643512386963908
 30
0.0
  0
VERTEX
  5
10480
  8
0
 10
72.79107568206663
 20
-1.044384067875932
 30
0.0
  0
VERTEX
  5
10481
  8
0
 10
72.75102607031596
 20
-1.127133422516632
 30
0.0
  0
VERTEX
  5
10482
  8
0
 10
72.71563616247997
 20
-1.212434180022475
 30
0.0
  0
VERTEX
  5
10483
  8
0
 10
72.68507014040833
 20
-1.300121217797446
 30
0.0
  0
VERTEX
  5
10484
  8
0
 10
72.65949218595071
 20
-1.390029413245529
 30
0.0
  0
VERTEX
  5
10485
  8
0
 10
72.63906648095681
 20
-1.481993643770709
 30
0.0
  0
SEQEND
  5
104CA
  8
0
  0
LINE
  5
164
  8
0
 10
72.63906648095683
 20
-1.48199364377071
 30
0.0
 11
75.79893389712385
 21
-1.481993643770709
 31
0.0
  0
POLYLINE
  5
165
  8
0
 66
     1
 10
0.0
 20
0.0
 30
0.0
  0
VERTEX
  5
10486
  8
0
 10
75.79893389712385
 20
-1.481993643770709
 30
0.0
  0
VERTEX
  5
10487
  8
0
 10
75.77850973679632
 20
-1.39002941324553
 30
0.0
  0
VERTEX
  5
10488
  8
0
 10
75.75293614770018
 20
-1.300121217797447
 30
0.0
  0
VERTEX
  5
10489
  8
0
 10
75.72237690872866
 20
-1.212434180022476
 30
0.0
  0
VERTEX
  5
1048A
  8
0
 10
75.68699579877503
 20
-1.127133422516633
 30
0.0
  0
VERTEX
  5
1048B
  8
0
 10
75.64695659673248
 20
-1.044384067875933
 30
0.0
  0
VERTEX
  5
1048C
  8
0
 10
75.60242308149427
 20
-0.9643512386963913
 30
0.0
  0
VERTEX
  5
1048D
  8
0
 10
75.55355903195361
 20
-0.8872000575740236
 30
0.0
  0
VERTEX
  5
1048E
  8
0
 10
75.50052822700381
 20
-0.8130956471048452
 30
0.0
  0
VERTEX
  5
1048F
  8
0
 10
75.44349444553805
 20
-0.7422031298848715
 30
0.0
  0
VERTEX
  5
10490
  8
0
 10
75.38262146644958
 20
-0.6746876285101177
 30
0.0
  0
VERTEX
  5
10491
  8
0
 10
75.31807306863163
 20
-0.6107142655765994
 30
0.0
  0
VERTEX
  5
10492
  8
0
 10
75.25001303097747
 20
-0.5504481636803319
 30
0.0
  0
VERTEX
  5
10493
  8
0
 10
75.17860513238031
 20
-0.4940544454173307
 30
0.0
  0
VERTEX
  5
10494
  8
0
 10
75.1040131517334
 20
-0.4416982333836111
 30
0.0
  0
VERTEX
  5
10495
  8
0
 10
75.02640086792996
 20
-0.3935446501751887
 30
0.0
  0
VERTEX
  5
10496
  8
0
 10
74.94593205986327
 20
-0.3497588183880787
 30
0.0
  0
VERTEX
  5
10497
  8
0
 10
74.86277050642653
 20
-0.3105058606182964
 30
0.0
  0
VERTEX
  5
10498
  8
0
 10
74.77707998651299
 20
-0.2759508994618574
 30
0.0
  0
VERTEX
  5
10499
  8
0
 10
74.68902427901588
 20
-0.2462590575147769
 30
0.0
  0
VERTEX
  5
1049A
  8
0
 10
74.59876716282847
 20
-0.2215954573730705
 30
0.0
  0
VERTEX
  5
1049B
  8
0
 10
74.50647241684396
 20
-0.2021252216327535
 30
0.0
  0
VERTEX
  5
1049C
  8
0
 10
74.41230381995561
 20
-0.1880134728898414
 30
0.0
  0
VERTEX
  5
1049D
  8
0
 10
74.31642515105665
 20
-0.1794253337403494
 30
0.0
  0
VERTEX
  5
1049E
  8
0
 10
74.21900018904033
 20
-0.1765259267802931
 30
0.0
  0
SEQEND
  5
104CB
  8
0
  0
ENDSEC
  0
EOF
