<?xml version="1.0" encoding="UTF-8" standalone="no"?>
<!DOCTYPE svg PUBLIC "-//W3C//DTD SVG 1.1//EN" "http://www.w3.org/Graphics/SVG/1.1/DTD/svg11.dtd">
<svg width="100%" height="100%" viewBox="0 0 220 220" version="1.1" xmlns="http://www.w3.org/2000/svg" xmlns:xlink="http://www.w3.org/1999/xlink" xml:space="preserve" xmlns:serif="http://www.serif.com/" style="fill-rule:evenodd;clip-rule:evenodd;stroke-linecap:round;stroke-linejoin:round;stroke-miterlimit:1.5;">
    <g transform="matrix(0.32,0,0,0.32,-79.1426,-79.2367)">
        <path d="M342.226,285.827L342.226,295.276L838.583,295.276L838.583,285.827L876.378,248.031L895.276,248.031L933.071,285.827L933.071,304.724L895.276,342.52L885.827,342.52L885.827,838.583L895.276,838.583L933.071,876.378L933.071,895.276L895.276,933.071L876.378,933.071L838.583,895.276L838.583,885.827L342.52,885.827L342.52,895.276L304.724,933.071L285.827,933.071L248.031,895.276L248.031,876.378L285.827,838.583L295.276,838.583L295.276,342.52L285.533,342.52L247.737,304.724L247.737,285.827L285.533,248.031L304.43,248.031L342.226,285.827Z" style="fill:none;stroke:black;stroke-width:0.83px;"/>
        <g transform="matrix(0.725,0,0,0.725,162.402,162.402)">
            <g transform="matrix(1,0,0,4.08039,476.697,-1574.29)">
                <path d="M113.854,414.764L113.854,646.331" style="fill:none;stroke:rgb(204,0,0);stroke-width:0.39px;"/>
            </g>
            <g transform="matrix(6.12323e-17,-1,4.08039,2.49852e-16,-1574.29,704.405)">
                <path d="M113.854,414.764L113.854,646.331" style="fill:none;stroke:rgb(204,0,0);stroke-width:0.39px;"/>
            </g>
        </g>
        <g id="LT" transform="matrix(0.0375,0,0,0.0375,273.13,273.13)">
            <g transform="matrix(1,0,0,4.08039,476.697,-1574.29)">
                <path d="M113.854,414.764L113.854,646.331" style="fill:none;stroke:rgb(204,0,0);stroke-width:7.48px;"/>
            </g>
            <g transform="matrix(6.12323e-17,-1,4.08039,2.49852e-16,-1574.29,704.405)">
                <path d="M113.854,414.764L113.854,646.331" style="fill:none;stroke:rgb(204,0,0);stroke-width:7.48px;"/>
            </g>
        </g>
        <g id="RT" transform="matrix(0.0375,0,0,0.0375,863.681,273.13)">
            <g transform="matrix(1,0,0,4.08039,476.697,-1574.29)">
                <path d="M113.854,414.764L113.854,646.331" style="fill:none;stroke:rgb(204,0,0);stroke-width:7.48px;"/>
            </g>
            <g transform="matrix(6.12323e-17,-1,4.08039,2.49852e-16,-1574.29,704.405)">
                <path d="M113.854,414.764L113.854,646.331" style="fill:none;stroke:rgb(204,0,0);stroke-width:7.48px;"/>
            </g>
        </g>
        <g id="RB" transform="matrix(0.0375,0,0,0.0375,863.681,863.681)">
            <g transform="matrix(1,0,0,4.08039,476.697,-1574.29)">
                <path d="M113.854,414.764L113.854,646.331" style="fill:none;stroke:rgb(204,0,0);stroke-width:7.48px;"/>
            </g>
            <g transform="matrix(6.12323e-17,-1,4.08039,2.49852e-16,-1574.29,704.405)">
                <path d="M113.854,414.764L113.854,646.331" style="fill:none;stroke:rgb(204,0,0);stroke-width:7.48px;"/>
            </g>
        </g>
        <g id="LB" transform="matrix(0.0375,0,0,0.0375,273.13,863.681)">
            <g transform="matrix(1,0,0,4.08039,476.697,-1574.29)">
                <path d="M113.854,414.764L113.854,646.331" style="fill:none;stroke:rgb(204,0,0);stroke-width:7.48px;"/>
            </g>
            <g transform="matrix(6.12323e-17,-1,4.08039,2.49852e-16,-1574.29,704.405)">
                <path d="M113.854,414.764L113.854,646.331" style="fill:none;stroke:rgb(204,0,0);stroke-width:7.48px;"/>
            </g>
        </g>
    </g>
</svg>
