<?xml version="1.0" encoding="UTF-8" standalone="no"?>
<!DOCTYPE svg PUBLIC "-//W3C//DTD SVG 1.1//EN" "http://www.w3.org/Graphics/SVG/1.1/DTD/svg11.dtd">
<svg width="100%" height="100%" viewBox="0 0 1390 802" version="1.1" xmlns="http://www.w3.org/2000/svg" xmlns:xlink="http://www.w3.org/1999/xlink" xml:space="preserve" xmlns:serif="http://www.serif.com/" style="fill-rule:evenodd;clip-rule:evenodd;stroke-miterlimit:10;">
    <g transform="matrix(0.32,0,0,0.32,-119.317,-81.9834)">
        <g transform="matrix(4.16667,0,0,4.16667,0,0)">
            <g transform="matrix(1,0,0,1,92,492.365)">
                <path d="M0,-260.365L111.678,-428.073L368,-428.365L512,-170.365L373.472,167.652L115.918,168L0,-260.365Z" style="fill:none;stroke:rgb(35,31,32);stroke-width:0.5px;"/>
            </g>
        </g>
        <g transform="matrix(4.16667,0,0,4.16667,0,0)">
            <g transform="matrix(1,0,0,1,307.557,618.851)">
                <path d="M0,-529.338C28.849,-537.074 37.399,-491.225 41.656,-450.752C45.248,-416.606 60.926,-314.63 60.926,-314.63C60.926,-314.63 64.643,-286.696 73.148,-288.385C81.071,-289.959 78.683,-303.299 78.729,-312.831C78.833,-335.151 77.955,-378.858 77.338,-398.807C77.043,-408.366 72.471,-494.687 102.408,-495.138C144.22,-495.768 131.4,-413.281 132.177,-393.372C132.489,-385.409 131.458,-288.502 130.802,-268.776C129.657,-234.277 129.79,-194.608 141.198,-193.985C157.864,-193.074 157.867,-236.634 163.377,-260.751C167.42,-278.444 191.418,-341.945 221.181,-318.664C247.492,-298.082 222.478,-265.152 212.194,-219.475C206.717,-195.146 201.919,-176.082 200.654,-154.98C198.933,-126.287 179.007,-29.683 108.604,-2.817C80.952,7.736 63.648,-1.268 37.852,-0.152C7.466,1.16 5.999,5.375 -19.182,3.278C-51.345,0.599 -72.941,-28.577 -79.994,-49.04C-93.02,-86.841 -102.287,-170.303 -108.178,-199.359C-110.872,-212.652 -142.217,-285.313 -146.756,-293.732C-151.294,-302.151 -182.326,-378.744 -159.169,-391.016C-133.444,-404.648 -113.327,-333.88 -107.672,-321.328C-98.484,-300.93 -77.321,-234.764 -60.858,-240.504C-54.436,-242.742 -52.198,-248.836 -53.745,-256.412C-56.154,-268.199 -81.032,-351.692 -83.969,-361.999C-88.393,-377.517 -123.437,-471.49 -83.375,-481.116C-55.201,-487.886 -36.81,-400.505 -30.172,-375.074C-28.391,-368.245 -11.53,-297.889 -10.75,-295.773C-9.972,-293.658 -4.332,-272.678 7.112,-276.383C15.155,-278.988 10.243,-299.265 9.451,-303.528C8.31,-309.673 -3.568,-385.201 -4.23,-389.426C-6.486,-403.821 -33.884,-520.252 0,-529.338Z" style="fill:none;stroke:rgb(35,31,32);stroke-width:0.5px;"/>
            </g>
        </g>
        <g transform="matrix(4.16667,0,0,4.16667,0,0)">
            <g transform="matrix(1,0,0,1,1129,492.365)">
                <path d="M0,-260.365L-111.678,-428.073L-368,-428.365L-512,-170.365L-373.473,167.652L-115.918,168L0,-260.365Z" style="fill:none;stroke:rgb(35,31,32);stroke-width:0.5px;"/>
            </g>
        </g>
        <g transform="matrix(4.16667,0,0,4.16667,0,0)">
            <g transform="matrix(1,0,0,1,913.443,618.851)">
                <path d="M0,-529.338C-28.85,-537.074 -37.399,-491.225 -41.656,-450.752C-45.248,-416.606 -60.927,-314.63 -60.927,-314.63C-60.927,-314.63 -64.644,-286.696 -73.148,-288.385C-81.071,-289.959 -78.684,-303.299 -78.729,-312.831C-78.833,-335.151 -77.955,-378.858 -77.339,-398.807C-77.043,-408.366 -72.472,-494.687 -102.408,-495.138C-144.221,-495.768 -131.4,-413.281 -132.178,-393.372C-132.489,-385.409 -131.458,-288.502 -130.803,-268.776C-129.657,-234.277 -129.791,-194.608 -141.198,-193.985C-157.865,-193.074 -157.867,-236.634 -163.378,-260.751C-167.421,-278.444 -191.419,-341.945 -221.182,-318.664C-247.492,-298.082 -222.479,-265.152 -212.194,-219.475C-206.717,-195.146 -201.92,-176.082 -200.654,-154.98C-198.934,-126.287 -179.008,-29.683 -108.604,-2.817C-80.952,7.736 -63.648,-1.268 -37.853,-0.152C-7.467,1.16 -6,5.375 19.182,3.278C51.345,0.599 72.94,-28.577 79.994,-49.04C93.02,-86.841 102.287,-170.303 108.178,-199.359C110.871,-212.652 142.217,-285.313 146.756,-293.732C151.294,-302.151 182.325,-378.744 159.169,-391.016C133.443,-404.648 113.326,-333.88 107.672,-321.328C98.484,-300.93 77.32,-234.764 60.857,-240.504C54.436,-242.742 52.197,-248.836 53.744,-256.412C56.153,-268.199 81.031,-351.692 83.969,-361.999C88.393,-377.517 123.436,-471.49 83.375,-481.116C55.201,-487.886 36.81,-400.505 30.172,-375.074C28.391,-368.245 11.529,-297.889 10.75,-295.773C9.971,-293.658 4.331,-272.678 -7.113,-276.383C-15.155,-278.988 -10.243,-299.265 -9.451,-303.528C-8.311,-309.673 3.567,-385.201 4.229,-389.426C6.485,-403.821 33.884,-520.252 0,-529.338Z" style="fill:none;stroke:rgb(35,31,32);stroke-width:0.5px;"/>
            </g>
        </g>
    </g>
</svg>
