<?xml version="1.0" encoding="UTF-8" standalone="no"?>
<!DOCTYPE svg PUBLIC "-//W3C//DTD SVG 1.1//EN" "http://www.w3.org/Graphics/SVG/1.1/DTD/svg11.dtd">
<svg width="100%" height="100%" viewBox="0 0 288 185" version="1.1" xmlns="http://www.w3.org/2000/svg" xmlns:xlink="http://www.w3.org/1999/xlink" xml:space="preserve" xmlns:serif="http://www.serif.com/" style="fill-rule:evenodd;clip-rule:evenodd;stroke-linejoin:round;stroke-miterlimit:1.41421;">
    <g transform="matrix(1,0,0,1,-45.4,-25.9068)">
        <g id="silk-screen" transform="matrix(0.321056,0,0,0.321056,37.0385,21.5724)">
            <path d="M891.334,442.086L55.154,442.086L55.154,88.415L95.572,47.997L850.911,47.997L891.334,88.415L891.334,442.086Z" style="fill:none;stroke:black;stroke-width:4.15px;"/>
            <g transform="matrix(-3.65911,-4.48112e-16,4.48112e-16,-3.65911,1141.63,1008.8)">
                <path d="M283.232,246.009L82.097,246.009C81.716,246.009 81.406,245.7 81.406,245.318C81.406,244.937 81.716,244.628 82.097,244.628L283.232,244.628C283.613,244.628 283.923,244.937 283.923,245.318C283.923,245.7 283.613,246.009 283.232,246.009Z" style="fill:none;stroke:black;stroke-width:1.13px;"/>
            </g>
            <g transform="matrix(-3.65911,-4.48112e-16,4.48112e-16,-3.65911,1141.63,1008.8)">
                <path d="M283.232,228.49L82.097,228.49C81.716,228.49 81.406,228.181 81.406,227.8C81.406,227.418 81.716,227.109 82.097,227.109L283.232,227.109C283.613,227.109 283.923,227.418 283.923,227.8C283.923,228.181 283.613,228.49 283.232,228.49Z" style="fill:none;stroke:black;stroke-width:1.13px;"/>
            </g>
            <g transform="matrix(-3.38869,-4.14995e-16,4.14995e-16,-3.38869,1092.24,971.889)">
                <path d="M94.211,114.303L103.532,143.069C105.18,148.284 110.331,147.989 110.55,147.978L110.668,147.973L254.782,147.978C254.991,147.991 260.17,148.225 261.795,143.081L271.119,114.303L274.403,115.366L265.083,144.133C263.14,150.286 257.417,151.594 254.608,151.425L110.723,151.425C107.914,151.594 102.191,150.286 100.244,144.121L90.927,115.366L94.211,114.303Z" style="fill:none;stroke:black;stroke-width:1.23px;"/>
            </g>
            <g transform="matrix(-3.65911,-4.48112e-16,4.48112e-16,-3.65911,1141.63,1008.8)">
                <path d="M141.501,128.125C141.501,125.265 143.819,122.946 146.679,122.946C149.538,122.946 151.856,125.265 151.856,128.125C151.856,130.984 149.538,133.302 146.679,133.302C143.819,133.302 141.501,130.984 141.501,128.125Z" style="fill:none;stroke:black;stroke-width:1.13px;"/>
            </g>
            <g transform="matrix(-3.65911,-4.48112e-16,4.48112e-16,-3.65911,1141.63,1008.8)">
                <path d="M115.797,123.867C115.797,121.007 118.114,118.689 120.975,118.689C123.834,118.689 126.152,121.007 126.152,123.867C126.152,126.727 123.834,129.045 120.975,129.045C118.114,129.045 115.797,126.727 115.797,123.867Z" style="fill:none;stroke:black;stroke-width:1.13px;"/>
            </g>
            <g transform="matrix(-3.65911,-4.48112e-16,4.48112e-16,-3.65911,1141.63,1008.8)">
                <path d="M239.179,123.867C239.179,121.007 241.497,118.689 244.356,118.689C247.216,118.689 249.534,121.007 249.534,123.867C249.534,126.727 247.216,129.045 244.356,129.045C241.497,129.045 239.179,126.727 239.179,123.867Z" style="fill:none;stroke:black;stroke-width:1.13px;"/>
            </g>
            <g transform="matrix(-3.65911,-4.48112e-16,4.48112e-16,-3.65911,1141.63,1008.8)">
                <path d="M213.474,128.125C213.474,125.265 215.792,122.946 218.652,122.946C221.512,122.946 223.83,125.265 223.83,128.125C223.83,130.984 221.512,133.302 218.652,133.302C215.792,133.302 213.474,130.984 213.474,128.125Z" style="fill:none;stroke:black;stroke-width:1.13px;"/>
            </g>
            <g id="L-B">
                <g transform="matrix(-3.65911,-4.48112e-16,4.48112e-16,-3.65911,1141.63,1008.8)">
                    <path d="M299.23,119.552C296.706,119.552 294.605,121.36 294.147,123.752L304.313,123.752C303.855,121.36 301.756,119.552 299.23,119.552Z" style="fill:none;stroke:black;stroke-width:1.13px;"/>
                </g>
                <g transform="matrix(-3.65911,-4.48112e-16,4.48112e-16,-3.65911,1141.63,1008.8)">
                    <path d="M299.23,129.908C301.756,129.908 303.855,128.1 304.313,125.708L294.147,125.708C294.605,128.1 296.706,129.908 299.23,129.908Z" style="fill:none;stroke:black;stroke-width:1.13px;"/>
                </g>
            </g>
            <g id="L-T">
                <g transform="matrix(-3.65911,-4.48112e-16,4.48112e-16,-3.65911,1141.63,1008.8)">
                    <path d="M299.23,261.082C296.706,261.082 294.605,262.89 294.147,265.282L304.313,265.282C303.855,262.89 301.756,261.082 299.23,261.082Z" style="fill:none;stroke:black;stroke-width:1.13px;"/>
                </g>
                <g transform="matrix(-3.65911,-4.48112e-16,4.48112e-16,-3.65911,1141.63,1008.8)">
                    <path d="M299.23,271.438C301.756,271.438 303.855,269.63 304.313,267.238L294.147,267.238C294.605,269.63 296.706,271.438 299.23,271.438Z" style="fill:none;stroke:black;stroke-width:1.13px;"/>
                </g>
            </g>
            <g id="R-B">
                <g transform="matrix(-3.65911,-4.48112e-16,4.48112e-16,-3.65911,1141.63,1008.8)">
                    <path d="M66.1,119.552C63.574,119.552 61.475,121.36 61.017,123.752L71.183,123.752C70.725,121.36 68.625,119.552 66.1,119.552Z" style="fill:none;stroke:black;stroke-width:1.13px;"/>
                </g>
                <g transform="matrix(-3.65911,-4.48112e-16,4.48112e-16,-3.65911,1141.63,1008.8)">
                    <path d="M66.1,129.908C68.625,129.908 70.725,128.1 71.183,125.708L61.017,125.708C61.475,128.1 63.574,129.908 66.1,129.908Z" style="fill:none;stroke:black;stroke-width:1.13px;"/>
                </g>
            </g>
            <g id="R-T">
                <g transform="matrix(-3.65911,-4.48112e-16,4.48112e-16,-3.65911,1141.63,1008.8)">
                    <path d="M66.1,261.082C63.574,261.082 61.475,262.89 61.017,265.282L71.183,265.282C70.725,262.89 68.625,261.082 66.1,261.082Z" style="fill:none;stroke:black;stroke-width:1.13px;"/>
                </g>
                <g transform="matrix(-3.65911,-4.48112e-16,4.48112e-16,-3.65911,1141.63,1008.8)">
                    <path d="M66.1,271.438C68.625,271.438 70.725,269.63 71.183,267.238L61.017,267.238C61.475,269.63 63.574,271.438 66.1,271.438Z" style="fill:none;stroke:black;stroke-width:1.13px;"/>
                </g>
            </g>
        </g>
        <g transform="matrix(1,0,0,1,40.55,-11.0881)">
            <path d="M99.322,83.962L94.484,83.962L94.484,75.453L99.322,75.453L99.322,76.43L95.643,76.43L95.643,79.067L99.178,79.067L99.178,80.043L95.643,80.043L95.643,82.973L99.322,82.973L99.322,83.962Z" style="fill-rule:nonzero;"/>
            <path d="M106.984,83.643C106.303,83.926 105.589,84.067 104.842,84.067C103.64,84.067 102.717,83.707 102.072,82.989C101.428,82.271 101.105,81.209 101.105,79.802C101.105,79.121 101.194,78.505 101.372,77.953C101.55,77.402 101.804,76.934 102.134,76.55C102.464,76.166 102.863,75.87 103.332,75.662C103.801,75.453 104.326,75.349 104.908,75.349C105.302,75.349 105.669,75.383 106.008,75.45C106.346,75.517 106.672,75.62 106.984,75.759L106.984,76.899C106.676,76.729 106.357,76.6 106.027,76.511C105.697,76.422 105.337,76.378 104.947,76.378C104.547,76.378 104.186,76.453 103.863,76.602C103.539,76.752 103.265,76.969 103.039,77.253C102.813,77.538 102.64,77.885 102.518,78.295C102.397,78.705 102.336,79.173 102.336,79.698C102.336,80.801 102.559,81.632 103.006,82.192C103.454,82.752 104.109,83.031 104.973,83.031C105.337,83.031 105.687,82.989 106.021,82.905C106.355,82.82 106.676,82.702 106.984,82.55L106.984,83.643Z" style="fill-rule:nonzero;"/>
            <path d="M114.387,76.912C114.07,76.742 113.744,76.611 113.41,76.518C113.076,76.424 112.711,76.378 112.316,76.378C111.865,76.378 111.463,76.458 111.112,76.619C110.76,76.779 110.464,77.006 110.223,77.299C109.982,77.592 109.798,77.945 109.67,78.357C109.542,78.769 109.478,79.225 109.478,79.724C109.478,80.245 109.53,80.712 109.634,81.124C109.738,81.536 109.901,81.886 110.122,82.172C110.344,82.459 110.627,82.678 110.972,82.83C111.317,82.982 111.73,83.057 112.212,83.057C112.295,83.057 112.384,83.053 112.479,83.044C112.575,83.036 112.67,83.024 112.766,83.009C112.861,82.993 112.953,82.975 113.042,82.953C113.131,82.932 113.21,82.908 113.28,82.882L113.28,80.173L111.542,80.173L111.542,79.216L114.426,79.216L114.426,83.565C114.248,83.648 114.06,83.722 113.863,83.787C113.665,83.852 113.463,83.906 113.257,83.949C113.051,83.993 112.846,84.025 112.642,84.047C112.438,84.069 112.24,84.08 112.049,84.08C111.468,84.08 110.944,83.988 110.477,83.806C110.011,83.624 109.613,83.354 109.286,82.996C108.958,82.638 108.706,82.192 108.531,81.658C108.355,81.124 108.267,80.505 108.267,79.802C108.267,79.104 108.365,78.477 108.56,77.924C108.755,77.371 109.03,76.902 109.383,76.518C109.737,76.134 110.162,75.841 110.659,75.639C111.156,75.437 111.704,75.336 112.303,75.336C112.685,75.336 113.049,75.37 113.394,75.437C113.739,75.504 114.07,75.612 114.387,75.759L114.387,76.912Z" style="fill-rule:nonzero;"/>
            <path d="M129.51,83.962L128.378,83.962L128.208,78.656L128.137,76.619L127.74,77.804L126.483,81.189L125.682,81.189L124.484,77.934L124.087,76.619L124.061,78.748L123.911,83.962L122.818,83.962L123.234,75.453L124.608,75.453L125.754,78.656L126.125,79.737L126.483,78.656L127.687,75.453L129.1,75.453L129.51,83.962Z" style="fill-rule:nonzero;"/>
            <path d="M136.561,80.642C136.561,81.15 136.49,81.615 136.346,82.039C136.203,82.462 135.997,82.824 135.728,83.126C135.459,83.428 135.131,83.662 134.745,83.829C134.358,83.996 133.92,84.08 133.43,84.08C132.961,84.08 132.541,84.007 132.17,83.862C131.799,83.716 131.484,83.502 131.226,83.22C130.968,82.938 130.77,82.589 130.633,82.172C130.497,81.755 130.428,81.276 130.428,80.733C130.428,80.225 130.5,79.762 130.643,79.343C130.786,78.924 130.993,78.564 131.262,78.263C131.531,77.961 131.858,77.727 132.245,77.559C132.631,77.392 133.069,77.309 133.56,77.309C134.029,77.309 134.449,77.381 134.82,77.527C135.191,77.672 135.505,77.885 135.764,78.165C136.022,78.445 136.219,78.793 136.356,79.21C136.493,79.627 136.561,80.104 136.561,80.642ZM135.402,80.694C135.402,80.291 135.358,79.938 135.269,79.636C135.18,79.335 135.053,79.083 134.888,78.881C134.723,78.679 134.522,78.527 134.286,78.425C134.049,78.323 133.786,78.272 133.495,78.272C133.156,78.272 132.866,78.339 132.626,78.471C132.385,78.603 132.187,78.78 132.033,79.002C131.879,79.223 131.766,79.48 131.695,79.773C131.623,80.066 131.587,80.373 131.587,80.694C131.587,81.098 131.632,81.452 131.721,81.755C131.81,82.059 131.937,82.312 132.102,82.514C132.266,82.716 132.466,82.868 132.7,82.97C132.935,83.072 133.2,83.123 133.495,83.123C133.833,83.123 134.123,83.056 134.364,82.924C134.605,82.792 134.802,82.615 134.956,82.393C135.11,82.172 135.223,81.915 135.295,81.622C135.366,81.329 135.402,81.02 135.402,80.694Z" style="fill-rule:nonzero;"/>
            <path d="M137.87,80.831C137.87,80.275 137.946,79.782 138.098,79.35C138.25,78.918 138.465,78.553 138.745,78.256C139.025,77.959 139.362,77.733 139.755,77.579C140.147,77.425 140.585,77.348 141.066,77.348C141.275,77.348 141.48,77.361 141.682,77.387C141.883,77.413 142.082,77.454 142.277,77.511L142.277,74.763L143.417,74.763L143.417,83.962L142.401,83.962L142.362,82.725C142.045,83.186 141.702,83.526 141.333,83.748C140.964,83.969 140.565,84.08 140.135,84.08C139.762,84.08 139.433,84.002 139.149,83.845C138.865,83.689 138.628,83.469 138.439,83.184C138.251,82.9 138.108,82.558 138.013,82.159C137.917,81.76 137.87,81.317 137.87,80.831ZM139.029,80.759C139.029,81.549 139.145,82.138 139.377,82.527C139.609,82.915 139.938,83.11 140.363,83.11C140.65,83.11 140.952,82.982 141.271,82.725C141.59,82.469 141.926,82.09 142.277,81.586L142.277,78.552C142.091,78.465 141.885,78.399 141.659,78.354C141.433,78.308 141.21,78.285 140.988,78.285C140.372,78.285 139.891,78.485 139.546,78.884C139.201,79.284 139.029,79.909 139.029,80.759Z" style="fill-rule:nonzero;"/>
            <path d="M150.786,83.962L149.771,83.962L149.732,82.908C149.536,83.133 149.351,83.321 149.175,83.471C148.999,83.621 148.825,83.741 148.651,83.832C148.477,83.923 148.303,83.987 148.127,84.024C147.951,84.061 147.766,84.08 147.57,84.08C146.898,84.08 146.39,83.882 146.047,83.487C145.704,83.092 145.533,82.495 145.533,81.697L145.533,77.426L146.665,77.426L146.665,81.606C146.665,82.608 147.043,83.11 147.798,83.11C147.937,83.11 148.073,83.089 148.205,83.048C148.337,83.006 148.476,82.935 148.622,82.833C148.767,82.731 148.923,82.593 149.09,82.419C149.258,82.246 149.445,82.027 149.654,81.762L149.654,77.426L150.786,77.426L150.786,83.962Z" style="fill-rule:nonzero;"/>
            <path d="M155.09,75.694L153.156,75.694L153.156,74.763L156.236,74.763L156.236,83.018L158.182,83.018L158.182,83.962L152.941,83.962L152.941,83.018L155.09,83.018L155.09,75.694Z" style="fill-rule:nonzero;"/>
            <path d="M165.715,80.349C165.715,80.51 165.713,80.644 165.708,80.753C165.704,80.861 165.697,80.963 165.689,81.059L161.099,81.059C161.099,81.727 161.286,82.24 161.659,82.599C162.032,82.957 162.57,83.136 163.273,83.136C163.464,83.136 163.655,83.128 163.846,83.113C164.037,83.098 164.222,83.077 164.4,83.051C164.578,83.025 164.748,82.996 164.911,82.963C165.074,82.931 165.224,82.895 165.363,82.856L165.363,83.787C165.055,83.873 164.707,83.944 164.318,83.998C163.93,84.053 163.527,84.08 163.111,84.08C162.551,84.08 162.069,84.004 161.665,83.852C161.262,83.7 160.931,83.48 160.672,83.191C160.414,82.902 160.223,82.549 160.1,82.13C159.976,81.711 159.914,81.237 159.914,80.707C159.914,80.247 159.98,79.812 160.113,79.402C160.245,78.992 160.438,78.631 160.692,78.321C160.946,78.011 161.257,77.765 161.626,77.582C161.995,77.4 162.414,77.309 162.883,77.309C163.338,77.309 163.742,77.38 164.094,77.524C164.445,77.667 164.741,77.87 164.982,78.132C165.223,78.395 165.406,78.714 165.529,79.089C165.653,79.465 165.715,79.885 165.715,80.349ZM164.536,80.186C164.549,79.896 164.521,79.63 164.452,79.389C164.382,79.148 164.275,78.941 164.13,78.767C163.984,78.594 163.803,78.458 163.586,78.36C163.369,78.263 163.117,78.214 162.831,78.214C162.583,78.214 162.358,78.261 162.154,78.357C161.95,78.452 161.774,78.587 161.626,78.761C161.479,78.934 161.359,79.143 161.268,79.386C161.177,79.629 161.121,79.896 161.099,80.186L164.536,80.186Z" style="fill-rule:nonzero;"/>
            <path d="M174.243,77.426L175.533,77.426L177.134,81.749L177.479,82.804L177.837,81.723L179.426,77.426L180.669,77.426L178.104,83.962L176.802,83.962L174.243,77.426Z" style="fill-rule:nonzero;"/>
            <path d="M187.902,79.711C187.902,80.362 187.837,80.956 187.707,81.492C187.577,82.028 187.379,82.488 187.115,82.872C186.85,83.256 186.521,83.553 186.128,83.764C185.735,83.974 185.274,84.08 184.745,84.08C184.289,84.08 183.875,83.994 183.501,83.822C183.128,83.651 182.809,83.387 182.544,83.031C182.279,82.676 182.075,82.222 181.932,81.671C181.789,81.12 181.717,80.466 181.717,79.711C181.717,79.06 181.784,78.465 181.916,77.927C182.048,77.389 182.246,76.928 182.508,76.544C182.771,76.16 183.1,75.862 183.495,75.652C183.89,75.441 184.35,75.336 184.875,75.336C185.331,75.336 185.745,75.422 186.118,75.593C186.492,75.765 186.811,76.03 187.075,76.388C187.34,76.746 187.544,77.2 187.687,77.752C187.831,78.303 187.902,78.956 187.902,79.711ZM186.756,79.75C186.756,79.603 186.751,79.456 186.74,79.311C186.729,79.165 186.717,79.023 186.704,78.884L183.104,81.56C183.169,81.786 183.252,81.994 183.352,82.185C183.451,82.376 183.572,82.54 183.713,82.677C183.854,82.813 184.014,82.92 184.195,82.996C184.375,83.072 184.58,83.11 184.81,83.11C185.105,83.11 185.373,83.038 185.614,82.895C185.855,82.752 186.06,82.539 186.229,82.257C186.398,81.975 186.529,81.624 186.62,81.205C186.711,80.786 186.756,80.301 186.756,79.75ZM182.863,79.672C182.863,79.807 182.864,79.941 182.866,80.076C182.869,80.21 182.876,80.34 182.889,80.466L186.49,77.804C186.424,77.582 186.342,77.38 186.242,77.198C186.142,77.016 186.023,76.858 185.884,76.726C185.745,76.594 185.587,76.491 185.409,76.417C185.231,76.343 185.031,76.306 184.81,76.306C184.515,76.306 184.247,76.378 184.006,76.521C183.765,76.664 183.56,76.878 183.391,77.162C183.221,77.447 183.091,77.798 183,78.217C182.909,78.636 182.863,79.121 182.863,79.672Z" style="fill-rule:nonzero;"/>
            <path d="M192.088,81.912C192.236,81.912 192.376,81.94 192.508,81.996C192.641,82.053 192.756,82.131 192.853,82.231C192.951,82.33 193.028,82.447 193.085,82.579C193.141,82.711 193.169,82.854 193.169,83.005C193.169,83.153 193.141,83.292 193.085,83.422C193.028,83.552 192.951,83.666 192.853,83.764C192.756,83.862 192.641,83.939 192.508,83.995C192.376,84.051 192.236,84.08 192.088,84.08C191.937,84.08 191.796,84.051 191.665,83.995C191.535,83.939 191.421,83.862 191.324,83.764C191.226,83.666 191.149,83.552 191.092,83.422C191.036,83.292 191.008,83.153 191.008,83.005C191.008,82.854 191.036,82.711 191.092,82.579C191.149,82.447 191.226,82.33 191.324,82.231C191.421,82.131 191.535,82.053 191.665,81.996C191.796,81.94 191.937,81.912 192.088,81.912Z" style="fill-rule:nonzero;"/>
            <path d="M202.368,83.962L196.763,83.962L196.763,82.947L198.963,80.759C199.324,80.403 199.617,80.095 199.842,79.835C200.068,79.574 200.244,79.337 200.37,79.122C200.496,78.907 200.58,78.704 200.624,78.513C200.667,78.322 200.689,78.116 200.689,77.895C200.689,77.686 200.661,77.488 200.604,77.299C200.548,77.11 200.461,76.944 200.344,76.801C200.227,76.658 200.075,76.545 199.888,76.462C199.701,76.38 199.478,76.339 199.217,76.339C198.857,76.339 198.529,76.419 198.234,76.58C197.939,76.74 197.668,76.949 197.421,77.205L196.796,76.456C197.117,76.117 197.487,75.846 197.906,75.642C198.324,75.438 198.812,75.336 199.367,75.336C199.745,75.336 200.089,75.393 200.399,75.505C200.709,75.618 200.977,75.781 201.203,75.994C201.429,76.206 201.603,76.467 201.727,76.775C201.851,77.083 201.913,77.43 201.913,77.817C201.913,78.142 201.869,78.444 201.783,78.722C201.696,78.999 201.564,79.276 201.389,79.552C201.213,79.827 200.991,80.113 200.725,80.408C200.458,80.703 200.142,81.026 199.777,81.378L198.234,82.882L202.368,82.882L202.368,83.962Z" style="fill-rule:nonzero;"/>
        </g>
        <g transform="matrix(1,0,0,1,40.8436,1.46435)">
            <path d="M97.672,80.041C97.648,80.387 97.601,80.744 97.529,81.113C97.458,81.481 97.361,81.84 97.24,82.189C97.119,82.538 96.976,82.865 96.81,83.171C96.645,83.477 96.457,83.741 96.246,83.962L95.672,83.962L95.414,82.322L95.383,81.923L95.168,82.345L94.289,83.962L93.457,83.962L93.719,80.041L94.375,80.041L94.144,82.705L94.086,83.298L94.359,82.779L95.297,81.017L95.785,81.017L96.062,82.755L96.137,83.275C96.269,83.074 96.387,82.849 96.488,82.599C96.59,82.349 96.676,82.085 96.746,81.806C96.816,81.528 96.872,81.238 96.914,80.939C96.956,80.64 96.984,80.34 97,80.041L97.672,80.041Z" style="fill-rule:nonzero;"/>
            <path d="M102.07,80.041C102.047,80.387 101.999,80.744 101.928,81.113C101.856,81.481 101.76,81.84 101.639,82.189C101.518,82.538 101.374,82.865 101.209,83.171C101.044,83.477 100.855,83.741 100.644,83.962L100.07,83.962L99.812,82.322L99.781,81.923L99.566,82.345L98.687,83.962L97.855,83.962L98.117,80.041L98.773,80.041L98.543,82.705L98.484,83.298L98.758,82.779L99.695,81.017L100.184,81.017L100.461,82.755L100.535,83.275C100.668,83.074 100.785,82.849 100.887,82.599C100.988,82.349 101.074,82.085 101.144,81.806C101.215,81.528 101.271,81.238 101.312,80.939C101.354,80.64 101.383,80.34 101.398,80.041L102.07,80.041Z" style="fill-rule:nonzero;"/>
            <path d="M106.469,80.041C106.445,80.387 106.398,80.744 106.326,81.113C106.255,81.481 106.158,81.84 106.037,82.189C105.916,82.538 105.773,82.865 105.607,83.171C105.442,83.477 105.254,83.741 105.043,83.962L104.469,83.962L104.211,82.322L104.18,81.923L103.965,82.345L103.086,83.962L102.254,83.962L102.516,80.041L103.172,80.041L102.941,82.705L102.883,83.298L103.156,82.779L104.094,81.017L104.582,81.017L104.859,82.755L104.934,83.275C105.066,83.074 105.184,82.849 105.285,82.599C105.387,82.349 105.473,82.085 105.543,81.806C105.613,81.528 105.669,81.238 105.711,80.939C105.753,80.64 105.781,80.34 105.797,80.041L106.469,80.041Z" style="fill-rule:nonzero;"/>
            <path d="M108.273,82.732C108.367,82.732 108.452,82.749 108.529,82.783C108.606,82.817 108.672,82.862 108.727,82.919C108.781,82.977 108.824,83.044 108.853,83.121C108.883,83.197 108.898,83.278 108.898,83.361C108.898,83.455 108.88,83.543 108.844,83.625C108.807,83.707 108.758,83.778 108.697,83.839C108.636,83.901 108.564,83.948 108.482,83.982C108.4,84.016 108.315,84.033 108.227,84.033C108.135,84.033 108.052,84.016 107.977,83.982C107.901,83.948 107.835,83.903 107.779,83.845C107.723,83.788 107.68,83.722 107.648,83.648C107.617,83.574 107.602,83.495 107.602,83.412C107.602,83.315 107.62,83.225 107.656,83.142C107.693,83.059 107.742,82.987 107.805,82.927C107.867,82.867 107.939,82.82 108.019,82.785C108.1,82.75 108.185,82.732 108.273,82.732Z" style="fill-rule:nonzero;"/>
            <path d="M113.379,79.994C113.548,79.994 113.71,80.005 113.863,80.027C114.017,80.049 114.164,80.081 114.305,80.123L114.922,79.97L114.48,82.162C114.47,82.211 114.459,82.276 114.447,82.357C114.435,82.438 114.422,82.546 114.406,82.683C114.391,82.82 114.371,82.992 114.348,83.199C114.324,83.406 114.297,83.66 114.266,83.962L113.625,83.962L113.723,83.06C113.543,83.373 113.325,83.613 113.068,83.781C112.812,83.949 112.534,84.033 112.234,84.033C112.047,84.033 111.883,84.002 111.744,83.939C111.605,83.877 111.49,83.787 111.398,83.671C111.307,83.556 111.24,83.417 111.195,83.255C111.151,83.094 111.129,82.914 111.129,82.716C111.129,82.341 111.178,81.989 111.275,81.66C111.373,81.33 111.517,81.042 111.707,80.794C111.897,80.547 112.132,80.352 112.412,80.209C112.692,80.065 113.014,79.994 113.379,79.994ZM111.816,82.65C111.816,82.897 111.859,83.091 111.945,83.232C112.031,83.373 112.171,83.443 112.363,83.443C112.475,83.443 112.587,83.417 112.699,83.365C112.811,83.313 112.921,83.241 113.027,83.15C113.134,83.059 113.235,82.951 113.33,82.828C113.425,82.704 113.512,82.571 113.592,82.429C113.671,82.287 113.74,82.139 113.797,81.984C113.854,81.829 113.898,81.675 113.93,81.521L114.09,80.716C113.967,80.664 113.842,80.623 113.713,80.593C113.584,80.563 113.465,80.548 113.355,80.548C113.142,80.548 112.956,80.585 112.797,80.658C112.638,80.731 112.501,80.826 112.387,80.943C112.272,81.06 112.178,81.194 112.105,81.343C112.033,81.493 111.975,81.646 111.932,81.802C111.889,81.959 111.859,82.111 111.842,82.259C111.825,82.408 111.816,82.538 111.816,82.65Z" style="fill-rule:nonzero;"/>
            <path d="M115.977,81.841C115.987,81.792 115.998,81.727 116.01,81.646C116.021,81.565 116.035,81.457 116.051,81.32C116.066,81.183 116.086,81.011 116.109,80.804C116.133,80.597 116.16,80.343 116.191,80.041L116.832,80.041L116.734,80.947C116.825,80.814 116.924,80.688 117.031,80.57C117.138,80.451 117.255,80.348 117.383,80.259C117.51,80.171 117.65,80.1 117.801,80.048C117.952,79.996 118.117,79.97 118.297,79.97C118.727,79.97 119.023,80.104 119.187,80.373C119.352,80.641 119.378,81.029 119.266,81.537L118.574,81.537C118.613,81.357 118.633,81.205 118.633,81.08C118.633,80.955 118.615,80.854 118.58,80.777C118.545,80.7 118.493,80.644 118.424,80.609C118.355,80.574 118.272,80.556 118.176,80.556C117.988,80.556 117.806,80.613 117.629,80.726C117.452,80.839 117.29,80.988 117.143,81.171C116.995,81.355 116.869,81.561 116.764,81.791C116.658,82.02 116.582,82.25 116.535,82.482L116.238,83.962L115.551,83.962L115.977,81.841Z" style="fill-rule:nonzero;"/>
            <path d="M122.176,79.994C122.345,79.994 122.506,80.005 122.66,80.027C122.814,80.049 122.961,80.081 123.102,80.123L123.719,79.97L123.277,82.162C123.267,82.211 123.256,82.276 123.244,82.357C123.232,82.438 123.219,82.546 123.203,82.683C123.187,82.82 123.168,82.992 123.144,83.199C123.121,83.406 123.094,83.66 123.062,83.962L122.422,83.962L122.519,83.06C122.34,83.373 122.122,83.613 121.865,83.781C121.609,83.949 121.331,84.033 121.031,84.033C120.844,84.033 120.68,84.002 120.541,83.939C120.402,83.877 120.286,83.787 120.195,83.671C120.104,83.556 120.036,83.417 119.992,83.255C119.948,83.094 119.926,82.914 119.926,82.716C119.926,82.341 119.975,81.989 120.072,81.66C120.17,81.33 120.314,81.042 120.504,80.794C120.694,80.547 120.929,80.352 121.209,80.209C121.489,80.065 121.811,79.994 122.176,79.994ZM120.613,82.65C120.613,82.897 120.656,83.091 120.742,83.232C120.828,83.373 120.967,83.443 121.16,83.443C121.272,83.443 121.384,83.417 121.496,83.365C121.608,83.313 121.717,83.241 121.824,83.15C121.931,83.059 122.032,82.951 122.127,82.828C122.222,82.704 122.309,82.571 122.389,82.429C122.468,82.287 122.536,82.139 122.594,81.984C122.651,81.829 122.695,81.675 122.727,81.521L122.887,80.716C122.764,80.664 122.639,80.623 122.51,80.593C122.381,80.563 122.262,80.548 122.152,80.548C121.939,80.548 121.753,80.585 121.594,80.658C121.435,80.731 121.298,80.826 121.184,80.943C121.069,81.06 120.975,81.194 120.902,81.343C120.829,81.493 120.771,81.646 120.728,81.802C120.685,81.959 120.656,82.111 120.639,82.259C120.622,82.408 120.613,82.538 120.613,82.65Z" style="fill-rule:nonzero;"/>
            <path d="M125.719,84.009C125.432,84.009 125.169,83.981 124.93,83.923C124.69,83.866 124.462,83.788 124.246,83.689L125.293,78.443L125.973,78.443L125.668,79.962L125.414,80.908C125.495,80.762 125.587,80.631 125.691,80.515C125.796,80.399 125.909,80.301 126.033,80.22C126.157,80.14 126.288,80.078 126.428,80.035C126.567,79.992 126.711,79.97 126.859,79.97C127.047,79.97 127.21,80.002 127.35,80.066C127.489,80.13 127.604,80.219 127.695,80.334C127.786,80.448 127.854,80.587 127.898,80.75C127.943,80.912 127.965,81.093 127.965,81.291C127.965,81.666 127.916,82.018 127.818,82.347C127.721,82.677 127.577,82.964 127.387,83.21C127.197,83.457 126.962,83.651 126.682,83.794C126.402,83.938 126.081,84.009 125.719,84.009ZM127.277,81.353C127.277,81.103 127.235,80.909 127.15,80.771C127.066,80.633 126.927,80.564 126.734,80.564C126.622,80.564 126.51,80.59 126.398,80.642C126.286,80.694 126.177,80.766 126.07,80.857C125.963,80.948 125.863,81.055 125.768,81.177C125.672,81.3 125.585,81.431 125.506,81.57C125.426,81.709 125.358,81.853 125.301,82.002C125.243,82.15 125.2,82.297 125.172,82.443L125.004,83.291C125.126,83.343 125.253,83.384 125.383,83.414C125.513,83.444 125.633,83.459 125.742,83.459C125.956,83.459 126.142,83.422 126.301,83.349C126.46,83.276 126.596,83.181 126.709,83.064C126.822,82.947 126.915,82.813 126.988,82.662C127.061,82.511 127.119,82.357 127.162,82.201C127.205,82.044 127.235,81.893 127.252,81.746C127.269,81.599 127.277,81.468 127.277,81.353Z" style="fill-rule:nonzero;"/>
            <path d="M129.492,82.22C129.479,82.288 129.469,82.352 129.463,82.412C129.456,82.472 129.453,82.53 129.453,82.587C129.453,82.871 129.538,83.089 129.707,83.24C129.876,83.391 130.138,83.466 130.492,83.466C130.721,83.466 130.949,83.449 131.174,83.416C131.399,83.382 131.6,83.343 131.777,83.298L131.777,83.857C131.582,83.909 131.363,83.951 131.119,83.984C130.876,84.016 130.629,84.033 130.379,84.033C129.827,84.033 129.419,83.91 129.156,83.664C128.893,83.418 128.762,83.061 128.762,82.595C128.762,82.236 128.818,81.897 128.93,81.58C129.042,81.262 129.197,80.984 129.394,80.746C129.592,80.507 129.827,80.319 130.1,80.179C130.372,80.04 130.668,79.97 130.988,79.97C131.21,79.97 131.407,79.996 131.58,80.048C131.753,80.1 131.9,80.172 132.019,80.263C132.139,80.354 132.23,80.462 132.293,80.585C132.355,80.709 132.387,80.843 132.387,80.986C132.387,81.173 132.347,81.343 132.268,81.494C132.188,81.645 132.062,81.774 131.889,81.882C131.715,81.99 131.492,82.074 131.219,82.132C130.945,82.191 130.615,82.22 130.227,82.22L129.492,82.22ZM130.219,81.697C130.508,81.697 130.747,81.679 130.935,81.644C131.124,81.609 131.274,81.561 131.385,81.502C131.495,81.442 131.573,81.373 131.617,81.294C131.661,81.216 131.684,81.136 131.684,81.052C131.684,80.979 131.669,80.91 131.641,80.845C131.612,80.78 131.567,80.723 131.506,80.673C131.445,80.624 131.368,80.585 131.275,80.556C131.183,80.528 131.074,80.513 130.949,80.513C130.78,80.513 130.626,80.541 130.486,80.597C130.347,80.653 130.221,80.733 130.109,80.835C129.997,80.938 129.898,81.063 129.812,81.209C129.727,81.354 129.654,81.517 129.594,81.697L130.219,81.697Z" style="fill-rule:nonzero;"/>
            <path d="M135.371,79.994C135.54,79.994 135.702,80.005 135.855,80.027C136.009,80.049 136.156,80.081 136.297,80.123L136.914,79.97L136.473,82.162C136.462,82.211 136.451,82.276 136.439,82.357C136.428,82.438 136.414,82.546 136.398,82.683C136.383,82.82 136.363,82.992 136.34,83.199C136.316,83.406 136.289,83.66 136.258,83.962L135.617,83.962L135.715,83.06C135.535,83.373 135.317,83.613 135.06,83.781C134.804,83.949 134.526,84.033 134.227,84.033C134.039,84.033 133.876,84.002 133.736,83.939C133.597,83.877 133.482,83.787 133.391,83.671C133.299,83.556 133.232,83.417 133.187,83.255C133.143,83.094 133.121,82.914 133.121,82.716C133.121,82.341 133.17,81.989 133.268,81.66C133.365,81.33 133.509,81.042 133.699,80.794C133.889,80.547 134.124,80.352 134.404,80.209C134.684,80.065 135.006,79.994 135.371,79.994ZM133.809,82.65C133.809,82.897 133.852,83.091 133.937,83.232C134.023,83.373 134.163,83.443 134.355,83.443C134.467,83.443 134.579,83.417 134.691,83.365C134.803,83.313 134.913,83.241 135.019,83.15C135.126,83.059 135.227,82.951 135.322,82.828C135.417,82.704 135.505,82.571 135.584,82.429C135.663,82.287 135.732,82.139 135.789,81.984C135.846,81.829 135.891,81.675 135.922,81.521L136.082,80.716C135.96,80.664 135.834,80.623 135.705,80.593C135.576,80.563 135.457,80.548 135.348,80.548C135.134,80.548 134.948,80.585 134.789,80.658C134.63,80.731 134.493,80.826 134.379,80.943C134.264,81.06 134.171,81.194 134.098,81.343C134.025,81.493 133.967,81.646 133.924,81.802C133.881,81.959 133.851,82.111 133.834,82.259C133.817,82.408 133.809,82.538 133.809,82.65Z" style="fill-rule:nonzero;"/>
            <path d="M140.617,83.908C140.453,83.947 140.291,83.975 140.131,83.992C139.971,84.009 139.828,84.017 139.703,84.017C139.437,84.017 139.21,83.988 139.021,83.929C138.833,83.871 138.684,83.778 138.574,83.65C138.465,83.522 138.396,83.358 138.369,83.156C138.342,82.954 138.358,82.709 138.418,82.419L138.777,80.611L137.68,80.611L137.793,80.041L138.887,80.041L139.105,78.962L139.824,78.787L139.566,80.041L141.328,80.041L141.215,80.611L139.457,80.611L139.09,82.443C139.053,82.623 139.039,82.776 139.047,82.902C139.055,83.028 139.086,83.132 139.141,83.212C139.195,83.293 139.275,83.352 139.379,83.388C139.483,83.425 139.616,83.443 139.777,83.443C139.874,83.443 139.995,83.433 140.141,83.414C140.286,83.394 140.445,83.363 140.617,83.322L140.617,83.908Z" style="fill-rule:nonzero;"/>
            <path d="M143.461,82.732C143.555,82.732 143.64,82.749 143.717,82.783C143.794,82.817 143.859,82.862 143.914,82.919C143.969,82.977 144.011,83.044 144.041,83.121C144.071,83.197 144.086,83.278 144.086,83.361C144.086,83.455 144.068,83.543 144.031,83.625C143.995,83.707 143.946,83.778 143.885,83.839C143.824,83.901 143.752,83.948 143.67,83.982C143.588,84.016 143.503,84.033 143.414,84.033C143.323,84.033 143.24,84.016 143.164,83.982C143.088,83.948 143.023,83.903 142.967,83.845C142.911,83.788 142.867,83.722 142.836,83.648C142.805,83.574 142.789,83.495 142.789,83.412C142.789,83.315 142.807,83.225 142.844,83.142C142.88,83.059 142.93,82.987 142.992,82.927C143.055,82.867 143.126,82.82 143.207,82.785C143.288,82.75 143.372,82.732 143.461,82.732Z" style="fill-rule:nonzero;"/>
            <path d="M148.566,79.994C148.736,79.994 148.897,80.005 149.051,80.027C149.204,80.049 149.352,80.081 149.492,80.123L150.109,79.97L149.668,82.162C149.658,82.211 149.646,82.276 149.635,82.357C149.623,82.438 149.609,82.546 149.594,82.683C149.578,82.82 149.559,82.992 149.535,83.199C149.512,83.406 149.484,83.66 149.453,83.962L148.812,83.962L148.91,83.06C148.73,83.373 148.512,83.613 148.256,83.781C147.999,83.949 147.721,84.033 147.422,84.033C147.234,84.033 147.071,84.002 146.932,83.939C146.792,83.877 146.677,83.787 146.586,83.671C146.495,83.556 146.427,83.417 146.383,83.255C146.338,83.094 146.316,82.914 146.316,82.716C146.316,82.341 146.365,81.989 146.463,81.66C146.56,81.33 146.704,81.042 146.894,80.794C147.085,80.547 147.32,80.352 147.6,80.209C147.88,80.065 148.202,79.994 148.566,79.994ZM147.004,82.65C147.004,82.897 147.047,83.091 147.133,83.232C147.219,83.373 147.358,83.443 147.551,83.443C147.663,83.443 147.775,83.417 147.887,83.365C147.999,83.313 148.108,83.241 148.215,83.15C148.322,83.059 148.422,82.951 148.518,82.828C148.613,82.704 148.7,82.571 148.779,82.429C148.859,82.287 148.927,82.139 148.984,81.984C149.042,81.829 149.086,81.675 149.117,81.521L149.277,80.716C149.155,80.664 149.029,80.623 148.9,80.593C148.771,80.563 148.652,80.548 148.543,80.548C148.329,80.548 148.143,80.585 147.984,80.658C147.825,80.731 147.689,80.826 147.574,80.943C147.46,81.06 147.366,81.194 147.293,81.343C147.22,81.493 147.162,81.646 147.119,81.802C147.076,81.959 147.046,82.111 147.029,82.259C147.012,82.408 147.004,82.538 147.004,82.65Z" style="fill-rule:nonzero;"/>
            <path d="M151.164,81.841C151.174,81.792 151.185,81.727 151.197,81.646C151.209,81.565 151.223,81.457 151.238,81.32C151.254,81.183 151.273,81.011 151.297,80.804C151.32,80.597 151.348,80.343 151.379,80.041L152.019,80.041L151.922,80.947C152.013,80.814 152.112,80.688 152.219,80.57C152.325,80.451 152.443,80.348 152.57,80.259C152.698,80.171 152.837,80.1 152.988,80.048C153.139,79.996 153.305,79.97 153.484,79.97C153.914,79.97 154.211,80.104 154.375,80.373C154.539,80.641 154.565,81.029 154.453,81.537L153.762,81.537C153.801,81.357 153.82,81.205 153.82,81.08C153.82,80.955 153.803,80.854 153.768,80.777C153.732,80.7 153.68,80.644 153.611,80.609C153.542,80.574 153.46,80.556 153.363,80.556C153.176,80.556 152.993,80.613 152.816,80.726C152.639,80.839 152.477,80.988 152.33,81.171C152.183,81.355 152.057,81.561 151.951,81.791C151.846,82.02 151.769,82.25 151.723,82.482L151.426,83.962L150.738,83.962L151.164,81.841Z" style="fill-rule:nonzero;"/>
            <path d="M157.363,79.994C157.533,79.994 157.694,80.005 157.848,80.027C158.001,80.049 158.148,80.081 158.289,80.123L158.906,79.97L158.465,82.162C158.454,82.211 158.443,82.276 158.432,82.357C158.42,82.438 158.406,82.546 158.391,82.683C158.375,82.82 158.355,82.992 158.332,83.199C158.309,83.406 158.281,83.66 158.25,83.962L157.609,83.962L157.707,83.06C157.527,83.373 157.309,83.613 157.053,83.781C156.796,83.949 156.518,84.033 156.219,84.033C156.031,84.033 155.868,84.002 155.728,83.939C155.589,83.877 155.474,83.787 155.383,83.671C155.292,83.556 155.224,83.417 155.18,83.255C155.135,83.094 155.113,82.914 155.113,82.716C155.113,82.341 155.162,81.989 155.26,81.66C155.357,81.33 155.501,81.042 155.691,80.794C155.881,80.547 156.116,80.352 156.396,80.209C156.676,80.065 156.999,79.994 157.363,79.994ZM155.801,82.65C155.801,82.897 155.844,83.091 155.93,83.232C156.016,83.373 156.155,83.443 156.348,83.443C156.46,83.443 156.572,83.417 156.684,83.365C156.796,83.313 156.905,83.241 157.012,83.15C157.118,83.059 157.219,82.951 157.314,82.828C157.409,82.704 157.497,82.571 157.576,82.429C157.656,82.287 157.724,82.139 157.781,81.984C157.838,81.829 157.883,81.675 157.914,81.521L158.074,80.716C157.952,80.664 157.826,80.623 157.697,80.593C157.568,80.563 157.449,80.548 157.34,80.548C157.126,80.548 156.94,80.585 156.781,80.658C156.622,80.731 156.486,80.826 156.371,80.943C156.256,81.06 156.163,81.194 156.09,81.343C156.017,81.493 155.959,81.646 155.916,81.802C155.873,81.959 155.843,82.111 155.826,82.259C155.809,82.408 155.801,82.538 155.801,82.65Z" style="fill-rule:nonzero;"/>
            <path d="M159.793,80.041L160.527,80.041L160.961,82.634L161.055,83.298C161.284,83.09 161.485,82.86 161.658,82.607C161.831,82.354 161.98,82.088 162.103,81.808C162.227,81.528 162.325,81.239 162.398,80.941C162.471,80.643 162.522,80.343 162.551,80.041L163.32,80.041C163.279,80.405 163.198,80.768 163.078,81.13C162.958,81.492 162.807,81.843 162.623,82.181C162.439,82.52 162.226,82.84 161.982,83.142C161.739,83.444 161.473,83.718 161.184,83.962L160.527,83.962L159.793,80.041Z" style="fill-rule:nonzero;"/>
            <path d="M165.672,78.955C165.672,78.874 165.686,78.8 165.715,78.732C165.743,78.664 165.783,78.606 165.834,78.556C165.885,78.507 165.944,78.468 166.012,78.439C166.079,78.41 166.152,78.396 166.23,78.396C166.306,78.396 166.375,78.41 166.437,78.437C166.5,78.464 166.554,78.501 166.6,78.546C166.645,78.592 166.68,78.646 166.705,78.709C166.73,78.771 166.742,78.837 166.742,78.908C166.742,78.988 166.728,79.063 166.699,79.13C166.671,79.198 166.631,79.257 166.58,79.306C166.529,79.356 166.47,79.395 166.402,79.423C166.335,79.452 166.262,79.466 166.184,79.466C166.108,79.466 166.038,79.453 165.975,79.425C165.911,79.398 165.857,79.362 165.812,79.316C165.768,79.27 165.734,79.216 165.709,79.154C165.684,79.091 165.672,79.025 165.672,78.955ZM167.285,83.716C167.105,83.815 166.916,83.893 166.717,83.949C166.518,84.005 166.305,84.033 166.078,84.033C165.893,84.033 165.738,84.007 165.613,83.955C165.488,83.903 165.393,83.82 165.326,83.707C165.26,83.593 165.223,83.448 165.215,83.271C165.207,83.094 165.228,82.879 165.277,82.627L165.543,81.314C165.574,81.166 165.589,81.041 165.588,80.941C165.587,80.841 165.573,80.761 165.547,80.701C165.521,80.641 165.482,80.599 165.432,80.574C165.381,80.549 165.322,80.537 165.254,80.537C165.077,80.537 164.902,80.571 164.73,80.64C164.559,80.709 164.384,80.793 164.207,80.892L164.207,80.291C164.387,80.192 164.576,80.113 164.775,80.056C164.975,79.999 165.187,79.97 165.414,79.97C165.599,79.97 165.754,79.996 165.879,80.048C166.004,80.1 166.1,80.183 166.166,80.296C166.232,80.41 166.269,80.555 166.277,80.732C166.285,80.909 166.264,81.124 166.215,81.377L165.949,82.689C165.921,82.84 165.906,82.965 165.906,83.064C165.906,83.163 165.92,83.242 165.947,83.302C165.975,83.362 166.013,83.405 166.062,83.429C166.112,83.454 166.171,83.466 166.238,83.466C166.415,83.466 166.59,83.432 166.762,83.363C166.934,83.294 167.108,83.211 167.285,83.115L167.285,83.716Z" style="fill-rule:nonzero;"/>
            <path d="M168.598,81.841C168.608,81.792 168.619,81.727 168.631,81.646C168.643,81.565 168.656,81.457 168.672,81.32C168.687,81.183 168.707,81.011 168.73,80.804C168.754,80.597 168.781,80.343 168.812,80.041L169.453,80.041L169.355,80.947C169.538,80.632 169.756,80.39 170.01,80.222C170.264,80.054 170.539,79.97 170.836,79.97C171.25,79.97 171.544,80.095 171.717,80.345C171.89,80.595 171.927,80.964 171.828,81.451L171.324,83.962L170.644,83.962L171.148,81.459C171.213,81.141 171.209,80.911 171.135,80.769C171.06,80.627 170.919,80.556 170.711,80.556C170.544,80.556 170.378,80.613 170.213,80.728C170.047,80.843 169.893,80.992 169.75,81.175C169.607,81.359 169.482,81.565 169.377,81.794C169.271,82.024 169.195,82.253 169.148,82.482L168.852,83.962L168.172,83.962L168.598,81.841Z" style="fill-rule:nonzero;"/>
            <path d="M175.805,83.908C175.641,83.947 175.478,83.975 175.318,83.992C175.158,84.009 175.016,84.017 174.891,84.017C174.625,84.017 174.398,83.988 174.209,83.929C174.02,83.871 173.871,83.778 173.762,83.65C173.652,83.522 173.584,83.358 173.557,83.156C173.529,82.954 173.546,82.709 173.605,82.419L173.965,80.611L172.867,80.611L172.98,80.041L174.074,80.041L174.293,78.962L175.012,78.787L174.754,80.041L176.516,80.041L176.402,80.611L174.644,80.611L174.277,82.443C174.241,82.623 174.227,82.776 174.234,82.902C174.242,83.028 174.273,83.132 174.328,83.212C174.383,83.293 174.462,83.352 174.566,83.388C174.671,83.425 174.803,83.443 174.965,83.443C175.061,83.443 175.182,83.433 175.328,83.414C175.474,83.394 175.633,83.363 175.805,83.322L175.805,83.908Z" style="fill-rule:nonzero;"/>
            <path d="M180.121,83.962L179.441,83.962L179.945,81.459C180.01,81.141 180.006,80.911 179.932,80.769C179.857,80.627 179.716,80.556 179.508,80.556C179.341,80.556 179.175,80.613 179.01,80.728C178.844,80.843 178.69,80.992 178.547,81.175C178.404,81.359 178.279,81.565 178.174,81.794C178.068,82.024 177.992,82.253 177.945,82.482L177.648,83.962L176.969,83.962L178.074,78.443L178.754,78.443L178.434,80.041L178.219,80.873C178.292,80.737 178.379,80.614 178.48,80.503C178.582,80.393 178.693,80.298 178.814,80.218C178.935,80.139 179.065,80.078 179.203,80.035C179.341,79.992 179.484,79.97 179.633,79.97C180.047,79.97 180.34,80.095 180.512,80.345C180.684,80.595 180.721,80.964 180.625,81.451L180.121,83.962Z" style="fill-rule:nonzero;"/>
            <path d="M183.047,82.732C183.141,82.732 183.226,82.749 183.303,82.783C183.38,82.817 183.445,82.862 183.5,82.919C183.555,82.977 183.597,83.044 183.627,83.121C183.657,83.197 183.672,83.278 183.672,83.361C183.672,83.455 183.654,83.543 183.617,83.625C183.581,83.707 183.532,83.778 183.471,83.839C183.409,83.901 183.338,83.948 183.256,83.982C183.174,84.016 183.088,84.033 183,84.033C182.909,84.033 182.825,84.016 182.75,83.982C182.674,83.948 182.609,83.903 182.553,83.845C182.497,83.788 182.453,83.722 182.422,83.648C182.391,83.574 182.375,83.495 182.375,83.412C182.375,83.315 182.393,83.225 182.43,83.142C182.466,83.059 182.516,82.987 182.578,82.927C182.641,82.867 182.712,82.82 182.793,82.785C182.874,82.75 182.958,82.732 183.047,82.732Z" style="fill-rule:nonzero;"/>
            <path d="M187.664,78.955C187.664,78.874 187.678,78.8 187.707,78.732C187.736,78.664 187.775,78.606 187.826,78.556C187.877,78.507 187.936,78.468 188.004,78.439C188.072,78.41 188.144,78.396 188.223,78.396C188.298,78.396 188.367,78.41 188.43,78.437C188.492,78.464 188.546,78.501 188.592,78.546C188.637,78.592 188.672,78.646 188.697,78.709C188.722,78.771 188.734,78.837 188.734,78.908C188.734,78.988 188.72,79.063 188.691,79.13C188.663,79.198 188.623,79.257 188.572,79.306C188.521,79.356 188.462,79.395 188.394,79.423C188.327,79.452 188.254,79.466 188.176,79.466C188.1,79.466 188.031,79.453 187.967,79.425C187.903,79.398 187.849,79.362 187.805,79.316C187.76,79.27 187.726,79.216 187.701,79.154C187.676,79.091 187.664,79.025 187.664,78.955ZM189.277,83.716C189.098,83.815 188.908,83.893 188.709,83.949C188.51,84.005 188.297,84.033 188.07,84.033C187.885,84.033 187.73,84.007 187.605,83.955C187.48,83.903 187.385,83.82 187.318,83.707C187.252,83.593 187.215,83.448 187.207,83.271C187.199,83.094 187.22,82.879 187.269,82.627L187.535,81.314C187.566,81.166 187.581,81.041 187.58,80.941C187.579,80.841 187.565,80.761 187.539,80.701C187.513,80.641 187.475,80.599 187.424,80.574C187.373,80.549 187.314,80.537 187.246,80.537C187.069,80.537 186.894,80.571 186.723,80.64C186.551,80.709 186.376,80.793 186.199,80.892L186.199,80.291C186.379,80.192 186.568,80.113 186.768,80.056C186.967,79.999 187.18,79.97 187.406,79.97C187.591,79.97 187.746,79.996 187.871,80.048C187.996,80.1 188.092,80.183 188.158,80.296C188.225,80.41 188.262,80.555 188.269,80.732C188.277,80.909 188.256,81.124 188.207,81.377L187.941,82.689C187.913,82.84 187.898,82.965 187.898,83.064C187.898,83.163 187.912,83.242 187.939,83.302C187.967,83.362 188.005,83.405 188.055,83.429C188.104,83.454 188.163,83.466 188.23,83.466C188.408,83.466 188.582,83.432 188.754,83.363C188.926,83.294 189.1,83.211 189.277,83.115L189.277,83.716Z" style="fill-rule:nonzero;"/>
            <path d="M190.59,81.841C190.6,81.792 190.611,81.727 190.623,81.646C190.635,81.565 190.648,81.457 190.664,81.32C190.68,81.183 190.699,81.011 190.723,80.804C190.746,80.597 190.773,80.343 190.805,80.041L191.445,80.041L191.348,80.947C191.53,80.632 191.748,80.39 192.002,80.222C192.256,80.054 192.531,79.97 192.828,79.97C193.242,79.97 193.536,80.095 193.709,80.345C193.882,80.595 193.919,80.964 193.82,81.451L193.316,83.962L192.637,83.962L193.141,81.459C193.206,81.141 193.201,80.911 193.127,80.769C193.053,80.627 192.911,80.556 192.703,80.556C192.536,80.556 192.37,80.613 192.205,80.728C192.04,80.843 191.885,80.992 191.742,81.175C191.599,81.359 191.475,81.565 191.369,81.794C191.264,82.024 191.187,82.253 191.141,82.482L190.844,83.962L190.164,83.962L190.59,81.841Z" style="fill-rule:nonzero;"/>
            <path d="M196.187,84.033C196.133,84.304 196.056,84.537 195.957,84.734C195.858,84.931 195.732,85.093 195.58,85.222C195.428,85.351 195.247,85.447 195.037,85.509C194.827,85.572 194.585,85.603 194.309,85.603C194.256,85.603 194.194,85.602 194.121,85.599C194.048,85.597 193.986,85.593 193.934,85.587L194.043,85.002C194.163,85.017 194.275,85.025 194.379,85.025C194.689,85.025 194.936,84.946 195.121,84.787C195.306,84.628 195.432,84.377 195.5,84.033L196.074,81.177L194.812,81.177L194.926,80.611L196.187,80.611L196.316,79.962C196.421,79.444 196.624,79.054 196.926,78.791C197.228,78.528 197.651,78.396 198.195,78.396C198.333,78.396 198.485,78.404 198.65,78.419C198.816,78.435 198.979,78.459 199.141,78.49L199.019,79.068C198.871,79.034 198.722,79.008 198.572,78.99C198.422,78.972 198.273,78.962 198.125,78.962C197.815,78.962 197.568,79.046 197.383,79.212C197.198,79.379 197.072,79.629 197.004,79.962L196.875,80.611L198.598,80.611L198.484,81.177L196.766,81.177L196.187,84.033Z" style="fill-rule:nonzero;"/>
            <path d="M200.539,84.033C200.07,84.033 199.705,83.912 199.443,83.671C199.182,83.431 199.051,83.069 199.051,82.587C199.051,82.371 199.074,82.157 199.119,81.945C199.165,81.733 199.232,81.53 199.32,81.335C199.409,81.141 199.518,80.961 199.648,80.794C199.779,80.628 199.928,80.483 200.098,80.361C200.267,80.238 200.454,80.143 200.658,80.074C200.863,80.005 201.085,79.97 201.324,79.97C201.559,79.97 201.768,80.001 201.951,80.062C202.135,80.123 202.29,80.214 202.416,80.335C202.542,80.457 202.639,80.608 202.707,80.789C202.775,80.97 202.809,81.18 202.809,81.419C202.809,81.633 202.786,81.846 202.74,82.058C202.695,82.27 202.628,82.474 202.539,82.668C202.45,82.862 202.341,83.042 202.211,83.209C202.081,83.375 201.932,83.52 201.764,83.642C201.596,83.765 201.409,83.86 201.203,83.929C200.997,83.998 200.776,84.033 200.539,84.033ZM202.113,81.49C202.113,81.175 202.039,80.939 201.891,80.783C201.742,80.627 201.526,80.548 201.242,80.548C201.081,80.548 200.931,80.576 200.793,80.632C200.655,80.688 200.531,80.765 200.42,80.863C200.309,80.96 200.212,81.074 200.127,81.203C200.042,81.332 199.972,81.468 199.916,81.613C199.86,81.757 199.818,81.907 199.789,82.062C199.76,82.217 199.746,82.367 199.746,82.513C199.746,82.828 199.82,83.065 199.969,83.222C200.117,83.38 200.333,83.459 200.617,83.459C200.781,83.459 200.932,83.431 201.068,83.375C201.205,83.319 201.329,83.242 201.439,83.144C201.55,83.046 201.648,82.933 201.732,82.804C201.817,82.675 201.887,82.538 201.943,82.392C201.999,82.246 202.042,82.096 202.07,81.941C202.099,81.786 202.113,81.636 202.113,81.49Z" style="fill-rule:nonzero;"/>
        </g>
        <g id="arabeat" transform="matrix(0.321546,0,0,0.321546,-799.143,-555.002)">
            <g transform="matrix(1,0,0,1,221.191,28.3271)">
                <path d="M2829.43,2088.71C2827.02,2088.71 2825.1,2087.83 2823.66,2086.08C2822.22,2084.33 2821.5,2082.04 2821.5,2079.2C2821.5,2076.09 2822.22,2073.14 2823.66,2070.36C2825.1,2067.58 2827.01,2065.34 2829.4,2063.65C2831.8,2061.96 2834.33,2061.12 2837.02,2061.12C2837.87,2061.12 2838.45,2061.28 2838.74,2061.61C2839.03,2061.94 2839.27,2062.53 2839.47,2063.39C2840.28,2063.23 2841.14,2063.16 2842.03,2063.16C2843.94,2063.16 2844.89,2063.84 2844.89,2065.2C2844.89,2066.01 2844.6,2067.96 2844.02,2071.03C2843.12,2075.5 2842.67,2078.62 2842.67,2080.37C2842.67,2080.95 2842.82,2081.41 2843.11,2081.76C2843.4,2082.12 2843.78,2082.29 2844.25,2082.29C2844.99,2082.29 2845.88,2081.81 2846.93,2080.86C2847.98,2079.91 2849.4,2078.36 2851.19,2076.22C2851.66,2075.68 2852.18,2075.41 2852.77,2075.41C2853.27,2075.41 2853.67,2075.64 2853.96,2076.11C2854.25,2076.57 2854.4,2077.22 2854.4,2078.03C2854.4,2079.59 2854.03,2080.79 2853.29,2081.65C2851.7,2083.63 2850.01,2085.3 2848.22,2086.66C2846.43,2088.03 2844.7,2088.71 2843.02,2088.71C2841.74,2088.71 2840.57,2088.27 2839.49,2087.39C2838.43,2086.52 2837.62,2085.32 2837.07,2083.81C2835.05,2087.07 2832.51,2088.71 2829.43,2088.71ZM2831.53,2082.82C2832.39,2082.82 2833.2,2082.31 2833.98,2081.3C2834.76,2080.29 2835.32,2078.95 2835.67,2077.27L2837.83,2066.54C2836.2,2066.58 2834.69,2067.19 2833.31,2068.38C2831.93,2069.56 2830.83,2071.13 2830.02,2073.07C2829.2,2075.02 2828.79,2077.08 2828.79,2079.26C2828.79,2080.46 2829.03,2081.36 2829.52,2081.94C2830.01,2082.52 2830.68,2082.82 2831.53,2082.82Z" style="fill:rgb(204,0,0);fill-rule:nonzero;"/>
                <path d="M2853.82,2088.71C2852.34,2088.71 2851.3,2087.93 2850.7,2086.37C2850.09,2084.82 2849.79,2082.33 2849.79,2078.91C2849.79,2073.85 2850.51,2069.05 2851.95,2064.5C2852.3,2063.37 2852.87,2062.54 2853.67,2062.02C2854.47,2061.49 2855.59,2061.23 2857.02,2061.23C2857.8,2061.23 2858.35,2061.33 2858.66,2061.52C2858.97,2061.72 2859.12,2062.09 2859.12,2062.63C2859.12,2063.25 2858.83,2064.65 2858.25,2066.83C2857.86,2068.39 2857.55,2069.75 2857.32,2070.91C2857.08,2072.08 2856.89,2073.52 2856.73,2075.23C2858.02,2071.89 2859.45,2069.16 2861.05,2067.07C2862.64,2064.97 2864.21,2063.47 2865.74,2062.57C2867.28,2061.68 2868.69,2061.23 2869.97,2061.23C2872.5,2061.23 2873.77,2062.5 2873.77,2065.02C2873.77,2065.53 2873.59,2066.75 2873.24,2068.7C2872.93,2070.25 2872.77,2071.23 2872.77,2071.62C2872.77,2072.98 2873.26,2073.66 2874.23,2073.66C2875.32,2073.66 2876.72,2072.8 2878.43,2071.09C2878.94,2070.58 2879.46,2070.33 2880.01,2070.33C2880.51,2070.33 2880.91,2070.55 2881.2,2071C2881.49,2071.45 2881.64,2072.04 2881.64,2072.78C2881.64,2074.22 2881.25,2075.35 2880.47,2076.16C2879.39,2077.29 2878.11,2078.26 2876.65,2079.05C2875.2,2079.85 2873.65,2080.25 2872.02,2080.25C2869.95,2080.25 2868.39,2079.72 2867.32,2078.67C2866.25,2077.62 2865.72,2076.2 2865.72,2074.41C2865.72,2073.83 2865.77,2073.25 2865.89,2072.66C2865.97,2071.89 2866.01,2071.36 2866.01,2071.09C2866.01,2070.47 2865.79,2070.16 2865.37,2070.16C2864.78,2070.16 2864.01,2070.81 2863.06,2072.11C2862.11,2073.41 2861.17,2075.13 2860.23,2077.27C2859.3,2079.41 2858.54,2081.67 2857.96,2084.04C2857.53,2085.87 2857.03,2087.1 2856.47,2087.74C2855.91,2088.39 2855.02,2088.71 2853.82,2088.71Z" style="fill:rgb(204,0,0);fill-rule:nonzero;"/>
                <path d="M2883.39,2088.71C2880.98,2088.71 2879.05,2087.83 2877.62,2086.08C2876.18,2084.33 2875.46,2082.04 2875.46,2079.2C2875.46,2076.09 2876.18,2073.14 2877.62,2070.36C2879.05,2067.58 2880.97,2065.34 2883.36,2063.65C2885.75,2061.96 2888.29,2061.12 2890.97,2061.12C2891.83,2061.12 2892.4,2061.28 2892.7,2061.61C2892.99,2061.94 2893.23,2062.53 2893.42,2063.39C2894.24,2063.23 2895.1,2063.16 2895.99,2063.16C2897.9,2063.16 2898.85,2063.84 2898.85,2065.2C2898.85,2066.01 2898.56,2067.96 2897.97,2071.03C2897.08,2075.5 2896.63,2078.62 2896.63,2080.37C2896.63,2080.95 2896.78,2081.41 2897.07,2081.76C2897.36,2082.12 2897.74,2082.29 2898.21,2082.29C2898.95,2082.29 2899.84,2081.81 2900.89,2080.86C2901.94,2079.91 2903.36,2078.36 2905.15,2076.22C2905.62,2075.68 2906.14,2075.41 2906.72,2075.41C2907.23,2075.41 2907.63,2075.64 2907.92,2076.11C2908.21,2076.57 2908.36,2077.22 2908.36,2078.03C2908.36,2079.59 2907.99,2080.79 2907.25,2081.65C2905.66,2083.63 2903.96,2085.3 2902.17,2086.66C2900.39,2088.03 2898.66,2088.71 2896.98,2088.71C2895.7,2088.71 2894.52,2088.27 2893.45,2087.39C2892.38,2086.52 2891.58,2085.32 2891.03,2083.81C2889.01,2087.07 2886.46,2088.71 2883.39,2088.71ZM2885.49,2082.82C2886.35,2082.82 2887.16,2082.31 2887.94,2081.3C2888.72,2080.29 2889.28,2078.95 2889.63,2077.27L2891.79,2066.54C2890.16,2066.58 2888.65,2067.19 2887.27,2068.38C2885.89,2069.56 2884.79,2071.13 2883.97,2073.07C2883.16,2075.02 2882.75,2077.08 2882.75,2079.26C2882.75,2080.46 2882.99,2081.36 2883.48,2081.94C2883.97,2082.52 2884.64,2082.82 2885.49,2082.82Z" style="fill:rgb(204,0,0);fill-rule:nonzero;"/>
                <path d="M2951.47,2051.08C2951.47,2054.39 2950.3,2057.24 2947.97,2059.63C2945.63,2062.02 2942.23,2063.74 2937.76,2064.79C2940.17,2065.45 2942,2066.53 2943.24,2068.03C2944.49,2069.53 2945.11,2071.25 2945.11,2073.19C2945.11,2076.26 2944.14,2078.93 2942.22,2081.18C2940.3,2083.44 2937.49,2085.18 2933.79,2086.4C2930.1,2087.63 2925.64,2088.24 2920.43,2088.24C2918.49,2088.24 2916.93,2088.18 2915.77,2088.07C2915.73,2089.15 2915.26,2089.97 2914.37,2090.51C2913.47,2091.06 2912.32,2091.33 2910.92,2091.33C2909.52,2091.33 2908.56,2091.02 2908.04,2090.4C2907.51,2089.78 2907.29,2088.86 2907.37,2087.66C2907.72,2082.21 2908.4,2076.51 2909.41,2070.54C2910.42,2064.57 2911.7,2058.8 2913.26,2053.24C2913.53,2052.27 2914.07,2051.59 2914.89,2051.2C2915.71,2050.81 2916.78,2050.62 2918.1,2050.62C2920.47,2050.62 2921.66,2051.28 2921.66,2052.6C2921.66,2053.14 2921.54,2053.76 2921.31,2054.47C2920.3,2057.5 2919.29,2061.61 2918.27,2066.8C2917.26,2071.99 2916.54,2076.94 2916.12,2081.65C2917.98,2081.8 2919.5,2081.88 2920.67,2081.88C2926.11,2081.88 2930.11,2081.09 2932.65,2079.52C2935.2,2077.94 2936.47,2075.93 2936.47,2073.48C2936.47,2071.77 2935.74,2070.33 2934.29,2069.16C2932.83,2068 2930.39,2067.36 2926.97,2067.24C2926.19,2067.2 2925.64,2067.01 2925.33,2066.66C2925.02,2066.31 2924.87,2065.74 2924.87,2064.97C2924.87,2063.84 2925.1,2062.92 2925.57,2062.22C2926.03,2061.52 2926.89,2061.15 2928.13,2061.12C2930.89,2061.04 2933.39,2060.63 2935.63,2059.89C2937.87,2059.15 2939.62,2058.11 2940.91,2056.77C2942.19,2055.43 2942.83,2053.86 2942.83,2052.07C2942.83,2049.82 2941.72,2048.04 2939.51,2046.74C2937.29,2045.43 2933.89,2044.78 2929.3,2044.78C2925.14,2044.78 2921.11,2045.32 2917.22,2046.39C2913.34,2047.46 2910.03,2048.81 2907.31,2050.44C2906.06,2051.18 2905.01,2051.55 2904.16,2051.55C2903.46,2051.55 2902.92,2051.3 2902.55,2050.82C2902.18,2050.33 2902,2049.72 2902,2048.98C2902,2048.01 2902.2,2047.17 2902.61,2046.47C2903.02,2045.77 2904,2044.98 2905.56,2044.08C2908.82,2042.22 2912.66,2040.76 2917.05,2039.71C2921.44,2038.66 2925.94,2038.13 2930.52,2038.13C2937.56,2038.13 2942.81,2039.32 2946.27,2041.69C2949.74,2044.06 2951.47,2047.19 2951.47,2051.08Z" style="fill:rgb(204,0,0);fill-rule:nonzero;"/>
                <path d="M2975.85,2075.41C2976.36,2075.41 2976.75,2075.64 2977.05,2076.11C2977.34,2076.57 2977.48,2077.22 2977.48,2078.03C2977.48,2079.59 2977.11,2080.79 2976.37,2081.65C2974.94,2083.4 2972.9,2085.01 2970.28,2086.49C2967.65,2087.97 2964.84,2088.71 2961.85,2088.71C2957.77,2088.71 2954.6,2087.6 2952.34,2085.38C2950.09,2083.16 2948.96,2080.13 2948.96,2076.28C2948.96,2073.6 2949.52,2071.1 2950.65,2068.79C2951.78,2066.47 2953.34,2064.63 2955.35,2063.27C2957.35,2061.91 2959.61,2061.23 2962.14,2061.23C2964.4,2061.23 2966.2,2061.9 2967.57,2063.24C2968.93,2064.59 2969.61,2066.4 2969.61,2068.7C2969.61,2071.38 2968.64,2073.69 2966.72,2075.61C2964.8,2077.54 2961.54,2079.06 2956.95,2080.19C2957.92,2081.98 2959.77,2082.87 2962.49,2082.87C2964.24,2082.87 2966.23,2082.26 2968.47,2081.04C2970.71,2079.81 2972.64,2078.21 2974.27,2076.22C2974.74,2075.68 2975.27,2075.41 2975.85,2075.41ZM2961.15,2066.95C2959.71,2066.95 2958.49,2067.78 2957.5,2069.46C2956.51,2071.13 2956.02,2073.15 2956.02,2075.52L2956.02,2075.64C2958.31,2075.1 2960.12,2074.28 2961.44,2073.19C2962.76,2072.1 2963.42,2070.84 2963.42,2069.4C2963.42,2068.66 2963.22,2068.07 2962.81,2067.62C2962.4,2067.17 2961.85,2066.95 2961.15,2066.95Z" style="fill:rgb(204,0,0);fill-rule:nonzero;"/>
                <path d="M2979.64,2088.71C2977.23,2088.71 2975.3,2087.83 2973.87,2086.08C2972.43,2084.33 2971.71,2082.04 2971.71,2079.2C2971.71,2076.09 2972.43,2073.14 2973.87,2070.36C2975.3,2067.58 2977.22,2065.34 2979.61,2063.65C2982,2061.96 2984.54,2061.12 2987.22,2061.12C2988.08,2061.12 2988.65,2061.28 2988.95,2061.61C2989.24,2061.94 2989.48,2062.53 2989.67,2063.39C2990.49,2063.23 2991.35,2063.16 2992.24,2063.16C2994.15,2063.16 2995.1,2063.84 2995.1,2065.2C2995.1,2066.01 2994.81,2067.96 2994.22,2071.03C2993.33,2075.5 2992.88,2078.62 2992.88,2080.37C2992.88,2080.95 2993.03,2081.41 2993.32,2081.76C2993.61,2082.12 2993.99,2082.29 2994.46,2082.29C2995.2,2082.29 2996.09,2081.81 2997.14,2080.86C2998.19,2079.91 2999.61,2078.36 3001.4,2076.22C3001.87,2075.68 3002.39,2075.41 3002.97,2075.41C3003.48,2075.41 3003.88,2075.64 3004.17,2076.11C3004.46,2076.57 3004.61,2077.22 3004.61,2078.03C3004.61,2079.59 3004.24,2080.79 3003.5,2081.65C3001.91,2083.63 3000.21,2085.3 2998.42,2086.66C2996.64,2088.03 2994.91,2088.71 2993.23,2088.71C2991.95,2088.71 2990.77,2088.27 2989.7,2087.39C2988.63,2086.52 2987.83,2085.32 2987.28,2083.81C2985.26,2087.07 2982.71,2088.71 2979.64,2088.71ZM2981.74,2082.82C2982.6,2082.82 2983.41,2082.31 2984.19,2081.3C2984.97,2080.29 2985.53,2078.95 2985.88,2077.27L2988.04,2066.54C2986.41,2066.58 2984.9,2067.19 2983.52,2068.38C2982.14,2069.56 2981.04,2071.13 2980.22,2073.07C2979.41,2075.02 2979,2077.08 2979,2079.26C2979,2080.46 2979.24,2081.36 2979.73,2081.94C2980.22,2082.52 2980.89,2082.82 2981.74,2082.82Z" style="fill:rgb(204,0,0);fill-rule:nonzero;"/>
                <path d="M3009.51,2066.77C3009.43,2068.72 3009.39,2070.23 3009.39,2071.32C3009.39,2074.12 3009.54,2076.31 3009.83,2077.89C3010.12,2079.46 3010.61,2080.59 3011.29,2081.27C3011.97,2081.95 3012.91,2082.29 3014.12,2082.29C3014.74,2082.29 3015.48,2082.1 3016.33,2081.71C3017.19,2081.32 3017.97,2080.81 3018.67,2080.19C3019.09,2079.8 3019.52,2079.61 3019.95,2079.61C3020.42,2079.61 3020.8,2079.87 3021.09,2080.39C3021.38,2080.92 3021.52,2081.55 3021.52,2082.29C3021.52,2083.03 3021.38,2083.75 3021.09,2084.45C3020.8,2085.15 3020.36,2085.73 3019.77,2086.2C3017.75,2087.87 3015.46,2088.71 3012.89,2088.71C3009.2,2088.71 3006.49,2087.16 3004.78,2084.07C3003.07,2080.98 3002.22,2076.94 3002.22,2071.97C3002.22,2070.25 3002.27,2068.52 3002.39,2066.77L3000.12,2066.77C2998.95,2066.77 2998.16,2066.56 2997.75,2066.13C2997.35,2065.7 2997.14,2065.02 2997.14,2064.09C2997.14,2061.91 2998.02,2060.82 2999.77,2060.82L3003.09,2060.82C3003.75,2056.55 3004.76,2052.64 3006.12,2049.1C3007.49,2045.56 3009.13,2042.74 3011.05,2040.64C3012.98,2038.54 3015.05,2037.49 3017.27,2037.49C3018.9,2037.49 3020.18,2038.21 3021.12,2039.65C3022.05,2041.09 3022.52,2042.9 3022.52,2045.07C3022.52,2051.1 3019.99,2056.35 3014.93,2060.82L3021.47,2060.82C3022.09,2060.82 3022.54,2060.96 3022.81,2061.23C3023.08,2061.5 3023.22,2062.01 3023.22,2062.75C3023.22,2065.43 3021.02,2066.77 3016.62,2066.77L3009.51,2066.77ZM3015.69,2043.09C3015.11,2043.09 3014.46,2043.82 3013.74,2045.28C3013.02,2046.74 3012.34,2048.76 3011.7,2051.34C3011.05,2053.93 3010.52,2056.8 3010.09,2059.95C3012.39,2057.97 3014.11,2055.74 3015.25,2053.27C3016.4,2050.8 3016.97,2048.55 3016.97,2046.53C3016.97,2044.24 3016.55,2043.09 3015.69,2043.09Z" style="fill:rgb(204,0,0);fill-rule:nonzero;"/>
            </g>
            <g transform="matrix(0.380869,0,0,0.380869,2846.1,2003.97)">
                <g>
                    <g id="FreeVector-Graphics" serif:id="FreeVector Graphics">
                        <g transform="matrix(1,0,0,1,149.453,184.855)">
                            <path d="M0,7.75C0.671,7.416 1.605,7.089 2.771,7.089C3.856,7.072 5.073,7.434 5.959,8.005C6.857,8.576 7.442,9.258 7.833,9.843C8.641,11.103 8.911,12.029 9.233,13.06C9.532,14.072 9.769,15.142 9.991,16.309C10.437,18.627 10.817,21.328 11.176,24.135C11.869,29.588 12.493,35.533 13.082,38.897C13.409,38.943 13.729,38.99 14.098,39.033C16.277,39.292 19.117,39.485 21.745,39.482C23.69,39.493 25.539,39.363 26.807,39.163C26.817,39.019 26.828,38.893 26.843,38.735C26.99,37.059 27.184,34.75 27.42,31.939C27.891,26.328 28.522,18.728 29.27,10.145C30.755,-7.026 32.684,-28.106 34.636,-45.159C35.95,-56.557 37.235,-66.049 38.524,-71.804C38.876,-73.366 39.213,-74.647 39.684,-75.875C39.946,-76.521 40.204,-77.153 40.79,-77.993C41.102,-78.42 41.504,-78.923 42.243,-79.472C42.965,-80.018 44.211,-80.628 45.719,-80.621C46.655,-80.628 47.589,-80.373 48.3,-80.018C49.021,-79.659 49.538,-79.228 49.922,-78.84C50.676,-78.054 50.992,-77.426 51.251,-76.891C51.732,-75.825 51.929,-74.984 52.145,-73.986C52.432,-72.59 52.622,-70.993 52.802,-68.993C52.981,-67.004 53.132,-64.656 53.269,-61.953C53.541,-56.554 53.742,-49.761 53.904,-41.907C54.223,-26.197 54.374,-6.254 54.539,14.955C54.815,50.223 55.139,89.01 56.331,117.313C57.39,118.533 58.449,119.711 59.508,120.896C59.576,120.146 59.644,119.398 59.712,118.642C61.629,96.854 62.886,71.092 64.39,55.083C64.824,50.489 65.266,46.712 65.808,43.83C66.113,42.268 66.386,41.022 66.96,39.636C67.305,38.915 67.61,38.078 68.845,36.933C69.875,36.039 70.956,35.483 71.986,35.084C73.024,34.686 74.036,34.438 75.052,34.262C77.073,33.91 79.127,33.828 81.23,33.82C85.804,33.831 90.708,34.262 94.338,34.258C95.738,34.262 96.919,34.179 97.658,34.072C97.831,33.612 98.028,33.063 98.251,32.377C98.829,30.583 99.525,28.152 100.275,25.413C101.78,19.924 103.514,13.182 105.237,7.179C106.393,3.162 107.531,-0.503 108.687,-3.433C109.365,-5.124 109.982,-6.538 110.941,-7.956C111.49,-8.707 112.068,-9.554 113.515,-10.433C114.262,-10.868 115.354,-11.291 116.656,-11.291C117.672,-11.298 118.735,-11.007 119.55,-10.559C120.376,-10.114 120.964,-9.564 121.392,-9.065C122.4,-7.845 122.767,-6.89 123.162,-5.892C123.531,-4.905 123.822,-3.878 124.099,-2.761C124.647,-0.528 125.122,2.082 125.592,4.957C126.525,10.69 127.419,17.458 128.421,23.302C129.082,27.183 129.813,30.672 130.518,32.912C130.622,33.26 130.729,33.569 130.833,33.849C131.461,33.864 132.165,33.878 133.009,33.889C135.332,33.914 138.401,33.924 141.944,33.924C149.017,33.924 157.984,33.889 166.909,33.889C174.24,33.889 181.542,33.91 187.76,34.007C193.999,34.104 199.069,34.258 202.295,34.56C203.243,34.653 204.014,34.74 204.866,34.926C205.34,35.041 205.799,35.124 206.672,35.54C207.737,36.085 208.391,36.692 208.936,37.249C209.479,37.816 209.895,38.365 210.284,38.922C211.051,40.035 211.69,41.191 212.329,42.411C213.262,44.217 214.161,46.091 215.03,47.846C215.079,47.721 215.129,47.603 215.18,47.477C216.161,45.05 217.118,42.487 218.106,40.218C218.78,38.688 219.413,37.321 220.368,35.938C220.95,35.152 221.573,34.273 223.042,33.386C223.817,32.93 224.944,32.506 226.266,32.51C227.372,32.535 233.352,32.223 236.813,31.189C237.352,31.045 237.811,30.873 238.155,30.722C238.213,30.108 238.278,29.354 238.35,28.393C238.536,25.965 238.758,22.544 239.024,18.355C239.549,9.965 240.215,-1.523 240.977,-14.533C242.514,-40.553 244.438,-72.651 246.399,-98.355C246.579,-100.728 246.764,-103.033 246.944,-105.284C200.745,-100.287 175.546,-73.426 175.389,-73.261C175.198,-73.466 138.031,-113.146 71.078,-105C22.24,-99.059 -12.141,-52.77 -1.777,9.035C-1.357,8.626 -0.836,8.192 0,7.75" style="fill:rgb(219,0,8);fill-rule:nonzero;"/>
                        </g>
                        <g transform="matrix(1,0,0,1,416.693,206.987)">
                            <path d="M0,-62.254C0.668,-16.385 1.242,34.313 2.393,65.894C3.906,57.942 5.473,49.42 7.066,41.575C8.566,34.215 10.074,27.492 11.66,22.254C12.588,19.238 13.479,16.75 14.684,14.589C15.365,13.433 16.076,12.309 17.52,11.182C18.273,10.619 19.309,10.059 20.615,9.836C22.086,9.599 23.559,9.541 25.195,9.538C29.195,9.541 34.127,9.958 38.959,10.36C43.756,10.766 48.465,11.15 51.373,11.146C51.689,11.146 51.977,11.143 52.242,11.132C52.709,10.27 53.297,9.161 53.959,7.919C55.336,5.32 57.018,2.182 58.732,-0.622C59.889,-2.499 61.016,-4.215 62.322,-5.709C63.098,-6.566 63.867,-7.396 65.289,-8.2C66.057,-8.609 67.111,-9.054 68.57,-9.062C69.611,-9.076 70.816,-8.767 71.779,-8.186C72.756,-7.611 73.445,-6.85 73.896,-6.161C74.959,-4.503 75.283,-3.181 75.664,-1.796C76.016,-0.424 76.287,0.98 76.59,2.401C77.156,5.223 77.867,8.113 78.771,9.93C78.938,10.27 79.102,10.554 79.26,10.809C104.096,-62.681 67.42,-120.448 12.465,-127.132C7.727,-127.707 3.152,-128.023 -1.285,-128.148C-0.754,-109.99 -0.357,-86.849 0,-62.254" style="fill:rgb(219,0,8);fill-rule:nonzero;"/>
                        </g>
                        <g transform="matrix(1,0,0,1,194.112,168.682)">
                            <path d="M0,114.736C-0.937,79.845 -1.048,36.374 -1.396,1.759C-1.418,-0.474 -1.443,-2.653 -1.468,-4.807C-2.854,9.399 -4.136,24.028 -5.126,35.695C-6.1,47.126 -6.789,55.641 -7.054,58.344C-7.094,58.71 -7.116,58.947 -7.162,59.267C-7.338,60.57 -7.934,61.78 -8.627,62.627C-9.32,63.488 -10.07,64.052 -10.767,64.48C-12.17,65.309 -13.441,65.675 -14.737,65.97C-17.311,66.533 -20.072,66.677 -22.915,66.688C-26.875,66.68 -30.806,66.346 -33.739,65.898C-28.713,76.976 -22.34,88.325 -14.399,99.852C-9.61,106.809 -4.75,113.336 0.14,119.543C0.089,117.953 0.043,116.366 0,114.736" style="fill:rgb(219,0,8);fill-rule:nonzero;"/>
                        </g>
                        <g transform="matrix(1,0,0,1,489.937,271.459)">
                            <path d="M0,-43.995C-1.725,-45.381 -2.945,-47.047 -3.871,-48.716C-5.314,-51.351 -6.117,-54.061 -6.721,-56.56C-7.756,-54.736 -8.781,-52.823 -9.693,-51.107C-10.727,-49.158 -11.582,-47.531 -12.314,-46.314C-12.516,-45.977 -12.709,-45.672 -13.004,-45.269C-14.096,-43.88 -15.164,-43.417 -15.939,-43.091C-16.744,-42.782 -17.398,-42.645 -18.037,-42.541C-19.301,-42.344 -20.514,-42.301 -21.871,-42.297C-25.604,-42.305 -30.379,-42.724 -35.203,-43.123C-39.992,-43.525 -44.824,-43.909 -48.049,-43.905C-48.486,-43.909 -48.881,-43.898 -49.248,-43.884C-49.736,-42.879 -50.383,-41.181 -51.029,-39.034C-52.465,-34.303 -53.994,-27.51 -55.51,-20.025C-58.539,-5.018 -61.512,12.719 -64.348,24.214C-65.174,27.525 -65.971,30.314 -66.875,32.615C-67.377,33.857 -67.865,34.953 -68.684,36.112L-68.691,36.119C-68.986,36.529 -69.387,37.027 -70.127,37.562C-70.846,38.087 -72.066,38.639 -73.467,38.632C-74.363,38.635 -75.24,38.406 -75.906,38.087C-76.59,37.767 -77.078,37.376 -77.451,37.031C-78.176,36.32 -78.484,35.763 -78.729,35.304C-79.188,34.4 -79.354,33.771 -79.533,33.086C-79.855,31.754 -80.078,30.289 -80.295,28.44C-80.717,24.775 -81.07,19.716 -81.385,13.417C-82.018,0.83 -82.49,-16.643 -82.887,-36.539C-83.646,-74.74 -84.113,-121.837 -84.818,-159.905C-84.975,-157.542 -85.133,-155.166 -85.283,-152.775C-87.891,-112.941 -90.166,-69.951 -91.18,-56.851C-91.322,-55.067 -91.416,-53.907 -91.553,-52.984C-91.596,-52.715 -91.617,-52.514 -91.76,-51.972C-92.285,-50.138 -93.383,-48.791 -94.432,-47.883C-95.502,-46.96 -96.586,-46.365 -97.662,-45.876C-99.816,-44.925 -102.027,-44.397 -104.203,-43.995C-107.039,-43.493 -109.746,-43.259 -111.734,-43.151C-111.879,-42.85 -112.029,-42.527 -112.195,-42.157C-113.172,-39.946 -114.355,-36.7 -115.684,-33.527C-116.582,-31.401 -117.529,-29.298 -118.686,-27.359C-119.191,-26.534 -119.842,-25.664 -120.889,-24.881C-121.908,-24.103 -123.453,-23.514 -124.943,-23.532C-126.611,-23.539 -127.934,-24.135 -128.842,-24.72C-129.764,-25.324 -130.396,-25.955 -130.949,-26.577C-132.033,-27.822 -132.813,-29.104 -133.584,-30.465C-135.092,-33.161 -136.459,-36.205 -137.67,-38.578C-138.176,-39.598 -138.674,-40.466 -139.037,-41.044C-139.504,-41.091 -140.049,-41.138 -140.734,-41.184C-142.781,-41.317 -145.664,-41.425 -149.049,-41.496C-155.83,-41.651 -164.673,-41.69 -173.576,-41.687C-182.472,-41.687 -191.433,-41.651 -198.541,-41.651C-203.897,-41.651 -208.162,-41.669 -210.7,-41.751C-211.569,-41.78 -212.19,-41.806 -212.861,-41.877C-214.103,-42.014 -215.194,-42.502 -215.988,-43.047C-216.789,-43.597 -217.352,-44.196 -217.804,-44.764C-218.698,-45.912 -219.219,-47.004 -219.696,-48.16C-220.623,-50.453 -221.283,-53.063 -221.912,-56.025C-223.121,-61.787 -224.087,-68.78 -225.027,-75.034C-227.243,-67.201 -229.5,-58.133 -231.317,-52.184C-231.87,-50.396 -232.365,-48.895 -232.918,-47.585C-233.234,-46.874 -233.51,-46.239 -234.11,-45.377C-235.047,-44.071 -236.221,-43.277 -237.262,-42.767C-238.321,-42.258 -239.312,-41.981 -240.285,-41.784C-242.22,-41.4 -244.133,-41.328 -246.147,-41.317C-250.513,-41.328 -255.377,-41.759 -259.254,-41.755C-260.694,-41.755 -261.979,-41.69 -262.948,-41.568C-263.229,-41.536 -263.469,-41.496 -263.688,-41.45C-263.752,-41.152 -263.821,-40.847 -263.889,-40.466C-264.248,-38.495 -264.618,-35.541 -264.973,-31.962C-265.684,-24.782 -266.352,-15.024 -267.063,-4.372C-268.146,11.862 -269.317,30.099 -270.972,45.03C-216.559,100.964 -165.416,115.817 -165.104,115.903L-165.104,115.91L-165.096,115.906C-165.093,115.906 -165.085,115.91 -165.085,115.91L-165.085,115.903C-164.697,115.796 -86.023,92.999 -19.961,-2.925C-10.613,-16.502 -3.447,-29.833 1.895,-42.76C1.221,-43.13 0.574,-43.532 0,-43.995" style="fill:rgb(219,0,8);fill-rule:nonzero;"/>
                        </g>
                    </g>
                </g>
            </g>
        </g>
    </g>
</svg>
