<?xml version="1.0" encoding="UTF-8" standalone="no"?>
<!DOCTYPE svg PUBLIC "-//W3C//DTD SVG 1.1//EN" "http://www.w3.org/Graphics/SVG/1.1/DTD/svg11.dtd">
<svg width="100%" height="100%" viewBox="0 0 306 191" version="1.1" xmlns="http://www.w3.org/2000/svg" xmlns:xlink="http://www.w3.org/1999/xlink" xml:space="preserve" xmlns:serif="http://www.serif.com/" style="fill-rule:evenodd;clip-rule:evenodd;stroke-linejoin:round;stroke-miterlimit:1.41421;">
    <g transform="matrix(1,0,0,1,-36.3718,-22.755)">
        <g id="outline" transform="matrix(-1.17478,-1.43869e-16,1.43869e-16,-1.17478,403.568,347.303)">
            <path d="M56.783,170.526L57.244,170.526L57.244,272.244C57.244,274.15 58.79,275.695 60.696,275.695L304.635,275.695C306.541,275.695 308.087,274.15 308.087,272.244L308.087,170.526L308.546,170.526C310.453,170.526 311.998,168.887 311.998,166.865L311.998,129.771C311.998,127.75 310.453,126.111 308.546,126.111L307.972,126.111L307.972,118.286C307.972,116.38 306.426,114.834 304.52,114.834L60.811,114.834C58.905,114.834 57.359,116.38 57.359,118.286L57.359,126.111L56.783,126.111C54.877,126.111 53.332,127.75 53.332,129.771L53.332,166.865C53.332,168.887 54.877,170.526 56.783,170.526Z" style="fill:none;stroke:black;stroke-width:1.13px;"/>
        </g>
        <g id="silk-screen" transform="matrix(0.321056,0,0,0.321056,37.0385,21.5724)">
            <path d="M891.334,442.086L55.154,442.086L55.154,88.415L95.572,47.997L850.911,47.997L891.334,88.415L891.334,442.086Z" style="fill:none;stroke:black;stroke-width:4.15px;"/>
            <g transform="matrix(-3.65911,-4.48112e-16,4.48112e-16,-3.65911,1141.63,1008.8)">
                <path d="M283.232,246.009L82.097,246.009C81.716,246.009 81.406,245.7 81.406,245.318C81.406,244.937 81.716,244.628 82.097,244.628L283.232,244.628C283.613,244.628 283.923,244.937 283.923,245.318C283.923,245.7 283.613,246.009 283.232,246.009Z" style="fill:none;stroke:black;stroke-width:1.13px;"/>
            </g>
            <g transform="matrix(-3.65911,-4.48112e-16,4.48112e-16,-3.65911,1141.63,1008.8)">
                <path d="M283.232,228.49L82.097,228.49C81.716,228.49 81.406,228.181 81.406,227.8C81.406,227.418 81.716,227.109 82.097,227.109L283.232,227.109C283.613,227.109 283.923,227.418 283.923,227.8C283.923,228.181 283.613,228.49 283.232,228.49Z" style="fill:none;stroke:black;stroke-width:1.13px;"/>
            </g>
            <g transform="matrix(-3.38869,-4.14995e-16,4.14995e-16,-3.38869,1092.24,971.889)">
                <path d="M94.211,114.303L103.532,143.069C105.18,148.284 110.331,147.989 110.55,147.978L110.668,147.973L254.782,147.978C254.991,147.991 260.17,148.225 261.795,143.081L271.119,114.303L274.403,115.366L265.083,144.133C263.14,150.286 257.417,151.594 254.608,151.425L110.723,151.425C107.914,151.594 102.191,150.286 100.244,144.121L90.927,115.366L94.211,114.303Z" style="fill:none;stroke:black;stroke-width:1.23px;"/>
            </g>
            <g transform="matrix(-3.65911,-4.48112e-16,4.48112e-16,-3.65911,1141.63,1008.8)">
                <path d="M141.501,128.125C141.501,125.265 143.819,122.946 146.679,122.946C149.538,122.946 151.856,125.265 151.856,128.125C151.856,130.984 149.538,133.302 146.679,133.302C143.819,133.302 141.501,130.984 141.501,128.125Z" style="fill:none;stroke:black;stroke-width:1.13px;"/>
            </g>
            <g transform="matrix(-3.65911,-4.48112e-16,4.48112e-16,-3.65911,1141.63,1008.8)">
                <path d="M115.797,123.867C115.797,121.007 118.114,118.689 120.975,118.689C123.834,118.689 126.152,121.007 126.152,123.867C126.152,126.727 123.834,129.045 120.975,129.045C118.114,129.045 115.797,126.727 115.797,123.867Z" style="fill:none;stroke:black;stroke-width:1.13px;"/>
            </g>
            <g transform="matrix(-3.65911,-4.48112e-16,4.48112e-16,-3.65911,1141.63,1008.8)">
                <path d="M239.179,123.867C239.179,121.007 241.497,118.689 244.356,118.689C247.216,118.689 249.534,121.007 249.534,123.867C249.534,126.727 247.216,129.045 244.356,129.045C241.497,129.045 239.179,126.727 239.179,123.867Z" style="fill:none;stroke:black;stroke-width:1.13px;"/>
            </g>
            <g transform="matrix(-3.65911,-4.48112e-16,4.48112e-16,-3.65911,1141.63,1008.8)">
                <path d="M213.474,128.125C213.474,125.265 215.792,122.946 218.652,122.946C221.512,122.946 223.83,125.265 223.83,128.125C223.83,130.984 221.512,133.302 218.652,133.302C215.792,133.302 213.474,130.984 213.474,128.125Z" style="fill:none;stroke:black;stroke-width:1.13px;"/>
            </g>
            <g id="L-B">
                <g transform="matrix(-3.65911,-4.48112e-16,4.48112e-16,-3.65911,1141.63,1008.8)">
                    <path d="M299.23,119.552C296.706,119.552 294.605,121.36 294.147,123.752L304.313,123.752C303.855,121.36 301.756,119.552 299.23,119.552Z" style="fill:none;stroke:black;stroke-width:1.13px;"/>
                </g>
                <g transform="matrix(-3.65911,-4.48112e-16,4.48112e-16,-3.65911,1141.63,1008.8)">
                    <path d="M299.23,129.908C301.756,129.908 303.855,128.1 304.313,125.708L294.147,125.708C294.605,128.1 296.706,129.908 299.23,129.908Z" style="fill:none;stroke:black;stroke-width:1.13px;"/>
                </g>
            </g>
            <g id="L-T">
                <g transform="matrix(-3.65911,-4.48112e-16,4.48112e-16,-3.65911,1141.63,1008.8)">
                    <path d="M299.23,261.082C296.706,261.082 294.605,262.89 294.147,265.282L304.313,265.282C303.855,262.89 301.756,261.082 299.23,261.082Z" style="fill:none;stroke:black;stroke-width:1.13px;"/>
                </g>
                <g transform="matrix(-3.65911,-4.48112e-16,4.48112e-16,-3.65911,1141.63,1008.8)">
                    <path d="M299.23,271.438C301.756,271.438 303.855,269.63 304.313,267.238L294.147,267.238C294.605,269.63 296.706,271.438 299.23,271.438Z" style="fill:none;stroke:black;stroke-width:1.13px;"/>
                </g>
            </g>
            <g id="R-B">
                <g transform="matrix(-3.65911,-4.48112e-16,4.48112e-16,-3.65911,1141.63,1008.8)">
                    <path d="M66.1,119.552C63.574,119.552 61.475,121.36 61.017,123.752L71.183,123.752C70.725,121.36 68.625,119.552 66.1,119.552Z" style="fill:none;stroke:black;stroke-width:1.13px;"/>
                </g>
                <g transform="matrix(-3.65911,-4.48112e-16,4.48112e-16,-3.65911,1141.63,1008.8)">
                    <path d="M66.1,129.908C68.625,129.908 70.725,128.1 71.183,125.708L61.017,125.708C61.475,128.1 63.574,129.908 66.1,129.908Z" style="fill:none;stroke:black;stroke-width:1.13px;"/>
                </g>
            </g>
            <g id="R-T">
                <g transform="matrix(-3.65911,-4.48112e-16,4.48112e-16,-3.65911,1141.63,1008.8)">
                    <path d="M66.1,261.082C63.574,261.082 61.475,262.89 61.017,265.282L71.183,265.282C70.725,262.89 68.625,261.082 66.1,261.082Z" style="fill:none;stroke:black;stroke-width:1.13px;"/>
                </g>
                <g transform="matrix(-3.65911,-4.48112e-16,4.48112e-16,-3.65911,1141.63,1008.8)">
                    <path d="M66.1,271.438C68.625,271.438 70.725,269.63 71.183,267.238L61.017,267.238C61.475,269.63 63.574,271.438 66.1,271.438Z" style="fill:none;stroke:black;stroke-width:1.13px;"/>
                </g>
            </g>
        </g>
        <g id="mark" transform="matrix(8,0,0,5,-926.842,-450.964)">
            <g transform="matrix(1,0,0,1.64094,0,-60.8103)">
                <path d="M139.477,94.877L139.477,117.91" style="fill:none;stroke:black;stroke-width:0.03px;stroke-linecap:round;stroke-miterlimit:1.5;"/>
            </g>
            <g transform="matrix(1.44008,0,0,1,-64.9284,6.69903)">
                <path d="M128.818,107.076L155.063,107.076" style="fill:none;stroke:black;stroke-width:0.03px;stroke-linecap:round;stroke-miterlimit:1.5;"/>
            </g>
        </g>
    </g>
</svg>
