<?xml version="1.0" encoding="UTF-8" standalone="no"?>
<!DOCTYPE svg PUBLIC "-//W3C//DTD SVG 1.1//EN" "http://www.w3.org/Graphics/SVG/1.1/DTD/svg11.dtd">
<svg width="100%" height="100%" viewBox="0 0 5906 4134" version="1.1" xmlns="http://www.w3.org/2000/svg" xmlns:xlink="http://www.w3.org/1999/xlink" xml:space="preserve" xmlns:serif="http://www.serif.com/" style="fill-rule:evenodd;clip-rule:evenodd;stroke-linecap:round;stroke-miterlimit:1.5;">
    <g id="outline" transform="matrix(11.9935,0,0,2.26159,-11321.1,-1377.98)">
        <path d="M1399.78,865.198C1399.78,824.845 1393.6,792.084 1385.99,792.084L990.108,792.084C982.498,792.084 976.321,824.845 976.321,865.198L976.321,2181.26C976.321,2221.61 982.498,2254.37 990.108,2254.37L1385.99,2254.37C1393.6,2254.37 1399.78,2221.61 1399.78,2181.26L1399.78,865.198Z" style="fill:none;stroke:rgb(51,153,0);stroke-width:0.97px;"/>
    </g>
    <g id="electrode-1" transform="matrix(2.30431,0,0,1.34763,-2292.77,-1390.04)">
        <rect x="1209.13" y="1418.36" width="820.099" height="876.427" style="fill:none;stroke:rgb(0,0,255);stroke-width:4.41px;"/>
    </g>
    <g id="electrode-2" transform="matrix(2.30431,0,0,1.34763,-2292.77,529.943)">
        <rect x="1209.13" y="1418.36" width="820.099" height="876.427" style="fill:none;stroke:rgb(0,0,255);stroke-width:4.41px;"/>
    </g>
    <g id="speaker-1" transform="matrix(2.95661e-17,0.482851,-0.309825,1.89713e-17,5856.8,-313.803)">
        <rect x="1729.7" y="1690.58" width="1223.05" height="1334.26" style="fill:none;stroke:rgb(0,0,255);stroke-width:20.54px;"/>
    </g>
    <g id="speaker-2" transform="matrix(2.95661e-17,0.482851,-0.309825,1.89713e-17,5857.8,2196.73)">
        <rect x="1729.7" y="1690.58" width="1223.05" height="1334.26" style="fill:none;stroke:rgb(0,0,255);stroke-width:20.54px;"/>
    </g>
    <g id="DSP" transform="matrix(1,0,0,1,1022.99,1240.16)">
        <g id="usbi-flasher" transform="matrix(6.19342e-17,1.01146,-0.792812,4.85458e-17,5492.11,-968.899)">
            <rect x="1483.39" y="1489.74" width="583.859" height="744.881" style="fill:none;stroke:rgb(0,0,255);stroke-width:9.17px;"/>
        </g>
        <g id="LT" transform="matrix(1.13722e-16,1.85722,-1.70485,1.04392e-16,5598.16,-6741.23)">
            <ellipse cx="3928.63" cy="768.837" rx="12.719" ry="13.856" style="fill:none;stroke:rgb(204,0,0);stroke-width:4.67px;"/>
        </g>
        <g id="RT" transform="matrix(1.13722e-16,1.85722,-1.70485,1.04392e-16,5598.16,-6197.92)">
            <ellipse cx="3928.63" cy="768.837" rx="12.719" ry="13.856" style="fill:none;stroke:rgb(204,0,0);stroke-width:4.67px;"/>
        </g>
        <g id="RD" transform="matrix(1.13722e-16,1.85722,-1.70485,1.04392e-16,5054.85,-6197.92)">
            <ellipse cx="3928.63" cy="768.837" rx="12.719" ry="13.856" style="fill:none;stroke:rgb(204,0,0);stroke-width:4.67px;"/>
        </g>
        <g id="LD" transform="matrix(1.13722e-16,1.85722,-1.70485,1.04392e-16,5054.85,-6741.23)">
            <ellipse cx="3928.63" cy="768.837" rx="12.719" ry="13.856" style="fill:none;stroke:rgb(204,0,0);stroke-width:4.67px;"/>
        </g>
    </g>
    <g id="flasher" transform="matrix(1,0,0,1,177,0)">
        <g id="usbi-flasher1" serif:id="usbi-flasher" transform="matrix(6.19342e-17,1.01146,-0.792812,4.85458e-17,5492.11,-968.899)">
            <rect x="1483.39" y="1489.74" width="583.859" height="744.881" style="fill:none;stroke:rgb(0,0,255);stroke-width:9.17px;"/>
        </g>
        <g id="LT1" serif:id="LT" transform="matrix(1.13722e-16,1.85722,-1.70485,1.04392e-16,5598.16,-6741.23)">
            <ellipse cx="3928.63" cy="768.837" rx="12.719" ry="13.856" style="fill:none;stroke:rgb(204,0,0);stroke-width:4.67px;"/>
        </g>
        <g id="RT1" serif:id="RT" transform="matrix(1.13722e-16,1.85722,-1.70485,1.04392e-16,5598.16,-6197.92)">
            <ellipse cx="3928.63" cy="768.837" rx="12.719" ry="13.856" style="fill:none;stroke:rgb(204,0,0);stroke-width:4.67px;"/>
        </g>
        <g id="RD1" serif:id="RD" transform="matrix(1.13722e-16,1.85722,-1.70485,1.04392e-16,5054.85,-6197.92)">
            <ellipse cx="3928.63" cy="768.837" rx="12.719" ry="13.856" style="fill:none;stroke:rgb(204,0,0);stroke-width:4.67px;"/>
        </g>
        <g id="LD1" serif:id="LD" transform="matrix(1.13722e-16,1.85722,-1.70485,1.04392e-16,5054.85,-6741.23)">
            <ellipse cx="3928.63" cy="768.837" rx="12.719" ry="13.856" style="fill:none;stroke:rgb(204,0,0);stroke-width:4.67px;"/>
        </g>
    </g>
    <g id="amplifier" transform="matrix(1,0,0,1,177,0)">
        <g id="amplifier1" serif:id="amplifier" transform="matrix(6.68889e-17,1.09238,-0.63425,3.88366e-17,5137.78,151.227)">
            <rect x="1483.39" y="1489.74" width="583.859" height="744.881" style="fill:none;stroke:rgb(0,0,255);stroke-width:9.33px;"/>
        </g>
        <g id="LT2" serif:id="LT" transform="matrix(2.32613e-16,3.79887,-1.33537,8.1768e-17,6711.29,-12984.2)">
            <ellipse cx="3890.5" cy="1903.59" rx="6.218" ry="17.689" style="fill:none;stroke:rgb(204,0,0);stroke-width:2.93px;"/>
        </g>
        <g id="RT2" serif:id="RT" transform="matrix(2.32613e-16,3.79887,-1.33537,8.1768e-17,6711.29,-12393.6)">
            <ellipse cx="3890.5" cy="1903.59" rx="6.218" ry="17.689" style="fill:none;stroke:rgb(204,0,0);stroke-width:2.93px;"/>
        </g>
        <g id="RD2" serif:id="RD" transform="matrix(2.32613e-16,3.79887,-1.33537,8.1768e-17,6286.09,-12393.6)">
            <ellipse cx="3890.5" cy="1903.59" rx="6.218" ry="17.689" style="fill:none;stroke:rgb(204,0,0);stroke-width:2.93px;"/>
        </g>
        <g id="LD2" serif:id="LD" transform="matrix(2.32613e-16,3.79887,-1.33537,8.1768e-17,6286.09,-12984.2)">
            <ellipse cx="3890.5" cy="1903.59" rx="6.218" ry="17.689" style="fill:none;stroke:rgb(204,0,0);stroke-width:2.93px;"/>
        </g>
    </g>
    <g id="mcu" transform="matrix(1,0,0,1,162,0)">
        <g id="mcu1" serif:id="mcu" transform="matrix(3.17419e-16,5.18385,-1.17451,7.1918e-17,4840.31,-13521.3)">
            <rect x="2710.87" y="1154.57" width="341.764" height="905.052" style="fill:none;stroke:rgb(0,0,255);stroke-width:2.22px;"/>
        </g>
        <g id="LT3" serif:id="LT" transform="matrix(7.02983e-17,1.14806,-0.956847,5.859e-17,4611.56,-2859.92)">
            <ellipse cx="3036.35" cy="1264.56" rx="20.576" ry="24.687" style="fill:none;stroke:rgb(204,0,0);stroke-width:7.89px;"/>
        </g>
        <g id="RT3" serif:id="RT" transform="matrix(7.02983e-17,1.14806,-0.956847,5.859e-17,4611.56,-1265.43)">
            <ellipse cx="3036.35" cy="1264.56" rx="20.576" ry="24.687" style="fill:none;stroke:rgb(204,0,0);stroke-width:7.89px;"/>
        </g>
        <g id="LD3" serif:id="LD" transform="matrix(7.02983e-17,1.14806,-0.956847,5.859e-17,3713.92,-2859.92)">
            <ellipse cx="3036.35" cy="1264.56" rx="20.576" ry="24.687" style="fill:none;stroke:rgb(204,0,0);stroke-width:7.89px;"/>
        </g>
        <g id="RD3" serif:id="RD" transform="matrix(7.02983e-17,1.14806,-0.956847,5.859e-17,3713.92,-1265.43)">
            <ellipse cx="3036.35" cy="1264.56" rx="20.576" ry="24.687" style="fill:none;stroke:rgb(204,0,0);stroke-width:7.89px;"/>
        </g>
    </g>
    <g transform="matrix(1,0,0,1,-1973.85,-1462.37)">
        <path d="M3111.74,3286.35C3104.24,3286.35 3100.49,3288.26 3100.49,3292.1L3100.49,3358.85C3100.49,3362.68 3104.24,3364.6 3111.74,3364.6L3111.74,3371.85L3070.74,3371.85L3070.74,3364.6C3078.16,3364.6 3081.87,3362.68 3081.87,3358.85L3081.87,3293.35L3054.49,3371.85L3038.24,3371.85L3010.87,3293.35L3010.87,3358.85C3010.87,3362.68 3014.58,3364.6 3021.99,3364.6L3021.99,3371.85L2989.37,3371.85L2989.37,3364.6C2996.78,3364.6 3000.49,3362.68 3000.49,3358.85L3000.49,3292.1C3000.49,3288.26 2996.78,3286.35 2989.37,3286.35L2989.37,3278.97L3026.62,3278.97L3051.37,3351.97L3076.12,3278.97L3111.74,3278.97L3111.74,3286.35Z" style="fill-rule:nonzero;"/>
        <path d="M3190.49,3339.72C3190.49,3350.64 3187.49,3359.08 3181.49,3365.03C3175.49,3370.99 3166.78,3373.97 3155.37,3373.97C3150.87,3373.97 3146.58,3373.45 3142.49,3372.41C3138.41,3371.37 3134.85,3369.58 3131.81,3367.03C3128.76,3364.49 3126.33,3361.12 3124.49,3356.91C3122.66,3352.7 3121.74,3347.47 3121.74,3341.22C3121.74,3329.8 3124.62,3321.03 3130.37,3314.91C3136.12,3308.78 3144.91,3305.72 3156.74,3305.72C3161.33,3305.72 3165.68,3306.28 3169.81,3307.41C3173.93,3308.53 3177.51,3310.41 3180.56,3313.03C3183.6,3315.66 3186.01,3319.14 3187.81,3323.47C3189.6,3327.8 3190.49,3333.22 3190.49,3339.72ZM3156.62,3313.97C3150.37,3313.97 3145.83,3315.99 3142.99,3320.03C3140.16,3324.08 3138.74,3329.89 3138.74,3337.47C3138.74,3343.14 3139.12,3347.8 3139.87,3351.47C3140.62,3355.14 3141.72,3358.03 3143.18,3360.16C3144.64,3362.28 3146.39,3363.76 3148.43,3364.6C3150.47,3365.43 3152.83,3365.85 3155.49,3365.85C3162.08,3365.85 3166.7,3363.64 3169.37,3359.22C3172.03,3354.8 3173.37,3348.55 3173.37,3340.47C3173.37,3335.22 3172.97,3330.89 3172.18,3327.47C3171.39,3324.05 3170.24,3321.35 3168.74,3319.35C3167.24,3317.35 3165.47,3315.95 3163.43,3315.16C3161.39,3314.37 3159.12,3313.97 3156.62,3313.97Z" style="fill-rule:nonzero;"/>
        <path d="M3278.74,3289.22L3221.24,3362.1L3249.12,3362.1C3256.2,3362.1 3261.58,3359.85 3265.24,3355.35C3268.91,3350.85 3271.24,3343.6 3272.24,3333.6L3280.62,3334.47L3277.49,3371.85L3198.37,3371.85L3198.37,3361.6L3257.37,3288.85L3228.12,3288.85C3225.03,3288.85 3222.41,3289.39 3220.24,3290.47C3218.08,3291.55 3216.28,3293.26 3214.87,3295.6C3213.45,3297.93 3212.31,3300.91 3211.43,3304.53C3210.56,3308.16 3209.87,3312.51 3209.37,3317.6L3201.49,3317.22L3201.49,3278.97L3278.74,3278.97L3278.74,3289.22Z" style="fill-rule:nonzero;"/>
        <path d="M3354.12,3359.6C3354.12,3363.26 3355.37,3365.1 3357.87,3365.1C3359.03,3365.1 3359.91,3364.53 3360.49,3363.41C3361.08,3362.28 3361.37,3361.01 3361.37,3359.6L3361.37,3352.22L3367.24,3352.22L3367.24,3357.85C3367.24,3360.6 3366.91,3362.93 3366.24,3364.85C3365.58,3366.76 3364.62,3368.3 3363.37,3369.47C3362.12,3370.64 3360.64,3371.47 3358.93,3371.97C3357.22,3372.47 3355.37,3372.72 3353.37,3372.72C3351.12,3372.72 3349.2,3372.37 3347.62,3371.66C3346.03,3370.95 3344.7,3370.01 3343.62,3368.85C3342.53,3367.68 3341.7,3366.35 3341.12,3364.85C3340.53,3363.35 3340.08,3361.76 3339.74,3360.1C3338.83,3361.93 3337.56,3363.68 3335.93,3365.35C3334.31,3367.01 3332.37,3368.49 3330.12,3369.78C3327.87,3371.08 3325.33,3372.1 3322.49,3372.85C3319.66,3373.6 3316.62,3373.97 3313.37,3373.97C3305.53,3373.97 3299.81,3372.37 3296.18,3369.16C3292.56,3365.95 3290.74,3361.6 3290.74,3356.1C3290.74,3352.76 3291.39,3349.99 3292.68,3347.78C3293.97,3345.58 3295.76,3343.72 3298.06,3342.22C3300.35,3340.72 3303.01,3339.53 3306.06,3338.66C3309.1,3337.78 3312.35,3336.99 3315.81,3336.28C3319.26,3335.58 3322.85,3334.89 3326.56,3334.22C3330.26,3333.55 3333.95,3332.72 3337.62,3331.72L3337.62,3327.85C3337.62,3325.76 3337.35,3323.8 3336.81,3321.97C3336.26,3320.14 3335.39,3318.53 3334.18,3317.16C3332.97,3315.78 3331.45,3314.7 3329.62,3313.91C3327.78,3313.12 3325.62,3312.72 3323.12,3312.72C3318.87,3312.72 3315.31,3313.14 3312.43,3313.97C3309.56,3314.8 3307.24,3315.93 3305.49,3317.35C3307.41,3317.51 3309.03,3318.14 3310.37,3319.22C3311.7,3320.3 3312.37,3321.85 3312.37,3323.85C3312.37,3326.18 3311.62,3328.08 3310.12,3329.53C3308.62,3330.99 3306.41,3331.72 3303.49,3331.72C3300.58,3331.72 3298.39,3330.95 3296.93,3329.41C3295.47,3327.87 3294.74,3325.72 3294.74,3322.97C3294.74,3320.89 3295.41,3318.8 3296.74,3316.72C3298.08,3314.64 3299.99,3312.78 3302.49,3311.16C3304.99,3309.53 3308.1,3308.22 3311.81,3307.22C3315.51,3306.22 3319.74,3305.72 3324.49,3305.72C3328.33,3305.72 3332.03,3306.08 3335.62,3306.78C3339.2,3307.49 3342.37,3308.7 3345.12,3310.41C3347.87,3312.12 3350.06,3314.45 3351.68,3317.41C3353.31,3320.37 3354.12,3324.1 3354.12,3328.6L3354.12,3359.6ZM3337.74,3336.6C3332.41,3337.93 3327.78,3339.16 3323.87,3340.28C3319.95,3341.41 3316.7,3342.62 3314.12,3343.91C3311.53,3345.2 3309.62,3346.68 3308.37,3348.35C3307.12,3350.01 3306.49,3352.1 3306.49,3354.6C3306.49,3357.6 3307.53,3359.93 3309.62,3361.6C3311.7,3363.26 3314.87,3364.1 3319.12,3364.1C3323.37,3364.1 3327.14,3363.08 3330.43,3361.03C3333.72,3358.99 3336.16,3356.64 3337.74,3353.97L3337.74,3336.6Z" style="fill-rule:nonzero;"/>
        <path d="M3403.74,3359.1C3403.58,3362.85 3407.2,3364.72 3414.62,3364.72L3414.62,3371.85L3375.87,3371.85L3375.87,3364.72C3383.03,3364.72 3386.62,3362.85 3386.62,3359.1L3386.62,3321.1C3386.62,3317.26 3383.03,3315.35 3375.87,3315.35L3375.87,3308.22L3403.74,3308.22L3403.74,3359.1ZM3405.24,3287.22C3405.24,3290.14 3404.22,3292.66 3402.18,3294.78C3400.14,3296.91 3397.62,3297.97 3394.62,3297.97C3393.12,3297.97 3391.72,3297.68 3390.43,3297.1C3389.14,3296.51 3388.01,3295.74 3387.06,3294.78C3386.1,3293.83 3385.33,3292.7 3384.74,3291.41C3384.16,3290.12 3383.87,3288.72 3383.87,3287.22C3383.87,3284.22 3384.93,3281.7 3387.06,3279.66C3389.18,3277.62 3391.7,3276.6 3394.62,3276.6C3397.53,3276.6 3400.03,3277.64 3402.12,3279.72C3404.2,3281.8 3405.24,3284.3 3405.24,3287.22Z" style="fill-rule:nonzero;"/>
        <path d="M3487.37,3350.1C3486.87,3353.1 3485.97,3356.01 3484.68,3358.85C3483.39,3361.68 3481.62,3364.22 3479.37,3366.47C3477.12,3368.72 3474.33,3370.53 3470.99,3371.91C3467.66,3373.28 3463.7,3373.97 3459.12,3373.97C3454.12,3373.97 3449.51,3373.3 3445.31,3371.97C3441.1,3370.64 3437.47,3368.62 3434.43,3365.91C3431.39,3363.2 3429.01,3359.76 3427.31,3355.6C3425.6,3351.43 3424.74,3346.47 3424.74,3340.72C3424.74,3329.64 3427.78,3321.03 3433.87,3314.91C3439.95,3308.78 3448.37,3305.72 3459.12,3305.72C3463.12,3305.72 3466.78,3306.18 3470.12,3307.1C3473.45,3308.01 3476.35,3309.28 3478.81,3310.91C3481.26,3312.53 3483.18,3314.45 3484.56,3316.66C3485.93,3318.87 3486.62,3321.26 3486.62,3323.85C3486.62,3326.51 3485.87,3328.7 3484.37,3330.41C3482.87,3332.12 3480.66,3332.97 3477.74,3332.97C3474.99,3332.97 3472.87,3332.2 3471.37,3330.66C3469.87,3329.12 3469.12,3327.26 3469.12,3325.1C3469.12,3323.18 3469.81,3321.53 3471.18,3320.16C3472.56,3318.78 3474.24,3318.01 3476.24,3317.85C3474.83,3316.26 3473.01,3315.01 3470.81,3314.1C3468.6,3313.18 3465.62,3312.72 3461.87,3312.72C3455.37,3312.72 3450.39,3314.89 3446.93,3319.22C3443.47,3323.55 3441.74,3330.01 3441.74,3338.6C3441.74,3343.43 3442.22,3347.58 3443.18,3351.03C3444.14,3354.49 3445.49,3357.3 3447.24,3359.47C3448.99,3361.64 3451.06,3363.24 3453.43,3364.28C3455.81,3365.33 3458.37,3365.85 3461.12,3365.85C3463.28,3365.85 3465.39,3365.53 3467.43,3364.91C3469.47,3364.28 3471.33,3363.3 3472.99,3361.97C3474.66,3360.64 3476.06,3358.93 3477.18,3356.85C3478.31,3354.76 3479.08,3352.22 3479.49,3349.22L3487.37,3350.1Z" style="fill-rule:nonzero;"/>
        <path d="M3592.62,3278.97C3597.12,3278.97 3601.35,3279.24 3605.31,3279.78C3609.26,3280.33 3612.72,3281.41 3615.68,3283.03C3618.64,3284.66 3620.97,3287.01 3622.68,3290.1C3624.39,3293.18 3625.24,3297.22 3625.24,3302.22C3625.24,3304.97 3624.76,3307.43 3623.81,3309.6C3622.85,3311.76 3621.56,3313.66 3619.93,3315.28C3618.31,3316.91 3616.41,3318.28 3614.24,3319.41C3612.08,3320.53 3609.78,3321.39 3607.37,3321.97C3614.87,3322.72 3620.74,3324.93 3624.99,3328.6C3629.24,3332.26 3631.37,3337.47 3631.37,3344.22C3631.37,3349.47 3630.58,3353.85 3628.99,3357.35C3627.41,3360.85 3625.12,3363.68 3622.12,3365.85C3619.12,3368.01 3615.41,3369.55 3610.99,3370.47C3606.58,3371.39 3601.49,3371.85 3595.74,3371.85L3539.99,3371.85L3539.99,3364.6C3547.41,3364.6 3551.12,3362.68 3551.12,3358.85L3551.12,3292.47C3551.12,3288.64 3547.41,3286.72 3539.99,3286.72L3539.99,3278.97L3592.62,3278.97ZM3570.24,3327.35L3570.24,3361.47L3593.74,3361.47C3596.99,3361.47 3599.72,3361.03 3601.93,3360.16C3604.14,3359.28 3605.93,3358.05 3607.31,3356.47C3608.68,3354.89 3609.66,3352.99 3610.24,3350.78C3610.83,3348.58 3611.12,3346.1 3611.12,3343.35C3611.12,3337.6 3609.66,3333.49 3606.74,3331.03C3603.83,3328.58 3599.49,3327.35 3593.74,3327.35L3570.24,3327.35ZM3570.24,3289.85L3570.24,3318.97L3590.49,3318.97C3595.49,3318.97 3599.24,3317.76 3601.74,3315.35C3604.24,3312.93 3605.49,3309.1 3605.49,3303.85C3605.49,3299.1 3604.2,3295.58 3601.62,3293.28C3599.03,3290.99 3595.33,3289.85 3590.49,3289.85L3570.24,3289.85Z" style="fill-rule:nonzero;"/>
        <path d="M3661.37,3339.1C3661.53,3347.68 3663.12,3354.28 3666.12,3358.91C3669.12,3363.53 3673.66,3365.85 3679.74,3365.85C3684.49,3365.85 3688.7,3364.68 3692.37,3362.35C3696.03,3360.01 3698.58,3356.22 3699.99,3350.97L3707.74,3352.47C3706.99,3355.22 3705.89,3357.89 3704.43,3360.47C3702.97,3363.05 3701.08,3365.35 3698.74,3367.35C3696.41,3369.35 3693.6,3370.95 3690.31,3372.16C3687.01,3373.37 3683.16,3373.97 3678.74,3373.97C3674.41,3373.97 3670.2,3373.45 3666.12,3372.41C3662.03,3371.37 3658.39,3369.55 3655.18,3366.97C3651.97,3364.39 3649.39,3360.91 3647.43,3356.53C3645.47,3352.16 3644.49,3346.64 3644.49,3339.97C3644.49,3334.89 3645.26,3330.24 3646.81,3326.03C3648.35,3321.83 3650.58,3318.22 3653.49,3315.22C3656.41,3312.22 3659.97,3309.89 3664.18,3308.22C3668.39,3306.55 3673.2,3305.72 3678.62,3305.72C3699.62,3305.72 3710.12,3316.85 3710.12,3339.1L3661.37,3339.1ZM3694.62,3332.47C3694.62,3329.72 3694.28,3327.16 3693.62,3324.78C3692.95,3322.41 3691.95,3320.33 3690.62,3318.53C3689.28,3316.74 3687.64,3315.33 3685.68,3314.28C3683.72,3313.24 3681.45,3312.72 3678.87,3312.72C3674.37,3312.72 3670.53,3314.26 3667.37,3317.35C3664.2,3320.43 3662.28,3325.47 3661.62,3332.47L3694.62,3332.47Z" style="fill-rule:nonzero;"/>
        <path d="M3783.24,3359.6C3783.24,3363.26 3784.49,3365.1 3786.99,3365.1C3788.16,3365.1 3789.03,3364.53 3789.62,3363.41C3790.2,3362.28 3790.49,3361.01 3790.49,3359.6L3790.49,3352.22L3796.37,3352.22L3796.37,3357.85C3796.37,3360.6 3796.03,3362.93 3795.37,3364.85C3794.7,3366.76 3793.74,3368.3 3792.49,3369.47C3791.24,3370.64 3789.76,3371.47 3788.06,3371.97C3786.35,3372.47 3784.49,3372.72 3782.49,3372.72C3780.24,3372.72 3778.33,3372.37 3776.74,3371.66C3775.16,3370.95 3773.83,3370.01 3772.74,3368.85C3771.66,3367.68 3770.83,3366.35 3770.24,3364.85C3769.66,3363.35 3769.2,3361.76 3768.87,3360.1C3767.95,3361.93 3766.68,3363.68 3765.06,3365.35C3763.43,3367.01 3761.49,3368.49 3759.24,3369.78C3756.99,3371.08 3754.45,3372.1 3751.62,3372.85C3748.78,3373.6 3745.74,3373.97 3742.49,3373.97C3734.66,3373.97 3728.93,3372.37 3725.31,3369.16C3721.68,3365.95 3719.87,3361.6 3719.87,3356.1C3719.87,3352.76 3720.51,3349.99 3721.81,3347.78C3723.1,3345.58 3724.89,3343.72 3727.18,3342.22C3729.47,3340.72 3732.14,3339.53 3735.18,3338.66C3738.22,3337.78 3741.47,3336.99 3744.93,3336.28C3748.39,3335.58 3751.97,3334.89 3755.68,3334.22C3759.39,3333.55 3763.08,3332.72 3766.74,3331.72L3766.74,3327.85C3766.74,3325.76 3766.47,3323.8 3765.93,3321.97C3765.39,3320.14 3764.51,3318.53 3763.31,3317.16C3762.1,3315.78 3760.58,3314.7 3758.74,3313.91C3756.91,3313.12 3754.74,3312.72 3752.24,3312.72C3747.99,3312.72 3744.43,3313.14 3741.56,3313.97C3738.68,3314.8 3736.37,3315.93 3734.62,3317.35C3736.53,3317.51 3738.16,3318.14 3739.49,3319.22C3740.83,3320.3 3741.49,3321.85 3741.49,3323.85C3741.49,3326.18 3740.74,3328.08 3739.24,3329.53C3737.74,3330.99 3735.53,3331.72 3732.62,3331.72C3729.7,3331.72 3727.51,3330.95 3726.06,3329.41C3724.6,3327.87 3723.87,3325.72 3723.87,3322.97C3723.87,3320.89 3724.53,3318.8 3725.87,3316.72C3727.2,3314.64 3729.12,3312.78 3731.62,3311.16C3734.12,3309.53 3737.22,3308.22 3740.93,3307.22C3744.64,3306.22 3748.87,3305.72 3753.62,3305.72C3757.45,3305.72 3761.16,3306.08 3764.74,3306.78C3768.33,3307.49 3771.49,3308.7 3774.24,3310.41C3776.99,3312.12 3779.18,3314.45 3780.81,3317.41C3782.43,3320.37 3783.24,3324.1 3783.24,3328.6L3783.24,3359.6ZM3766.87,3336.6C3761.53,3337.93 3756.91,3339.16 3752.99,3340.28C3749.08,3341.41 3745.83,3342.62 3743.24,3343.91C3740.66,3345.2 3738.74,3346.68 3737.49,3348.35C3736.24,3350.01 3735.62,3352.1 3735.62,3354.6C3735.62,3357.6 3736.66,3359.93 3738.74,3361.6C3740.83,3363.26 3743.99,3364.1 3748.24,3364.1C3752.49,3364.1 3756.26,3363.08 3759.56,3361.03C3762.85,3358.99 3765.28,3356.64 3766.87,3353.97L3766.87,3336.6Z" style="fill-rule:nonzero;"/>
        <path d="M3828.87,3308.22L3845.49,3308.22L3844.87,3317.22C3842.53,3316.72 3840.06,3316.37 3837.43,3316.16C3834.81,3315.95 3831.95,3315.85 3828.87,3315.85L3828.87,3359.47C3828.87,3363.22 3830.7,3365.1 3834.37,3365.1C3836.28,3365.1 3837.6,3364.58 3838.31,3363.53C3839.01,3362.49 3839.37,3361.14 3839.37,3359.47L3839.37,3352.22L3845.49,3352.22L3845.49,3357.72C3845.49,3359.97 3845.26,3362.01 3844.81,3363.85C3844.35,3365.68 3843.51,3367.24 3842.31,3368.53C3841.1,3369.83 3839.49,3370.85 3837.49,3371.6C3835.49,3372.35 3832.95,3372.72 3829.87,3372.72C3823.37,3372.72 3818.72,3371.26 3815.93,3368.35C3813.14,3365.43 3811.74,3361.35 3811.74,3356.1L3811.74,3315.85L3800.87,3315.85L3800.87,3309.85C3803.2,3309.68 3805.39,3309.35 3807.43,3308.85C3809.47,3308.35 3811.26,3307.47 3812.81,3306.22C3814.35,3304.97 3815.56,3303.22 3816.43,3300.97C3817.31,3298.72 3817.74,3295.8 3817.74,3292.22L3817.74,3289.47L3828.87,3288.6L3828.87,3308.22Z" style="fill-rule:nonzero;"/>
        <path d="M3362.62,3446.85C3364.37,3444.01 3367.1,3441.78 3370.81,3440.16C3374.51,3438.53 3378.87,3437.72 3383.87,3437.72C3387.87,3437.72 3391.66,3438.24 3395.24,3439.28C3398.83,3440.33 3401.97,3442.12 3404.68,3444.66C3407.39,3447.2 3409.53,3450.62 3411.12,3454.91C3412.7,3459.2 3413.49,3464.6 3413.49,3471.1C3413.49,3478.01 3412.68,3483.72 3411.06,3488.22C3409.43,3492.72 3407.24,3496.28 3404.49,3498.91C3401.74,3501.53 3398.49,3503.37 3394.74,3504.41C3390.99,3505.45 3386.99,3505.97 3382.74,3505.97C3379.24,3505.97 3376.12,3505.51 3373.37,3504.6C3370.62,3503.68 3368.26,3502.53 3366.31,3501.16C3364.35,3499.78 3362.78,3498.33 3361.62,3496.78C3360.45,3495.24 3359.7,3493.8 3359.37,3492.47L3355.49,3503.85L3345.37,3503.85L3345.37,3420.35C3345.37,3416.6 3341.78,3414.72 3334.62,3414.72L3334.62,3407.6L3362.62,3407.6L3362.62,3446.85ZM3378.87,3446.22C3375.62,3446.22 3372.85,3446.85 3370.56,3448.1C3368.26,3449.35 3366.41,3451.1 3364.99,3453.35C3363.58,3455.6 3362.56,3458.26 3361.93,3461.35C3361.31,3464.43 3360.99,3467.85 3360.99,3471.6C3360.99,3475.35 3361.31,3478.78 3361.93,3481.91C3362.56,3485.03 3363.58,3487.7 3364.99,3489.91C3366.41,3492.12 3368.26,3493.85 3370.56,3495.1C3372.85,3496.35 3375.62,3496.97 3378.87,3496.97C3382.12,3496.97 3384.87,3496.35 3387.12,3495.1C3389.37,3493.85 3391.22,3492.12 3392.68,3489.91C3394.14,3487.7 3395.18,3485.03 3395.81,3481.91C3396.43,3478.78 3396.74,3475.35 3396.74,3471.6C3396.74,3467.85 3396.43,3464.43 3395.81,3461.35C3395.18,3458.26 3394.14,3455.6 3392.68,3453.35C3391.22,3451.1 3389.37,3449.35 3387.12,3448.1C3384.87,3446.85 3382.12,3446.22 3378.87,3446.22Z" style="fill-rule:nonzero;"/>
        <path d="M3496.12,3447.35C3493.12,3447.35 3490.91,3447.7 3489.49,3448.41C3488.08,3449.12 3487.08,3450.18 3486.49,3451.6L3463.74,3506.35C3461.99,3510.6 3460.39,3514.33 3458.93,3517.53C3457.47,3520.74 3455.85,3523.45 3454.06,3525.66C3452.26,3527.87 3450.16,3529.53 3447.74,3530.66C3445.33,3531.78 3442.28,3532.35 3438.62,3532.35C3432.87,3532.35 3428.2,3530.91 3424.62,3528.03C3421.03,3525.16 3419.24,3521.3 3419.24,3516.47C3419.24,3515.64 3419.41,3514.68 3419.74,3513.6C3420.08,3512.51 3420.62,3511.51 3421.37,3510.6C3422.12,3509.68 3423.03,3508.91 3424.12,3508.28C3425.2,3507.66 3426.49,3507.35 3427.99,3507.35C3430.91,3507.35 3433.08,3508.05 3434.49,3509.47C3435.91,3510.89 3436.62,3512.55 3436.62,3514.47C3436.62,3516.64 3435.97,3518.33 3434.68,3519.53C3433.39,3520.74 3431.66,3521.47 3429.49,3521.72C3430.24,3522.97 3431.31,3523.99 3432.68,3524.78C3434.06,3525.58 3436.33,3525.97 3439.49,3525.97C3442.49,3525.97 3444.95,3524.76 3446.87,3522.35C3448.78,3519.93 3450.91,3516.18 3453.24,3511.1L3428.24,3451.72C3426.83,3448.8 3423.83,3447.35 3419.24,3447.35L3419.24,3440.22L3454.99,3440.22L3454.99,3447.35L3448.87,3447.35C3446.45,3447.35 3445.24,3448.14 3445.24,3449.72C3445.24,3450.39 3445.37,3451.01 3445.62,3451.6L3461.87,3492.47L3478.37,3452.72C3478.62,3451.97 3478.74,3451.3 3478.74,3450.72C3478.74,3448.47 3476.95,3447.35 3473.37,3447.35L3469.62,3447.35L3469.62,3440.22L3496.12,3440.22L3496.12,3447.35Z" style="fill-rule:nonzero;"/>
        <path d="M3192.68,3624.85C3193.51,3627.35 3196.93,3628.6 3202.93,3628.6L3202.93,3635.85L3157.18,3635.85L3157.18,3628.6L3168.18,3628.6C3170.6,3628.6 3171.81,3627.8 3171.81,3626.22C3171.81,3625.97 3171.68,3625.51 3171.43,3624.85L3166.43,3611.35L3128.06,3611.35L3123.43,3623.85C3123.26,3624.35 3123.18,3624.85 3123.18,3625.35C3123.18,3627.51 3125.01,3628.6 3128.68,3628.6L3136.43,3628.6L3136.43,3635.85L3102.31,3635.85L3102.31,3628.47C3105.81,3628.47 3108.39,3628.18 3110.06,3627.6C3111.72,3627.01 3112.76,3626.14 3113.18,3624.97L3144.43,3542.97L3162.56,3542.97L3192.68,3624.85ZM3131.31,3602.1L3163.31,3602.1L3147.43,3558.1L3131.31,3602.1Z" style="fill-rule:nonzero;"/>
        <path d="M3240.31,3584.1C3242.72,3579.35 3245.66,3575.91 3249.12,3573.78C3252.58,3571.66 3256.31,3570.6 3260.31,3570.6C3262.14,3570.6 3264.03,3570.89 3265.99,3571.47C3267.95,3572.05 3269.72,3572.97 3271.31,3574.22C3272.89,3575.47 3274.18,3577.08 3275.18,3579.03C3276.18,3580.99 3276.68,3583.3 3276.68,3585.97C3276.68,3589.14 3275.83,3591.74 3274.12,3593.78C3272.41,3595.83 3270.1,3596.85 3267.18,3596.85C3264.26,3596.85 3262.06,3596.08 3260.56,3594.53C3259.06,3592.99 3258.31,3591.14 3258.31,3588.97C3258.31,3586.89 3258.99,3585.14 3260.37,3583.72C3261.74,3582.3 3263.85,3581.55 3266.68,3581.47C3266.01,3580.22 3264.93,3579.26 3263.43,3578.6C3261.93,3577.93 3260.35,3577.6 3258.68,3577.6C3257.18,3577.6 3255.58,3577.97 3253.87,3578.72C3252.16,3579.47 3250.49,3580.6 3248.87,3582.1C3247.24,3583.6 3245.68,3585.53 3244.18,3587.91C3242.68,3590.28 3241.39,3593.1 3240.31,3596.35L3240.31,3623.1C3240.31,3625.01 3241.35,3626.43 3243.43,3627.35C3245.51,3628.26 3248.56,3628.72 3252.56,3628.72L3252.56,3635.85L3212.43,3635.85L3212.43,3628.72C3219.6,3628.72 3223.18,3626.85 3223.18,3623.1L3223.18,3584.97C3223.18,3581.22 3219.6,3579.35 3212.43,3579.35L3212.43,3572.22L3240.31,3572.22L3240.31,3584.1Z" style="fill-rule:nonzero;"/>
        <path d="M3349.81,3623.6C3349.81,3627.26 3351.06,3629.1 3353.56,3629.1C3354.72,3629.1 3355.6,3628.53 3356.18,3627.41C3356.76,3626.28 3357.06,3625.01 3357.06,3623.6L3357.06,3616.22L3362.93,3616.22L3362.93,3621.85C3362.93,3624.6 3362.6,3626.93 3361.93,3628.85C3361.26,3630.76 3360.31,3632.3 3359.06,3633.47C3357.81,3634.64 3356.33,3635.47 3354.62,3635.97C3352.91,3636.47 3351.06,3636.72 3349.06,3636.72C3346.81,3636.72 3344.89,3636.37 3343.31,3635.66C3341.72,3634.95 3340.39,3634.01 3339.31,3632.85C3338.22,3631.68 3337.39,3630.35 3336.81,3628.85C3336.22,3627.35 3335.76,3625.76 3335.43,3624.1C3334.51,3625.93 3333.24,3627.68 3331.62,3629.35C3329.99,3631.01 3328.06,3632.49 3325.81,3633.78C3323.56,3635.08 3321.01,3636.1 3318.18,3636.85C3315.35,3637.6 3312.31,3637.97 3309.06,3637.97C3301.22,3637.97 3295.49,3636.37 3291.87,3633.16C3288.24,3629.95 3286.43,3625.6 3286.43,3620.1C3286.43,3616.76 3287.08,3613.99 3288.37,3611.78C3289.66,3609.58 3291.45,3607.72 3293.74,3606.22C3296.03,3604.72 3298.7,3603.53 3301.74,3602.66C3304.78,3601.78 3308.03,3600.99 3311.49,3600.28C3314.95,3599.58 3318.53,3598.89 3322.24,3598.22C3325.95,3597.55 3329.64,3596.72 3333.31,3595.72L3333.31,3591.85C3333.31,3589.76 3333.03,3587.8 3332.49,3585.97C3331.95,3584.14 3331.08,3582.53 3329.87,3581.16C3328.66,3579.78 3327.14,3578.7 3325.31,3577.91C3323.47,3577.12 3321.31,3576.72 3318.81,3576.72C3314.56,3576.72 3310.99,3577.14 3308.12,3577.97C3305.24,3578.8 3302.93,3579.93 3301.18,3581.35C3303.1,3581.51 3304.72,3582.14 3306.06,3583.22C3307.39,3584.3 3308.06,3585.85 3308.06,3587.85C3308.06,3590.18 3307.31,3592.08 3305.81,3593.53C3304.31,3594.99 3302.1,3595.72 3299.18,3595.72C3296.26,3595.72 3294.08,3594.95 3292.62,3593.41C3291.16,3591.87 3290.43,3589.72 3290.43,3586.97C3290.43,3584.89 3291.1,3582.8 3292.43,3580.72C3293.76,3578.64 3295.68,3576.78 3298.18,3575.16C3300.68,3573.53 3303.78,3572.22 3307.49,3571.22C3311.2,3570.22 3315.43,3569.72 3320.18,3569.72C3324.01,3569.72 3327.72,3570.08 3331.31,3570.78C3334.89,3571.49 3338.06,3572.7 3340.81,3574.41C3343.56,3576.12 3345.74,3578.45 3347.37,3581.41C3348.99,3584.37 3349.81,3588.1 3349.81,3592.6L3349.81,3623.6ZM3333.43,3600.6C3328.1,3601.93 3323.47,3603.16 3319.56,3604.28C3315.64,3605.41 3312.39,3606.62 3309.81,3607.91C3307.22,3609.2 3305.31,3610.68 3304.06,3612.35C3302.81,3614.01 3302.18,3616.1 3302.18,3618.6C3302.18,3621.6 3303.22,3623.93 3305.31,3625.6C3307.39,3627.26 3310.56,3628.1 3314.81,3628.1C3319.06,3628.1 3322.83,3627.08 3326.12,3625.03C3329.41,3622.99 3331.85,3620.64 3333.43,3617.97L3333.43,3600.6Z" style="fill-rule:nonzero;"/>
        <path d="M3441.06,3579.35C3438.64,3579.35 3436.58,3579.7 3434.87,3580.41C3433.16,3581.12 3432.01,3582.18 3431.43,3583.6L3409.93,3635.85L3393.81,3635.85L3372.31,3583.72C3371.06,3580.8 3368.14,3579.35 3363.56,3579.35L3363.56,3572.22L3399.81,3572.22L3399.81,3579.35L3393.06,3579.35C3390.64,3579.35 3389.43,3580.14 3389.43,3581.72C3389.43,3582.47 3389.56,3583.14 3389.81,3583.72L3406.43,3625.22L3423.31,3584.72C3423.64,3584.14 3423.81,3583.47 3423.81,3582.72C3423.81,3580.47 3422.01,3579.35 3418.43,3579.35L3413.68,3579.35L3413.68,3572.22L3441.06,3572.22L3441.06,3579.35Z" style="fill-rule:nonzero;"/>
        <path d="M3478.68,3623.1C3478.51,3626.85 3482.14,3628.72 3489.56,3628.72L3489.56,3635.85L3450.81,3635.85L3450.81,3628.72C3457.97,3628.72 3461.56,3626.85 3461.56,3623.1L3461.56,3585.1C3461.56,3581.26 3457.97,3579.35 3450.81,3579.35L3450.81,3572.22L3478.68,3572.22L3478.68,3623.1ZM3480.18,3551.22C3480.18,3554.14 3479.16,3556.66 3477.12,3558.78C3475.08,3560.91 3472.56,3561.97 3469.56,3561.97C3468.06,3561.97 3466.66,3561.68 3465.37,3561.1C3464.08,3560.51 3462.95,3559.74 3461.99,3558.78C3461.03,3557.83 3460.26,3556.7 3459.68,3555.41C3459.1,3554.12 3458.81,3552.72 3458.81,3551.22C3458.81,3548.22 3459.87,3545.7 3461.99,3543.66C3464.12,3541.62 3466.64,3540.6 3469.56,3540.6C3472.47,3540.6 3474.97,3541.64 3477.06,3543.72C3479.14,3545.8 3480.18,3548.3 3480.18,3551.22Z" style="fill-rule:nonzero;"/>
        <path d="M3574.93,3623.1C3574.93,3626.85 3578.6,3628.72 3585.93,3628.72L3585.93,3635.85L3549.56,3635.85L3549.56,3628.72C3555.14,3628.72 3557.93,3626.85 3557.93,3623.1L3557.93,3595.35C3557.93,3590.1 3557.1,3586.35 3555.43,3584.1C3553.76,3581.85 3551.51,3580.72 3548.68,3580.72C3546.51,3580.72 3544.37,3581.14 3542.24,3581.97C3540.12,3582.8 3538.1,3583.97 3536.18,3585.47C3534.26,3586.97 3532.51,3588.74 3530.93,3590.78C3529.35,3592.83 3528.06,3595.01 3527.06,3597.35L3527.06,3623.1C3527.06,3626.85 3529.85,3628.72 3535.43,3628.72L3535.43,3635.85L3499.18,3635.85L3499.18,3628.72C3506.35,3628.72 3509.93,3626.85 3509.93,3623.1L3509.93,3584.97C3509.93,3581.22 3506.35,3579.35 3499.18,3579.35L3499.18,3572.22L3527.06,3572.22L3527.06,3584.97C3530.22,3580.89 3534.18,3577.53 3538.93,3574.91C3543.68,3572.28 3549.1,3570.97 3555.18,3570.97C3561.43,3570.97 3566.28,3572.43 3569.74,3575.35C3573.2,3578.26 3574.93,3583.01 3574.93,3589.6L3574.93,3623.1Z" style="fill-rule:nonzero;"/>
        <path d="M3620.93,3572.22L3637.56,3572.22L3636.93,3581.22C3634.6,3580.72 3632.12,3580.37 3629.49,3580.16C3626.87,3579.95 3624.01,3579.85 3620.93,3579.85L3620.93,3623.47C3620.93,3627.22 3622.76,3629.1 3626.43,3629.1C3628.35,3629.1 3629.66,3628.58 3630.37,3627.53C3631.08,3626.49 3631.43,3625.14 3631.43,3623.47L3631.43,3616.22L3637.56,3616.22L3637.56,3621.72C3637.56,3623.97 3637.33,3626.01 3636.87,3627.85C3636.41,3629.68 3635.58,3631.24 3634.37,3632.53C3633.16,3633.83 3631.56,3634.85 3629.56,3635.6C3627.56,3636.35 3625.01,3636.72 3621.93,3636.72C3615.43,3636.72 3610.78,3635.26 3607.99,3632.35C3605.2,3629.43 3603.81,3625.35 3603.81,3620.1L3603.81,3579.85L3592.93,3579.85L3592.93,3573.85C3595.26,3573.68 3597.45,3573.35 3599.49,3572.85C3601.53,3572.35 3603.33,3571.47 3604.87,3570.22C3606.41,3568.97 3607.62,3567.22 3608.49,3564.97C3609.37,3562.72 3609.81,3559.8 3609.81,3556.22L3609.81,3553.47L3620.93,3552.6L3620.93,3572.22Z" style="fill-rule:nonzero;"/>
        <path d="M3674.81,3584.97C3677.97,3580.89 3681.83,3577.53 3686.37,3574.91C3690.91,3572.28 3696.22,3570.97 3702.31,3570.97C3708.56,3570.97 3713.31,3572.43 3716.56,3575.35C3719.81,3578.26 3721.43,3583.01 3721.43,3589.6L3721.43,3623.1C3721.43,3626.85 3725.06,3628.72 3732.31,3628.72L3732.31,3635.85L3695.93,3635.85L3695.93,3628.72C3701.51,3628.72 3704.31,3626.85 3704.31,3623.1L3704.31,3595.1C3704.31,3589.85 3703.6,3586.1 3702.18,3583.85C3700.76,3581.6 3698.64,3580.47 3695.81,3580.47C3693.64,3580.47 3691.53,3580.89 3689.49,3581.72C3687.45,3582.55 3685.49,3583.72 3683.62,3585.22C3681.74,3586.72 3680.06,3588.49 3678.56,3590.53C3677.06,3592.58 3675.81,3594.76 3674.81,3597.1L3674.81,3623.1C3674.81,3626.85 3677.6,3628.72 3683.18,3628.72L3683.18,3635.85L3646.93,3635.85L3646.93,3628.72C3654.1,3628.72 3657.68,3626.85 3657.68,3623.1L3657.68,3552.35C3657.68,3548.6 3654.14,3546.72 3647.06,3546.72L3647.06,3539.6L3674.81,3539.6L3674.81,3584.97Z" style="fill-rule:nonzero;"/>
        <path d="M2869.37,3711.35C2864.2,3711.35 2861.2,3712.76 2860.37,3715.6L2841.87,3767.85L2826.24,3767.85L2809.74,3726.22L2792.37,3767.85L2776.62,3767.85L2758.87,3715.72C2757.87,3712.8 2755.12,3711.35 2750.62,3711.35L2750.62,3704.22L2785.62,3704.22L2785.62,3711.35L2778.99,3711.35C2776.74,3711.35 2775.62,3712.22 2775.62,3713.97C2775.62,3714.47 2775.7,3714.99 2775.87,3715.53C2776.03,3716.08 2776.2,3716.64 2776.37,3717.22L2789.37,3757.22L2806.49,3716.72C2806.74,3715.97 2806.87,3715.18 2806.87,3714.35C2806.87,3712.35 2805.45,3711.35 2802.62,3711.35L2797.24,3711.35L2797.24,3704.22L2831.62,3704.22L2831.62,3711.35L2824.37,3711.35C2822.37,3711.35 2821.37,3712.1 2821.37,3713.6C2821.37,3714.01 2821.45,3714.43 2821.62,3714.85C2821.78,3715.26 2821.95,3715.68 2822.12,3716.1L2838.49,3757.22L2852.62,3716.72C2852.87,3715.97 2852.99,3715.3 2852.99,3714.72C2852.99,3712.47 2851.24,3711.35 2847.74,3711.35L2842.99,3711.35L2842.99,3704.22L2869.37,3704.22L2869.37,3711.35Z" style="fill-rule:nonzero;"/>
        <path d="M2997.87,3711.35C2992.7,3711.35 2989.7,3712.76 2988.87,3715.6L2970.37,3767.85L2954.74,3767.85L2938.24,3726.22L2920.87,3767.85L2905.12,3767.85L2887.37,3715.72C2886.37,3712.8 2883.62,3711.35 2879.12,3711.35L2879.12,3704.22L2914.12,3704.22L2914.12,3711.35L2907.49,3711.35C2905.24,3711.35 2904.12,3712.22 2904.12,3713.97C2904.12,3714.47 2904.2,3714.99 2904.37,3715.53C2904.53,3716.08 2904.7,3716.64 2904.87,3717.22L2917.87,3757.22L2934.99,3716.72C2935.24,3715.97 2935.37,3715.18 2935.37,3714.35C2935.37,3712.35 2933.95,3711.35 2931.12,3711.35L2925.74,3711.35L2925.74,3704.22L2960.12,3704.22L2960.12,3711.35L2952.87,3711.35C2950.87,3711.35 2949.87,3712.1 2949.87,3713.6C2949.87,3714.01 2949.95,3714.43 2950.12,3714.85C2950.28,3715.26 2950.45,3715.68 2950.62,3716.1L2966.99,3757.22L2981.12,3716.72C2981.37,3715.97 2981.49,3715.3 2981.49,3714.72C2981.49,3712.47 2979.74,3711.35 2976.24,3711.35L2971.49,3711.35L2971.49,3704.22L2997.87,3704.22L2997.87,3711.35Z" style="fill-rule:nonzero;"/>
        <path d="M3126.37,3711.35C3121.2,3711.35 3118.2,3712.76 3117.37,3715.6L3098.87,3767.85L3083.24,3767.85L3066.74,3726.22L3049.37,3767.85L3033.62,3767.85L3015.87,3715.72C3014.87,3712.8 3012.12,3711.35 3007.62,3711.35L3007.62,3704.22L3042.62,3704.22L3042.62,3711.35L3035.99,3711.35C3033.74,3711.35 3032.62,3712.22 3032.62,3713.97C3032.62,3714.47 3032.7,3714.99 3032.87,3715.53C3033.03,3716.08 3033.2,3716.64 3033.37,3717.22L3046.37,3757.22L3063.49,3716.72C3063.74,3715.97 3063.87,3715.18 3063.87,3714.35C3063.87,3712.35 3062.45,3711.35 3059.62,3711.35L3054.24,3711.35L3054.24,3704.22L3088.62,3704.22L3088.62,3711.35L3081.37,3711.35C3079.37,3711.35 3078.37,3712.1 3078.37,3713.6C3078.37,3714.01 3078.45,3714.43 3078.62,3714.85C3078.78,3715.26 3078.95,3715.68 3079.12,3716.1L3095.49,3757.22L3109.62,3716.72C3109.87,3715.97 3109.99,3715.3 3109.99,3714.72C3109.99,3712.47 3108.24,3711.35 3104.74,3711.35L3099.99,3711.35L3099.99,3704.22L3126.37,3704.22L3126.37,3711.35Z" style="fill-rule:nonzero;"/>
        <path d="M3143.49,3758.97C3143.49,3761.72 3142.53,3764.05 3140.62,3765.97C3138.7,3767.89 3136.37,3768.85 3133.62,3768.85C3130.87,3768.85 3128.53,3767.89 3126.62,3765.97C3124.7,3764.05 3123.74,3761.72 3123.74,3758.97C3123.74,3756.3 3124.7,3753.99 3126.62,3752.03C3128.53,3750.08 3130.87,3749.1 3133.62,3749.1C3136.37,3749.1 3138.7,3750.08 3140.62,3752.03C3142.53,3753.99 3143.49,3756.3 3143.49,3758.97Z" style="fill-rule:nonzero;"/>
        <path d="M3222.49,3755.6C3222.49,3759.26 3223.74,3761.1 3226.24,3761.1C3227.41,3761.1 3228.28,3760.53 3228.87,3759.41C3229.45,3758.28 3229.74,3757.01 3229.74,3755.6L3229.74,3748.22L3235.62,3748.22L3235.62,3753.85C3235.62,3756.6 3235.28,3758.93 3234.62,3760.85C3233.95,3762.76 3232.99,3764.3 3231.74,3765.47C3230.49,3766.64 3229.01,3767.47 3227.31,3767.97C3225.6,3768.47 3223.74,3768.72 3221.74,3768.72C3219.49,3768.72 3217.58,3768.37 3215.99,3767.66C3214.41,3766.95 3213.08,3766.01 3211.99,3764.85C3210.91,3763.68 3210.08,3762.35 3209.49,3760.85C3208.91,3759.35 3208.45,3757.76 3208.12,3756.1C3207.2,3757.93 3205.93,3759.68 3204.31,3761.35C3202.68,3763.01 3200.74,3764.49 3198.49,3765.78C3196.24,3767.08 3193.7,3768.1 3190.87,3768.85C3188.03,3769.6 3184.99,3769.97 3181.74,3769.97C3173.91,3769.97 3168.18,3768.37 3164.56,3765.16C3160.93,3761.95 3159.12,3757.6 3159.12,3752.1C3159.12,3748.76 3159.76,3745.99 3161.06,3743.78C3162.35,3741.58 3164.14,3739.72 3166.43,3738.22C3168.72,3736.72 3171.39,3735.53 3174.43,3734.66C3177.47,3733.78 3180.72,3732.99 3184.18,3732.28C3187.64,3731.58 3191.22,3730.89 3194.93,3730.22C3198.64,3729.55 3202.33,3728.72 3205.99,3727.72L3205.99,3723.85C3205.99,3721.76 3205.72,3719.8 3205.18,3717.97C3204.64,3716.14 3203.76,3714.53 3202.56,3713.16C3201.35,3711.78 3199.83,3710.7 3197.99,3709.91C3196.16,3709.12 3193.99,3708.72 3191.49,3708.72C3187.24,3708.72 3183.68,3709.14 3180.81,3709.97C3177.93,3710.8 3175.62,3711.93 3173.87,3713.35C3175.78,3713.51 3177.41,3714.14 3178.74,3715.22C3180.08,3716.3 3180.74,3717.85 3180.74,3719.85C3180.74,3722.18 3179.99,3724.08 3178.49,3725.53C3176.99,3726.99 3174.78,3727.72 3171.87,3727.72C3168.95,3727.72 3166.76,3726.95 3165.31,3725.41C3163.85,3723.87 3163.12,3721.72 3163.12,3718.97C3163.12,3716.89 3163.78,3714.8 3165.12,3712.72C3166.45,3710.64 3168.37,3708.78 3170.87,3707.16C3173.37,3705.53 3176.47,3704.22 3180.18,3703.22C3183.89,3702.22 3188.12,3701.72 3192.87,3701.72C3196.7,3701.72 3200.41,3702.08 3203.99,3702.78C3207.58,3703.49 3210.74,3704.7 3213.49,3706.41C3216.24,3708.12 3218.43,3710.45 3220.06,3713.41C3221.68,3716.37 3222.49,3720.1 3222.49,3724.6L3222.49,3755.6ZM3206.12,3732.6C3200.78,3733.93 3196.16,3735.16 3192.24,3736.28C3188.33,3737.41 3185.08,3738.62 3182.49,3739.91C3179.91,3741.2 3177.99,3742.68 3176.74,3744.35C3175.49,3746.01 3174.87,3748.1 3174.87,3750.6C3174.87,3753.6 3175.91,3755.93 3177.99,3757.6C3180.08,3759.26 3183.24,3760.1 3187.49,3760.1C3191.74,3760.1 3195.51,3759.08 3198.81,3757.03C3202.1,3754.99 3204.53,3752.64 3206.12,3749.97L3206.12,3732.6Z" style="fill-rule:nonzero;"/>
        <path d="M3272.12,3716.1C3274.53,3711.35 3277.47,3707.91 3280.93,3705.78C3284.39,3703.66 3288.12,3702.6 3292.12,3702.6C3293.95,3702.6 3295.85,3702.89 3297.81,3703.47C3299.76,3704.05 3301.53,3704.97 3303.12,3706.22C3304.7,3707.47 3305.99,3709.08 3306.99,3711.03C3307.99,3712.99 3308.49,3715.3 3308.49,3717.97C3308.49,3721.14 3307.64,3723.74 3305.93,3725.78C3304.22,3727.83 3301.91,3728.85 3298.99,3728.85C3296.08,3728.85 3293.87,3728.08 3292.37,3726.53C3290.87,3724.99 3290.12,3723.14 3290.12,3720.97C3290.12,3718.89 3290.81,3717.14 3292.18,3715.72C3293.56,3714.3 3295.66,3713.55 3298.49,3713.47C3297.83,3712.22 3296.74,3711.26 3295.24,3710.6C3293.74,3709.93 3292.16,3709.6 3290.49,3709.6C3288.99,3709.6 3287.39,3709.97 3285.68,3710.72C3283.97,3711.47 3282.31,3712.6 3280.68,3714.1C3279.06,3715.6 3277.49,3717.53 3275.99,3719.91C3274.49,3722.28 3273.2,3725.1 3272.12,3728.35L3272.12,3755.1C3272.12,3757.01 3273.16,3758.43 3275.24,3759.35C3277.33,3760.26 3280.37,3760.72 3284.37,3760.72L3284.37,3767.85L3244.24,3767.85L3244.24,3760.72C3251.41,3760.72 3254.99,3758.85 3254.99,3755.1L3254.99,3716.97C3254.99,3713.22 3251.41,3711.35 3244.24,3711.35L3244.24,3704.22L3272.12,3704.22L3272.12,3716.1Z" style="fill-rule:nonzero;"/>
        <path d="M3381.62,3755.6C3381.62,3759.26 3382.87,3761.1 3385.37,3761.1C3386.53,3761.1 3387.41,3760.53 3387.99,3759.41C3388.58,3758.28 3388.87,3757.01 3388.87,3755.6L3388.87,3748.22L3394.74,3748.22L3394.74,3753.85C3394.74,3756.6 3394.41,3758.93 3393.74,3760.85C3393.08,3762.76 3392.12,3764.3 3390.87,3765.47C3389.62,3766.64 3388.14,3767.47 3386.43,3767.97C3384.72,3768.47 3382.87,3768.72 3380.87,3768.72C3378.62,3768.72 3376.7,3768.37 3375.12,3767.66C3373.53,3766.95 3372.2,3766.01 3371.12,3764.85C3370.03,3763.68 3369.2,3762.35 3368.62,3760.85C3368.03,3759.35 3367.58,3757.76 3367.24,3756.1C3366.33,3757.93 3365.06,3759.68 3363.43,3761.35C3361.81,3763.01 3359.87,3764.49 3357.62,3765.78C3355.37,3767.08 3352.83,3768.1 3349.99,3768.85C3347.16,3769.6 3344.12,3769.97 3340.87,3769.97C3333.03,3769.97 3327.31,3768.37 3323.68,3765.16C3320.06,3761.95 3318.24,3757.6 3318.24,3752.1C3318.24,3748.76 3318.89,3745.99 3320.18,3743.78C3321.47,3741.58 3323.26,3739.72 3325.56,3738.22C3327.85,3736.72 3330.51,3735.53 3333.56,3734.66C3336.6,3733.78 3339.85,3732.99 3343.31,3732.28C3346.76,3731.58 3350.35,3730.89 3354.06,3730.22C3357.76,3729.55 3361.45,3728.72 3365.12,3727.72L3365.12,3723.85C3365.12,3721.76 3364.85,3719.8 3364.31,3717.97C3363.76,3716.14 3362.89,3714.53 3361.68,3713.16C3360.47,3711.78 3358.95,3710.7 3357.12,3709.91C3355.28,3709.12 3353.12,3708.72 3350.62,3708.72C3346.37,3708.72 3342.81,3709.14 3339.93,3709.97C3337.06,3710.8 3334.74,3711.93 3332.99,3713.35C3334.91,3713.51 3336.53,3714.14 3337.87,3715.22C3339.2,3716.3 3339.87,3717.85 3339.87,3719.85C3339.87,3722.18 3339.12,3724.08 3337.62,3725.53C3336.12,3726.99 3333.91,3727.72 3330.99,3727.72C3328.08,3727.72 3325.89,3726.95 3324.43,3725.41C3322.97,3723.87 3322.24,3721.72 3322.24,3718.97C3322.24,3716.89 3322.91,3714.8 3324.24,3712.72C3325.58,3710.64 3327.49,3708.78 3329.99,3707.16C3332.49,3705.53 3335.6,3704.22 3339.31,3703.22C3343.01,3702.22 3347.24,3701.72 3351.99,3701.72C3355.83,3701.72 3359.53,3702.08 3363.12,3702.78C3366.7,3703.49 3369.87,3704.7 3372.62,3706.41C3375.37,3708.12 3377.56,3710.45 3379.18,3713.41C3380.81,3716.37 3381.62,3720.1 3381.62,3724.6L3381.62,3755.6ZM3365.24,3732.6C3359.91,3733.93 3355.28,3735.16 3351.37,3736.28C3347.45,3737.41 3344.2,3738.62 3341.62,3739.91C3339.03,3741.2 3337.12,3742.68 3335.87,3744.35C3334.62,3746.01 3333.99,3748.1 3333.99,3750.6C3333.99,3753.6 3335.03,3755.93 3337.12,3757.6C3339.2,3759.26 3342.37,3760.1 3346.62,3760.1C3350.87,3760.1 3354.64,3759.08 3357.93,3757.03C3361.22,3754.99 3363.66,3752.64 3365.24,3749.97L3365.24,3732.6Z" style="fill-rule:nonzero;"/>
        <path d="M3472.87,3711.35C3470.45,3711.35 3468.39,3711.7 3466.68,3712.41C3464.97,3713.12 3463.83,3714.18 3463.24,3715.6L3441.74,3767.85L3425.62,3767.85L3404.12,3715.72C3402.87,3712.8 3399.95,3711.35 3395.37,3711.35L3395.37,3704.22L3431.62,3704.22L3431.62,3711.35L3424.87,3711.35C3422.45,3711.35 3421.24,3712.14 3421.24,3713.72C3421.24,3714.47 3421.37,3715.14 3421.62,3715.72L3438.24,3757.22L3455.12,3716.72C3455.45,3716.14 3455.62,3715.47 3455.62,3714.72C3455.62,3712.47 3453.83,3711.35 3450.24,3711.35L3445.49,3711.35L3445.49,3704.22L3472.87,3704.22L3472.87,3711.35Z" style="fill-rule:nonzero;"/>
        <path d="M3510.49,3755.1C3510.33,3758.85 3513.95,3760.72 3521.37,3760.72L3521.37,3767.85L3482.62,3767.85L3482.62,3760.72C3489.78,3760.72 3493.37,3758.85 3493.37,3755.1L3493.37,3717.1C3493.37,3713.26 3489.78,3711.35 3482.62,3711.35L3482.62,3704.22L3510.49,3704.22L3510.49,3755.1ZM3511.99,3683.22C3511.99,3686.14 3510.97,3688.66 3508.93,3690.78C3506.89,3692.91 3504.37,3693.97 3501.37,3693.97C3499.87,3693.97 3498.47,3693.68 3497.18,3693.1C3495.89,3692.51 3494.76,3691.74 3493.81,3690.78C3492.85,3689.83 3492.08,3688.7 3491.49,3687.41C3490.91,3686.12 3490.62,3684.72 3490.62,3683.22C3490.62,3680.22 3491.68,3677.7 3493.81,3675.66C3495.93,3673.62 3498.45,3672.6 3501.37,3672.6C3504.28,3672.6 3506.78,3673.64 3508.87,3675.72C3510.95,3677.8 3511.99,3680.3 3511.99,3683.22Z" style="fill-rule:nonzero;"/>
        <path d="M3606.74,3755.1C3606.74,3758.85 3610.41,3760.72 3617.74,3760.72L3617.74,3767.85L3581.37,3767.85L3581.37,3760.72C3586.95,3760.72 3589.74,3758.85 3589.74,3755.1L3589.74,3727.35C3589.74,3722.1 3588.91,3718.35 3587.24,3716.1C3585.58,3713.85 3583.33,3712.72 3580.49,3712.72C3578.33,3712.72 3576.18,3713.14 3574.06,3713.97C3571.93,3714.8 3569.91,3715.97 3567.99,3717.47C3566.08,3718.97 3564.33,3720.74 3562.74,3722.78C3561.16,3724.83 3559.87,3727.01 3558.87,3729.35L3558.87,3755.1C3558.87,3758.85 3561.66,3760.72 3567.24,3760.72L3567.24,3767.85L3530.99,3767.85L3530.99,3760.72C3538.16,3760.72 3541.74,3758.85 3541.74,3755.1L3541.74,3716.97C3541.74,3713.22 3538.16,3711.35 3530.99,3711.35L3530.99,3704.22L3558.87,3704.22L3558.87,3716.97C3562.03,3712.89 3565.99,3709.53 3570.74,3706.91C3575.49,3704.28 3580.91,3702.97 3586.99,3702.97C3593.24,3702.97 3598.1,3704.43 3601.56,3707.35C3605.01,3710.26 3606.74,3715.01 3606.74,3721.6L3606.74,3755.1Z" style="fill-rule:nonzero;"/>
        <path d="M3652.74,3704.22L3669.37,3704.22L3668.74,3713.22C3666.41,3712.72 3663.93,3712.37 3661.31,3712.16C3658.68,3711.95 3655.83,3711.85 3652.74,3711.85L3652.74,3755.47C3652.74,3759.22 3654.58,3761.1 3658.24,3761.1C3660.16,3761.1 3661.47,3760.58 3662.18,3759.53C3662.89,3758.49 3663.24,3757.14 3663.24,3755.47L3663.24,3748.22L3669.37,3748.22L3669.37,3753.72C3669.37,3755.97 3669.14,3758.01 3668.68,3759.85C3668.22,3761.68 3667.39,3763.24 3666.18,3764.53C3664.97,3765.83 3663.37,3766.85 3661.37,3767.6C3659.37,3768.35 3656.83,3768.72 3653.74,3768.72C3647.24,3768.72 3642.6,3767.26 3639.81,3764.35C3637.01,3761.43 3635.62,3757.35 3635.62,3752.1L3635.62,3711.85L3624.74,3711.85L3624.74,3705.85C3627.08,3705.68 3629.26,3705.35 3631.31,3704.85C3633.35,3704.35 3635.14,3703.47 3636.68,3702.22C3638.22,3700.97 3639.43,3699.22 3640.31,3696.97C3641.18,3694.72 3641.62,3691.8 3641.62,3688.22L3641.62,3685.47L3652.74,3684.6L3652.74,3704.22Z" style="fill-rule:nonzero;"/>
        <path d="M3706.62,3716.97C3709.78,3712.89 3713.64,3709.53 3718.18,3706.91C3722.72,3704.28 3728.03,3702.97 3734.12,3702.97C3740.37,3702.97 3745.12,3704.43 3748.37,3707.35C3751.62,3710.26 3753.24,3715.01 3753.24,3721.6L3753.24,3755.1C3753.24,3758.85 3756.87,3760.72 3764.12,3760.72L3764.12,3767.85L3727.74,3767.85L3727.74,3760.72C3733.33,3760.72 3736.12,3758.85 3736.12,3755.1L3736.12,3727.1C3736.12,3721.85 3735.41,3718.1 3733.99,3715.85C3732.58,3713.6 3730.45,3712.47 3727.62,3712.47C3725.45,3712.47 3723.35,3712.89 3721.31,3713.72C3719.26,3714.55 3717.31,3715.72 3715.43,3717.22C3713.56,3718.72 3711.87,3720.49 3710.37,3722.53C3708.87,3724.58 3707.62,3726.76 3706.62,3729.1L3706.62,3755.1C3706.62,3758.85 3709.41,3760.72 3714.99,3760.72L3714.99,3767.85L3678.74,3767.85L3678.74,3760.72C3685.91,3760.72 3689.49,3758.85 3689.49,3755.1L3689.49,3684.35C3689.49,3680.6 3685.95,3678.72 3678.87,3678.72L3678.87,3671.6L3706.62,3671.6L3706.62,3716.97Z" style="fill-rule:nonzero;"/>
        <path d="M3799.12,3758.97C3799.12,3761.72 3798.16,3764.05 3796.24,3765.97C3794.33,3767.89 3791.99,3768.85 3789.24,3768.85C3786.49,3768.85 3784.16,3767.89 3782.24,3765.97C3780.33,3764.05 3779.37,3761.72 3779.37,3758.97C3779.37,3756.3 3780.33,3753.99 3782.24,3752.03C3784.16,3750.08 3786.49,3749.1 3789.24,3749.1C3791.99,3749.1 3794.33,3750.08 3796.24,3752.03C3798.16,3753.99 3799.12,3756.3 3799.12,3758.97Z" style="fill-rule:nonzero;"/>
        <path d="M3842.62,3755.1C3842.45,3758.85 3846.08,3760.72 3853.49,3760.72L3853.49,3767.85L3814.74,3767.85L3814.74,3760.72C3821.91,3760.72 3825.49,3758.85 3825.49,3755.1L3825.49,3717.1C3825.49,3713.26 3821.91,3711.35 3814.74,3711.35L3814.74,3704.22L3842.62,3704.22L3842.62,3755.1ZM3844.12,3683.22C3844.12,3686.14 3843.1,3688.66 3841.06,3690.78C3839.01,3692.91 3836.49,3693.97 3833.49,3693.97C3831.99,3693.97 3830.6,3693.68 3829.31,3693.1C3828.01,3692.51 3826.89,3691.74 3825.93,3690.78C3824.97,3689.83 3824.2,3688.7 3823.62,3687.41C3823.03,3686.12 3822.74,3684.72 3822.74,3683.22C3822.74,3680.22 3823.81,3677.7 3825.93,3675.66C3828.06,3673.62 3830.58,3672.6 3833.49,3672.6C3836.41,3672.6 3838.91,3673.64 3840.99,3675.72C3843.08,3677.8 3844.12,3680.3 3844.12,3683.22Z" style="fill-rule:nonzero;"/>
        <path d="M3938.87,3755.1C3938.87,3758.85 3942.53,3760.72 3949.87,3760.72L3949.87,3767.85L3913.49,3767.85L3913.49,3760.72C3919.08,3760.72 3921.87,3758.85 3921.87,3755.1L3921.87,3727.35C3921.87,3722.1 3921.03,3718.35 3919.37,3716.1C3917.7,3713.85 3915.45,3712.72 3912.62,3712.72C3910.45,3712.72 3908.31,3713.14 3906.18,3713.97C3904.06,3714.8 3902.03,3715.97 3900.12,3717.47C3898.2,3718.97 3896.45,3720.74 3894.87,3722.78C3893.28,3724.83 3891.99,3727.01 3890.99,3729.35L3890.99,3755.1C3890.99,3758.85 3893.78,3760.72 3899.37,3760.72L3899.37,3767.85L3863.12,3767.85L3863.12,3760.72C3870.28,3760.72 3873.87,3758.85 3873.87,3755.1L3873.87,3716.97C3873.87,3713.22 3870.28,3711.35 3863.12,3711.35L3863.12,3704.22L3890.99,3704.22L3890.99,3716.97C3894.16,3712.89 3898.12,3709.53 3902.87,3706.91C3907.62,3704.28 3913.03,3702.97 3919.12,3702.97C3925.37,3702.97 3930.22,3704.43 3933.68,3707.35C3937.14,3710.26 3938.87,3715.01 3938.87,3721.6L3938.87,3755.1Z" style="fill-rule:nonzero;"/>
        <path d="M4006.62,3713.22C4001.37,3712.72 3997.16,3712.37 3993.99,3712.16C3990.83,3711.95 3988.62,3711.85 3987.37,3711.85L3987.37,3755.1C3987.37,3758.85 3992.91,3760.72 4003.99,3760.72L4003.99,3767.85L3959.62,3767.85L3959.62,3760.72C3966.78,3760.72 3970.37,3758.85 3970.37,3755.1L3970.37,3711.85L3959.49,3711.85L3959.49,3705.85C3960.91,3705.51 3962.49,3705.2 3964.24,3704.91C3965.99,3704.62 3967.95,3704.39 3970.12,3704.22L3970.12,3691.35C3970.12,3687.6 3970.68,3684.39 3971.81,3681.72C3972.93,3679.05 3974.53,3676.87 3976.62,3675.16C3978.7,3673.45 3981.24,3672.22 3984.24,3671.47C3987.24,3670.72 3990.58,3670.35 3994.24,3670.35C3997.58,3670.35 4000.64,3670.66 4003.43,3671.28C4006.22,3671.91 4008.62,3672.85 4010.62,3674.1C4012.62,3675.35 4014.18,3676.93 4015.31,3678.85C4016.43,3680.76 4016.99,3683.01 4016.99,3685.6C4016.99,3688.01 4016.26,3690.16 4014.81,3692.03C4013.35,3693.91 4011.08,3694.85 4007.99,3694.85C4005.08,3694.85 4002.93,3694.12 4001.56,3692.66C4000.18,3691.2 3999.49,3689.51 3999.49,3687.6C3999.49,3685.51 4000.16,3683.85 4001.49,3682.6C4002.83,3681.35 4004.58,3680.6 4006.74,3680.35C4004.91,3678.01 4001.41,3676.85 3996.24,3676.85C3993.58,3676.85 3991.41,3677.64 3989.74,3679.22C3988.08,3680.8 3987.24,3683.35 3987.24,3686.85L3987.24,3704.22L4007.24,3704.22L4006.62,3713.22Z" style="fill-rule:nonzero;"/>
        <path d="M4084.62,3735.72C4084.62,3746.64 4081.62,3755.08 4075.62,3761.03C4069.62,3766.99 4060.91,3769.97 4049.49,3769.97C4044.99,3769.97 4040.7,3769.45 4036.62,3768.41C4032.53,3767.37 4028.97,3765.58 4025.93,3763.03C4022.89,3760.49 4020.45,3757.12 4018.62,3752.91C4016.78,3748.7 4015.87,3743.47 4015.87,3737.22C4015.87,3725.8 4018.74,3717.03 4024.49,3710.91C4030.24,3704.78 4039.03,3701.72 4050.87,3701.72C4055.45,3701.72 4059.81,3702.28 4063.93,3703.41C4068.06,3704.53 4071.64,3706.41 4074.68,3709.03C4077.72,3711.66 4080.14,3715.14 4081.93,3719.47C4083.72,3723.8 4084.62,3729.22 4084.62,3735.72ZM4050.74,3709.97C4044.49,3709.97 4039.95,3711.99 4037.12,3716.03C4034.28,3720.08 4032.87,3725.89 4032.87,3733.47C4032.87,3739.14 4033.24,3743.8 4033.99,3747.47C4034.74,3751.14 4035.85,3754.03 4037.31,3756.16C4038.76,3758.28 4040.51,3759.76 4042.56,3760.6C4044.6,3761.43 4046.95,3761.85 4049.62,3761.85C4056.2,3761.85 4060.83,3759.64 4063.49,3755.22C4066.16,3750.8 4067.49,3744.55 4067.49,3736.47C4067.49,3731.22 4067.1,3726.89 4066.31,3723.47C4065.51,3720.05 4064.37,3717.35 4062.87,3715.35C4061.37,3713.35 4059.6,3711.95 4057.56,3711.16C4055.51,3710.37 4053.24,3709.97 4050.74,3709.97Z" style="fill-rule:nonzero;"/>
    </g>
</svg>
