0
SECTION
2
HEADER
9
$INSUNITS
70
4
9
$ACADVER
1
AC1014
9
$HANDSEED
5
FFFF
0
ENDSEC
0
SECTION
2
TABLES
0
TABLE
2
VPORT
5
8
100
AcDbSymbolTable
0
ENDTAB
0
TABLE
2
LTYPE
5
5
100
AcDbSymbolTable
0
LTYPE
5
14
100
AcDbSymbolTableRecord
100
AcDbLinetypeTableRecord
2
BYBLOCK
70
0
0
LTYPE
5
15
100
AcDbSymbolTableRecord
100
AcDbLinetypeTableRecord
2
BYLAYER
70
0
0
ENDTAB
0
TABLE
2
LAYER
5
2
100
AcDbSymbolTable
70
2
0
LAYER
5
50
100
AcDbSymbolTableRecord
100
AcDbLayerTableRecord
2
0
70
0
6
CONTINUOUS
0
ENDTAB
0
TABLE
2
STYLE
5
3
100
AcDbSymbolTable
70
1
0
STYLE
5
11
100
AcDbSymbolTableRecord
100
AcDbTextStyleTableRecord
2
STANDARD
70
0
0
ENDTAB
0
TABLE
2
VIEW
5
6
100
AcDbSymbolTable
70
0
0
ENDTAB
0
TABLE
2
UCS
5
7
100
AcDbSymbolTable
70
0
0
ENDTAB
0
TABLE
2
APPID
5
9
100
AcDbSymbolTable
70
2
0
APPID
5
12
100
AcDbSymbolTableRecord
100
AcDbRegAppTableRecord
2
ACAD
70
0
0
ENDTAB
0
TABLE
2
DIMSTYLE
5
A
100
AcDbSymbolTable
70
1
0
ENDTAB
0
TABLE
2
BLOCK_RECORD
5
1
100
AcDbSymbolTable
70
1
0
BLOCK_RECORD
5
1F
100
AcDbSymbolTableRecord
100
AcDbBlockTableRecord
2
*MODEL_SPACE
0
BLOCK_RECORD
5
1B
100
AcDbSymbolTableRecord
100
AcDbBlockTableRecord
2
*PAPER_SPACE
0
ENDTAB
0
ENDSEC
0
SECTION
2
BLOCKS
0
BLOCK
5
20
100
AcDbEntity
100
AcDbBlockBegin
2
*MODEL_SPACE
0
ENDBLK
5
21
100
AcDbEntity
100
AcDbBlockEnd
0
BLOCK
5
1C
100
AcDbEntity
100
AcDbBlockBegin
2
*PAPER_SPACE
0
ENDBLK
5
1D
100
AcDbEntity
100
AcDbBlockEnd
0
ENDSEC
0
SECTION
2
ENTITIES
0
LWPOLYLINE
5
100
100
AcDbEntity
8
0
100
AcDbPolyline
90
8
70
1
43
0.0
10
149.40497035980226
20
-217.12169842299798
10
140.457734238733
20
-226.06893454406725
10
-73.422793519129215
20
-226.06893454406725
10
-82.370029640197771
20
-217.12169842299869
10
-82.370029640197771
20
65.018789334863214
10
-73.422793519128476
20
73.966025455932453
10
140.45773423873297
20
73.966025455932453
10
149.40497035980226
20
65.018789334863214
0
LWPOLYLINE
5
101
100
AcDbEntity
8
0
100
AcDbPolyline
90
4
70
1
43
0.0
10
-50.334279640198012
20
46.119135445459847
42
-0.53595402210858267
10
-21.886279640198083
20
46.119135445460117
10
-21.886279640198076
20
27.202955466404532
42
-0.53595402210857557
10
-50.334279640198019
20
27.202955466404806
0
LWPOLYLINE
5
102
100
AcDbEntity
8
0
100
AcDbPolyline
90
4
70
1
43
0.0
10
-11.091279640197968
20
46.11913544545979
42
-0.53595402210858323
10
17.356720359801933
20
46.119135445460117
10
17.356720359801933
20
27.202955466404461
42
-0.53595402210857412
10
-11.091279640197973
20
27.202955466404806
0
CIRCLE
5
103
100
AcDbEntity
8
0
100
AcDbCircle
10
-63.115130870627127
20
-13.285585742320887
30
-1.1878423933353588e-06
40
1.4223999999999903
0
CIRCLE
5
104
100
AcDbEntity
8
0
100
AcDbCircle
10
56.855076698093505
20
-13.285585742320887
30
-1.1878423933353588e-06
40
1.4223999999999903
0
CIRCLE
5
105
100
AcDbEntity
8
0
100
AcDbCircle
10
-18.014972194044667
20
-13.285585742320887
30
-1.1878423933353588e-06
40
1.4223999999999903
0
CIRCLE
5
106
100
AcDbEntity
8
0
100
AcDbCircle
10
11.754918021511047
20
-13.285585742320887
30
-1.1878423933353588e-06
40
1.4223999999999903
0
CIRCLE
5
107
100
AcDbEntity
8
0
100
AcDbCircle
10
134.12930025422671
20
-13.285585742320887
30
-1.1878423933353588e-06
40
1.4224000000000041
0
CIRCLE
5
108
100
AcDbEntity
8
0
100
AcDbCircle
10
134.12930025422671
20
1.8020142576789855
30
-1.1878423933353588e-06
40
1.4224000000000041
0
CIRCLE
5
109
100
AcDbEntity
8
0
100
AcDbCircle
10
127.77930025422705
20
-43.841785742320958
30
-1.1878423933353588e-06
40
1.4224000000000041
0
CIRCLE
5
110
100
AcDbEntity
8
0
100
AcDbCircle
10
60.50497035980225
20
62.061045455932472
30
-1.1878423933353588e-06
40
1.4224000000000181
0
CIRCLE
5
111
100
AcDbEntity
8
0
100
AcDbCircle
10
98.604970359802252
20
62.061045455932472
30
-1.1878423933353588e-06
40
1.4223999999999903
0
CIRCLE
5
112
100
AcDbEntity
8
0
100
AcDbCircle
10
83.329300254226695
20
-43.841785742320958
30
-1.1878423933353588e-06
40
1.4224000000000041
0
CIRCLE
5
113
100
AcDbEntity
8
0
100
AcDbCircle
10
83.329300254226695
20
26.008214257679043
30
-1.1878423933353588e-06
40
1.4224000000000041
0
CIRCLE
5
114
100
AcDbEntity
8
0
100
AcDbCircle
10
127.7793002542267
20
26.008214257679043
30
-1.1878423933353588e-06
40
1.4224000000000041
0
CIRCLE
5
115
100
AcDbEntity
8
0
100
AcDbCircle
10
90.949300254226628
20
26.008214257679043
30
-1.1878423933353588e-06
40
1.4224000000000041
0
CIRCLE
5
116
100
AcDbEntity
8
0
100
AcDbCircle
10
90.949300254226628
20
-37.491785742320957
30
-1.1878423933353588e-06
40
1.4224000000000041
0
CIRCLE
5
117
100
AcDbEntity
8
0
100
AcDbCircle
10
134.12930025422671
20
-37.491785742320957
30
-1.1878423933353588e-06
40
1.4224000000000041
0
CIRCLE
5
118
100
AcDbEntity
8
0
100
AcDbCircle
10
101.10930025422675
20
26.008214257679043
30
-1.1878423933353588e-06
40
1.4223999999999903
0
CIRCLE
5
119
100
AcDbEntity
8
0
100
AcDbCircle
10
134.12930025422671
20
-19.711785742320522
30
-1.1878423933353588e-06
40
1.4224000000000041
0
CIRCLE
5
120
100
AcDbEntity
8
0
100
AcDbCircle
10
47.804970359802617
20
55.711045455932449
30
-1.1878423933353588e-06
40
1.4224000000000181
0
CIRCLE
5
121
100
AcDbEntity
8
0
100
AcDbCircle
10
111.30497035980261
20
55.711045455932449
30
-1.1878423933353588e-06
40
1.4223999999999903
0
CIRCLE
5
122
100
AcDbEntity
8
0
100
AcDbCircle
10
101.10930025422675
20
-19.711785742320522
30
-1.1878423933353588e-06
40
1.4223999999999903
0
CIRCLE
5
123
100
AcDbEntity
8
0
100
AcDbCircle
10
25.579970359802246
20
36.661045455932438
30
-1.1878423933353588e-06
40
1.4223999999999903
0
CIRCLE
5
124
100
AcDbEntity
8
0
100
AcDbCircle
10
134.12930025422671
20
26.008214257679043
30
-1.1878423933353588e-06
40
1.4224000000000041
0
CIRCLE
5
125
100
AcDbEntity
8
0
100
AcDbCircle
10
-16.488779640197741
20
36.661045455932438
30
-1.1878423933353588e-06
40
1.9050000000000038
0
CIRCLE
5
126
100
AcDbEntity
8
0
100
AcDbCircle
10
130.35497035980225
20
43.011045455932461
30
-1.1878423933353588e-06
40
1.4223999999999903
0
CIRCLE
5
127
100
AcDbEntity
8
0
100
AcDbCircle
10
70.029970359802263
20
62.061045455932472
30
-1.1878423933353588e-06
40
3.8100000000000076
0
CIRCLE
5
128
100
AcDbEntity
8
0
100
AcDbCircle
10
89.079970359802246
20
62.061045455932472
30
-1.1878423933353588e-06
40
3.8099999999999801
0
CIRCLE
5
129
100
AcDbEntity
8
0
100
AcDbCircle
10
79.55497035980224
20
62.061045455932472
30
-1.1878423933353588e-06
40
3.8100000000000076
0
CIRCLE
5
130
100
AcDbEntity
8
0
100
AcDbCircle
10
-59.351259023343204
20
67.220388649577956
30
-1.1878423933353588e-06
40
3.1749999999999834
0
CIRCLE
5
131
100
AcDbEntity
8
0
100
AcDbCircle
10
126.38619974293617
20
67.220388649577956
30
-1.1878423933353588e-06
40
3.1749999999999834
0
CIRCLE
5
132
100
AcDbEntity
8
0
100
AcDbCircle
10
-59.351259023343204
20
-219.32329773770692
30
-1.1878423933353588e-06
40
3.1749999999999834
0
CIRCLE
5
133
100
AcDbEntity
8
0
100
AcDbCircle
10
126.38619974293617
20
-219.32329773770692
30
-1.1878423933353588e-06
40
3.1749999999999834
0
CIRCLE
5
134
100
AcDbEntity
8
0
100
AcDbCircle
10
-71.257529640198115
20
54.123545455932444
30
-1.1878423933353588e-06
40
3.1749999999999834
0
CIRCLE
5
135
100
AcDbEntity
8
0
100
AcDbCircle
10
138.29247035980188
20
54.123545455932799
30
-1.1878423933353588e-06
40
3.1750000000000114
0
CIRCLE
5
136
100
AcDbEntity
8
0
100
AcDbCircle
10
-71.25752964019739
20
-206.22645454406722
30
-1.1878423933353588e-06
40
3.1749999999999834
0
CIRCLE
5
137
100
AcDbEntity
8
0
100
AcDbCircle
10
138.29247035980225
20
-206.22645454406722
30
-1.1878423933353588e-06
40
3.1749999999999834
0
ENDSEC
0
SECTION
2
OBJECTS
0
DICTIONARY
5
C
100
AcDbDictionary
3
ACAD_GROUP
350
D
3
ACAD_MLINESTYLE
350
17
0
DICTIONARY
5
D
100
AcDbDictionary
0
DICTIONARY
5
1A
330
C
100
AcDbDictionary
0
DICTIONARY
5
17
100
AcDbDictionary
0
ENDSEC
0
EOF
