0
SECTION
2
HEADER
9
$INSUNITS
70
4
9
$ACADVER
1
AC1014
9
$HANDSEED
5
FFFF
0
ENDSEC
0
SECTION
2
TABLES
0
TABLE
2
VPORT
5
8
100
AcDbSymbolTable
0
ENDTAB
0
TABLE
2
LTYPE
5
5
100
AcDbSymbolTable
0
LTYPE
5
14
100
AcDbSymbolTableRecord
100
AcDbLinetypeTableRecord
2
BYBLOCK
70
0
0
LTYPE
5
15
100
AcDbSymbolTableRecord
100
AcDbLinetypeTableRecord
2
BYLAYER
70
0
0
ENDTAB
0
TABLE
2
LAYER
5
2
100
AcDbSymbolTable
70
2
0
LAYER
5
50
100
AcDbSymbolTableRecord
100
AcDbLayerTableRecord
2
0
70
0
6
CONTINUOUS
0
ENDTAB
0
TABLE
2
STYLE
5
3
100
AcDbSymbolTable
70
1
0
STYLE
5
11
100
AcDbSymbolTableRecord
100
AcDbTextStyleTableRecord
2
STANDARD
70
0
0
ENDTAB
0
TABLE
2
VIEW
5
6
100
AcDbSymbolTable
70
0
0
ENDTAB
0
TABLE
2
UCS
5
7
100
AcDbSymbolTable
70
0
0
ENDTAB
0
TABLE
2
APPID
5
9
100
AcDbSymbolTable
70
2
0
APPID
5
12
100
AcDbSymbolTableRecord
100
AcDbRegAppTableRecord
2
ACAD
70
0
0
ENDTAB
0
TABLE
2
DIMSTYLE
5
A
100
AcDbSymbolTable
70
1
0
ENDTAB
0
TABLE
2
BLOCK_RECORD
5
1
100
AcDbSymbolTable
70
1
0
BLOCK_RECORD
5
1F
100
AcDbSymbolTableRecord
100
AcDbBlockTableRecord
2
*MODEL_SPACE
0
BLOCK_RECORD
5
1B
100
AcDbSymbolTableRecord
100
AcDbBlockTableRecord
2
*PAPER_SPACE
0
ENDTAB
0
ENDSEC
0
SECTION
2
BLOCKS
0
BLOCK
5
20
100
AcDbEntity
100
AcDbBlockBegin
2
*MODEL_SPACE
0
ENDBLK
5
21
100
AcDbEntity
100
AcDbBlockEnd
0
BLOCK
5
1C
100
AcDbEntity
100
AcDbBlockBegin
2
*PAPER_SPACE
0
ENDBLK
5
1D
100
AcDbEntity
100
AcDbBlockEnd
0
ENDSEC
0
SECTION
2
ENTITIES
0
LWPOLYLINE
5
100
100
AcDbEntity
8
0
100
AcDbPolyline
90
32
70
1
43
0.0
10
8.0353228662109366
20
-4.035324541015628
10
8.0353228662109366
20
-3.2353087736002633
10
4.8352597965494777
20
-0.035248287760417683
10
3.2353135278320306
20
-0.035248287760417663
10
0.035253041992188733
20
-3.2353087736002633
10
0.035253041992188705
20
-4.8352550423177112
10
3.2353135278320311
20
-8.0353155281575521
10
4.0602218326822941
20
-8.0353155281575539
10
4.0602218326822932
20
-50.03531778645835
10
3.2602060652669298
20
-50.03531778645835
10
0.060145579427083665
20
-53.235293006184897
10
0.060145579427083318
20
-54.835324541015638
10
3.2602060652669298
20
-58.035299760742205
10
4.8601523339843764
20
-58.035299760742198
10
8.0602128198242191
20
-54.83532454101563
10
8.0602128198242173
20
-54.035311357421882
10
50.060215078124997
20
-54.035311357421882
10
50.060215078124997
20
-54.835324541015638
10
53.260190297851565
20
-58.035299760742205
10
54.860221832682292
20
-58.035299760742198
10
58.06019705240886
20
-54.83532454101563
10
58.06019705240886
20
-53.235293006184904
10
54.860221832682292
20
-50.03531778645835
10
54.060208649088544
20
-50.03531778645835
10
54.060208649088544
20
-8.0353155281575521
10
54.860221832682292
20
-8.0353155281575521
10
58.06019705240886
20
-4.8352550423177112
10
58.06019705240886
20
-3.2353087736002633
10
54.860221832682292
20
-0.035248287760417683
10
53.260190297851565
20
-0.035248287760417663
10
50.060215078124997
20
-3.2353087736002633
10
50.060215078125012
20
-4.035324541015628
0
LINE
5
101
100
AcDbEntity
8
0
100
AcDbLine
10
29.060211738127641
20
-0.035244312742717561
30
0
11
29.060211738127641
21
-58.035350173423481
31
0
0
LINE
5
102
100
AcDbEntity
8
0
100
AcDbLine
10
0.060141604409376027
20
-29.035314903539025
30
0
11
58.060247465090136
21
-29.035314903539025
31
0
0
LINE
5
103
100
AcDbEntity
8
0
100
AcDbLine
10
4.0601931631790169
20
-2.5352922439062331
30
0
11
4.0601931631790169
21
-5.5352977194586872
31
0
0
LINE
5
104
100
AcDbEntity
8
0
100
AcDbLine
10
2.5601895355728987
20
-4.0352958951543192
30
0
11
5.5601950111253533
21
-4.0352958951543192
31
0
0
LINE
5
105
100
AcDbEntity
8
0
100
AcDbLine
10
54.060177829845692
20
-2.5352922439062331
30
0
11
54.060177829845692
21
-5.5352977194586872
31
0
0
LINE
5
106
100
AcDbEntity
8
0
100
AcDbLine
10
52.560174202239565
20
-4.0352958951543192
30
0
11
55.560179677792036
21
-4.0352958951543192
31
0
0
LINE
5
107
100
AcDbEntity
8
0
100
AcDbLine
10
54.060177829845692
20
-52.535276910572918
30
0
11
54.060177829845692
21
-55.535282386125374
31
0
0
LINE
5
108
100
AcDbEntity
8
0
100
AcDbLine
10
52.560174202239565
20
-54.035280561821004
30
0
11
55.560179677792036
21
-54.035280561821004
31
0
0
LINE
5
109
100
AcDbEntity
8
0
100
AcDbLine
10
4.0601931631790169
20
-52.535276910572918
30
0
11
4.0601931631790169
21
-55.535282386125374
31
0
0
LINE
5
110
100
AcDbEntity
8
0
100
AcDbLine
10
2.5601895355728987
20
-54.035280561821004
30
0
11
5.5601950111253533
21
-54.035280561821004
31
0
0
ENDSEC
0
SECTION
2
OBJECTS
0
DICTIONARY
5
C
100
AcDbDictionary
3
ACAD_GROUP
350
D
3
ACAD_MLINESTYLE
350
17
0
DICTIONARY
5
D
100
AcDbDictionary
0
DICTIONARY
5
1A
330
C
100
AcDbDictionary
0
DICTIONARY
5
17
100
AcDbDictionary
0
ENDSEC
0
EOF
