0
SECTION
2
HEADER
9
$INSUNITS
70
4
9
$ACADVER
1
AC1014
9
$HANDSEED
5
FFFF
0
ENDSEC
0
SECTION
2
TABLES
0
TABLE
2
VPORT
5
8
100
AcDbSymbolTable
0
ENDTAB
0
TABLE
2
LTYPE
5
5
100
AcDbSymbolTable
0
LTYPE
5
14
100
AcDbSymbolTableRecord
100
AcDbLinetypeTableRecord
2
BYBLOCK
70
0
0
LTYPE
5
15
100
AcDbSymbolTableRecord
100
AcDbLinetypeTableRecord
2
BYLAYER
70
0
0
ENDTAB
0
TABLE
2
LAYER
5
2
100
AcDbSymbolTable
70
2
0
LAYER
5
50
100
AcDbSymbolTableRecord
100
AcDbLayerTableRecord
2
0
70
0
6
CONTINUOUS
0
ENDTAB
0
TABLE
2
STYLE
5
3
100
AcDbSymbolTable
70
1
0
STYLE
5
11
100
AcDbSymbolTableRecord
100
AcDbTextStyleTableRecord
2
STANDARD
70
0
0
ENDTAB
0
TABLE
2
VIEW
5
6
100
AcDbSymbolTable
70
0
0
ENDTAB
0
TABLE
2
UCS
5
7
100
AcDbSymbolTable
70
0
0
ENDTAB
0
TABLE
2
APPID
5
9
100
AcDbSymbolTable
70
2
0
APPID
5
12
100
AcDbSymbolTableRecord
100
AcDbRegAppTableRecord
2
ACAD
70
0
0
ENDTAB
0
TABLE
2
DIMSTYLE
5
A
100
AcDbSymbolTable
70
1
0
ENDTAB
0
TABLE
2
BLOCK_RECORD
5
1
100
AcDbSymbolTable
70
1
0
BLOCK_RECORD
5
1F
100
AcDbSymbolTableRecord
100
AcDbBlockTableRecord
2
*MODEL_SPACE
0
BLOCK_RECORD
5
1B
100
AcDbSymbolTableRecord
100
AcDbBlockTableRecord
2
*PAPER_SPACE
0
ENDTAB
0
ENDSEC
0
SECTION
2
BLOCKS
0
BLOCK
5
20
100
AcDbEntity
100
AcDbBlockBegin
2
*MODEL_SPACE
0
ENDBLK
5
21
100
AcDbEntity
100
AcDbBlockEnd
0
BLOCK
5
1C
100
AcDbEntity
100
AcDbBlockBegin
2
*PAPER_SPACE
0
ENDBLK
5
1D
100
AcDbEntity
100
AcDbBlockEnd
0
ENDSEC
0
SECTION
2
ENTITIES
0
LWPOLYLINE
5
100
100
AcDbEntity
8
0
100
AcDbPolyline
90
4
70
1
43
0.0
10
-14.009999999999991
20
-0.95000000000000417
10
-14.009999999999991
20
-1.5900000000000025
10
-13.36999999999999
20
-1.5900000000000025
10
-13.36999999999999
20
-0.95000000000000406
0
LWPOLYLINE
5
101
100
AcDbEntity
8
0
100
AcDbPolyline
90
4
70
1
43
0.0
10
-14.009999999999991
20
1.5899999999999981
10
-14.009999999999991
20
0.94999999999999751
10
-13.36999999999999
20
0.94999999999999751
10
-13.36999999999999
20
1.5899999999999981
0
LWPOLYLINE
5
102
100
AcDbEntity
8
0
100
AcDbPolyline
90
4
70
1
43
0.0
10
-14.009999999999991
20
4.1299999999999981
10
-14.009999999999991
20
3.4899999999999975
10
-13.36999999999999
20
3.4899999999999975
10
-13.36999999999999
20
4.1299999999999981
0
LWPOLYLINE
5
103
100
AcDbEntity
8
0
100
AcDbPolyline
90
4
70
1
43
0.0
10
-14.009999999999991
20
-6.6700000000000053
10
-13.36999999999999
20
-6.6700000000000053
10
-13.36999999999999
20
-6.0300000000000047
10
-14.009999999999991
20
-6.0300000000000047
0
LWPOLYLINE
5
104
100
AcDbEntity
8
0
100
AcDbPolyline
90
4
70
1
43
0.0
10
-14.009999999999991
20
-3.490000000000002
10
-14.009999999999991
20
-4.1300000000000026
10
-13.36999999999999
20
-4.1300000000000026
10
-13.36999999999999
20
-3.490000000000002
0
LWPOLYLINE
5
105
100
AcDbEntity
8
0
100
AcDbPolyline
90
4
70
1
43
0.0
10
-14.009999999999989
20
-11.110000000000003
10
-14.009999999999989
20
-11.750000000000004
10
-13.36999999999999
20
-11.750000000000004
10
-13.369999999999989
20
-11.110000000000003
0
LWPOLYLINE
5
106
100
AcDbEntity
8
0
100
AcDbPolyline
90
4
70
1
43
0.0
10
-14.009999999999991
20
-9.2100000000000026
10
-13.36999999999999
20
-9.2100000000000026
10
-13.369999999999989
20
-8.5700000000000021
10
-14.009999999999989
20
-8.5700000000000021
0
LWPOLYLINE
5
107
100
AcDbEntity
8
0
100
AcDbPolyline
90
4
70
1
43
0.0
10
-14.009999999999994
20
11.109999999999998
10
-13.369999999999994
20
11.109999999999998
10
-13.369999999999994
20
11.749999999999998
10
-14.009999999999994
20
11.749999999999998
0
LWPOLYLINE
5
108
100
AcDbEntity
8
0
100
AcDbPolyline
90
4
70
1
43
0.0
10
-14.009999999999991
20
9.2099999999999973
10
-14.009999999999991
20
8.5699999999999967
10
-13.369999999999994
20
8.5699999999999985
10
-13.36999999999999
20
9.2099999999999973
0
LWPOLYLINE
5
109
100
AcDbEntity
8
0
100
AcDbPolyline
90
4
70
1
43
0.0
10
-14.009999999999991
20
6.6699999999999982
10
-14.009999999999991
20
6.0299999999999976
10
-13.369999999999994
20
6.0299999999999976
10
-13.36999999999999
20
6.6699999999999982
0
CIRCLE
5
110
100
AcDbEntity
8
0
100
AcDbCircle
10
13.500000000000007
20
-10.500000000000004
30
0
40
1.6000000000000014
0
LWPOLYLINE
5
111
100
AcDbEntity
8
0
100
AcDbPolyline
90
8
70
1
43
0.0
10
-15.999999999999998
20
11.099999999999998
42
-0.41421356237309509
10
-14.1
20
12.999999999999998
10
14.000000000000005
20
13.000000000000005
42
-0.41421356237309509
10
16.000000000000011
20
11.000000000000004
10
16.000000000000007
20
-11.100000000000005
42
-0.41421356237309509
10
14.100000000000009
20
-13.000000000000004
10
-13.999999999999996
20
-13.000000000000004
42
-0.41421356237309509
10
-15.999999999999998
20
-11
0
ENDSEC
0
SECTION
2
OBJECTS
0
DICTIONARY
5
C
100
AcDbDictionary
3
ACAD_GROUP
350
D
3
ACAD_MLINESTYLE
350
17
0
DICTIONARY
5
D
100
AcDbDictionary
0
DICTIONARY
5
1A
330
C
100
AcDbDictionary
0
DICTIONARY
5
17
100
AcDbDictionary
0
ENDSEC
0
EOF
